# Blender v2.78 (sub 0) OBJ File: 'Alle Möbel.blend'
# www.blender.org
mtllib mod_Matruschka.mtl
g Matruschka.002
v 0.000000 0.180000 -0.131304
v 0.000000 0.332874 -0.091920
v 0.079606 0.332874 -0.045960
v 0.113712 0.180000 -0.065652
v 0.079606 0.332874 0.045960
v 0.113712 0.180000 0.065652
v 0.000000 0.332874 0.091920
v 0.000000 0.180000 0.131304
v -0.079606 0.332874 0.045960
v -0.113712 0.180000 0.065652
v -0.079606 0.332874 -0.045960
v -0.113712 0.180000 -0.065652
v 0.000000 0.000000 -0.090278
v 0.078182 0.000000 -0.045138
v 0.078182 -0.000000 0.045138
v 0.000000 -0.000000 0.090278
v -0.078182 -0.000000 0.045138
v -0.078182 0.000000 -0.045138
v 0.000000 0.380926 0.000000
vt 0.7857 0.9894
vt 0.6259 0.9461
vt 0.6277 0.8989
vt 0.7883 0.9219
vt 0.6294 0.8044
vt 0.7906 0.7869
vt 0.6292 0.7571
vt 0.7903 0.7194
vt 0.6306 0.6762
vt 0.6324 0.6289
vt 0.7930 0.6520
vt 0.6340 0.5344
vt 0.7953 0.5170
vt 0.6338 0.4872
vt 0.7950 0.4495
vt 0.6616 0.7364
vt 0.6521 0.7197
vt 0.6621 0.7033
vt 0.6817 0.7036
vt 0.6912 0.7204
vt 0.6811 0.7368
vt 0.9834 0.5413
vt 0.9832 0.4949
vt 0.9818 0.6341
vt 0.9800 0.6805
vt 0.9787 0.8113
vt 0.9785 0.7649
vt 0.9771 0.9041
vt 0.9753 0.9505
vt 0.5546 0.7096
vt 0.5737 0.6733
vt 0.6037 0.7060
vt 0.6154 0.6740
vt 0.6381 0.7111
vt 0.6190 0.7474
vt 0.5773 0.7467
vn -0.0000 0.0131 -0.9999
vn 0.0000 0.5646 -0.8253
vn 0.7148 0.5646 -0.4127
vn 0.8660 0.0131 -0.5000
vn 0.7148 0.5646 0.4127
vn 0.8660 0.0131 0.5000
vn 0.0000 0.5646 0.8253
vn 0.0000 0.0131 0.9999
vn -0.7148 0.5646 0.4127
vn -0.8660 0.0131 0.5000
vn -0.7148 0.5646 -0.4127
vn -0.8660 0.0131 -0.5000
vn 0.0000 -1.0000 -0.0000
vn -0.8444 -0.2222 -0.4875
vn -0.0000 -0.2222 -0.9750
vn -0.8444 -0.2222 0.4875
vn -0.0000 -0.2222 0.9750
vn 0.8444 -0.2222 0.4875
vn 0.8444 -0.2222 -0.4875
vn 0.0000 1.0000 0.0000
usemtl Material.002
s 1
f 1/1/1 2/2/2 3/3/3 4/4/4
f 4/4/4 3/3/3 5/5/5 6/6/6
f 6/6/6 5/5/5 7/7/7 8/8/8
f 8/8/8 7/9/7 9/10/9 10/11/10
f 10/11/10 9/10/9 11/12/11 12/13/12
f 12/13/12 11/12/11 2/14/2 1/15/1
f 13/16/13 14/17/13 15/18/13 16/19/13 17/20/13 18/21/13
f 18/22/14 12/13/12 1/15/1 13/23/15
f 17/24/16 10/11/10 12/13/12 18/22/14
f 16/25/17 8/8/8 10/11/10 17/24/16
f 15/26/18 6/6/6 8/8/8 16/27/17
f 14/28/19 4/4/4 6/6/6 15/26/18
f 13/29/15 1/1/1 4/4/4 14/28/19
f 3/30/3 2/31/2 19/32/20
f 2/31/2 11/33/11 19/32/20
f 11/33/11 9/34/9 19/32/20
f 9/34/9 7/35/7 19/32/20
f 7/35/7 5/36/5 19/32/20
f 5/36/5 3/30/3 19/32/20
