# Blender v2.79 (sub 0) OBJ File: 'mod_Matruschka.blend'
# www.blender.org
mtllib mod_Matruschka.mtl
o Matruschka
v -0.000000 0.000000 -0.045139
v -0.000000 0.166437 -0.045960
v 0.039091 0.000000 -0.022569
v 0.039803 0.166437 -0.022980
v 0.039091 0.000000 0.022569
v 0.039803 0.166437 0.022980
v -0.000000 0.000000 0.045139
v -0.000000 0.166437 0.045960
v -0.039091 0.000000 0.022569
v -0.039803 0.166437 0.022980
v -0.039091 0.000000 -0.022569
v -0.039803 0.166437 -0.022980
v -0.000000 0.090000 -0.065652
v 0.056856 0.090000 -0.032826
v 0.056856 0.090000 0.032826
v -0.000000 0.090000 0.065652
v -0.056856 0.090000 0.032826
v -0.056856 0.090000 -0.032826
v -0.000000 0.190463 -0.000000
vt 0.522058 0.436361
vt 0.515333 0.603117
vt 0.402804 0.638205
vt 0.382450 0.442144
vt 0.269272 0.651644
vt 0.237783 0.451973
vt 0.139783 0.681624
vt 0.060957 0.467394
vt 0.970650 0.445074
vt 0.908979 0.682558
vt 0.768781 0.656286
vt 0.795965 0.442589
vt 0.633404 0.638373
vt 0.652315 0.439624
vt 0.618965 0.784029
vt 0.516829 0.841939
vt 0.415610 0.782441
vt 0.416527 0.665034
vt 0.518663 0.607125
vt 0.619882 0.666622
vt 0.652277 0.212019
vt 0.522354 0.206924
vt 0.780948 0.210993
vt 0.906654 0.193559
vt 0.250149 0.194737
vt 0.107756 0.180064
vt 0.387727 0.201869
vt 0.516034 0.715408
vt 0.638540 0.782237
vt 0.514813 0.854112
vt 0.393854 0.779295
vn -0.0000 0.0131 -0.9999
vn 0.0000 0.5646 -0.8253
vn 0.7148 0.5646 -0.4127
vn 0.8660 0.0131 -0.5000
vn 0.7148 0.5646 0.4127
vn 0.8660 0.0131 0.5000
vn -0.0000 0.5646 0.8253
vn -0.0000 0.0131 0.9999
vn -0.7148 0.5646 0.4127
vn -0.8660 0.0131 0.5000
vn -0.7148 0.5646 -0.4127
vn -0.8660 0.0131 -0.5000
vn 0.0000 -1.0000 0.0000
vn -0.8444 -0.2222 -0.4875
vn -0.0000 -0.2222 -0.9750
vn -0.8444 -0.2222 0.4875
vn -0.0000 -0.2222 0.9750
vn 0.8444 -0.2222 0.4875
vn 0.8444 -0.2222 -0.4875
vn 0.0000 1.0000 0.0000
usemtl None
s 1
f 13/1/1 2/2/2 4/3/3 14/4/4
f 14/4/4 4/3/3 6/5/5 15/6/6
f 15/6/6 6/5/5 8/7/7 16/8/8
f 16/9/8 8/10/7 10/11/9 17/12/10
f 17/12/10 10/11/9 12/13/11 18/14/12
f 18/14/12 12/13/11 2/2/2 13/1/1
f 1/15/13 3/16/13 5/17/13 7/18/13 9/19/13 11/20/13
f 11/21/14 18/14/12 13/1/1 1/22/15
f 9/23/16 17/12/10 18/14/12 11/21/14
f 7/24/17 16/9/8 17/12/10 9/23/16
f 5/25/18 15/6/6 16/8/8 7/26/17
f 3/27/19 14/4/4 15/6/6 5/25/18
f 1/22/15 13/1/1 14/4/4 3/27/19
f 4/3/3 2/2/2 19/28/20
f 2/2/2 12/13/11 19/28/20
f 12/13/11 10/29/9 19/28/20
f 10/29/9 8/30/7 19/28/20
f 8/30/7 6/31/5 19/28/20
f 6/31/5 4/3/3 19/28/20
