# Blender v2.79 (sub 0) OBJ File: 'mod_Kommode.blend'
# www.blender.org
mtllib mod_Kommode.mtl
o Kommode_Kommode_Korpus
v -0.225000 0.000000 0.800000
v -0.225000 0.600000 0.800000
v -0.225000 0.000000 -0.800000
v -0.225000 0.600000 -0.800000
v 0.225000 0.043226 0.752000
v 0.225000 0.556774 0.752000
v 0.225000 0.043226 -0.752000
v 0.225000 0.556774 -0.752000
v 0.225000 0.600000 -0.800000
v 0.225000 0.000000 -0.800000
v 0.225000 0.000000 0.800000
v 0.225000 0.600000 0.800000
v -0.135997 0.556774 -0.752000
v -0.135997 0.043226 -0.752000
v -0.135997 0.043226 0.752000
v -0.135997 0.556774 0.752000
v -0.141586 0.250000 0.753116
v -0.141586 0.290000 0.753116
v -0.141586 0.250000 -0.753116
v -0.141586 0.290000 -0.753116
v 0.219996 0.250000 0.753116
v 0.219996 0.290000 0.753116
v 0.219996 0.250000 -0.753116
v 0.219996 0.290000 -0.753116
vt 0.019003 0.395967
vt 0.078425 0.395967
vt 0.078425 0.554427
vt 0.019002 0.554427
vt 0.078425 0.598994
vt 0.019002 0.598994
vt 0.127273 0.549673
vt 0.127273 0.400720
vt 0.163026 0.400720
vt 0.163026 0.549673
vt 0.019003 0.351400
vt 0.078425 0.351400
vt 0.122992 0.554427
vt 0.122992 0.395967
vt 0.163026 0.585426
vt 0.213887 0.585426
vt 0.218168 0.590180
vt 0.158745 0.590180
vt 0.249639 0.549673
vt 0.249639 0.400720
vt 0.253920 0.395966
vt 0.253920 0.554427
vt 0.213886 0.364968
vt 0.163026 0.364968
vt 0.158745 0.360214
vt 0.218167 0.360214
vt 0.213886 0.549673
vt 0.213886 0.400720
vt 0.378656 0.471202
vt 0.378656 0.475532
vt 0.281238 0.475532
vt 0.281238 0.471202
vt 0.378656 0.427905
vt 0.281238 0.427905
vt 0.378656 0.518829
vt 0.281238 0.518829
vn -1.0000 0.0000 0.0000
vn 0.0000 0.0000 -1.0000
vn 0.0000 -1.0000 0.0000
vn 0.0000 0.0000 1.0000
vn 0.0000 1.0000 0.0000
vn 1.0000 0.0000 0.0000
usemtl None
s off
f 1/1/1 2/2/1 4/3/1 3/4/1
f 3/4/2 4/3/2 9/5/2 10/6/2
f 8/7/3 6/8/3 16/9/3 13/10/3
f 11/11/4 12/12/4 2/2/4 1/1/4
f 9/13/5 4/3/5 2/2/5 12/14/5
f 8/15/6 7/16/6 10/17/6 9/18/6
f 7/19/6 5/20/6 11/21/6 10/22/6
f 6/8/6 8/7/6 9/13/6 12/14/6
f 5/23/6 6/24/6 12/25/6 11/26/6
f 14/27/6 13/10/6 16/9/6 15/28/6
f 7/16/4 8/15/4 13/10/4 14/27/4
f 6/24/2 5/23/2 15/28/2 16/9/2
f 5/20/5 7/19/5 14/27/5 15/28/5
f 23/29/6 24/30/6 22/31/6 21/32/6
f 19/33/3 23/29/3 21/32/3 17/34/3
f 24/30/5 20/35/5 18/36/5 22/31/5
