# Blender v2.78 (sub 0) OBJ File: 'Alle Möbel.blend'
# www.blender.org
mtllib mod_Spielzeug.mtl
g Spielzeug
v 0.012399 0.475124 0.146152
v 0.000000 0.481877 0.159698
v 0.012399 0.471458 0.170677
v 0.017535 0.455155 0.137974
v 0.017535 0.449971 0.172659
v 0.012399 0.433668 0.139956
v 0.012399 0.430003 0.164481
v -0.012399 0.471458 0.170677
v -0.017535 0.449971 0.172659
v -0.012399 0.430003 0.164481
v -0.012399 0.475124 0.146152
v -0.017535 0.455155 0.137974
v -0.012399 0.433668 0.139956
v -0.012321 0.333416 0.012321
v -0.012321 0.369736 0.012059
v -0.012321 0.374795 -0.012059
v -0.012321 0.333416 -0.012321
v 0.012321 0.374795 -0.012059
v 0.012321 0.333416 -0.012321
v 0.012321 0.369736 0.012059
v 0.012321 0.333416 0.012321
v 0.012321 0.400128 -0.000238
v 0.012321 0.382463 0.016943
v -0.012321 0.400128 -0.000238
v -0.012321 0.382463 0.016943
v -0.012321 0.388119 0.032415
v -0.012321 0.412459 0.028565
v 0.012321 0.388119 0.032415
v 0.012321 0.388291 0.129439
v -0.012321 0.388291 0.129439
v 0.012321 0.412459 0.028565
v 0.012321 0.412286 0.123826
v 0.012321 0.419997 0.139322
v 0.012321 0.408252 0.160985
v -0.012321 0.412286 0.123826
v -0.012321 0.408252 0.160985
v 0.012321 0.445123 0.165948
v -0.012321 0.445123 0.165948
v -0.012321 0.419997 0.139322
v -0.012321 0.444004 0.141331
v 0.012321 0.444004 0.141331
v 0.000000 0.000000 -0.145691
v 0.000000 0.234756 -0.151765
v 0.131432 0.234756 -0.075883
v 0.126172 0.000000 -0.072845
v 0.131432 0.234756 0.075883
v 0.126172 -0.000000 0.072845
v -0.000000 0.234756 0.151765
v -0.000000 -0.000000 0.145691
v 0.000000 0.254795 -0.105149
v -0.091062 0.254795 -0.052575
v -0.079995 0.333713 -0.046185
v 0.000000 0.333713 -0.092370
v -0.131433 0.234756 0.075883
v -0.126172 -0.000000 0.072845
v -0.131433 0.234756 -0.075883
v -0.126172 0.000000 -0.072845
v 0.091062 0.254795 -0.052575
v 0.091062 0.254795 0.052575
v -0.000000 0.254795 0.105149
v -0.091062 0.254795 0.052575
v 0.079995 0.333713 -0.046185
v -0.079995 0.333713 0.046185
v -0.000000 0.333713 0.092371
v 0.079995 0.333713 0.046185
vt 0.0468 0.2236
vt 0.0469 0.2113
vt 0.0593 0.2098
vt 0.0832 0.2002
vt 0.0761 0.2151
vt 0.0627 0.1969
vt 0.0808 0.1857
vt 0.0644 0.1846
vt 0.0469 0.2036
vt 0.0481 0.1944
vt 0.0486 0.1816
vt 0.0350 0.2095
vt 0.0315 0.1966
vt 0.0304 0.1816
vt 0.0175 0.2153
vt 0.0089 0.2013
vt 0.0104 0.1825
vt 0.0371 0.0162
vt 0.0371 0.0405
vt 0.0244 0.0405
vt 0.0244 0.0162
vt 0.0753 0.0162
vt 0.0753 0.0405
vt 0.0626 0.0405
vt 0.0626 0.0162
vt 0.0498 0.0405
vt 0.0498 0.0162
vt 0.0626 0.0536
vt 0.0498 0.0536
vt 0.0244 0.0536
vt 0.0371 0.0536
vt 0.0371 0.0686
vt 0.0244 0.0686
vt 0.0753 0.0536
vt 0.0498 0.0686
vt 0.0498 0.1289
vt 0.0371 0.1289
vt 0.0753 0.0686
vt 0.0626 0.0686
vt 0.0626 0.1289
vt 0.0626 0.1460
vt 0.0498 0.1460
vt 0.0753 0.1289
vt 0.0244 0.1289
vt 0.0371 0.1460
vt 0.0498 0.1653
vt 0.0371 0.1653
vt 0.0244 0.1460
vt 0.0753 0.1460
vt 0.0753 0.1653
vt 0.0626 0.1653
vt 0.0244 0.1653
vt 0.0940 0.2260
vt 0.2056 0.2260
vt 0.2056 0.2966
vt 0.0940 0.2966
vt 0.2056 0.3674
vt 0.0940 0.3674
vt 0.2056 0.4380
vt 0.0940 0.4380
vt 0.2297 0.2260
vt 0.2297 0.1553
vt 0.2676 0.1553
vt 0.2676 0.2260
vt 0.0940 0.0140
vt 0.2056 0.0140
vt 0.2056 0.0846
vt 0.0940 0.0846
vt 0.2056 0.1553
vt 0.0940 0.1553
vt 0.0707 0.2472
vt 0.0707 0.2731
vt 0.0482 0.2861
vt 0.0257 0.2731
vt 0.0257 0.2472
vt 0.0482 0.2341
vt 0.2297 0.2966
vt 0.2297 0.3674
vt 0.2297 0.4380
vt 0.2297 0.0140
vt 0.2297 0.0846
vt 0.0767 0.3160
vt 0.0767 0.3506
vt 0.0468 0.3678
vt 0.0168 0.3506
vt 0.0168 0.3160
vt 0.0468 0.2987
vt 0.2676 0.0140
vt 0.2676 0.0846
vt 0.2676 0.2966
vt 0.2676 0.3674
vt 0.2676 0.4380
vn 0.5732 0.6638 -0.4804
vn 0.0000 0.9890 0.1478
vn 0.5732 0.4943 0.6535
vn 0.7071 0.1045 -0.6993
vn 0.7071 -0.1045 0.6993
vn 0.6681 -0.2251 -0.7092
vn 0.6681 -0.4226 0.6124
vn -0.5732 0.4943 0.6535
vn -0.7071 -0.1045 0.6993
vn -0.6681 -0.4226 0.6124
vn -0.5732 0.6638 -0.4804
vn -0.7071 0.1045 -0.6993
vn -0.6681 -0.2251 -0.7092
vn -1.0000 -0.0000 0.0000
vn 0.0000 0.0063 -1.0000
vn -0.0000 0.2197 -0.9756
vn 1.0000 0.0000 0.0000
vn 0.0000 0.0072 1.0000
vn 0.0000 -0.1786 0.9839
vn 0.0000 -0.7127 0.7014
vn -0.0000 0.7184 -0.6957
vn 0.0000 -0.9845 0.1752
vn 0.0000 -0.9602 0.2792
vn -0.0000 0.9798 -0.2000
vn 0.0000 0.9737 -0.2280
vn -0.0000 -0.5398 0.8418
vn -0.0000 -0.1334 0.9911
vn 0.0000 0.5616 -0.8274
vn 0.0000 0.0834 -0.9965
vn -0.0000 -0.0259 -0.9997
vn 0.8657 -0.0259 -0.4998
vn 0.8657 -0.0259 0.4998
vn -0.0000 -0.0259 0.9997
vn 0.0000 0.7027 -0.7115
vn -0.6162 0.7027 -0.3558
vn -0.8549 0.1598 -0.4936
vn 0.0000 0.1598 -0.9871
vn -0.8657 -0.0259 0.4998
vn -0.8657 -0.0259 -0.4998
vn 0.0000 -1.0000 -0.0000
vn 0.6162 0.7027 -0.3558
vn 0.3420 0.9187 -0.1975
vn -0.0000 0.9187 -0.3949
vn 0.6162 0.7027 0.3558
vn 0.3420 0.9187 0.1975
vn -0.0000 0.7027 0.7115
vn -0.0000 0.9187 0.3949
vn -0.6162 0.7027 0.3558
vn -0.3420 0.9187 0.1975
vn -0.3420 0.9187 -0.1975
vn 0.0000 1.0000 0.0000
vn -0.0000 0.1598 0.9871
vn -0.8549 0.1598 0.4936
vn 0.8549 0.1598 -0.4936
vn 0.8549 0.1598 0.4936
usemtl Material.002
s 1
f 1/1/1 2/2/2 3/3/3
f 4/4/4 1/5/1 3/3/3 5/6/5
f 6/7/6 4/4/4 5/6/5 7/8/7
f 5/6/5 3/3/3 8/9/8 9/10/9
f 7/8/7 5/6/5 9/10/9 10/11/10
f 3/3/3 2/2/2 8/9/8
f 9/10/9 8/9/8 11/12/11 12/13/12
f 10/11/10 9/10/9 12/13/12 13/14/13
f 8/9/8 2/2/2 11/12/11
f 11/12/11 2/2/2 1/1/1
f 12/13/12 11/12/11 1/15/1 4/16/4
f 13/14/13 12/13/12 4/16/4 6/17/6
f 14/18/14 15/19/14 16/20/14 17/21/14
f 17/22/15 16/23/16 18/24/16 19/25/15
f 19/25/17 18/24/17 20/26/17 21/27/17
f 21/27/18 20/26/19 15/19/19 14/18/18
f 20/26/17 18/24/17 22/28/17 23/29/17
f 24/30/14 25/31/14 26/32/14 27/33/14
f 16/20/14 15/19/14 25/31/14 24/30/14
f 15/19/19 20/26/19 23/29/20 25/31/20
f 18/24/16 16/23/16 24/34/21 22/28/21
f 26/32/22 28/35/22 29/36/23 30/37/23
f 25/31/20 23/29/20 28/35/22 26/32/22
f 22/28/21 24/34/21 27/38/24 31/39/24
f 23/29/17 22/28/17 31/39/17 28/35/17
f 29/36/17 32/40/17 33/41/17 34/42/17
f 31/39/24 27/38/24 35/43/25 32/40/25
f 28/35/17 31/39/17 32/40/17 29/36/17
f 27/33/14 26/32/14 30/37/14 35/44/14
f 36/45/26 34/42/26 37/46/27 38/47/27
f 35/44/14 30/37/14 36/45/14 39/48/14
f 30/37/23 29/36/23 34/42/26 36/45/26
f 32/40/25 35/43/25 39/49/28 33/41/28
f 33/41/28 39/49/28 40/50/29 41/51/29
f 34/42/17 33/41/17 41/51/17 37/46/17
f 39/48/14 36/45/14 38/47/14 40/52/14
f 42/53/30 43/54/30 44/55/31 45/56/31
f 45/56/31 44/55/31 46/57/32 47/58/32
f 47/58/32 46/57/32 48/59/33 49/60/33
f 50/61/34 51/62/35 52/63/36 53/64/37
f 49/65/33 48/66/33 54/67/38 55/68/38
f 55/68/38 54/67/38 56/69/39 57/70/39
f 42/71/40 45/72/40 47/73/40 49/74/40 55/75/40 57/76/40
f 50/61/34 58/77/41 44/55/42 43/54/43
f 58/77/41 59/78/44 46/57/45 44/55/42
f 59/78/44 60/79/46 48/59/47 46/57/45
f 60/80/46 61/81/48 54/67/49 48/66/47
f 61/81/48 51/62/35 56/69/50 54/67/49
f 51/62/35 50/61/34 43/54/43 56/69/50
f 62/82/51 53/83/51 52/84/51 63/85/51 64/86/51 65/87/51
f 61/81/48 60/80/46 64/88/52 63/89/53
f 59/78/44 58/77/41 62/90/54 65/91/55
f 51/62/35 61/81/48 63/89/53 52/63/36
f 60/79/46 59/78/44 65/91/55 64/92/52
f 58/77/41 50/61/34 53/64/37 62/90/54
f 57/70/39 56/69/39 43/54/30 42/53/30
