# Blender v2.79 (sub 0) OBJ File: 'mod_Tisch.blend'
# www.blender.org
mtllib mod_Tisch.mtl
o Tisch
v -0.375000 0.639592 0.800000
v -0.375000 0.660000 0.800000
v -0.375000 0.639592 -0.800000
v -0.375000 0.660000 -0.800000
v 0.375000 0.639592 0.800000
v 0.375000 0.660000 0.800000
v 0.375000 0.639592 -0.800000
v 0.375000 0.660000 -0.800000
v 0.273222 0.639592 0.753812
v 0.297079 0.639592 0.729955
v 0.239483 0.639592 0.729955
v 0.273222 0.639592 0.696216
v 0.327636 0.000000 0.811274
v 0.351009 0.000000 0.787900
v 0.294580 0.000000 0.787900
v 0.327636 0.000000 0.754845
v 0.248155 0.213934 0.733966
v 0.277233 0.213934 0.704889
v 0.281168 0.223119 0.758462
v 0.301729 0.223119 0.737901
v -0.305874 0.639592 0.729955
v -0.282017 0.639592 0.753812
v -0.282017 0.639592 0.696216
v -0.248278 0.639592 0.729955
v -0.363337 0.000000 0.784369
v -0.339963 0.000000 0.807742
v -0.339963 0.000000 0.751313
v -0.306907 0.000000 0.784369
v -0.286028 0.213934 0.704889
v -0.256951 0.213934 0.733966
v -0.310525 0.223119 0.737902
v -0.289964 0.223119 0.758462
v -0.282017 0.639592 -0.749141
v -0.305874 0.639592 -0.725284
v -0.248278 0.639592 -0.725284
v -0.282017 0.639592 -0.691545
v -0.336431 0.000000 -0.806603
v -0.359805 0.000000 -0.783230
v -0.303376 0.000000 -0.783230
v -0.336431 0.000000 -0.750174
v -0.256951 0.213934 -0.729295
v -0.286029 0.213934 -0.700218
v -0.289964 0.223119 -0.753792
v -0.310525 0.223119 -0.733231
v 0.297079 0.639592 -0.725284
v 0.273222 0.639592 -0.749141
v 0.273222 0.639592 -0.691545
v 0.239483 0.639592 -0.725284
v 0.354541 0.000000 -0.779698
v 0.331167 0.000000 -0.803072
v 0.331167 0.000000 -0.746643
v 0.298112 0.000000 -0.779698
v 0.277233 0.213934 -0.700218
v 0.248156 0.213934 -0.729295
v 0.301729 0.223119 -0.733231
v 0.281168 0.223119 -0.753792
vt 0.036556 0.208290
vt 0.036568 0.201954
vt 0.399567 0.201953
vt 0.399556 0.208289
vt 0.405239 0.201953
vt 0.399567 0.031797
vt 0.405239 0.031797
vt 0.399578 0.025461
vt 0.036567 0.031798
vt 0.036579 0.025462
vt 0.030895 0.031798
vt 0.030895 0.201954
vt 0.399567 0.031797
vt 0.399567 0.202557
vt 0.035279 0.202557
vt 0.035279 0.031797
vt 0.202139 0.243591
vt 0.202176 0.262843
vt 0.076064 0.263732
vt 0.075912 0.242002
vt 0.204481 0.296906
vt 0.204609 0.282954
vt 0.355354 0.283411
vt 0.355231 0.298879
vt 0.201614 0.316996
vt 0.075485 0.314025
vt 0.071169 0.296304
vt 0.356021 0.264513
vt 0.071418 0.281399
vt 0.355617 0.317742
vt 0.356016 0.242002
vt 0.202139 0.243591
vt 0.202176 0.262843
vt 0.076064 0.263732
vt 0.075912 0.242002
vt 0.204481 0.296906
vt 0.204609 0.282954
vt 0.355354 0.283411
vt 0.355231 0.298879
vt 0.201614 0.316996
vt 0.075485 0.314025
vt 0.071169 0.296304
vt 0.356021 0.264513
vt 0.071418 0.281399
vt 0.355617 0.317742
vt 0.356016 0.242002
vt 0.202139 0.243591
vt 0.202176 0.262843
vt 0.076064 0.263732
vt 0.075912 0.242002
vt 0.204481 0.296906
vt 0.204609 0.282954
vt 0.355354 0.283411
vt 0.355231 0.298879
vt 0.201614 0.316996
vt 0.075485 0.314025
vt 0.071169 0.296304
vt 0.356021 0.264513
vt 0.071418 0.281399
vt 0.355617 0.317742
vt 0.356016 0.242002
vt 0.202139 0.243591
vt 0.202176 0.262843
vt 0.076064 0.263732
vt 0.075912 0.242002
vt 0.204481 0.296906
vt 0.204609 0.282954
vt 0.355354 0.283411
vt 0.355231 0.298879
vt 0.201614 0.316996
vt 0.075485 0.314025
vt 0.071169 0.296304
vt 0.356021 0.264513
vt 0.071418 0.281399
vt 0.355617 0.317742
vt 0.356016 0.242002
vn -1.0000 0.0000 0.0000
vn 0.0000 0.0000 -1.0000
vn 1.0000 0.0000 0.0000
vn 0.0000 0.0000 1.0000
vn 0.0000 -1.0000 0.0000
vn 0.0000 1.0000 0.0000
vn -0.6967 -0.1706 -0.6967
vn -0.6969 -0.1696 -0.6969
vn -0.6711 -0.3148 -0.6711
vn 0.6977 0.1630 0.6977
vn 0.6978 0.1620 0.6978
vn 0.7069 0.0214 0.7069
vn -0.5895 0.0349 0.8070
vn -0.5917 0.0704 0.8031
vn -0.5893 0.0323 0.8073
vn 0.8080 0.0237 -0.5887
vn 0.8101 -0.0032 -0.5863
vn 0.8082 0.0219 -0.5885
vn 0.8056 0.0487 -0.5905
vn -0.5863 -0.0032 0.8101
vn 0.6745 0.3001 0.6745
vn -0.7069 -0.0211 -0.7070
vn 0.6967 -0.1706 -0.6967
vn 0.6969 -0.1696 -0.6969
vn 0.6711 -0.3148 -0.6711
vn -0.6977 0.1630 0.6977
vn -0.6978 0.1620 0.6978
vn -0.7069 0.0214 0.7069
vn -0.8070 0.0349 -0.5895
vn -0.8031 0.0704 -0.5917
vn -0.8073 0.0323 -0.5893
vn 0.5887 0.0237 0.8080
vn 0.5863 -0.0032 0.8101
vn 0.5885 0.0219 0.8082
vn 0.5905 0.0487 0.8056
vn -0.8101 -0.0032 -0.5863
vn -0.6745 0.3001 0.6745
vn 0.7069 -0.0211 -0.7069
vn 0.6967 -0.1706 0.6967
vn 0.6969 -0.1696 0.6969
vn 0.6711 -0.3148 0.6711
vn -0.6977 0.1630 -0.6977
vn -0.6978 0.1620 -0.6978
vn -0.7069 0.0214 -0.7069
vn 0.5895 0.0349 -0.8070
vn 0.5917 0.0704 -0.8031
vn 0.5893 0.0323 -0.8073
vn -0.8080 0.0237 0.5887
vn -0.8101 -0.0032 0.5863
vn -0.8082 0.0219 0.5885
vn -0.8056 0.0487 0.5905
vn 0.5863 -0.0032 -0.8101
vn -0.6745 0.3001 -0.6745
vn 0.7069 -0.0211 0.7070
vn -0.6967 -0.1706 0.6967
vn -0.6969 -0.1696 0.6969
vn -0.6711 -0.3148 0.6711
vn 0.6977 0.1630 -0.6977
vn 0.6978 0.1620 -0.6978
vn 0.7069 0.0214 -0.7069
vn 0.8070 0.0349 0.5895
vn 0.8031 0.0704 0.5917
vn 0.8073 0.0323 0.5893
vn -0.5887 0.0237 -0.8080
vn -0.5863 -0.0032 -0.8101
vn -0.5885 0.0219 -0.8082
vn -0.5905 0.0487 -0.8056
vn 0.8101 -0.0032 0.5863
vn 0.6745 0.3001 -0.6745
vn -0.7069 -0.0211 0.7070
usemtl None
s off
f 1/1/1 2/2/1 4/3/1 3/4/1
f 3/5/2 4/3/2 8/6/2 7/7/2
f 7/8/3 8/6/3 6/9/3 5/10/3
f 5/11/4 6/9/4 2/2/4 1/12/4
f 3/13/5 7/14/5 5/15/5 1/16/5
f 8/6/6 4/3/6 2/2/6 6/9/6
s 1
f 17/17/7 18/18/8 16/19/9 15/20/9
f 19/21/10 20/22/11 10/23/12 9/24/12
f 17/25/13 15/26/14 13/27/14 19/21/15
f 18/18/16 12/28/17 10/23/17 20/22/18
f 16/19/19 18/18/16 20/22/18 14/29/19
f 11/30/20 17/25/13 19/21/15 9/24/20
f 13/27/21 14/29/21 20/22/11 19/21/10
f 11/31/22 12/28/22 18/18/8 17/17/7
f 29/32/23 30/33/24 28/34/25 27/35/25
f 31/36/26 32/37/27 22/38/28 21/39/28
f 29/40/29 27/41/30 25/42/30 31/36/31
f 30/33/32 24/43/33 22/38/33 32/37/34
f 28/34/35 30/33/32 32/37/34 26/44/35
f 23/45/36 29/40/29 31/36/31 21/39/36
f 25/42/37 26/44/37 32/37/27 31/36/26
f 23/46/38 24/43/38 30/33/24 29/32/23
f 41/47/39 42/48/40 40/49/41 39/50/41
f 43/51/42 44/52/43 34/53/44 33/54/44
f 41/55/45 39/56/46 37/57/46 43/51/47
f 42/48/48 36/58/49 34/53/49 44/52/50
f 40/49/51 42/48/48 44/52/50 38/59/51
f 35/60/52 41/55/45 43/51/47 33/54/52
f 37/57/53 38/59/53 44/52/43 43/51/42
f 35/61/54 36/58/54 42/48/40 41/47/39
f 53/62/55 54/63/56 52/64/57 51/65/57
f 55/66/58 56/67/59 46/68/60 45/69/60
f 53/70/61 51/71/62 49/72/62 55/66/63
f 54/63/64 48/73/65 46/68/65 56/67/66
f 52/64/67 54/63/64 56/67/66 50/74/67
f 47/75/68 53/70/61 55/66/63 45/69/68
f 49/72/69 50/74/69 56/67/59 55/66/58
f 47/76/70 48/73/70 54/63/56 53/62/55
