# Blender v2.78 (sub 0) OBJ File: 'Alle Möbel.blend'
# www.blender.org
mtllib mod_Tisch.mtl
g Tisch
v -0.750000 0.959183 1.600000
v -0.750000 1.000000 1.600000
v -0.750000 1.000000 -1.600000
v -0.750000 0.959184 -1.600000
v 0.750000 1.000000 -1.600000
v 0.750000 0.959184 -1.600000
v 0.750000 1.000000 1.600000
v 0.750000 0.959183 1.600000
v 0.496311 0.427868 1.467932
v 0.554466 0.427868 1.409777
v 0.655271 -0.000000 1.509690
v 0.589161 -0.000000 1.575801
v 0.562337 0.446238 1.516925
v 0.603458 0.446238 1.475803
v 0.594157 0.960169 1.459910
v 0.546443 0.960169 1.507624
v 0.655271 -0.000000 1.622548
v 0.546443 0.960169 1.392432
v 0.702019 -0.000000 1.575800
v 0.478965 0.960169 1.459910
v -0.572057 0.427868 1.409777
v -0.513902 0.427868 1.467932
v -0.613815 -0.000000 1.568738
v -0.679926 -0.000000 1.502627
v -0.621050 0.446238 1.475803
v -0.579928 0.446238 1.516925
v -0.564035 0.960169 1.507624
v -0.611749 0.960169 1.459910
v -0.726673 -0.000000 1.568738
v -0.496557 0.960169 1.459910
v -0.679926 -0.000000 1.615485
v -0.564035 0.960169 1.392432
v -0.513902 0.427868 -1.458591
v -0.572057 0.427868 -1.400436
v -0.672863 0.000000 -1.500349
v -0.606752 0.000000 -1.566459
v -0.579928 0.446238 -1.507583
v -0.621050 0.446238 -1.466462
v -0.611749 0.960170 -1.450568
v -0.564035 0.960170 -1.498282
v -0.672863 0.000000 -1.613207
v -0.564035 0.960170 -1.383090
v -0.719610 0.000000 -1.566459
v -0.496557 0.960170 -1.450568
v 0.554466 0.427868 -1.400436
v 0.496311 0.427868 -1.458591
v 0.596224 0.000000 -1.559397
v 0.662334 0.000000 -1.493286
v 0.603458 0.446238 -1.466462
v 0.562337 0.446238 -1.507583
v 0.546443 0.960170 -1.498282
v 0.594158 0.960170 -1.450568
v 0.709082 0.000000 -1.559397
v 0.478965 0.960170 -1.450568
v 0.662334 0.000000 -1.606144
v 0.546443 0.960170 -1.383090
vt 0.8084 0.7168
vt 0.8084 0.7187
vt 0.9619 0.7187
vt 0.9619 0.7168
vt 0.9619 0.7187
vt 0.9619 0.7168
vt 0.8084 0.7187
vt 0.8084 0.7168
vt 0.2053 0.3328
vt 0.2053 0.3328
vt 0.0773 0.3328
vt 0.0773 0.3328
vt 0.1941 0.1158
vt 0.1941 0.1158
vt 0.0407 0.1158
vt 0.0407 0.1158
vt 0.8752 0.7902
vt 0.8854 0.7902
vt 0.8680 0.6338
vt 0.8565 0.6338
vt 0.8667 0.7969
vt 0.8739 0.7969
vt 0.8766 0.9848
vt 0.8683 0.9848
vt 0.8483 0.6338
vt 0.8884 0.9848
vt 0.8565 0.6338
vt 0.8766 0.9848
vt 0.8854 0.7902
vt 0.8752 0.7902
vt 0.8577 0.6338
vt 0.8692 0.6338
vt 0.8739 0.7969
vt 0.8667 0.7969
vt 0.8683 0.9848
vt 0.8766 0.9848
vt 0.8577 0.6338
vt 0.8766 0.9848
vt 0.8496 0.6338
vt 0.8884 0.9848
vt 0.8849 0.7902
vt 0.8748 0.7902
vt 0.8922 0.6338
vt 0.9037 0.6338
vt 0.8935 0.7969
vt 0.8863 0.7969
vt 0.8835 0.9848
vt 0.8918 0.9848
vt 0.9119 0.6338
vt 0.8717 0.9848
vt 0.9037 0.6338
vt 0.8835 0.9848
vt 0.8748 0.7902
vt 0.8849 0.7902
vt 0.9025 0.6338
vt 0.8910 0.6338
vt 0.8863 0.7969
vt 0.8935 0.7969
vt 0.8918 0.9848
vt 0.8835 0.9848
vt 0.9025 0.6338
vt 0.8835 0.9848
vt 0.9106 0.6338
vt 0.8717 0.9848
vn -1.0000 0.0000 0.0000
vn 0.0000 0.0000 -1.0000
vn 1.0000 0.0000 0.0000
vn 0.0000 0.0000 1.0000
vn 0.0000 -1.0000 -0.0000
vn 0.0000 1.0000 0.0000
vn -0.6960 -0.1766 -0.6960
vn -0.6961 -0.1756 -0.6961
vn -0.6711 -0.3148 -0.6711
vn 0.6969 0.1694 0.6969
vn 0.6970 0.1684 0.6970
vn 0.7067 0.0346 0.7067
vn -0.5894 0.0338 0.8071
vn -0.5917 0.0704 0.8031
vn -0.5893 0.0314 0.8073
vn 0.8081 0.0226 -0.5886
vn 0.8102 -0.0052 -0.5862
vn 0.8083 0.0209 -0.5885
vn 0.8056 0.0487 -0.5905
vn -0.5862 -0.0052 0.8102
vn 0.6745 0.3001 0.6745
vn -0.7067 -0.0337 -0.7067
vn 0.6960 -0.1766 -0.6960
vn 0.6961 -0.1756 -0.6961
vn 0.6711 -0.3148 -0.6711
vn -0.6969 0.1694 0.6969
vn -0.6970 0.1684 0.6970
vn -0.7067 0.0346 0.7067
vn -0.8071 0.0338 -0.5894
vn -0.8031 0.0704 -0.5917
vn -0.8073 0.0314 -0.5893
vn 0.5886 0.0226 0.8081
vn 0.5862 -0.0052 0.8102
vn 0.5885 0.0209 0.8083
vn 0.5905 0.0487 0.8056
vn -0.8102 -0.0052 -0.5862
vn -0.6745 0.3001 0.6745
vn 0.7067 -0.0337 -0.7067
vn 0.6960 -0.1766 0.6960
vn 0.6961 -0.1756 0.6961
vn 0.6711 -0.3148 0.6711
vn -0.6969 0.1694 -0.6969
vn -0.6970 0.1684 -0.6970
vn -0.7067 0.0346 -0.7067
vn 0.5894 0.0338 -0.8071
vn 0.5917 0.0704 -0.8031
vn 0.5893 0.0314 -0.8073
vn -0.8081 0.0226 0.5886
vn -0.8102 -0.0052 0.5862
vn -0.8083 0.0209 0.5885
vn -0.8056 0.0487 0.5905
vn 0.5862 -0.0052 -0.8102
vn -0.6745 0.3001 -0.6745
vn 0.7067 -0.0337 0.7067
vn -0.6960 -0.1766 0.6960
vn -0.6961 -0.1756 0.6961
vn -0.6711 -0.3148 0.6711
vn 0.6969 0.1694 -0.6969
vn 0.6970 0.1684 -0.6970
vn 0.7067 0.0346 -0.7067
vn 0.8071 0.0338 0.5894
vn 0.8031 0.0704 0.5917
vn 0.8073 0.0314 0.5893
vn -0.5886 0.0226 -0.8081
vn -0.5862 -0.0052 -0.8102
vn -0.5885 0.0209 -0.8083
vn -0.5905 0.0487 -0.8056
vn 0.8102 -0.0052 0.5862
vn 0.6745 0.3001 -0.6745
vn -0.7067 -0.0337 0.7067
usemtl Material.001
s off
f 1/1/1 2/2/1 3/3/1 4/4/1
f 4/4/2 3/3/2 5/5/2 6/6/2
f 6/6/3 5/5/3 7/7/3 8/8/3
f 8/8/4 7/7/4 2/2/4 1/1/4
f 4/9/5 6/10/5 8/11/5 1/12/5
f 5/13/6 3/14/6 2/15/6 7/16/6
s 1
f 9/17/7 10/18/8 11/19/9 12/20/9
f 13/21/10 14/22/11 15/23/12 16/24/12
f 9/17/13 12/20/14 17/25/14 13/21/15
f 10/18/16 18/26/17 15/23/17 14/22/18
f 11/19/19 10/18/16 14/22/18 19/27/19
f 20/28/20 9/17/13 13/21/15 16/24/20
f 17/25/21 19/27/21 14/22/11 13/21/10
f 20/28/22 18/26/22 10/18/8 9/17/7
f 21/29/23 22/30/24 23/31/25 24/32/25
f 25/33/26 26/34/27 27/35/28 28/36/28
f 21/29/29 24/32/30 29/37/30 25/33/31
f 22/30/32 30/38/33 27/35/33 26/34/34
f 23/31/35 22/30/32 26/34/34 31/39/35
f 32/40/36 21/29/29 25/33/31 28/36/36
f 29/37/37 31/39/37 26/34/27 25/33/26
f 32/40/38 30/38/38 22/30/24 21/29/23
f 33/41/39 34/42/40 35/43/41 36/44/41
f 37/45/42 38/46/43 39/47/44 40/48/44
f 33/41/45 36/44/46 41/49/46 37/45/47
f 34/42/48 42/50/49 39/47/49 38/46/50
f 35/43/51 34/42/48 38/46/50 43/51/51
f 44/52/52 33/41/45 37/45/47 40/48/52
f 41/49/53 43/51/53 38/46/43 37/45/42
f 44/52/54 42/50/54 34/42/40 33/41/39
f 45/53/55 46/54/56 47/55/57 48/56/57
f 49/57/58 50/58/59 51/59/60 52/60/60
f 45/53/61 48/56/62 53/61/62 49/57/63
f 46/54/64 54/62/65 51/59/65 50/58/66
f 47/55/67 46/54/64 50/58/66 55/63/67
f 56/64/68 45/53/61 49/57/63 52/60/68
f 53/61/69 55/63/69 50/58/59 49/57/58
f 56/64/70 54/62/70 46/54/56 45/53/55
