# Blender v2.78 (sub 0) OBJ File: 'Alle Möbel.blend'
# www.blender.org
mtllib mod_Teppich.mtl
g Teppich_Cube
v -2.561710 -0.021667 2.000000
v -2.468824 0.018333 1.927481
v -2.561710 -0.021667 -2.000000
v -2.468824 0.018333 -1.927481
v 2.561710 -0.021667 2.000000
v 2.468824 0.018333 1.927481
v 2.561710 -0.021667 -2.000000
v 2.468824 0.018333 -1.927481
v -2.561710 0.003333 2.000000
v -2.561710 0.003333 -2.000000
v 2.561710 0.003333 -2.000000
v 2.561710 0.003333 2.000000
vt 0.0078 0.4521
vt 0.0175 0.4619
vt 0.0175 0.9866
vt 0.0078 0.9964
vt 0.5338 0.9866
vt 0.5436 0.9964
vt 0.5338 0.4619
vt 0.5436 0.4521
vt 0.5436 0.4521
vt 0.0078 0.4521
vt 0.5436 0.9964
vt 0.0078 0.9964
vn -0.1594 0.9872 0.0000
vn 0.0000 0.9793 -0.2026
vn 0.1594 0.9872 0.0000
vn 0.0000 0.9793 0.2026
vn 0.0000 1.0000 0.0000
vn 0.0000 0.0000 1.0000
vn 1.0000 0.0000 0.0000
vn 0.0000 0.0000 -1.0000
vn -1.0000 0.0000 0.0000
usemtl Material.002
s off
f 9/1/1 2/2/1 4/3/1 10/4/1
f 10/4/2 4/3/2 8/5/2 11/6/2
f 11/6/3 8/5/3 6/7/3 12/8/3
f 12/8/4 6/7/4 2/2/4 9/1/4
f 8/5/5 4/3/5 2/2/5 6/7/5
f 5/9/6 12/8/6 9/1/6 1/10/6
f 7/11/7 11/6/7 12/8/7 5/9/7
f 3/12/8 10/4/8 11/6/8 7/11/8
f 1/10/9 9/1/9 10/4/9 3/12/9
