# Blender v2.78 (sub 0) OBJ File: 'FantasyUVs3_Küche.blend'
# www.blender.org
mtllib mod_Pfeife_Fantasie.mtl
g Pfeife.001
v -0.324293 0.161874 0.016732
v -0.325400 0.158789 0.000000
v -0.263120 0.135604 0.000000
v -0.260963 0.142368 0.021686
v -0.321594 0.171810 0.023791
v -0.251540 0.157393 0.030927
v -0.324293 0.161874 -0.016730
v -0.260963 0.142368 -0.021685
v -0.321594 0.171810 -0.023790
v -0.251540 0.157393 -0.030927
v -0.318832 0.181607 -0.016898
v -0.242077 0.168162 -0.022019
v -0.391564 0.178354 -0.011776
v -0.391397 0.181865 0.000000
v -0.317654 0.185373 0.000000
v -0.135492 0.065371 0.028944
v -0.117935 0.087170 0.040935
v -0.318832 0.181607 0.016899
v -0.242077 0.168162 0.022020
v -0.238164 0.171421 0.000000
v -0.100254 0.099692 0.028944
v -0.092898 0.101199 0.000000
v -0.142724 0.056121 0.000000
v -0.135492 0.065371 -0.028944
v -0.117935 0.087170 -0.040935
v -0.100254 0.099692 -0.028944
v -0.025655 -0.016850 0.034607
v -0.006244 0.011702 0.048944
v -0.391564 0.178354 0.011777
v -0.391719 0.170290 0.016655
v 0.013166 0.032399 0.034607
v 0.021207 0.034094 0.000000
v -0.033696 -0.028678 -0.000000
v -0.025655 -0.016850 -0.034606
v -0.006244 0.011702 -0.048945
v 0.013166 0.032399 -0.034606
v 0.052978 -0.077943 0.039090
v 0.068014 -0.042387 0.055274
v 0.083050 -0.012861 0.039090
v 0.089279 -0.005780 -0.000000
v 0.046748 -0.092674 -0.000000
v 0.052978 -0.077943 -0.039090
v 0.068014 -0.042387 -0.055274
v 0.083050 -0.012861 -0.039090
v 0.107626 -0.116559 0.046843
v 0.110325 -0.070477 0.066032
v 0.113021 -0.024973 0.046820
v 0.114139 -0.009970 -0.000000
v 0.106509 -0.135650 -0.000000
v 0.107626 -0.116559 -0.046843
v 0.110325 -0.070477 -0.066032
v 0.113021 -0.024973 -0.046820
v 0.150075 -0.135971 0.057291
v 0.142972 -0.081144 0.079737
v 0.135926 -0.026563 0.057114
v 0.132971 -0.005497 -0.000000
v 0.153512 -0.159886 -0.000000
v 0.150075 -0.135971 -0.057291
v 0.142972 -0.081144 -0.079737
v 0.135926 -0.026563 -0.057114
v 0.266231 -0.032386 0.118394
v 0.340581 -0.076936 0.087615
v 0.357166 -0.013326 0.083523
v 0.277479 0.010508 0.113873
v 0.163396 0.029443 0.000000
v 0.191050 0.011043 0.082425
v 0.200449 0.033342 0.082254
v 0.168361 0.043115 0.000000
v 0.376520 -0.098849 -0.000000
v 0.391719 -0.024502 -0.000000
v 0.340582 -0.076936 -0.087614
v 0.357166 -0.013326 -0.083522
v 0.266232 -0.032385 -0.118393
v 0.277480 0.010508 -0.113873
v 0.190886 0.011153 -0.081933
v 0.199865 0.033520 -0.080757
v 0.280303 0.056653 0.104392
v 0.354277 0.051994 0.074958
v 0.344338 0.094527 0.062599
v 0.281738 0.094741 0.088513
v 0.176223 0.063069 0.000000
v 0.206807 0.061159 0.074797
v 0.219137 0.094955 0.062597
v 0.193204 0.095044 0.000000
v 0.385054 0.049909 0.000000
v 0.370273 0.094438 0.000001
v 0.354277 0.051994 -0.074956
v 0.344339 0.094527 -0.062596
v 0.280304 0.056653 -0.104392
v 0.281738 0.094741 -0.088512
v 0.206807 0.061160 -0.074797
v 0.219139 0.094955 -0.062596
v 0.269657 -0.140338 -0.083180
v 0.220053 -0.077069 -0.113208
v 0.248496 -0.062867 -0.122199
v 0.311426 -0.122451 -0.090699
v 0.170201 -0.014245 -0.076943
v 0.152716 0.011328 0.000000
v 0.158513 0.017475 0.000000
v 0.180797 -0.006672 -0.080962
v 0.296030 -0.179738 -0.000000
v 0.341747 -0.155584 -0.000000
v 0.269656 -0.140338 0.083180
v 0.311426 -0.122451 0.090700
v 0.220052 -0.077069 0.113210
v 0.248496 -0.062867 0.122199
v 0.170362 -0.014482 0.077655
v 0.181120 -0.007022 0.082132
v 0.159328 -0.019200 0.072154
v 0.190986 -0.080833 0.102849
v 0.140812 -0.000082 -0.000000
v 0.148703 -0.023821 0.066568
v 0.146764 0.005892 0.000000
v 0.167100 -0.082523 0.091883
v 0.186166 -0.143017 0.066759
v 0.224313 -0.143727 0.075082
v 0.198083 -0.177400 -0.000000
v 0.245679 -0.185373 -0.000000
v 0.186166 -0.143017 -0.066758
v 0.224313 -0.143727 -0.075081
v 0.167102 -0.082523 -0.091882
v 0.190986 -0.080833 -0.102850
v 0.148703 -0.023821 -0.066567
v 0.159276 -0.019097 -0.071857
v -0.391719 0.170290 -0.016655
v -0.391718 0.163303 -0.011776
v -0.391698 0.162807 0.000000
v -0.391718 0.163303 0.011777
v -0.391717 0.170418 -0.012733
v -0.391600 0.175564 -0.009618
v -0.391441 0.178432 0.000000
v -0.391600 0.175564 0.009620
v -0.391717 0.170418 0.012733
v -0.391655 0.166099 0.000000
v -0.391677 0.166521 -0.010012
v -0.391677 0.166521 0.010013
v 0.327464 0.094585 -0.045716
v 0.346406 0.094520 0.000000
v 0.327464 0.094584 0.045719
v 0.281738 0.094741 0.064649
v 0.217071 0.094962 0.000000
v 0.236013 0.094897 -0.045716
v 0.281738 0.094741 -0.064647
v 0.236012 0.094897 0.045718
v 0.236013 -0.113432 -0.045716
v 0.281738 -0.113588 -0.064647
v 0.236012 -0.113432 0.045718
v 0.217071 -0.113367 -0.000000
v 0.327464 -0.113745 -0.045716
v 0.327464 -0.113745 0.045719
v 0.281738 -0.113588 0.064649
v 0.346406 -0.113810 -0.000000
vt 0.4404 0.4094
vt 0.4403 0.4120
vt 0.4393 0.3827
vt 0.4396 0.3789
vt 0.4409 0.4072
vt 0.4402 0.3733
vt 0.4404 0.4136
vt 0.4396 0.3844
vt 0.4409 0.4132
vt 0.4402 0.3811
vt 0.4413 0.4111
vt 0.4407 0.3755
vt 0.4412 0.4447
vt 0.4413 0.4431
vt 0.4415 0.4084
vt 0.4362 0.3189
vt 0.4371 0.3091
vt 0.4413 0.4068
vt 0.4407 0.3700
vt 0.4409 0.3709
vt 0.4377 0.3023
vt 0.4378 0.3024
vt 0.4358 0.3259
vt 0.4362 0.3262
vt 0.4371 0.3194
vt 0.4377 0.3096
vt 0.4325 0.2664
vt 0.4338 0.2554
vt 0.4412 0.4417
vt 0.4408 0.4412
vt 0.4347 0.2481
vt 0.4348 0.2487
vt 0.4320 0.2745
vt 0.4325 0.2751
vt 0.4338 0.2678
vt 0.4347 0.2568
vt 0.4298 0.2288
vt 0.4314 0.2196
vt 0.4327 0.2146
vt 0.4330 0.2166
vt 0.4292 0.2366
vt 0.4298 0.2386
vt 0.4314 0.2336
vt 0.4327 0.2245
vt 0.4281 0.2020
vt 0.4302 0.1983
vt 0.4322 0.1995
vt 0.4328 0.2049
vt 0.4273 0.2085
vt 0.4281 0.2139
vt 0.4302 0.2150
vt 0.4322 0.2113
vt 0.4273 0.1807
vt 0.4297 0.1812
vt 0.4321 0.1874
vt 0.4330 0.1960
vt 0.4262 0.1863
vt 0.4273 0.1952
vt 0.4297 0.2014
vt 0.4321 0.2018
vt 0.4318 0.1183
vt 0.4299 0.0871
vt 0.4327 0.0798
vt 0.4337 0.1135
vt 0.4346 0.1817
vt 0.4338 0.1582
vt 0.4348 0.1538
vt 0.4352 0.1793
vt 0.4289 0.0812
vt 0.4322 0.0741
vt 0.4299 0.1092
vt 0.4327 0.1009
vt 0.4318 0.1482
vt 0.4337 0.1423
vt 0.4338 0.1791
vt 0.4348 0.1747
vt 0.4358 0.1134
vt 0.4356 0.0822
vt 0.4375 0.0885
vt 0.4375 0.1147
vt 0.4361 0.1756
vt 0.4360 0.1518
vt 0.4375 0.1475
vt 0.4375 0.1676
vt 0.4355 0.0772
vt 0.4375 0.0842
vt 0.4356 0.1012
vt 0.4375 0.1043
vt 0.4358 0.1398
vt 0.4375 0.1371
vt 0.4360 0.1706
vt 0.4375 0.1633
vt 0.4271 0.1421
vt 0.4299 0.1693
vt 0.4305 0.1570
vt 0.4279 0.1234
vt 0.4326 0.1882
vt 0.4338 0.1867
vt 0.4341 0.1840
vt 0.4330 0.1837
vt 0.4253 0.1192
vt 0.4264 0.0976
vt 0.4271 0.1211
vt 0.4279 0.1004
vt 0.4299 0.1407
vt 0.4305 0.1261
vt 0.4326 0.1686
vt 0.4330 0.1629
vt 0.4324 0.1745
vt 0.4297 0.1557
vt 0.4333 0.1923
vt 0.4322 0.1802
vt 0.4335 0.1895
vt 0.4296 0.1683
vt 0.4270 0.1625
vt 0.4269 0.1435
vt 0.4254 0.1653
vt 0.4251 0.1429
vt 0.4270 0.1794
vt 0.4269 0.1624
vt 0.4296 0.1915
vt 0.4297 0.1816
vt 0.4322 0.1970
vt 0.4324 0.1927
vt 0.4408 0.4454
vt 0.4405 0.4448
vt 0.4405 0.4433
vt 0.4405 0.4418
vt 0.4408 0.4449
vt 0.4410 0.4444
vt 0.4412 0.4431
vt 0.4410 0.4420
vt 0.4408 0.4417
vt 0.4406 0.4432
vt 0.4406 0.4445
vt 0.4406 0.4420
vt 0.4375 0.1101
vt 0.4375 0.0954
vt 0.4375 0.0986
vt 0.4375 0.1177
vt 0.4375 0.1564
vt 0.4375 0.1532
vt 0.4375 0.1341
vt 0.4375 0.1417
vt 0.4283 0.1532
vt 0.4283 0.1341
vt 0.4283 0.1417
vt 0.4283 0.1564
vt 0.4282 0.1101
vt 0.4282 0.0986
vt 0.4283 0.1177
vt 0.4282 0.0954
vn -0.1745 -0.7936 0.5829
vn -0.1861 -0.9825 -0.0000
vn -0.4429 -0.8966 -0.0000
vn -0.3414 -0.6694 0.6598
vn -0.0970 0.0760 0.9924
vn -0.0528 0.1381 0.9890
vn -0.1745 -0.7937 -0.5828
vn -0.3414 -0.6694 -0.6598
vn -0.0970 0.0760 -0.9924
vn -0.0528 0.1381 -0.9890
vn 0.0228 0.8383 -0.5447
vn 0.2379 0.8098 -0.5363
vn -0.0762 0.8185 -0.5694
vn -0.0549 0.9985 -0.0000
vn 0.0606 0.9982 -0.0000
vn -0.4286 -0.5756 0.6964
vn -0.0170 0.1100 0.9938
vn 0.0228 0.8383 0.5447
vn 0.2379 0.8098 0.5363
vn 0.3124 0.9499 -0.0000
vn 0.3738 0.7388 0.5607
vn 0.4736 0.8808 -0.0000
vn -0.5789 -0.8154 -0.0000
vn -0.4286 -0.5756 -0.6964
vn -0.0170 0.1100 -0.9938
vn 0.3738 0.7388 -0.5607
vn -0.4566 -0.5480 0.7009
vn -0.0272 0.0776 0.9966
vn -0.0762 0.8185 0.5694
vn -0.0973 -0.0177 0.9951
vn 0.4015 0.7032 0.5868
vn 0.5138 0.8579 -0.0000
vn -0.6193 -0.7851 -0.0000
vn -0.4566 -0.5480 -0.7009
vn -0.0272 0.0776 -0.9966
vn 0.4015 0.7032 -0.5868
vn -0.4890 -0.5611 0.6678
vn -0.1281 0.0626 0.9898
vn 0.2694 0.7289 0.6294
vn 0.3832 0.9237 -0.0000
vn -0.6102 -0.7922 -0.0000
vn -0.4890 -0.5611 -0.6678
vn -0.1281 0.0626 -0.9898
vn 0.2694 0.7289 -0.6294
vn -0.4846 -0.6180 0.6191
vn -0.3266 -0.0012 0.9452
vn -0.0675 0.7355 0.6741
vn 0.0473 0.9989 0.0000
vn -0.5283 -0.8490 -0.0000
vn -0.4846 -0.6180 -0.6191
vn -0.3266 -0.0012 -0.9452
vn -0.0675 0.7355 -0.6741
vn -0.4007 -0.6779 0.6163
vn -0.4334 -0.0843 0.8973
vn -0.4098 0.6323 0.6575
vn -0.3453 0.9385 -0.0000
vn -0.3952 -0.9186 -0.0000
vn -0.4007 -0.6779 -0.6163
vn -0.4334 -0.0843 -0.8973
vn -0.4098 0.6323 -0.6575
vn 0.0411 0.0671 0.9969
vn 0.6592 -0.2296 0.7160
vn 0.7127 -0.0020 0.7015
vn 0.0439 0.1431 0.9887
vn -0.9146 0.4043 0.0000
vn -0.6316 0.3166 0.7077
vn -0.6238 0.2896 0.7259
vn -0.9339 0.3576 0.0000
vn 0.9260 -0.3776 -0.0000
vn 0.9976 -0.0694 -0.0000
vn 0.6592 -0.2296 -0.7160
vn 0.7127 -0.0020 -0.7015
vn 0.0376 0.0687 -0.9969
vn 0.0409 0.1436 -0.9888
vn -0.6280 0.3163 -0.7110
vn -0.6347 0.2904 -0.7161
vn 0.0260 0.2986 0.9540
vn 0.6955 0.2300 0.6807
vn 0.6744 0.3450 0.6527
vn 0.0218 0.3943 0.9187
vn -0.9170 0.3988 0.0000
vn -0.6420 0.3720 0.6704
vn -0.6231 0.4452 0.6430
vn -0.8860 0.4637 -0.0000
vn 0.9794 0.2021 -0.0000
vn 0.9463 0.3233 0.0000
vn 0.6956 0.2300 -0.6807
vn 0.6745 0.3450 -0.6527
vn 0.0231 0.2950 -0.9552
vn 0.0218 0.3943 -0.9187
vn -0.6403 0.3675 -0.6745
vn -0.6231 0.4452 -0.6430
vn 0.0795 -0.7147 -0.6949
vn -0.2506 -0.1839 -0.9505
vn -0.0568 -0.0878 -0.9945
vn 0.4319 -0.5274 -0.7316
vn -0.5387 0.4709 -0.6986
vn -0.6539 0.7566 0.0000
vn -0.8160 0.5781 0.0000
vn -0.5752 0.3749 -0.7270
vn 0.2442 -0.9697 -0.0000
vn 0.6573 -0.7536 -0.0000
vn 0.0795 -0.7147 0.6949
vn 0.4319 -0.5274 0.7316
vn -0.2516 -0.1892 0.9492
vn -0.0545 -0.0890 0.9945
vn -0.5420 0.4655 0.6997
vn -0.5693 0.3694 0.7345
vn -0.5398 0.5137 0.6669
vn -0.3382 -0.1488 0.9292
vn -0.5704 0.8213 0.0000
vn -0.5502 0.5118 0.6598
vn -0.6131 0.7900 0.0000
vn -0.4124 -0.1304 0.9016
vn -0.2720 -0.7084 0.6513
vn -0.1285 -0.7214 0.6805
vn -0.2271 -0.9739 -0.0000
vn -0.0333 -0.9994 -0.0000
vn -0.2720 -0.7084 -0.6513
vn -0.1285 -0.7214 -0.6805
vn -0.4110 -0.1291 -0.9024
vn -0.3359 -0.1449 -0.9307
vn -0.5485 0.5110 -0.6618
vn -0.5367 0.5162 -0.6675
vn -0.0973 -0.0177 -0.9951
vn -0.0635 -0.8598 -0.5067
vn -0.0454 -0.9990 -0.0000
vn -0.0635 -0.8598 0.5067
vn -0.9999 0.0100 0.0048
vn -0.9998 0.0177 0.0065
vn -0.9999 0.0164 0.0000
vn -0.9998 0.0177 -0.0065
vn -0.9999 0.0100 -0.0048
vn -0.9999 0.0122 0.0000
vn -1.0000 0.0067 0.0047
vn -1.0000 0.0067 -0.0047
vn 0.0034 1.0000 -0.0000
vn 0.0008 -0.0000 1.0000
vn 0.7074 -0.0000 0.7068
vn 0.7066 -0.0000 0.7076
vn -0.0008 -0.0000 1.0000
vn 1.0000 0.0000 0.0000
vn 0.7074 0.0000 -0.7068
vn 0.7066 0.0000 -0.7076
vn -0.7066 -0.0000 0.7076
vn -0.7074 -0.0000 0.7068
vn 0.0008 0.0000 -1.0000
vn -0.7066 0.0000 -0.7076
vn -0.7074 0.0000 -0.7068
vn -0.0008 0.0000 -1.0000
vn -1.0000 -0.0000 0.0000
usemtl None.009
s 1
f 1/1/1 2/2/2 3/3/3 4/4/4
f 5/5/5 1/1/1 4/4/4 6/6/6
f 2/2/2 7/7/7 8/8/8 3/3/3
f 7/7/7 9/9/9 10/10/10 8/8/8
f 9/9/9 11/11/11 12/12/12 10/10/10
f 11/11/11 13/13/13 14/14/14 15/15/15
f 6/6/6 4/4/4 16/16/16 17/17/17
f 15/15/15 18/18/18 19/19/19 20/20/20
f 20/20/20 19/19/19 21/21/21 22/22/22
f 4/4/4 3/3/3 23/23/23 16/16/16
f 3/3/3 8/8/8 24/24/24 23/23/23
f 8/8/8 10/10/10 25/25/25 24/24/24
f 10/10/10 12/12/12 26/26/26 25/25/25
f 12/12/12 20/20/20 22/22/22 26/26/26
f 17/17/17 16/16/16 27/27/27 28/28/28
f 5/5/5 18/18/18 29/29/29 30/30/30
f 22/22/22 21/21/21 31/31/31 32/32/32
f 16/16/16 23/23/23 33/33/33 27/27/27
f 23/23/23 24/24/24 34/34/34 33/33/33
f 24/24/24 25/25/25 35/35/35 34/34/34
f 25/25/25 26/26/26 36/36/36 35/35/35
f 26/26/26 22/22/22 32/32/32 36/36/36
f 28/28/28 27/27/27 37/37/37 38/38/38
f 19/19/19 6/6/6 17/17/17 21/21/21
f 32/32/32 31/31/31 39/39/39 40/40/40
f 27/27/27 33/33/33 41/41/41 37/37/37
f 33/33/33 34/34/34 42/42/42 41/41/41
f 34/34/34 35/35/35 43/43/43 42/42/42
f 35/35/35 36/36/36 44/44/44 43/43/43
f 36/36/36 32/32/32 40/40/40 44/44/44
f 38/38/38 37/37/37 45/45/45 46/46/46
f 21/21/21 17/17/17 28/28/28 31/31/31
f 40/40/40 39/39/39 47/47/47 48/48/48
f 37/37/37 41/41/41 49/49/49 45/45/45
f 41/41/41 42/42/42 50/50/50 49/49/49
f 42/42/42 43/43/43 51/51/51 50/50/50
f 43/43/43 44/44/44 52/52/52 51/51/51
f 44/44/44 40/40/40 48/48/48 52/52/52
f 46/46/46 45/45/45 53/53/53 54/54/54
f 31/31/31 28/28/28 38/38/38 39/39/39
f 48/48/48 47/47/47 55/55/55 56/56/56
f 45/45/45 49/49/49 57/57/57 53/53/53
f 49/49/49 50/50/50 58/58/58 57/57/57
f 50/50/50 51/51/51 59/59/59 58/58/58
f 51/51/51 52/52/52 60/60/60 59/59/59
f 52/52/52 48/48/48 56/56/56 60/60/60
f 61/61/61 62/62/62 63/63/63 64/64/64
f 39/39/39 38/38/38 46/46/46 47/47/47
f 65/65/65 66/66/66 67/67/67 68/68/68
f 62/62/62 69/69/69 70/70/70 63/63/63
f 69/69/69 71/71/71 72/72/72 70/70/70
f 71/71/71 73/73/73 74/74/74 72/72/72
f 73/73/73 75/75/75 76/76/76 74/74/74
f 75/75/75 65/65/65 68/68/68 76/76/76
f 77/77/77 78/78/78 79/79/79 80/80/80
f 81/81/81 82/82/82 83/83/83 84/84/84
f 78/78/78 85/85/85 86/86/86 79/79/79
f 85/85/85 87/87/87 88/88/88 86/86/86
f 87/87/87 89/89/89 90/90/90 88/88/88
f 89/89/89 91/91/91 92/92/92 90/90/90
f 91/91/91 81/81/81 84/84/84 92/92/92
f 93/93/93 94/94/94 95/95/95 96/96/96
f 68/68/68 67/67/67 82/82/82 81/81/81
f 97/97/97 98/98/98 99/99/99 100/100/100
f 94/94/94 97/97/97 100/100/100 95/95/95
f 76/76/76 68/68/68 81/81/81 91/91/91
f 101/101/101 93/93/93 96/96/96 102/102/102
f 103/103/103 101/101/101 102/102/102 104/104/104
f 105/105/105 103/103/103 104/104/104 106/106/106
f 107/107/107 105/105/105 106/106/106 108/108/108
f 109/109/109 110/110/110 105/105/105 107/107/107
f 72/72/72 74/74/74 89/89/89 87/87/87
f 74/74/74 76/76/76 91/91/91 89/89/89
f 111/111/111 112/112/112 109/109/109 113/113/113
f 70/70/70 72/72/72 87/87/87 85/85/85
f 63/63/63 70/70/70 85/85/85 78/78/78
f 64/64/64 63/63/63 78/78/78 77/77/77
f 67/67/67 64/64/64 77/77/77 82/82/82
f 66/66/66 61/61/61 64/64/64 67/67/67
f 114/114/114 115/115/115 116/116/116 110/110/110
f 115/115/115 117/117/117 118/118/118 116/116/116
f 117/117/117 119/119/119 120/120/120 118/118/118
f 119/119/119 121/121/121 122/122/122 120/120/120
f 121/121/121 123/123/123 124/124/124 122/122/122
f 123/123/123 111/111/111 113/113/113 124/124/124
f 96/96/96 95/95/95 73/73/73 71/71/71
f 56/56/56 55/55/55 112/112/112 111/111/111
f 100/100/100 99/99/99 65/65/65 75/75/75
f 95/95/95 100/100/100 75/75/75 73/73/73
f 113/113/113 109/109/109 107/107/107 98/98/98
f 102/102/102 96/96/96 71/71/71 69/69/69
f 104/104/104 102/102/102 69/69/69 62/62/62
f 106/106/106 104/104/104 62/62/62 61/61/61
f 108/108/108 106/106/106 61/61/61 66/66/66
f 98/98/98 107/107/107 108/108/108 99/99/99
f 110/110/110 116/116/116 103/103/103 105/105/105
f 116/116/116 118/118/118 101/101/101 103/103/103
f 118/118/118 120/120/120 93/93/93 101/101/101
f 120/120/120 122/122/122 94/94/94 93/93/93
f 122/122/122 124/124/124 97/97/97 94/94/94
f 124/124/124 113/113/113 98/98/98 97/97/97
f 58/58/58 59/59/59 121/121/121 119/119/119
f 112/112/112 114/114/114 110/110/110 109/109/109
f 60/60/60 56/56/56 111/111/111 123/123/123
f 59/59/59 60/60/60 123/123/123 121/121/121
f 57/57/57 58/58/58 119/119/119 117/117/117
f 53/53/53 57/57/57 117/117/117 115/115/115
f 54/54/54 53/53/53 115/115/115 114/114/114
f 55/55/55 54/54/54 114/114/114 112/112/112
f 47/47/47 46/46/46 54/54/54 55/55/55
f 82/82/82 77/77/77 80/80/80 83/83/83
f 99/99/99 108/108/108 66/66/66 65/65/65
f 6/6/6 19/19/19 18/18/18 5/5/5
f 14/14/14 29/29/29 18/18/18 15/15/15
f 12/12/12 11/11/11 15/15/15 20/20/20
f 125/125/125 13/13/13 11/11/11 9/9/9
f 126/126/126 125/125/125 9/9/9 7/7/7
f 127/127/127 126/126/126 7/7/7 2/2/2
f 30/30/30 128/128/128 1/1/1 5/5/5
f 128/128/128 127/127/127 2/2/2 1/1/1
f 129/129/129 130/130/130 13/13/130 125/125/129
f 131/131/131 132/132/132 29/29/132 14/14/131
f 132/132/132 133/133/133 30/30/133 29/29/132
f 134/134/134 135/135/135 126/126/135 127/127/134
f 133/133/133 136/136/136 128/128/136 30/30/133
f 130/130/130 131/131/131 14/14/131 13/13/130
f 135/135/135 129/129/129 125/125/129 126/126/135
f 136/136/136 134/134/134 127/127/134 128/128/136
f 137/137/137 138/138/137 86/86/137 88/88/137
f 139/139/137 140/140/137 80/80/137 79/79/137
f 141/141/137 142/142/137 92/92/137 84/84/137
f 143/143/137 137/137/137 88/88/137 90/90/137
f 138/138/137 139/139/137 79/79/137 86/86/137
f 144/144/137 141/141/137 84/84/137 83/83/137
f 140/140/137 144/144/137 83/83/137 80/80/137
f 142/142/137 143/143/137 90/90/137 92/92/137
f 143/143/138 142/142/139 145/145/140 146/146/141
f 141/141/142 144/144/143 147/147/144 148/148/142
f 137/137/145 143/143/138 146/146/141 149/149/146
f 140/140/147 139/139/148 150/150/149 151/151/150
f 144/144/143 140/140/147 151/151/150 147/147/144
f 139/139/148 138/138/151 152/152/151 150/150/149
f 142/142/139 141/141/142 148/148/142 145/145/140
f 138/138/151 137/137/145 149/149/146 152/152/151
