# Blender v2.78 (sub 0) OBJ File: 'FantasyUVs3_Küche.blend'
# www.blender.org
mtllib mod_Aubergine_Fantasie.mtl
g Aubergine
v 0.134443 2.881182 -0.285906
v 0.440646 2.959122 -0.152774
v 0.559452 2.979673 0.170759
v 0.480042 2.896188 0.493036
v 0.171146 2.792885 0.627501
v -0.142402 2.711901 0.489544
v -0.278470 2.704859 0.163894
v -0.158806 2.772445 -0.157920
v 0.254471 2.600934 -0.415337
v 0.599528 2.651490 -0.271915
v 0.730581 2.641533 0.100985
v 0.629601 2.566241 0.476007
v 0.282004 2.487727 0.620613
v -0.082445 2.438504 0.467777
v -0.239344 2.451714 0.101816
v -0.096615 2.513166 -0.265833
v 0.364022 2.274854 -0.545559
v 0.739113 2.296113 -0.392647
v 0.910015 2.226949 0.034475
v 0.764085 2.199256 0.474291
v 0.374948 2.169589 0.632362
v -0.046632 2.164799 0.461385
v -0.224366 2.206258 0.053040
v -0.050147 2.237761 -0.369277
v 0.344497 1.875149 -0.646404
v 0.807337 1.878327 -0.455764
v 1.002126 1.828508 -0.003717
v 0.833097 1.822093 0.452020
v 0.378724 1.816125 0.641053
v -0.070813 1.841417 0.457890
v -0.296538 1.875277 -0.006369
v -0.097408 1.866288 -0.461409
v 0.318082 1.508811 -0.689706
v 0.811680 1.514045 -0.483890
v 1.028239 1.531838 0.005650
v 0.845694 1.550576 0.489568
v 0.370261 1.561230 0.688745
v -0.139066 1.549481 0.480944
v -0.415291 1.540496 -0.006785
v -0.169401 1.522680 -0.489473
v 0.271698 1.152815 -0.700891
v 0.799479 1.168205 -0.475313
v 1.025417 1.208472 0.043419
v 0.823045 1.252211 0.562723
v 0.309121 1.272309 0.774020
v -0.219121 1.256048 0.551550
v -0.532008 1.223456 0.025321
v -0.249053 1.173459 -0.493175
v 0.212874 0.804777 -0.699945
v 0.749726 0.822323 -0.467703
v 0.976911 0.856848 0.065263
v 0.760649 0.903705 0.607273
v 0.223608 0.920612 0.825074
v -0.326817 0.885855 0.589929
v -0.608793 0.895401 0.047728
v -0.330246 0.819641 -0.484814
v 0.128549 0.497585 -0.709103
v 0.652864 0.511640 -0.483617
v 0.871143 0.509587 0.045765
v 0.650444 0.554358 0.591212
v 0.120768 0.559408 0.803291
v -0.399007 0.530277 0.575744
v -0.656583 0.572010 0.034059
v -0.392814 0.490199 -0.500626
v 0.049517 3.019871 -0.200198
v -0.030021 3.090560 -0.093731
v 0.292725 3.126232 -0.081376
v 0.135913 3.193309 -0.001170
v 0.402558 3.171347 0.196063
v 0.207690 3.239467 0.201180
v 0.309231 3.112104 0.476921
v 0.143128 3.191879 0.406806
v 0.061914 3.001364 0.591777
v -0.018842 3.080515 0.502022
v -0.183235 2.901633 0.478539
v -0.200966 2.999511 0.406565
v -0.295752 2.879478 0.197741
v -0.283708 2.969611 0.202684
v -0.192808 2.926855 -0.080131
v -0.209988 3.007655 0.000282
v 0.075330 0.309130 -0.621531
v 0.011871 0.044119 -0.235545
v 0.026850 0.119496 -0.398072
v 0.178725 0.044364 -0.168555
v 0.530853 0.310844 -0.423877
v 0.300885 0.121781 -0.282270
v 0.249652 0.044615 0.000034
v 0.721431 0.309257 0.016641
v 0.424005 0.123313 -0.000264
v 0.175748 0.043382 0.172207
v 0.509935 0.313104 0.462753
v 0.299409 0.125626 0.282622
v 0.005461 0.038255 0.234284
v 0.053632 0.317037 0.646087
v 0.018238 0.123461 0.393750
v -0.152318 0.043673 0.167482
v -0.389050 0.314900 0.460394
v -0.256911 0.124793 0.274620
v -0.221382 0.044077 0.000491
v -0.581976 0.312092 0.012465
v -0.373294 0.121627 -0.003803
v -0.154586 0.043631 -0.164625
v -0.382417 0.306112 -0.436053
v -0.254873 0.118296 -0.282512
v -0.271010 3.052404 0.092510
v -0.074895 3.225435 0.316093
v -0.175628 3.149001 0.365530
v -0.308669 3.023623 0.205148
v -0.019357 3.251923 0.209270
v -0.272866 3.066203 0.319212
v -0.057657 3.215297 0.096589
v -0.168222 3.135363 0.049620
v 0.000000 -0.000000 -0.000000
v -0.449161 3.464993 0.151422
v -0.405666 3.499143 0.173940
v -0.391985 3.514133 0.223071
v -0.410395 3.504436 0.273041
v -0.450786 3.473655 0.295533
v -0.493756 3.438978 0.273647
v -0.511355 3.425531 0.223121
v -0.495204 3.434380 0.175224
v -0.310795 3.476815 0.223182
v -0.217819 3.369355 0.222340
v -0.336125 3.278538 0.352711
v -0.412251 3.405650 0.335779
v -0.477307 3.350142 0.302559
v -0.406286 3.211787 0.314799
v -0.328059 3.267824 0.094015
v -0.407682 3.394640 0.111457
v -0.335944 3.451475 0.144132
v -0.246680 3.338256 0.131024
v -0.481527 3.339817 0.144353
v -0.409303 3.201660 0.131025
v -0.345170 3.458681 0.302450
v -0.260248 3.343847 0.314733
v -0.509062 3.322513 0.222515
v -0.441319 3.178843 0.222368
v -0.469009 3.518038 0.208836
v -0.465574 3.509431 0.191070
v -0.459739 3.525153 0.214319
v -0.446123 3.524186 0.201563
v -0.440288 3.530550 0.223185
v -0.457544 3.527367 0.223242
v -0.448032 3.526617 0.245102
v -0.460387 3.525670 0.232459
v -0.468786 3.520216 0.237525
v -0.466164 3.513322 0.255551
v -0.478346 3.513156 0.232570
v -0.485621 3.498372 0.245724
v -0.492661 3.492797 0.223186
v -0.480939 3.510537 0.222327
v -0.485818 3.496482 0.202321
v -0.478582 3.511778 0.214955
vt 0.2880 0.5436
vt 0.2879 0.5313
vt 0.3041 0.5324
vt 0.3077 0.5448
vt 0.2870 0.6928
vt 0.2836 0.7027
vt 0.2906 0.7083
vt 0.2948 0.6993
vt 0.2777 0.7176
vt 0.2801 0.7050
vt 0.2922 0.7039
vt 0.2880 0.7148
vt 0.2655 0.7139
vt 0.2663 0.6997
vt 0.2587 0.7071
vt 0.2582 0.6936
vt 0.2612 0.7011
vt 0.2611 0.6889
vt 0.2716 0.6999
vt 0.2731 0.6887
vt 0.2565 0.5352
vt 0.2603 0.5372
vt 0.2688 0.5245
vt 0.2663 0.5230
vt 0.2997 0.5912
vt 0.3003 0.6132
vt 0.3129 0.6106
vt 0.3129 0.5879
vt 0.2986 0.6837
vt 0.3012 0.6811
vt 0.2556 0.5732
vt 0.2556 0.5510
vt 0.2507 0.5504
vt 0.2506 0.5731
vt 0.2631 0.6538
vt 0.2630 0.6332
vt 0.2594 0.6302
vt 0.2597 0.6530
vt 0.3080 0.6330
vt 0.3092 0.6092
vt 0.3114 0.6341
vt 0.2965 0.6585
vt 0.2919 0.6762
vt 0.3075 0.6598
vt 0.2895 0.5885
vt 0.3088 0.5868
vt 0.2911 0.6096
vt 0.2998 0.6349
vt 0.2749 0.5750
vt 0.2750 0.5548
vt 0.2986 0.5690
vt 0.3123 0.5657
vt 0.3119 0.5464
vt 0.2987 0.5484
vt 0.3080 0.5645
vt 0.2594 0.6737
vt 0.2682 0.6781
vt 0.2534 0.5954
vt 0.2640 0.5697
vt 0.2664 0.5922
vt 0.2764 0.5954
vt 0.2580 0.5963
vt 0.2913 0.6291
vt 0.3048 0.6603
vt 0.2888 0.6554
vt 0.2637 0.5476
vt 0.2882 0.5657
vt 0.2787 0.6151
vt 0.2615 0.6148
vt 0.2574 0.6138
vt 0.2710 0.6292
vt 0.2695 0.6540
vt 0.2696 0.6115
vt 0.2845 0.6828
vt 0.2797 0.6360
vt 0.2780 0.6569
vt 0.2759 0.6725
vt 0.2625 0.6714
vt 0.2678 0.5326
vt 0.2765 0.5380
vt 0.2962 0.5367
vt 0.0965 0.0786
vt 0.0918 0.1437
vt 0.1018 0.1435
vt 0.1091 0.0766
vt 0.3079 0.5346
vt 0.2802 0.7079
vt 0.2856 0.7130
vt 0.1245 0.0851
vt 0.1338 0.0968
vt 0.1569 0.0690
vt 0.1383 0.0665
vt 0.2669 0.7192
vt 0.2617 0.7123
vt 0.1046 0.0972
vt 0.0946 0.0868
vt 0.0839 0.0352
vt 0.1020 0.0491
vt 0.2715 0.7056
vt 0.1104 0.0563
vt 0.2758 0.7222
vt 0.1200 0.1020
vt 0.1299 0.0638
vt 0.0885 0.0429
vt 0.1324 0.1021
vt 0.1520 0.0705
vt 0.2640 0.7074
vt 0.2833 0.7193
vt 0.2740 0.5188
vt 0.2727 0.5176
vt 0.2962 0.5214
vt 0.2984 0.5227
vt 0.2905 0.5170
vt 0.2917 0.5179
vt 0.2912 0.5241
vt 0.2874 0.5188
vt 0.2790 0.5249
vt 0.2801 0.5192
vt 0.2859 0.5208
vt 0.2843 0.5167
vt 0.2733 0.5216
vt 0.2767 0.5170
vt 0.1143 0.1500
vt 0.1221 0.1596
vt 0.1106 0.1676
vt 0.0975 0.1618
vt 0.1207 0.1669
vt 0.0899 0.1516
vt 0.2821 0.5152
vt 0.1156 0.2146
vt 0.1092 0.2384
vt 0.1037 0.2385
vt 0.1068 0.2147
vt 0.0957 0.2105
vt 0.0890 0.2029
vt 0.0905 0.1975
vt 0.1168 0.2098
vt 0.1098 0.2027
vt 0.1055 0.2322
vt 0.1102 0.2357
vt 0.0991 0.1978
vt 0.0968 0.2359
vt 0.0924 0.2316
vt 0.1013 0.2514
vt 0.1024 0.2522
vt 0.1047 0.2499
vt 0.1025 0.2485
vt 0.0934 0.2286
vt 0.0990 0.2296
vt 0.0997 0.2474
vt 0.1042 0.2509
vt 0.1017 0.2509
vt 0.0987 0.2498
vt 0.0967 0.2480
vt 0.0972 0.2469
vt 0.0998 0.2520
vt 0.0989 0.2514
vt 0.1003 0.2510
vt 0.1011 0.2526
vt 0.0991 0.2509
vt 0.1021 0.2527
vn 0.8946 -0.4468 0.0131
vn 0.6991 -0.7151 -0.0005
vn 0.5202 -0.6639 -0.5373
vn 0.6561 -0.3444 -0.6715
vn -0.7488 0.1106 -0.6535
vn -0.7651 0.2340 -0.5999
vn -0.2188 0.5453 -0.8092
vn -0.1147 0.4168 -0.9018
vn 0.5753 0.8178 0.0189
vn 0.8264 0.5628 0.0167
vn 0.5419 0.5883 -0.6002
vn 0.3240 0.7668 -0.5541
vn 0.3954 0.6618 0.6369
vn 0.6338 0.3726 0.6778
vn -0.1477 0.3594 0.9214
vn -0.0143 0.0652 0.9978
vn -0.7215 0.0722 0.6887
vn -0.6865 -0.1603 0.7093
vn -0.9994 -0.0021 0.0345
vn -0.9908 -0.1340 0.0167
vn -0.0343 -0.6559 0.7540
vn -0.6070 -0.5567 0.5671
vn -0.4229 -0.8116 0.4031
vn -0.0190 -0.8340 0.5514
vn -0.6496 0.1468 -0.7460
vn -0.6545 0.1904 -0.7317
vn 0.0129 0.0729 -0.9973
vn 0.0175 0.0104 -0.9998
vn 0.6154 0.4950 -0.6134
vn -0.0682 0.3723 -0.9256
vn -0.6656 0.1710 0.7264
vn -0.6764 -0.1546 0.7201
vn -0.0310 -0.2863 0.9576
vn -0.0066 0.0408 0.9991
vn -0.6821 -0.0223 0.7309
vn -0.6642 0.1494 0.7324
vn 0.0094 0.1008 0.9949
vn 0.0290 0.0344 0.9990
vn 0.7035 0.1517 -0.6943
vn 0.6988 0.0144 -0.7152
vn -0.0016 0.1817 -0.9834
vn -0.6837 0.2086 -0.6993
vn -0.7279 0.1143 -0.6761
vn 0.0092 0.3052 -0.9523
vn 0.9973 -0.0737 -0.0074
vn 0.7107 -0.0808 -0.6988
vn 0.9989 0.0318 -0.0350
vn -0.6634 0.2367 -0.7098
vn -0.9776 0.2103 0.0062
vn -0.9995 -0.0305 -0.0049
vn -0.6599 0.1425 -0.7377
vn 0.0284 0.0032 -0.9996
vn 0.0051 -0.1932 -0.9812
vn -0.6710 -0.0755 -0.7376
vn 0.7145 -0.1553 -0.6822
vn 0.0021 0.0099 0.9999
vn 0.6907 0.2660 0.6724
vn 0.0049 0.2062 0.9785
vn 0.6917 -0.1336 0.7097
vn 0.7133 0.0419 0.6996
vn -0.9585 0.2851 -0.0016
vn -0.6311 0.2972 0.7165
vn 0.9898 0.1389 -0.0329
vn 0.6725 0.3468 -0.6538
vn 0.9554 0.2953 -0.0032
vn 0.6132 -0.4133 0.6732
vn 0.9766 -0.2144 0.0138
vn -0.9507 0.3101 -0.0066
vn -0.6418 0.2972 0.7070
vn 0.0261 0.2234 0.9744
vn 0.7364 0.1208 0.6657
vn 0.7119 0.1794 0.6790
vn 0.7299 0.1198 0.6730
vn 0.9029 0.4298 0.0075
vn -0.9701 0.2427 0.0015
vn -0.9984 0.0548 0.0156
vn -0.9937 -0.1123 0.0024
vn -0.6889 -0.1577 0.7075
vn 0.4764 -0.7130 0.5145
vn -0.8728 -0.4880 -0.0101
vn -0.6195 -0.4966 -0.6079
vn -0.4983 -0.4459 0.7435
vn -0.5800 -0.3659 0.7278
vn -0.8370 -0.5456 0.0427
vn -0.7640 -0.6452 -0.0058
vn -0.0144 -0.5781 -0.8158
vn -0.7730 0.2926 -0.5629
vn -0.3503 0.6664 -0.6582
vn -0.8445 -0.1206 -0.5219
vn -0.4691 0.6032 -0.6451
vn 0.0679 0.8662 0.4950
vn -0.3146 0.5871 0.7459
vn -0.0851 0.8685 0.4883
vn -0.4316 0.5065 0.7465
vn -0.9911 -0.1315 0.0194
vn -0.9100 -0.4133 0.0327
vn 0.1990 0.9800 0.0028
vn 0.0361 0.9993 0.0107
vn -0.7519 0.1935 0.6303
vn -0.8016 -0.1467 0.5796
vn -0.1295 0.8932 -0.4305
vn 0.0232 0.8924 -0.4506
vn -0.2693 -0.9285 0.2558
vn -0.0157 -0.9366 0.3500
vn 0.3550 -0.8527 -0.3831
vn -0.0099 -0.8260 -0.5637
vn 0.2305 -0.9448 -0.2327
vn -0.0038 -0.9427 -0.3336
vn -0.4194 -0.8063 -0.4172
vn -0.2501 -0.9384 -0.2383
vn -0.5957 -0.8032 -0.0047
vn -0.3604 -0.9327 0.0078
vn 0.4903 -0.8716 0.0027
vn 0.3276 -0.9448 0.0030
vn 0.3485 -0.8566 0.3805
vn 0.2390 -0.9390 0.2475
vn -0.5592 -0.3298 -0.7606
vn -0.6300 -0.3330 -0.7016
vn -0.1295 0.1102 -0.9854
vn -0.1029 0.2015 -0.9741
vn 0.5079 0.8608 -0.0322
vn 0.6385 0.7692 0.0241
vn 0.4141 0.4981 0.7619
vn 0.3904 0.6248 0.6762
vn 0.3699 0.5544 -0.7456
vn 0.3019 0.6614 -0.6866
vn -0.0071 0.0904 0.9959
vn -0.0884 0.0438 0.9951
vn -0.0109 -0.9999 -0.0066
vn 0.3711 0.5976 -0.7108
vn 0.1598 0.7551 -0.6358
vn 0.3856 0.9223 -0.0245
vn 0.6214 0.7835 0.0051
vn 0.3771 0.6042 0.7020
vn -0.1774 0.2259 0.9579
vn -0.7167 -0.1123 0.6883
vn -0.1707 0.2228 -0.9598
vn -0.7237 -0.1105 -0.6812
vn -0.8018 0.1912 -0.5662
vn -0.3293 0.4385 -0.8362
vn -0.9670 -0.2535 0.0255
vn 0.1659 0.7830 0.5995
vn -0.3445 0.4607 0.8180
vn -0.6935 0.6900 -0.2071
vn -0.5440 0.7796 -0.3103
vn -0.4286 0.6330 -0.6446
vn -0.7861 0.4464 -0.4276
vn -0.8091 0.1823 0.5587
vn -0.9954 0.0951 0.0083
vn -0.9243 0.3813 -0.0143
vn -0.0406 0.8694 -0.4925
vn 0.1187 0.9921 -0.0410
vn -0.0568 0.9082 0.4148
vn -0.4542 0.6682 0.5892
vn -0.8036 0.4507 0.3887
vn -0.4073 0.9050 0.1231
vn -0.5603 0.8012 0.2103
vn -0.7489 0.6613 -0.0427
vn -0.3456 0.9367 -0.0558
vn -0.7071 0.6950 0.1303
vn -0.3896 0.8905 -0.2351
usemtl None
s 1
f 59/1/1 88/2/2 85/3/3 58/4/4
f 8/5/5 79/6/6 65/7/7 1/8/8
f 69/9/9 3/10/10 2/11/11 67/12/12
f 71/13/13 4/14/14 3/10/10 69/9/9
f 73/15/15 5/16/16 4/14/14 71/13/13
f 75/17/17 6/18/18 5/16/16 73/15/15
f 77/19/19 7/20/20 6/18/18 75/17/17
f 79/6/6 8/5/5 7/20/20 77/19/19
f 94/21/21 97/22/22 98/23/23 95/24/24
f 48/25/25 40/26/26 33/27/27 41/28/28
f 2/11/11 10/29/29 9/30/30 1/8/8
f 54/31/31 62/32/32 61/33/33 53/34/34
f 22/35/35 30/36/36 29/37/37 21/38/38
f 26/39/39 34/40/40 33/27/27 25/41/41
f 24/42/42 16/43/43 9/30/30 17/44/44
f 43/45/45 42/46/46 34/40/40 35/47/47
f 32/48/48 25/41/41 33/27/27 40/26/26
f 55/49/49 63/50/50 62/32/32 54/31/31
f 56/51/51 49/52/52 57/53/53 64/54/54
f 42/46/46 50/55/55 49/52/52 41/28/28
f 5/16/16 13/56/56 12/57/57 4/14/14
f 45/58/58 53/34/34 52/59/59 44/60/60
f 47/61/61 55/49/49 54/31/31 46/62/62
f 16/43/43 8/5/5 1/8/8 9/30/30
f 27/63/63 26/39/39 18/64/64 19/65/65
f 61/33/33 60/66/66 52/59/59 53/34/34
f 50/55/55 58/4/4 57/53/53 49/52/52
f 44/60/60 52/59/59 51/67/67 43/45/45
f 43/45/45 51/67/67 50/55/55 42/46/46
f 48/25/25 47/61/61 39/68/68 40/26/26
f 30/36/36 38/69/69 37/70/70 29/37/37
f 48/25/25 41/28/28 49/52/52 56/51/51
f 10/29/29 18/64/64 17/44/44 9/30/30
f 59/1/1 58/4/4 50/55/55 51/67/67
f 42/46/46 41/28/28 33/27/27 34/40/40
f 21/38/38 29/37/37 28/71/71 20/72/72
f 52/59/59 60/66/66 59/1/1 51/67/67
f 56/51/51 64/54/54 63/50/50 55/49/49
f 46/62/62 45/58/58 37/70/70 38/69/69
f 47/61/61 46/62/62 38/69/69 39/68/68
f 18/64/64 26/39/39 25/41/41 17/44/44
f 13/56/56 21/38/38 20/72/72 12/57/57
f 20/72/72 28/71/71 27/63/63 19/65/65
f 37/70/70 45/58/58 44/60/60 36/73/73
f 11/74/74 19/65/65 18/64/64 10/29/29
f 24/42/42 32/48/48 31/75/75 23/76/76
f 48/25/25 56/51/51 55/49/49 47/61/61
f 12/57/57 20/72/72 19/65/65 11/74/74
f 16/43/43 24/42/42 23/76/76 15/77/77
f 23/76/76 31/75/75 30/36/36 22/35/35
f 14/78/78 13/56/56 5/16/16 6/18/18
f 7/20/20 15/77/77 14/78/78 6/18/18
f 12/57/57 11/74/74 3/10/10 4/14/14
f 3/10/10 11/74/74 10/29/29 2/11/11
f 8/5/5 16/43/43 15/77/77 7/20/20
f 44/60/60 43/45/45 35/47/47 36/73/73
f 29/37/37 37/70/70 36/73/73 28/71/71
f 28/71/71 36/73/73 35/47/47 27/63/63
f 27/63/63 35/47/47 34/40/40 26/39/39
f 31/75/75 39/68/68 38/69/69 30/36/36
f 32/48/48 40/26/26 39/68/68 31/75/75
f 24/42/42 17/44/44 25/41/41 32/48/48
f 14/78/78 22/35/35 21/38/38 13/56/56
f 46/62/62 54/31/31 53/34/34 45/58/58
f 60/66/66 91/79/79 88/2/2 59/1/1
f 61/33/33 94/21/21 91/79/79 60/66/66
f 62/32/32 97/22/22 94/21/21 61/33/33
f 63/50/50 100/80/80 97/22/22 62/32/32
f 64/54/54 103/81/81 100/80/80 63/50/50
f 110/82/82 127/83/83 137/84/84 108/85/85
f 58/4/4 85/3/3 81/86/86 57/53/53
f 65/7/7 79/6/6 80/87/87 66/88/88
f 105/89/89 112/90/90 66/91/88 80/92/87
f 72/93/91 74/94/92 73/15/15 71/13/13
f 106/95/93 107/96/94 74/97/92 72/98/91
f 78/99/95 80/87/87 79/6/6 77/19/19
f 108/85/96 105/89/89 80/92/87 78/100/95
f 70/101/97 72/93/91 71/13/13 69/9/9
f 109/102/98 106/95/93 72/98/91 70/103/97
f 76/104/99 74/97/92 107/96/94 110/82/100
f 111/105/101 68/106/102 66/91/88 112/90/90
f 76/107/99 78/99/95 77/19/19 75/17/17
f 108/85/96 78/100/95 76/104/99 110/82/100
f 68/108/102 70/101/97 69/9/9 67/12/12
f 67/12/12 2/11/11 1/8/8 65/7/7
f 95/24/24 98/23/23 96/109/103 93/110/104
f 81/86/86 85/3/3 86/111/105 83/112/106
f 83/112/106 86/111/105 84/113/107 82/114/108
f 104/115/109 83/112/106 82/114/108 102/116/110
f 103/81/81 81/86/86 83/112/106 104/115/109
f 97/22/22 100/80/80 101/117/111 98/23/23
f 98/23/23 101/117/111 99/118/112 96/109/103
f 85/3/3 88/2/2 89/119/113 86/111/105
f 86/111/105 89/119/113 87/120/114 84/113/107
f 88/2/2 91/79/79 92/121/115 89/119/113
f 89/119/113 92/121/115 90/122/116 87/120/114
f 100/80/80 103/81/81 104/115/109 101/117/111
f 101/117/111 104/115/109 102/116/110 99/118/112
f 91/79/79 94/21/21 95/24/24 92/121/115
f 92/121/115 95/24/24 93/110/104 90/122/116
f 57/53/53 81/86/86 103/81/81 64/54/54
f 105/89/117 133/123/118 128/124/119 112/90/120
f 109/102/121 123/125/122 135/126/123 106/95/124
f 112/90/120 128/124/119 131/127/125 111/105/126
f 108/85/85 137/84/84 133/123/118 105/89/117
f 111/105/126 131/127/125 123/125/122 109/102/121
f 107/96/127 124/128/128 127/83/83 110/82/82
f 93/110/104 96/109/103 113/129/129
f 96/109/103 99/118/112 113/129/129
f 102/116/110 113/129/129 99/118/112
f 82/114/108 113/129/129 102/116/110
f 84/113/107 113/129/129 82/114/108
f 84/113/107 87/120/114 113/129/129
f 90/122/116 113/129/129 87/120/114
f 90/122/116 93/110/104 113/129/129
f 66/88/88 68/108/102 67/12/12 65/7/7
f 74/94/92 76/107/99 75/17/17 73/15/15
f 130/130/130 115/131/131 116/132/132 122/133/133
f 135/126/123 123/125/122 122/133/133 134/134/134
f 127/83/83 124/128/128 125/135/135 126/136/136
f 131/127/125 128/124/119 129/137/137 130/130/130
f 132/138/138 121/139/139 114/140/140 129/137/137
f 137/84/84 127/83/83 126/136/136 136/141/141
f 124/128/128 135/126/123 134/134/134 125/135/135
f 133/123/118 137/84/84 136/141/141 132/138/138
f 125/135/135 134/134/134 117/142/142 118/143/143
f 153/144/144 138/145/145 139/146/146 152/147/147
f 123/125/122 131/127/125 130/130/130 122/133/133
f 134/134/134 122/133/133 116/132/132 117/142/142
f 126/136/136 125/135/135 118/143/143 119/148/148
f 128/124/119 133/123/118 132/138/138 129/137/137
f 136/141/141 126/136/136 119/148/148 120/149/149
f 136/141/141 120/149/149 121/139/139 132/138/138
f 130/130/130 129/137/137 114/140/140 115/131/131
f 121/139/139 120/149/149 150/150/150 152/147/147
f 116/132/132 115/131/131 141/151/151 142/152/152
f 117/142/142 116/132/132 142/152/152 144/153/153
f 121/139/139 152/147/147 139/146/146 114/140/140
f 119/148/148 118/143/143 147/154/154 149/155/155
f 120/149/149 119/148/148 149/155/155 150/150/150
f 118/143/143 117/142/142 144/153/153 147/154/154
f 145/156/156 146/157/157 147/154/154 144/153/153
f 151/158/158 153/144/144 152/147/147 150/150/150
f 143/159/159 145/156/156 144/153/153 142/152/152
f 146/157/157 148/160/160 149/155/155 147/154/154
f 138/145/145 140/161/161 141/151/151 139/146/146
f 148/160/160 151/158/158 150/150/150 149/155/155
f 140/161/161 143/159/159 142/152/152 141/151/151
f 115/131/131 114/140/140 139/146/146 141/151/151
f 153/144/144 151/158/158 148/160/160 146/157/157 145/156/156 143/159/159 140/161/161 138/145/145
f 15/77/77 23/76/76 22/35/35 14/78/78
f 111/105/101 109/102/98 70/103/97 68/106/102
f 106/95/124 135/126/123 124/128/128 107/96/127
