# Blender v2.79 (sub 0) OBJ File: 'sweets.blend'
# www.blender.org
g Lollipop
v 0.303975 2.126025 -0.303975
v -0.000000 2.057708 -0.372292
v 0.372292 2.430000 -0.372292
v -0.000000 2.430000 -0.526500
v -0.303975 2.126025 -0.303975
v -0.372292 2.057708 0.000000
v -0.372292 2.430000 -0.372292
v -0.526500 2.430000 0.000000
v -0.303975 2.126025 0.303975
v -0.000000 2.057708 0.372292
v -0.372292 2.430000 0.372292
v -0.000000 2.430000 0.526500
v 0.303975 2.126025 0.303975
v 0.372292 2.057708 0.000000
v 0.372292 2.430000 0.372292
v 0.526500 2.430000 0.000000
v -0.000000 1.903500 0.000000
v 0.303975 2.733975 -0.303975
v -0.000000 2.802292 -0.372292
v -0.303975 2.733975 -0.303975
v 0.372292 2.802292 0.000000
v -0.000000 2.956500 0.000000
v -0.372292 2.802292 0.000000
v 0.303975 2.733975 0.303975
v -0.000000 2.802292 0.372292
v -0.303975 2.733975 0.303975
v 0.000000 0.000000 -0.060750
v 0.000000 2.430000 -0.060750
v 0.052611 0.000000 -0.030375
v 0.052611 2.430000 -0.030375
v 0.052611 0.000000 0.030375
v 0.052611 2.430000 0.030375
v -0.000000 0.000000 0.060750
v -0.000000 2.430000 0.060750
v -0.052611 0.000000 0.030375
v -0.052611 2.430000 0.030375
v -0.052611 0.000000 -0.030375
v -0.052611 2.430000 -0.030375
vt 0.296865 0.626136
vt 0.342461 0.505625
vt 0.494375 0.639786
vt 0.344023 0.707595
vt 0.494375 0.342461
vt 0.373864 0.296865
vt 0.344023 0.207595
vt 0.494375 0.139786
vt 0.494375 0.842461
vt 0.373864 0.796865
vt 0.296865 0.126136
vt 0.342461 0.005625
vt 0.292405 0.344023
vt 0.250000 0.250000
vt 0.203135 0.373864
vt 0.155977 0.292405
vt 0.207596 0.155977
vt 0.126136 0.203135
vt 0.157539 0.494375
vt 0.005625 0.360214
vt 0.005625 0.657539
vt 0.126136 0.703135
vt 0.155977 0.792405
vt 0.005625 0.860214
vt 0.005625 0.157539
vt 0.203135 0.873865
vt 0.157539 0.994375
vt 0.207595 0.655977
vt 0.250000 0.750000
vt 0.292405 0.844023
vt 0.139786 0.505625
vt 0.360214 0.494375
vt 0.360214 0.994375
vt 0.139787 0.005625
vt 0.647633 0.043466
vt 0.647626 0.917311
vt 0.625780 0.917311
vt 0.625785 0.043466
vt 0.603934 0.917311
vt 0.603938 0.043466
vt 0.582088 0.917311
vt 0.582091 0.043466
vt 0.560241 0.917311
vt 0.560243 0.043466
vt 0.538395 0.917311
vt 0.538396 0.043466
vt 0.516549 0.917311
vt 0.516549 0.043466
vt 0.505625 0.024545
vt 0.516549 0.005625
vt 0.538396 0.005625
vt 0.549320 0.024545
vn 0.5773 -0.5773 -0.5773
vn 0.0000 -0.7071 -0.7071
vn 0.0000 0.0000 -1.0000
vn 0.7071 0.0000 -0.7071
vn -0.5773 -0.5773 -0.5773
vn -0.7071 0.0000 -0.7071
vn 0.0000 0.7071 -0.7071
vn 0.5773 0.5773 -0.5773
vn -0.5773 0.5773 -0.5773
vn -0.7071 -0.7071 0.0000
vn -1.0000 0.0000 0.0000
vn -0.5773 -0.5773 0.5773
vn -0.7071 0.0000 0.7071
vn -0.7071 0.7071 0.0000
vn -0.5773 0.5773 0.5773
vn 0.0000 -0.7071 0.7071
vn 0.0000 0.0000 1.0000
vn 0.5773 -0.5773 0.5773
vn 0.7071 0.0000 0.7071
vn 0.0000 0.7071 0.7071
vn 0.5773 0.5773 0.5773
vn 0.7071 -0.7071 0.0000
vn 1.0000 0.0000 0.0000
vn 0.7071 0.7071 0.0000
vn 0.0000 -1.0000 0.0000
vn 0.0000 1.0000 0.0000
vn 0.0000 -0.6100 -0.7924
vn 0.8660 0.0000 -0.5000
vn 0.6862 -0.6100 -0.3962
vn 0.8660 0.0000 0.5000
vn 0.6862 -0.6100 0.3962
vn 0.0000 -0.6100 0.7924
vn -0.8660 0.0000 0.5000
vn -0.6862 -0.6100 0.3962
vn -0.8660 0.0000 -0.5000
vn -0.6862 -0.6100 -0.3962
s 1
f 1/1/1 2/2/2 4/3/3 3/4/4
f 2/5/2 5/6/5 7/7/6 4/8/3
f 3/4/4 4/3/3 19/9/7 18/10/8
f 4/8/3 7/7/6 20/11/9 19/12/7
f 5/6/5 6/13/10 8/14/11 7/7/6
f 6/13/10 9/15/12 11/16/13 8/14/11
f 7/7/6 8/14/11 23/17/14 20/11/9
f 8/14/11 11/16/13 26/18/15 23/17/14
f 9/15/12 10/19/16 12/20/17 11/16/13
f 10/21/16 13/22/18 15/23/19 12/24/17
f 11/16/13 12/20/17 25/25/20 26/18/15
f 12/24/17 15/23/19 24/26/21 25/27/20
f 13/22/18 14/28/22 16/29/23 15/23/19
f 14/28/22 1/1/1 3/4/4 16/29/23
f 15/23/19 16/29/23 21/30/24 24/26/21
f 16/29/23 3/4/4 18/10/8 21/30/24
f 13/22/18 10/21/16 17/31/25 14/28/22
f 10/19/16 9/15/12 6/13/10 17/32/25
f 14/28/22 17/31/25 2/2/2 1/1/1
f 17/32/25 6/13/10 5/6/5 2/5/2
f 18/10/8 19/9/7 22/33/26 21/30/24
f 19/12/7 20/11/9 23/17/14 22/34/26
f 21/30/24 22/33/26 25/27/20 24/26/21
f 22/34/26 23/17/14 26/18/15 25/25/20
f 27/35/27 28/36/3 30/37/28 29/38/29
f 29/38/29 30/37/28 32/39/30 31/40/31
f 31/40/31 32/39/30 34/41/17 33/42/32
f 33/42/32 34/41/17 36/43/33 35/44/34
f 35/44/34 36/43/33 38/45/35 37/46/36
f 37/46/36 38/45/35 28/47/3 27/48/27
f 27/48/27 29/49/29 31/50/31 33/51/32 35/52/34 37/46/36
