# Blender v2.78 (sub 0) OBJ File: 'FantasyUVs3_Küche.blend'
# www.blender.org
mtllib mod_Hut_Cowboy_Fantasie.mtl
g Hut_Cowboy.001
v -0.118954 0.150804 -0.196777
v 0.000000 0.187839 -0.230539
v 0.000000 -0.004122 -0.384694
v -0.174867 0.013492 -0.299287
v 0.174866 0.013492 -0.299287
v 0.256409 0.058229 -0.446804
v 0.000000 0.019656 -0.515130
v 0.301050 0.073585 -0.175902
v 0.446616 0.148262 -0.256763
v 0.359265 0.132414 -0.000000
v 0.515120 0.221495 -0.000000
v 0.301050 0.073585 0.175902
v 0.446616 0.148262 0.256763
v 0.174866 0.013492 0.299287
v 0.256409 0.058229 0.446804
v 0.000000 -0.001711 0.397917
v 0.000000 0.019656 0.515130
v -0.174866 0.013492 0.299287
v -0.256409 0.058229 0.446804
v -0.301050 0.073584 0.175902
v -0.446616 0.148262 0.256763
v -0.359265 0.132414 -0.000000
v -0.515120 0.221495 -0.000000
v -0.301051 0.073585 -0.175902
v -0.446616 0.148263 -0.256763
v -0.256409 0.058229 -0.446804
v -0.128998 0.633272 -0.080692
v -0.122644 0.643158 0.000000
v -0.078302 0.607429 -0.000001
v -0.079167 0.595768 -0.144182
v 0.078526 0.607577 0.000138
v 0.000000 0.559525 0.000067
v 0.000000 0.561246 0.165726
v 0.079185 0.595778 0.144189
v 0.129015 0.633266 0.080703
v 0.122666 0.644925 0.000017
v 0.079166 0.595767 -0.144180
v 0.000000 0.561246 -0.165712
v -0.079143 0.595753 0.144202
v -0.128998 0.633263 0.080694
v -0.207893 0.175507 -0.098854
v -0.213479 0.222573 -0.000000
v -0.207893 0.175507 0.098854
v -0.118931 0.145879 0.196544
v 0.000000 0.187838 0.230539
v 0.118908 0.140721 0.196300
v 0.207893 0.175507 0.098854
v 0.213479 0.222573 -0.000000
v 0.207893 0.175507 -0.098854
v 0.118942 0.148172 -0.196653
v -0.155313 0.583228 -0.107984
v -0.143788 0.602587 0.000000
v -0.147705 0.637495 0.000000
v -0.155027 0.618628 -0.098347
v 0.129018 0.633268 -0.080671
v 0.000000 0.522269 -0.207634
v -0.095170 0.555288 -0.183006
v -0.092474 0.577136 -0.176398
v 0.000000 0.541103 -0.201357
v 0.155314 0.583228 -0.107986
v 0.096908 0.555891 -0.182557
v 0.095423 0.578286 -0.175602
v 0.155028 0.618630 -0.098344
v -0.102909 0.557970 0.181001
v 0.000000 0.522264 0.207635
v 0.000000 0.541098 0.201357
v -0.102128 0.580887 0.173794
v 0.102911 0.557975 0.181004
v 0.155314 0.583228 0.107987
v 0.155029 0.618631 0.098347
v 0.102127 0.580899 0.173794
v -0.155312 0.583227 0.107985
v -0.155027 0.618627 0.098347
v 0.143788 0.602587 0.000000
v 0.147705 0.637495 0.000000
v 0.152069 0.549038 0.000000
v 0.169444 0.526885 -0.123514
v 0.000000 0.483221 0.231138
v 0.117768 0.495929 0.207624
v -0.152069 0.549038 0.000000
v -0.169444 0.526885 0.123514
v 0.117768 0.495929 -0.207624
v 0.000000 0.483222 -0.231139
v -0.117768 0.495929 -0.207624
v 0.169444 0.526885 0.123514
v -0.117768 0.495929 0.207624
v -0.169444 0.526885 -0.123514
v -0.180352 0.462816 -0.128516
v -0.173644 0.486458 0.000000
v -0.120247 0.435279 0.210246
v 0.000000 0.419410 0.242791
v 0.180352 0.462816 0.128516
v 0.173644 0.486458 0.000000
v -0.120247 0.435279 -0.210246
v 0.120247 0.435279 -0.210246
v 0.000000 0.419410 -0.242791
v -0.180352 0.462816 0.128516
v 0.120247 0.435279 0.210246
v 0.180352 0.462816 -0.128516
v 0.000000 0.551333 -0.181515
v 0.088278 0.589067 -0.158181
v 0.145142 0.631187 -0.085030
v 0.139074 0.647778 0.000014
v 0.145141 0.631188 0.085055
v 0.088299 0.589078 0.158190
v 0.000000 0.551331 0.181530
v -0.088257 0.589053 0.158202
v -0.145124 0.631184 0.085051
v -0.139056 0.647371 0.000000
v -0.145124 0.631187 -0.085048
v -0.088280 0.589067 -0.158181
v -0.111580 0.119847 -0.179139
v -0.177283 -0.005653 -0.294031
v 0.000000 -0.030725 -0.341236
v 0.000000 0.104955 -0.208267
v 0.000000 -0.000000 -0.518825
v 0.262951 0.039437 -0.448814
v 0.177282 -0.005653 -0.294031
v 0.456146 0.130713 -0.255684
v 0.303441 0.054671 -0.169856
v 0.525149 0.204191 -0.000000
v 0.361179 0.112506 -0.000000
v 0.456146 0.130713 0.255684
v 0.303441 0.054671 0.169856
v 0.262951 0.039437 0.448814
v 0.177282 -0.005653 0.294031
v 0.000000 -0.000000 0.518825
v 0.000000 -0.030725 0.341236
v -0.262951 0.039437 0.448814
v -0.177282 -0.005653 0.294031
v -0.456146 0.130713 0.255684
v -0.303441 0.054671 0.169856
v -0.525149 0.204191 -0.000000
v -0.361179 0.112506 -0.000000
v -0.456146 0.130713 -0.255684
v -0.303441 0.054671 -0.169855
v -0.262952 0.039437 -0.448813
v -0.193860 0.165571 -0.088639
v -0.195531 0.213749 -0.000000
v -0.193860 0.165571 0.088639
v -0.111580 0.119847 0.179139
v 0.000000 0.104954 0.208267
v 0.111580 0.119847 0.179139
v 0.193860 0.165571 0.088639
v 0.195531 0.213749 -0.000000
v 0.193860 0.165571 -0.088639
v 0.111580 0.119847 -0.179139
vt 0.4509 0.2418
vt 0.4557 0.2556
vt 0.4649 0.1590
vt 0.4557 0.1752
vt 0.4639 0.1604
vt 0.4747 0.1795
vt 0.4726 0.1709
vt 0.4595 0.1854
vt 0.4679 0.2171
vt 0.4504 0.2128
vt 0.4541 0.2515
vt 0.4385 0.1854
vt 0.4370 0.2171
vt 0.4282 0.1604
vt 0.4212 0.1795
vt 0.4183 0.1602
vt 0.4113 0.1709
vt 0.4202 0.1752
vt 0.4096 0.2011
vt 0.4246 0.2106
vt 0.4165 0.2538
vt 0.4337 0.2424
vt 0.4301 0.2930
vt 0.4454 0.2106
vt 0.4468 0.2538
vt 0.4625 0.2011
vt 0.4438 0.4843
vt 0.4391 0.4890
vt 0.4401 0.4695
vt 0.4487 0.4636
vt 0.4438 0.4639
vt 0.4420 0.4425
vt 0.4321 0.4434
vt 0.4352 0.4579
vt 0.4401 0.4750
vt 0.4448 0.4811
vt 0.4524 0.4579
vt 0.4518 0.4434
vt 0.4316 0.4636
vt 0.4342 0.4843
vt 0.4430 0.2578
vt 0.4370 0.2816
vt 0.4313 0.2578
vt 0.4275 0.2393
vt 0.4282 0.2556
vt 0.4330 0.2270
vt 0.4409 0.2408
vt 0.4469 0.2644
vt 0.4527 0.2408
vt 0.4565 0.2307
vt 0.4448 0.4601
vt 0.4386 0.4694
vt 0.4385 0.4870
vt 0.4442 0.4779
vt 0.4498 0.4750
vt 0.4543 0.4238
vt 0.4506 0.4439
vt 0.4503 0.4548
vt 0.4539 0.4333
vt 0.4520 0.4488
vt 0.4551 0.4371
vt 0.4547 0.4485
vt 0.4514 0.4667
vt 0.4288 0.4455
vt 0.4296 0.4238
vt 0.4300 0.4333
vt 0.4293 0.4570
vt 0.4336 0.4380
vt 0.4391 0.4488
vt 0.4397 0.4667
vt 0.4340 0.4496
vt 0.4320 0.4601
vt 0.4325 0.4778
vt 0.4453 0.4590
vt 0.4454 0.4764
vt 0.4455 0.4316
vt 0.4533 0.4198
vt 0.4282 0.4042
vt 0.4323 0.4061
vt 0.4384 0.4428
vt 0.4307 0.4324
vt 0.4571 0.4061
vt 0.4557 0.4042
vt 0.4516 0.4149
vt 0.4385 0.4198
vt 0.4269 0.4149
vt 0.4454 0.4324
vt 0.4454 0.4007
vt 0.4379 0.4123
vt 0.4267 0.3846
vt 0.4275 0.3721
vt 0.4385 0.3871
vt 0.4460 0.3992
vt 0.4517 0.3846
vt 0.4573 0.3755
vt 0.4564 0.3721
vt 0.4302 0.4007
vt 0.4322 0.3755
vt 0.4538 0.3871
vt 0.4528 0.4384
vt 0.4534 0.4542
vt 0.4504 0.4734
vt 0.4452 0.4819
vt 0.4403 0.4734
vt 0.4346 0.4542
vt 0.4312 0.4384
vt 0.4305 0.4606
vt 0.4335 0.4838
vt 0.4387 0.4917
vt 0.4436 0.4838
vt 0.4493 0.4606
vt 0.4500 0.2260
vt 0.4553 0.1658
vt 0.4623 0.1456
vt 0.4544 0.2139
vt 0.4728 0.1611
vt 0.4750 0.1697
vt 0.4637 0.1506
vt 0.4680 0.2078
vt 0.4592 0.1757
vt 0.4543 0.2423
vt 0.4504 0.2026
vt 0.4373 0.2078
vt 0.4389 0.1757
vt 0.4212 0.1697
vt 0.4285 0.1506
vt 0.4111 0.1611
vt 0.4216 0.1456
vt 0.4093 0.1919
vt 0.4204 0.1658
vt 0.4164 0.2454
vt 0.4249 0.2012
vt 0.4299 0.2848
vt 0.4336 0.2325
vt 0.4465 0.2454
vt 0.4450 0.2012
vt 0.4624 0.1919
vt 0.4427 0.2522
vt 0.4374 0.2764
vt 0.4322 0.2522
vt 0.4287 0.2260
vt 0.4296 0.2139
vt 0.4339 0.2167
vt 0.4412 0.2364
vt 0.4465 0.2607
vt 0.4518 0.2364
vt 0.4552 0.2167
vn -0.4631 0.4084 -0.7866
vn 0.0011 0.2772 -0.9608
vn 0.0010 0.9825 -0.1862
vn 0.0263 0.9547 -0.2963
vn -0.0270 0.9552 -0.2948
vn -0.3275 0.9395 0.1007
vn -0.0000 0.9827 0.1853
vn -0.0987 0.9479 -0.3029
vn -0.4765 0.8775 -0.0540
vn -0.0957 0.9954 0.0000
vn -0.5015 0.8652 0.0000
vn -0.1063 0.9471 0.3028
vn -0.4765 0.8775 0.0540
vn -0.0167 0.9572 0.2891
vn -0.3276 0.9394 -0.1008
vn 0.0017 0.9882 0.1529
vn 0.0000 0.9826 -0.1855
vn 0.0153 0.9563 0.2920
vn 0.3276 0.9394 -0.1008
vn 0.1010 0.9477 0.3029
vn 0.4765 0.8775 0.0540
vn 0.0957 0.9954 0.0000
vn 0.5015 0.8652 0.0000
vn 0.0960 0.9482 -0.3029
vn 0.4765 0.8775 -0.0540
vn 0.3275 0.9395 0.1007
vn 0.2711 0.9310 -0.2443
vn 0.3448 0.9387 0.0000
vn 0.5189 0.8548 0.0000
vn 0.2861 0.8997 -0.3296
vn -0.5228 0.8524 0.0001
vn -0.0001 1.0000 0.0000
vn -0.0001 0.9333 0.3591
vn -0.2870 0.8992 0.3303
vn -0.2622 0.9319 0.2506
vn -0.3295 0.9442 -0.0000
vn -0.2870 0.8992 -0.3303
vn -0.0000 0.9333 -0.3591
vn 0.2862 0.8997 0.3295
vn 0.2712 0.9310 0.2443
vn -0.7054 0.5018 -0.5006
vn -0.8974 0.4412 0.0000
vn -0.7045 0.5007 0.5029
vn -0.4674 0.4250 0.7752
vn 0.0020 0.2856 0.9583
vn 0.4625 0.4365 0.7717
vn 0.7037 0.4996 0.5053
vn 0.8974 0.4412 0.0000
vn 0.7049 0.5012 -0.5019
vn 0.4606 0.4144 -0.7849
vn -0.9216 0.2230 -0.3176
vn -0.9989 0.0471 0.0000
vn -0.9292 0.3695 0.0000
vn -0.7914 0.4885 -0.3674
vn -0.2622 0.9319 -0.2505
vn -0.0000 0.4040 -0.9148
vn -0.4074 0.3834 -0.8289
vn -0.2716 0.5828 -0.7658
vn 0.0002 0.5422 -0.8403
vn 0.9259 0.2147 -0.3108
vn 0.4123 0.3790 -0.8285
vn 0.2933 0.5784 -0.7612
vn 0.7914 0.4930 -0.3614
vn -0.4380 0.3675 0.8204
vn -0.0000 0.4027 0.9153
vn -0.0000 0.5410 0.8410
vn -0.3305 0.5757 0.7479
vn 0.4380 0.3675 0.8204
vn 0.9355 0.1996 0.2916
vn 0.7885 0.5081 0.3466
vn 0.3304 0.5757 0.7479
vn -0.9355 0.1996 0.2916
vn -0.7876 0.5094 0.3467
vn 0.9989 0.0471 -0.0000
vn 0.9313 0.3642 -0.0000
vn 0.9769 0.2135 0.0000
vn 0.9076 0.2842 -0.3089
vn -0.0000 0.2750 0.9614
vn 0.4965 0.2735 0.8239
vn -0.9769 0.2135 0.0000
vn -0.9135 0.2723 0.3022
vn 0.4984 0.2781 -0.8211
vn -0.0000 0.2758 -0.9612
vn -0.4989 0.2795 -0.8203
vn 0.9135 0.2723 0.3022
vn -0.4965 0.2735 0.8238
vn -0.9060 0.2875 -0.3108
vn -0.9341 0.1232 -0.3350
vn -0.9816 0.1911 0.0000
vn -0.5408 0.0439 0.8400
vn -0.0000 0.0267 0.9996
vn 0.9341 0.1231 0.3352
vn 0.9816 0.1911 -0.0000
vn -0.5409 0.0439 -0.8400
vn 0.5408 0.0439 -0.8400
vn -0.0000 0.0267 -0.9996
vn -0.9341 0.1231 0.3351
vn 0.5407 0.0438 0.8401
vn 0.9341 0.1232 -0.3350
vn 0.0002 0.8499 -0.5269
vn -0.0601 0.8463 -0.5293
vn 0.3478 0.8899 -0.2953
vn 0.3625 0.9320 0.0000
vn 0.3409 0.8943 0.2899
vn -0.0874 0.8508 0.5182
vn -0.0000 0.8488 0.5287
vn 0.0876 0.8508 0.5182
vn -0.3290 0.8991 0.2885
vn -0.3402 0.9403 0.0000
vn -0.3394 0.8926 -0.2967
vn 0.0463 0.8431 -0.5357
vn 0.1946 -0.7174 0.6690
vn -0.1200 -0.9570 0.2640
vn 0.0000 -0.9745 0.2243
vn -0.0000 -0.7004 0.7137
vn 0.0000 -0.9845 -0.1754
vn 0.3225 -0.9421 -0.0919
vn 0.1200 -0.9570 0.2640
vn 0.4691 -0.8811 0.0595
vn 0.1178 -0.9447 0.3059
vn 0.4935 -0.8697 -0.0000
vn 0.1005 -0.9949 -0.0000
vn 0.4691 -0.8811 -0.0595
vn 0.1178 -0.9447 -0.3059
vn 0.3225 -0.9421 0.0919
vn 0.1200 -0.9570 -0.2640
vn 0.0000 -0.9845 0.1754
vn 0.0000 -0.9745 -0.2243
vn -0.3225 -0.9421 0.0919
vn -0.1200 -0.9570 -0.2640
vn -0.4691 -0.8811 -0.0595
vn -0.1178 -0.9447 -0.3059
vn -0.4935 -0.8697 -0.0000
vn -0.1005 -0.9949 0.0000
vn -0.4691 -0.8811 0.0595
vn -0.1178 -0.9447 0.3059
vn -0.3225 -0.9421 -0.0919
vn 0.4013 -0.7630 0.5068
vn 0.5198 -0.8543 0.0000
vn 0.4013 -0.7630 -0.5068
vn 0.1946 -0.7174 -0.6690
vn 0.0000 -0.7004 -0.7137
vn -0.1946 -0.7174 -0.6690
vn -0.4013 -0.7630 -0.5068
vn -0.5198 -0.8543 -0.0000
vn -0.4013 -0.7630 0.5068
vn -0.1946 -0.7174 0.6690
vn -0.0000 0.1856 -0.9826
vn 0.4273 0.2398 -0.8717
vn 0.4281 0.2401 -0.8713
vn 0.7345 0.3792 -0.5627
vn 0.7355 0.3799 -0.5610
vn 0.8769 0.4806 -0.0000
vn 0.7345 0.3792 0.5627
vn 0.7354 0.3799 0.5610
vn 0.4273 0.2398 0.8717
vn 0.4281 0.2401 0.8713
vn 0.0000 0.1856 0.9826
vn -0.4273 0.2398 0.8717
vn -0.4281 0.2401 0.8713
vn -0.7345 0.3792 0.5627
vn -0.7354 0.3799 0.5610
vn -0.8770 0.4806 0.0000
vn -0.7345 0.3792 -0.5627
vn -0.7355 0.3799 -0.5610
vn -0.4273 0.2398 -0.8717
vn -0.4281 0.2400 -0.8713
usemtl None.005
s 1
f 1/1/1 2/2/2 3/3/3 4/4/4
f 3/3/3 5/5/5 6/6/6 7/7/7
f 5/5/5 8/8/8 9/9/9 6/6/6
f 8/8/8 10/10/10 11/11/11 9/9/9
f 10/10/10 12/12/12 13/13/13 11/11/11
f 12/12/12 14/14/14 15/15/15 13/13/13
f 14/14/14 16/16/16 17/17/17 15/15/15
f 16/16/16 18/18/18 19/19/19 17/17/17
f 18/18/18 20/20/20 21/21/21 19/19/19
f 20/20/20 22/22/22 23/23/23 21/21/21
f 22/22/22 24/24/24 25/25/25 23/23/23
f 24/24/24 4/4/4 26/26/26 25/25/25
f 4/4/4 3/3/3 7/7/7 26/26/26
f 27/27/27 28/28/28 29/29/29 30/30/30
f 31/31/31 32/32/32 33/33/33 34/34/34
f 31/31/31 34/34/34 35/35/35 36/36/36
f 32/32/32 31/31/31 37/37/37 38/38/38
f 29/29/29 39/39/39 33/33/33 32/32/32
f 29/29/29 28/28/28 40/40/40 39/39/39
f 41/41/41 1/1/1 4/4/4 24/24/24
f 42/42/42 41/41/41 24/24/24 22/22/22
f 43/43/43 42/42/42 22/22/22 20/20/20
f 44/44/44 43/43/43 20/20/20 18/18/18
f 45/45/45 44/44/44 18/18/18 16/16/16
f 46/46/46 45/45/45 16/16/16 14/14/14
f 47/47/47 46/46/46 14/14/14 12/12/12
f 48/48/48 47/47/47 12/12/12 10/10/10
f 49/49/49 48/48/48 10/10/10 8/8/8
f 50/50/50 49/49/49 8/8/8 5/5/5
f 2/2/2 50/50/50 5/5/5 3/3/3
f 51/51/51 52/52/52 53/53/53 54/54/54
f 55/55/55 37/37/37 31/31/31 36/36/36
f 56/56/56 57/57/57 58/58/58 59/59/59
f 60/60/60 61/61/61 62/62/62 63/63/63
f 57/57/57 51/51/51 54/54/54 58/58/58
f 64/64/64 65/65/65 66/66/66 67/67/67
f 61/61/61 56/56/56 59/59/59 62/62/62
f 68/68/68 69/69/69 70/70/70 71/71/71
f 65/65/65 68/68/68 71/71/71 66/66/66
f 72/72/72 64/64/64 67/67/67 73/73/73
f 74/74/74 60/60/60 63/63/63 75/75/75
f 52/52/52 72/72/72 73/73/73 53/53/53
f 69/69/69 74/74/74 75/75/75 70/70/70
f 76/76/76 77/77/77 60/60/60 74/74/74
f 78/78/78 79/79/79 68/68/68 65/65/65
f 80/80/80 81/81/81 72/72/72 52/52/52
f 77/77/77 82/82/82 61/61/61 60/60/60
f 83/83/83 84/84/84 57/57/57 56/56/56
f 79/79/79 85/85/85 69/69/69 68/68/68
f 81/81/81 86/86/86 64/64/64 72/72/72
f 82/82/82 83/83/83 56/56/56 61/61/61
f 84/84/84 87/87/87 51/51/51 57/57/57
f 85/85/85 76/76/76 74/74/74 69/69/69
f 86/86/86 78/78/78 65/65/65 64/64/64
f 87/87/87 80/80/80 52/52/52 51/51/51
f 88/88/88 89/89/89 80/80/80 87/87/87
f 90/90/90 91/91/91 78/78/78 86/86/86
f 92/92/92 93/93/93 76/76/76 85/85/85
f 94/94/94 88/88/88 87/87/87 84/84/84
f 95/95/95 96/96/96 83/83/83 82/82/82
f 97/97/97 90/90/90 86/86/86 81/81/81
f 98/98/98 92/92/92 85/85/85 79/79/79
f 96/96/96 94/94/94 84/84/84 83/83/83
f 99/99/99 95/95/95 82/82/82 77/77/77
f 89/89/89 97/97/97 81/81/81 80/80/80
f 91/91/91 98/98/98 79/79/79 78/78/78
f 93/93/93 99/99/99 77/77/77 76/76/76
f 48/48/48 49/49/49 99/99/99 93/93/93
f 45/45/45 46/46/46 98/98/98 91/91/91
f 42/42/42 43/43/43 97/97/97 89/89/89
f 49/49/49 50/50/50 95/95/95 99/99/99
f 2/2/2 1/1/1 94/94/94 96/96/96
f 46/46/46 47/47/47 92/92/92 98/98/98
f 43/43/43 44/44/44 90/90/90 97/97/97
f 50/50/50 2/2/2 96/96/96 95/95/95
f 1/1/1 41/41/41 88/88/88 94/94/94
f 47/47/47 48/48/48 93/93/93 92/92/92
f 44/44/44 45/45/45 91/91/91 90/90/90
f 41/41/41 42/42/42 89/89/89 88/88/88
f 30/30/30 29/29/29 32/32/32 38/38/38
f 62/62/62 59/59/59 100/100/100 101/101/101
f 63/63/63 62/62/62 101/101/101 102/102/102
f 75/75/75 63/63/63 102/102/102 103/103/103
f 70/70/70 75/75/75 103/103/103 104/104/104
f 71/71/71 70/70/70 104/104/104 105/105/105
f 66/66/66 71/71/71 105/105/105 106/106/106
f 67/67/67 66/66/66 106/106/106 107/107/107
f 73/73/73 67/67/67 107/107/107 108/108/108
f 53/53/53 73/73/73 108/108/108 109/109/109
f 54/54/54 53/53/53 109/109/109 110/110/110
f 58/58/58 54/54/54 110/110/110 111/111/111
f 59/59/59 58/58/58 111/111/111 100/100/100
f 38/38/38 37/37/37 101/101/101 100/100/100
f 37/37/37 55/55/55 102/102/102 101/101/101
f 55/55/55 36/36/36 103/103/103 102/102/102
f 36/36/36 35/35/35 104/104/104 103/103/103
f 35/35/35 34/34/34 105/105/105 104/104/104
f 34/34/34 33/33/33 106/106/106 105/105/105
f 33/33/33 39/39/39 107/107/107 106/106/106
f 39/39/39 40/40/40 108/108/108 107/107/107
f 40/40/40 28/28/28 109/109/109 108/108/108
f 28/28/28 27/27/27 110/110/110 109/109/109
f 27/27/27 30/30/30 111/111/111 110/110/110
f 30/30/30 38/38/38 100/100/100 111/111/111
f 112/112/112 113/113/113 114/114/114 115/115/115
f 114/114/114 116/116/116 117/117/117 118/118/118
f 118/118/118 117/117/117 119/119/119 120/120/120
f 120/120/120 119/119/119 121/121/121 122/122/122
f 122/122/122 121/121/121 123/123/123 124/124/124
f 124/124/124 123/123/123 125/125/125 126/126/126
f 126/126/126 125/125/125 127/127/127 128/128/128
f 128/128/128 127/127/127 129/129/129 130/130/130
f 130/130/130 129/129/129 131/131/131 132/132/132
f 132/132/132 131/131/131 133/133/133 134/134/134
f 134/134/134 133/133/133 135/135/135 136/136/136
f 136/136/136 135/135/135 137/137/137 113/113/113
f 113/113/113 137/137/137 116/116/116 114/114/114
f 138/138/138 136/136/136 113/113/113 112/112/112
f 139/139/139 134/134/134 136/136/136 138/138/138
f 140/140/140 132/132/132 134/134/134 139/139/139
f 141/141/141 130/130/130 132/132/132 140/140/140
f 142/142/142 128/128/128 130/130/130 141/141/141
f 143/143/143 126/126/126 128/128/128 142/142/142
f 144/144/144 124/124/124 126/126/126 143/143/143
f 145/145/145 122/122/122 124/124/124 144/144/144
f 146/146/146 120/120/120 122/122/122 145/145/145
f 147/147/147 118/118/118 120/120/120 146/146/146
f 115/115/115 114/114/114 118/118/118 147/147/147
f 7/7/148 6/6/149 117/117/150 116/116/148
f 6/6/149 9/9/151 119/119/152 117/117/150
f 9/9/151 11/11/153 121/121/153 119/119/152
f 11/11/153 13/13/154 123/123/155 121/121/153
f 13/13/154 15/15/156 125/125/157 123/123/155
f 15/15/156 17/17/158 127/127/158 125/125/157
f 17/17/158 19/19/159 129/129/160 127/127/158
f 19/19/159 21/21/161 131/131/162 129/129/160
f 21/21/161 23/23/163 133/133/163 131/131/162
f 23/23/163 25/25/164 135/135/165 133/133/163
f 25/25/164 26/26/166 137/137/167 135/135/165
f 26/26/166 7/7/148 116/116/148 137/137/167
