# Blender v2.78 (sub 0) OBJ File: 'FantasyUVs3_Küche.blend'
# www.blender.org
mtllib mod_Lollipop_Fantasie.mtl
g Lollipop.001
v 0.303975 2.126024 -0.303975
v 0.000000 2.057707 -0.372292
v 0.000000 2.429999 -0.526500
v 0.372292 2.429999 -0.372292
v -0.303975 2.126024 -0.303975
v -0.372292 2.429999 -0.372292
v 0.000000 2.802291 -0.372292
v 0.303975 2.733974 -0.303975
v -0.303975 2.733974 -0.303975
v -0.372292 2.057707 0.000000
v -0.526500 2.429999 0.000000
v -0.303975 2.126024 0.303975
v -0.372292 2.429999 0.372292
v -0.372292 2.802291 0.000000
v -0.303975 2.733974 0.303975
v 0.000000 2.057707 0.372292
v 0.000000 2.429999 0.526500
v 0.303975 2.126024 0.303975
v 0.372292 2.429999 0.372292
v 0.000000 2.802291 0.372292
v 0.303975 2.733974 0.303975
v 0.372292 2.057707 0.000000
v 0.526500 2.429999 0.000000
v 0.372292 2.802291 0.000000
v 0.000000 1.903499 0.000000
v 0.000000 2.956499 0.000000
v 0.000000 -0.000001 -0.060750
v 0.000000 2.429999 -0.060750
v 0.052611 2.429999 -0.030375
v 0.052611 -0.000001 -0.030375
v 0.052611 2.429999 0.030375
v 0.052611 -0.000001 0.030373
v 0.000000 2.429999 0.060750
v 0.000000 -0.000001 0.060748
v -0.052611 2.429999 0.030375
v -0.052611 -0.000001 0.030373
v -0.052611 2.429999 -0.030375
v -0.052611 -0.000001 -0.030375
vt 0.9382 0.6688
vt 0.8681 0.6846
vt 0.8681 0.7202
vt 0.9540 0.6846
vt 0.7980 0.6688
vt 0.7822 0.6846
vt 0.8681 0.6846
vt 0.9382 0.6688
vt 0.7980 0.6688
vt 0.7822 0.5987
vt 0.7467 0.5987
vt 0.7980 0.5286
vt 0.7822 0.5128
vt 0.7822 0.5987
vt 0.7980 0.5286
vt 0.8681 0.5128
vt 0.8681 0.4773
vt 0.9382 0.5286
vt 0.9540 0.5128
vt 0.8681 0.5128
vt 0.9382 0.5286
vt 0.9540 0.5987
vt 0.9895 0.5987
vt 0.9540 0.5987
vt 0.8681 0.5987
vt 0.8681 0.5987
vt 0.2724 0.0128
vt 0.2724 0.4356
vt 0.2706 0.4353
vt 0.2706 0.0121
vt 0.2631 0.4353
vt 0.2631 0.0121
vt 0.2573 0.4356
vt 0.2573 0.0128
vt 0.2591 0.4359
vt 0.2591 0.0136
vt 0.2666 0.4359
vt 0.2666 0.0136
vn 0.5774 -0.5774 -0.5774
vn 0.0000 -0.7071 -0.7071
vn 0.0000 0.0000 -1.0000
vn 0.7071 0.0000 -0.7071
vn -0.5774 -0.5774 -0.5774
vn -0.7071 0.0000 -0.7071
vn 0.0000 0.7071 -0.7071
vn 0.5774 0.5774 -0.5774
vn -0.5774 0.5774 -0.5774
vn -0.7071 -0.7071 0.0000
vn -1.0000 0.0000 0.0000
vn -0.5774 -0.5774 0.5774
vn -0.7071 0.0000 0.7071
vn -0.7071 0.7071 0.0000
vn -0.5774 0.5774 0.5774
vn 0.0000 -0.7071 0.7071
vn 0.0000 -0.0000 1.0000
vn 0.5774 -0.5774 0.5774
vn 0.7071 0.0000 0.7071
vn 0.0000 0.7071 0.7071
vn 0.5774 0.5774 0.5774
vn 0.7071 -0.7071 0.0000
vn 1.0000 0.0000 0.0000
vn 0.7071 0.7071 0.0000
vn 0.0000 -1.0000 0.0000
vn 0.0000 1.0000 0.0000
vn 0.0000 -0.6100 -0.7924
vn 0.8660 0.0000 -0.5000
vn 0.6862 -0.6100 -0.3962
vn 0.8660 -0.0000 0.5000
vn 0.6862 -0.6100 0.3962
vn 0.0000 -0.6100 0.7924
vn -0.8660 -0.0000 0.5000
vn -0.6862 -0.6100 0.3962
vn -0.8660 0.0000 -0.5000
vn -0.6862 -0.6100 -0.3962
usemtl None.008
s 1
f 1/1/1 2/2/2 3/3/3 4/4/4
f 2/2/2 5/5/5 6/6/6 3/3/3
f 4/4/4 3/3/3 7/7/7 8/8/8
f 3/3/3 6/6/6 9/9/9 7/7/7
f 5/5/5 10/10/10 11/11/11 6/6/6
f 10/10/10 12/12/12 13/13/13 11/11/11
f 6/6/6 11/11/11 14/14/14 9/9/9
f 11/11/11 13/13/13 15/15/15 14/14/14
f 12/12/12 16/16/16 17/17/17 13/13/13
f 16/16/16 18/18/18 19/19/19 17/17/17
f 13/13/13 17/17/17 20/20/20 15/15/15
f 17/17/17 19/19/19 21/21/21 20/20/20
f 18/18/18 22/22/22 23/23/23 19/19/19
f 22/22/22 1/1/1 4/4/4 23/23/23
f 19/19/19 23/23/23 24/24/24 21/21/21
f 23/23/23 4/4/4 8/8/8 24/24/24
f 18/18/18 16/16/16 25/25/25 22/22/22
f 16/16/16 12/12/12 10/10/10 25/25/25
f 22/22/22 25/25/25 2/2/2 1/1/1
f 25/25/25 10/10/10 5/5/5 2/2/2
f 8/8/8 7/7/7 26/26/26 24/24/24
f 7/7/7 9/9/9 14/14/14 26/26/26
f 24/24/24 26/26/26 20/20/20 21/21/21
f 26/26/26 14/14/14 15/15/15 20/20/20
f 27/27/27 28/28/3 29/29/28 30/30/29
f 30/30/29 29/29/28 31/31/30 32/32/31
f 32/32/31 31/31/30 33/33/17 34/34/32
f 34/34/32 33/33/17 35/35/33 36/36/34
f 36/36/34 35/35/33 37/37/35 38/38/36
f 38/38/36 37/37/35 28/28/3 27/27/27
f 27/27/27 30/30/29 32/32/31 34/34/32 36/36/34 38/38/36
