# Blender v2.79 (sub 0) OBJ File: 'mod_Hut_Cowboy_Fantasie.blend'
# www.blender.org
g Hut_Cowboy
v 0.000000 0.187839 -0.230539
v 0.118942 0.148172 -0.196653
v 0.207893 0.175507 -0.098854
v 0.213479 0.222573 -0.000000
v 0.207893 0.175507 0.098854
v 0.118908 0.140721 0.196300
v 0.000000 0.187838 0.230539
v -0.118931 0.145879 0.196544
v -0.207893 0.175507 0.098854
v -0.213479 0.222573 0.000000
v -0.207893 0.175507 -0.098854
v -0.118954 0.150804 -0.196777
v 0.256409 0.058229 -0.446804
v -0.000000 0.019656 -0.515130
v 0.446616 0.148262 -0.256763
v 0.515120 0.221495 0.000000
v 0.446616 0.148262 0.256763
v 0.256409 0.058229 0.446804
v 0.000000 0.019656 0.515130
v -0.256409 0.058229 0.446804
v -0.446616 0.148262 0.256763
v -0.515120 0.221495 0.000000
v -0.446616 0.148263 -0.256763
v -0.256409 0.058229 -0.446804
v -0.000000 -0.004122 -0.384694
v 0.174866 0.013492 -0.299287
v 0.301050 0.073585 -0.175902
v 0.359265 0.132414 0.000000
v 0.301050 0.073585 0.175902
v 0.174866 0.013492 0.299287
v 0.000000 -0.001711 0.397917
v -0.174866 0.013492 0.299287
v -0.301050 0.073584 0.175902
v -0.359265 0.132414 0.000000
v -0.301051 0.073585 -0.175902
v -0.174867 0.013492 -0.299287
v -0.078302 0.607429 -0.000001
v 0.078526 0.607577 0.000138
v -0.143788 0.602587 0.000000
v -0.155313 0.583228 -0.107985
v 0.000000 0.522264 0.207634
v -0.102909 0.557970 0.181001
v 0.143788 0.602587 0.000000
v 0.155314 0.583228 0.107986
v -0.095170 0.555288 -0.183006
v 0.000000 0.522269 -0.207634
v 0.096908 0.555891 -0.182557
v -0.155312 0.583227 0.107985
v 0.102911 0.557975 0.181003
v 0.155314 0.583228 -0.107986
v -0.169444 0.526885 -0.123514
v -0.117768 0.495929 0.207624
v 0.169444 0.526885 0.123514
v -0.117768 0.495929 -0.207624
v 0.117768 0.495929 -0.207624
v -0.169444 0.526885 0.123514
v 0.117768 0.495929 0.207624
v 0.169444 0.526885 -0.123514
v -0.152069 0.549038 0.000000
v 0.000000 0.483221 0.231138
v 0.152069 0.549038 0.000000
v 0.000000 0.483222 -0.231139
v -0.180352 0.462816 -0.128516
v -0.120247 0.435279 0.210246
v 0.180352 0.462816 0.128516
v -0.120247 0.435279 -0.210246
v 0.120247 0.435279 -0.210246
v -0.180352 0.462816 0.128516
v 0.120247 0.435279 0.210246
v 0.180352 0.462816 -0.128516
v -0.173644 0.486458 0.000000
v 0.000000 0.419410 0.242791
v 0.173644 0.486458 0.000000
v 0.000000 0.419410 -0.242791
v 0.000000 0.559525 0.000067
v 0.079166 0.595767 -0.144180
v 0.095423 0.578286 -0.175603
v 0.000000 0.541103 -0.201357
v 0.000000 0.561246 -0.165712
v 0.129018 0.633268 -0.080672
v 0.155028 0.618630 -0.098344
v 0.122666 0.644925 0.000016
v 0.147705 0.637495 0.000000
v 0.129015 0.633266 0.080703
v 0.155029 0.618631 0.098346
v 0.079185 0.595778 0.144189
v 0.102127 0.580899 0.173794
v -0.000000 0.561246 0.165726
v -0.000000 0.541098 0.201357
v -0.079143 0.595753 0.144202
v -0.102128 0.580887 0.173794
v -0.128998 0.633263 0.080694
v -0.155027 0.618627 0.098347
v -0.122644 0.643158 -0.000000
v -0.147705 0.637495 0.000000
v -0.128998 0.633272 -0.080693
v -0.155027 0.618628 -0.098347
v -0.079167 0.595768 -0.144182
v -0.092474 0.577136 -0.176398
v 0.000000 0.551333 -0.181515
v 0.088278 0.589067 -0.158181
v 0.145142 0.631187 -0.085030
v 0.139074 0.647778 0.000014
v 0.145141 0.631188 0.085055
v 0.088299 0.589078 0.158190
v 0.000000 0.551331 0.181530
v -0.088257 0.589053 0.158201
v -0.145124 0.631184 0.085050
v -0.139056 0.647371 0.000000
v -0.145124 0.631187 -0.085049
v -0.088280 0.589067 -0.158182
v 0.000000 0.104955 -0.208267
v 0.111580 0.119847 -0.179139
v 0.193860 0.165571 -0.088639
v 0.195531 0.213749 -0.000000
v 0.193860 0.165571 0.088639
v 0.111580 0.119847 0.179139
v 0.000000 0.104954 0.208267
v -0.111580 0.119847 0.179139
v -0.193860 0.165571 0.088639
v -0.195531 0.213749 0.000000
v -0.193860 0.165571 -0.088639
v -0.111580 0.119847 -0.179139
v 0.262951 0.039437 -0.448814
v -0.000000 0.000000 -0.518825
v 0.456146 0.130713 -0.255684
v 0.525149 0.204191 0.000000
v 0.456146 0.130713 0.255684
v 0.262951 0.039437 0.448814
v 0.000000 0.000000 0.518825
v -0.262951 0.039437 0.448814
v -0.456146 0.130713 0.255684
v -0.525149 0.204191 0.000000
v -0.456146 0.130713 -0.255684
v -0.262952 0.039437 -0.448813
v -0.000000 -0.030725 -0.341236
v 0.177282 -0.005653 -0.294031
v 0.303441 0.054671 -0.169856
v 0.361179 0.112506 0.000000
v 0.303441 0.054671 0.169856
v 0.177282 -0.005653 0.294031
v 0.000000 -0.030725 0.341236
v -0.177282 -0.005653 0.294031
v -0.303441 0.054671 0.169856
v -0.361179 0.112506 0.000000
v -0.303441 0.054671 -0.169855
v -0.177283 -0.005653 -0.294031
vn -0.4631 0.4084 -0.7866
vn 0.0011 0.2772 -0.9608
vn 0.0010 0.9825 -0.1862
vn 0.0263 0.9547 -0.2963
vn -0.0270 0.9552 -0.2948
vn -0.3275 0.9395 0.1007
vn 0.0000 0.9827 0.1853
vn -0.0987 0.9479 -0.3029
vn -0.4765 0.8775 -0.0540
vn -0.0957 0.9954 0.0000
vn -0.5015 0.8652 -0.0000
vn -0.1063 0.9471 0.3028
vn -0.4765 0.8775 0.0540
vn -0.0167 0.9572 0.2890
vn -0.3276 0.9394 -0.1008
vn 0.0018 0.9882 0.1529
vn 0.0000 0.9826 -0.1855
vn 0.0153 0.9563 0.2920
vn 0.3276 0.9394 -0.1008
vn 0.1010 0.9477 0.3029
vn 0.4765 0.8775 0.0540
vn 0.0957 0.9954 0.0000
vn 0.5015 0.8652 0.0000
vn 0.0960 0.9482 -0.3029
vn 0.4765 0.8775 -0.0540
vn 0.3275 0.9395 0.1007
vn 0.2711 0.9310 -0.2443
vn 0.3447 0.9387 0.0000
vn 0.5189 0.8548 0.0000
vn 0.2861 0.8997 -0.3296
vn -0.5228 0.8524 0.0001
vn -0.0001 1.0000 0.0000
vn -0.0000 0.9333 0.3591
vn -0.2870 0.8992 0.3303
vn -0.2622 0.9319 0.2506
vn -0.3295 0.9442 -0.0000
vn -0.2870 0.8992 -0.3303
vn -0.0000 0.9333 -0.3591
vn 0.2862 0.8997 0.3295
vn 0.2712 0.9310 0.2443
vn -0.7054 0.5018 -0.5006
vn -0.8974 0.4412 0.0000
vn -0.7045 0.5007 0.5029
vn -0.4674 0.4250 0.7752
vn 0.0020 0.2856 0.9583
vn 0.4625 0.4365 0.7717
vn 0.7037 0.4996 0.5053
vn 0.8974 0.4412 0.0000
vn 0.7049 0.5012 -0.5019
vn 0.4606 0.4144 -0.7849
vn -0.9216 0.2230 -0.3176
vn -0.9989 0.0471 0.0000
vn -0.9292 0.3695 0.0000
vn -0.7914 0.4885 -0.3674
vn -0.2622 0.9319 -0.2505
vn -0.0000 0.4040 -0.9148
vn -0.4074 0.3834 -0.8289
vn -0.2716 0.5828 -0.7658
vn 0.0002 0.5422 -0.8403
vn 0.9259 0.2147 -0.3108
vn 0.4123 0.3790 -0.8285
vn 0.2933 0.5784 -0.7612
vn 0.7914 0.4930 -0.3614
vn -0.4380 0.3675 0.8204
vn -0.0000 0.4027 0.9153
vn -0.0000 0.5410 0.8410
vn -0.3305 0.5757 0.7479
vn 0.4381 0.3675 0.8204
vn 0.9355 0.1996 0.2916
vn 0.7885 0.5081 0.3466
vn 0.3304 0.5757 0.7479
vn -0.9355 0.1996 0.2916
vn -0.7876 0.5094 0.3467
vn 0.9989 0.0471 -0.0000
vn 0.9313 0.3642 -0.0000
vn 0.9769 0.2135 -0.0000
vn 0.9076 0.2842 -0.3089
vn -0.0000 0.2750 0.9614
vn 0.4965 0.2735 0.8239
vn -0.9769 0.2135 0.0000
vn -0.9135 0.2723 0.3022
vn 0.4984 0.2781 -0.8211
vn -0.0000 0.2758 -0.9612
vn -0.4989 0.2795 -0.8203
vn 0.9135 0.2723 0.3022
vn -0.4965 0.2735 0.8239
vn -0.9060 0.2875 -0.3108
vn -0.9341 0.1232 -0.3350
vn -0.9816 0.1911 0.0000
vn -0.5408 0.0439 0.8400
vn -0.0000 0.0267 0.9996
vn 0.9341 0.1231 0.3352
vn 0.9816 0.1911 0.0000
vn -0.5409 0.0439 -0.8400
vn 0.5408 0.0439 -0.8400
vn -0.0000 0.0267 -0.9996
vn -0.9341 0.1231 0.3351
vn 0.5407 0.0438 0.8401
vn 0.9341 0.1232 -0.3350
vn 0.0002 0.8499 -0.5269
vn -0.0601 0.8463 -0.5293
vn 0.3478 0.8899 -0.2953
vn 0.3625 0.9320 0.0000
vn 0.3409 0.8943 0.2899
vn -0.0874 0.8508 0.5182
vn -0.0000 0.8488 0.5287
vn 0.0876 0.8508 0.5182
vn -0.3291 0.8991 0.2885
vn -0.3402 0.9403 0.0000
vn -0.3394 0.8926 -0.2967
vn 0.0463 0.8431 -0.5357
vn 0.1946 -0.7174 0.6690
vn -0.1200 -0.9570 0.2640
vn -0.0000 -0.9745 0.2243
vn -0.0000 -0.7004 0.7137
vn -0.0000 -0.9845 -0.1753
vn 0.3225 -0.9421 -0.0919
vn 0.1200 -0.9570 0.2640
vn 0.4691 -0.8811 0.0595
vn 0.1178 -0.9447 0.3059
vn 0.4935 -0.8697 -0.0000
vn 0.1005 -0.9949 -0.0000
vn 0.4691 -0.8811 -0.0595
vn 0.1178 -0.9447 -0.3059
vn 0.3225 -0.9421 0.0919
vn 0.1200 -0.9570 -0.2640
vn -0.0000 -0.9845 0.1753
vn -0.0000 -0.9745 -0.2243
vn -0.3225 -0.9421 0.0919
vn -0.1200 -0.9570 -0.2640
vn -0.4691 -0.8811 -0.0595
vn -0.1178 -0.9447 -0.3059
vn -0.4935 -0.8697 -0.0000
vn -0.1005 -0.9949 -0.0000
vn -0.4691 -0.8811 0.0595
vn -0.1178 -0.9447 0.3059
vn -0.3225 -0.9421 -0.0919
vn 0.4013 -0.7630 0.5068
vn 0.5198 -0.8543 -0.0000
vn 0.4013 -0.7630 -0.5068
vn 0.1946 -0.7174 -0.6690
vn -0.0000 -0.7004 -0.7137
vn -0.1946 -0.7174 -0.6690
vn -0.4013 -0.7630 -0.5068
vn -0.5198 -0.8543 -0.0000
vn -0.4013 -0.7630 0.5068
vn -0.1946 -0.7174 0.6690
vn -0.0000 0.1856 -0.9826
vn 0.4273 0.2398 -0.8717
vn 0.4281 0.2400 -0.8713
vn 0.7345 0.3792 -0.5627
vn 0.7354 0.3799 -0.5610
vn 0.8769 0.4806 0.0000
vn 0.7345 0.3792 0.5627
vn 0.7354 0.3799 0.5610
vn 0.4273 0.2398 0.8717
vn 0.4281 0.2400 0.8713
vn 0.0000 0.1856 0.9826
vn -0.4273 0.2398 0.8717
vn -0.4281 0.2400 0.8713
vn -0.7345 0.3792 0.5627
vn -0.7354 0.3799 0.5610
vn -0.8769 0.4806 0.0000
vn -0.7345 0.3792 -0.5627
vn -0.7354 0.3799 -0.5610
vn -0.4273 0.2398 -0.8717
vn -0.4281 0.2400 -0.8713
s 1
f 12//1 1//2 25//3 36//4
f 25//3 26//5 13//6 14//7
f 26//5 27//8 15//9 13//6
f 27//8 28//10 16//11 15//9
f 28//10 29//12 17//13 16//11
f 29//12 30//14 18//15 17//13
f 30//14 31//16 19//17 18//15
f 31//16 32//18 20//19 19//17
f 32//18 33//20 21//21 20//19
f 33//20 34//22 22//23 21//21
f 34//22 35//24 23//25 22//23
f 35//24 36//4 24//26 23//25
f 36//4 25//3 14//7 24//26
f 96//27 94//28 37//29 98//30
f 38//31 75//32 88//33 86//34
f 38//31 86//34 84//35 82//36
f 75//32 38//31 76//37 79//38
f 37//29 90//39 88//33 75//32
f 37//29 94//28 92//40 90//39
f 11//41 12//1 36//4 35//24
f 10//42 11//41 35//24 34//22
f 9//43 10//42 34//22 33//20
f 8//44 9//43 33//20 32//18
f 7//45 8//44 32//18 31//16
f 6//46 7//45 31//16 30//14
f 5//47 6//46 30//14 29//12
f 4//48 5//47 29//12 28//10
f 3//49 4//48 28//10 27//8
f 2//50 3//49 27//8 26//5
f 1//2 2//50 26//5 25//3
f 40//51 39//52 95//53 97//54
f 80//55 76//37 38//31 82//36
f 46//56 45//57 99//58 78//59
f 50//60 47//61 77//62 81//63
f 45//57 40//51 97//54 99//58
f 42//64 41//65 89//66 91//67
f 47//61 46//56 78//59 77//62
f 49//68 44//69 85//70 87//71
f 41//65 49//68 87//71 89//66
f 48//72 42//64 91//67 93//73
f 43//74 50//60 81//63 83//75
f 39//52 48//72 93//73 95//53
f 44//69 43//74 83//75 85//70
f 61//76 58//77 50//60 43//74
f 60//78 57//79 49//68 41//65
f 59//80 56//81 48//72 39//52
f 58//77 55//82 47//61 50//60
f 62//83 54//84 45//57 46//56
f 57//79 53//85 44//69 49//68
f 56//81 52//86 42//64 48//72
f 55//82 62//83 46//56 47//61
f 54//84 51//87 40//51 45//57
f 53//85 61//76 43//74 44//69
f 52//86 60//78 41//65 42//64
f 51//87 59//80 39//52 40//51
f 63//88 71//89 59//80 51//87
f 64//90 72//91 60//78 52//86
f 65//92 73//93 61//76 53//85
f 66//94 63//88 51//87 54//84
f 67//95 74//96 62//83 55//82
f 68//97 64//90 52//86 56//81
f 69//98 65//92 53//85 57//79
f 74//96 66//94 54//84 62//83
f 70//99 67//95 55//82 58//77
f 71//89 68//97 56//81 59//80
f 72//91 69//98 57//79 60//78
f 73//93 70//99 58//77 61//76
f 4//48 3//49 70//99 73//93
f 7//45 6//46 69//98 72//91
f 10//42 9//43 68//97 71//89
f 3//49 2//50 67//95 70//99
f 1//2 12//1 66//94 74//96
f 6//46 5//47 65//92 69//98
f 9//43 8//44 64//90 68//97
f 2//50 1//2 74//96 67//95
f 12//1 11//41 63//88 66//94
f 5//47 4//48 73//93 65//92
f 8//44 7//45 72//91 64//90
f 11//41 10//42 71//89 63//88
f 98//30 37//29 75//32 79//38
f 77//62 78//59 100//100 101//101
f 81//63 77//62 101//101 102//102
f 83//75 81//63 102//102 103//103
f 85//70 83//75 103//103 104//104
f 87//71 85//70 104//104 105//105
f 89//66 87//71 105//105 106//106
f 91//67 89//66 106//106 107//107
f 93//73 91//67 107//107 108//108
f 95//53 93//73 108//108 109//109
f 97//54 95//53 109//109 110//110
f 99//58 97//54 110//110 111//111
f 78//59 99//58 111//111 100//100
f 79//38 76//37 101//101 100//100
f 76//37 80//55 102//102 101//101
f 80//55 82//36 103//103 102//102
f 82//36 84//35 104//104 103//103
f 84//35 86//34 105//105 104//104
f 86//34 88//33 106//106 105//105
f 88//33 90//39 107//107 106//106
f 90//39 92//40 108//108 107//107
f 92//40 94//28 109//109 108//108
f 94//28 96//27 110//110 109//109
f 96//27 98//30 111//111 110//110
f 98//30 79//38 100//100 111//111
f 123//112 147//113 136//114 112//115
f 136//114 125//116 124//117 137//118
f 137//118 124//117 126//119 138//120
f 138//120 126//119 127//121 139//122
f 139//122 127//121 128//123 140//124
f 140//124 128//123 129//125 141//126
f 141//126 129//125 130//127 142//128
f 142//128 130//127 131//129 143//130
f 143//130 131//129 132//131 144//132
f 144//132 132//131 133//133 145//134
f 145//134 133//133 134//135 146//136
f 146//136 134//135 135//137 147//113
f 147//113 135//137 125//116 136//114
f 122//138 146//136 147//113 123//112
f 121//139 145//134 146//136 122//138
f 120//140 144//132 145//134 121//139
f 119//141 143//130 144//132 120//140
f 118//142 142//128 143//130 119//141
f 117//143 141//126 142//128 118//142
f 116//144 140//124 141//126 117//143
f 115//145 139//122 140//124 116//144
f 114//146 138//120 139//122 115//145
f 113//147 137//118 138//120 114//146
f 112//115 136//114 137//118 113//147
f 14//148 13//149 124//150 125//148
f 13//149 15//151 126//152 124//150
f 15//151 16//153 127//153 126//152
f 16//153 17//154 128//155 127//153
f 17//154 18//156 129//157 128//155
f 18//156 19//158 130//158 129//157
f 19//158 20//159 131//160 130//158
f 20//159 21//161 132//162 131//160
f 21//161 22//163 133//163 132//162
f 22//163 23//164 134//165 133//163
f 23//164 24//166 135//167 134//165
f 24//166 14//148 125//148 135//167
