# Blender v2.78 (sub 0) OBJ File: 'FantasyUVs3_Küche.blend'
# www.blender.org
mtllib mod_Brille_Fantasie.mtl
g Brille.001
v 0.956261 0.414278 0.000000
v 0.900758 0.621418 0.000000
v 0.883138 0.611245 0.042248
v 0.935916 0.414278 0.042248
v 0.843548 0.588388 0.052681
v 0.890200 0.414278 0.052681
v 0.811799 0.570057 0.023446
v 0.853539 0.414278 0.023446
v 0.811799 0.570057 -0.023445
v 0.853539 0.414278 -0.023445
v 0.843548 0.588388 -0.052681
v 0.890200 0.414278 -0.052681
v 0.883138 0.611245 -0.042246
v 0.935916 0.414278 -0.042246
v 0.749121 0.773055 0.000001
v 0.738949 0.755435 0.042249
v 0.716091 0.715845 0.052681
v 0.697760 0.684095 0.023446
v 0.697760 0.684095 -0.023445
v 0.716091 0.715845 -0.052681
v 0.738949 0.755435 -0.042246
v 0.541982 0.828558 0.000001
v 0.541982 0.808212 0.042249
v 0.541982 0.762497 0.052681
v 0.541982 0.725836 0.023446
v 0.541982 0.725836 -0.023445
v 0.541982 0.762497 -0.052681
v 0.541982 0.808212 -0.042246
v 0.379379 0.784989 0.000001
v 0.345015 0.755435 0.042249
v 0.367872 0.715845 0.052681
v 0.386203 0.684095 0.023446
v 0.386203 0.684095 -0.023445
v 0.367872 0.715845 -0.052681
v 0.345015 0.755435 -0.042246
v 0.262883 0.701841 0.000001
v 0.183205 0.621600 0.000000
v 0.200825 0.611245 0.042248
v 0.296951 0.707435 0.042248
v 0.240415 0.588388 0.052681
v 0.325387 0.673359 0.052681
v 0.272165 0.570057 0.023446
v 0.348190 0.646083 0.023446
v 0.272165 0.570057 -0.023445
v 0.348190 0.646083 -0.023445
v 0.240415 0.588388 -0.052681
v 0.325387 0.673359 -0.052681
v 0.200825 0.611245 -0.042246
v 0.296951 0.707435 -0.042246
v 0.127702 0.414278 0.000000
v 0.148047 0.414278 0.042248
v 0.193763 0.414278 0.052681
v 0.230424 0.414278 0.023446
v 0.230424 0.414278 -0.023445
v 0.193763 0.414278 -0.052681
v 0.148047 0.414278 -0.042246
v 0.183205 0.207139 0.000000
v 0.200825 0.217311 0.042248
v 0.240415 0.240169 0.052681
v 0.272165 0.258499 0.023446
v 0.272165 0.258499 -0.023445
v 0.240415 0.240169 -0.052681
v 0.200825 0.217311 -0.042247
v 0.334842 0.055502 0.000000
v 0.345015 0.073121 0.042248
v 0.367872 0.112712 0.052681
v 0.386203 0.144461 0.023446
v 0.386203 0.144461 -0.023445
v 0.367872 0.112712 -0.052682
v 0.345015 0.073121 -0.042247
v 0.541982 -0.000001 0.000000
v 0.541982 0.020344 0.042248
v 0.541982 0.066060 0.052681
v 0.541982 0.102721 0.023446
v 0.541982 0.102721 -0.023445
v 0.541982 0.066060 -0.052682
v 0.541982 0.020344 -0.042247
v 0.749121 0.055502 0.000000
v 0.738949 0.073121 0.042248
v 0.716091 0.112712 0.052681
v 0.697760 0.144461 0.023446
v 0.697760 0.144461 -0.023445
v 0.716091 0.112712 -0.052682
v 0.738949 0.073121 -0.042247
v 0.900758 0.207139 0.000000
v 0.883138 0.217311 0.042248
v 0.843548 0.240169 0.052681
v 0.811799 0.258499 0.023446
v 0.811799 0.258499 -0.023445
v 0.843548 0.240169 -0.052681
v 0.883138 0.217311 -0.042247
v 0.294265 0.721515 -0.035500
v 0.267669 0.726062 0.000001
v 0.170726 0.844998 0.000001
v 0.181574 0.858378 -0.039525
v 0.333063 0.759537 0.037011
v 0.331143 0.788191 0.000001
v 0.238579 0.909160 0.000001
v 0.223813 0.896908 0.039624
v 0.333063 0.759537 -0.037008
v 0.294265 0.721515 0.035501
v 0.108183 1.012285 -0.040269
v 0.088226 0.964507 -0.039059
v 0.000000 1.003218 -0.037458
v 0.000000 1.057614 -0.039712
v 0.081692 0.949243 0.000001
v 0.000000 0.986387 0.000001
v 0.223813 0.896907 -0.039621
v 0.181574 0.858378 0.039525
v 0.115139 1.028936 0.000001
v 0.000000 1.079604 0.000001
v 0.088226 0.964507 0.039061
v 0.000000 1.003218 0.037462
v 0.108183 1.012286 0.040270
v 0.000000 1.057614 0.039714
v -0.956261 0.414278 0.000000
v -0.935916 0.414278 0.042248
v -0.883138 0.611245 0.042248
v -0.900758 0.621418 0.000000
v -0.890200 0.414278 0.052681
v -0.843548 0.588388 0.052681
v -0.853539 0.414278 0.023446
v -0.811799 0.570057 0.023446
v -0.853539 0.414278 -0.023445
v -0.811799 0.570057 -0.023445
v -0.890200 0.414278 -0.052681
v -0.843548 0.588388 -0.052681
v -0.935916 0.414278 -0.042246
v -0.883138 0.611245 -0.042246
v -0.738949 0.755435 0.042249
v -0.749121 0.773055 0.000001
v -0.716091 0.715845 0.052681
v -0.697760 0.684095 0.023446
v -0.697760 0.684095 -0.023445
v -0.716091 0.715845 -0.052681
v -0.738949 0.755435 -0.042246
v -0.541982 0.808212 0.042249
v -0.541982 0.828558 0.000001
v -0.541982 0.762497 0.052681
v -0.541982 0.725836 0.023446
v -0.541982 0.725836 -0.023445
v -0.541982 0.762497 -0.052681
v -0.541982 0.808212 -0.042246
v -0.345015 0.755435 0.042249
v -0.379379 0.784989 0.000001
v -0.367872 0.715845 0.052681
v -0.386203 0.684095 0.023446
v -0.386203 0.684095 -0.023445
v -0.367872 0.715845 -0.052681
v -0.345015 0.755435 -0.042246
v -0.262883 0.701841 0.000001
v -0.296951 0.707435 0.042248
v -0.200825 0.611245 0.042248
v -0.183205 0.621600 0.000000
v -0.325387 0.673359 0.052681
v -0.240415 0.588388 0.052681
v -0.348190 0.646083 0.023446
v -0.272165 0.570057 0.023446
v -0.348190 0.646083 -0.023445
v -0.272165 0.570057 -0.023445
v -0.325387 0.673359 -0.052681
v -0.240415 0.588388 -0.052681
v -0.296951 0.707435 -0.042246
v -0.200825 0.611245 -0.042246
v -0.148047 0.414278 0.042248
v -0.127702 0.414278 0.000000
v -0.193763 0.414278 0.052681
v -0.230424 0.414278 0.023446
v -0.230424 0.414278 -0.023445
v -0.193763 0.414278 -0.052681
v -0.148047 0.414278 -0.042246
v -0.200825 0.217311 0.042248
v -0.183205 0.207139 0.000000
v -0.240415 0.240169 0.052681
v -0.272165 0.258499 0.023446
v -0.272165 0.258499 -0.023445
v -0.240415 0.240169 -0.052681
v -0.200825 0.217311 -0.042247
v -0.345015 0.073121 0.042248
v -0.334842 0.055502 0.000000
v -0.367872 0.112712 0.052681
v -0.386203 0.144461 0.023446
v -0.386203 0.144461 -0.023445
v -0.367872 0.112712 -0.052682
v -0.345015 0.073121 -0.042247
v -0.541982 0.020344 0.042248
v -0.541982 -0.000001 0.000000
v -0.541982 0.066060 0.052681
v -0.541982 0.102721 0.023446
v -0.541982 0.102721 -0.023445
v -0.541982 0.066060 -0.052682
v -0.541982 0.020344 -0.042247
v -0.738949 0.073121 0.042248
v -0.749121 0.055502 0.000000
v -0.716091 0.112712 0.052681
v -0.697760 0.144461 0.023446
v -0.697760 0.144461 -0.023445
v -0.716091 0.112712 -0.052682
v -0.738949 0.073121 -0.042247
v -0.883138 0.217311 0.042248
v -0.900758 0.207139 0.000000
v -0.843548 0.240169 0.052681
v -0.811799 0.258499 0.023446
v -0.811799 0.258499 -0.023445
v -0.843548 0.240169 -0.052681
v -0.883138 0.217311 -0.042247
v -0.294265 0.721515 -0.035500
v -0.181574 0.858378 -0.039525
v -0.170726 0.844998 0.000001
v -0.267669 0.726062 0.000001
v -0.333063 0.759537 0.037011
v -0.223813 0.896908 0.039624
v -0.238579 0.909160 0.000001
v -0.331143 0.788191 0.000001
v -0.333063 0.759537 -0.037008
v -0.294265 0.721515 0.035501
v -0.108183 1.012285 -0.040269
v -0.088226 0.964507 -0.039059
v -0.081692 0.949243 0.000001
v -0.223813 0.896907 -0.039621
v -0.181574 0.858378 0.039525
v -0.115139 1.028936 0.000001
v -0.088226 0.964507 0.039061
v -0.108183 1.012286 0.040270
vt 0.3117 0.9538
vt 0.3100 0.9677
vt 0.3094 0.9670
vt 0.3110 0.9538
vt 0.3082 0.9655
vt 0.3096 0.9538
vt 0.3072 0.9643
vt 0.3085 0.9538
vt 0.3072 0.9643
vt 0.3085 0.9538
vt 0.3082 0.9655
vt 0.3096 0.9538
vt 0.3094 0.9670
vt 0.3110 0.9538
vt 0.3053 0.9779
vt 0.3050 0.9767
vt 0.3043 0.9741
vt 0.3037 0.9719
vt 0.3037 0.9719
vt 0.3043 0.9741
vt 0.3050 0.9767
vt 0.2990 0.9816
vt 0.2990 0.9802
vt 0.2990 0.9772
vt 0.2990 0.9747
vt 0.2990 0.9747
vt 0.2990 0.9772
vt 0.2990 0.9802
vt 0.2940 0.9787
vt 0.2929 0.9767
vt 0.2936 0.9741
vt 0.2942 0.9719
vt 0.2942 0.9719
vt 0.2936 0.9741
vt 0.2929 0.9767
vt 0.2904 0.9731
vt 0.2880 0.9677
vt 0.2885 0.9670
vt 0.2914 0.9735
vt 0.2897 0.9655
vt 0.2923 0.9712
vt 0.2907 0.9643
vt 0.2930 0.9694
vt 0.2907 0.9643
vt 0.2930 0.9694
vt 0.2897 0.9655
vt 0.2923 0.9712
vt 0.2885 0.9670
vt 0.2914 0.9735
vt 0.2863 0.9538
vt 0.2869 0.9538
vt 0.2883 0.9538
vt 0.2894 0.9538
vt 0.2894 0.9538
vt 0.2883 0.9538
vt 0.2869 0.9538
vt 0.2880 0.9400
vt 0.2885 0.9406
vt 0.2897 0.9422
vt 0.2907 0.9434
vt 0.2907 0.9434
vt 0.2897 0.9422
vt 0.2885 0.9406
vt 0.2926 0.9298
vt 0.2929 0.9310
vt 0.2936 0.9336
vt 0.2942 0.9358
vt 0.2942 0.9358
vt 0.2936 0.9336
vt 0.2929 0.9310
vt 0.2990 0.9261
vt 0.2990 0.9274
vt 0.2990 0.9305
vt 0.2990 0.9330
vt 0.2990 0.9330
vt 0.2990 0.9305
vt 0.2990 0.9274
vt 0.3053 0.9298
vt 0.3050 0.9310
vt 0.3043 0.9336
vt 0.3037 0.9358
vt 0.3037 0.9358
vt 0.3043 0.9336
vt 0.3050 0.9310
vt 0.3100 0.9400
vt 0.3094 0.9406
vt 0.3082 0.9422
vt 0.3072 0.9434
vt 0.3072 0.9434
vt 0.3082 0.9422
vt 0.3094 0.9406
vt 0.2914 0.9744
vt 0.2905 0.9747
vt 0.2876 0.9827
vt 0.2879 0.9836
vt 0.2926 0.9770
vt 0.2925 0.9789
vt 0.2897 0.9870
vt 0.2892 0.9862
vt 0.2926 0.9770
vt 0.2914 0.9744
vt 0.2857 0.9939
vt 0.2850 0.9907
vt 0.2823 0.9933
vt 0.2823 0.9970
vt 0.2848 0.9897
vt 0.2823 0.9922
vt 0.2892 0.9862
vt 0.2879 0.9836
vt 0.2859 0.9950
vt 0.2823 0.9984
vt 0.2850 0.9907
vt 0.2823 0.9933
vt 0.2857 0.9939
vt 0.2823 0.9970
vt 0.2530 0.9538
vt 0.2536 0.9538
vt 0.2553 0.9670
vt 0.2547 0.9677
vt 0.2550 0.9538
vt 0.2565 0.9655
vt 0.2562 0.9538
vt 0.2575 0.9643
vt 0.2562 0.9538
vt 0.2575 0.9643
vt 0.2550 0.9538
vt 0.2565 0.9655
vt 0.2536 0.9538
vt 0.2553 0.9670
vt 0.2597 0.9767
vt 0.2594 0.9779
vt 0.2604 0.9741
vt 0.2609 0.9719
vt 0.2609 0.9719
vt 0.2604 0.9741
vt 0.2597 0.9767
vt 0.2657 0.9802
vt 0.2657 0.9816
vt 0.2657 0.9772
vt 0.2657 0.9747
vt 0.2657 0.9747
vt 0.2657 0.9772
vt 0.2657 0.9802
vt 0.2718 0.9767
vt 0.2707 0.9787
vt 0.2711 0.9741
vt 0.2705 0.9719
vt 0.2705 0.9719
vt 0.2711 0.9741
vt 0.2718 0.9767
vt 0.2743 0.9731
vt 0.2732 0.9735
vt 0.2762 0.9670
vt 0.2767 0.9677
vt 0.2724 0.9712
vt 0.2750 0.9655
vt 0.2717 0.9694
vt 0.2740 0.9643
vt 0.2717 0.9694
vt 0.2740 0.9643
vt 0.2724 0.9712
vt 0.2750 0.9655
vt 0.2732 0.9735
vt 0.2762 0.9670
vt 0.2778 0.9538
vt 0.2784 0.9538
vt 0.2764 0.9538
vt 0.2753 0.9538
vt 0.2753 0.9538
vt 0.2764 0.9538
vt 0.2778 0.9538
vt 0.2762 0.9406
vt 0.2767 0.9400
vt 0.2750 0.9422
vt 0.2740 0.9434
vt 0.2740 0.9434
vt 0.2750 0.9422
vt 0.2762 0.9406
vt 0.2718 0.9310
vt 0.2721 0.9298
vt 0.2711 0.9336
vt 0.2705 0.9358
vt 0.2705 0.9358
vt 0.2711 0.9336
vt 0.2718 0.9310
vt 0.2657 0.9274
vt 0.2657 0.9261
vt 0.2657 0.9305
vt 0.2657 0.9330
vt 0.2657 0.9330
vt 0.2657 0.9305
vt 0.2657 0.9274
vt 0.2597 0.9310
vt 0.2594 0.9298
vt 0.2604 0.9336
vt 0.2609 0.9358
vt 0.2609 0.9358
vt 0.2604 0.9336
vt 0.2597 0.9310
vt 0.2553 0.9406
vt 0.2547 0.9400
vt 0.2565 0.9422
vt 0.2575 0.9434
vt 0.2575 0.9434
vt 0.2565 0.9422
vt 0.2553 0.9406
vt 0.2733 0.9744
vt 0.2768 0.9836
vt 0.2771 0.9827
vt 0.2741 0.9747
vt 0.2721 0.9770
vt 0.2755 0.9862
vt 0.2750 0.9870
vt 0.2722 0.9789
vt 0.2721 0.9770
vt 0.2733 0.9744
vt 0.2790 0.9939
vt 0.2796 0.9907
vt 0.2798 0.9897
vt 0.2755 0.9862
vt 0.2768 0.9836
vt 0.2788 0.9950
vt 0.2796 0.9907
vt 0.2790 0.9939
vn 1.0000 -0.0000 -0.0000
vn 0.8660 0.5000 -0.0000
vn 0.5749 0.3319 0.7479
vn 0.6638 -0.0000 0.7479
vn -0.1316 -0.0760 0.9884
vn -0.1519 -0.0000 0.9884
vn -0.7669 -0.4428 0.4646
vn -0.8855 0.0000 0.4646
vn -0.7669 -0.4428 -0.4646
vn -0.8855 0.0000 -0.4645
vn -0.1315 -0.0759 -0.9884
vn -0.1519 0.0000 -0.9884
vn 0.5749 0.3319 -0.7479
vn 0.6638 0.0000 -0.7479
vn 0.5000 0.8660 -0.0000
vn 0.3319 0.5748 0.7479
vn -0.0760 -0.1316 0.9884
vn -0.4428 -0.7669 0.4646
vn -0.4428 -0.7669 -0.4646
vn -0.0759 -0.1315 -0.9884
vn 0.3319 0.5749 -0.7479
vn 0.0000 1.0000 -0.0000
vn 0.0000 0.6638 0.7479
vn -0.0000 -0.1519 0.9884
vn -0.0000 -0.8855 0.4646
vn -0.0000 -0.8855 -0.4646
vn -0.0000 -0.1519 -0.9884
vn 0.0000 0.6638 -0.7479
vn -0.1720 0.9851 -0.0000
vn -0.1380 0.5058 0.8515
vn 0.0760 -0.1316 0.9884
vn 0.4428 -0.7669 0.4646
vn 0.4428 -0.7669 -0.4646
vn 0.0760 -0.1315 -0.9884
vn -0.1380 0.5058 -0.8515
vn -0.8407 0.5416 -0.0000
vn -0.8663 0.4995 -0.0000
vn -0.5741 0.3303 0.7492
vn -0.4137 0.2822 0.8656
vn 0.1316 -0.0760 0.9884
vn 0.1606 -0.1606 0.9739
vn 0.7669 -0.4428 0.4646
vn 0.6397 -0.6397 0.4262
vn 0.7669 -0.4428 -0.4646
vn 0.6397 -0.6397 -0.4262
vn 0.1316 -0.0760 -0.9884
vn 0.1606 -0.1606 -0.9739
vn -0.5741 0.3303 -0.7492
vn -0.4137 0.2822 -0.8656
vn -1.0000 -0.0001 -0.0000
vn -0.6637 -0.0000 0.7480
vn 0.1519 0.0000 0.9884
vn 0.8855 0.0000 0.4646
vn 0.8855 0.0000 -0.4646
vn 0.1519 0.0000 -0.9884
vn -0.6637 -0.0000 -0.7480
vn -0.8660 -0.5000 0.0000
vn -0.5749 -0.3319 0.7479
vn 0.1316 0.0760 0.9884
vn 0.7669 0.4428 0.4646
vn 0.7669 0.4428 -0.4646
vn 0.1315 0.0760 -0.9884
vn -0.5749 -0.3319 -0.7479
vn -0.5000 -0.8660 0.0000
vn -0.3319 -0.5749 0.7479
vn 0.0760 0.1316 0.9884
vn 0.4428 0.7669 0.4646
vn 0.4428 0.7669 -0.4646
vn 0.0760 0.1316 -0.9884
vn -0.3319 -0.5749 -0.7479
vn 0.0000 -1.0000 0.0000
vn 0.0000 -0.6638 0.7479
vn -0.0000 0.1519 0.9884
vn -0.0000 0.8855 0.4646
vn -0.0000 0.8855 -0.4645
vn -0.0000 0.1519 -0.9884
vn 0.0000 -0.6638 -0.7479
vn 0.5000 -0.8660 0.0000
vn 0.3319 -0.5749 0.7479
vn -0.0760 0.1316 0.9884
vn -0.4428 0.7669 0.4646
vn -0.4428 0.7669 -0.4645
vn -0.0760 0.1316 -0.9884
vn 0.3319 -0.5749 -0.7479
vn 0.8660 -0.5000 0.0000
vn 0.5749 -0.3319 0.7479
vn -0.1316 0.0760 0.9884
vn -0.7669 0.4428 0.4646
vn -0.7669 0.4428 -0.4645
vn -0.1316 0.0760 -0.9884
vn 0.5749 -0.3319 -0.7479
vn -0.5231 0.0504 -0.8508
vn -0.9423 -0.3348 0.0000
vn -0.7633 -0.6461 0.0000
vn -0.4147 -0.3598 -0.8358
vn 0.0319 0.4857 0.8736
vn 0.5561 0.8311 -0.0000
vn 0.7481 0.6636 -0.0000
vn 0.4137 0.3608 0.8359
vn 0.0320 0.4857 -0.8736
vn -0.5231 0.0504 0.8508
vn 0.3208 0.4698 -0.8224
vn -0.2987 -0.4083 -0.8626
vn 0.0000 -0.4440 -0.8960
vn 0.0000 0.5938 -0.8046
vn -0.6076 -0.7943 -0.0000
vn 0.4137 0.3608 -0.8359
vn -0.4147 -0.3598 0.8358
vn 0.5502 0.8350 -0.0000
vn -0.2987 -0.4083 0.8626
vn 0.0000 -0.4440 0.8960
vn 0.3208 0.4699 0.8224
vn -0.0000 0.5938 0.8046
vn -1.0000 -0.0000 -0.0000
vn -0.6638 -0.0000 0.7479
vn -0.5749 0.3319 0.7479
vn -0.8660 0.5000 -0.0000
vn 0.8855 0.0000 -0.4645
vn 0.1315 -0.0759 -0.9884
vn -0.6638 0.0000 -0.7479
vn -0.5749 0.3319 -0.7479
vn -0.3319 0.5748 0.7479
vn -0.5000 0.8660 -0.0000
vn 0.0759 -0.1315 -0.9884
vn -0.3319 0.5749 -0.7479
vn 0.1380 0.5058 0.8515
vn 0.1720 0.9851 -0.0000
vn -0.0760 -0.1315 -0.9884
vn 0.1380 0.5058 -0.8515
vn 0.8407 0.5416 -0.0000
vn 0.4137 0.2822 0.8656
vn 0.5741 0.3303 0.7492
vn 0.8663 0.4995 -0.0000
vn -0.1606 -0.1606 0.9739
vn -0.6397 -0.6397 0.4262
vn -0.6397 -0.6397 -0.4262
vn -0.1606 -0.1606 -0.9739
vn -0.1316 -0.0760 -0.9884
vn 0.4137 0.2822 -0.8656
vn 0.5741 0.3303 -0.7492
vn 0.6637 -0.0000 0.7480
vn 1.0000 -0.0001 -0.0000
vn -0.8855 0.0000 -0.4646
vn 0.6637 -0.0000 -0.7480
vn -0.7669 0.4428 -0.4646
vn -0.1315 0.0760 -0.9884
vn -0.4428 0.7669 -0.4646
vn 0.4428 0.7669 -0.4645
vn 0.7669 0.4428 -0.4645
vn 0.1316 0.0760 -0.9884
vn 0.5231 0.0504 -0.8508
vn 0.4147 -0.3598 -0.8358
vn 0.7633 -0.6461 0.0000
vn 0.9423 -0.3348 0.0000
vn -0.0319 0.4857 0.8736
vn -0.4137 0.3608 0.8359
vn -0.7481 0.6636 -0.0000
vn -0.5561 0.8311 -0.0000
vn -0.0320 0.4857 -0.8736
vn 0.5231 0.0504 0.8508
vn -0.3208 0.4698 -0.8224
vn 0.2987 -0.4083 -0.8626
vn 0.6076 -0.7943 -0.0000
vn -0.4137 0.3608 -0.8359
vn 0.4147 -0.3598 0.8358
vn -0.5502 0.8350 -0.0000
vn 0.2987 -0.4083 0.8626
vn -0.3208 0.4699 0.8224
usemtl None.003
s 1
f 1/1/1 2/2/2 3/3/3 4/4/4
f 4/4/4 3/3/3 5/5/5 6/6/6
f 6/6/6 5/5/5 7/7/7 8/8/8
f 8/8/8 7/7/7 9/9/9 10/10/10
f 10/10/10 9/9/9 11/11/11 12/12/12
f 12/12/12 11/11/11 13/13/13 14/14/14
f 14/14/14 13/13/13 2/2/2 1/1/1
f 2/2/2 15/15/15 16/16/16 3/3/3
f 3/3/3 16/16/16 17/17/17 5/5/5
f 5/5/5 17/17/17 18/18/18 7/7/7
f 7/7/7 18/18/18 19/19/19 9/9/9
f 9/9/9 19/19/19 20/20/20 11/11/11
f 11/11/11 20/20/20 21/21/21 13/13/13
f 13/13/13 21/21/21 15/15/15 2/2/2
f 15/15/15 22/22/22 23/23/23 16/16/16
f 16/16/16 23/23/23 24/24/24 17/17/17
f 17/17/17 24/24/24 25/25/25 18/18/18
f 18/18/18 25/25/25 26/26/26 19/19/19
f 19/19/19 26/26/26 27/27/27 20/20/20
f 20/20/20 27/27/27 28/28/28 21/21/21
f 21/21/21 28/28/28 22/22/22 15/15/15
f 22/22/22 29/29/29 30/30/30 23/23/23
f 23/23/23 30/30/30 31/31/31 24/24/24
f 24/24/24 31/31/31 32/32/32 25/25/25
f 25/25/25 32/32/32 33/33/33 26/26/26
f 26/26/26 33/33/33 34/34/34 27/27/27
f 27/27/27 34/34/34 35/35/35 28/28/28
f 28/28/28 35/35/35 29/29/29 22/22/22
f 36/36/36 37/37/37 38/38/38 39/39/39
f 39/39/39 38/38/38 40/40/40 41/41/41
f 41/41/41 40/40/40 42/42/42 43/43/43
f 43/43/43 42/42/42 44/44/44 45/45/45
f 45/45/45 44/44/44 46/46/46 47/47/47
f 47/47/47 46/46/46 48/48/48 49/49/49
f 37/37/37 50/50/50 51/51/51 38/38/38
f 38/38/38 51/51/51 52/52/52 40/40/40
f 40/40/40 52/52/52 53/53/53 42/42/42
f 42/42/42 53/53/53 54/54/54 44/44/44
f 44/44/44 54/54/54 55/55/55 46/46/46
f 46/46/46 55/55/55 56/56/56 48/48/48
f 48/48/48 56/56/56 50/50/50 37/37/37
f 50/50/50 57/57/57 58/58/58 51/51/51
f 51/51/51 58/58/58 59/59/59 52/52/52
f 52/52/52 59/59/59 60/60/60 53/53/53
f 53/53/53 60/60/60 61/61/61 54/54/54
f 54/54/54 61/61/61 62/62/62 55/55/55
f 55/55/55 62/62/62 63/63/63 56/56/56
f 56/56/56 63/63/63 57/57/57 50/50/50
f 57/57/57 64/64/64 65/65/65 58/58/58
f 58/58/58 65/65/65 66/66/66 59/59/59
f 59/59/59 66/66/66 67/67/67 60/60/60
f 60/60/60 67/67/67 68/68/68 61/61/61
f 61/61/61 68/68/68 69/69/69 62/62/62
f 62/62/62 69/69/69 70/70/70 63/63/63
f 63/63/63 70/70/70 64/64/64 57/57/57
f 64/64/64 71/71/71 72/72/72 65/65/65
f 65/65/65 72/72/72 73/73/73 66/66/66
f 66/66/66 73/73/73 74/74/74 67/67/67
f 67/67/67 74/74/74 75/75/75 68/68/68
f 68/68/68 75/75/75 76/76/76 69/69/69
f 69/69/69 76/76/76 77/77/77 70/70/70
f 70/70/70 77/77/77 71/71/71 64/64/64
f 71/71/71 78/78/78 79/79/79 72/72/72
f 72/72/72 79/79/79 80/80/80 73/73/73
f 73/73/73 80/80/80 81/81/81 74/74/74
f 74/74/74 81/81/81 82/82/82 75/75/75
f 75/75/75 82/82/82 83/83/83 76/76/76
f 76/76/76 83/83/83 84/84/84 77/77/77
f 77/77/77 84/84/84 78/78/78 71/71/71
f 78/78/78 85/85/85 86/86/86 79/79/79
f 79/79/79 86/86/86 87/87/87 80/80/80
f 80/80/80 87/87/87 88/88/88 81/81/81
f 81/81/81 88/88/88 89/89/89 82/82/82
f 82/82/82 89/89/89 90/90/90 83/83/83
f 83/83/83 90/90/90 91/91/91 84/84/84
f 84/84/84 91/91/91 85/85/85 78/78/78
f 85/85/85 1/1/1 4/4/4 86/86/86
f 86/86/86 4/4/4 6/6/6 87/87/87
f 87/87/87 6/6/6 8/8/8 88/88/88
f 88/88/88 8/8/8 10/10/10 89/89/89
f 89/89/89 10/10/10 12/12/12 90/90/90
f 90/90/90 12/12/12 14/14/14 91/91/91
f 91/91/91 14/14/14 1/1/1 85/85/85
f 92/92/92 93/93/93 94/94/94 95/95/95
f 34/34/34 47/47/47 49/49/49 35/35/35
f 33/33/33 45/45/45 47/47/47 34/34/34
f 32/32/32 43/43/43 45/45/45 33/33/33
f 31/31/31 41/41/41 43/43/43 32/32/32
f 30/30/30 39/39/39 41/41/41 31/31/31
f 96/96/96 97/97/97 98/98/98 99/99/99
f 100/100/100 97/97/97 29/29/29 35/35/35
f 97/97/97 96/96/96 30/30/30 29/29/29
f 92/92/92 100/100/100 35/35/35 49/49/49
f 96/96/96 101/101/101 39/39/39 30/30/30
f 93/93/93 92/92/92 49/49/49 36/36/36
f 101/101/101 93/93/93 36/36/36 39/39/39
f 102/102/102 103/103/103 104/104/104 105/105/105
f 103/103/103 106/106/106 107/107/71 104/104/104
f 100/100/100 92/92/92 95/95/95 108/108/107
f 97/97/97 100/100/100 108/108/107 98/98/98
f 93/93/93 101/101/101 109/109/108 94/94/94
f 101/101/101 96/96/96 99/99/99 109/109/108
f 110/110/109 102/102/102 105/105/105 111/111/22
f 106/106/106 112/112/110 113/113/111 107/107/71
f 112/112/110 114/114/112 115/115/113 113/113/111
f 114/114/112 110/110/109 111/111/22 115/115/113
f 49/49/49 48/48/48 37/37/37 36/36/36
f 99/99/99 98/98/98 110/110/109 114/114/112
f 109/109/108 99/99/99 114/114/112 112/112/110
f 94/94/94 109/109/108 112/112/110 106/106/106
f 98/98/98 108/108/107 102/102/102 110/110/109
f 95/95/95 94/94/94 106/106/106 103/103/103
f 108/108/107 95/95/95 103/103/103 102/102/102
f 116/116/114 117/117/115 118/118/116 119/119/117
f 117/117/115 120/120/52 121/121/40 118/118/116
f 120/120/52 122/122/53 123/123/42 121/121/40
f 122/122/53 124/124/118 125/125/44 123/123/42
f 124/124/118 126/126/55 127/127/119 125/125/44
f 126/126/55 128/128/120 129/129/121 127/127/119
f 128/128/120 116/116/114 119/119/117 129/129/121
f 119/119/117 118/118/116 130/130/122 131/131/123
f 118/118/116 121/121/40 132/132/31 130/130/122
f 121/121/40 123/123/42 133/133/32 132/132/31
f 123/123/42 125/125/44 134/134/33 133/133/32
f 125/125/44 127/127/119 135/135/124 134/134/33
f 127/127/119 129/129/121 136/136/125 135/135/124
f 129/129/121 119/119/117 131/131/123 136/136/125
f 131/131/123 130/130/122 137/137/23 138/138/22
f 130/130/122 132/132/31 139/139/24 137/137/23
f 132/132/31 133/133/32 140/140/25 139/139/24
f 133/133/32 134/134/33 141/141/26 140/140/25
f 134/134/33 135/135/124 142/142/27 141/141/26
f 135/135/124 136/136/125 143/143/28 142/142/27
f 136/136/125 131/131/123 138/138/22 143/143/28
f 138/138/22 137/137/23 144/144/126 145/145/127
f 137/137/23 139/139/24 146/146/17 144/144/126
f 139/139/24 140/140/25 147/147/18 146/146/17
f 140/140/25 141/141/26 148/148/19 147/147/18
f 141/141/26 142/142/27 149/149/128 148/148/19
f 142/142/27 143/143/28 150/150/129 149/149/128
f 143/143/28 138/138/22 145/145/127 150/150/129
f 151/151/130 152/152/131 153/153/132 154/154/133
f 152/152/131 155/155/134 156/156/5 153/153/132
f 155/155/134 157/157/135 158/158/7 156/156/5
f 157/157/135 159/159/136 160/160/9 158/158/7
f 159/159/136 161/161/137 162/162/138 160/160/9
f 161/161/137 163/163/139 164/164/140 162/162/138
f 154/154/133 153/153/132 165/165/141 166/166/142
f 153/153/132 156/156/5 167/167/6 165/165/141
f 156/156/5 158/158/7 168/168/8 167/167/6
f 158/158/7 160/160/9 169/169/143 168/168/8
f 160/160/9 162/162/138 170/170/12 169/169/143
f 162/162/138 164/164/140 171/171/144 170/170/12
f 164/164/140 154/154/133 166/166/142 171/171/144
f 166/166/142 165/165/141 172/172/86 173/173/85
f 165/165/141 167/167/6 174/174/87 172/172/86
f 167/167/6 168/168/8 175/175/88 174/174/87
f 168/168/8 169/169/143 176/176/145 175/175/88
f 169/169/143 170/170/12 177/177/146 176/176/145
f 170/170/12 171/171/144 178/178/91 177/177/146
f 171/171/144 166/166/142 173/173/85 178/178/91
f 173/173/85 172/172/86 179/179/79 180/180/78
f 172/172/86 174/174/87 181/181/80 179/179/79
f 174/174/87 175/175/88 182/182/81 181/181/80
f 175/175/88 176/176/145 183/183/147 182/182/81
f 176/176/145 177/177/146 184/184/83 183/183/147
f 177/177/146 178/178/91 185/185/84 184/184/83
f 178/178/91 173/173/85 180/180/78 185/185/84
f 180/180/78 179/179/79 186/186/72 187/187/71
f 179/179/79 181/181/80 188/188/73 186/186/72
f 181/181/80 182/182/81 189/189/74 188/188/73
f 182/182/81 183/183/147 190/190/75 189/189/74
f 183/183/147 184/184/83 191/191/76 190/190/75
f 184/184/83 185/185/84 192/192/77 191/191/76
f 185/185/84 180/180/78 187/187/71 192/192/77
f 187/187/71 186/186/72 193/193/65 194/194/64
f 186/186/72 188/188/73 195/195/66 193/193/65
f 188/188/73 189/189/74 196/196/67 195/195/66
f 189/189/74 190/190/75 197/197/148 196/196/67
f 190/190/75 191/191/76 198/198/69 197/197/148
f 191/191/76 192/192/77 199/199/70 198/198/69
f 192/192/77 187/187/71 194/194/64 199/199/70
f 194/194/64 193/193/65 200/200/58 201/201/57
f 193/193/65 195/195/66 202/202/59 200/200/58
f 195/195/66 196/196/67 203/203/60 202/202/59
f 196/196/67 197/197/148 204/204/149 203/203/60
f 197/197/148 198/198/69 205/205/150 204/204/149
f 198/198/69 199/199/70 206/206/63 205/205/150
f 199/199/70 194/194/64 201/201/57 206/206/63
f 201/201/57 200/200/58 117/117/115 116/116/114
f 200/200/58 202/202/59 120/120/52 117/117/115
f 202/202/59 203/203/60 122/122/53 120/120/52
f 203/203/60 204/204/149 124/124/118 122/122/53
f 204/204/149 205/205/150 126/126/55 124/124/118
f 205/205/150 206/206/63 128/128/120 126/126/55
f 206/206/63 201/201/57 116/116/114 128/128/120
f 207/207/151 208/208/152 209/209/153 210/210/154
f 149/149/128 150/150/129 163/163/139 161/161/137
f 148/148/19 149/149/128 161/161/137 159/159/136
f 147/147/18 148/148/19 159/159/136 157/157/135
f 146/146/17 147/147/18 157/157/135 155/155/134
f 144/144/126 146/146/17 155/155/134 152/152/131
f 211/211/155 212/212/156 213/213/157 214/214/158
f 215/215/159 150/150/129 145/145/127 214/214/158
f 214/214/158 145/145/127 144/144/126 211/211/155
f 207/207/151 163/163/139 150/150/129 215/215/159
f 211/211/155 144/144/126 152/152/131 216/216/160
f 210/210/154 151/151/130 163/163/139 207/207/151
f 216/216/160 152/152/131 151/151/130 210/210/154
f 217/217/161 105/105/105 104/104/104 218/218/162
f 218/218/162 104/104/104 107/107/71 219/219/163
f 215/215/159 220/220/164 208/208/152 207/207/151
f 214/214/158 213/213/157 220/220/164 215/215/159
f 210/210/154 209/209/153 221/221/165 216/216/160
f 216/216/160 221/221/165 212/212/156 211/211/155
f 222/222/166 111/111/22 105/105/105 217/217/161
f 219/219/163 107/107/71 113/113/111 223/223/167
f 223/223/167 113/113/111 115/115/113 224/224/168
f 224/224/168 115/115/113 111/111/22 222/222/166
f 163/163/139 151/151/130 154/154/133 164/164/140
f 212/212/156 224/224/168 222/222/166 213/213/157
f 221/221/165 223/223/167 224/224/168 212/212/156
f 209/209/153 219/219/163 223/223/167 221/221/165
f 213/213/157 222/222/166 217/217/161 220/220/164
f 208/208/152 218/218/162 219/219/163 209/209/153
f 220/220/164 217/217/161 218/218/162 208/208/152
