# Blender v2.79 (sub 0) OBJ File: 'mod_Kommode_Flur.blend'
# www.blender.org
g mod_Kommode_Flur
v -0.042363 1.450244 1.100000
v -0.042363 1.500244 1.100000
v -0.042363 1.450244 -1.100000
v -0.042363 1.500244 -1.100000
v 0.957637 1.450244 1.100000
v 0.957637 1.500244 1.100000
v 0.957637 1.450244 -1.100000
v 0.957637 1.500244 -1.100000
v 0.913281 1.240473 0.520370
v 0.946016 1.240473 0.561803
v 0.913281 1.240473 0.603236
v 0.913281 1.199040 0.561803
v 0.913281 1.281906 0.561803
v 0.913281 1.209399 0.530728
v 0.913281 1.271548 0.530728
v 0.934848 1.240473 0.534842
v 0.934848 1.213512 0.561803
v 0.934848 1.267434 0.561803
v 0.934848 1.240473 0.588764
v 0.913281 1.209399 0.592877
v 0.913281 1.271548 0.592877
v 0.926161 1.220502 0.581774
v 0.926161 1.260444 0.581774
v 0.926161 1.220502 0.541832
v 0.926161 1.260444 0.541832
v 0.913281 1.240473 -0.546056
v 0.946016 1.240473 -0.504623
v 0.913281 1.240473 -0.463191
v 0.913281 1.199040 -0.504623
v 0.913281 1.281906 -0.504623
v 0.913281 1.209399 -0.535698
v 0.913281 1.271548 -0.535698
v 0.934848 1.240473 -0.531585
v 0.934848 1.213512 -0.504623
v 0.934848 1.267434 -0.504623
v 0.934848 1.240473 -0.477662
v 0.913281 1.209399 -0.473549
v 0.913281 1.271548 -0.473549
v 0.926161 1.220502 -0.484652
v 0.926161 1.260444 -0.484652
v 0.926161 1.220502 -0.524595
v 0.926161 1.260444 -0.524595
v 0.913281 0.770328 0.520370
v 0.946016 0.770328 0.561803
v 0.913281 0.770328 0.603236
v 0.913281 0.728895 0.561803
v 0.913281 0.811761 0.561803
v 0.913281 0.739254 0.530728
v 0.913281 0.801403 0.530728
v 0.934848 0.770328 0.534842
v 0.934848 0.743367 0.561803
v 0.934848 0.797289 0.561803
v 0.934848 0.770328 0.588764
v 0.913281 0.739254 0.592877
v 0.913281 0.801403 0.592877
v 0.926161 0.750357 0.581774
v 0.926161 0.790299 0.581774
v 0.926161 0.750357 0.541832
v 0.926161 0.790299 0.541832
v 0.913281 0.770328 -0.546056
v 0.946016 0.770328 -0.504623
v 0.913281 0.770328 -0.463191
v 0.913281 0.728895 -0.504623
v 0.913281 0.811761 -0.504623
v 0.913281 0.739254 -0.535698
v 0.913281 0.801403 -0.535698
v 0.934848 0.770328 -0.531585
v 0.934848 0.743367 -0.504623
v 0.934848 0.797289 -0.504623
v 0.934848 0.770328 -0.477662
v 0.913281 0.739254 -0.473549
v 0.913281 0.801403 -0.473549
v 0.926161 0.750357 -0.484652
v 0.926161 0.790299 -0.484652
v 0.926161 0.750357 -0.524595
v 0.926161 0.790299 -0.524595
v 0.913281 0.300183 0.520370
v 0.946016 0.300183 0.561803
v 0.913281 0.300183 0.603236
v 0.913281 0.258750 0.561803
v 0.913281 0.341616 0.561803
v 0.913281 0.269109 0.530728
v 0.913281 0.331258 0.530728
v 0.934848 0.300183 0.534842
v 0.934848 0.273222 0.561803
v 0.934848 0.327144 0.561803
v 0.934848 0.300183 0.588764
v 0.913281 0.269109 0.592877
v 0.913281 0.331258 0.592877
v 0.926161 0.280212 0.581774
v 0.926161 0.320154 0.581774
v 0.926161 0.280212 0.541832
v 0.926161 0.320154 0.541832
v 0.913281 0.300183 -0.546056
v 0.946016 0.300183 -0.504623
v 0.913281 0.300183 -0.463191
v 0.913281 0.258750 -0.504623
v 0.913281 0.341616 -0.504623
v 0.913281 0.269109 -0.535698
v 0.913281 0.331258 -0.535698
v 0.934848 0.300183 -0.531585
v 0.934848 0.273222 -0.504623
v 0.934848 0.327144 -0.504623
v 0.934848 0.300183 -0.477662
v 0.913281 0.269109 -0.473549
v 0.913281 0.331258 -0.473549
v 0.926161 0.280212 -0.484652
v 0.926161 0.320154 -0.484652
v 0.926161 0.280212 -0.524595
v 0.926161 0.320154 -0.524595
v 0.070000 0.097378 1.065442
v 0.845274 0.097378 1.065442
v 0.070000 1.455813 1.065442
v 0.845274 1.455813 1.065442
v 0.070000 0.097378 -1.065442
v 0.845274 0.097378 -1.065442
v 0.070000 1.455813 -1.065442
v 0.845274 1.455813 -1.065442
v 0.548195 1.047569 0.027144
v 0.548195 1.476370 0.027144
v 0.548195 1.047569 -0.032856
v 0.548195 1.476370 -0.032856
v 0.896131 1.047569 0.027144
v 0.896131 1.476370 0.027144
v 0.896131 1.047569 -0.032856
v 0.896131 1.476370 -0.032856
v 0.026181 0.147378 1.017259
v 0.026181 0.147378 -1.017259
v 0.900278 0.097378 1.017259
v 0.900278 0.147378 1.017259
v 0.900278 0.097378 -1.017259
v 0.900278 0.147378 -1.017259
v 0.026181 0.590342 1.017259
v 0.026181 0.590342 -1.017259
v 0.900278 0.540342 1.017259
v 0.900278 0.590342 1.017259
v 0.900278 0.540342 -1.017259
v 0.900278 0.590342 -1.017259
v 0.026181 1.050343 1.017259
v 0.026181 1.050343 -1.017259
v 0.900278 1.000342 1.017259
v 0.900278 1.050343 1.017259
v 0.900278 1.000342 -1.017259
v 0.900278 1.050343 -1.017259
v 0.888300 1.023522 0.006121
v 0.888300 1.454332 1.017259
v 0.888300 1.454332 0.006121
v 0.888300 1.023522 1.017259
v 0.911791 1.023522 1.017259
v 0.911791 1.023522 0.006121
v 0.911791 1.454332 0.006121
v 0.911791 1.454332 1.017259
v 0.888300 1.023522 -1.037879
v 0.888300 1.454332 -0.026741
v 0.888300 1.454332 -1.037879
v 0.888300 1.023522 -0.026741
v 0.911791 1.023522 -0.026741
v 0.911791 1.023522 -1.037879
v 0.911791 1.454332 -1.037879
v 0.911791 1.454332 -0.026741
v 0.887550 0.584332 -1.017259
v 0.887550 1.015141 1.017259
v 0.887550 1.015141 -1.017259
v 0.887550 0.584332 1.017259
v 0.911041 0.584332 1.017259
v 0.911041 0.584332 -1.017259
v 0.911041 1.015141 -1.017259
v 0.911041 1.015141 1.017259
v 0.887550 0.124332 -1.017259
v 0.887550 0.555142 1.017259
v 0.887550 0.555142 -1.017259
v 0.887550 0.124332 1.017259
v 0.911041 0.124332 1.017259
v 0.911041 0.124332 -1.017259
v 0.911041 0.555142 -1.017259
v 0.911041 0.555142 1.017259
v 0.845274 0.000000 1.073443
v 0.845274 1.461966 1.073443
v 0.845274 0.000000 1.003443
v 0.845274 1.461966 1.003443
v 0.915274 0.000000 1.073443
v 0.915274 1.461966 1.073443
v 0.915274 0.000000 1.003443
v 0.915274 1.461966 1.003443
v 0.070000 0.000000 1.073443
v 0.070000 1.461966 1.073443
v 0.070000 0.000000 1.003443
v 0.070000 1.461966 1.003443
v 0.000000 0.000000 1.073443
v 0.000000 1.461966 1.073443
v 0.000000 0.000000 1.003443
v 0.000000 1.461966 1.003443
v 0.845274 0.000000 -1.073443
v 0.845274 1.461966 -1.073443
v 0.845274 0.000000 -1.003443
v 0.845274 1.461966 -1.003443
v 0.915274 0.000000 -1.073443
v 0.915274 1.461966 -1.073443
v 0.915274 0.000000 -1.003443
v 0.915274 1.461966 -1.003443
v 0.070000 0.000000 -1.073443
v 0.070000 1.461966 -1.073443
v 0.070000 0.000000 -1.003443
v 0.070000 1.461966 -1.003443
v 0.000000 0.000000 -1.073443
v 0.000000 1.461966 -1.073443
v 0.000000 0.000000 -1.003443
v 0.000000 1.461966 -1.003443
vn 0.0000 0.0000 -1.0000
vn 1.0000 0.0000 0.0000
vn 0.0000 0.0000 1.0000
vn 0.0000 1.0000 0.0000
vn 0.0000 -1.0000 0.0000
vn -1.0000 0.0000 0.0000
vn 0.6695 0.0000 -0.7427
vn 0.6493 0.5378 -0.5378
vn 0.7083 0.4991 -0.4991
vn 0.7953 0.0000 -0.6062
vn 0.7083 -0.4991 -0.4991
vn 0.6493 -0.5378 -0.5378
vn 0.7953 -0.6062 0.0000
vn 0.7953 0.6062 0.0000
vn 0.7083 0.4991 0.4991
vn 0.7953 0.0000 0.6062
vn 0.7083 -0.4991 0.4991
vn 0.6695 0.0000 0.7427
vn 0.6493 -0.5378 0.5378
vn 0.6493 0.5378 0.5378
vn 0.6695 -0.7427 0.0000
vn 0.6695 0.7427 0.0000
s off
f 3//1 4//1 8//1 7//1
f 7//2 8//2 6//2 5//2
f 5//3 6//3 2//3 1//3
f 8//4 4//4 2//4 6//4
f 111//3 112//3 114//3 113//3
f 115//1 117//1 118//1 116//1
f 121//1 122//1 126//1 125//1
f 125//2 126//2 124//2 123//2
f 123//3 124//3 120//3 119//3
f 131//2 132//2 130//2 129//2
f 132//4 128//4 127//4 130//4
f 137//2 138//2 136//2 135//2
f 138//4 134//4 133//4 136//4
f 143//2 144//2 142//2 141//2
f 144//4 140//4 139//4 142//4
f 150//1 145//1 147//1 151//1
f 150//2 151//2 152//2 149//2
f 149//5 148//5 145//5 150//5
f 152//3 146//3 148//3 149//3
f 151//4 147//4 146//4 152//4
f 158//1 153//1 155//1 159//1
f 158//2 159//2 160//2 157//2
f 157//5 156//5 153//5 158//5
f 160//3 154//3 156//3 157//3
f 159//4 155//4 154//4 160//4
f 166//1 161//1 163//1 167//1
f 166//2 167//2 168//2 165//2
f 165//5 164//5 161//5 166//5
f 168//3 162//3 164//3 165//3
f 167//4 163//4 162//4 168//4
f 174//1 169//1 171//1 175//1
f 174//2 175//2 176//2 173//2
f 173//5 172//5 169//5 174//5
f 176//3 170//3 172//3 173//3
f 175//4 171//4 170//4 176//4
f 179//1 180//1 184//1 183//1
f 183//2 184//2 182//2 181//2
f 181//3 182//3 178//3 177//3
f 207//6 191//6 192//6 208//6
f 189//3 185//3 186//3 190//3
f 185//2 187//2 188//2 186//2
f 195//3 199//3 200//3 196//3
f 199//2 197//2 198//2 200//2
f 197//1 193//1 194//1 198//1
f 205//1 206//1 202//1 201//1
f 201//2 202//2 204//2 203//2
f 207//6 208//6 206//6 205//6
f 1//6 2//6 4//6 3//6
f 191//6 189//6 190//6 192//6
f 177//6 178//6 180//6 179//6
f 193//6 195//6 196//6 194//6
s 1
f 9//7 15//8 25//9 16//10
f 9//7 16//10 24//11 14//12
f 10//2 17//13 24//11 16//10
f 10//2 16//10 25//9 18//14
f 10//2 18//14 23//15 19//16
f 10//2 19//16 22//17 17//13
f 11//18 20//19 22//17 19//16
f 11//18 19//16 23//15 21//20
f 12//21 14//12 24//11 17//13
f 12//21 17//13 22//17 20//19
f 13//22 18//14 25//9 15//8
f 13//22 21//20 23//15 18//14
f 26//7 32//8 42//9 33//10
f 26//7 33//10 41//11 31//12
f 27//2 34//13 41//11 33//10
f 27//2 33//10 42//9 35//14
f 27//2 35//14 40//15 36//16
f 27//2 36//16 39//17 34//13
f 28//18 37//19 39//17 36//16
f 28//18 36//16 40//15 38//20
f 29//21 31//12 41//11 34//13
f 29//21 34//13 39//17 37//19
f 30//22 35//14 42//9 32//8
f 30//22 38//20 40//15 35//14
f 43//7 49//8 59//9 50//10
f 43//7 50//10 58//11 48//12
f 44//2 51//13 58//11 50//10
f 44//2 50//10 59//9 52//14
f 44//2 52//14 57//15 53//16
f 44//2 53//16 56//17 51//13
f 45//18 54//19 56//17 53//16
f 45//18 53//16 57//15 55//20
f 46//21 48//12 58//11 51//13
f 46//21 51//13 56//17 54//19
f 47//22 52//14 59//9 49//8
f 47//22 55//20 57//15 52//14
f 60//7 66//8 76//9 67//10
f 60//7 67//10 75//11 65//12
f 61//2 68//13 75//11 67//10
f 61//2 67//10 76//9 69//14
f 61//2 69//14 74//15 70//16
f 61//2 70//16 73//17 68//13
f 62//18 71//19 73//17 70//16
f 62//18 70//16 74//15 72//20
f 63//21 65//12 75//11 68//13
f 63//21 68//13 73//17 71//19
f 64//22 69//14 76//9 66//8
f 64//22 72//20 74//15 69//14
f 77//7 83//8 93//9 84//10
f 77//7 84//10 92//11 82//12
f 78//2 85//13 92//11 84//10
f 78//2 84//10 93//9 86//14
f 78//2 86//14 91//15 87//16
f 78//2 87//16 90//17 85//13
f 79//18 88//19 90//17 87//16
f 79//18 87//16 91//15 89//20
f 80//21 82//12 92//11 85//13
f 80//21 85//13 90//17 88//19
f 81//22 86//14 93//9 83//8
f 81//22 89//20 91//15 86//14
f 94//7 100//8 110//9 101//10
f 94//7 101//10 109//11 99//12
f 95//2 102//13 109//11 101//10
f 95//2 101//10 110//9 103//14
f 95//2 103//14 108//15 104//16
f 95//2 104//16 107//17 102//13
f 96//18 105//19 107//17 104//16
f 96//18 104//16 108//15 106//20
f 97//21 99//12 109//11 102//13
f 97//21 102//13 107//17 105//19
f 98//22 103//14 110//9 100//8
f 98//22 106//20 108//15 103//14
