# Blender v2.79 (sub 0) OBJ File: 'mod_Schraenkchen_Flur.blend'
# www.blender.org
mtllib mod_Schraenkchen_Flur.mtl
g mod_Schraenkchen_Flur
v 0.115457 0.449032 0.210000
v 0.115457 0.749032 0.210000
v 0.115457 0.449032 -0.210000
v 0.115457 0.749032 -0.210000
v 0.535457 0.449032 0.210000
v 0.535457 0.749032 0.210000
v 0.535457 0.449032 -0.210000
v 0.535457 0.749032 -0.210000
v 0.535457 0.500368 0.176959
v 0.535457 0.500368 -0.174401
v 0.535457 0.585816 -0.174401
v 0.535457 0.585816 0.176959
v 0.545891 0.500368 0.176959
v 0.545891 0.500368 -0.174401
v 0.545891 0.585816 -0.174401
v 0.545891 0.585816 0.176959
v 0.535457 0.625195 0.176959
v 0.535457 0.625195 0.008566
v 0.535457 0.701434 0.008566
v 0.535457 0.701434 0.176959
v 0.545891 0.625195 0.176959
v 0.545891 0.625195 0.008566
v 0.545891 0.701434 0.008566
v 0.545891 0.701434 0.176959
v 0.535457 0.625195 -0.006008
v 0.535457 0.625195 -0.174401
v 0.535457 0.701434 -0.174401
v 0.535457 0.701434 -0.006008
v 0.545891 0.625195 -0.006008
v 0.545891 0.625195 -0.174401
v 0.545891 0.701434 -0.174401
v 0.545891 0.701434 -0.006008
v 0.545891 0.663315 0.078310
v 0.562258 0.663315 0.092762
v 0.545891 0.663315 0.107215
v 0.545891 0.648862 0.092762
v 0.545891 0.677767 0.092762
v 0.545891 0.652475 0.081923
v 0.545891 0.674154 0.081923
v 0.556674 0.663315 0.083358
v 0.556674 0.653910 0.092762
v 0.556674 0.672719 0.092762
v 0.556674 0.663315 0.102167
v 0.545891 0.652475 0.103602
v 0.545891 0.674154 0.103602
v 0.552331 0.656348 0.099729
v 0.552331 0.670281 0.099729
v 0.552331 0.656348 0.085796
v 0.552331 0.670281 0.085796
v 0.545891 0.663315 -0.101122
v 0.562258 0.663315 -0.086670
v 0.545891 0.663315 -0.072217
v 0.545891 0.648862 -0.086670
v 0.545891 0.677767 -0.086670
v 0.545891 0.652475 -0.097509
v 0.545891 0.674154 -0.097509
v 0.556674 0.663315 -0.096074
v 0.556674 0.653910 -0.086670
v 0.556674 0.672719 -0.086670
v 0.556674 0.663315 -0.077265
v 0.545891 0.652475 -0.075830
v 0.545891 0.674154 -0.075830
v 0.552331 0.656348 -0.079703
v 0.552331 0.670281 -0.079703
v 0.552331 0.656348 -0.093636
v 0.552331 0.670281 -0.093636
v 0.545891 0.538164 0.123235
v 0.562258 0.538164 0.137688
v 0.545891 0.538164 0.152141
v 0.545891 0.523711 0.137688
v 0.545891 0.552617 0.137688
v 0.545891 0.527324 0.126848
v 0.545891 0.549004 0.126848
v 0.556674 0.538164 0.128283
v 0.556674 0.528759 0.137688
v 0.556674 0.547569 0.137688
v 0.556674 0.538164 0.147093
v 0.545891 0.527324 0.148528
v 0.545891 0.549004 0.148528
v 0.552331 0.531198 0.144655
v 0.552331 0.545131 0.144655
v 0.552331 0.531198 0.130722
v 0.552331 0.545131 0.130722
v 0.545891 0.538164 -0.151527
v 0.562258 0.538164 -0.137074
v 0.545891 0.538164 -0.122621
v 0.545891 0.523711 -0.137074
v 0.545891 0.552617 -0.137074
v 0.545891 0.527324 -0.147914
v 0.545891 0.549004 -0.147914
v 0.556674 0.538164 -0.146479
v 0.556674 0.528759 -0.137074
v 0.556674 0.547569 -0.137074
v 0.556674 0.538164 -0.127669
v 0.545891 0.527324 -0.126234
v 0.545891 0.549004 -0.126234
v 0.552331 0.531198 -0.130107
v 0.552331 0.545131 -0.130107
v 0.552331 0.531198 -0.144040
v 0.552331 0.545131 -0.144040
v 0.100457 0.743720 0.225000
v 0.105356 0.761808 0.220101
v 0.100457 0.743720 -0.225000
v 0.105356 0.761808 -0.220101
v 0.550457 0.743720 0.225000
v 0.545558 0.761808 0.220101
v 0.550457 0.743720 -0.225000
v 0.545558 0.761808 -0.220101
v 0.100457 0.454344 0.225000
v 0.105356 0.436256 0.220101
v 0.100457 0.454344 -0.225000
v 0.105356 0.436256 -0.220101
v 0.550457 0.454344 0.225000
v 0.545558 0.436256 0.220101
v 0.550457 0.454344 -0.225000
v 0.545558 0.436256 -0.220101
v 0.520059 0.000000 0.217893
v 0.510971 0.442691 0.213038
v 0.517626 0.069191 0.175227
v 0.538458 0.000000 0.205033
v 0.537022 0.442691 0.194830
v 0.530069 0.000527 0.193030
v 0.518772 0.442691 0.168719
v 0.511669 0.000527 0.205889
v 0.492721 0.442691 0.186926
v 0.512117 0.069191 0.206529
v 0.530516 0.069191 0.193669
v 0.499227 0.069191 0.188087
v 0.507087 0.257563 0.201449
v 0.513191 0.257563 0.166766
v 0.527473 0.257563 0.187200
v 0.492805 0.257563 0.181015
v 0.130855 -0.000000 0.217893
v 0.139943 0.442691 0.213038
v 0.133288 0.069191 0.175227
v 0.112456 -0.000000 0.205033
v 0.113892 0.442691 0.194830
v 0.120846 0.000527 0.193030
v 0.132142 0.442691 0.168719
v 0.139245 0.000527 0.205889
v 0.158193 0.442691 0.186926
v 0.138798 0.069191 0.206529
v 0.120398 0.069191 0.193669
v 0.151687 0.069191 0.188087
v 0.143827 0.257563 0.201449
v 0.137723 0.257563 0.166766
v 0.123441 0.257563 0.187200
v 0.158109 0.257563 0.181015
v 0.520059 0.000000 -0.217893
v 0.510971 0.442691 -0.213038
v 0.517626 0.069191 -0.175227
v 0.538458 0.000000 -0.205033
v 0.537022 0.442691 -0.194830
v 0.530069 0.000527 -0.193030
v 0.518772 0.442691 -0.168719
v 0.511669 0.000527 -0.205889
v 0.492721 0.442691 -0.186926
v 0.512117 0.069191 -0.206529
v 0.530516 0.069191 -0.193669
v 0.499227 0.069191 -0.188087
v 0.507087 0.257563 -0.201449
v 0.513191 0.257563 -0.166766
v 0.527473 0.257563 -0.187200
v 0.492805 0.257563 -0.181015
v 0.130855 -0.000000 -0.217893
v 0.139943 0.442691 -0.213038
v 0.133288 0.069191 -0.175227
v 0.112456 -0.000000 -0.205033
v 0.113892 0.442691 -0.194830
v 0.120846 0.000527 -0.193030
v 0.132142 0.442691 -0.168719
v 0.139245 0.000527 -0.205889
v 0.158193 0.442691 -0.186926
v 0.138798 0.069191 -0.206529
v 0.120398 0.069191 -0.193669
v 0.151687 0.069191 -0.188087
v 0.143827 0.257563 -0.201449
v 0.137723 0.257563 -0.166766
v 0.123441 0.257563 -0.187200
v 0.158109 0.257563 -0.181015
v 0.519883 0.437609 0.185799
v 0.519883 0.376530 0.185799
v 0.519883 0.437609 0.051396
v 0.519883 0.420832 0.051396
v 0.505844 0.437609 0.189803
v 0.505844 0.376530 0.189803
v 0.371440 0.437609 0.189803
v 0.371440 0.420832 0.189803
v 0.519883 0.437609 0.108597
v 0.519883 0.404395 0.108597
v 0.428642 0.437609 0.189803
v 0.428642 0.404395 0.189803
v 0.466597 0.437609 0.189803
v 0.466597 0.378499 0.189803
v 0.519883 0.437609 0.147198
v 0.519883 0.378364 0.147198
v 0.131032 0.437609 0.185799
v 0.131032 0.376530 0.185799
v 0.131032 0.437609 0.051396
v 0.131032 0.420832 0.051396
v 0.145071 0.437609 0.189803
v 0.145071 0.376530 0.189803
v 0.279475 0.437609 0.189803
v 0.279475 0.420832 0.189803
v 0.131032 0.437609 0.108597
v 0.131032 0.404395 0.108597
v 0.222273 0.437609 0.189803
v 0.222273 0.404395 0.189803
v 0.184317 0.437609 0.189803
v 0.184317 0.378499 0.189803
v 0.131032 0.437609 0.147198
v 0.131032 0.378364 0.147198
v 0.519883 0.437609 -0.185799
v 0.519883 0.376530 -0.185799
v 0.519883 0.437609 -0.051396
v 0.519883 0.420832 -0.051396
v 0.505844 0.437609 -0.189803
v 0.505844 0.376530 -0.189803
v 0.371440 0.437609 -0.189803
v 0.371440 0.420832 -0.189803
v 0.519883 0.437609 -0.108597
v 0.519883 0.404395 -0.108597
v 0.428642 0.437609 -0.189803
v 0.428642 0.404395 -0.189803
v 0.466597 0.437609 -0.189803
v 0.466597 0.378499 -0.189803
v 0.519883 0.437609 -0.147198
v 0.519883 0.378364 -0.147198
v 0.131032 0.437609 -0.185799
v 0.131032 0.376530 -0.185799
v 0.131032 0.437609 -0.051396
v 0.131032 0.420832 -0.051396
v 0.145071 0.437609 -0.189803
v 0.145071 0.376530 -0.189803
v 0.279475 0.437609 -0.189803
v 0.279475 0.420832 -0.189803
v 0.131032 0.437609 -0.108597
v 0.131032 0.404395 -0.108597
v 0.222273 0.437609 -0.189803
v 0.222273 0.404395 -0.189803
v 0.184317 0.437609 -0.189803
v 0.184317 0.378499 -0.189803
v 0.131032 0.437609 -0.147198
v 0.131032 0.378364 -0.147198
vn 0.0000 0.0000 -1.0000
vn 0.0000 0.0000 1.0000
vn 0.0000 -1.0000 0.0000
vn 1.0000 0.0000 0.0000
vn -1.0000 0.0000 0.0000
vn 0.0000 1.0000 0.0000
vn 0.5324 0.0000 -0.8465
vn 0.5117 0.6075 -0.6075
vn 0.5714 0.5803 -0.5803
vn 0.7001 0.0000 -0.7140
vn 0.5714 -0.5803 -0.5803
vn 0.5117 -0.6075 -0.6075
vn 0.7001 -0.7140 0.0000
vn 0.7001 0.7140 -0.0000
vn 0.5714 0.5803 0.5803
vn 0.7001 0.0000 0.7140
vn 0.5714 -0.5803 0.5803
vn 0.5324 0.0000 0.8465
vn 0.5117 -0.6075 0.6075
vn 0.5117 0.6075 0.6075
vn 0.5324 -0.8465 0.0000
vn 0.5324 0.8465 -0.0000
vn -0.9652 0.2614 0.0000
vn 0.0000 0.2614 -0.9652
vn 0.9652 0.2614 0.0000
vn 0.0000 0.2614 0.9652
vn -0.9652 -0.2614 0.0000
vn 0.0000 -0.2614 -0.9652
vn 0.9652 -0.2614 0.0000
vn 0.0000 -0.2614 0.9652
vn -0.5462 -0.3016 -0.7815
vn -0.5638 -0.1771 -0.8067
vn 0.5728 -0.0133 0.8196
vn 0.5717 -0.0632 0.8180
vn -0.8196 0.0000 0.5729
vn -0.8196 -0.0030 0.5729
vn -0.8196 -0.0036 0.5729
vn 0.8196 -0.0126 -0.5728
vn 0.8195 -0.0187 -0.5728
vn -0.8196 -0.0126 0.5728
vn -0.8195 -0.0187 0.5728
vn -0.5728 -0.0119 -0.8196
vn -0.5727 0.0259 -0.8194
vn 0.8196 0.0000 -0.5729
vn 0.8196 -0.0036 -0.5729
vn 0.8196 -0.0030 -0.5729
vn 0.5617 0.1965 0.8037
vn 0.5689 0.1171 0.8140
vn 0.5462 -0.3016 -0.7815
vn 0.5638 -0.1771 -0.8067
vn -0.5728 -0.0133 0.8196
vn -0.5717 -0.0632 0.8180
vn 0.8196 0.0000 0.5729
vn 0.8196 -0.0036 0.5729
vn 0.8196 -0.0030 0.5729
vn -0.8196 -0.0126 -0.5728
vn -0.8195 -0.0187 -0.5728
vn 0.8196 -0.0126 0.5728
vn 0.8195 -0.0187 0.5728
vn 0.5728 -0.0119 -0.8196
vn 0.5727 0.0259 -0.8194
vn -0.8196 -0.0000 -0.5729
vn -0.8196 -0.0030 -0.5729
vn -0.8196 -0.0036 -0.5729
vn -0.5617 0.1965 0.8037
vn -0.5689 0.1171 0.8140
vn -0.5462 -0.3016 0.7815
vn -0.5638 -0.1771 0.8067
vn 0.5728 -0.0133 -0.8196
vn 0.5717 -0.0632 -0.8180
vn -0.5728 -0.0119 0.8196
vn -0.5727 0.0259 0.8194
vn 0.5617 0.1965 -0.8037
vn 0.5689 0.1171 -0.8140
vn 0.5462 -0.3016 0.7815
vn 0.5638 -0.1771 0.8067
vn -0.5728 -0.0133 -0.8196
vn -0.5717 -0.0632 -0.8180
vn 0.5728 -0.0119 0.8196
vn 0.5727 0.0259 0.8194
vn -0.5617 0.1965 -0.8037
vn -0.5689 0.1171 -0.8140
usemtl None
s 1
f 3//1 4//1 8//1 7//1
f 5//2 6//2 2//2 1//2
f 7//3 5//3 1//3 3//3
f 8//4 6//4 5//4 7//4
f 2//5 4//5 3//5 1//5
f 10//1 11//1 15//1 14//1
f 14//4 15//4 16//4 13//4
f 12//2 9//2 13//2 16//2
f 11//6 12//6 16//6 15//6
f 9//3 10//3 14//3 13//3
f 18//1 19//1 23//1 22//1
f 22//4 23//4 24//4 21//4
f 20//2 17//2 21//2 24//2
f 19//6 20//6 24//6 23//6
f 17//3 18//3 22//3 21//3
f 26//1 27//1 31//1 30//1
f 30//4 31//4 32//4 29//4
f 28//2 25//2 29//2 32//2
f 27//6 28//6 32//6 31//6
f 25//3 26//3 30//3 29//3
f 33//7 39//8 49//9 40//10
f 33//7 40//10 48//11 38//12
f 34//4 41//13 48//11 40//10
f 34//4 40//10 49//9 42//14
f 34//4 42//14 47//15 43//16
f 34//4 43//16 46//17 41//13
f 35//18 44//19 46//17 43//16
f 35//18 43//16 47//15 45//20
f 36//21 38//12 48//11 41//13
f 36//21 41//13 46//17 44//19
f 37//22 42//14 49//9 39//8
f 37//22 45//20 47//15 42//14
f 50//7 56//8 66//9 57//10
f 50//7 57//10 65//11 55//12
f 51//4 58//13 65//11 57//10
f 51//4 57//10 66//9 59//14
f 51//4 59//14 64//15 60//16
f 51//4 60//16 63//17 58//13
f 52//18 61//19 63//17 60//16
f 52//18 60//16 64//15 62//20
f 53//21 55//12 65//11 58//13
f 53//21 58//13 63//17 61//19
f 54//22 59//14 66//9 56//8
f 54//22 62//20 64//15 59//14
f 67//7 73//8 83//9 74//10
f 67//7 74//10 82//11 72//12
f 68//4 75//13 82//11 74//10
f 68//4 74//10 83//9 76//14
f 68//4 76//14 81//15 77//16
f 68//4 77//16 80//17 75//13
f 69//18 78//19 80//17 77//16
f 69//18 77//16 81//15 79//20
f 70//21 72//12 82//11 75//13
f 70//21 75//13 80//17 78//19
f 71//22 76//14 83//9 73//8
f 71//22 79//20 81//15 76//14
f 84//7 90//8 100//9 91//10
f 84//7 91//10 99//11 89//12
f 85//4 92//13 99//11 91//10
f 85//4 91//10 100//9 93//14
f 85//4 93//14 98//15 94//16
f 85//4 94//16 97//17 92//13
f 86//18 95//19 97//17 94//16
f 86//18 94//16 98//15 96//20
f 87//21 89//12 99//11 92//13
f 87//21 92//13 97//17 95//19
f 88//22 93//14 100//9 90//8
f 88//22 96//20 98//15 93//14
f 101//23 102//23 104//23 103//23
f 103//24 104//24 108//24 107//24
f 107//25 108//25 106//25 105//25
f 105//26 106//26 102//26 101//26
f 103//3 107//3 105//3 101//3
f 108//6 104//6 102//6 106//6
f 109//27 111//27 112//27 110//27
f 111//28 115//28 116//28 112//28
f 115//29 113//29 114//29 116//29
f 113//30 109//30 110//30 114//30
f 111//6 109//6 113//6 115//6
f 116//3 114//3 110//3 112//3
f 124//31 128//32 119//32 122//31
f 131//33 121//34 118//34 129//33
f 117//35 126//36 128//37 124//35
f 130//38 123//39 121//39 131//38
f 129//40 118//41 125//41 132//40
f 132//42 125//43 123//43 130//42
f 122//44 119//45 127//46 120//44
f 120//47 127//48 126//48 117//47
f 128//32 132//42 130//42 119//32
f 126//36 129//40 132//40 128//37
f 119//45 130//38 131//38 127//46
f 127//48 131//33 129//33 126//48
f 140//49 138//49 135//50 144//50
f 147//51 145//51 134//52 137//52
f 133//53 140//53 144//54 142//55
f 146//56 147//56 137//57 139//57
f 145//58 148//58 141//59 134//59
f 148//60 146//60 139//61 141//61
f 138//62 136//62 143//63 135//64
f 136//65 133//65 142//66 143//66
f 144//50 135//50 146//60 148//60
f 142//55 144//54 148//58 145//58
f 135//64 143//63 147//56 146//56
f 143//66 142//66 145//51 147//51
f 156//67 154//67 151//68 160//68
f 163//69 161//69 150//70 153//70
f 149//62 156//62 160//64 158//63
f 162//58 163//58 153//59 155//59
f 161//56 164//56 157//57 150//57
f 164//71 162//71 155//72 157//72
f 154//53 152//53 159//55 151//54
f 152//73 149//73 158//74 159//74
f 160//68 151//68 162//71 164//71
f 158//63 160//64 164//56 161//56
f 151//54 159//55 163//58 162//58
f 159//74 158//74 161//69 163//69
f 172//75 176//76 167//76 170//75
f 179//77 169//78 166//78 177//77
f 165//44 174//46 176//45 172//44
f 178//40 171//41 169//41 179//40
f 177//38 166//39 173//39 180//38
f 180//79 173//80 171//80 178//79
f 170//35 167//37 175//36 168//35
f 168//81 175//82 174//82 165//81
f 176//76 180//79 178//79 167//76
f 174//46 177//38 180//38 176//45
f 167//37 178//40 179//40 175//36
f 175//82 179//77 177//77 174//82
f 189//4 190//4 184//4 183//4
f 191//2 187//2 188//2 192//2
f 195//4 196//4 190//4 189//4
f 193//2 191//2 192//2 194//2
f 185//2 193//2 194//2 186//2
f 181//4 182//4 196//4 195//4
f 205//5 199//5 200//5 206//5
f 207//2 208//2 204//2 203//2
f 211//5 205//5 206//5 212//5
f 209//2 210//2 208//2 207//2
f 201//2 202//2 210//2 209//2
f 197//5 211//5 212//5 198//5
f 221//4 215//4 216//4 222//4
f 223//1 224//1 220//1 219//1
f 227//4 221//4 222//4 228//4
f 225//1 226//1 224//1 223//1
f 217//1 218//1 226//1 225//1
f 213//4 227//4 228//4 214//4
f 237//5 238//5 232//5 231//5
f 239//1 235//1 236//1 240//1
f 243//5 244//5 238//5 237//5
f 241//1 239//1 240//1 242//1
f 233//1 241//1 242//1 234//1
f 229//5 230//5 244//5 243//5
