# Blender v2.79 (sub 0) OBJ File: 'mod_Wand_T-Form_Endstueck.blend'
# www.blender.org
g Wand_T_Endstueck
v -0.150000 6.000000 1.000000
v 0.150000 6.000000 1.000000
v -0.150000 0.120000 1.000000
v 0.150000 0.120000 1.000000
v -0.184000 0.000000 1.000000
v 0.184000 0.000000 1.000000
v 0.184000 0.100000 1.000000
v 0.170000 0.114000 1.000000
v -0.170000 0.114000 1.000000
v -0.184000 0.100000 1.000000
v -0.150000 6.000000 0.150000
v -0.184000 0.000000 0.150000
v -0.150000 0.120000 0.150000
v 0.184000 0.000000 0.184000
v 0.170000 0.114000 0.170796
v 0.184000 0.100000 0.184000
v -0.170000 0.114000 0.150000
v -0.184000 0.100000 0.150000
v -0.170000 0.114000 -0.150000
v 0.150000 0.120000 -0.150000
v -0.184000 0.100000 -0.150000
v 0.150000 6.000000 -0.150000
v 0.150000 6.000000 0.150000
v 0.150000 0.120000 0.150000
v 1.000000 0.114000 0.170000
v 1.000000 0.100000 0.184000
v 1.000000 0.000000 0.184000
v 1.000000 0.000000 -0.184000
v 1.000000 6.000000 -0.150000
v 1.000000 0.120000 0.150000
v 1.000000 0.114000 -0.170000
v 1.000000 0.100000 -0.184000
v 1.000000 0.120000 -0.150000
v -0.184000 0.000000 -0.150000
v -0.150000 6.000000 -0.150000
v -0.150000 0.120000 -0.150000
v 1.000000 6.000000 0.150000
v 0.184000 0.000000 -1.000000
v -0.184000 0.000000 -1.000000
v -0.170000 0.114000 -1.000000
v -0.184000 0.100000 -1.000000
v 0.150000 6.000000 -1.000000
v 0.150000 0.120000 -1.000000
v -0.150000 6.000000 -1.000000
v -0.150000 0.120000 -1.000000
v 0.170000 0.114000 -1.000000
v 0.184000 0.100000 -1.000000
v 0.184000 0.000000 -0.184000
v 0.170000 0.114000 -0.170796
v 0.184000 0.100000 -0.184000
vt 0.261448 0.867860
vt 0.261448 0.747101
vt 0.281987 0.747101
vt 0.281987 0.867860
vt 0.080252 0.550349
vt 0.080249 0.980703
vt 0.010340 0.980703
vt 0.010343 0.550348
vt 0.080252 0.980686
vt 0.010343 0.550332
vt 0.010343 0.980686
vt 0.080252 0.550332
vt 0.080252 0.980686
vt 0.010344 0.980686
vt 0.010344 0.550332
vt 0.010344 0.547411
vt 0.078541 0.547410
vt 0.077455 0.535716
vt 0.077455 0.544300
vt 0.010344 0.544300
vt 0.010344 0.535716
vt 0.174946 0.547365
vt 0.105039 0.547365
vt 0.105039 0.544300
vt 0.174946 0.544301
vt 0.174946 0.535716
vt 0.105039 0.535716
vt 0.174946 0.550332
vt 0.105039 0.550332
vt 0.174946 0.980687
vt 0.105038 0.980687
vt 0.080365 0.547365
vt 0.080365 0.544300
vt 0.078607 0.547365
vt 0.010343 0.547428
vt 0.010343 0.550349
vt 0.010343 0.547427
vt 0.078607 0.547365
vt 0.010341 0.535733
vt 0.010343 0.544317
vt 0.010343 0.547410
vt 0.078541 0.547410
vt 0.080365 0.980687
vt 0.080365 0.550332
vt 0.080365 0.535716
vt 0.077455 0.544301
vt 0.010343 0.544317
vt 0.010457 0.547365
vt 0.010457 0.544300
vt 0.077453 0.535716
vt 0.010341 0.535733
vt 0.010457 0.550332
vt 0.010340 0.980703
vt 0.080248 0.980704
vt 0.010457 0.535716
vt 0.010457 0.980687
vt 0.010343 0.535716
vt 0.010343 0.544300
vn -1.0000 0.0000 0.0000
vn 0.0000 0.0000 -1.0000
vn 1.0000 0.0000 0.0000
vn 0.1433 0.9786 0.1474
vn 0.2873 0.9578 0.0000
vn 0.5128 0.8585 0.0000
vn 0.2237 0.9503 0.2167
vn 0.8970 0.4421 0.0000
vn 0.9239 0.3827 0.0000
vn -0.5128 0.8585 0.0000
vn -0.9239 0.3827 0.0000
vn -0.2873 0.9578 0.0000
vn 0.0002 0.8563 0.5165
vn 0.0001 0.9594 0.2821
vn 0.1433 0.9786 -0.1474
vn 0.0001 0.9594 -0.2821
vn 0.0002 0.8563 -0.5165
vn 0.2237 0.9503 -0.2167
vn 0.0002 0.4378 0.8991
vn 0.0000 0.0000 1.0000
vn 0.0002 0.3761 0.9266
vn 0.0002 0.4378 -0.8991
vn 0.0002 0.3761 -0.9266
s off
f 22/1/1 20/2/1 24/3/1 23/4/1
f 20/5/2 22/6/2 29/7/2 33/8/2
f 22/9/3 20/5/3 43/10/3 42/11/3
s 1
f 24/12/3 23/13/3 2/14/3 4/15/3
f 24/12/4 4/15/5 8/16/6 15/17/7
f 14/18/3 16/19/8 7/20/9 6/21/3
f 15/17/7 8/16/6 7/20/9 16/19/8
f 9/22/10 17/23/10 18/24/11 10/25/11
f 5/26/1 10/25/11 18/24/11 12/27/1
f 3/28/12 13/29/12 17/23/10 9/22/10
f 3/28/1 1/30/1 11/31/1 13/29/1
f 17/23/10 19/32/10 21/33/11 18/24/11
f 24/12/4 15/34/7 25/35/13 30/36/14
f 20/5/15 33/8/16 31/37/17 49/38/18
f 16/19/19 14/18/20 27/39/20 26/40/21
f 46/41/6 43/10/5 20/5/15 49/42/18
f 15/34/7 16/19/19 26/40/21 25/35/13
f 13/29/1 11/31/1 35/43/1 36/44/1
f 12/27/1 18/24/11 21/33/11 34/45/1
f 36/44/12 19/32/10 17/23/10 13/29/12
f 50/46/22 49/38/18 31/37/17 32/47/23
f 21/33/11 19/32/10 40/48/10 41/49/11
f 48/50/2 50/46/22 32/47/23 28/51/2
f 19/32/10 36/44/12 45/52/12 40/48/10
f 24/12/20 30/36/20 37/53/20 23/54/20
f 34/45/1 21/33/11 41/49/11 39/55/1
f 36/44/1 35/43/1 44/56/1 45/52/1
f 48/50/3 38/57/3 47/58/9 50/46/8
f 49/42/18 50/46/8 47/58/9 46/41/6
