# Blender v2.79 (sub 0) OBJ File: 'mod_Kiste_3.blend'
# www.blender.org
g Kiste_3
v 0.000000 0.000000 0.000000
v 0.000000 1.800000 0.000000
v 0.000000 0.000000 -0.100000
v 0.000000 1.800000 -0.100000
v 0.100000 0.000000 0.000000
v 0.100000 1.800000 0.000000
v 0.100000 0.000000 -0.100000
v 0.100000 1.800000 -0.100000
v 1.000000 0.000000 0.000000
v 1.000000 1.800000 0.000000
v 1.000000 0.000000 -0.100000
v 1.000000 1.800000 -0.100000
v 0.900000 0.000000 0.000000
v 0.900000 1.800000 0.000000
v 0.900000 0.000000 -0.100000
v 0.900000 1.800000 -0.100000
v 0.000000 0.000000 -1.200000
v 0.000000 1.800000 -1.200000
v 0.000000 0.000000 -1.100000
v 0.000000 1.800000 -1.100000
v 0.100000 0.000000 -1.200000
v 0.100000 1.800000 -1.200000
v 0.100000 0.000000 -1.100000
v 0.100000 1.800000 -1.100000
v 1.000000 0.000000 -1.200000
v 1.000000 1.800000 -1.200000
v 1.000000 0.000000 -1.100000
v 1.000000 1.800000 -1.100000
v 0.900000 0.000000 -1.200000
v 0.900000 1.800000 -1.200000
v 0.900000 0.000000 -1.100000
v 0.900000 1.800000 -1.100000
v 0.000000 1.541462 0.010341
v 1.000000 1.541462 0.010341
v 0.000000 1.781462 0.010341
v 1.000000 1.781462 0.010341
v 0.000000 1.541462 0.000141
v 1.000000 1.541462 0.000141
v 0.000000 1.781462 0.000141
v 1.000000 1.781462 0.000141
v 0.000000 1.181462 0.010341
v 1.000000 1.181462 0.010341
v 0.000000 1.421462 0.010341
v 1.000000 1.421462 0.010341
v 0.000000 1.181462 0.000141
v 1.000000 1.181462 0.000141
v 0.000000 1.421462 0.000141
v 1.000000 1.421462 0.000141
v 0.000000 0.821462 0.010341
v 1.000000 0.821462 0.010341
v 0.000000 1.061462 0.010341
v 1.000000 1.061462 0.010341
v 0.000000 0.821462 0.000141
v 1.000000 0.821462 0.000141
v 0.000000 1.061462 0.000141
v 1.000000 1.061462 0.000141
v 0.000000 0.461462 0.010341
v 1.000000 0.461462 0.010341
v 0.000000 0.701462 0.010341
v 1.000000 0.701462 0.010341
v 0.000000 0.461462 0.000141
v 1.000000 0.461462 0.000141
v 0.000000 0.701462 0.000141
v 1.000000 0.701462 0.000141
v 0.000000 0.101462 0.010341
v 1.000000 0.101462 0.010341
v 0.000000 0.341462 0.010341
v 1.000000 0.341462 0.010341
v 0.000000 0.101462 0.000141
v 1.000000 0.101462 0.000141
v 0.000000 0.341462 0.000141
v 1.000000 0.341462 0.000141
v 0.000000 1.541462 -1.210341
v 1.000000 1.541462 -1.210341
v 0.000000 1.781462 -1.210341
v 1.000000 1.781462 -1.210341
v 0.000000 1.541462 -1.200141
v 1.000000 1.541462 -1.200141
v 0.000000 1.781462 -1.200141
v 1.000000 1.781462 -1.200141
v 0.000000 1.181462 -1.210340
v 1.000000 1.181462 -1.210340
v 0.000000 1.421462 -1.210341
v 1.000000 1.421462 -1.210341
v 0.000000 1.181462 -1.200141
v 1.000000 1.181462 -1.200141
v 0.000000 1.421462 -1.200141
v 1.000000 1.421462 -1.200141
v 0.000000 0.821463 -1.210340
v 1.000000 0.821463 -1.210340
v 0.000000 1.061462 -1.210340
v 1.000000 1.061462 -1.210340
v 0.000000 0.821463 -1.200140
v 1.000000 0.821463 -1.200140
v 0.000000 1.061462 -1.200141
v 1.000000 1.061462 -1.200141
v 0.000000 0.461463 -1.210340
v 1.000000 0.461463 -1.210340
v 0.000000 0.701463 -1.210341
v 1.000000 0.701463 -1.210341
v 0.000000 0.461463 -1.200141
v 1.000000 0.461463 -1.200141
v 0.000000 0.701463 -1.200141
v 1.000000 0.701463 -1.200141
v 0.000000 0.101463 -1.210340
v 1.000000 0.101463 -1.210340
v 0.000000 0.341463 -1.210340
v 1.000000 0.341463 -1.210340
v 0.000000 0.101463 -1.200140
v 1.000000 0.101463 -1.200140
v 0.000000 0.341463 -1.200141
v 1.000000 0.341463 -1.200141
v 1.010719 1.781462 0.000000
v 1.010719 1.541462 0.000000
v 1.010719 1.781462 -1.200000
v 1.010719 1.541462 -1.200000
v 0.983113 1.781462 0.000000
v 0.983113 1.541462 0.000000
v 0.983113 1.781462 -1.200000
v 0.983113 1.541462 -1.200000
v 1.010719 1.421462 0.000000
v 1.010719 1.181462 0.000000
v 1.010719 1.421462 -1.200000
v 1.010719 1.181462 -1.200000
v 0.983113 1.421462 0.000000
v 0.983113 1.181462 0.000000
v 0.983113 1.421462 -1.200000
v 0.983113 1.181462 -1.200000
v 1.010719 1.061462 0.000000
v 1.010719 0.821462 0.000000
v 1.010719 1.061462 -1.200000
v 1.010719 0.821462 -1.200000
v 0.983113 1.061462 0.000000
v 0.983113 0.821462 0.000000
v 0.983113 1.061462 -1.200000
v 0.983113 0.821462 -1.200000
v 1.010719 0.701462 0.000000
v 1.010719 0.461462 0.000000
v 1.010719 0.701462 -1.200000
v 1.010719 0.461462 -1.200000
v 0.983113 0.701462 0.000000
v 0.983113 0.461462 0.000000
v 0.983113 0.701462 -1.200000
v 0.983113 0.461462 -1.200000
v 1.010719 0.341462 0.000000
v 1.010719 0.101462 0.000000
v 1.010719 0.341462 -1.200000
v 1.010719 0.101462 -1.200000
v 0.983113 0.341462 0.000000
v 0.983113 0.101462 0.000000
v 0.983113 0.341462 -1.200000
v 0.983113 0.101462 -1.200000
v -0.010720 1.781462 0.000000
v -0.010720 1.541462 0.000000
v -0.010719 1.781462 -1.200000
v -0.010719 1.541462 -1.200000
v 0.016887 1.781462 0.000000
v 0.016887 1.541462 0.000000
v 0.016887 1.781462 -1.200000
v 0.016887 1.541462 -1.200000
v -0.010720 1.421462 0.000000
v -0.010720 1.181462 0.000000
v -0.010719 1.421462 -1.200000
v -0.010719 1.181462 -1.200000
v 0.016887 1.421462 0.000000
v 0.016887 1.181462 0.000000
v 0.016887 1.421462 -1.200000
v 0.016887 1.181462 -1.200000
v -0.010720 1.061462 0.000000
v -0.010720 0.821462 0.000000
v -0.010719 1.061462 -1.200000
v -0.010719 0.821462 -1.200000
v 0.016887 1.061462 0.000000
v 0.016887 0.821462 0.000000
v 0.016887 1.061462 -1.200000
v 0.016887 0.821462 -1.200000
v -0.010720 0.701462 0.000000
v -0.010720 0.461462 0.000000
v -0.010719 0.701462 -1.200000
v -0.010719 0.461462 -1.200000
v 0.016887 0.701462 0.000000
v 0.016887 0.461462 0.000000
v 0.016887 0.701462 -1.200000
v 0.016887 0.461462 -1.200000
v -0.010720 0.341462 0.000000
v -0.010720 0.101462 0.000000
v -0.010719 0.341462 -1.200000
v -0.010719 0.101462 -1.200000
v 0.016887 0.341462 0.000000
v 0.016887 0.101462 0.000000
v 0.016887 0.341462 -1.200000
v 0.016887 0.101462 -1.200000
vn -1.0000 0.0000 0.0000
vn 0.0000 0.0000 -1.0000
vn 1.0000 0.0000 0.0000
vn 0.0000 0.0000 1.0000
vn 0.0000 -1.0000 0.0000
vn 0.0000 1.0000 0.0000
s off
f 1//1 2//1 4//1 3//1
f 3//2 4//2 8//2 7//2
f 7//3 8//3 6//3 5//3
f 5//4 6//4 2//4 1//4
f 3//5 7//5 5//5 1//5
f 8//6 4//6 2//6 6//6
f 9//3 11//3 12//3 10//3
f 11//2 15//2 16//2 12//2
f 15//1 13//1 14//1 16//1
f 13//4 9//4 10//4 14//4
f 11//5 9//5 13//5 15//5
f 16//6 14//6 10//6 12//6
f 17//1 19//1 20//1 18//1
f 19//4 23//4 24//4 20//4
f 23//3 21//3 22//3 24//3
f 21//2 17//2 18//2 22//2
f 19//5 17//5 21//5 23//5
f 24//6 22//6 18//6 20//6
f 25//3 26//3 28//3 27//3
f 27//4 28//4 32//4 31//4
f 31//1 32//1 30//1 29//1
f 29//2 30//2 26//2 25//2
f 27//5 31//5 29//5 25//5
f 32//6 28//6 26//6 30//6
f 33//4 34//4 36//4 35//4
f 37//2 39//2 40//2 38//2
f 33//1 35//1 39//1 37//1
f 34//5 33//5 37//5 38//5
f 36//3 34//3 38//3 40//3
f 35//6 36//6 40//6 39//6
f 41//4 42//4 44//4 43//4
f 45//2 47//2 48//2 46//2
f 41//1 43//1 47//1 45//1
f 42//5 41//5 45//5 46//5
f 44//3 42//3 46//3 48//3
f 43//6 44//6 48//6 47//6
f 49//4 50//4 52//4 51//4
f 53//2 55//2 56//2 54//2
f 49//1 51//1 55//1 53//1
f 50//5 49//5 53//5 54//5
f 52//3 50//3 54//3 56//3
f 51//6 52//6 56//6 55//6
f 57//4 58//4 60//4 59//4
f 61//2 63//2 64//2 62//2
f 57//1 59//1 63//1 61//1
f 58//5 57//5 61//5 62//5
f 60//3 58//3 62//3 64//3
f 59//6 60//6 64//6 63//6
f 65//4 66//4 68//4 67//4
f 69//2 71//2 72//2 70//2
f 65//1 67//1 71//1 69//1
f 66//5 65//5 69//5 70//5
f 68//3 66//3 70//3 72//3
f 67//6 68//6 72//6 71//6
f 73//2 75//2 76//2 74//2
f 77//4 78//4 80//4 79//4
f 73//1 77//1 79//1 75//1
f 74//5 78//5 77//5 73//5
f 76//3 80//3 78//3 74//3
f 75//6 79//6 80//6 76//6
f 81//2 83//2 84//2 82//2
f 85//4 86//4 88//4 87//4
f 81//1 85//1 87//1 83//1
f 82//5 86//5 85//5 81//5
f 84//3 88//3 86//3 82//3
f 83//6 87//6 88//6 84//6
f 89//2 91//2 92//2 90//2
f 93//4 94//4 96//4 95//4
f 89//1 93//1 95//1 91//1
f 90//5 94//5 93//5 89//5
f 92//3 96//3 94//3 90//3
f 91//6 95//6 96//6 92//6
f 97//2 99//2 100//2 98//2
f 101//4 102//4 104//4 103//4
f 97//1 101//1 103//1 99//1
f 98//5 102//5 101//5 97//5
f 100//3 104//3 102//3 98//3
f 99//6 103//6 104//6 100//6
f 105//2 107//2 108//2 106//2
f 109//4 110//4 112//4 111//4
f 105//1 109//1 111//1 107//1
f 106//5 110//5 109//5 105//5
f 108//3 112//3 110//3 106//3
f 107//6 111//6 112//6 108//6
f 113//3 114//3 116//3 115//3
f 117//1 119//1 120//1 118//1
f 113//6 115//6 119//6 117//6
f 114//4 113//4 117//4 118//4
f 116//5 114//5 118//5 120//5
f 115//2 116//2 120//2 119//2
f 121//3 122//3 124//3 123//3
f 125//1 127//1 128//1 126//1
f 121//6 123//6 127//6 125//6
f 122//4 121//4 125//4 126//4
f 124//5 122//5 126//5 128//5
f 123//2 124//2 128//2 127//2
f 129//3 130//3 132//3 131//3
f 133//1 135//1 136//1 134//1
f 129//6 131//6 135//6 133//6
f 130//4 129//4 133//4 134//4
f 132//5 130//5 134//5 136//5
f 131//2 132//2 136//2 135//2
f 137//3 138//3 140//3 139//3
f 141//1 143//1 144//1 142//1
f 137//6 139//6 143//6 141//6
f 138//4 137//4 141//4 142//4
f 140//5 138//5 142//5 144//5
f 139//2 140//2 144//2 143//2
f 145//3 146//3 148//3 147//3
f 149//1 151//1 152//1 150//1
f 145//6 147//6 151//6 149//6
f 146//4 145//4 149//4 150//4
f 148//5 146//5 150//5 152//5
f 147//2 148//2 152//2 151//2
f 153//1 155//1 156//1 154//1
f 157//3 158//3 160//3 159//3
f 153//6 157//6 159//6 155//6
f 154//4 158//4 157//4 153//4
f 156//5 160//5 158//5 154//5
f 155//2 159//2 160//2 156//2
f 161//1 163//1 164//1 162//1
f 165//3 166//3 168//3 167//3
f 161//6 165//6 167//6 163//6
f 162//4 166//4 165//4 161//4
f 164//5 168//5 166//5 162//5
f 163//2 167//2 168//2 164//2
f 169//1 171//1 172//1 170//1
f 173//3 174//3 176//3 175//3
f 169//6 173//6 175//6 171//6
f 170//4 174//4 173//4 169//4
f 172//5 176//5 174//5 170//5
f 171//2 175//2 176//2 172//2
f 177//1 179//1 180//1 178//1
f 181//3 182//3 184//3 183//3
f 177//6 181//6 183//6 179//6
f 178//4 182//4 181//4 177//4
f 180//5 184//5 182//5 178//5
f 179//2 183//2 184//2 180//2
f 185//1 187//1 188//1 186//1
f 189//3 190//3 192//3 191//3
f 185//6 189//6 191//6 187//6
f 186//4 190//4 189//4 185//4
f 188//5 192//5 190//5 186//5
f 187//2 191//2 192//2 188//2
