# Blender v2.79 (sub 0) OBJ File: 'mod_Karton_offen.blend'
# www.blender.org
g Karton_offen
v 0.000000 0.000000 0.000000
v 0.000000 1.000000 0.000000
v 0.000000 0.000000 -1.000000
v 0.000000 1.000000 -1.000000
v 1.000000 0.000000 0.000000
v 1.000000 1.000000 0.000000
v 1.000000 0.000000 -1.000000
v 1.000000 1.000000 -1.000000
v 1.000000 0.634453 -1.300000
v 1.300000 0.634453 -1.000000
v 0.000000 0.634453 -1.300000
v 1.300000 0.634453 0.000000
v 1.000000 0.634453 0.300000
v 0.000000 0.634453 0.300000
v -0.300000 0.634453 0.000000
v -0.300000 0.634453 -1.000000
v 0.003850 1.021522 -0.003850
v 0.003850 1.021522 -0.996150
v 0.996150 1.021522 -0.003850
v 0.996150 1.021522 -0.996150
v 1.000000 0.648537 -1.317161
v 1.317161 0.648537 -1.000000
v 0.000000 0.648537 -1.317161
v 1.317161 0.648537 0.000000
v 1.000000 0.648537 0.317161
v 0.000000 0.648537 0.317161
v -0.317161 0.648537 0.000000
v -0.317161 0.648537 -1.000000
v 0.032165 0.032401 -0.967835
v 0.032165 0.032401 -0.032165
v 0.027642 1.021945 -0.027642
v 0.027642 1.021945 -0.972358
v 0.972358 1.021945 -0.972358
v 0.967835 0.032401 -0.967835
v 0.967835 0.032401 -0.032165
v 0.972358 1.021945 -0.027642
vn -1.0000 0.0000 0.0000
vn 0.0000 -0.6344 -0.7730
vn 1.0000 0.0000 0.0000
vn 0.0000 0.0000 -1.0000
vn 0.0000 0.0000 1.0000
vn -0.7730 -0.6344 0.0000
vn 0.0000 -0.6344 0.7730
vn 0.7730 -0.6344 0.0000
vn 0.0000 -1.0000 0.0000
vn 0.0000 0.6523 0.7579
vn 0.0000 0.9998 -0.0178
vn -0.0178 0.9998 0.0000
vn 0.0000 0.9998 0.0178
vn 0.7579 0.6523 0.0000
vn 0.0000 0.6523 -0.7579
vn -0.7579 0.6523 0.0000
vn 0.0178 0.9998 0.0000
vn 0.0000 -0.7730 -0.6344
vn -0.9935 0.0760 0.0842
vn 0.9935 0.0760 0.0842
vn 0.0000 -0.7730 0.6344
vn 0.6344 -0.7730 0.0000
vn -0.9935 0.0760 -0.0842
vn 0.9935 0.0760 -0.0842
vn 0.0842 0.0760 -0.9935
vn 0.0842 0.0760 0.9935
vn -0.6344 -0.7730 0.0000
vn -0.0842 0.0760 -0.9935
vn -0.0842 0.0760 0.9935
vn 1.0000 0.0046 0.0000
vn -1.0000 0.0046 0.0000
vn -0.0000 0.0046 1.0000
vn 0.0000 0.0046 -1.0000
vn 0.0000 1.0000 0.0000
s off
f 1//1 2//1 4//1 3//1
f 2//2 6//2 13//2 14//2
f 7//3 8//3 6//3 5//3
f 3//4 4//4 8//4 7//4
f 5//5 6//5 2//5 1//5
f 10//6 12//6 6//6 8//6
f 8//7 4//7 11//7 9//7
f 4//8 2//8 15//8 16//8
f 3//9 7//9 5//9 1//9
f 17//10 26//10 25//10 19//10
f 20//11 18//11 32//11 33//11
f 18//12 17//12 31//12 32//12
f 17//13 19//13 36//13 31//13
f 22//14 20//14 19//14 24//14
f 20//15 21//15 23//15 18//15
f 18//16 28//16 27//16 17//16
f 19//17 20//17 33//17 36//17
f 9//18 11//18 23//18 21//18
f 2//19 14//19 26//19 17//19
f 13//20 6//20 19//20 25//20
f 14//21 13//21 25//21 26//21
f 12//22 10//22 22//22 24//22
f 11//23 4//23 18//23 23//23
f 8//24 9//24 21//24 20//24
f 10//25 8//25 20//25 22//25
f 6//26 12//26 24//26 19//26
f 16//27 15//27 27//27 28//27
f 4//28 16//28 28//28 18//28
f 15//29 2//29 17//29 27//29
f 30//30 29//30 32//30 31//30
f 34//31 35//31 36//31 33//31
f 29//32 34//32 33//32 32//32
f 35//33 30//33 31//33 36//33
f 29//34 30//34 35//34 34//34
