# Blender v2.79 (sub 0) OBJ File: 'mod_Jackenschrank_Eingangshalle.blend'
# www.blender.org
mtllib mod_Jackenschrank_Eingangshalle.mtl
g mod_Jackenschrank_Eingangshalle
v 0.022968 1.089220 0.723466
v 0.002968 1.089220 0.723466
v 0.022968 1.089220 -0.723466
v 0.002968 1.089220 -0.723466
v 0.022968 1.553203 0.723466
v 0.002968 1.553203 0.723466
v 0.022968 1.553203 -0.723466
v 0.002968 1.553203 -0.723466
v 0.045066 1.185774 0.602498
v 0.044780 1.224365 0.602144
v 0.059058 1.170975 0.598096
v 0.031308 1.170447 0.598343
v 0.045066 1.180894 0.594358
v 0.059058 1.173781 0.572952
v 0.031308 1.173223 0.572856
v 0.045066 1.183784 0.574889
v 0.045066 1.185774 0.627264
v 0.044780 1.224365 0.627618
v 0.059058 1.170975 0.631667
v 0.031308 1.170447 0.631420
v 0.045066 1.180894 0.635404
v 0.031826 1.179559 0.614881
v 0.031917 1.224365 0.614881
v 0.058546 1.179820 0.614881
v 0.058705 1.224365 0.614881
v 0.059058 1.173781 0.656811
v 0.031308 1.173223 0.656906
v 0.045066 1.183784 0.654873
v 0.045066 1.185774 0.202498
v 0.044780 1.224365 0.202144
v 0.059058 1.170975 0.198096
v 0.031308 1.170447 0.198343
v 0.045066 1.180894 0.194358
v 0.059058 1.173781 0.172952
v 0.031308 1.173223 0.172856
v 0.045066 1.183784 0.174889
v 0.045066 1.185774 0.227264
v 0.044780 1.224365 0.227618
v 0.059058 1.170975 0.231667
v 0.031308 1.170447 0.231420
v 0.045066 1.180894 0.235404
v 0.031826 1.179559 0.214881
v 0.031917 1.224365 0.214881
v 0.058546 1.179820 0.214881
v 0.058705 1.224365 0.214881
v 0.059058 1.173781 0.256811
v 0.031308 1.173223 0.256906
v 0.045066 1.183784 0.254873
v 0.045066 1.185774 -0.197502
v 0.044780 1.224365 -0.197856
v 0.059058 1.170975 -0.201904
v 0.031308 1.170447 -0.201657
v 0.045066 1.180894 -0.205642
v 0.059058 1.173781 -0.227048
v 0.031308 1.173223 -0.227144
v 0.045066 1.183784 -0.225111
v 0.045066 1.185774 -0.172736
v 0.044780 1.224365 -0.172382
v 0.059058 1.170975 -0.168333
v 0.031308 1.170447 -0.168580
v 0.045066 1.180894 -0.164596
v 0.031826 1.179559 -0.185119
v 0.031917 1.224365 -0.185119
v 0.058546 1.179820 -0.185119
v 0.058705 1.224365 -0.185119
v 0.059058 1.173781 -0.143189
v 0.031308 1.173223 -0.143094
v 0.045066 1.183784 -0.145127
v 0.045066 1.185774 -0.597502
v 0.044780 1.224365 -0.597856
v 0.059058 1.170975 -0.601904
v 0.031308 1.170447 -0.601657
v 0.045066 1.180894 -0.605642
v 0.059058 1.173781 -0.627048
v 0.031308 1.173223 -0.627144
v 0.045066 1.183784 -0.625111
v 0.045066 1.185774 -0.572736
v 0.044780 1.224365 -0.572382
v 0.059058 1.170975 -0.568333
v 0.031308 1.170447 -0.568580
v 0.045066 1.180894 -0.564596
v 0.031826 1.179559 -0.585119
v 0.031917 1.224365 -0.585119
v 0.058546 1.179820 -0.585119
v 0.058705 1.224365 -0.585119
v 0.059058 1.173781 -0.543189
v 0.031308 1.173223 -0.543094
v 0.045066 1.183784 -0.545126
v 0.045066 1.131969 0.403758
v 0.044780 1.170560 0.403404
v 0.059058 1.117169 0.399355
v 0.031308 1.116641 0.399602
v 0.045066 1.127088 0.395618
v 0.059058 1.119976 0.374211
v 0.031308 1.119417 0.374116
v 0.045066 1.129979 0.376148
v 0.045066 1.131969 0.428524
v 0.044780 1.170560 0.428878
v 0.059058 1.117169 0.432926
v 0.031308 1.116641 0.432679
v 0.045066 1.127088 0.436664
v 0.031826 1.125753 0.416141
v 0.031917 1.170560 0.416141
v 0.058546 1.126014 0.416141
v 0.058705 1.170560 0.416141
v 0.059058 1.119976 0.458070
v 0.031308 1.119417 0.458166
v 0.045066 1.129979 0.456133
v 0.045066 1.131969 -0.008624
v 0.044780 1.170560 -0.008978
v 0.059058 1.117169 -0.013027
v 0.031308 1.116641 -0.012780
v 0.045066 1.127088 -0.016764
v 0.059058 1.119976 -0.038171
v 0.031308 1.119417 -0.038266
v 0.045066 1.129979 -0.036233
v 0.045066 1.131969 0.016142
v 0.044780 1.170560 0.016496
v 0.059058 1.117169 0.020545
v 0.031308 1.116641 0.020298
v 0.045066 1.127088 0.024282
v 0.031826 1.125753 0.003759
v 0.031917 1.170560 0.003759
v 0.058546 1.126014 0.003759
v 0.058705 1.170560 0.003759
v 0.059058 1.119976 0.045689
v 0.031308 1.119417 0.045784
v 0.045066 1.129979 0.043751
v 0.045066 1.131969 -0.421006
v 0.044780 1.170560 -0.421360
v 0.059058 1.117169 -0.425408
v 0.031308 1.116641 -0.425161
v 0.045066 1.127088 -0.429146
v 0.059058 1.119976 -0.450552
v 0.031308 1.119417 -0.450648
v 0.045066 1.129979 -0.448615
v 0.045066 1.131969 -0.396240
v 0.044780 1.170560 -0.395886
v 0.059058 1.117169 -0.391837
v 0.031308 1.116641 -0.392084
v 0.045066 1.127088 -0.388100
v 0.031826 1.125753 -0.408623
v 0.031917 1.170560 -0.408623
v 0.058546 1.126014 -0.408623
v 0.058705 1.170560 -0.408623
v 0.059058 1.119976 -0.366693
v 0.031308 1.119417 -0.366598
v 0.045066 1.129979 -0.368630
v 0.029982 1.454847 0.701814
v 0.029982 1.454847 0.681814
v 0.029982 1.295049 0.701814
v 0.029982 1.295049 0.681814
v 0.389161 1.328218 0.701814
v 0.389161 1.328218 0.681814
v 0.389161 1.295049 0.701814
v 0.389161 1.295049 0.681814
v 0.029982 1.454847 0.501814
v 0.029982 1.454847 0.481814
v 0.029982 1.295049 0.501814
v 0.029982 1.295049 0.481814
v 0.389161 1.328218 0.501814
v 0.389161 1.328218 0.481814
v 0.389161 1.295049 0.501814
v 0.389161 1.295049 0.481814
v 0.029982 1.454847 0.301814
v 0.029982 1.454847 0.281814
v 0.029982 1.295049 0.301814
v 0.029982 1.295049 0.281814
v 0.389161 1.328218 0.301814
v 0.389161 1.328218 0.281814
v 0.389161 1.295049 0.301814
v 0.389161 1.295049 0.281814
v 0.029982 1.454847 0.101814
v 0.029982 1.454847 0.081814
v 0.029982 1.295049 0.101814
v 0.029982 1.295049 0.081814
v 0.389161 1.328218 0.101814
v 0.389161 1.328218 0.081814
v 0.389161 1.295049 0.101814
v 0.389161 1.295049 0.081814
v 0.029982 1.454847 -0.098186
v 0.029982 1.454847 -0.118186
v 0.029982 1.295049 -0.098186
v 0.029982 1.295049 -0.118186
v 0.389161 1.328218 -0.098186
v 0.389161 1.328218 -0.118186
v 0.389161 1.295049 -0.098186
v 0.389161 1.295049 -0.118186
v 0.029982 1.454847 -0.298186
v 0.029982 1.454847 -0.318186
v 0.029982 1.295049 -0.298186
v 0.029982 1.295049 -0.318186
v 0.389161 1.328218 -0.298186
v 0.389161 1.328218 -0.318186
v 0.389161 1.295049 -0.298186
v 0.389161 1.295049 -0.318186
v 0.029982 1.454847 -0.498186
v 0.029982 1.454847 -0.518186
v 0.029982 1.295049 -0.498186
v 0.029982 1.295049 -0.518186
v 0.389161 1.328218 -0.498186
v 0.389161 1.328218 -0.518186
v 0.389161 1.295049 -0.498186
v 0.389161 1.295049 -0.518186
v 0.029982 1.454847 -0.698187
v 0.029982 1.454847 -0.718186
v 0.029982 1.295049 -0.698187
v 0.029982 1.295049 -0.718186
v 0.389161 1.328218 -0.698187
v 0.389161 1.328218 -0.718186
v 0.389161 1.295049 -0.698187
v 0.389161 1.295049 -0.718186
v 0.002968 1.553203 0.718991
v 0.002968 1.553203 -0.722775
v 0.406342 1.553203 0.718991
v 0.406342 1.553203 -0.722775
v 0.002968 1.577269 0.732767
v 0.002968 1.577269 -0.744713
v 0.411787 1.577269 0.732767
v 0.411787 1.577269 -0.744713
v 0.002968 1.270984 0.718991
v 0.002968 1.270984 -0.722775
v 0.406342 1.270984 0.718991
v 0.406342 1.270984 -0.722775
v 0.002968 1.295049 0.732767
v 0.002968 1.295049 -0.744713
v 0.411787 1.295049 0.732767
v 0.411787 1.295049 -0.744713
vn 1.0000 -0.0000 0.0000
vn -1.0000 0.0000 0.0000
vn 0.0000 0.0000 1.0000
vn 0.0000 0.0000 -1.0000
vn -0.0152 0.5362 -0.8440
vn 0.6754 -0.0021 -0.7374
vn 0.7051 0.3598 -0.6111
vn -0.0004 0.1895 -0.9819
vn 0.0169 -0.9999 0.0000
vn 0.0179 -0.9818 0.1893
vn 0.0179 -0.9821 0.1874
vn 0.6153 0.7733 -0.1530
vn -0.0182 0.9871 -0.1593
vn -0.7222 0.3519 -0.5955
vn -0.6400 0.7527 -0.1546
vn -0.6928 -0.0047 -0.7211
vn 0.5724 0.8134 0.1039
vn -0.0167 0.9919 0.1259
vn -0.5993 0.7942 0.1001
vn 0.0192 -0.9938 -0.1096
vn -0.0152 0.5362 0.8440
vn 0.7051 0.3598 0.6111
vn 0.6754 -0.0021 0.7374
vn -0.0004 0.1895 0.9819
vn 0.0179 -0.9821 -0.1874
vn 0.0179 -0.9818 -0.1893
vn -0.0182 0.9871 0.1593
vn 0.6153 0.7733 0.1530
vn -0.7222 0.3519 0.5955
vn -0.6400 0.7527 0.1546
vn -0.6928 -0.0047 0.7211
vn -0.0167 0.9919 -0.1259
vn 0.5724 0.8134 -0.1039
vn -0.5993 0.7942 -0.1001
vn 0.0192 -0.9938 0.1096
vn -0.0005 0.1895 -0.9819
vn 0.6755 -0.0021 0.7374
vn -0.0005 0.1895 0.9819
vn 0.6755 -0.0021 -0.7374
vn 0.3325 0.9431 0.0000
vn 0.0000 -0.4968 0.8679
vn 0.0000 -0.6737 -0.7390
vn 0.9754 -0.2207 0.0000
vn 0.0000 -1.0000 0.0000
vn 0.0000 1.0000 0.0000
usemtl None
s 1
f 3//1 7//1 5//1 1//1
f 8//2 4//2 2//2 6//2
f 6//3 2//3 1//3 5//3
f 7//4 3//4 4//4 8//4
f 9//5 10//6 25//6 24//7
f 16//8 14//8 15//8
f 24//9 22//9 12//10 11//11
f 9//5 24//7 11//12 13//13
f 22//14 9//5 13//13 12//15
f 22//14 23//16 10//16 9//5
f 13//13 11//12 14//17 16//18
f 12//15 13//13 16//18 15//19
f 11//11 12//10 15//20 14//20
f 17//21 24//22 25//23 18//23
f 28//24 27//24 26//24
f 24//9 19//25 20//26 22//9
f 17//21 21//27 19//28 24//22
f 22//29 20//30 21//27 17//21
f 22//29 17//21 18//31 23//31
f 21//27 28//32 26//33 19//28
f 20//30 27//34 28//32 21//27
f 19//25 26//35 27//35 20//26
f 29//5 30//6 45//6 44//7
f 36//36 34//36 35//36
f 44//9 42//9 32//10 31//11
f 29//5 44//7 31//12 33//13
f 42//14 29//5 33//13 32//15
f 42//14 43//16 30//16 29//5
f 33//13 31//12 34//17 36//18
f 32//15 33//13 36//18 35//19
f 31//11 32//10 35//20 34//20
f 37//21 44//22 45//23 38//23
f 48//24 47//24 46//24
f 44//9 39//25 40//26 42//9
f 37//21 41//27 39//28 44//22
f 42//29 40//30 41//27 37//21
f 42//29 37//21 38//31 43//31
f 41//27 48//32 46//33 39//28
f 40//30 47//34 48//32 41//27
f 39//25 46//35 47//35 40//26
f 49//5 50//6 65//6 64//7
f 56//8 54//8 55//8
f 64//9 62//9 52//10 51//11
f 49//5 64//7 51//12 53//13
f 62//14 49//5 53//13 52//15
f 62//14 63//16 50//16 49//5
f 53//13 51//12 54//17 56//18
f 52//15 53//13 56//18 55//19
f 51//11 52//10 55//20 54//20
f 57//21 64//22 65//23 58//23
f 68//24 67//24 66//24
f 64//9 59//25 60//26 62//9
f 57//21 61//27 59//28 64//22
f 62//29 60//30 61//27 57//21
f 62//29 57//21 58//31 63//31
f 61//27 68//32 66//33 59//28
f 60//30 67//34 68//32 61//27
f 59//25 66//35 67//35 60//26
f 69//5 70//6 85//6 84//7
f 76//36 74//36 75//36
f 84//9 82//9 72//10 71//11
f 69//5 84//7 71//12 73//13
f 82//14 69//5 73//13 72//15
f 82//14 83//16 70//16 69//5
f 73//13 71//12 74//17 76//18
f 72//15 73//13 76//18 75//19
f 71//11 72//10 75//20 74//20
f 77//21 84//22 85//37 78//37
f 88//38 87//38 86//38
f 84//9 79//25 80//26 82//9
f 77//21 81//27 79//28 84//22
f 82//29 80//30 81//27 77//21
f 82//29 77//21 78//31 83//31
f 81//27 88//32 86//33 79//28
f 80//30 87//34 88//32 81//27
f 79//25 86//35 87//35 80//26
f 89//5 90//6 105//6 104//7
f 96//36 94//36 95//36
f 104//9 102//9 92//10 91//11
f 89//5 104//7 91//12 93//13
f 102//14 89//5 93//13 92//15
f 102//14 103//16 90//16 89//5
f 93//13 91//12 94//17 96//18
f 92//15 93//13 96//18 95//19
f 91//11 92//10 95//20 94//20
f 97//21 104//22 105//37 98//37
f 108//38 107//38 106//38
f 104//9 99//25 100//26 102//9
f 97//21 101//27 99//28 104//22
f 102//29 100//30 101//27 97//21
f 102//29 97//21 98//31 103//31
f 101//27 108//32 106//33 99//28
f 100//30 107//34 108//32 101//27
f 99//25 106//35 107//35 100//26
f 109//5 110//39 125//39 124//7
f 116//36 114//36 115//36
f 124//9 122//9 112//10 111//11
f 109//5 124//7 111//12 113//13
f 122//14 109//5 113//13 112//15
f 122//14 123//16 110//16 109//5
f 113//13 111//12 114//17 116//18
f 112//15 113//13 116//18 115//19
f 111//11 112//10 115//20 114//20
f 117//21 124//22 125//37 118//37
f 128//38 127//38 126//38
f 124//9 119//25 120//26 122//9
f 117//21 121//27 119//28 124//22
f 122//29 120//30 121//27 117//21
f 122//29 117//21 118//31 123//31
f 121//27 128//32 126//33 119//28
f 120//30 127//34 128//32 121//27
f 119//25 126//35 127//35 120//26
f 129//5 130//39 145//39 144//7
f 136//36 134//36 135//36
f 144//9 142//9 132//10 131//11
f 129//5 144//7 131//12 133//13
f 142//14 129//5 133//13 132//15
f 142//14 143//16 130//16 129//5
f 133//13 131//12 134//17 136//18
f 132//15 133//13 136//18 135//19
f 131//11 132//10 135//20 134//20
f 137//21 144//22 145//23 138//23
f 148//38 147//38 146//38
f 144//9 139//25 140//26 142//9
f 137//21 141//27 139//28 144//22
f 142//29 140//30 141//27 137//21
f 142//29 137//21 138//31 143//31
f 141//27 148//32 146//33 139//28
f 140//30 147//34 148//32 141//27
f 139//25 146//35 147//35 140//26
f 155//1 156//1 154//1 153//1
f 151//3 155//3 153//3 149//3
f 154//40 150//40 149//40 153//40
f 156//4 152//4 150//4 154//4
f 163//1 164//1 162//1 161//1
f 159//3 163//3 161//3 157//3
f 162//40 158//40 157//40 161//40
f 164//4 160//4 158//4 162//4
f 171//1 172//1 170//1 169//1
f 167//3 171//3 169//3 165//3
f 170//40 166//40 165//40 169//40
f 172//4 168//4 166//4 170//4
f 179//1 180//1 178//1 177//1
f 175//3 179//3 177//3 173//3
f 178//40 174//40 173//40 177//40
f 180//4 176//4 174//4 178//4
f 187//1 188//1 186//1 185//1
f 183//3 187//3 185//3 181//3
f 186//40 182//40 181//40 185//40
f 188//4 184//4 182//4 186//4
f 195//1 196//1 194//1 193//1
f 191//3 195//3 193//3 189//3
f 194//40 190//40 189//40 193//40
f 196//4 192//4 190//4 194//4
f 203//1 204//1 202//1 201//1
f 199//3 203//3 201//3 197//3
f 202//40 198//40 197//40 201//40
f 204//4 200//4 198//4 202//4
f 211//1 212//1 210//1 209//1
f 207//3 211//3 209//3 205//3
f 210//40 206//40 205//40 209//40
f 212//4 208//4 206//4 210//4
f 213//41 215//41 219//41 217//41
f 216//42 214//42 218//42 220//42
f 215//43 216//43 220//43 219//43
f 213//44 214//44 216//44 215//44
f 217//45 219//45 220//45 218//45
f 221//41 223//41 227//41 225//41
f 224//42 222//42 226//42 228//42
f 223//43 224//43 228//43 227//43
f 221//44 222//44 224//44 223//44
f 225//45 227//45 228//45 226//45
