# Blender v2.78 (sub 0) OBJ File: 'Eingangshalle_UVbearbeiten.blend'
# www.blender.org
mtllib mod_Sofa_Eingangshalle.mtl
g Sofa_Eingangshalle.003
v 0.721533 0.377047 1.026803
v 0.721533 0.476435 1.026803
v 0.721533 0.476435 -1.039859
v 0.721533 0.377048 -1.039859
v 0.755408 0.377048 -1.039859
v 0.755408 0.476435 -1.039859
v 0.755408 0.476435 1.026803
v 0.755408 0.377047 1.026803
v -0.721533 0.377047 1.026803
v -0.721533 0.377048 -1.039859
v -0.721533 0.476435 -1.039859
v -0.721533 0.476435 1.026803
v -0.755408 0.377048 -1.039859
v -0.755408 0.377047 1.026803
v -0.755408 0.476435 1.026803
v -0.755408 0.476435 -1.039859
v -0.667785 0.765612 -1.133578
v -0.710700 0.678786 -1.133578
v -1.337134 2.148484 -1.133578
v -1.279810 2.191897 -1.133578
v 0.841119 0.765612 -1.133578
v 0.841119 0.678786 -1.133578
v 0.841119 0.765612 1.133579
v 0.841119 0.678786 1.133579
v -0.667785 0.765612 1.133579
v -0.710700 0.678786 1.133579
v -1.337134 2.148484 1.133579
v -1.279810 2.191896 1.133579
v 0.761689 0.955088 -1.031947
v -0.491219 0.955088 -1.031947
v -0.491219 0.955087 1.031948
v 0.761689 0.955087 1.031948
v 0.814643 0.781435 -1.094489
v 0.814643 0.895353 -1.094489
v 0.814643 0.895352 1.094489
v 0.814643 0.781435 1.094489
v -0.651871 0.781435 1.094489
v -0.581220 0.895352 1.094489
v -0.581220 0.895353 -1.094489
v -0.651871 0.781435 -1.094489
v -0.608040 1.015367 -1.031947
v -1.108891 2.162819 -1.031947
v -1.108891 2.162818 1.031948
v -0.608040 1.015366 1.031948
v -0.651871 0.777664 -1.094489
v -0.610728 0.881732 -1.094489
v -0.610728 0.881732 1.094489
v -0.651871 0.777664 1.094489
v -1.249851 2.136271 1.094490
v -1.181062 2.188367 1.094490
v -1.181062 2.188368 -1.094489
v -1.249851 2.136272 -1.094489
v 0.756177 0.087828 1.009156
v 0.798463 0.002858 1.009156
v -0.798484 0.002559 1.009156
v -0.756177 0.087510 1.009156
v 0.496453 0.580922 1.009156
v 0.496452 0.580922 1.113446
v -0.501151 0.590498 1.113445
v -0.501151 0.590498 1.009156
v 0.756177 0.087828 1.113445
v -0.756177 0.087510 1.113446
v -0.798484 0.002559 1.113446
v -0.853304 0.159119 1.113445
v -0.853304 0.159118 1.009156
v -0.775952 0.158018 1.009156
v -0.775952 0.158018 1.113445
v -0.787807 0.357249 1.113445
v -0.787807 0.357249 1.009156
v -0.715047 0.322792 1.009156
v -0.715047 0.322792 1.113445
v -0.748909 0.529967 1.113445
v -0.748909 0.529967 1.009156
v -0.688701 0.466255 1.009156
v -0.688701 0.466255 1.113445
v -0.518600 0.689355 1.113445
v -0.518601 0.689355 1.009156
v 0.513206 0.679986 1.009157
v 0.513206 0.679986 1.113446
v 0.748446 0.530689 1.113447
v 0.748446 0.530690 1.009157
v 0.689144 0.465532 1.009157
v 0.689144 0.465532 1.113446
v 0.787797 0.357249 1.113447
v 0.787797 0.357249 1.009157
v 0.715037 0.322793 1.009157
v 0.715037 0.322792 1.113446
v 0.853293 0.159093 1.113445
v 0.853294 0.159094 1.009156
v 0.775941 0.158043 1.009156
v 0.775941 0.158043 1.113445
v 0.798463 0.002858 1.113445
v 0.756177 0.087828 -1.009156
v -0.756177 0.087510 -1.009156
v -0.798484 0.002559 -1.009156
v 0.798463 0.002858 -1.009156
v 0.496453 0.580922 -1.009156
v -0.501151 0.590499 -1.009156
v -0.501151 0.590499 -1.113445
v 0.496452 0.580922 -1.113446
v 0.756177 0.087828 -1.113445
v -0.756177 0.087510 -1.113446
v -0.853304 0.159119 -1.009156
v -0.853304 0.159119 -1.113446
v -0.798484 0.002559 -1.113446
v -0.775952 0.158018 -1.009156
v -0.775952 0.158019 -1.113446
v -0.787807 0.357249 -1.009156
v -0.787807 0.357249 -1.113445
v -0.715047 0.322793 -1.009156
v -0.715047 0.322793 -1.113445
v -0.748909 0.529966 -1.009156
v -0.748909 0.529966 -1.113445
v -0.688701 0.466256 -1.009156
v -0.688701 0.466256 -1.113445
v -0.518601 0.689355 -1.009156
v -0.518600 0.689355 -1.113445
v 0.513206 0.679986 -1.009156
v 0.513206 0.679986 -1.113446
v 0.748446 0.530689 -1.009156
v 0.748446 0.530689 -1.113447
v 0.689144 0.465532 -1.009156
v 0.689144 0.465532 -1.113446
v 0.787797 0.357250 -1.009157
v 0.787797 0.357249 -1.113446
v 0.715037 0.322794 -1.009157
v 0.715037 0.322793 -1.113446
v 0.853294 0.159094 -1.009156
v 0.853293 0.159093 -1.113446
v 0.775941 0.158044 -1.009156
v 0.775941 0.158044 -1.113445
v 0.798463 0.002858 -1.113445
vt 0.0046 0.6553
vt 0.0126 0.6620
vt 0.1513 0.4960
vt 0.1434 0.4893
vt 0.1434 0.4893
vt 0.1513 0.4960
vt 0.0126 0.6620
vt 0.0046 0.6553
vt 0.0032 0.6574
vt 0.1333 0.5251
vt 0.1396 0.5313
vt 0.0096 0.6636
vt 0.1333 0.5251
vt 0.0032 0.6574
vt 0.0096 0.6636
vt 0.1396 0.5313
vt 0.0305 0.6504
vt 0.0305 0.6618
vt 0.0305 0.4703
vt 0.0305 0.4646
vt 0.1525 0.6645
vt 0.1525 0.6598
vt 0.1525 0.4968
vt 0.1525 0.4968
vt 0.0113 0.4968
vt 0.0113 0.4968
vt 0.0113 0.6598
vt 0.0113 0.6645
vt 0.1415 0.4703
vt 0.1415 0.4646
vt 0.1415 0.6618
vt 0.1415 0.6504
vt 0.1488 0.0747
vt 0.1488 0.2890
vt 0.0186 0.2890
vt 0.0186 0.0747
vt 0.1350 0.0997
vt 0.1350 0.0997
vt 0.0421 0.0997
vt 0.0421 0.0997
vt 0.0146 0.3165
vt 0.0146 0.3044
vt 0.1527 0.3044
vt 0.1527 0.3165
vt 0.1360 0.3222
vt 0.1360 0.3141
vt 0.1360 0.1534
vt 0.1360 0.1534
vt 0.0540 0.3194
vt 0.1122 0.3194
vt 0.1139 0.3263
vt 0.0522 0.3263
vt 0.1527 0.0656
vt 0.0146 0.0656
vt 0.0431 0.1534
vt 0.0431 0.1534
vt 0.0431 0.3141
vt 0.0431 0.3222
vt 0.0240 0.2949
vt 0.0240 0.1648
vt 0.1342 0.1648
vt 0.1342 0.2949
vt 0.0207 0.3218
vt 0.0207 0.3100
vt 0.1375 0.3100
vt 0.1375 0.3218
vt 0.1258 0.2222
vt 0.1258 0.2182
vt 0.0471 0.2182
vt 0.0471 0.2222
vt 0.0471 0.3179
vt 0.0471 0.3259
vt 0.0207 0.1619
vt 0.1375 0.1619
vt 0.0564 0.3220
vt 0.1056 0.3220
vt 0.1071 0.3288
vt 0.0549 0.3288
vt 0.1258 0.3259
vt 0.1258 0.3179
vt 0.1425 0.6518
vt 0.1473 0.6539
vt 0.0365 0.4788
vt 0.0376 0.4860
vt 0.1139 0.6377
vt 0.1139 0.6377
vt 0.0445 0.5286
vt 0.0445 0.5286
vt 0.1425 0.6518
vt 0.0376 0.4860
vt 0.0365 0.4788
vt 0.0293 0.4774
vt 0.0293 0.4774
vt 0.0347 0.4859
vt 0.0347 0.4859
vt 0.0296 0.4904
vt 0.0296 0.4904
vt 0.0354 0.4974
vt 0.0354 0.4974
vt 0.0286 0.4997
vt 0.0286 0.4997
vt 0.0341 0.5044
vt 0.0341 0.5044
vt 0.0411 0.5296
vt 0.0411 0.5296
vt 0.1129 0.6424
vt 0.1129 0.6424
vt 0.1324 0.6639
vt 0.1324 0.6639
vt 0.1297 0.6555
vt 0.1297 0.6555
vt 0.1389 0.6631
vt 0.1389 0.6631
vt 0.1346 0.6541
vt 0.1346 0.6541
vt 0.1477 0.6645
vt 0.1477 0.6645
vt 0.1424 0.6560
vt 0.1424 0.6560
vt 0.1473 0.6539
vt 0.1425 0.6518
vt 0.0376 0.4860
vt 0.0365 0.4788
vt 0.1473 0.6539
vt 0.1139 0.6377
vt 0.0445 0.5286
vt 0.0445 0.5286
vt 0.1139 0.6377
vt 0.1425 0.6518
vt 0.0376 0.4860
vt 0.0293 0.4774
vt 0.0293 0.4774
vt 0.0365 0.4788
vt 0.0347 0.4859
vt 0.0347 0.4859
vt 0.0296 0.4904
vt 0.0296 0.4904
vt 0.0354 0.4974
vt 0.0354 0.4974
vt 0.0286 0.4997
vt 0.0286 0.4997
vt 0.0341 0.5044
vt 0.0341 0.5044
vt 0.0411 0.5296
vt 0.0411 0.5296
vt 0.1129 0.6424
vt 0.1129 0.6424
vt 0.1324 0.6639
vt 0.1324 0.6639
vt 0.1297 0.6555
vt 0.1297 0.6555
vt 0.1389 0.6631
vt 0.1389 0.6631
vt 0.1346 0.6541
vt 0.1346 0.6541
vt 0.1477 0.6645
vt 0.1477 0.6645
vt 0.1424 0.6560
vt 0.1424 0.6560
vt 0.1473 0.6539
vn -1.0000 0.0000 0.0000
vn 1.0000 0.0000 0.0000
vn 0.0000 -1.0000 -0.0000
vn 0.0000 1.0000 0.0000
vn -0.0000 0.0000 -1.0000
vn 0.0000 0.0000 1.0000
vn -0.6037 0.7972 0.0000
vn 0.9190 0.3943 0.0000
vn -0.9199 -0.3921 -0.0000
vn 0.3282 0.8999 -0.2873
vn -0.2138 0.9288 -0.3027
vn -0.2138 0.9288 0.3027
vn 0.3282 0.8999 0.2873
vn 0.6483 0.3862 -0.6562
vn 0.6483 0.3862 0.6562
vn -0.8498 0.5271 0.0000
vn -0.4816 0.5671 0.6682
vn -0.4816 0.5671 -0.6682
vn 0.9230 0.2395 -0.3012
vn 0.7044 0.6548 -0.2740
vn 0.7044 0.6548 0.2740
vn 0.9230 0.2395 0.3012
vn 0.9300 -0.3677 -0.0000
vn 0.7332 -0.1024 -0.6722
vn 0.7332 -0.1024 0.6722
vn 0.0127 0.7652 0.6436
vn 0.0127 0.7652 -0.6436
vn -0.2711 -0.9625 -0.0000
vn 0.2838 -0.9589 0.0000
vn -0.6038 0.7971 0.0000
vn 0.6041 0.7969 0.0000
vn -0.9438 -0.3305 0.0000
vn -1.0000 -0.0088 -0.0000
vn 0.9992 -0.0403 -0.0000
vn -0.9637 0.2671 -0.0000
vn 0.9643 -0.2646 -0.0000
vn -0.8290 0.5592 0.0000
vn 0.8344 -0.5511 0.0000
vn -0.2938 0.9559 0.0000
vn 0.2834 0.9590 0.0000
vn 0.8172 0.5763 0.0000
vn -0.8223 -0.5690 -0.0000
vn 0.9635 0.2679 0.0000
vn -0.9646 -0.2636 -0.0000
vn 1.0000 -0.0091 0.0000
vn -0.9992 -0.0399 -0.0000
vn 0.9436 -0.3311 0.0000
usemtl None
s off
f 1/1/1 2/2/1 3/3/1 4/4/1
f 5/5/2 6/6/2 7/7/2 8/8/2
f 4/4/3 5/5/3 8/8/3 1/1/3
f 6/6/4 3/3/4 2/2/4 7/7/4
f 9/9/2 10/10/2 11/11/2 12/12/2
f 13/13/1 14/14/1 15/15/1 16/16/1
f 10/10/3 9/9/3 14/14/3 13/13/3
f 16/16/4 15/15/4 12/12/4 11/11/4
f 17/17/5 18/18/5 19/19/5 20/20/5
f 18/21/5 17/22/5 21/23/5 22/24/5
f 22/24/2 21/23/2 23/25/2 24/26/2
f 24/26/6 23/25/6 25/27/6 26/28/6
f 21/23/4 17/22/4 25/27/4 23/25/4
f 27/29/7 28/30/7 20/20/7 19/19/7
f 26/31/6 25/32/6 28/30/6 27/29/6
f 25/32/8 17/17/8 20/20/8 28/30/8
f 18/18/9 26/31/9 27/29/9 19/19/9
s 1
f 29/33/10 30/34/11 31/35/12 32/36/13
f 33/37/2 34/38/14 35/39/15 36/40/2
f 37/41/16 38/42/17 39/43/18 40/44/16
f 40/45/5 39/46/18 34/47/14 33/48/5
f 31/49/12 30/50/11 39/51/18 38/52/17
f 30/34/11 29/33/10 34/53/14 39/43/18
f 29/33/10 32/36/13 35/54/15 34/53/14
f 32/36/13 31/35/12 38/42/17 35/54/15
f 36/55/6 35/56/15 38/57/17 37/58/6
f 41/59/19 42/60/20 43/61/21 44/62/22
f 45/63/23 46/64/24 47/65/25 48/66/23
f 49/67/7 50/68/26 51/69/27 52/70/7
f 52/70/5 51/69/27 46/71/24 45/72/5
f 43/61/21 42/60/20 51/73/27 50/74/26
f 42/60/20 41/59/19 46/64/24 51/73/27
f 41/75/19 44/76/22 47/77/25 46/78/24
f 44/62/22 43/61/21 50/74/26 47/65/25
f 48/79/6 47/80/25 50/68/26 49/67/6
f 53/81/5 54/82/5 55/83/5 56/84/5
f 57/85/28 58/86/28 59/87/29 60/88/29
f 61/89/30 53/81/30 56/84/31 62/90/31
f 55/83/32 63/91/32 64/92/33 65/93/33
f 56/84/5 55/83/5 65/93/5 66/94/5
f 62/90/31 56/84/31 66/94/34 67/95/34
f 63/91/6 62/90/6 67/95/6 64/92/6
f 65/93/33 64/92/33 68/96/35 69/97/35
f 66/94/5 65/93/5 69/97/5 70/98/5
f 67/95/34 66/94/34 70/98/36 71/99/36
f 64/92/6 67/95/6 71/99/6 68/96/6
f 69/97/35 68/96/35 72/100/37 73/101/37
f 70/98/5 69/97/5 73/101/5 74/102/5
f 71/99/36 70/98/36 74/102/38 75/103/38
f 68/96/6 71/99/6 75/103/6 72/100/6
f 73/101/37 72/100/37 76/104/39 77/105/39
f 74/102/5 73/101/5 77/105/5 60/88/5
f 75/103/38 74/102/38 60/88/29 59/87/29
f 72/100/6 75/103/6 59/87/6 76/104/6
f 77/105/5 78/106/5 57/85/5 60/88/5
f 58/86/6 79/107/6 76/104/6 59/87/6
f 79/107/40 78/106/40 77/105/39 76/104/39
f 78/106/40 79/107/40 80/108/41 81/109/41
f 57/85/5 78/106/5 81/109/5 82/110/5
f 58/86/28 57/85/28 82/110/42 83/111/42
f 79/107/6 58/86/6 83/111/6 80/108/6
f 81/109/41 80/108/41 84/112/43 85/113/43
f 82/110/5 81/109/5 85/113/5 86/114/5
f 83/111/42 82/110/42 86/114/44 87/115/44
f 80/108/6 83/111/6 87/115/6 84/112/6
f 85/113/43 84/112/43 88/116/45 89/117/45
f 86/114/5 85/113/5 89/117/5 90/118/5
f 87/115/44 86/114/44 90/118/46 91/119/46
f 84/112/6 87/115/6 91/119/6 88/116/6
f 89/117/45 88/116/45 92/120/47 54/82/47
f 90/118/5 89/117/5 54/82/5 53/81/5
f 91/119/46 90/118/46 53/81/30 61/89/30
f 88/116/6 91/119/6 61/89/6 92/120/6
f 92/120/6 61/89/6 62/90/6 63/91/6
f 93/121/6 94/122/6 95/123/6 96/124/6
f 97/125/28 98/126/29 99/127/29 100/128/28
f 101/129/30 102/130/31 94/122/31 93/121/30
f 95/123/32 103/131/33 104/132/33 105/133/32
f 94/122/6 106/134/6 103/131/6 95/123/6
f 102/130/31 107/135/34 106/134/34 94/122/31
f 105/133/5 104/132/5 107/135/5 102/130/5
f 103/131/33 108/136/35 109/137/35 104/132/33
f 106/134/6 110/138/6 108/136/6 103/131/6
f 107/135/34 111/139/36 110/138/36 106/134/34
f 104/132/5 109/137/5 111/139/5 107/135/5
f 108/136/35 112/140/37 113/141/37 109/137/35
f 110/138/6 114/142/6 112/140/6 108/136/6
f 111/139/36 115/143/38 114/142/38 110/138/36
f 109/137/5 113/141/5 115/143/5 111/139/5
f 112/140/37 116/144/39 117/145/39 113/141/37
f 114/142/6 98/126/6 116/144/6 112/140/6
f 115/143/38 99/127/29 98/126/29 114/142/38
f 113/141/5 117/145/5 99/127/5 115/143/5
f 116/144/6 98/126/6 97/125/6 118/146/6
f 100/128/5 99/127/5 117/145/5 119/147/5
f 119/147/40 117/145/39 116/144/39 118/146/40
f 118/146/40 120/148/41 121/149/41 119/147/40
f 97/125/6 122/150/6 120/148/6 118/146/6
f 100/128/28 123/151/42 122/150/42 97/125/28
f 119/147/5 121/149/5 123/151/5 100/128/5
f 120/148/41 124/152/43 125/153/43 121/149/41
f 122/150/6 126/154/6 124/152/6 120/148/6
f 123/151/42 127/155/44 126/154/44 122/150/42
f 121/149/5 125/153/5 127/155/5 123/151/5
f 124/152/43 128/156/45 129/157/45 125/153/43
f 126/154/6 130/158/6 128/156/6 124/152/6
f 127/155/44 131/159/46 130/158/46 126/154/44
f 125/153/5 129/157/5 131/159/5 127/155/5
f 128/156/45 96/124/47 132/160/47 129/157/45
f 130/158/6 93/121/6 96/124/6 128/156/6
f 131/159/46 101/129/30 93/121/30 130/158/46
f 129/157/5 132/160/5 101/129/5 131/159/5
f 132/160/5 105/133/5 102/130/5 101/129/5
