# Blender v2.78 (sub 0) OBJ File: 'Eingangshalle_UVbearbeiten.blend'
# www.blender.org
mtllib mod_Teppich_Eingangshalle.mtl
g Teppich.003
v -3.954792 0.020678 1.782544
v 3.955712 0.020678 1.782544
v 3.955712 0.020678 -1.772342
v -3.954792 0.020678 -1.772342
v 3.999770 0.000000 -1.797450
v -3.999770 0.000000 -1.797450
v -3.999770 -0.000000 1.797450
v 3.999770 -0.000000 1.797450
vt 0.0252 0.9807
vt 0.0252 0.1734
vt 0.3300 0.1734
vt 0.3300 0.9807
vt 0.3321 0.1689
vt 0.3321 0.9853
vt 0.0239 0.9853
vt 0.0239 0.1689
vn -0.1466 0.9041 0.4013
vn 0.1497 0.9040 0.4005
vn 0.1537 0.9471 -0.2816
vn -0.1505 0.9474 -0.2823
vn 0.2898 0.9233 -0.2519
vn -0.2868 0.9253 -0.2482
vn -0.3311 0.9072 0.2594
vn 0.3353 0.9045 0.2637
usemtl None.015
s 1
f 1/1/1 2/2/2 3/3/3 4/4/4
f 3/3/3 5/5/5 6/6/6 4/4/4
f 1/1/1 7/7/7 8/8/8 2/2/2
f 2/2/2 8/8/8 5/5/5 3/3/3
f 4/4/4 6/6/6 7/7/7 1/1/1
