# Blender v2.78 (sub 0) OBJ File: 'Eingangshalle_UVbearbeiten.blend'
# www.blender.org
mtllib mod_Jacke.mtl
g Jacke.004
v 0.214924 1.522363 -0.344370
v 0.220190 1.129177 -0.324591
v 0.166609 1.133314 -0.431348
v 0.164752 1.513428 -0.428888
v 0.222247 1.795902 -0.340571
v 0.167251 1.815345 -0.433520
v 0.170953 1.967949 -0.295877
v 0.148651 2.042402 -0.365374
v 0.067336 1.520036 -0.389970
v 0.121174 1.517240 -0.461341
v 0.140788 1.139013 -0.461661
v 0.062910 1.134428 -0.376130
v 0.084564 1.800015 -0.351310
v 0.131599 1.798506 -0.442861
v 0.069948 2.022395 -0.316409
v 0.095886 2.048584 -0.365011
v 0.141357 1.524015 -0.304596
v 0.138722 1.761315 -0.255557
v 0.095784 1.762513 -0.237300
v 0.072471 1.522698 -0.291344
v 0.113080 1.127683 -0.280601
v 0.067441 1.129175 -0.274345
v 0.128541 1.836325 -0.239810
v 0.127337 1.676113 -0.224090
v 0.081544 1.686033 -0.218516
v 0.087266 1.857952 -0.225349
v 0.160797 2.096822 -0.094474
v 0.173386 2.086244 -0.069264
v 0.152255 1.952424 -0.070317
v 0.256386 1.202153 -0.199834
v 0.115820 1.207687 -0.206282
v 0.074141 1.224687 -0.133103
v 0.063286 1.726095 -0.163455
v 0.068151 1.967761 -0.122452
v 0.081941 2.044167 -0.091248
v 0.176694 1.698030 -0.163154
v 0.288990 1.198245 -0.169020
v 0.151948 1.901268 -0.161132
v 0.158288 1.986928 -0.184041
v 0.222542 2.048953 -0.163155
v 0.250587 2.014543 -0.053415
v 0.143824 2.147726 -0.129048
v 0.288613 2.111114 -0.174148
v 0.237393 2.076113 -0.185510
v 0.151613 2.141983 -0.126249
v 0.342944 2.049685 -0.199498
v 0.382958 1.962825 -0.200884
v 0.293135 1.901800 -0.226175
v 0.267449 1.996077 -0.222698
v 0.242300 1.930204 -0.091803
v 0.233660 1.966909 -0.196150
v 0.240753 1.882732 -0.191777
v 0.237406 1.836478 -0.070175
v 0.434958 1.868499 -0.133898
v 0.332809 1.797712 -0.141533
v 0.252825 1.779295 -0.040733
v 0.261372 1.800614 0.054268
v 0.249148 1.846708 0.086287
v 0.256227 1.810522 -0.124738
v 0.273859 2.096965 0.125434
v 0.197388 2.164799 0.100821
v 0.293013 2.108656 0.147960
v 0.472819 1.837377 -0.048204
v 0.464641 1.846615 0.029959
v 0.342712 1.790432 0.026249
v 0.335098 1.762734 -0.060077
v 0.094782 2.095959 -0.030531
v 0.112728 2.233413 -0.013012
v 0.070145 1.230770 -0.083964
v 0.066657 1.756952 -0.054038
v 0.067517 1.968133 -0.036818
v 0.244039 1.670763 -0.066465
v 0.311140 1.194725 -0.075697
v 0.206480 1.868318 -0.055771
v 0.195718 1.540775 0.359470
v 0.127429 1.514652 0.408273
v 0.115769 1.185874 0.395099
v 0.196979 1.172947 0.352049
v 0.176256 1.835384 0.382667
v 0.119551 1.815811 0.438815
v 0.185804 1.954686 0.301336
v 0.141579 2.030922 0.351648
v 0.070581 1.521368 0.316056
v 0.061074 1.165623 0.314602
v 0.072308 1.161247 0.405253
v 0.083374 1.508348 0.419587
v 0.060435 1.803528 0.332972
v 0.073435 1.797710 0.436945
v 0.076715 2.034745 0.303792
v 0.094399 2.045689 0.343706
v 0.163287 1.534845 0.293080
v 0.117872 1.536370 0.246111
v 0.104494 1.776615 0.259625
v 0.129918 1.747098 0.283398
v 0.164206 1.167581 0.248457
v 0.138171 1.165965 0.220823
v 0.160610 1.856496 0.232542
v 0.128379 1.858861 0.225880
v 0.175307 1.698043 0.247003
v 0.209382 1.717732 0.236580
v 0.167540 2.108107 0.095083
v 0.165073 2.141959 0.133755
v 0.192907 1.991886 0.160980
v 0.205733 1.984496 0.013102
v 0.165189 1.227990 0.223817
v 0.252790 1.207012 0.185944
v 0.069028 1.736333 0.148130
v 0.069611 1.234075 0.153329
v 0.092982 1.979368 0.169359
v 0.083458 2.045988 0.099558
v 0.285997 1.191631 0.116609
v 0.262746 1.699933 0.143210
v 0.221255 1.879912 0.117683
v 0.165781 2.086606 0.043767
v 0.246660 2.010288 0.053511
v 0.251832 2.063287 0.188258
v 0.158990 2.158438 0.126769
v 0.290536 2.114712 0.165311
v 0.247089 2.078218 0.189126
v 0.414127 1.970761 0.173283
v 0.350456 2.061887 0.183354
v 0.279749 2.003735 0.228304
v 0.317200 1.911978 0.229620
v 0.240331 1.935587 0.074166
v 0.266872 1.890373 0.211464
v 0.251335 1.972047 0.212607
v 0.445434 1.877615 0.098605
v 0.369540 1.846435 0.133379
v 0.274946 1.828348 0.123009
v 0.104060 2.236888 0.014881
v 0.126572 2.219539 0.037542
v 0.390432 1.884025 -0.097486
v 0.411279 1.855732 -0.028183
v 0.460155 1.859270 -0.053472
v 0.431382 1.882888 -0.116349
v 0.126857 2.217472 -0.035930
v 0.080778 2.110422 0.046363
v 0.064283 1.765929 0.065418
v 0.067679 1.240293 0.107115
v 0.079134 1.975428 0.043933
v 0.306016 1.194231 0.025625
v 0.265371 1.670353 0.042507
v 0.217737 1.879389 0.027548
v 0.295484 2.041312 -0.148089
v 0.368183 1.980554 -0.160032
v 0.374992 1.973840 -0.188130
v 0.342891 2.047142 -0.171935
v 0.188909 2.153615 -0.102456
v 0.320396 2.048606 0.140097
v 0.350513 2.046291 0.166176
v 0.152060 2.194605 -0.044183
v 0.187752 2.160802 -0.076358
v 0.403977 1.887653 0.086390
v 0.411169 1.856306 0.017549
v 0.307622 1.881692 0.008632
v 0.306354 1.886149 0.059277
v 0.372819 1.990068 0.146412
v 0.301168 1.996184 0.121727
v 0.193318 2.169159 0.072727
v 0.154166 2.196467 0.034739
v 0.304392 1.986015 -0.114143
v 0.307627 1.889697 -0.061239
v 0.307638 1.881886 -0.021247
v 0.263985 2.092225 -0.134503
v 0.249351 2.104523 -0.104041
v 0.286624 2.047462 -0.116363
v 0.289540 2.052442 0.115823
v 0.255911 2.110152 0.095250
v 0.261653 1.994068 -0.005321
v 0.461789 1.863350 0.026553
v 0.282775 2.110862 -0.144190
v 0.444004 1.892290 0.089704
v 0.397965 1.991143 0.164771
v 0.068623 1.977593 0.037935
v 0.037104 1.771488 0.045674
v 0.048212 1.231282 -0.068695
v 0.044536 1.760676 -0.036961
v 0.101129 2.227968 0.008837
v 0.078966 2.108634 0.040440
v 0.053684 1.975535 -0.029862
v 0.095320 2.102730 -0.021379
v 0.111853 2.229577 -0.008627
v 0.041198 1.241722 0.088591
vt 0.5057 0.7071
vt 0.5027 0.5887
vt 0.5191 0.5900
vt 0.5187 0.7044
vt 0.5052 0.7895
vt 0.5194 0.7954
vt 0.4983 0.8413
vt 0.5090 0.8637
vt 0.5127 0.7064
vt 0.5237 0.7056
vt 0.5237 0.5917
vt 0.5106 0.5903
vt 0.5068 0.7907
vt 0.5208 0.7903
vt 0.5015 0.8577
vt 0.5089 0.8656
vt 0.4996 0.7076
vt 0.4921 0.7791
vt 0.4893 0.7794
vt 0.4976 0.7072
vt 0.4960 0.5883
vt 0.4950 0.5887
vt 0.4897 0.8017
vt 0.4873 0.7534
vt 0.4865 0.7564
vt 0.4875 0.8082
vt 0.4674 0.8801
vt 0.4636 0.8769
vt 0.4637 0.8366
vt 0.4836 0.6107
vt 0.4846 0.6124
vt 0.4734 0.6175
vt 0.4780 0.7685
vt 0.4717 0.8413
vt 0.4670 0.8643
vt 0.4780 0.7600
vt 0.4789 0.6095
vt 0.4777 0.8212
vt 0.4812 0.8470
vt 0.4160 0.6758
vt 0.4116 0.6703
vt 0.4322 0.6998
vt 0.4446 0.7052
vt 0.4727 0.8955
vt 0.3970 0.6859
vt 0.4278 0.8026
vt 0.4281 0.7312
vt 0.3996 0.6899
vt 0.4505 0.8164
vt 0.4770 0.8004
vt 0.4776 0.6754
vt 0.4515 0.7099
vt 0.4631 0.6443
vt 0.4532 0.6590
vt 0.4740 0.6130
vt 0.4844 0.5807
vt 0.5070 0.7913
vt 0.5080 0.6483
vt 0.5001 0.5596
vt 0.4964 0.5813
vt 0.4838 0.5984
vt 0.4723 0.8937
vt 0.4933 0.5825
vt 0.4538 0.8715
vt 0.4228 0.8756
vt 0.4610 0.9210
vt 0.5201 0.8082
vt 0.5167 0.8061
vt 0.5113 0.6533
vt 0.5166 0.6286
vt 0.4576 0.8799
vt 0.4550 0.9213
vt 0.4658 0.6193
vt 0.4612 0.7778
vt 0.4586 0.8414
vt 0.4632 0.7518
vt 0.4646 0.6085
vt 0.4615 0.8113
vt 0.3979 0.7127
vt 0.3904 0.7048
vt 0.3924 0.6058
vt 0.3990 0.6019
vt 0.3943 0.8014
vt 0.3857 0.7955
vt 0.4068 0.8373
vt 0.3991 0.8603
vt 0.4045 0.7068
vt 0.4048 0.5997
vt 0.3909 0.5984
vt 0.3887 0.7029
vt 0.4019 0.7918
vt 0.3860 0.7900
vt 0.4064 0.8614
vt 0.4003 0.8647
vt 0.4081 0.7109
vt 0.4153 0.7113
vt 0.4132 0.7837
vt 0.4095 0.7748
vt 0.4149 0.6003
vt 0.4191 0.5998
vt 0.4173 0.8077
vt 0.4184 0.8085
vt 0.4151 0.7600
vt 0.4167 0.7660
vt 0.4384 0.8835
vt 0.4325 0.8937
vt 0.4283 0.8485
vt 0.4510 0.8463
vt 0.4187 0.6185
vt 0.4245 0.6122
vt 0.4303 0.7716
vt 0.4295 0.6203
vt 0.4270 0.8448
vt 0.4377 0.8648
vt 0.4351 0.6075
vt 0.4310 0.7606
vt 0.4349 0.8148
vt 0.4147 0.6687
vt 0.4450 0.6988
vt 0.4334 0.7371
vt 0.4100 0.6839
vt 0.4335 0.8987
vt 0.4272 0.8067
vt 0.3968 0.7073
vt 0.4016 0.7028
vt 0.4291 0.7419
vt 0.4799 0.8354
vt 0.4488 0.8313
vt 0.4516 0.7266
vt 0.4788 0.7050
vt 0.4616 0.6458
vt 0.4762 0.6429
vt 0.4547 0.6793
vt 0.5065 0.8071
vt 0.5022 0.7143
vt 0.4920 0.6118
vt 0.3700 0.7036
vt 0.4012 0.7483
vt 0.3776 0.7144
vt 0.5034 0.6725
vt 0.5120 0.6541
vt 0.5309 0.7340
vt 0.5193 0.7322
vt 0.3886 0.8687
vt 0.3852 0.8618
vt 0.3942 0.8652
vt 0.3944 0.8620
vt 0.4507 0.9223
vt 0.4459 0.8842
vt 0.4429 0.7805
vt 0.4366 0.6222
vt 0.4462 0.8436
vt 0.4490 0.6083
vt 0.4465 0.7517
vt 0.4487 0.8146
vt 0.4633 0.8062
vt 0.4928 0.8088
vt 0.4955 0.8073
vt 0.4816 0.8879
vt 0.3722 0.7098
vt 0.3781 0.7134
vt 0.4026 0.7331
vt 0.4463 0.8770
vt 0.4728 0.8566
vt 0.4845 0.8979
vt 0.4197 0.8431
vt 0.4046 0.8597
vt 0.4191 0.8540
vt 0.5085 0.6993
vt 0.5120 0.6549
vt 0.4714 0.5435
vt 0.4708 0.5494
vt 0.4944 0.8326
vt 0.4665 0.7353
vt 0.4211 0.8771
vt 0.4054 0.8662
vt 0.4679 0.7222
vt 0.4712 0.5576
vt 0.4714 0.5438
vt 0.4501 0.8483
vt 0.4442 0.8479
vt 0.4598 0.8036
vt 0.4608 0.8168
vt 0.4466 0.8677
vt 0.4512 0.6720
vt 0.5131 0.8098
vt 0.5124 0.8139
vt 0.5031 0.7969
vt 0.4511 0.8147
vt 0.4732 0.7996
vt 0.4290 0.8053
vt 0.4269 0.7968
vt 0.4524 0.8215
vt 0.5028 0.8149
vt 0.4726 0.8326
vt 0.5239 0.7678
vt 0.5314 0.7437
vt 0.5041 0.8724
vt 0.4570 0.9094
vt 0.4472 0.8442
vt 0.4460 0.7821
vt 0.4635 0.6195
vt 0.4586 0.7789
vt 0.4516 0.9196
vt 0.4468 0.8837
vt 0.4575 0.8436
vt 0.4562 0.8819
vt 0.4543 0.9201
vt 0.4394 0.6226
vn 0.8691 -0.0093 -0.4945
vn 0.8790 -0.0026 -0.4767
vn 0.7927 0.0090 -0.6096
vn 0.7429 0.0040 -0.6694
vn 0.9020 0.1064 -0.4183
vn 0.6161 0.1812 -0.7666
vn 0.9960 0.0892 -0.0073
vn 0.9723 0.1824 -0.1463
vn -0.9560 0.0388 -0.2907
vn -0.8073 0.0320 -0.5893
vn -0.7655 -0.0266 -0.6429
vn -0.9538 -0.0056 -0.3004
vn -0.9747 0.0184 -0.2229
vn -0.8649 0.0609 -0.4982
vn -0.9620 0.2210 -0.1601
vn -0.9205 0.2542 -0.2967
vn 0.1341 0.6336 -0.7620
vn 0.3239 0.1217 -0.9382
vn 0.1423 0.6708 -0.7279
vn 0.6723 0.0217 -0.7400
vn 0.5694 0.0162 -0.8219
vn 0.3899 -0.0563 0.9191
vn 0.5088 -0.1047 0.8545
vn 0.3011 -0.1627 0.9396
vn 0.2169 -0.0815 0.9728
vn 0.2906 0.0415 0.9560
vn 0.1678 0.0440 0.9848
vn -0.2446 -0.0606 -0.9677
vn 0.3693 0.0294 -0.9288
vn -0.1410 -0.0514 -0.9887
vn 0.8979 -0.0620 0.4357
vn 0.3323 -0.1157 0.9360
vn 0.9856 -0.0424 -0.1634
vn 0.9243 -0.0217 -0.3810
vn 0.9626 0.1594 -0.2190
vn 0.4699 0.0913 -0.8780
vn 0.0015 -0.0380 -0.9993
vn -0.9322 -0.0257 -0.3610
vn -0.9142 -0.0595 -0.4008
vn -0.9749 -0.0391 -0.2191
vn -0.9860 0.0059 -0.1668
vn -0.9963 -0.0194 -0.0841
vn -0.9989 0.0373 -0.0270
vn -0.9645 0.2562 -0.0641
vn 0.8496 0.1274 -0.5119
vn 0.8314 0.1714 -0.5285
vn 0.9762 0.0502 -0.2110
vn 0.9994 0.0249 -0.0237
vn -0.6687 -0.7419 -0.0493
vn -0.7471 -0.5855 -0.3146
vn -0.8958 -0.2585 -0.3617
vn -0.9355 -0.3532 0.0048
vn -0.8945 0.4064 -0.1865
vn -0.9972 -0.0027 0.0742
vn -0.9968 0.0398 0.0689
vn -0.9987 0.0140 0.0484
vn 0.6895 -0.0305 0.7236
vn 0.5303 -0.0238 0.8475
vn 0.4203 0.0380 0.9066
vn 0.1383 0.8475 -0.5125
vn 0.3415 0.7634 -0.5483
vn -0.4424 0.1934 -0.8757
vn -0.0599 0.6567 -0.7518
vn 0.0901 0.2603 -0.9613
vn 0.3296 -0.1545 -0.9314
vn -0.0453 -0.3127 -0.9488
vn -0.2816 0.1322 -0.9504
vn -0.9988 -0.0107 0.0478
vn -0.8948 -0.0430 -0.4445
vn -0.7650 -0.3552 -0.5372
vn -0.9821 -0.1863 -0.0286
vn 0.4777 -0.6172 -0.6252
vn 0.1452 -0.7708 -0.6203
vn -0.6294 -0.7770 0.0090
vn -0.9344 -0.3188 0.1588
vn -0.9434 -0.2755 0.1846
vn -0.6129 -0.6724 -0.4151
vn 0.6820 0.4373 -0.5863
vn 0.4706 0.8655 0.1717
vn 0.6047 0.3820 -0.6988
vn 0.4848 -0.8706 -0.0835
vn 0.4292 -0.8543 0.2931
vn 0.2045 -0.9275 0.3129
vn 0.1461 -0.9823 -0.1168
vn -0.8819 0.2389 -0.4063
vn -0.9629 0.2041 -0.1765
vn -0.9073 0.0140 -0.4202
vn -0.8883 0.0294 -0.4583
vn -0.8792 0.1292 -0.4586
vn 0.9455 0.1623 -0.2822
vn 0.9603 0.1449 -0.2383
vn 0.9225 0.2059 -0.3264
vn 0.5999 -0.0363 0.7993
vn 0.3961 -0.0503 0.9168
vn 0.3794 -0.0417 0.9243
vn 0.5253 -0.0330 0.8503
vn 0.9413 0.0242 0.3367
vn 0.3403 0.1514 0.9281
vn 0.9558 0.0912 0.2797
vn 0.5127 0.5125 0.6888
vn -0.9683 -0.0038 -0.2497
vn -0.9676 0.0199 -0.2517
vn -0.9918 0.0262 0.1251
vn -0.9925 -0.0063 0.1225
vn -0.9839 0.0256 -0.1771
vn -0.9873 0.0304 0.1556
vn -0.9663 0.2569 0.0154
vn -0.9391 0.3118 0.1446
vn -0.1102 0.3697 0.9226
vn 0.0370 0.0947 0.9948
vn 0.1945 -0.0612 0.9790
vn 0.2539 -0.0479 0.9660
vn 0.8318 0.0742 -0.5501
vn 0.7206 0.0832 -0.6883
vn 0.3772 -0.3170 -0.8702
vn 0.8091 -0.0444 -0.5860
vn 0.8324 0.0610 -0.5508
vn 0.7195 0.0860 -0.6892
vn 0.0319 0.0938 0.9951
vn -0.9315 -0.0412 0.3614
vn -0.2074 -0.0102 0.9782
vn 0.5903 0.1205 0.7981
vn 0.2133 -0.4447 -0.8699
vn 0.9643 0.2645 -0.0142
vn 0.4265 0.6646 0.6136
vn 0.9792 0.1475 0.1392
vn 0.9653 0.1960 -0.1727
vn 0.3678 -0.0574 0.9281
vn 0.7236 -0.0096 0.6901
vn -0.9172 0.0044 0.3984
vn -0.8823 -0.0053 0.4707
vn -0.6437 -0.0078 0.7652
vn -0.9885 -0.1073 0.1065
vn -0.9733 0.1705 0.1538
vn 0.9607 0.0437 0.2740
vn 0.9531 0.1492 0.2633
vn 0.9842 -0.0516 0.1693
vn 0.9756 0.1568 0.1538
vn -0.6886 -0.7131 0.1316
vn -0.9496 -0.3067 0.0650
vn -0.8654 -0.1400 0.4812
vn -0.7056 -0.6085 0.3631
vn -0.8186 0.4585 0.3460
vn -0.8440 -0.0032 -0.5364
vn -0.8222 0.0014 -0.5692
vn -0.7967 0.0104 -0.6043
vn 0.9039 0.0688 -0.4223
vn 0.9327 0.0282 -0.3596
vn 0.3380 0.7976 0.4997
vn 0.1925 0.8207 0.5380
vn -0.4028 0.1466 0.9035
vn 0.5352 -0.1524 0.8308
vn 0.2741 0.3392 0.8999
vn -0.1491 0.1948 0.9694
vn 0.1847 -0.3331 0.9246
vn -0.9985 -0.0062 0.0539
vn -0.9660 -0.1905 0.1748
vn -0.8221 -0.0377 0.5681
vn 0.5060 -0.6829 0.5268
vn 0.3615 -0.7412 0.5657
vn 0.3379 0.8072 0.4839
vn -0.8055 -0.5021 0.3149
vn 0.6262 0.7750 0.0852
vn 0.4427 0.8560 0.2670
vn 0.3680 0.7940 0.4839
vn 0.0989 0.9883 0.1158
vn 0.0338 0.9832 0.1793
vn 0.3684 0.8256 0.4273
vn 0.6440 0.7642 -0.0339
vn 0.4427 0.8362 -0.3237
vn -0.8792 0.2842 0.3825
vn -0.8662 0.2085 0.4541
vn -0.8605 0.0779 0.5035
vn -0.8965 0.0300 0.4421
vn -0.8724 0.0612 0.4850
vn 0.9960 0.0878 0.0148
vn 0.9893 0.1416 -0.0353
vn 0.9661 0.2134 -0.1454
vn 0.6672 0.3268 0.6694
vn 0.5978 0.4923 0.6327
vn 0.6291 0.5089 0.5876
vn 0.5963 0.2664 0.7573
vn 0.4232 0.8751 -0.2345
vn 0.9276 0.3025 -0.2195
vn 0.5699 0.3125 -0.7600
vn 0.5772 0.4384 -0.6889
vn 0.7252 0.6875 -0.0373
vn 0.7220 0.6824 0.1140
vn 0.1483 0.7783 -0.6101
vn 0.0528 0.9821 -0.1807
vn 0.6334 0.7697 -0.0799
vn 0.5932 0.6774 -0.4350
vn 0.3798 0.4861 -0.7870
vn 0.6647 0.2914 -0.6879
vn 0.7012 0.6773 -0.2225
vn 0.7210 0.6874 -0.0880
vn 0.7405 0.3984 0.5413
vn 0.6416 0.6504 0.4065
vn 0.6401 0.7623 0.0958
vn 0.7059 0.3298 0.6268
vn 0.7430 0.6347 0.2125
vn 0.8253 0.4400 0.3538
vn 0.7839 0.3002 -0.5434
vn 0.7466 0.5794 -0.3269
vn 0.9301 0.3671 0.0100
vn 0.9512 0.2957 0.0877
vn 0.9105 0.4070 -0.0728
vn 0.8931 0.4298 -0.1327
vn 0.9530 0.2872 0.0962
vn 0.8747 0.4670 -0.1298
vn 0.8728 0.4658 -0.1456
vn 0.8923 0.4512 -0.0133
vn 0.8472 0.5210 0.1038
vn 0.8341 0.5416 0.1048
vn 0.9039 0.4256 0.0435
vn 0.5496 0.8349 -0.0301
vn 0.4348 0.8909 -0.1314
vn 0.7178 0.6072 -0.3406
vn 0.7245 0.5967 -0.3450
vn 0.8853 0.4502 -0.1167
vn 0.9503 0.3039 0.0674
vn 0.9451 0.3236 0.0449
vn 0.7861 0.5494 -0.2833
vn 0.0606 0.7968 -0.6012
vn -0.0854 0.9655 -0.2458
vn 0.3599 0.5529 -0.7515
vn 0.4346 0.0362 0.8999
vn 0.9983 0.0552 -0.0195
vn -0.7536 -0.3550 -0.5533
vn 0.0127 -0.9358 0.3524
vn 0.0920 -0.8664 0.4908
vn -0.0825 -0.5765 0.8129
vn -0.7367 -0.4882 0.4680
vn -0.6265 0.0663 0.7766
vn -0.5576 0.0930 0.8249
vn -0.5886 0.0432 -0.8073
vn -0.5631 0.0527 -0.8247
vn -0.9580 0.2233 0.1799
vn -0.8541 0.1142 0.5074
vn -0.6107 0.1565 -0.7762
vn -0.9516 0.1683 -0.2570
vn -0.9893 0.1352 -0.0539
vn -0.5742 0.0614 0.8164
usemtl None
s 1
f 1/1/1 2/2/2 3/3/3 4/4/4
f 5/5/5 1/1/1 4/4/4 6/6/6
f 7/7/7 5/5/5 6/6/6 8/8/8
f 9/9/9 10/10/10 11/11/11 12/12/12
f 13/13/13 14/14/14 10/10/10 9/9/9
f 15/15/15 16/16/16 14/14/14 13/13/13
f 8/8/17 6/6/6 14/14/18 16/16/19
f 4/4/4 3/3/3 11/11/20 10/10/21
f 17/17/22 18/18/23 19/19/24 20/20/25
f 21/21/26 17/17/22 20/20/25 22/22/27
f 23/23/28 24/24/29 25/25/30 26/26/28
f 6/6/6 4/4/4 10/10/21 14/14/18
f 18/18/23 23/23/31 26/26/32 19/19/24
f 27/27/33 28/28/34 29/29/35
f 24/24/29 30/30/36 31/31/37 25/25/30
f 25/25/38 31/31/39 32/32/40 33/33/41
f 26/26/42 25/25/38 33/33/41 34/34/43
f 15/15/15 26/26/42 34/34/43 35/35/44
f 24/24/29 36/36/45 37/37/46 30/30/36
f 23/23/31 38/38/47 36/36/45 24/24/29
f 7/7/7 39/39/48 38/38/47 23/23/31
f 28/40/49 27/41/50 40/42/51 41/43/52
f 16/16/16 15/15/15 35/35/44 42/44/53
f 26/26/42 15/15/15 13/13/13 19/19/54
f 19/19/54 13/13/13 9/9/9 20/20/55
f 20/20/55 9/9/9 12/12/12 22/22/56
f 23/23/31 18/18/23 5/5/57 7/7/7
f 18/18/23 17/17/22 1/1/58 5/5/57
f 17/17/22 21/21/26 2/2/59 1/1/58
f 42/45/60 43/46/61 44/47/62 45/48/63
f 46/49/64 47/50/65 48/51/66 49/52/67
f 50/53/68 51/54/69 52/55/70 53/56/71
f 43/46/61 46/49/64 49/52/67 44/47/62
f 47/50/65 54/57/72 55/58/73 48/51/66
f 41/43/52 40/42/51 51/54/69 50/53/68
f 56/59/74 57/60/75 58/61/76 53/56/71
f 45/62/63 8/8/17 16/16/19 42/44/60
f 53/56/71 52/55/70 59/63/77 56/59/74
f 60/64/78 61/65/79 62/66/80
f 63/67/81 64/68/82 65/69/83 66/70/84
f 42/44/53 35/35/44 67/71/85 68/72/86
f 33/33/41 32/32/40 69/73/87 70/74/88
f 34/34/43 33/33/41 70/74/88 71/75/89
f 35/35/44 34/34/43 71/75/89 67/71/85
f 36/36/45 72/76/90 73/77/91 37/37/46
f 38/38/47 74/78/92 72/76/90 36/36/45
f 39/39/48 29/29/35 74/78/92 38/38/47
f 75/79/93 76/80/94 77/81/95 78/82/96
f 79/83/97 80/84/98 76/80/94 75/79/93
f 81/85/99 82/86/100 80/84/98 79/83/97
f 83/87/101 84/88/102 85/89/103 86/90/104
f 87/91/105 83/87/101 86/90/104 88/92/106
f 89/93/107 87/91/105 88/92/106 90/94/108
f 82/86/100 90/94/109 88/92/110 80/84/98
f 76/80/94 86/90/111 85/89/112 77/81/95
f 91/95/113 92/96/114 93/97/115 94/98/116
f 95/99/117 96/100/118 92/96/114 91/95/113
f 97/101/119 98/102/120 99/103/121 100/104/122
f 80/84/98 88/92/110 86/90/111 76/80/94
f 94/98/116 93/97/115 98/102/123 97/101/123
f 101/105/124 102/106/125 103/107/126 104/108/127
f 100/104/122 99/103/121 105/109/128 106/110/129
f 99/103/121 107/111/130 108/112/131 105/109/132
f 98/102/120 109/113/133 107/111/130 99/103/121
f 89/93/107 110/114/134 109/113/133 98/102/120
f 100/104/122 106/110/129 111/115/135 112/116/136
f 97/101/137 100/104/122 112/116/136 113/117/138
f 81/85/99 97/101/137 113/117/138 103/107/126
f 114/118/139 115/119/140 116/120/141 101/121/142
f 90/94/108 117/122/143 110/114/134 89/93/107
f 98/102/120 93/97/144 87/91/105 89/93/107
f 93/97/144 92/96/145 83/87/101 87/91/105
f 92/96/145 96/100/146 84/88/102 83/87/101
f 97/101/137 81/85/99 79/83/97 94/98/116
f 94/98/116 79/83/97 75/79/147 91/95/113
f 91/95/113 75/79/147 78/82/148 95/99/117
f 118/123/149 117/124/150 102/125/125 119/126/151
f 120/127/152 121/128/153 122/129/154 123/130/155
f 124/131/156 58/61/76 125/132/157 126/133/158
f 121/128/153 118/123/149 119/126/151 122/129/154
f 127/134/159 120/127/152 123/130/155 128/135/160
f 115/119/140 124/131/156 126/133/158 116/120/141
f 102/106/125 117/122/150 90/94/161 82/86/100
f 58/61/76 57/60/75 129/136/162 125/132/157
f 130/137/163 117/124/150 61/138/79 131/139/164
f 132/140/165 133/141/166 134/142/167 135/143/168
f 68/144/169 130/145/163 131/146/164 136/147/170
f 117/122/143 130/148/171 137/149/172 110/114/134
f 107/111/130 138/150/173 139/151/174 108/112/131
f 109/113/133 140/152/175 138/150/173 107/111/130
f 110/114/134 137/149/172 140/152/175 109/113/133
f 112/116/136 111/115/135 141/153/176 142/154/177
f 113/117/138 112/116/136 142/154/177 143/155/178
f 103/107/126 113/117/138 143/155/178 104/108/127
f 144/156/179 145/157/180 146/158/181 147/159/182
f 42/45/60 68/160/169 136/161/170 148/162/183
f 82/86/100 81/85/99 103/107/126 102/106/125
f 64/68/82 127/134/159 128/135/160 65/69/83
f 53/56/71 58/61/76 124/131/156 50/53/68
f 50/53/68 124/131/156 115/119/140 41/43/52
f 41/43/52 115/119/140 114/118/139 28/40/49
f 28/28/34 114/163/184 104/108/127 29/29/35
f 29/29/35 104/108/127 143/155/178 74/78/92
f 74/78/92 143/155/178 142/154/177 72/76/90
f 72/76/90 142/154/177 141/153/176 73/77/91
f 149/164/185 60/64/78 62/66/80 150/165/186
f 148/166/183 136/147/170 151/167/187 152/168/188
f 153/169/189 154/170/190 155/171/191 156/172/192
f 157/173/193 153/169/189 156/172/192 158/174/194
f 131/146/164 61/65/79 159/175/195 160/176/196
f 136/147/170 131/146/164 160/176/196 151/167/187
f 132/140/165 145/157/180 161/177/197 162/178/198
f 154/170/190 133/141/166 163/179/199 155/171/191
f 144/156/179 164/180/200 165/181/201 166/182/202
f 164/180/200 148/166/183 152/168/188 165/181/201
f 149/164/185 157/173/193 158/174/194 167/183/203
f 60/64/78 149/164/185 167/183/203 168/184/204
f 145/157/180 144/156/179 166/182/202 161/177/197
f 133/141/166 132/140/165 162/178/198 163/179/199
f 61/65/79 60/64/78 168/184/204 159/175/195
f 166/182/202 165/181/201 169/185/205
f 168/184/204 167/183/203 169/185/205
f 163/179/199 162/178/198 169/185/205
f 156/172/192 155/171/191 169/185/205
f 152/168/188 151/167/187 169/185/205
f 160/176/196 159/175/195 169/185/205
f 151/167/187 160/176/196 169/185/205
f 155/171/191 163/179/199 169/185/205
f 165/181/201 152/168/188 169/185/205
f 159/175/195 168/184/204 169/185/205
f 162/178/198 161/177/197 169/185/205
f 158/174/194 156/172/192 169/185/205
f 161/177/197 166/182/202 169/185/205
f 167/183/203 158/174/194 169/185/205
f 64/68/206 63/67/207 134/186/208 170/187/209
f 63/67/207 54/57/210 135/188/211 134/186/208
f 47/50/212 46/49/213 147/189/214 146/190/215
f 117/124/150 118/123/149 62/191/216 61/138/79
f 43/46/61 42/45/60 148/162/183 171/192/217
f 118/123/149 121/128/218 150/193/219 62/191/216
f 120/127/220 127/134/221 172/194/222 173/195/223
f 46/49/213 43/46/61 171/192/217 147/189/214
f 54/57/210 47/50/212 146/190/215 135/188/211
f 121/128/218 120/127/220 173/195/223 150/193/219
f 127/134/221 64/68/206 170/187/209 172/194/222
f 154/170/190 153/169/189 172/196/224 170/197/225
f 153/169/189 157/173/193 173/198/226 172/196/224
f 145/157/180 132/140/165 135/143/168 146/158/181
f 164/180/200 144/156/179 147/159/182 171/199/227
f 133/141/166 154/170/190 170/197/225 134/142/167
f 148/166/183 164/180/200 171/199/227
f 157/173/193 149/164/185 150/165/186 173/198/226
f 45/62/228 27/27/33 29/29/35 39/39/48
f 114/163/184 101/105/124 104/108/127
f 56/59/74 59/63/77 55/58/73 66/70/84
f 52/55/70 51/54/69 49/52/67 48/51/66
f 59/63/77 52/55/70 48/51/66 55/58/73
f 40/42/51 27/41/50 45/48/229 44/47/62
f 51/54/69 40/42/51 44/47/62 49/52/67
f 57/60/230 56/59/74 66/70/84 65/69/83
f 65/69/83 128/135/160 129/136/231 57/60/230
f 123/130/155 122/129/154 126/133/158 125/132/232
f 128/135/160 123/130/155 125/132/232 129/136/231
f 119/126/151 102/125/233 101/121/142 116/120/141
f 122/129/154 119/126/151 116/120/141 126/133/158
f 8/8/8 45/62/228 39/39/48 7/7/7
f 54/57/72 63/67/81 66/70/84 55/58/73
f 138/150/173 140/152/175 174/200/234 175/201/235
f 70/74/88 69/73/87 176/202/236 177/203/237
f 137/149/172 130/148/171 178/204/238 179/205/239
f 140/152/175 137/149/172 179/205/239 174/200/234
f 71/75/89 70/74/88 177/203/237 180/206/240
f 68/72/86 67/71/85 181/207/241 182/208/242
f 67/71/85 71/75/89 180/206/240 181/207/241
f 139/151/174 138/150/173 175/201/235 183/209/243
