# Blender v2.78 (sub 0) OBJ File: 'Eingangshalle_UVbearbeiten.blend'
# www.blender.org
mtllib mod_Jackenschrank_Eingangshalle.mtl
g mod_Jackenschrank_Eingangshalle.003
v 0.045936 2.178440 -1.446932
v 0.045936 3.106406 -1.446931
v 0.045936 3.106406 1.446932
v 0.045936 2.178440 1.446932
v 0.005936 3.106406 -1.446931
v 0.005936 2.178440 -1.446932
v 0.005936 2.178440 1.446932
v 0.005936 3.106406 1.446932
v 0.090132 2.371548 1.204996
v 0.089560 2.448730 1.204288
v 0.117410 2.448730 1.229762
v 0.117092 2.359640 1.229762
v 0.090132 2.367568 1.149778
v 0.118116 2.347562 1.145904
v 0.062616 2.346446 1.145712
v 0.063652 2.359118 1.229762
v 0.062616 2.340894 1.196686
v 0.118116 2.341950 1.196192
v 0.090132 2.361788 1.188716
v 0.063834 2.448730 1.229762
v 0.090132 2.371548 1.254528
v 0.089560 2.448730 1.255236
v 0.090132 2.367568 1.309746
v 0.062616 2.346446 1.313812
v 0.118116 2.347562 1.313622
v 0.118116 2.341950 1.263334
v 0.062616 2.340894 1.262840
v 0.090132 2.361788 1.270808
v 0.090132 2.371548 0.404996
v 0.089560 2.448730 0.404288
v 0.117410 2.448730 0.429762
v 0.117092 2.359640 0.429762
v 0.090132 2.367568 0.349778
v 0.118116 2.347562 0.345904
v 0.062616 2.346446 0.345712
v 0.063652 2.359118 0.429762
v 0.062616 2.340894 0.396686
v 0.118116 2.341950 0.396192
v 0.090132 2.361788 0.388716
v 0.063834 2.448730 0.429762
v 0.090132 2.371548 0.454528
v 0.089560 2.448730 0.455236
v 0.090132 2.367568 0.509746
v 0.062616 2.346446 0.513812
v 0.118116 2.347562 0.513622
v 0.118116 2.341950 0.463334
v 0.062616 2.340894 0.462840
v 0.090132 2.361788 0.470808
v 0.090132 2.371548 -0.395004
v 0.089560 2.448730 -0.395712
v 0.117410 2.448730 -0.370238
v 0.117092 2.359640 -0.370238
v 0.090132 2.367568 -0.450222
v 0.118116 2.347562 -0.454096
v 0.062616 2.346446 -0.454288
v 0.063652 2.359118 -0.370238
v 0.062616 2.340894 -0.403314
v 0.118116 2.341950 -0.403808
v 0.090132 2.361788 -0.411284
v 0.063834 2.448730 -0.370238
v 0.090132 2.371548 -0.345472
v 0.089560 2.448730 -0.344764
v 0.090132 2.367568 -0.290254
v 0.062616 2.346446 -0.286188
v 0.118116 2.347562 -0.286378
v 0.118116 2.341950 -0.336666
v 0.062616 2.340894 -0.337160
v 0.090132 2.361788 -0.329192
v 0.090132 2.371548 -1.195004
v 0.089560 2.448730 -1.195712
v 0.117410 2.448730 -1.170238
v 0.117092 2.359640 -1.170238
v 0.090132 2.367568 -1.250222
v 0.118116 2.347562 -1.254096
v 0.062616 2.346446 -1.254288
v 0.063652 2.359118 -1.170238
v 0.062616 2.340894 -1.203314
v 0.118116 2.341950 -1.203808
v 0.090132 2.361788 -1.211284
v 0.063834 2.448730 -1.170238
v 0.090132 2.371548 -1.145472
v 0.089560 2.448730 -1.144764
v 0.090132 2.367568 -1.090252
v 0.062616 2.346446 -1.086188
v 0.118116 2.347562 -1.086378
v 0.118116 2.341950 -1.136666
v 0.062616 2.340894 -1.137160
v 0.090132 2.361788 -1.129192
v 0.090132 2.263938 0.807516
v 0.089560 2.341120 0.806808
v 0.117410 2.341120 0.832282
v 0.117092 2.252028 0.832282
v 0.090132 2.259958 0.752296
v 0.118116 2.239952 0.748422
v 0.062616 2.238834 0.748232
v 0.063652 2.251506 0.832282
v 0.062616 2.233282 0.799204
v 0.118116 2.234338 0.798710
v 0.090132 2.254176 0.791236
v 0.063834 2.341120 0.832282
v 0.090132 2.263938 0.857048
v 0.089560 2.341120 0.857756
v 0.090132 2.259958 0.912266
v 0.062616 2.238834 0.916332
v 0.118116 2.239952 0.916140
v 0.118116 2.234338 0.865852
v 0.062616 2.233282 0.865358
v 0.090132 2.254176 0.873328
v 0.090132 2.263938 -0.017248
v 0.089560 2.341120 -0.017956
v 0.117410 2.341120 0.007518
v 0.117092 2.252028 0.007518
v 0.090132 2.259958 -0.072466
v 0.118116 2.239952 -0.076342
v 0.062616 2.238834 -0.076532
v 0.063652 2.251506 0.007518
v 0.062616 2.233282 -0.025560
v 0.118116 2.234338 -0.026054
v 0.090132 2.254176 -0.033528
v 0.063834 2.341120 0.007518
v 0.090132 2.263938 0.032284
v 0.089560 2.341120 0.032992
v 0.090132 2.259958 0.087502
v 0.062616 2.238834 0.091568
v 0.118116 2.239952 0.091378
v 0.118116 2.234338 0.041090
v 0.062616 2.233282 0.040596
v 0.090132 2.254176 0.048564
v 0.090132 2.263938 -0.842012
v 0.089560 2.341120 -0.842720
v 0.117410 2.341120 -0.817246
v 0.117092 2.252028 -0.817246
v 0.090132 2.259958 -0.897230
v 0.118116 2.239952 -0.901104
v 0.062616 2.238834 -0.901296
v 0.063652 2.251506 -0.817246
v 0.062616 2.233282 -0.850322
v 0.118116 2.234338 -0.850816
v 0.090132 2.254176 -0.858292
v 0.063834 2.341120 -0.817246
v 0.090132 2.263938 -0.792480
v 0.089560 2.341120 -0.791772
v 0.090132 2.259958 -0.737260
v 0.062616 2.238834 -0.733196
v 0.118116 2.239952 -0.733386
v 0.118116 2.234338 -0.783674
v 0.062616 2.233282 -0.784168
v 0.090132 2.254176 -0.776200
v 0.778322 2.590098 1.403628
v 0.778322 2.590098 1.363629
v 0.778322 2.656436 1.363629
v 0.778322 2.656436 1.403628
v 0.059964 2.590098 1.403628
v 0.059964 2.909694 1.403628
v 0.059964 2.909694 1.363629
v 0.059964 2.590098 1.363629
v 0.778322 2.590098 1.003628
v 0.778322 2.590098 0.963628
v 0.778322 2.656436 0.963628
v 0.778322 2.656436 1.003628
v 0.059964 2.590098 1.003628
v 0.059964 2.909694 1.003628
v 0.059964 2.909694 0.963628
v 0.059964 2.590098 0.963628
v 0.778322 2.590098 0.603628
v 0.778322 2.590098 0.563628
v 0.778322 2.656436 0.563628
v 0.778322 2.656436 0.603628
v 0.059964 2.590098 0.603628
v 0.059964 2.909694 0.603628
v 0.059964 2.909694 0.563628
v 0.059964 2.590098 0.563628
v 0.778322 2.590098 0.203628
v 0.778322 2.590098 0.163628
v 0.778322 2.656436 0.163628
v 0.778322 2.656436 0.203628
v 0.059964 2.590098 0.203628
v 0.059964 2.909694 0.203628
v 0.059964 2.909694 0.163628
v 0.059964 2.590098 0.163628
v 0.778322 2.590098 -0.196372
v 0.778322 2.590098 -0.236372
v 0.778322 2.656436 -0.236372
v 0.778322 2.656436 -0.196372
v 0.059964 2.590098 -0.196372
v 0.059964 2.909694 -0.196372
v 0.059964 2.909694 -0.236372
v 0.059964 2.590098 -0.236372
v 0.778322 2.590098 -0.596372
v 0.778322 2.590098 -0.636372
v 0.778322 2.656436 -0.636372
v 0.778322 2.656436 -0.596372
v 0.059964 2.590098 -0.596372
v 0.059964 2.909694 -0.596372
v 0.059964 2.909694 -0.636372
v 0.059964 2.590098 -0.636372
v 0.778322 2.590098 -0.996372
v 0.778322 2.590098 -1.036371
v 0.778322 2.656436 -1.036371
v 0.778322 2.656436 -0.996372
v 0.059964 2.590098 -0.996372
v 0.059964 2.909694 -0.996372
v 0.059964 2.909694 -1.036371
v 0.059964 2.590098 -1.036371
v 0.778322 2.590098 -1.396374
v 0.778322 2.590098 -1.436372
v 0.778322 2.656436 -1.436372
v 0.778322 2.656436 -1.396374
v 0.059964 2.590098 -1.396374
v 0.059964 2.909694 -1.396374
v 0.059964 2.909694 -1.436372
v 0.059964 2.590098 -1.436372
v 0.005936 3.106406 1.437982
v 0.812684 3.106406 1.437982
v 0.823574 3.154538 1.465534
v 0.005936 3.154538 1.465534
v 0.812684 3.106406 -1.445549
v 0.005936 3.106406 -1.445549
v 0.005936 3.154538 -1.489426
v 0.823574 3.154538 -1.489426
v 0.005936 2.541968 1.437982
v 0.812684 2.541968 1.437982
v 0.823574 2.590098 1.465534
v 0.005936 2.590098 1.465534
v 0.812684 2.541968 -1.445550
v 0.005936 2.541968 -1.445550
v 0.005936 2.590098 -1.489426
v 0.823574 2.590098 -1.489426
vt 0.0939 0.0779
vt 0.0939 0.2195
vt 0.0137 0.2195
vt 0.0137 0.0779
vt 0.0939 0.2195
vt 0.0939 0.0779
vt 0.0137 0.0779
vt 0.0137 0.2195
vt 0.3662 0.5391
vt 0.3664 0.6566
vt 0.3595 0.6566
vt 0.3595 0.5210
vt 0.3812 0.5330
vt 0.3823 0.5026
vt 0.3823 0.5009
vt 0.3595 0.5202
vt 0.3685 0.4924
vt 0.3686 0.4940
vt 0.3706 0.5242
vt 0.3595 0.6566
vt 0.3528 0.5391
vt 0.3526 0.6566
vt 0.3378 0.5330
vt 0.3367 0.5009
vt 0.3368 0.5026
vt 0.3504 0.4940
vt 0.3506 0.4924
vt 0.3484 0.5242
vt 0.3662 0.5391
vt 0.3664 0.6566
vt 0.3595 0.6566
vt 0.3595 0.5210
vt 0.3812 0.5330
vt 0.3823 0.5026
vt 0.3823 0.5009
vt 0.3595 0.5202
vt 0.3685 0.4924
vt 0.3686 0.4940
vt 0.3706 0.5242
vt 0.3595 0.6566
vt 0.3528 0.5391
vt 0.3526 0.6566
vt 0.3378 0.5330
vt 0.3367 0.5009
vt 0.3368 0.5026
vt 0.3504 0.4940
vt 0.3506 0.4924
vt 0.3484 0.5242
vt 0.3662 0.5391
vt 0.3664 0.6566
vt 0.3595 0.6566
vt 0.3595 0.5210
vt 0.3812 0.5331
vt 0.3823 0.5026
vt 0.3823 0.5009
vt 0.3595 0.5202
vt 0.3685 0.4924
vt 0.3686 0.4941
vt 0.3706 0.5243
vt 0.3595 0.6566
vt 0.3528 0.5391
vt 0.3526 0.6566
vt 0.3378 0.5331
vt 0.3367 0.5009
vt 0.3368 0.5026
vt 0.3504 0.4941
vt 0.3506 0.4924
vt 0.3484 0.5243
vt 0.3662 0.5392
vt 0.3664 0.6567
vt 0.3595 0.6567
vt 0.3595 0.5210
vt 0.3812 0.5331
vt 0.3823 0.5027
vt 0.3823 0.5010
vt 0.3595 0.5202
vt 0.3685 0.4925
vt 0.3686 0.4941
vt 0.3707 0.5243
vt 0.3595 0.6567
vt 0.3528 0.5392
vt 0.3526 0.6567
vt 0.3378 0.5331
vt 0.3367 0.5010
vt 0.3368 0.5027
vt 0.3504 0.4941
vt 0.3506 0.4925
vt 0.3484 0.5243
vt 0.3662 0.5391
vt 0.3664 0.6566
vt 0.3595 0.6566
vt 0.3595 0.5210
vt 0.3812 0.5330
vt 0.3823 0.5026
vt 0.3823 0.5009
vt 0.3595 0.5202
vt 0.3685 0.4924
vt 0.3686 0.4940
vt 0.3706 0.5242
vt 0.3595 0.6566
vt 0.3528 0.5391
vt 0.3526 0.6566
vt 0.3378 0.5330
vt 0.3367 0.5009
vt 0.3368 0.5026
vt 0.3504 0.4940
vt 0.3506 0.4924
vt 0.3484 0.5242
vt 0.3662 0.5391
vt 0.3664 0.6566
vt 0.3595 0.6566
vt 0.3595 0.5210
vt 0.3812 0.5331
vt 0.3823 0.5026
vt 0.3823 0.5009
vt 0.3595 0.5202
vt 0.3685 0.4924
vt 0.3686 0.4941
vt 0.3706 0.5243
vt 0.3595 0.6566
vt 0.3528 0.5391
vt 0.3526 0.6566
vt 0.3378 0.5331
vt 0.3367 0.5009
vt 0.3368 0.5026
vt 0.3504 0.4941
vt 0.3506 0.4924
vt 0.3484 0.5243
vt 0.3662 0.5392
vt 0.3664 0.6567
vt 0.3595 0.6567
vt 0.3595 0.5210
vt 0.3812 0.5331
vt 0.3823 0.5027
vt 0.3823 0.5010
vt 0.3595 0.5202
vt 0.3685 0.4925
vt 0.3686 0.4941
vt 0.3707 0.5243
vt 0.3595 0.6567
vt 0.3528 0.5392
vt 0.3526 0.6567
vt 0.3378 0.5331
vt 0.3367 0.5010
vt 0.3368 0.5027
vt 0.3504 0.4941
vt 0.3506 0.4925
vt 0.3484 0.5243
vt 0.1515 0.0508
vt 0.1515 0.0508
vt 0.1239 0.0508
vt 0.1239 0.0508
vt 0.1515 0.1961
vt 0.0186 0.1961
vt 0.0186 0.1961
vt 0.1515 0.1961
vt 0.1515 0.0508
vt 0.1515 0.0508
vt 0.1239 0.0508
vt 0.1239 0.0508
vt 0.1515 0.1961
vt 0.0186 0.1961
vt 0.0186 0.1961
vt 0.1515 0.1961
vt 0.1515 0.0508
vt 0.1515 0.0508
vt 0.1239 0.0508
vt 0.1239 0.0508
vt 0.1515 0.1961
vt 0.0186 0.1961
vt 0.0186 0.1961
vt 0.1515 0.1961
vt 0.1515 0.0508
vt 0.1515 0.0508
vt 0.1239 0.0508
vt 0.1239 0.0508
vt 0.1515 0.1961
vt 0.0186 0.1961
vt 0.0186 0.1961
vt 0.1515 0.1961
vt 0.1515 0.0508
vt 0.1515 0.0508
vt 0.1239 0.0508
vt 0.1239 0.0508
vt 0.1515 0.1961
vt 0.0186 0.1961
vt 0.0186 0.1961
vt 0.1515 0.1961
vt 0.1515 0.0508
vt 0.1515 0.0508
vt 0.1239 0.0508
vt 0.1239 0.0508
vt 0.1515 0.1961
vt 0.0186 0.1961
vt 0.0186 0.1961
vt 0.1515 0.1961
vt 0.1515 0.0508
vt 0.1515 0.0508
vt 0.1239 0.0508
vt 0.1239 0.0508
vt 0.1515 0.1961
vt 0.0186 0.1961
vt 0.0186 0.1961
vt 0.1515 0.1961
vt 0.1515 0.0508
vt 0.1515 0.0508
vt 0.1239 0.0508
vt 0.1239 0.0508
vt 0.1515 0.1961
vt 0.0186 0.1961
vt 0.0186 0.1961
vt 0.1515 0.1961
vt 0.0258 0.3044
vt 0.0258 0.1150
vt 0.0247 0.1124
vt 0.0247 0.3044
vt 0.1419 0.1150
vt 0.1419 0.3044
vt 0.1437 0.3044
vt 0.1437 0.1124
vt 0.0177 0.2918
vt 0.0177 0.1224
vt 0.0170 0.1201
vt 0.0170 0.2918
vt 0.0920 0.1224
vt 0.0920 0.2918
vt 0.0931 0.2918
vt 0.0931 0.1201
vn 1.0000 0.0000 0.0000
vn -1.0000 -0.0000 0.0000
vn 0.0000 -0.0000 1.0000
vn 0.0000 0.0000 -1.0000
vn -0.0152 0.5362 -0.8440
vn 0.6755 -0.0021 -0.7374
vn 0.7051 0.3598 -0.6111
vn -0.0004 0.1896 -0.9819
vn 0.0169 -0.9999 0.0000
vn 0.0178 -0.9818 0.1893
vn 0.0179 -0.9821 0.1874
vn 0.6153 0.7733 -0.1530
vn -0.0182 0.9871 -0.1593
vn -0.7222 0.3519 -0.5955
vn -0.6400 0.7527 -0.1546
vn -0.6928 -0.0047 -0.7211
vn 0.5724 0.8134 0.1039
vn -0.0167 0.9919 0.1258
vn -0.5993 0.7942 0.1001
vn 0.0191 -0.9938 -0.1096
vn -0.0152 0.5362 0.8440
vn 0.7051 0.3598 0.6111
vn 0.6755 -0.0021 0.7374
vn -0.0005 0.1896 0.9819
vn 0.0179 -0.9821 -0.1874
vn 0.0178 -0.9818 -0.1892
vn -0.0182 0.9871 0.1593
vn 0.6153 0.7733 0.1530
vn -0.7222 0.3519 0.5955
vn -0.6399 0.7527 0.1546
vn -0.6928 -0.0047 0.7211
vn -0.0167 0.9919 -0.1258
vn 0.5724 0.8134 -0.1039
vn -0.5993 0.7942 -0.1001
vn 0.0191 -0.9938 0.1096
vn -0.0004 0.1895 -0.9819
vn -0.0004 0.1895 0.9819
vn -0.0005 0.1895 -0.9819
vn 0.0179 -0.9818 0.1892
vn -0.0167 0.9919 0.1259
vn 0.0192 -0.9938 -0.1096
vn 0.0179 -0.9818 -0.1893
vn -0.6400 0.7527 0.1546
vn -0.0167 0.9919 -0.1259
vn 0.0192 -0.9938 0.1096
vn -0.0005 0.1896 -0.9819
vn 0.6153 0.7733 -0.1529
vn 0.0179 -0.9818 -0.1892
vn 0.6153 0.7733 0.1529
vn 0.0179 -0.9818 0.1893
vn -0.0005 0.1895 0.9819
vn 0.3325 0.9431 0.0000
vn 0.0000 -0.4968 0.8679
vn 0.0000 -0.6737 -0.7390
vn 0.9753 -0.2207 -0.0000
vn 0.0000 -1.0000 -0.0000
vn 0.0000 1.0000 0.0000
usemtl None.012
s 1
f 1/1/1 2/2/1 3/3/1 4/4/1
f 5/5/2 6/6/2 7/7/2 8/8/2
f 8/8/3 7/7/3 4/4/3 3/3/3
f 2/2/4 1/1/4 6/6/4 5/5/4
f 9/9/5 10/10/6 11/11/6 12/12/7
f 13/13/8 14/14/8 15/15/8
f 12/12/9 16/16/9 17/17/10 18/18/11
f 9/9/5 12/12/7 18/18/12 19/19/13
f 16/16/14 9/9/5 19/19/13 17/17/15
f 16/16/14 20/20/16 10/10/16 9/9/5
f 19/19/13 18/18/12 14/14/17 13/13/18
f 17/17/15 19/19/13 13/13/18 15/15/19
f 18/18/11 17/17/10 15/15/20 14/14/20
f 21/21/21 12/12/22 11/11/23 22/22/23
f 23/23/24 24/24/24 25/25/24
f 12/12/9 26/26/25 27/27/26 16/16/9
f 21/21/21 28/28/27 26/26/28 12/12/22
f 16/16/29 27/27/30 28/28/27 21/21/21
f 16/16/29 21/21/21 22/22/31 20/20/31
f 28/28/27 23/23/32 25/25/33 26/26/28
f 27/27/30 24/24/34 23/23/32 28/28/27
f 26/26/25 25/25/35 24/24/35 27/27/26
f 29/29/5 30/30/6 31/31/6 32/32/7
f 33/33/36 34/34/36 35/35/36
f 32/32/9 36/36/9 37/37/10 38/38/11
f 29/29/5 32/32/7 38/38/12 39/39/13
f 36/36/14 29/29/5 39/39/13 37/37/15
f 36/36/14 40/40/16 30/30/16 29/29/5
f 39/39/13 38/38/12 34/34/17 33/33/18
f 37/37/15 39/39/13 33/33/18 35/35/19
f 38/38/11 37/37/10 35/35/20 34/34/20
f 41/41/21 32/32/22 31/31/23 42/42/23
f 43/43/24 44/44/24 45/45/24
f 32/32/9 46/46/25 47/47/26 36/36/9
f 41/41/21 48/48/27 46/46/28 32/32/22
f 36/36/29 47/47/30 48/48/27 41/41/21
f 36/36/29 41/41/21 42/42/31 40/40/31
f 48/48/27 43/43/32 45/45/33 46/46/28
f 47/47/30 44/44/34 43/43/32 48/48/27
f 46/46/25 45/45/35 44/44/35 47/47/26
f 49/49/5 50/50/6 51/51/6 52/52/7
f 53/53/36 54/54/36 55/55/36
f 52/52/9 56/56/9 57/57/10 58/58/11
f 49/49/5 52/52/7 58/58/12 59/59/13
f 56/56/14 49/49/5 59/59/13 57/57/15
f 56/56/14 60/60/16 50/50/16 49/49/5
f 59/59/13 58/58/12 54/54/17 53/53/18
f 57/57/15 59/59/13 53/53/18 55/55/19
f 58/58/11 57/57/10 55/55/20 54/54/20
f 61/61/21 52/52/22 51/51/23 62/62/23
f 63/63/24 64/64/24 65/65/24
f 52/52/9 66/66/25 67/67/26 56/56/9
f 61/61/21 68/68/27 66/66/28 52/52/22
f 56/56/29 67/67/30 68/68/27 61/61/21
f 56/56/29 61/61/21 62/62/31 60/60/31
f 68/68/27 63/63/32 65/65/33 66/66/28
f 67/67/30 64/64/34 63/63/32 68/68/27
f 66/66/25 65/65/35 64/64/35 67/67/26
f 69/69/5 70/70/6 71/71/6 72/72/7
f 73/73/8 74/74/8 75/75/8
f 72/72/9 76/76/9 77/77/10 78/78/11
f 69/69/5 72/72/7 78/78/12 79/79/13
f 76/76/14 69/69/5 79/79/13 77/77/15
f 76/76/14 80/80/16 70/70/16 69/69/5
f 79/79/13 78/78/12 74/74/17 73/73/18
f 77/77/15 79/79/13 73/73/18 75/75/19
f 78/78/11 77/77/10 75/75/20 74/74/20
f 81/81/21 72/72/22 71/71/23 82/82/23
f 83/83/37 84/84/37 85/85/37
f 72/72/9 86/86/25 87/87/26 76/76/9
f 81/81/21 88/88/27 86/86/28 72/72/22
f 76/76/29 87/87/30 88/88/27 81/81/21
f 76/76/29 81/81/21 82/82/31 80/80/31
f 88/88/27 83/83/32 85/85/33 86/86/28
f 87/87/30 84/84/34 83/83/32 88/88/27
f 86/86/25 85/85/35 84/84/35 87/87/26
f 89/89/5 90/90/6 91/91/6 92/92/7
f 93/93/38 94/94/38 95/95/38
f 92/92/9 96/96/9 97/97/39 98/98/11
f 89/89/5 92/92/7 98/98/12 99/99/13
f 96/96/14 89/89/5 99/99/13 97/97/15
f 96/96/14 100/100/16 90/90/16 89/89/5
f 99/99/13 98/98/12 94/94/17 93/93/40
f 97/97/15 99/99/13 93/93/40 95/95/19
f 98/98/11 97/97/39 95/95/41 94/94/41
f 101/101/21 92/92/22 91/91/23 102/102/23
f 103/103/37 104/104/37 105/105/37
f 92/92/9 106/106/25 107/107/42 96/96/9
f 101/101/21 108/108/27 106/106/28 92/92/22
f 96/96/29 107/107/43 108/108/27 101/101/21
f 96/96/29 101/101/21 102/102/31 100/100/31
f 108/108/27 103/103/44 105/105/33 106/106/28
f 107/107/43 104/104/34 103/103/44 108/108/27
f 106/106/25 105/105/45 104/104/45 107/107/42
f 109/109/5 110/110/6 111/111/6 112/112/7
f 113/113/46 114/114/46 115/115/46
f 112/112/9 116/116/9 117/117/39 118/118/11
f 109/109/5 112/112/7 118/118/47 119/119/13
f 116/116/14 109/109/5 119/119/13 117/117/15
f 116/116/14 120/120/16 110/110/16 109/109/5
f 119/119/13 118/118/47 114/114/17 113/113/40
f 117/117/15 119/119/13 113/113/40 115/115/19
f 118/118/11 117/117/39 115/115/41 114/114/41
f 121/121/21 112/112/22 111/111/23 122/122/23
f 123/123/24 124/124/24 125/125/24
f 112/112/9 126/126/25 127/127/48 116/116/9
f 121/121/21 128/128/27 126/126/49 112/112/22
f 116/116/29 127/127/43 128/128/27 121/121/21
f 116/116/29 121/121/21 122/122/31 120/120/31
f 128/128/27 123/123/44 125/125/33 126/126/49
f 127/127/43 124/124/34 123/123/44 128/128/27
f 126/126/25 125/125/45 124/124/45 127/127/48
f 129/129/5 130/130/6 131/131/6 132/132/7
f 133/133/36 134/134/36 135/135/36
f 132/132/9 136/136/9 137/137/50 138/138/11
f 129/129/5 132/132/7 138/138/12 139/139/13
f 136/136/14 129/129/5 139/139/13 137/137/15
f 136/136/14 140/140/16 130/130/16 129/129/5
f 139/139/13 138/138/12 134/134/17 133/133/40
f 137/137/15 139/139/13 133/133/40 135/135/19
f 138/138/11 137/137/50 135/135/41 134/134/41
f 141/141/21 132/132/22 131/131/23 142/142/23
f 143/143/51 144/144/51 145/145/51
f 132/132/9 146/146/25 147/147/48 136/136/9
f 141/141/21 148/148/27 146/146/28 132/132/22
f 136/136/29 147/147/43 148/148/27 141/141/21
f 136/136/29 141/141/21 142/142/31 140/140/31
f 148/148/27 143/143/44 145/145/33 146/146/28
f 147/147/43 144/144/34 143/143/44 148/148/27
f 146/146/25 145/145/45 144/144/45 147/147/48
f 149/149/1 150/150/1 151/151/1 152/152/1
f 153/153/3 149/149/3 152/152/3 154/154/3
f 151/151/52 155/155/52 154/154/52 152/152/52
f 150/150/4 156/156/4 155/155/4 151/151/4
f 157/157/1 158/158/1 159/159/1 160/160/1
f 161/161/3 157/157/3 160/160/3 162/162/3
f 159/159/52 163/163/52 162/162/52 160/160/52
f 158/158/4 164/164/4 163/163/4 159/159/4
f 165/165/1 166/166/1 167/167/1 168/168/1
f 169/169/3 165/165/3 168/168/3 170/170/3
f 167/167/52 171/171/52 170/170/52 168/168/52
f 166/166/4 172/172/4 171/171/4 167/167/4
f 173/173/1 174/174/1 175/175/1 176/176/1
f 177/177/3 173/173/3 176/176/3 178/178/3
f 175/175/52 179/179/52 178/178/52 176/176/52
f 174/174/4 180/180/4 179/179/4 175/175/4
f 181/181/1 182/182/1 183/183/1 184/184/1
f 185/185/3 181/181/3 184/184/3 186/186/3
f 183/183/52 187/187/52 186/186/52 184/184/52
f 182/182/4 188/188/4 187/187/4 183/183/4
f 189/189/1 190/190/1 191/191/1 192/192/1
f 193/193/3 189/189/3 192/192/3 194/194/3
f 191/191/52 195/195/52 194/194/52 192/192/52
f 190/190/4 196/196/4 195/195/4 191/191/4
f 197/197/1 198/198/1 199/199/1 200/200/1
f 201/201/3 197/197/3 200/200/3 202/202/3
f 199/199/52 203/203/52 202/202/52 200/200/52
f 198/198/4 204/204/4 203/203/4 199/199/4
f 205/205/1 206/206/1 207/207/1 208/208/1
f 209/209/3 205/205/3 208/208/3 210/210/3
f 207/207/52 211/211/52 210/210/52 208/208/52
f 206/206/4 212/212/4 211/211/4 207/207/4
f 213/213/53 214/214/53 215/215/53 216/216/53
f 217/217/54 218/218/54 219/219/54 220/220/54
f 214/214/55 217/217/55 220/220/55 215/215/55
f 213/213/56 218/218/56 217/217/56 214/214/56
f 216/216/57 215/215/57 220/220/57 219/219/57
f 221/221/53 222/222/53 223/223/53 224/224/53
f 225/225/54 226/226/54 227/227/54 228/228/54
f 222/222/55 225/225/55 228/228/55 223/223/55
f 221/221/56 226/226/56 225/225/56 222/222/56
f 224/224/57 223/223/57 228/228/57 227/227/57
