# Blender v2.78 (sub 0) OBJ File: 'Eingangshalle_UVbearbeiten.blend'
# www.blender.org
mtllib mod_Schuh.mtl
g Schuh.003
v -0.121812 0.060388 -0.548072
v -0.095374 -0.005648 -0.548414
v -0.097456 -0.005416 -0.455368
v -0.122980 0.071372 -0.464210
v -0.092306 0.121100 -0.457736
v -0.092586 0.100430 -0.546060
v -0.066732 0.089372 -0.605480
v -0.086182 0.053354 -0.619926
v -0.065228 -0.006164 -0.613746
v 0.001374 0.049450 -0.651980
v 0.001388 -0.006714 -0.638576
v 0.001500 0.088240 -0.629808
v 0.067550 0.089422 -0.605644
v 0.088354 0.053248 -0.619816
v 0.067458 -0.006162 -0.613792
v 0.138110 0.119202 -0.143318
v 0.101266 -0.005868 -0.122152
v 0.122776 -0.006026 -0.263430
v 0.155972 0.103676 -0.268444
v 0.106902 0.205150 -0.247554
v 0.107780 0.204014 -0.140270
v 0.075684 0.235726 -0.052222
v 0.095834 0.122946 -0.024946
v 0.073804 -0.007844 -0.034020
v -0.000582 0.113512 0.009182
v 0.000000 0.000000 0.000000
v 0.001042 0.251446 -0.023244
v -0.079038 0.230658 -0.052396
v -0.095222 0.121518 -0.023802
v -0.076748 -0.007964 -0.034776
v -0.000164 -0.000090 -0.109822
v -0.099458 -0.006114 -0.123854
v -0.090936 -0.006032 -0.263808
v 0.009512 -0.007824 -0.265974
v 0.017130 0.132898 -0.389996
v 0.122876 0.135572 -0.340782
v 0.109550 0.120766 -0.458746
v 0.006646 0.121852 -0.476754
v -0.081914 0.135084 -0.343916
v -0.080508 0.198014 -0.262378
v 0.009414 0.222630 -0.270274
v 0.014344 -0.009858 -0.349750
v -0.087610 -0.007412 -0.344924
v 0.006248 -0.006830 -0.463576
v 0.115364 -0.005538 -0.456120
v 0.124144 -0.007344 -0.343620
v 0.154996 0.084422 -0.350054
v 0.145824 0.072946 -0.463924
v -0.127246 0.121116 -0.141762
v -0.104658 0.205478 -0.139902
v -0.112786 0.101262 -0.265766
v 0.127904 0.060676 -0.547308
v 0.099344 -0.005642 -0.549272
v 0.095226 0.100602 -0.546462
v 0.002392 -0.006100 -0.556956
v 0.003326 0.102940 -0.560040
v -0.107072 0.081632 -0.334872
v 0.071850 0.214796 -0.235634
v 0.088674 0.208230 -0.154950
v 0.065974 0.233170 -0.074650
v 0.000396 0.247070 -0.050044
v -0.065032 0.230948 -0.074680
v -0.086508 0.212284 -0.152284
v -0.055830 0.217112 -0.234892
v 0.007330 0.226326 -0.259102
v -0.054066 0.018028 -0.229986
v 0.003962 0.028074 -0.252458
v -0.059108 0.019842 -0.083322
v -0.080458 0.007322 -0.156786
v 0.059886 0.019908 -0.083262
v 0.001156 0.037542 -0.060006
v 0.064800 0.013818 -0.229170
v 0.077974 -0.005114 -0.152512
vt 0.6587 0.6441
vt 0.6587 0.5282
vt 0.6431 0.5286
vt 0.6446 0.6634
vt 0.6435 0.7507
vt 0.6583 0.7144
vt 0.6683 0.6950
vt 0.6707 0.6318
vt 0.6697 0.5273
vt 0.6761 0.6249
vt 0.6738 0.5263
vt 0.6723 0.6930
vt 0.6683 0.6951
vt 0.6707 0.6316
vt 0.6697 0.5273
vt 0.5909 0.7474
vt 0.5873 0.5278
vt 0.6110 0.5275
vt 0.6118 0.7201
vt 0.6083 0.8983
vt 0.5903 0.8963
vt 0.5756 0.9520
vt 0.5710 0.7540
vt 0.5725 0.5243
vt 0.5653 0.7374
vt 0.5669 0.5381
vt 0.5707 0.9796
vt 0.5756 0.9431
vt 0.5708 0.7515
vt 0.5727 0.5241
vt 0.5852 0.5379
vt 0.5876 0.5274
vt 0.6110 0.5275
vt 0.6114 0.5244
vt 0.6322 0.7714
vt 0.6239 0.7761
vt 0.6437 0.7501
vt 0.6467 0.7521
vt 0.6245 0.7753
vt 0.6108 0.8858
vt 0.6121 0.9290
vt 0.6254 0.5208
vt 0.6246 0.5251
vt 0.6445 0.5261
vt 0.6433 0.5284
vt 0.6244 0.5252
vt 0.6255 0.6863
vt 0.6446 0.6662
vt 0.5906 0.7508
vt 0.5903 0.8989
vt 0.6114 0.7159
vt 0.6585 0.6446
vt 0.6589 0.5282
vt 0.6584 0.7147
vt 0.6601 0.5274
vt 0.6607 0.7188
vt 0.6229 0.6814
vt 0.6063 0.9152
vt 0.5928 0.9037
vt 0.5794 0.9475
vt 0.5752 0.9719
vt 0.5794 0.9436
vt 0.5924 0.9108
vt 0.6062 0.9193
vt 0.6103 0.9355
vt 0.6054 0.5698
vt 0.6091 0.5874
vt 0.5808 0.5729
vt 0.5931 0.5510
vt 0.5808 0.5731
vt 0.5769 0.6040
vt 0.6052 0.5624
vt 0.5924 0.5291
vn -0.9637 0.1081 -0.2442
vn -0.9138 -0.3484 -0.2087
vn -0.9523 -0.2988 0.0626
vn -0.9918 0.1272 0.0084
vn -0.8588 0.5121 -0.0156
vn -0.7854 0.5632 -0.2567
vn -0.5267 0.5418 -0.6550
vn -0.6822 0.1127 -0.7225
vn -0.6166 -0.2933 -0.7306
vn 0.0014 0.1270 -0.9919
vn 0.0014 -0.2306 -0.9730
vn 0.0031 0.5019 -0.8649
vn 0.5074 0.5490 -0.6642
vn 0.6716 0.1180 -0.7314
vn 0.6063 -0.2922 -0.7396
vn 0.9784 0.0601 0.1976
vn 0.9414 -0.2285 0.2480
vn 0.9537 -0.2834 0.1007
vn 0.9947 0.1027 0.0030
vn 0.9069 0.4207 -0.0230
vn 0.9286 0.3235 0.1819
vn 0.9197 0.2699 0.2850
vn 0.9506 0.0290 0.3092
vn 0.9280 -0.1987 0.3151
vn 0.0002 0.0635 0.9980
vn 0.0040 -0.1113 0.9938
vn 0.3706 -0.1015 0.9232
vn 0.3614 0.0847 0.9285
vn 0.3437 0.2415 0.9075
vn 0.0104 0.2606 0.9654
vn -0.3407 0.2485 0.9068
vn -0.3579 0.0853 0.9298
vn -0.3656 -0.1054 0.9248
vn 0.0015 -1.0000 0.0012
vn 0.0466 -0.9989 0.0080
vn 0.0006 -0.9997 0.0235
vn -0.0006 -0.9997 0.0231
vn 0.0013 -0.9997 0.0228
vn -0.0426 -0.9991 0.0072
vn -0.0830 -0.9963 -0.0209
vn 0.0008 -0.9998 -0.0198
vn 0.0843 -0.9963 -0.0185
vn 0.0053 0.9515 -0.3075
vn 0.1812 0.8904 -0.4176
vn 0.0421 0.9847 -0.1690
vn -0.0003 0.9835 -0.1811
vn -0.0423 0.9850 -0.1675
vn -0.1774 0.8889 -0.4223
vn -0.3307 0.8457 -0.4190
vn -0.0026 0.8935 -0.4491
vn 0.2581 0.9179 -0.3014
vn 0.0000 -1.0000 -0.0014
vn -0.0202 -0.9998 -0.0003
vn -0.0149 -0.9998 -0.0120
vn -0.0008 -0.9999 -0.0122
vn 0.0144 -0.9998 -0.0147
vn 0.0186 -0.9998 0.0004
vn 0.9907 0.1038 -0.0875
vn 0.9469 -0.3214 -0.0078
vn 0.9271 -0.3603 -0.1030
vn 0.9748 0.1376 -0.1756
vn 0.7818 0.5922 -0.1954
vn 0.8369 0.5223 -0.1636
vn -0.9977 0.0468 0.0491
vn -0.9760 -0.1887 0.1088
vn -0.9538 -0.1651 0.2510
vn -0.9682 0.0185 0.2494
vn -0.9456 0.2223 0.2376
vn -0.9646 0.2582 0.0533
vn -0.9315 0.3090 -0.1919
vn -0.9888 0.0675 -0.1334
vn -0.9768 -0.2084 -0.0496
vn 0.9313 0.1172 -0.3449
vn 0.8824 -0.3632 -0.2991
vn 0.7256 0.5933 -0.3485
vn -0.0002 -1.0000 0.0019
vn -0.0076 -1.0000 0.0010
vn -0.0047 -1.0000 0.0068
vn 0.0000 -1.0000 0.0067
vn 0.0049 -1.0000 0.0067
vn 0.0074 -1.0000 -0.0003
vn 0.0000 0.9764 -0.2159
vn 0.0551 0.9737 -0.2212
vn 0.0571 0.9763 -0.2090
vn -0.0009 0.9783 -0.2074
vn -0.0561 0.9771 -0.2053
vn -0.0549 0.9747 -0.2165
vn -0.9965 0.0794 -0.0248
vn -0.9708 -0.2354 0.0458
vn -0.9087 0.4052 -0.1003
vn 0.2972 0.9456 -0.1324
vn 0.2353 0.9660 -0.1074
vn 0.2738 0.9599 -0.0605
vn 0.2019 0.9625 -0.1812
vn 0.2507 0.9488 -0.1921
vn -0.0255 0.9879 -0.1533
vn -0.0299 0.9878 -0.1529
vn -0.2609 0.9554 -0.1382
vn -0.2885 0.9472 -0.1397
vn -0.3968 0.9069 -0.1418
vn -0.4358 0.8890 -0.1403
vn -0.3795 0.8895 -0.2544
vn -0.0503 0.9536 -0.2967
vn 0.0072 0.0349 0.9994
vn 0.6895 0.0245 0.7239
vn 0.7424 0.0239 0.6695
vn 0.0049 0.0350 0.9994
vn 0.9995 0.0295 0.0138
vn 0.6757 0.0474 -0.7356
vn 0.7785 0.0457 -0.6260
vn 0.9987 0.0287 0.0427
vn -0.0054 0.0493 -0.9988
vn -0.6731 0.0491 -0.7380
vn -0.7954 0.0482 -0.6042
vn -0.0033 0.0493 -0.9988
vn -0.9975 0.0451 -0.0548
vn -0.7291 0.0489 0.6827
vn -0.8079 0.0496 0.5872
vn -0.9983 0.0453 -0.0353
usemtl None.012
s 1
f 1/1/1 2/2/2 3/3/3 4/4/4
f 1/1/1 4/4/4 5/5/5 6/6/6
f 1/1/1 6/6/6 7/7/7 8/8/8
f 1/1/1 8/8/8 9/9/9 2/2/2
f 10/10/10 11/11/11 9/9/9 8/8/8
f 10/10/10 8/8/8 7/7/7 12/12/12
f 10/10/10 12/12/12 13/13/13 14/14/14
f 10/10/10 14/14/14 15/15/15 11/11/11
f 16/16/16 17/17/17 18/18/18 19/19/19
f 16/16/16 19/19/19 20/20/20 21/21/21
f 16/16/16 21/21/21 22/22/22 23/23/23
f 16/16/16 23/23/23 24/24/24 17/17/17
f 25/25/25 26/26/26 24/24/27 23/23/28
f 25/25/25 23/23/28 22/22/29 27/27/30
f 25/25/25 27/27/30 28/28/31 29/29/32
f 25/25/25 29/29/32 30/30/33 26/26/26
f 31/31/34 32/32/35 33/33/36 34/34/37
f 31/31/34 34/34/37 18/18/38 17/17/39
f 31/31/34 17/17/39 24/24/40 26/26/41
f 31/31/34 26/26/41 30/30/42 32/32/35
f 35/35/43 36/36/44 37/37/45 38/38/46
f 35/35/43 38/38/46 5/5/47 39/39/48
f 35/35/43 39/39/48 40/40/49 41/41/50
f 35/35/43 41/41/50 20/20/51 36/36/44
f 42/42/52 43/43/53 3/3/54 44/44/55
f 42/42/52 44/44/55 45/45/56 46/46/57
f 42/42/52 46/46/57 18/18/38 34/34/37
f 42/42/52 34/34/37 33/33/36 43/43/53
f 47/47/58 46/46/59 45/45/60 48/48/61
f 47/47/58 48/48/61 37/37/62 36/36/63
f 47/47/58 36/36/63 20/20/20 19/19/19
f 47/47/58 19/19/19 18/18/18 46/46/59
f 49/49/64 32/32/65 30/30/66 29/29/67
f 49/49/64 29/29/67 28/28/68 50/50/69
f 49/49/64 50/50/69 40/40/70 51/51/71
f 49/49/64 51/51/71 33/33/72 32/32/65
f 52/52/73 53/53/74 15/15/15 14/14/14
f 52/52/73 14/14/14 13/13/13 54/54/75
f 52/52/73 54/54/75 37/37/62 48/48/61
f 52/52/73 48/48/61 45/45/60 53/53/74
f 55/55/76 2/2/77 9/9/78 11/11/79
f 55/55/76 11/11/79 15/15/80 53/53/81
f 55/55/76 53/53/81 45/45/56 44/44/55
f 55/55/76 44/44/55 3/3/54 2/2/77
f 56/56/82 54/54/83 13/13/84 12/12/85
f 56/56/82 12/12/85 7/7/86 6/6/87
f 56/56/82 6/6/87 5/5/47 38/38/46
f 56/56/82 38/38/46 37/37/45 54/54/83
f 57/57/88 43/43/89 33/33/72 51/51/71
f 57/57/88 51/51/71 40/40/70 39/39/90
f 57/57/88 39/39/90 5/5/5 4/4/4
f 57/57/88 4/4/4 3/3/3 43/43/89
f 21/21/91 20/20/51 58/58/92 59/59/93
f 22/22/94 21/21/91 59/59/93 60/60/95
f 27/27/96 22/22/94 60/60/95 61/61/97
f 28/28/98 27/27/96 61/61/97 62/62/99
f 50/50/100 28/28/98 62/62/99 63/63/101
f 40/40/49 50/50/100 63/63/101 64/64/102
f 41/41/50 40/40/49 64/64/102 65/65/103
f 20/20/51 41/41/50 65/65/103 58/58/92
f 65/65/104 64/64/105 66/66/106 67/67/107
f 63/63/108 62/62/109 68/68/110 69/69/111
f 61/61/112 60/60/113 70/70/114 71/71/115
f 59/59/116 58/58/117 72/72/118 73/73/119
f 58/58/117 65/65/104 67/67/107 72/72/118
f 64/64/105 63/63/108 69/69/111 66/66/106
f 62/62/109 61/61/112 71/71/115 68/68/110
f 60/60/113 59/59/116 73/73/119 70/70/114
