# Blender v2.79 (sub 0) OBJ File: 'mod_Wand_Ecke.blend'
# www.blender.org
mtllib mod_Wand_Ecke.mtl
o Wand_Ecke
v -0.075000 2.560000 0.500000
v 0.075000 2.560000 0.500000
v -0.075000 0.060000 0.500000
v 0.075000 0.060000 0.500000
v -0.092000 0.000000 0.500000
v 0.092000 0.000000 0.500000
v 0.092000 0.050000 0.500000
v 0.085000 0.057000 0.500000
v -0.085000 0.057000 0.500000
v -0.092000 0.050000 0.500000
v -0.075000 2.560000 0.075000
v -0.092000 0.000000 0.075000
v -0.075000 0.060000 0.075000
v 0.092000 0.000000 0.092000
v 0.085000 0.057000 0.085398
v 0.092000 0.050000 0.092000
v -0.085000 0.057000 0.075000
v -0.092000 0.050000 0.075000
v 0.075000 0.000000 -0.092000
v -0.085000 0.057000 -0.085271
v 0.075000 0.060000 -0.075000
v -0.092000 0.000000 -0.092000
v -0.092000 0.050000 -0.092000
v 0.075000 2.560000 -0.075000
v 0.075000 2.560000 0.075000
v 0.075000 0.060000 0.075000
v 0.500000 0.057000 0.085000
v 0.500000 0.050000 0.092000
v 0.500000 0.000000 0.092000
v 0.500000 0.000000 -0.092000
v 0.500000 2.560000 -0.075000
v 0.500000 0.060000 0.075000
v 0.500000 0.057000 -0.085000
v 0.500000 0.050000 -0.092000
v 0.500000 0.060000 -0.075000
v -0.075000 2.560000 -0.075000
v -0.075000 0.060000 -0.075000
v 0.075000 0.057000 -0.085271
v 0.075000 0.050000 -0.092000
v 0.500000 2.560000 0.075000
vt 0.080328 0.550588
vt 0.080377 0.980641
vt 0.010471 0.980644
vt 0.010457 0.550292
vt 0.105039 0.550469
vt 0.105087 0.980639
vt 0.080379 0.550292
vt 0.080379 0.980646
vt 0.010343 0.980646
vt 0.010343 0.550292
vt 0.010343 0.547305
vt 0.078591 0.547305
vt 0.077455 0.535661
vt 0.077455 0.544318
vt 0.010343 0.544318
vt 0.010343 0.535661
vt 0.010541 0.547282
vt 0.080383 0.547662
vt 0.080392 0.544279
vt 0.010540 0.544296
vt 0.010539 0.535639
vt 0.080423 0.535624
vt 0.010535 0.550268
vt 0.080383 0.550567
vt 0.010471 0.980665
vt 0.080380 0.980669
vt 0.106860 0.547466
vt 0.108029 0.544487
vt 0.078664 0.547258
vt 0.010348 0.547323
vt 0.010348 0.550310
vt 0.010463 0.547305
vt 0.080328 0.547635
vt 0.010346 0.535679
vt 0.010348 0.544336
vt 0.080365 0.535624
vt 0.108036 0.535822
vt 0.080335 0.544279
vt 0.105092 0.980669
vt 0.105092 0.550456
vt 0.108091 0.535823
vt 0.010462 0.544319
vt 0.106759 0.547433
vt 0.010457 0.535661
vt 0.010343 0.980664
vt 0.080379 0.980665
vn 0.0000 0.0000 -1.0000
vn 1.0000 0.0000 0.0000
vn 0.1433 0.9786 0.1474
vn 0.2873 0.9578 0.0000
vn 0.5128 0.8585 0.0000
vn 0.2237 0.9503 0.2167
vn 0.8970 0.4421 0.0000
vn 0.9239 0.3827 0.0000
vn -0.5128 0.8585 0.0000
vn -0.9239 0.3827 0.0000
vn -1.0000 0.0000 0.0000
vn -0.2873 0.9578 0.0000
vn -0.3355 0.8765 -0.3453
vn -0.9566 0.2915 0.0000
vn 0.0002 0.8563 0.5165
vn 0.0001 0.9594 0.2821
vn 0.0000 0.9594 -0.2821
vn 0.0001 0.9589 -0.2838
vn 0.0002 0.8570 -0.5153
vn 0.0001 0.8561 -0.5168
vn 0.0002 0.4378 0.8991
vn 0.0000 0.0000 1.0000
vn 0.0002 0.3761 0.9266
vn 0.0000 0.2794 -0.9602
vn 0.0001 0.3758 -0.9267
vn -0.1475 0.9788 -0.1423
vn 0.0001 0.3782 -0.9257
usemtl None
s off
f 21/1/1 24/2/1 31/3/1 35/4/1
f 21/1/1 37/5/1 36/6/1 24/2/1
s 1
f 26/7/2 25/8/2 2/9/2 4/10/2
f 26/7/3 4/10/4 8/11/5 15/12/6
f 14/13/2 16/14/7 7/15/8 6/16/2
f 15/12/6 8/11/5 7/15/8 16/14/7
f 9/17/9 17/18/9 18/19/10 10/20/10
f 5/21/11 10/20/10 18/19/10 12/22/11
f 3/23/12 13/24/12 17/18/9 9/17/9
f 3/23/11 1/25/11 11/26/11 13/24/11
f 17/18/9 20/27/13 23/28/14 18/19/10
f 26/7/3 15/29/6 27/30/15 32/31/16
f 21/1/17 35/4/18 33/32/19 38/33/20
f 16/14/21 14/13/22 29/34/22 28/35/23
f 19/36/1 22/37/1 23/28/24 39/38/25
f 15/29/6 16/14/21 28/35/23 27/30/15
f 13/24/11 11/26/11 36/39/11 37/40/11
f 12/22/11 18/19/10 23/28/14 22/41/11
f 37/40/26 20/27/13 17/18/9 13/24/12
f 39/38/25 38/33/20 33/32/19 34/42/27
f 23/28/24 20/43/13 38/33/20 39/38/25
f 37/5/26 21/1/17 38/33/20 20/43/13
f 19/36/1 39/38/25 34/42/27 30/44/1
f 26/7/22 32/31/22 40/45/22 25/46/22
