# Blender v2.79 (sub 0) OBJ File: 'mod_Brotlaib_vers2.blend'
# www.blender.org
mtllib mod_Brotlaib.mtl
o Brotlaib
v -0.078165 0.006181 0.148013
v -0.061692 0.108756 0.138154
v -0.078192 0.006266 -0.144546
v -0.061720 0.108799 -0.134763
v 0.078165 0.006181 0.148013
v 0.061692 0.108756 0.138154
v 0.078192 0.006266 -0.144546
v 0.061720 0.108799 -0.134763
v -0.091010 0.003009 -0.070009
v -0.086555 0.002528 0.000980
v -0.091004 0.002917 0.073251
v -0.069536 0.128073 0.071355
v -0.062683 0.136506 -0.001027
v -0.069563 0.128114 -0.068185
v 0.091004 0.002917 0.073251
v 0.086555 0.002528 0.000980
v 0.091010 0.003009 -0.070009
v 0.069563 0.128115 -0.068185
v 0.062683 0.136506 -0.001027
v 0.069536 0.128073 0.071354
v 0.023647 0.005076 -0.158136
v -0.023647 0.005076 -0.158136
v -0.021764 0.120588 -0.145993
v 0.021764 0.120588 -0.145993
v -0.023639 0.005012 0.162008
v 0.023639 0.005012 0.162008
v 0.021758 0.120567 0.149647
v -0.021758 0.120567 0.149647
v -0.027215 0.142469 -0.070951
v 0.027215 0.142469 -0.070951
v -0.026040 0.152925 -0.001206
v 0.026040 0.152925 -0.001206
v -0.027208 0.142460 0.074102
v 0.027208 0.142460 0.074102
v 0.028719 0.002237 -0.072996
v -0.028719 0.002237 -0.072996
v 0.031714 -0.000000 0.000000
v -0.031714 0.000000 -0.000000
v 0.028728 0.002169 0.076234
v -0.028728 0.002169 0.076234
v -0.076886 0.038443 0.151892
v -0.071527 0.074849 0.153391
v -0.071510 0.074905 -0.149729
v -0.077703 0.033360 -0.148396
v 0.071510 0.074905 -0.149729
v 0.077703 0.033360 -0.148396
v 0.071527 0.074849 0.153391
v 0.077776 0.038443 0.151892
v 0.082403 0.086610 -0.073296
v 0.087104 0.042463 -0.071484
v 0.076160 0.092162 -0.001625
v 0.080634 0.043271 -0.000939
v 0.082356 0.086534 0.076549
v 0.087260 0.048577 0.074731
v -0.082356 0.086534 0.076549
v -0.087260 0.043897 0.074731
v -0.076160 0.092162 -0.001625
v -0.080634 0.043271 -0.000939
v -0.082403 0.086610 -0.073296
v -0.087104 0.041696 -0.071484
v 0.024425 0.078910 0.170304
v 0.025094 0.038525 0.169236
v -0.024425 0.078910 0.170304
v -0.025094 0.038525 0.169236
v -0.024432 0.078963 -0.166158
v -0.024855 0.032872 -0.165131
v 0.024432 0.078963 -0.166158
v 0.024855 0.032872 -0.165131
v -0.085641 0.002849 -0.046346
v -0.091987 0.002688 -0.022683
v -0.070929 0.133709 -0.023413
v -0.061487 0.130912 -0.045799
v 0.091986 0.002688 -0.022683
v 0.085641 0.002849 -0.046346
v 0.061487 0.130912 -0.045799
v 0.070929 0.133709 -0.023413
v -0.029717 0.001492 -0.048664
v -0.030716 0.000746 -0.024332
v 0.029717 0.001492 -0.048664
v 0.030716 0.000746 -0.024332
v 0.026823 0.145954 -0.047703
v 0.026432 0.149440 -0.024455
v -0.026823 0.145954 -0.047703
v -0.026432 0.149440 -0.024455
v -0.090449 0.042746 -0.024454
v -0.077706 0.042221 -0.047969
v -0.085474 0.090311 -0.025515
v -0.073472 0.088461 -0.049405
v 0.077706 0.042732 -0.047969
v 0.090449 0.043002 -0.024454
v 0.073472 0.088461 -0.049406
v 0.085474 0.090311 -0.025515
v -0.091985 0.002657 0.025070
v -0.085638 0.002787 0.049161
v -0.061471 0.130884 0.047227
v -0.070920 0.133695 0.023100
v 0.085638 0.002787 0.049161
v 0.091985 0.002657 0.025070
v 0.070920 0.133695 0.023100
v 0.061471 0.130884 0.047227
v -0.030719 0.000723 0.025411
v -0.029723 0.001446 0.050823
v 0.030719 0.000723 0.025411
v 0.029723 0.001446 0.050823
v 0.026429 0.149437 0.023897
v 0.026819 0.145948 0.048999
v -0.026429 0.149437 0.023897
v -0.026819 0.145948 0.048999
v -0.077797 0.043688 0.049508
v -0.090500 0.043480 0.024285
v -0.073444 0.088410 0.050491
v -0.085458 0.090286 0.024433
v 0.090500 0.045040 0.024285
v 0.077797 0.046808 0.049508
v 0.085458 0.090286 0.024433
v 0.073444 0.088410 0.050491
v -0.058600 0.121676 -0.090377
v -0.064334 0.115238 -0.112570
v 0.082854 0.004095 -0.094855
v 0.086030 0.005181 -0.119700
v -0.086030 0.005181 -0.119700
v -0.082854 0.004095 -0.094855
v 0.064334 0.115238 -0.112571
v 0.058600 0.121676 -0.090378
v -0.025337 0.004130 -0.129756
v -0.027028 0.003184 -0.101376
v 0.025337 0.004130 -0.129756
v 0.027028 0.003184 -0.101376
v 0.023581 0.127882 -0.120979
v 0.025398 0.135175 -0.095965
v -0.023581 0.127882 -0.120979
v -0.025398 0.135175 -0.095965
v 0.080837 0.036394 -0.122759
v 0.073500 0.039428 -0.097122
v 0.075141 0.078807 -0.124252
v 0.068950 0.082709 -0.098774
v -0.073500 0.038917 -0.097122
v -0.080836 0.036138 -0.122759
v -0.068950 0.082709 -0.098774
v -0.075141 0.078807 -0.124251
v -0.082841 0.004005 0.098172
v -0.086008 0.005093 0.123093
v 0.058576 0.121634 0.093621
v 0.064306 0.115195 0.115887
v -0.064306 0.115195 0.115887
v -0.058576 0.121634 0.093621
v 0.086008 0.005093 0.123093
v 0.082841 0.004005 0.098172
v 0.025391 0.135162 0.099284
v 0.023575 0.127865 0.124465
v -0.025391 0.135162 0.099284
v -0.023575 0.127865 0.124465
v -0.027031 0.003117 0.104825
v -0.025335 0.004065 0.133417
v 0.027031 0.003117 0.104825
v 0.025335 0.004065 0.133417
v -0.080344 0.040261 0.126171
v -0.073352 0.042079 0.100451
v -0.075136 0.078744 0.127777
v -0.068927 0.082639 0.102163
v 0.073612 0.045199 0.100451
v 0.080937 0.041821 0.126171
v 0.068927 0.082639 0.102163
v 0.075136 0.078744 0.127777
vt 0.716593 0.510151
vt 0.683362 0.450642
vt 0.724191 0.448043
vt 0.763751 0.507364
vt 0.798056 0.306629
vt 0.728356 0.311876
vt 0.725734 0.238997
vt 0.795822 0.220374
vt 0.275323 0.175776
vt 0.308808 0.235172
vt 0.267977 0.237788
vt 0.227940 0.178629
vt 0.193967 0.378430
vt 0.263483 0.373390
vt 0.266334 0.446067
vt 0.196219 0.464400
vt 0.269857 0.876534
vt 0.287478 0.980430
vt 0.244767 0.967023
vt 0.220881 0.873633
vt 0.303404 0.378228
vt 0.307590 0.448991
vt 0.646771 0.383281
vt 0.644305 0.443408
vt 0.604654 0.452212
vt 0.606238 0.384980
vt 0.534951 0.382425
vt 0.532836 0.452006
vt 0.499423 0.441946
vt 0.499817 0.380853
vt 0.424155 0.383477
vt 0.424410 0.443774
vt 0.386648 0.451155
vt 0.385442 0.384065
vt 0.671861 0.879423
vt 0.660740 0.975010
vt 0.618157 0.988954
vt 0.623256 0.882313
vt 0.539937 0.885707
vt 0.537131 0.990623
vt 0.496619 0.981324
vt 0.498287 0.887388
vt 0.411307 0.884025
vt 0.414135 0.979760
vt 0.372892 0.988945
vt 0.367797 0.882331
vt 0.671052 0.177053
vt 0.645159 0.243124
vt 0.605533 0.234032
vt 0.623759 0.171418
vt 0.541411 0.167807
vt 0.533729 0.233767
vt 0.500298 0.243609
vt 0.501335 0.172504
vt 0.414726 0.171719
vt 0.425275 0.241279
vt 0.387606 0.233631
vt 0.369728 0.170948
vt 0.320743 0.508039
vt 0.346961 0.442084
vt 0.368220 0.513844
vt 0.456887 0.517906
vt 0.463495 0.451660
vt 0.500070 0.513074
vt 0.580602 0.513885
vt 0.569468 0.444439
vt 0.622460 0.514836
vt 0.414135 0.686554
vt 0.411306 0.782292
vt 0.367795 0.783986
vt 0.372890 0.677368
vt 0.537134 0.675694
vt 0.539937 0.780605
vt 0.498299 0.778927
vt 0.496624 0.684991
vt 0.660735 0.691305
vt 0.671859 0.786889
vt 0.623253 0.784000
vt 0.618155 0.677363
vt 0.424487 0.301511
vt 0.385898 0.300615
vt 0.535333 0.303301
vt 0.500564 0.304683
vt 0.646911 0.303435
vt 0.606648 0.301329
vt 0.303532 0.305400
vt 0.264030 0.310112
vt 0.287472 0.685886
vt 0.269854 0.789786
vt 0.220878 0.792689
vt 0.244760 0.699296
vt 0.199889 0.217608
vt 0.194507 0.302121
vt 0.792264 0.468448
vt 0.727854 0.375504
vt 0.797502 0.383612
vt 0.922613 0.390830
vt 0.872454 0.389182
vt 0.874139 0.304266
vt 0.925346 0.305049
vt 0.914819 0.490604
vt 0.866388 0.485334
vt 0.069737 0.294563
vt 0.129394 0.296463
vt 0.127724 0.381261
vt 0.066867 0.380284
vt 0.078003 0.194823
vt 0.135458 0.200781
vt 0.586253 0.660435
vt 0.585398 0.589281
vt 0.628316 0.589026
vt 0.631150 0.658102
vt 0.449821 0.663245
vt 0.454089 0.592218
vt 0.498969 0.591842
vt 0.495449 0.663937
vt 0.311038 0.648491
vt 0.312954 0.578140
vt 0.362295 0.584250
vt 0.358560 0.656896
vt 0.406325 0.025720
vt 0.409944 0.103686
vt 0.364987 0.108692
vt 0.360911 0.027781
vt 0.542473 0.021815
vt 0.542987 0.092935
vt 0.500694 0.093795
vt 0.497414 0.021815
vt 0.680833 0.036593
vt 0.679269 0.102372
vt 0.629829 0.098517
vt 0.633169 0.028078
vt 0.129682 0.477363
vt 0.070853 0.482444
vt 0.266969 0.041563
vt 0.268121 0.109425
vt 0.220556 0.110594
vt 0.219369 0.050462
vt 0.872137 0.206198
vt 0.921765 0.202944
vt 0.725342 0.644858
vt 0.725227 0.586696
vt 0.772823 0.584560
vt 0.772980 0.635498
vt 0.581862 0.172155
vt 0.586960 0.097600
vt 0.588229 0.025537
vt 0.540117 0.518002
vt 0.541321 0.593320
vt 0.540524 0.664033
vt 0.570408 0.384025
vt 0.570728 0.302015
vt 0.570284 0.241571
vt 0.581590 0.884012
vt 0.581589 0.782302
vt 0.577645 0.686552
vt 0.577645 0.979765
vt 0.458189 0.167418
vt 0.455886 0.095724
vt 0.451960 0.022352
vt 0.413360 0.513367
vt 0.407759 0.586412
vt 0.403929 0.659595
vt 0.462354 0.382211
vt 0.462738 0.303129
vt 0.464400 0.233662
vt 0.454805 0.885716
vt 0.454805 0.780602
vt 0.455381 0.675694
vt 0.455378 0.990620
vt 0.669671 0.509437
vt 0.677781 0.585021
vt 0.678691 0.649821
vt 0.774522 0.101759
vt 0.765558 0.179283
vt 0.718187 0.176463
vt 0.726887 0.100137
vt 0.774494 0.050977
vt 0.726958 0.041841
vt 0.688405 0.380203
vt 0.688489 0.307096
vt 0.684472 0.236152
vt 0.769082 0.792671
vt 0.769085 0.873637
vt 0.720472 0.876532
vt 0.720469 0.789779
vt 0.745890 0.699249
vt 0.703308 0.685852
vt 0.745897 0.967064
vt 0.703314 0.980462
vt 0.322333 0.176558
vt 0.315709 0.111937
vt 0.313115 0.036053
vt 0.218261 0.573259
vt 0.225981 0.505443
vt 0.273498 0.508448
vt 0.265704 0.577526
vt 0.216773 0.633700
vt 0.264439 0.643221
vt 0.318829 0.879433
vt 0.318827 0.786885
vt 0.330177 0.691324
vt 0.345085 0.381932
vt 0.345272 0.302322
vt 0.347919 0.242381
vt 0.330182 0.974991
vn -0.9763 0.2165 0.0024
vn -0.7665 0.6348 -0.0971
vn -0.6232 0.6133 -0.4852
vn -0.7207 0.2360 -0.6518
vn 0.1703 0.2233 -0.9597
vn 0.1712 0.7519 -0.6367
vn 0.6232 0.6133 -0.4852
vn 0.7205 0.2361 -0.6520
vn 0.9736 0.2282 0.0005
vn 0.7670 0.6344 0.0961
vn 0.6251 0.6152 0.4804
vn 0.7190 0.2430 0.6511
vn -0.1748 0.2252 0.9585
vn -0.1731 0.7546 0.6329
vn -0.6251 0.6152 0.4804
vn -0.7233 0.2358 0.6490
vn 0.0127 -0.9992 0.0369
vn 0.7975 -0.6028 0.0233
vn 0.5891 -0.6169 0.5218
vn 0.0994 -0.7368 0.6687
vn -0.1793 0.9443 0.2758
vn -0.7670 0.6344 0.0961
vn -0.1836 0.9397 -0.2885
vn -0.6510 0.6948 -0.3058
vn -0.7649 0.6340 -0.1139
vn -0.1873 0.9585 -0.2149
vn -0.1860 0.9726 -0.1396
vn -0.7680 0.6358 -0.0769
vn -0.6674 0.7447 0.0023
vn -0.1832 0.9831 -0.0038
vn -0.1837 0.9741 0.1319
vn -0.6779 0.7245 0.1244
vn -0.7621 0.6359 0.1210
vn -0.1875 0.9594 0.2105
vn 0.0100 -0.9993 -0.0363
vn 0.7120 -0.6906 -0.1268
vn 0.7997 -0.5982 -0.0513
vn 0.0091 -0.9995 -0.0310
vn 0.0168 -0.9995 -0.0250
vn 0.7881 -0.6146 -0.0322
vn 0.6921 -0.7218 -0.0038
vn 0.0198 -0.9998 -0.0010
vn 0.0115 -0.9996 0.0234
vn 0.6915 -0.7212 0.0405
vn 0.7916 -0.6087 0.0535
vn 0.0089 -0.9995 0.0299
vn 0.9735 0.1946 -0.1202
vn 0.6510 0.6948 -0.3058
vn 0.7649 0.6340 -0.1139
vn 0.9744 0.2021 -0.0984
vn 0.9782 0.1982 -0.0621
vn 0.7680 0.6358 -0.0769
vn 0.6674 0.7447 0.0023
vn 0.9775 0.2103 0.0149
vn 0.9779 0.2037 0.0470
vn 0.6779 0.7245 0.1244
vn 0.7621 0.6359 0.1210
vn 0.9713 0.2107 0.1097
vn -0.9731 0.1964 0.1201
vn -0.6518 0.6945 0.3045
vn -0.9726 0.2049 0.1099
vn -0.9785 0.1990 0.0542
vn -0.7655 0.6388 0.0764
vn -0.9776 0.2099 0.0154
vn -0.9792 0.1968 -0.0497
vn -0.6717 0.7284 -0.1347
vn -0.9745 0.2014 -0.0983
vn -0.6949 -0.7178 0.0432
vn -0.0115 -0.9996 0.0234
vn -0.0089 -0.9995 0.0299
vn -0.7959 -0.6029 0.0551
vn -0.7884 -0.6143 -0.0325
vn -0.0168 -0.9995 -0.0250
vn -0.0198 -0.9998 -0.0010
vn -0.6926 -0.7213 -0.0032
vn -0.7129 -0.6897 -0.1266
vn -0.0100 -0.9993 -0.0363
vn -0.0091 -0.9995 -0.0310
vn -0.8006 -0.5970 -0.0514
vn 0.1837 0.9741 0.1319
vn 0.1875 0.9594 0.2105
vn 0.1860 0.9726 -0.1396
vn 0.1832 0.9831 -0.0038
vn 0.1836 0.9397 -0.2885
vn 0.1873 0.9585 -0.2149
vn 0.1793 0.9443 0.2758
vn 0.1731 0.7546 0.6329
vn -0.8042 -0.5938 0.0252
vn -0.0127 -0.9992 0.0369
vn -0.1002 -0.7362 0.6693
vn -0.5954 -0.6101 0.5228
vn 0.1741 0.2260 0.9584
vn -0.1712 0.7519 -0.6367
vn -0.1703 0.2233 -0.9597
vn -0.0956 -0.7476 -0.6572
vn -0.1495 -0.1153 -0.9820
vn 0.1495 -0.1153 -0.9820
vn 0.0956 -0.7476 -0.6572
vn -0.5901 -0.6181 -0.5193
vn -0.7473 -0.0002 -0.6645
vn 0.1548 -0.1014 0.9827
vn -0.1559 -0.1013 0.9825
vn 0.7530 0.0096 0.6579
vn -0.6926 -0.7194 -0.0527
vn -0.9921 0.1147 -0.0503
vn -0.9899 0.1286 -0.0601
vn -0.7863 -0.6166 0.0394
vn -0.9946 0.0970 0.0372
vn -0.9952 0.0972 0.0115
vn -0.7083 -0.6945 0.1260
vn -0.9826 0.1447 0.1162
vn -0.9899 0.1247 0.0674
vn 0.9919 0.1181 0.0470
vn 0.9903 0.1231 0.0645
vn 0.9940 0.0992 -0.0455
vn 0.9952 0.0970 0.0110
vn 0.9826 0.1476 -0.1123
vn 0.9900 0.1278 -0.0599
vn -0.7503 0.0097 0.6610
vn 0.9900 0.1404 -0.0122
vn 0.7471 -0.0004 -0.6647
vn 0.5900 -0.6182 -0.5194
vn -0.8057 -0.5919 -0.0217
vn -0.9897 0.1422 0.0134
vn 0.9791 0.1974 -0.0494
vn 0.9922 0.1144 -0.0501
vn 0.6920 -0.7200 -0.0521
vn -0.9782 0.1980 -0.0623
vn -0.9940 0.0993 -0.0463
vn -0.1835 0.9727 -0.1419
vn 0.1835 0.9727 -0.1419
vn 0.6717 0.7284 -0.1347
vn 0.0118 -0.9996 -0.0253
vn -0.0118 -0.9996 -0.0253
vn 0.9782 0.2006 0.0529
vn 0.9947 0.0969 0.0335
vn 0.7851 -0.6182 0.0373
vn -0.9786 0.1998 0.0485
vn -0.9918 0.1185 0.0485
vn -0.1860 0.9739 0.1298
vn 0.1860 0.9739 0.1298
vn 0.7655 0.6388 0.0764
vn 0.0166 -0.9996 0.0231
vn -0.0166 -0.9996 0.0231
vn -0.9736 0.1941 -0.1199
vn -0.9826 0.1483 -0.1116
vn 0.9762 0.2169 0.0020
vn 0.9898 0.1420 0.0128
vn 0.8053 -0.5925 -0.0223
vn -0.1784 0.9441 -0.2772
vn 0.1784 0.9441 -0.2772
vn 0.7665 0.6348 -0.0971
vn 0.0128 -0.9992 -0.0370
vn -0.0128 -0.9992 -0.0370
vn 0.9716 0.2039 0.1194
vn 0.9829 0.1432 0.1158
vn 0.7019 -0.7015 0.1231
vn -0.9760 0.2178 0.0001
vn -0.9900 0.1403 -0.0109
vn 0.0099 -0.9993 0.0361
vn -0.0099 -0.9993 0.0361
vn -0.1842 0.9400 0.2870
vn 0.1842 0.9400 0.2870
vn 0.6518 0.6945 0.3045
usemtl None
s 1
f 140/1/1 118/2/2 4/3/3 43/4/4
f 67/5/5 24/6/6 8/7/7 45/8/8
f 164/9/9 144/10/10 6/11/11 47/12/12
f 63/13/13 28/14/14 2/15/15 42/16/16
f 156/17/17 147/18/18 5/19/19 26/20/20
f 152/21/21 145/22/22 2/15/15 28/14/14
f 132/23/23 117/24/24 14/25/25 29/26/26
f 84/27/27 71/28/28 13/29/29 31/30/30
f 108/31/31 95/32/32 12/33/33 33/34/34
f 128/35/35 119/36/36 17/37/37 35/38/38
f 80/39/39 73/40/40 16/41/41 37/42/42
f 104/43/43 97/44/44 15/45/45 39/46/46
f 136/47/47 124/48/48 18/49/49 49/50/50
f 92/51/51 76/52/52 19/53/53 51/54/54
f 116/55/55 100/56/56 20/57/57 53/58/58
f 160/59/59 146/60/60 12/33/33 55/61/61
f 112/62/62 96/63/63 13/29/29 57/64/64
f 88/65/65 72/66/66 14/25/25 59/67/67
f 94/68/68 102/69/69 40/70/70 11/71/71
f 102/69/69 104/43/43 39/46/46 40/70/70
f 70/72/72 78/73/73 38/74/74 10/75/75
f 78/73/73 80/39/39 37/42/42 38/74/74
f 122/76/76 126/77/77 36/78/78 9/79/79
f 126/77/77 128/35/35 35/38/38 36/78/78
f 100/56/56 106/80/80 34/81/81 20/57/57
f 106/80/80 108/31/31 33/34/34 34/81/81
f 76/52/52 82/82/82 32/83/83 19/53/53
f 82/82/82 84/27/27 31/30/30 32/83/83
f 124/48/48 130/84/84 30/85/85 18/49/49
f 130/84/84 132/23/23 29/26/26 30/85/85
f 144/10/10 150/86/86 27/87/87 6/11/11
f 150/86/86 152/21/21 28/14/14 27/87/87
f 142/88/88 154/89/89 25/90/90 1/91/91
f 154/89/89 156/17/17 26/20/20 25/90/90
f 47/92/12 6/11/11 27/87/87 61/93/92
f 61/93/92 27/87/87 28/14/14 63/13/13
f 43/94/4 4/3/3 23/95/93 65/96/94
f 65/96/94 23/95/93 24/6/6 67/5/5
f 22/97/95 66/98/96 68/99/97 21/100/98
f 66/98/96 65/96/94 67/5/5 68/99/97
f 3/101/99 44/102/100 66/98/96 22/97/95
f 44/102/100 43/94/4 65/96/94 66/98/96
f 26/103/20 62/104/101 64/105/102 25/106/90
f 62/104/101 61/93/92 63/13/13 64/105/102
f 5/107/19 48/108/103 62/104/101 26/103/20
f 48/108/103 47/92/12 61/93/92 62/104/101
f 69/109/104 86/110/105 60/111/106 9/112/79
f 86/110/105 88/65/65 59/67/67 60/111/106
f 93/113/107 110/114/108 58/115/109 10/116/75
f 110/114/108 112/62/62 57/64/64 58/115/109
f 141/117/110 158/118/111 56/119/112 11/120/71
f 158/118/111 160/59/59 55/61/61 56/119/112
f 97/121/44 114/122/113 54/123/114 15/124/45
f 114/122/113 116/55/55 53/58/58 54/123/114
f 73/125/40 90/126/115 52/127/116 16/128/41
f 90/126/115 92/51/51 51/54/54 52/127/116
f 119/129/36 134/130/117 50/131/118 17/132/37
f 134/130/117 136/47/47 49/50/50 50/131/118
f 25/106/90 64/105/102 41/133/119 1/134/91
f 64/105/102 63/13/13 42/16/16 41/133/119
f 147/135/18 162/136/120 48/137/103 5/138/19
f 162/136/120 164/9/9 47/12/12 48/137/103
f 21/100/98 68/99/97 46/139/121 7/140/122
f 68/99/97 67/5/5 45/8/8 46/139/121
f 121/141/123 138/142/124 44/143/100 3/144/99
f 138/142/124 140/1/1 43/4/4 44/143/100
f 50/131/118 49/50/50 91/145/125 89/146/126
f 89/146/126 91/145/125 92/51/51 90/126/115
f 17/132/37 50/131/118 89/146/126 74/147/127
f 74/147/127 89/146/126 90/126/115 73/125/40
f 58/115/109 57/64/64 87/148/128 85/149/129
f 85/149/129 87/148/128 88/65/65 86/110/105
f 10/116/75 58/115/109 85/149/129 70/150/72
f 70/150/72 85/149/129 86/110/105 69/109/104
f 30/85/85 29/26/26 83/151/130 81/152/131
f 81/152/131 83/151/130 84/27/27 82/82/82
f 18/49/49 30/85/85 81/152/131 75/153/132
f 75/153/132 81/152/131 82/82/82 76/52/52
f 36/78/78 35/38/38 79/154/133 77/155/134
f 77/155/134 79/154/133 80/39/39 78/73/73
f 9/79/79 36/78/78 77/155/134 69/156/104
f 69/156/104 77/155/134 78/73/73 70/72/72
f 57/64/64 13/29/29 71/28/28 87/148/128
f 87/148/128 71/28/28 72/66/66 88/65/65
f 49/50/50 18/49/49 75/153/132 91/145/125
f 91/145/125 75/153/132 76/52/52 92/51/51
f 35/38/38 17/37/37 74/157/127 79/154/133
f 79/154/133 74/157/127 73/40/40 80/39/39
f 29/26/26 14/25/25 72/66/66 83/151/130
f 83/151/130 72/66/66 71/28/28 84/27/27
f 52/127/116 51/54/54 115/158/135 113/159/136
f 113/159/136 115/158/135 116/55/55 114/122/113
f 16/128/41 52/127/116 113/159/136 98/160/137
f 98/160/137 113/159/136 114/122/113 97/121/44
f 56/119/112 55/61/61 111/161/138 109/162/139
f 109/162/139 111/161/138 112/62/62 110/114/108
f 11/120/71 56/119/112 109/162/139 94/163/68
f 94/163/68 109/162/139 110/114/108 93/113/107
f 32/83/83 31/30/30 107/164/140 105/165/141
f 105/165/141 107/164/140 108/31/31 106/80/80
f 19/53/53 32/83/83 105/165/141 99/166/142
f 99/166/142 105/165/141 106/80/80 100/56/56
f 38/74/74 37/42/42 103/167/143 101/168/144
f 101/168/144 103/167/143 104/43/43 102/69/69
f 10/75/75 38/74/74 101/168/144 93/169/107
f 93/169/107 101/168/144 102/69/69 94/68/68
f 55/61/61 12/33/33 95/32/32 111/161/138
f 111/161/138 95/32/32 96/63/63 112/62/62
f 51/54/54 19/53/53 99/166/142 115/158/135
f 115/158/135 99/166/142 100/56/56 116/55/55
f 37/42/42 16/41/41 98/170/137 103/167/143
f 103/167/143 98/170/137 97/44/44 104/43/43
f 31/30/30 13/29/29 96/63/63 107/164/140
f 107/164/140 96/63/63 95/32/32 108/31/31
f 60/111/106 59/67/67 139/171/145 137/172/146
f 137/172/146 139/171/145 140/1/1 138/142/124
f 9/112/79 60/111/106 137/172/146 122/173/76
f 122/173/76 137/172/146 138/142/124 121/141/123
f 46/174/121 45/175/8 135/176/147 133/177/148
f 133/177/148 135/176/147 136/47/47 134/130/117
f 7/178/122 46/174/121 133/177/148 120/179/149
f 120/179/149 133/177/148 134/130/117 119/129/36
f 24/6/6 23/95/93 131/180/150 129/181/151
f 129/181/151 131/180/150 132/23/23 130/84/84
f 8/7/7 24/6/6 129/181/151 123/182/152
f 123/182/152 129/181/151 130/84/84 124/48/48
f 22/183/95 21/184/98 127/185/153 125/186/154
f 125/186/154 127/185/153 128/35/35 126/77/77
f 3/187/99 22/183/95 125/186/154 121/188/123
f 121/188/123 125/186/154 126/77/77 122/76/76
f 45/175/8 8/7/7 123/182/152 135/176/147
f 135/176/147 123/182/152 124/48/48 136/47/47
f 21/184/98 7/189/122 120/190/149 127/185/153
f 127/185/153 120/190/149 119/36/36 128/35/35
f 23/95/93 4/3/3 118/2/2 131/180/150
f 131/180/150 118/2/2 117/24/24 132/23/23
f 59/67/67 14/25/25 117/24/24 139/171/145
f 139/171/145 117/24/24 118/2/2 140/1/1
f 54/123/114 53/58/58 163/191/155 161/192/156
f 161/192/156 163/191/155 164/9/9 162/136/120
f 15/124/45 54/123/114 161/192/156 148/193/157
f 148/193/157 161/192/156 162/136/120 147/135/18
f 41/194/119 42/195/16 159/196/158 157/197/159
f 157/197/159 159/196/158 160/59/59 158/118/111
f 1/198/91 41/194/119 157/197/159 142/199/88
f 142/199/88 157/197/159 158/118/111 141/117/110
f 40/70/70 39/46/46 155/200/160 153/201/161
f 153/201/161 155/200/160 156/17/17 154/89/89
f 11/71/71 40/70/70 153/201/161 141/202/110
f 141/202/110 153/201/161 154/89/89 142/88/88
f 34/81/81 33/34/34 151/203/162 149/204/163
f 149/204/163 151/203/162 152/21/21 150/86/86
f 20/57/57 34/81/81 149/204/163 143/205/164
f 143/205/164 149/204/163 150/86/86 144/10/10
f 42/195/16 2/15/15 145/22/22 159/196/158
f 159/196/158 145/22/22 146/60/60 160/59/59
f 33/34/34 12/33/33 146/60/60 151/203/162
f 151/203/162 146/60/60 145/22/22 152/21/21
f 39/46/46 15/45/45 148/206/157 155/200/160
f 155/200/160 148/206/157 147/18/18 156/17/17
f 53/58/58 20/57/57 143/205/164 163/191/155
f 163/191/155 143/205/164 144/10/10 164/9/9
