# Blender v2.79 (sub 0) OBJ File: 'mod_Schluessel.blend'
# www.blender.org
g Schluessel
v 0.036119 0.000000 0.059481
v 0.058509 0.010150 0.059481
v 0.063680 -0.010150 0.059481
v 0.020809 0.000000 0.023440
v 0.030306 0.010150 0.006989
v 0.032500 -0.010150 0.003190
v -0.020809 0.000000 0.023440
v -0.030306 0.010150 0.006989
v -0.032500 -0.010150 0.003190
v -0.037898 0.000000 0.059481
v -0.060288 0.010150 0.059481
v -0.065459 -0.010150 0.059481
v -0.020809 0.000000 0.095523
v -0.030306 0.010150 0.111974
v -0.032500 -0.010150 0.115773
v 0.020809 0.000000 0.095523
v 0.030306 0.010150 0.111974
v 0.032500 -0.010150 0.115773
v -0.035143 0.000000 0.120351
v 0.035143 0.000000 0.120351
v -0.071690 0.000000 0.059481
v 0.035143 0.000000 -0.001388
v 0.069911 0.000000 0.059481
v -0.035143 0.000000 -0.001388
v 0.054558 -0.010150 0.031336
v 0.034932 0.000000 0.041460
v 0.050876 0.010150 0.033235
v 0.058995 0.000000 0.029047
v 0.034932 0.000000 0.077502
v 0.054558 -0.010150 0.087627
v 0.050876 0.010150 0.085727
v 0.058995 0.000000 0.089916
v -0.054558 -0.010150 0.087627
v -0.050876 0.010150 0.085727
v -0.034932 0.000000 0.077502
v -0.058995 0.000000 0.089916
v -0.050876 0.010150 0.033235
v -0.034932 0.000000 0.041460
v -0.054558 -0.010150 0.031335
v -0.058995 0.000000 0.029047
v -0.019153 -0.004000 0.000000
v -0.019153 0.004000 0.000000
v -0.019153 -0.004000 -0.200000
v -0.019153 0.004000 -0.200000
v 0.019153 -0.004000 0.000000
v 0.019153 0.004000 0.000000
v 0.019153 -0.004000 -0.200000
v 0.019153 0.004000 -0.200000
v -0.019153 -0.004000 -0.172303
v -0.019153 -0.004000 -0.131242
v -0.019153 0.004000 -0.131242
v -0.019153 0.004000 -0.172303
v 0.019153 -0.004000 -0.131242
v 0.019153 -0.004000 -0.172303
v 0.019153 0.004000 -0.172303
v 0.019153 0.004000 -0.131242
v -0.061563 -0.004000 -0.172303
v -0.061563 0.004000 -0.172303
v -0.019153 -0.004000 -0.162038
v -0.019153 -0.004000 -0.151773
v -0.019153 -0.004000 -0.141508
v -0.019153 0.004000 -0.141508
v -0.019153 0.004000 -0.151773
v -0.019153 0.004000 -0.162038
v 0.019153 -0.004000 -0.141508
v 0.019153 -0.004000 -0.151773
v 0.019153 -0.004000 -0.162038
v 0.019153 0.004000 -0.162038
v 0.019153 0.004000 -0.151773
v 0.019153 0.004000 -0.141508
v -0.061563 -0.004000 -0.162038
v -0.061563 -0.004000 -0.151773
v -0.061563 -0.004000 -0.141508
v -0.061563 0.004000 -0.141508
v -0.061563 0.004000 -0.151773
v -0.061563 0.004000 -0.162038
v -0.040358 0.004000 -0.172303
v -0.040358 0.004000 -0.131242
v -0.040358 -0.004000 -0.131242
v -0.040358 -0.004000 -0.172303
v -0.046902 -0.004000 -0.162038
v -0.046902 -0.004000 -0.151773
v -0.040358 -0.004000 -0.141508
v -0.040358 0.004000 -0.141508
v -0.046902 0.004000 -0.151773
v -0.046902 0.004000 -0.162038
v 0.000000 0.000000 -0.205291
vt 0.730152 0.220133
vt 0.759317 0.235179
vt 0.721691 0.283189
vt 0.704318 0.253097
vt 0.774169 0.242840
vt 0.766052 0.238653
vt 0.725703 0.290138
vt 0.730538 0.298512
vt 0.610817 0.283189
vt 0.628190 0.253097
vt 0.606805 0.290138
vt 0.601970 0.298512
vt 0.602356 0.220133
vt 0.573191 0.235179
vt 0.555973 0.187169
vt 0.596930 0.187169
vt 0.558339 0.242840
vt 0.566456 0.238653
vt 0.546515 0.187169
vt 0.535117 0.187169
vt 0.602356 0.154205
vt 0.573191 0.139159
vt 0.610817 0.091148
vt 0.628190 0.121240
vt 0.558339 0.131497
vt 0.566456 0.135684
vt 0.606805 0.084199
vt 0.601970 0.075825
vt 0.721691 0.091148
vt 0.704318 0.121240
vt 0.725703 0.084199
vt 0.730538 0.075825
vt 0.730152 0.154205
vt 0.759317 0.139159
vt 0.773281 0.187169
vt 0.732324 0.187169
vt 0.774169 0.131497
vt 0.766052 0.135684
vt 0.782739 0.187169
vt 0.794137 0.187169
vt 0.369880 0.294500
vt 0.369880 0.279510
vt 0.421774 0.279510
vt 0.421774 0.294500
vt 0.292946 0.192748
vt 0.292946 0.207737
vt 0.047043 0.207737
vt 0.047043 0.192748
vt 0.292946 0.120974
vt 0.047043 0.120974
vt 0.292946 0.279510
vt 0.047043 0.279510
vt 0.421774 0.207737
vt 0.369880 0.207737
vt 0.312179 0.207737
vt 0.312179 0.279510
vt 0.421774 0.120974
vt 0.421774 0.192748
vt 0.369880 0.192748
vt 0.369880 0.120974
vt 0.312179 0.120974
vt 0.312179 0.192748
vt 0.047043 0.294500
vt 0.292946 0.294500
vt 0.350647 0.331501
vt 0.369880 0.319241
vt 0.369880 0.358971
vt 0.350647 0.358971
vt 0.350647 0.373961
vt 0.369880 0.373961
vt 0.312179 0.334230
vt 0.292946 0.334230
vt 0.292946 0.319241
vt 0.312179 0.319241
vt 0.384870 0.319241
vt 0.384870 0.358971
vt 0.369880 0.081244
vt 0.350646 0.068983
vt 0.350646 0.041513
vt 0.369880 0.041513
vt 0.346402 0.331501
vt 0.346402 0.358971
vt 0.331413 0.358971
vt 0.331413 0.331501
vt 0.331413 0.068983
vt 0.312179 0.081244
vt 0.312179 0.041513
vt 0.331413 0.041513
vt 0.312179 0.373961
vt 0.312179 0.358971
vt 0.331413 0.373961
vt 0.335657 0.331501
vt 0.335657 0.358971
vt 0.297190 0.358971
vt 0.297190 0.319241
vt 0.331413 0.346491
vt 0.350647 0.346491
vt 0.350647 0.207737
vt 0.350647 0.192748
vt 0.331413 0.207737
vt 0.331413 0.192748
vt 0.350647 0.120974
vt 0.331413 0.120974
vt 0.350647 0.279510
vt 0.331413 0.279510
vt 0.384870 0.279510
vt 0.292946 0.081244
vt 0.277956 0.279510
vt 0.277957 0.319241
vt 0.441114 0.279510
vt 0.431444 0.243624
vt 0.441114 0.207737
vn -0.4261 0.8835 0.1944
vn 0.1974 0.9726 -0.1227
vn 0.1266 0.9485 -0.2904
vn -0.1953 0.8810 0.4308
vn 0.8721 0.1324 -0.4710
vn 0.7803 -0.4581 -0.4257
vn 0.3795 -0.4607 -0.8023
vn 0.4424 0.1219 -0.8885
vn -0.3577 -0.9177 0.1730
vn -0.3587 -0.9181 0.1689
vn -0.1645 -0.9166 0.3645
vn -0.1792 -0.9171 0.3562
vn -0.1266 0.9485 -0.2904
vn 0.1953 0.8810 0.4308
vn -0.3795 -0.4607 -0.8023
vn -0.4424 0.1219 -0.8885
vn 0.1645 -0.9166 0.3645
vn 0.1792 -0.9171 0.3562
vn 0.4208 0.8815 0.2142
vn -0.1854 0.9750 -0.1227
vn -0.2672 0.9636 -0.0000
vn 0.4469 0.8946 0.0000
vn -0.8597 0.1333 -0.4931
vn -0.7698 -0.4550 -0.4476
vn -0.8684 -0.4958 -0.0000
vn -0.9920 0.1259 -0.0000
vn 0.3545 -0.9165 0.1853
vn 0.3546 -0.9166 0.1848
vn 0.3747 -0.9271 -0.0000
vn 0.4208 0.8815 -0.2142
vn -0.1854 0.9750 0.1227
vn -0.1266 0.9485 0.2904
vn 0.1953 0.8810 -0.4308
vn -0.8597 0.1333 0.4931
vn -0.7698 -0.4550 0.4476
vn -0.3795 -0.4607 0.8023
vn -0.4424 0.1219 0.8885
vn 0.3545 -0.9165 -0.1853
vn 0.3546 -0.9166 -0.1848
vn 0.1645 -0.9166 -0.3645
vn 0.1792 -0.9171 -0.3562
vn 0.1266 0.9485 0.2904
vn -0.1953 0.8810 -0.4308
vn 0.3795 -0.4607 0.8023
vn 0.4424 0.1219 0.8885
vn -0.1645 -0.9166 -0.3645
vn -0.1792 -0.9171 -0.3562
vn -0.4261 0.8835 -0.1944
vn 0.1974 0.9726 0.1227
vn 0.2481 0.9687 -0.0000
vn -0.4528 0.8916 -0.0000
vn 0.8721 0.1324 0.4710
vn 0.7803 -0.4581 0.4257
vn 0.8710 -0.4913 -0.0000
vn 0.9919 0.1273 -0.0000
vn -0.3577 -0.9177 -0.1730
vn -0.3587 -0.9181 -0.1689
vn -0.3798 -0.9251 0.0000
vn -1.0000 0.0000 0.0000
vn -0.6300 0.5977 -0.4958
vn -0.6300 -0.5977 -0.4958
vn 1.0000 0.0000 -0.0000
vn 0.0000 -1.0000 -0.0000
vn 0.0000 1.0000 -0.0000
vn 0.6300 0.5977 -0.4958
vn 0.6300 -0.5977 -0.4958
vn 0.0000 0.0000 -1.0000
vn 0.0000 0.0000 1.0000
s 1
f 26/1/1 27/2/2 5/3/3 4/4/4
f 28/5/5 25/6/6 6/7/7 22/8/8
f 25/6/9 26/1/10 4/4/11 6/7/12
f 4/4/4 5/3/3 8/9/13 7/10/14
f 22/8/8 6/7/7 9/11/15 24/12/16
f 6/7/12 4/4/11 7/10/17 9/11/18
f 38/13/19 37/14/20 11/15/21 10/16/22
f 40/17/23 39/18/24 12/19/25 21/20/26
f 39/18/27 38/13/28 10/16/29 12/19/29
f 35/21/30 34/22/31 14/23/32 13/24/33
f 36/25/34 33/26/35 15/27/36 19/28/37
f 33/26/38 35/21/39 13/24/40 15/27/41
f 13/24/33 14/23/32 17/29/42 16/30/43
f 19/28/37 15/27/36 18/31/44 20/32/45
f 15/27/41 13/24/40 16/30/46 18/31/47
f 29/33/48 31/34/49 2/35/50 1/36/51
f 32/37/52 30/38/53 3/39/54 23/40/55
f 30/38/56 29/33/57 1/36/58 3/39/58
f 31/34/49 32/37/52 23/40/55 2/35/50
f 14/23/32 19/28/37 20/32/45 17/29/42
f 34/22/31 36/25/34 19/28/37 14/23/32
f 37/14/20 40/17/23 21/20/26 11/15/21
f 5/3/3 22/8/8 24/12/16 8/9/13
f 27/2/2 28/5/5 22/8/8 5/3/3
f 2/35/50 23/40/55 28/5/5 27/2/2
f 3/39/58 1/36/58 26/1/10 25/6/9
f 23/40/55 3/39/54 25/6/6 28/5/5
f 1/36/51 2/35/50 27/2/2 26/1/1
f 17/29/42 20/32/45 32/37/52 31/34/49
f 18/31/47 16/30/46 29/33/57 30/38/56
f 20/32/45 18/31/44 30/38/53 32/37/52
f 16/30/43 17/29/42 31/34/49 29/33/48
f 11/15/21 21/20/26 36/25/34 34/22/31
f 12/19/29 10/16/29 35/21/39 33/26/38
f 21/20/26 12/19/25 33/26/35 36/25/34
f 10/16/22 11/15/21 34/22/31 35/21/30
f 8/9/13 24/12/16 40/17/23 37/14/20
f 9/11/18 7/10/17 38/13/28 39/18/27
f 24/12/16 9/11/15 39/18/24 40/17/23
f 7/10/14 8/9/13 37/14/20 38/13/19
f 49/41/59 52/42/59 44/43/60 43/44/61
f 53/45/62 56/46/62 46/47/62 45/48/62
f 50/49/63 53/45/63 45/48/63 41/50/63
f 56/46/64 51/51/64 42/52/64 46/47/64
f 48/53/65 44/43/60 52/42/64 55/54/64
f 70/55/64 62/56/64 51/51/64 56/46/64
f 43/57/61 47/58/66 54/59/63 49/60/63
f 61/61/63 65/62/63 53/45/63 50/49/63
f 47/58/66 48/53/65 55/54/62 54/59/62
f 65/62/62 70/55/62 56/46/62 53/45/62
f 41/63/59 42/52/59 51/51/59 50/64/59
f 86/65/64 77/66/64 58/67/64 76/68/64
f 71/69/59 76/68/59 58/67/59 57/70/59
f 83/71/59 79/72/59 78/73/59 84/74/59
f 77/66/67 80/75/67 57/76/67 58/67/67
f 80/77/63 81/78/63 71/79/63 57/80/63
f 82/81/67 72/82/67 75/83/67 85/84/67
f 82/85/63 83/86/63 73/87/63 72/88/63
f 73/89/59 74/90/59 75/83/59 72/91/59
f 81/92/68 86/65/68 76/68/68 71/93/68
f 73/94/68 83/95/68 84/74/68 74/90/68
f 84/74/64 85/84/64 75/83/64 74/90/64
f 82/96/59 85/84/59 86/65/59 81/97/59
f 54/59/62 55/54/62 68/98/62 67/99/62
f 67/99/62 68/98/62 69/100/62 66/101/62
f 66/101/62 69/100/62 70/55/62 65/62/62
f 49/60/63 54/59/63 67/99/63 59/102/63
f 59/102/63 67/99/63 66/101/63 60/103/63
f 60/103/63 66/101/63 65/62/63 61/61/63
f 55/54/64 52/42/64 64/104/64 68/98/64
f 68/98/64 64/104/64 63/105/64 69/100/64
f 69/100/64 63/105/64 62/56/64 70/55/64
f 63/105/64 64/104/64 86/65/64 85/84/64
f 62/56/64 63/105/64 85/84/64 84/74/64
f 51/51/64 62/56/64 84/74/64 78/73/64
f 60/103/63 61/61/63 83/86/63 82/85/63
f 59/102/63 60/103/63 82/85/63 81/78/63
f 49/60/63 59/102/63 81/78/63 80/77/63
f 52/42/67 49/106/67 80/75/67 77/66/67
f 61/61/63 50/49/63 79/107/63 83/86/63
f 50/108/68 51/51/68 78/73/68 79/109/68
f 64/104/64 52/42/64 77/66/64 86/65/64
f 43/110/61 44/43/60 87/111/67
f 44/43/60 48/53/65 87/111/67
f 48/53/65 47/112/66 87/111/67
f 47/112/66 43/110/61 87/111/67
