# Blender v2.79 (sub 0) OBJ File: 'mod_Taschenlampe.blend'
# www.blender.org
g Taschenlampe
v 0.024182 0.158114 -0.121788
v -0.024182 0.038957 -0.133211
v 0.025222 0.039386 -0.133170
v 0.103194 0.067905 -0.244893
v 0.104255 0.061476 -0.182317
v 0.059852 0.074464 -0.129807
v 0.102451 0.152697 -0.236765
v 0.103504 0.147139 -0.174105
v 0.059420 0.123643 -0.125093
v 0.041693 0.212131 -0.231067
v 0.042122 0.207184 -0.168349
v -0.043488 0.211391 -0.231138
v -0.043935 0.206436 -0.168421
v -0.025222 0.157685 -0.121830
v -0.103194 0.150911 -0.236936
v -0.104255 0.145335 -0.174278
v -0.059852 0.122607 -0.125192
v -0.102451 0.066118 -0.245064
v -0.103504 0.059671 -0.182490
v -0.059420 0.073428 -0.129907
v 0.000000 0.111588 -0.263658
v -0.041693 0.006685 -0.250762
v -0.042122 -0.000374 -0.188246
v 0.043488 0.007425 -0.250691
v 0.043935 0.000374 -0.188174
v 0.022868 0.126359 0.175391
v -0.022868 0.013677 0.164590
v 0.056599 0.047255 0.167808
v 0.056191 0.093761 0.172266
v -0.023852 0.125953 0.175352
v -0.056599 0.092781 0.172173
v -0.056191 0.046275 0.167714
v 0.023852 0.014083 0.164628
v 0.062865 0.037252 0.245627
v 0.062412 0.088907 0.250579
v 0.025595 0.133078 0.176036
v 0.025399 0.125113 0.254050
v -0.026493 0.124662 0.254007
v -0.062865 0.087818 0.250475
v -0.062412 0.036163 0.245523
v -0.025595 0.006957 0.163945
v -0.025399 -0.000043 0.242052
v 0.026492 0.000407 0.242096
v 0.063349 0.044540 0.167548
v 0.062893 0.096593 0.172538
v -0.026697 0.132624 0.175992
v -0.063349 0.095496 0.172433
v -0.062893 0.043443 0.167443
v 0.026697 0.007412 0.163989
v -0.053231 0.116492 -0.009553
v -0.061610 0.125463 -0.016602
v -0.053620 0.123032 -0.071790
v -0.061900 0.130332 -0.062927
v -0.033193 0.136783 -0.007546
v -0.041572 0.145754 -0.014595
v -0.033582 0.143323 -0.069783
v -0.041862 0.150623 -0.060920
vt 0.682274 0.331330
vt 0.665322 0.319718
vt 0.665322 0.252105
vt 0.682274 0.240493
vt 0.665322 0.231558
vt 0.623827 0.252105
vt 0.623827 0.231558
vt 0.606875 0.240493
vt 0.623827 0.319718
vt 0.606875 0.331330
vt 0.623827 0.340266
vt 0.665322 0.340266
vt 0.090935 0.061262
vt 0.090935 0.102987
vt 0.085103 0.102987
vt 0.085103 0.061262
vt 0.090935 0.144713
vt 0.085103 0.144713
vt 0.090935 0.186438
vt 0.085103 0.186438
vt 0.090935 0.228164
vt 0.085103 0.228164
vt 0.436771 0.019537
vt 0.436771 0.061262
vt 0.386378 0.061262
vt 0.386378 0.019537
vt 0.330324 0.061262
vt 0.330324 0.019537
vt 0.386378 0.102987
vt 0.330324 0.102987
vt 0.436771 0.102987
vt 0.386378 0.144713
vt 0.330324 0.144713
vt 0.436771 0.144713
vt 0.386378 0.186438
vt 0.330324 0.186438
vt 0.436771 0.186438
vt 0.658668 0.083438
vt 0.658668 0.155711
vt 0.571426 0.119575
vt 0.386378 0.228164
vt 0.330324 0.228164
vt 0.607563 0.032333
vt 0.436771 0.228164
vt 0.535289 0.032333
vt 0.386378 0.269889
vt 0.330324 0.269889
vt 0.484184 0.083438
vt 0.436771 0.269889
vt 0.484184 0.155711
vt 0.535289 0.206816
vt 0.436771 0.311615
vt 0.386378 0.311615
vt 0.607562 0.206816
vt 0.330324 0.311615
vt 0.436771 0.353340
vt 0.386378 0.353340
vt 0.330324 0.353340
vt 0.090935 0.019537
vt 0.090935 0.353340
vt 0.090935 0.311615
vt 0.090935 0.269889
vt 0.022291 0.102987
vt 0.022291 0.061262
vt 0.022291 0.144713
vt 0.022291 0.186438
vt 0.022291 0.228164
vt 0.085103 0.269889
vt 0.022291 0.269889
vt 0.085103 0.311615
vt 0.022291 0.311615
vt 0.085103 0.353340
vt 0.022291 0.353340
vt 0.022291 0.019537
vt 0.085103 0.019537
vt 0.573141 0.264790
vt 0.573141 0.307034
vt 0.543269 0.336906
vt 0.501025 0.336906
vt 0.471153 0.307034
vt 0.471153 0.264790
vt 0.501025 0.234918
vt 0.543269 0.234918
vn -0.7009 -0.7098 -0.0702
vn -0.4082 0.4799 -0.7766
vn 0.7009 0.7098 0.0702
vn -0.3979 0.3075 0.8644
vn -0.7132 0.6966 0.0777
vn 0.0000 0.0954 -0.9954
vn 0.3907 -0.9144 -0.1059
vn 0.9270 -0.3711 -0.0538
vn 0.8746 -0.3834 0.2967
vn 0.3686 -0.8960 0.2476
vn 0.6761 -0.3372 0.6551
vn 0.2849 -0.7335 0.6171
vn 0.8683 0.3352 0.3656
vn 0.6712 0.2183 0.7084
vn 0.9204 0.3906 0.0192
vn 0.3534 0.8389 0.4139
vn 0.2732 0.6077 0.7457
vn 0.3745 0.9245 0.0704
vn -0.3686 0.8327 0.4133
vn -0.2849 0.6029 0.7452
vn -0.3907 0.9179 0.0697
vn 0.1851 0.1717 -0.9676
vn 0.1864 0.0185 -0.9823
vn -0.8746 0.3201 0.3642
vn -0.6761 0.2066 0.7073
vn 0.0753 0.2791 -0.9573
vn -0.9270 0.3746 0.0176
vn -0.0786 0.2777 -0.9574
vn -0.8683 -0.3986 0.2953
vn -0.6712 -0.3489 0.6540
vn -0.1864 0.1685 -0.9679
vn -0.9204 -0.3871 -0.0554
vn -0.1851 0.0153 -0.9826
vn -0.0753 -0.0921 -0.9929
vn -0.3745 -0.9211 -0.1066
vn -0.3534 -0.9023 0.2470
vn 0.0786 -0.0908 -0.9928
vn -0.2732 -0.7383 0.6167
vn 0.9271 -0.3740 -0.0241
vn 0.3907 -0.9174 -0.0761
vn -0.3746 -0.9240 -0.0768
vn -0.9204 -0.3900 -0.0256
vn -0.9271 0.3718 0.0474
vn -0.3907 0.9151 0.0995
vn 0.3746 0.9218 0.1002
vn 0.9204 0.3878 0.0490
vn 0.9272 -0.3735 -0.0291
vn 0.9205 0.3883 0.0439
vn 0.3746 0.9223 0.0951
vn -0.3907 0.9156 0.0945
vn -0.9272 0.3723 0.0424
vn -0.9205 -0.3896 -0.0307
vn -0.3746 -0.9236 -0.0818
vn 0.3907 -0.9169 -0.0812
vn -0.0000 -0.0954 0.9954
s off
f 50/1/1 51/2/1 53/3/1 52/4/1
f 52/5/2 53/3/2 57/6/2 56/7/2
f 56/8/3 57/6/3 55/9/3 54/10/3
f 54/11/4 55/9/4 51/2/4 50/12/4
f 57/6/5 53/3/5 51/2/5 55/9/5
s 1
f 28/13/6 29/14/6 45/15/6 44/16/6
f 29/14/6 26/17/6 36/18/6 45/15/6
f 26/17/6 30/19/6 46/20/6 36/18/6
f 30/19/6 31/21/6 47/22/6 46/20/6
f 24/23/7 4/24/8 5/25/9 25/26/10
f 25/26/10 5/25/9 6/27/11 3/28/12
f 5/25/9 8/29/13 9/30/14 6/27/11
f 4/24/8 7/31/15 8/29/13 5/25/9
f 8/29/13 11/32/16 1/33/17 9/30/14
f 7/31/15 10/34/18 11/32/16 8/29/13
f 11/32/16 13/35/19 14/36/20 1/33/17
f 10/34/18 12/37/21 13/35/19 11/32/16
f 7/38/22 4/39/23 21/40/6
f 13/35/19 16/41/24 17/42/25 14/36/20
f 10/43/26 7/38/22 21/40/6
f 12/37/21 15/44/27 16/41/24 13/35/19
f 12/45/28 10/43/26 21/40/6
f 16/41/24 19/46/29 20/47/30 17/42/25
f 15/48/31 12/45/28 21/40/6
f 15/44/27 18/49/32 19/46/29 16/41/24
f 18/50/33 15/48/31 21/40/6
f 22/51/34 18/50/33 21/40/6
f 18/49/32 22/52/35 23/53/36 19/46/29
f 24/54/37 22/51/34 21/40/6
f 19/46/29 23/53/36 2/55/38 20/47/30
f 22/52/35 24/56/7 25/57/10 23/53/36
f 4/39/23 24/54/37 21/40/6
f 23/53/36 25/57/10 3/58/12 2/55/38
f 6/27/39 28/13/39 33/59/40 3/28/40
f 3/58/40 33/60/40 27/61/41 2/55/41
f 2/55/41 27/61/41 32/62/42 20/47/42
f 20/47/42 32/62/42 31/21/43 17/42/43
f 14/36/44 17/42/43 31/21/43 30/19/44
f 1/33/45 14/36/44 30/19/44 26/17/45
f 9/30/46 1/33/45 26/17/45 29/14/46
f 6/27/39 9/30/46 29/14/46 28/13/39
f 44/16/47 45/15/48 35/63/48 34/64/47
f 45/15/48 36/18/49 37/65/49 35/63/48
f 36/18/49 46/20/50 38/66/50 37/65/49
f 46/20/50 47/22/51 39/67/51 38/66/50
f 48/68/52 40/69/52 39/67/51 47/22/51
f 41/70/53 42/71/53 40/69/52 48/68/52
f 49/72/54 43/73/54 42/71/53 41/70/53
f 44/16/47 34/64/47 43/74/54 49/75/54
f 33/59/6 28/13/6 44/16/6 49/75/6
f 27/61/6 33/60/6 49/72/6 41/70/6
f 32/62/6 27/61/6 41/70/6 48/68/6
f 34/76/55 35/77/55 37/78/55 38/79/55 39/80/55 40/81/55 42/82/55 43/83/55
f 31/21/6 32/62/6 48/68/6 47/22/6
