# Blender v2.79 (sub 0) OBJ File: 'mod_Taschenlampe.blend'
# www.blender.org
mtllib mod_Taschenlampe.mtl
o Taschenlampe
v 0.022823 0.022823 -0.068437
v -0.022823 -0.022823 -0.068437
v -0.000000 -0.032276 -0.068437
v 0.039350 -0.039350 -0.125404
v 0.039754 -0.039754 -0.093952
v 0.022823 -0.022823 -0.068437
v 0.055649 -0.000000 -0.125404
v 0.056221 -0.000000 -0.093952
v 0.032276 -0.000000 -0.068437
v 0.039350 0.039350 -0.125404
v 0.039754 0.039754 -0.093952
v 0.000000 0.055649 -0.125404
v 0.000000 0.056221 -0.093952
v 0.000000 0.032276 -0.068437
v -0.039350 0.039350 -0.125404
v -0.039754 0.039754 -0.093952
v -0.022823 0.022823 -0.068437
v -0.055649 0.000000 -0.125404
v -0.056221 0.000000 -0.093952
v -0.032276 0.000000 -0.068437
v 0.000000 -0.000000 -0.136828
v -0.039350 -0.039350 -0.125404
v -0.039754 -0.039754 -0.093952
v -0.000000 -0.055649 -0.125404
v -0.000000 -0.056221 -0.093952
v 0.021582 0.021582 0.080990
v -0.021582 -0.021582 0.080990
v 0.021582 -0.021582 0.080990
v 0.030522 0.000000 0.080990
v -0.000000 0.030522 0.080990
v -0.021582 0.021582 0.080990
v -0.030522 -0.000000 0.080990
v 0.000000 -0.030522 0.080990
v 0.023972 -0.023972 0.120200
v 0.033901 0.000000 0.120200
v 0.024156 0.024156 0.080990
v 0.023972 0.023972 0.120200
v -0.000000 0.033901 0.120200
v -0.023972 0.023972 0.120200
v -0.033901 -0.000000 0.120200
v -0.024156 -0.024156 0.080990
v -0.023972 -0.023972 0.120200
v 0.000000 -0.033901 0.120200
v 0.024156 -0.024156 0.080990
v 0.034162 0.000000 0.080990
v -0.000000 0.034162 0.080990
v -0.024156 0.024156 0.080990
v -0.034162 -0.000000 0.080990
v 0.000000 -0.034162 0.080990
v -0.018809 0.023806 -0.010589
v -0.021052 0.029244 -0.014525
v -0.018876 0.024145 -0.041878
v -0.021102 0.029496 -0.037815
v -0.005603 0.029276 -0.010558
v -0.007846 0.034714 -0.014494
v -0.005670 0.029615 -0.041847
v -0.007896 0.034966 -0.037784
vt 0.682274 0.331330
vt 0.665322 0.319718
vt 0.665322 0.252105
vt 0.682274 0.240493
vt 0.665322 0.231558
vt 0.623827 0.252105
vt 0.623827 0.231558
vt 0.606875 0.240493
vt 0.623827 0.319718
vt 0.606875 0.331330
vt 0.623827 0.340266
vt 0.665322 0.340266
vt 0.090935 0.061262
vt 0.090935 0.102987
vt 0.085103 0.102987
vt 0.085103 0.061262
vt 0.090935 0.144713
vt 0.085103 0.144713
vt 0.090935 0.186438
vt 0.085103 0.186438
vt 0.090935 0.228164
vt 0.085103 0.228164
vt 0.436771 0.019537
vt 0.436771 0.061262
vt 0.386378 0.061262
vt 0.386378 0.019537
vt 0.330324 0.061262
vt 0.330324 0.019537
vt 0.386378 0.102987
vt 0.330324 0.102987
vt 0.436771 0.102987
vt 0.386378 0.144713
vt 0.330324 0.144713
vt 0.436771 0.144713
vt 0.386378 0.186438
vt 0.330324 0.186438
vt 0.436771 0.186438
vt 0.658668 0.083438
vt 0.658668 0.155711
vt 0.571426 0.119575
vt 0.386378 0.228164
vt 0.330324 0.228164
vt 0.607563 0.032333
vt 0.436771 0.228164
vt 0.535289 0.032333
vt 0.386378 0.269889
vt 0.330324 0.269889
vt 0.484184 0.083438
vt 0.436771 0.269889
vt 0.484184 0.155711
vt 0.535289 0.206816
vt 0.436771 0.311615
vt 0.386378 0.311615
vt 0.607562 0.206816
vt 0.330324 0.311615
vt 0.436771 0.353340
vt 0.386378 0.353340
vt 0.330324 0.353340
vt 0.090935 0.019537
vt 0.090935 0.353340
vt 0.090935 0.311615
vt 0.090935 0.269889
vt 0.022291 0.102987
vt 0.022291 0.061262
vt 0.022291 0.144713
vt 0.022291 0.186438
vt 0.022291 0.228164
vt 0.085103 0.269889
vt 0.022291 0.269889
vt 0.085103 0.311615
vt 0.022291 0.311615
vt 0.085103 0.353340
vt 0.022291 0.353340
vt 0.022291 0.019537
vt 0.085103 0.019537
vt 0.573141 0.264790
vt 0.573141 0.307034
vt 0.543269 0.336906
vt 0.501025 0.336906
vt 0.471153 0.307034
vt 0.471153 0.264790
vt 0.501025 0.234918
vt 0.543269 0.234918
vn -0.9239 -0.3827 -0.0022
vn -0.2180 0.5310 -0.8188
vn 0.9239 0.3827 0.0022
vn -0.2145 0.5131 0.8311
vn -0.3827 0.9238 0.0108
vn -0.0000 0.0000 -1.0000
vn -0.0000 -0.9998 -0.0182
vn 0.7070 -0.7070 -0.0182
vn 0.6670 -0.6670 0.3320
vn -0.0000 -0.9433 0.3320
vn 0.5156 -0.5156 0.6843
vn -0.0000 -0.7292 0.6843
vn 0.9433 -0.0000 0.3320
vn 0.7292 -0.0000 0.6843
vn 0.9998 -0.0000 -0.0182
vn 0.6670 0.6670 0.3320
vn 0.5156 0.5156 0.6843
vn 0.7070 0.7070 -0.0182
vn 0.0000 0.9433 0.3320
vn 0.0000 0.7292 0.6843
vn 0.0000 0.9998 -0.0182
vn 0.2011 -0.0000 -0.9796
vn 0.1422 -0.1422 -0.9796
vn -0.6670 0.6670 0.3320
vn -0.5156 0.5156 0.6843
vn 0.1422 0.1422 -0.9796
vn -0.7070 0.7070 -0.0182
vn 0.0000 0.2011 -0.9796
vn -0.9433 0.0000 0.3320
vn -0.7292 0.0000 0.6843
vn -0.1422 0.1422 -0.9796
vn -0.9998 0.0000 -0.0182
vn -0.2011 0.0000 -0.9796
vn -0.1422 -0.1422 -0.9796
vn -0.7070 -0.7070 -0.0182
vn -0.6670 -0.6670 0.3320
vn 0.0000 -0.2011 -0.9796
vn -0.5156 -0.5156 0.6843
vn 0.7071 -0.7071 0.0117
vn 0.0000 -0.9999 0.0117
vn -0.7071 -0.7071 0.0117
vn -0.9999 -0.0000 0.0117
vn -0.7071 0.7071 0.0117
vn 0.0000 0.9999 0.0117
vn 0.7071 0.7071 0.0117
vn 0.9999 -0.0000 0.0117
vn 0.7071 -0.7071 0.0067
vn 1.0000 0.0000 0.0067
vn 0.7071 0.7071 0.0067
vn -0.0000 1.0000 0.0067
vn -0.7071 0.7071 0.0067
vn -1.0000 -0.0000 0.0067
vn -0.7071 -0.7071 0.0067
vn 0.0000 -1.0000 0.0067
vn 0.0000 0.0000 1.0000
usemtl None
s off
f 50/1/1 51/2/1 53/3/1 52/4/1
f 52/5/2 53/3/2 57/6/2 56/7/2
f 56/8/3 57/6/3 55/9/3 54/10/3
f 54/11/4 55/9/4 51/2/4 50/12/4
f 57/6/5 53/3/5 51/2/5 55/9/5
s 1
f 28/13/6 29/14/6 45/15/6 44/16/6
f 29/14/6 26/17/6 36/18/6 45/15/6
f 26/17/6 30/19/6 46/20/6 36/18/6
f 30/19/6 31/21/6 47/22/6 46/20/6
f 24/23/7 4/24/8 5/25/9 25/26/10
f 25/26/10 5/25/9 6/27/11 3/28/12
f 5/25/9 8/29/13 9/30/14 6/27/11
f 4/24/8 7/31/15 8/29/13 5/25/9
f 8/29/13 11/32/16 1/33/17 9/30/14
f 7/31/15 10/34/18 11/32/16 8/29/13
f 11/32/16 13/35/19 14/36/20 1/33/17
f 10/34/18 12/37/21 13/35/19 11/32/16
f 7/38/22 4/39/23 21/40/6
f 13/35/19 16/41/24 17/42/25 14/36/20
f 10/43/26 7/38/22 21/40/6
f 12/37/21 15/44/27 16/41/24 13/35/19
f 12/45/28 10/43/26 21/40/6
f 16/41/24 19/46/29 20/47/30 17/42/25
f 15/48/31 12/45/28 21/40/6
f 15/44/27 18/49/32 19/46/29 16/41/24
f 18/50/33 15/48/31 21/40/6
f 22/51/34 18/50/33 21/40/6
f 18/49/32 22/52/35 23/53/36 19/46/29
f 24/54/37 22/51/34 21/40/6
f 19/46/29 23/53/36 2/55/38 20/47/30
f 22/52/35 24/56/7 25/57/10 23/53/36
f 4/39/23 24/54/37 21/40/6
f 23/53/36 25/57/10 3/58/12 2/55/38
f 6/27/39 28/13/39 33/59/40 3/28/40
f 3/58/40 33/60/40 27/61/41 2/55/41
f 2/55/41 27/61/41 32/62/42 20/47/42
f 20/47/42 32/62/42 31/21/43 17/42/43
f 14/36/44 17/42/43 31/21/43 30/19/44
f 1/33/45 14/36/44 30/19/44 26/17/45
f 9/30/46 1/33/45 26/17/45 29/14/46
f 6/27/39 9/30/46 29/14/46 28/13/39
f 44/16/47 45/15/48 35/63/48 34/64/47
f 45/15/48 36/18/49 37/65/49 35/63/48
f 36/18/49 46/20/50 38/66/50 37/65/49
f 46/20/50 47/22/51 39/67/51 38/66/50
f 48/68/52 40/69/52 39/67/51 47/22/51
f 41/70/53 42/71/53 40/69/52 48/68/52
f 49/72/54 43/73/54 42/71/53 41/70/53
f 44/16/47 34/64/47 43/74/54 49/75/54
f 33/59/6 28/13/6 44/16/6 49/75/6
f 27/61/6 33/60/6 49/72/6 41/70/6
f 32/62/6 27/61/6 41/70/6 48/68/6
f 34/76/55 35/77/55 37/78/55 38/79/55 39/80/55 40/81/55 42/82/55 43/83/55
f 31/21/6 32/62/6 48/68/6 47/22/6
