# Blender v2.79 (sub 0) OBJ File: 'mod_Tagebuch_offen.blend'
# www.blender.org
mtllib mod_Tagebuch_offen.mtl
o Buch
v -0.105000 -0.003500 0.192472
v -0.105000 0.003500 0.192472
v -0.105000 -0.003500 -0.146890
v -0.105000 0.003500 -0.146890
v 0.105000 -0.003500 0.192472
v 0.105000 0.003500 0.192472
v 0.105000 -0.003500 -0.146890
v 0.105000 0.003500 -0.146890
v -0.105000 -0.003500 -0.105659
v -0.105000 0.003500 -0.105659
v 0.105000 -0.003500 -0.105659
v 0.105000 0.003500 -0.105659
v -0.105000 -0.003500 0.057123
v 0.105000 0.003500 0.057123
v -0.105000 0.003500 0.057123
v 0.105000 -0.003500 0.057123
v -0.105000 0.003500 -0.131883
v 0.105000 -0.003500 -0.132056
v -0.105000 -0.003500 -0.132056
v 0.105000 0.003500 -0.131883
v -0.105000 0.003500 0.046818
v 0.105000 -0.003500 0.046818
v -0.105000 -0.003500 0.046818
v 0.105000 0.003500 0.046818
v 0.036187 -0.003500 -0.210000
v -0.036187 -0.003500 -0.210000
v -0.036187 0.003500 -0.210000
v 0.036187 0.003500 -0.210000
v -0.036187 -0.003500 0.192472
v 0.036187 -0.003500 0.192472
v 0.036187 0.003500 0.192472
v -0.036187 0.003500 0.192472
v -0.036187 0.003500 -0.105659
v 0.036187 0.003500 -0.105659
v 0.036187 -0.003500 -0.105659
v -0.036187 -0.003500 -0.105659
v -0.036187 0.003500 0.057123
v 0.036187 0.003500 0.057123
v 0.036187 -0.003500 0.057123
v -0.036187 -0.003500 0.057123
v 0.036187 -0.003500 -0.132056
v -0.036187 -0.003500 -0.132056
v -0.036187 0.003500 -0.131883
v 0.036187 0.003500 -0.131883
v 0.036187 -0.003500 0.046818
v -0.036187 -0.003500 0.046818
v -0.036187 0.003500 0.046818
v 0.036187 0.003500 0.046818
v -0.105000 -0.003500 0.051971
v 0.105000 0.003500 0.051971
v -0.105000 0.003500 0.051971
v 0.105000 -0.003500 0.051971
v -0.036187 -0.003500 0.051971
v 0.036187 -0.003500 0.051971
v 0.036187 0.003500 0.051971
v -0.036187 0.003500 0.051971
v -0.105000 -0.003500 -0.114938
v 0.105000 0.003500 -0.114851
v -0.105000 0.003500 -0.114851
v 0.105000 -0.003500 -0.114938
v -0.036187 -0.003500 -0.114938
v 0.036187 -0.003500 -0.114938
v 0.036187 0.003500 -0.114851
v -0.036187 0.003500 -0.114851
v 0.070594 0.003500 -0.187166
v 0.070594 -0.003500 0.192472
v 0.070594 0.003500 -0.105659
v 0.070594 0.003500 0.057123
v 0.070594 0.003500 -0.131883
v 0.070594 0.003500 0.046818
v 0.070594 -0.003500 -0.187166
v 0.070594 0.003500 0.192472
v 0.070594 -0.003500 -0.105659
v 0.070594 -0.003500 0.057123
v 0.070594 -0.003500 -0.132056
v 0.070594 -0.003500 0.046818
v 0.070594 0.003500 0.051971
v 0.070594 -0.003500 0.051971
v 0.070594 0.003500 -0.114851
v 0.070594 -0.003500 -0.114938
v -0.070594 -0.003500 -0.187166
v -0.070594 0.003500 0.192472
v -0.070594 -0.003500 -0.105659
v -0.070594 -0.003500 0.057123
v -0.070594 -0.003500 -0.132056
v -0.070594 -0.003500 0.046818
v -0.070594 0.003500 -0.187166
v -0.070594 -0.003500 0.192472
v -0.070594 0.003500 -0.105659
v -0.070594 0.003500 0.057123
v -0.070594 0.003500 -0.131883
v -0.070594 0.003500 0.046818
v -0.070594 -0.003500 0.051971
v -0.070594 0.003500 0.051971
v -0.070594 -0.003500 -0.114938
v -0.070594 0.003500 -0.114851
v 0.096000 0.009425 0.047456
v -0.096000 0.015854 0.068860
v 0.096000 0.016709 0.091163
v -0.096000 0.016709 0.091163
v 0.096000 0.014333 0.115955
v -0.096000 0.014333 0.115955
v -0.096000 0.011208 0.144949
v 0.096000 0.009650 0.172442
v -0.096000 0.009650 0.172442
v -0.096000 0.004755 0.049939
v 0.096000 0.011027 0.069699
v -0.096000 0.011027 0.069699
v 0.096000 0.011811 0.091019
v -0.096000 0.011811 0.091019
v 0.096000 0.009459 0.115459
v 0.096000 0.006323 0.144578
v -0.096000 0.006323 0.144578
v 0.096000 0.015854 0.068860
v 0.096000 0.011208 0.144949
v -0.096000 0.009425 0.047456
v 0.096000 0.004755 0.179938
v -0.096000 0.004755 0.179938
v -0.096000 0.009459 0.115459
v 0.096000 0.004755 0.049939
v -0.096000 0.009246 0.047557
v 0.096000 0.016529 0.003850
v 0.096000 0.014154 -0.020942
v -0.096000 0.014154 -0.020942
v 0.096000 0.009470 -0.077429
v -0.096000 0.009470 -0.077429
v -0.096000 0.004575 0.045074
v 0.096000 0.011631 0.003994
v -0.096000 0.011631 0.003994
v 0.096000 0.006143 -0.049565
v -0.096000 0.015675 0.026153
v -0.096000 0.016529 0.003850
v 0.096000 0.015675 0.026153
v -0.096000 0.011029 -0.049936
v 0.096000 0.011029 -0.049936
v 0.096000 0.009246 0.047557
v -0.096000 0.010847 0.025314
v 0.096000 0.010847 0.025314
v 0.096000 0.004575 -0.084925
v -0.096000 0.004575 -0.084925
v -0.096000 0.006143 -0.049565
v -0.096000 0.009279 -0.020446
v 0.096000 0.009279 -0.020446
v 0.096000 0.004575 0.045074
vt 0.959766 0.489495
vt 0.950889 0.490249
vt 0.949612 0.471203
vt 0.958522 0.470616
vt 0.740881 0.415158
vt 0.745546 0.422851
vt 0.694434 0.465783
vt 0.688436 0.458617
vt 0.677671 0.729015
vt 0.686670 0.729102
vt 0.685723 0.902952
vt 0.676730 0.902903
vt 0.911216 0.912176
vt 0.911200 0.903207
vt 0.955266 0.903113
vt 0.955286 0.912079
vt 0.248818 0.822694
vt 0.248818 0.868074
vt 0.070298 0.868074
vt 0.070298 0.822694
vt 0.911062 0.730180
vt 0.954898 0.729975
vt 0.909163 0.513822
vt 0.952047 0.511823
vt 0.952501 0.523411
vt 0.909565 0.525179
vt 0.475759 0.822694
vt 0.475759 0.868074
vt 0.463521 0.868074
vt 0.463521 0.822694
vt 0.682515 0.507518
vt 0.691659 0.508090
vt 0.691099 0.519989
vt 0.682031 0.519648
vt 0.963734 0.716775
vt 0.954823 0.716848
vt 0.961388 0.523150
vt 0.964221 0.903094
vt 0.963834 0.729928
vt 0.911041 0.723618
vt 0.954863 0.723409
vt 0.255614 0.822694
vt 0.255614 0.868074
vt 0.677741 0.722382
vt 0.686740 0.722491
vt 0.685109 0.465158
vt 0.693027 0.485741
vt 0.683784 0.484918
vt 0.571025 0.822694
vt 0.517902 0.868074
vt 0.498338 0.868074
vt 0.498338 0.822694
vt 0.903568 0.429848
vt 0.908245 0.492980
vt 0.960930 0.511312
vt 0.686822 0.715882
vt 0.677829 0.715746
vt 0.262410 0.868074
vt 0.262410 0.822694
vt 0.911020 0.717059
vt 0.963789 0.723348
vt 0.735253 0.522568
vt 0.778495 0.524688
vt 0.774903 0.716808
vt 0.730936 0.716405
vt 0.867186 0.526162
vt 0.867248 0.717122
vt 0.463521 0.636473
vt 0.463521 0.681854
vt 0.262410 0.681854
vt 0.262410 0.636473
vt 0.463521 0.777313
vt 0.262410 0.777313
vt 0.788175 0.404032
vt 0.780057 0.492651
vt 0.737461 0.489401
vt 0.864505 0.409372
vt 0.866899 0.494429
vt 0.571025 0.636474
vt 0.601142 0.681854
vt 0.498338 0.681854
vt 0.498338 0.636473
vt 0.601142 0.777313
vt 0.498338 0.777313
vt 0.255614 0.636473
vt 0.255614 0.681854
vt 0.248818 0.681854
vt 0.248818 0.636473
vt 0.255614 0.777313
vt 0.248818 0.777313
vt 0.730866 0.723000
vt 0.774860 0.723389
vt 0.774817 0.729974
vt 0.730798 0.729598
vt 0.867240 0.723688
vt 0.867234 0.730257
vt 0.475759 0.636473
vt 0.475759 0.681854
vt 0.475759 0.777313
vt 0.735932 0.510912
vt 0.778994 0.513350
vt 0.867098 0.514933
vt 0.774135 0.903250
vt 0.729940 0.903129
vt 0.867102 0.903261
vt 0.070298 0.681854
vt 0.070298 0.636473
vt 0.070298 0.777313
vt 0.729910 0.912124
vt 0.774122 0.912242
vt 0.867108 0.912243
vt 0.908135 0.423291
vt 0.866796 0.401745
vt 0.786821 0.395711
vt 0.685687 0.911949
vt 0.498338 0.591093
vt 0.475759 0.591093
vt 0.262410 0.591093
vt 0.255614 0.591093
vt 0.955123 0.464994
vt 0.248818 0.591093
vt 0.070298 0.591093
vt 0.463521 0.591093
vt 0.517903 0.591093
vt 0.634369 0.037233
vt 0.634223 0.468291
vt 0.582296 0.464226
vt 0.583832 0.041289
vt 0.583832 0.041289
vt 0.582296 0.464226
vt 0.532363 0.465242
vt 0.533590 0.040344
vt 0.533590 0.040344
vt 0.532363 0.465242
vt 0.477010 0.467590
vt 0.477432 0.037885
vt 0.477432 0.037885
vt 0.477010 0.467590
vt 0.411714 0.469139
vt 0.411534 0.036165
vt 0.411534 0.036165
vt 0.411714 0.469139
vt 0.349713 0.468584
vt 0.349689 0.036659
vt 0.034171 0.036676
vt 0.034194 0.468601
vt 0.080832 0.468599
vt 0.080808 0.036674
vt 0.080808 0.036674
vt 0.080832 0.468599
vt 0.128826 0.468596
vt 0.128802 0.036671
vt 0.128802 0.036671
vt 0.128826 0.468596
vt 0.184061 0.468593
vt 0.184037 0.036668
vt 0.184037 0.036668
vt 0.184061 0.468593
vt 0.249948 0.468589
vt 0.249924 0.036664
vt 0.249924 0.036664
vt 0.249948 0.468589
vt 0.329572 0.468585
vt 0.329548 0.036660
vt 0.533941 0.029209
vt 0.583360 0.030131
vt 0.583832 0.041289
vt 0.581811 0.475503
vt 0.532690 0.476265
vt 0.532363 0.465242
vt 0.329572 0.468585
vt 0.329548 0.036660
vt 0.349689 0.036659
vt 0.349689 0.036659
vt 0.332188 0.026804
vt 0.411574 0.025112
vt 0.411534 0.036165
vt 0.477822 0.026811
vt 0.533941 0.029209
vt 0.533590 0.040344
vt 0.411735 0.480153
vt 0.332174 0.478461
vt 0.349713 0.468584
vt 0.583360 0.030131
vt 0.630917 0.025112
vt 0.634369 0.037233
vt 0.532690 0.476265
vt 0.477377 0.478535
vt 0.477010 0.467590
vt 0.634223 0.468291
vt 0.630649 0.480732
vt 0.581811 0.475503
vt 0.582296 0.464226
vt 0.477377 0.478535
vt 0.411735 0.480153
vt 0.411714 0.469139
vt 0.646244 0.037237
vt 0.646097 0.468294
vt 0.634223 0.468291
vt 0.411574 0.025112
vt 0.477822 0.026811
vt 0.477432 0.037885
vt 0.634369 0.037233
vt 0.634223 0.468291
vt 0.582296 0.464226
vt 0.583832 0.041289
vt 0.532363 0.465242
vt 0.533590 0.040344
vt 0.477010 0.467590
vt 0.477432 0.037885
vt 0.411714 0.469139
vt 0.411534 0.036165
vt 0.349713 0.468584
vt 0.349689 0.036659
vt 0.034171 0.036676
vt 0.034194 0.468601
vt 0.080832 0.468599
vt 0.080808 0.036674
vt 0.128826 0.468596
vt 0.128802 0.036671
vt 0.184061 0.468593
vt 0.184037 0.036668
vt 0.249948 0.468589
vt 0.249924 0.036664
vt 0.329572 0.468585
vt 0.329548 0.036660
vt 0.533941 0.029209
vt 0.583360 0.030131
vt 0.581811 0.475503
vt 0.532690 0.476265
vt 0.332188 0.026804
vt 0.411574 0.025112
vt 0.477822 0.026811
vt 0.411735 0.480153
vt 0.332174 0.478461
vt 0.630917 0.025112
vt 0.477377 0.478535
vt 0.630649 0.480732
vt 0.646244 0.037237
vt 0.646097 0.468294
vn -1.0000 0.0000 0.0000
vn -0.9382 -0.0000 -0.3462
vn 0.6630 0.0000 -0.7486
vn 0.9382 0.0000 -0.3462
vn 1.0000 0.0000 0.0000
vn 0.0000 0.0000 1.0000
vn 0.0000 -1.0000 -0.0000
vn 0.0000 1.0000 -0.0000
vn -0.6630 -0.0000 -0.7486
vn -0.2888 -0.0000 -0.9574
vn 0.2888 0.0000 -0.9574
vn -0.0000 0.9577 -0.2877
vn -0.0000 0.9864 -0.1643
vn -0.0000 0.9996 0.0286
vn -0.0000 0.9949 0.1013
vn -0.0000 0.9966 0.0819
vn -0.0000 0.9500 0.3123
vn -0.0000 0.9531 -0.3025
vn -0.0000 0.9852 -0.1712
vn -0.0000 0.9996 0.0296
vn -0.0000 0.9948 0.1014
vn -0.0000 0.9971 0.0757
vn -0.0000 0.9990 0.0443
vn -0.0000 0.8373 0.5468
vn 0.0000 -0.4693 -0.8830
vn -0.0000 0.9577 0.2877
vn -0.0000 0.9864 0.1643
vn -0.0000 0.9996 -0.0286
vn -0.0000 0.9949 -0.1013
vn -0.0000 0.9966 -0.0819
vn -0.0000 0.9500 -0.3123
vn -0.0000 0.9531 0.3025
vn -0.0000 0.9852 0.1712
vn -0.0000 0.9996 -0.0296
vn -0.0000 0.9948 -0.1014
vn -0.0000 0.9971 -0.0757
vn -0.0000 0.9990 -0.0443
vn -0.0000 0.8373 -0.5468
vn -0.0000 -0.4693 0.8830
usemtl (null)
s 1
f 19/1/1 17/2/1 4/3/2 3/4/2
f 71/5/3 65/6/3 8/7/4 7/8/4
f 16/9/5 14/10/5 6/11/5 5/12/5
f 88/13/6 82/14/6 2/15/6 1/16/6
f 74/17/7 16/18/7 5/19/7 66/20/7
f 90/21/8 15/22/8 2/15/8 82/14/8
f 96/23/8 59/24/8 10/25/8 89/26/8
f 80/27/7 60/28/7 11/29/7 73/30/7
f 60/31/5 58/32/5 12/33/5 11/34/5
f 23/35/1 21/36/1 10/25/1 9/37/1
f 1/38/1 2/15/1 15/22/1 13/39/1
f 94/40/8 51/41/8 15/22/8 90/21/8
f 78/42/7 52/43/7 16/18/7 74/17/7
f 52/44/5 50/45/5 14/10/5 16/9/5
f 7/46/4 8/7/4 20/47/5 18/48/5
f 71/49/7 7/50/7 18/51/7 75/52/7
f 87/53/8 4/3/8 17/2/8 91/54/8
f 57/55/1 59/24/1 17/2/1 19/1/1
f 11/34/5 12/33/5 24/56/5 22/57/5
f 73/30/7 11/29/7 22/58/7 76/59/7
f 89/26/8 10/25/8 21/36/8 92/60/8
f 49/61/1 51/41/1 21/36/1 23/35/1
f 67/62/8 34/63/8 48/64/8 70/65/8
f 34/63/8 33/66/8 47/67/8 48/64/8
f 83/68/7 36/69/7 46/70/7 86/71/7
f 36/69/7 35/72/7 45/73/7 46/70/7
f 65/6/8 28/74/8 44/75/8 69/76/8
f 28/74/8 27/77/8 43/78/8 44/75/8
f 81/79/7 26/80/7 42/81/7 85/82/7
f 26/80/7 25/83/7 41/84/7 42/81/7
f 93/85/7 53/86/7 40/87/7 84/88/7
f 53/86/7 54/89/7 39/90/7 40/87/7
f 77/91/8 55/92/8 38/93/8 68/94/8
f 55/92/8 56/95/8 37/96/8 38/93/8
f 95/97/7 61/98/7 36/69/7 83/68/7
f 61/98/7 62/99/7 35/72/7 36/69/7
f 79/100/8 63/101/8 34/63/8 67/62/8
f 63/101/8 64/102/8 33/66/8 34/63/8
f 68/94/8 38/93/8 31/103/8 72/104/8
f 38/93/8 37/96/8 32/105/8 31/103/8
f 84/88/7 40/87/7 29/106/7 88/107/7
f 40/87/7 39/90/7 30/108/7 29/106/7
f 66/109/6 72/104/6 31/103/6 30/110/6
f 30/110/6 31/103/6 32/105/6 29/111/6
f 81/112/9 87/53/9 27/77/10 26/113/10
f 26/113/10 27/77/10 28/74/11 25/114/11
f 48/64/8 47/67/8 56/95/8 55/92/8
f 70/65/8 48/64/8 55/92/8 77/91/8
f 46/70/7 45/73/7 54/89/7 53/86/7
f 86/71/7 46/70/7 53/86/7 93/85/7
f 13/39/1 15/22/1 51/41/1 49/61/1
f 22/57/5 24/56/5 50/45/5 52/44/5
f 76/59/7 22/58/7 52/43/7 78/42/7
f 92/60/8 21/36/8 51/41/8 94/40/8
f 44/75/8 43/78/8 64/102/8 63/101/8
f 69/76/8 44/75/8 63/101/8 79/100/8
f 42/81/7 41/84/7 62/99/7 61/98/7
f 85/82/7 42/81/7 61/98/7 95/97/7
f 9/37/1 10/25/1 59/24/1 57/55/1
f 18/48/5 20/47/5 58/32/5 60/31/5
f 75/52/7 18/51/7 60/28/7 80/27/7
f 91/54/8 17/2/8 59/24/8 96/23/8
f 41/84/7 75/52/7 80/27/7 62/99/7
f 20/47/8 69/76/8 79/100/8 58/32/8
f 45/73/7 76/59/7 78/42/7 54/89/7
f 24/56/8 70/65/8 77/91/8 50/45/8
f 5/115/6 6/11/6 72/104/6 66/109/6
f 14/10/8 68/94/8 72/104/8 6/11/8
f 58/32/8 79/100/8 67/62/8 12/33/8
f 50/45/8 77/91/8 68/94/8 14/10/8
f 8/7/8 65/6/8 69/76/8 20/47/8
f 12/33/8 67/62/8 70/65/8 24/56/8
f 35/72/7 73/30/7 76/59/7 45/73/7
f 25/83/7 71/49/7 75/52/7 41/84/7
f 54/89/7 78/42/7 74/17/7 39/90/7
f 62/99/7 80/27/7 73/30/7 35/72/7
f 39/90/7 74/17/7 66/20/7 30/108/7
f 25/114/11 28/74/11 65/6/3 71/5/3
f 43/78/8 91/54/8 96/23/8 64/102/8
f 19/116/7 85/82/7 95/97/7 57/117/7
f 47/67/8 92/60/8 94/40/8 56/95/8
f 23/118/7 86/71/7 93/85/7 49/119/7
f 3/120/2 4/3/2 87/53/9 81/112/9
f 13/121/7 84/88/7 88/107/7 1/122/7
f 57/117/7 95/97/7 83/68/7 9/123/7
f 49/119/7 93/85/7 84/88/7 13/121/7
f 3/124/7 81/79/7 85/82/7 19/116/7
f 9/123/7 83/68/7 86/71/7 23/118/7
f 33/66/8 89/26/8 92/60/8 47/67/8
f 27/77/8 87/53/8 91/54/8 43/78/8
f 56/95/8 94/40/8 90/21/8 37/96/8
f 64/102/8 96/23/8 89/26/8 33/66/8
f 37/96/8 90/21/8 82/14/8 32/105/8
f 29/111/6 32/105/6 82/14/6 88/13/6
f 116/125/12 98/126/13 114/127/13 97/128/12
f 98/129/13 100/130/14 99/131/14 114/132/13
f 100/133/14 102/134/15 101/135/15 99/136/14
f 102/137/15 103/138/16 115/139/16 101/140/15
f 103/141/16 105/142/17 104/143/17 115/144/16
f 106/145/18 108/146/19 107/147/19 120/148/18
f 108/149/19 110/150/20 109/151/20 107/152/19
f 110/153/20 119/154/21 111/155/21 109/156/20
f 119/157/21 113/158/22 112/159/22 111/160/21
f 113/161/22 118/162/23 117/163/23 112/164/22
f 100/133/1 98/165/1 108/166/1 110/167/1
f 114/127/5 99/168/5 109/169/5 107/170/5
f 104/143/17 105/171/17 118/172/24 117/173/24
f 105/174/1 103/175/1 113/176/1 118/177/1
f 102/137/1 100/178/1 110/179/1 119/180/1
f 115/139/5 104/181/5 117/182/5 112/183/5
f 98/129/1 116/184/1 106/185/1 108/186/1
f 99/131/5 101/187/5 111/188/5 109/189/5
f 97/190/5 114/191/5 107/192/5 120/193/5
f 101/135/5 115/194/5 112/195/5 111/196/5
f 116/125/25 97/197/25 120/198/25 106/199/25
f 103/141/1 102/200/1 119/201/1 113/202/1
f 121/203/26 136/204/26 133/205/27 131/206/27
f 131/206/27 133/205/27 122/207/28 132/208/28
f 132/208/28 122/207/28 123/209/29 124/210/29
f 124/210/29 123/209/29 135/211/30 134/212/30
f 134/212/30 135/211/30 125/213/31 126/214/31
f 127/215/32 144/216/32 138/217/33 137/218/33
f 137/218/33 138/217/33 128/219/34 129/220/34
f 129/220/34 128/219/34 143/221/35 142/222/35
f 142/222/35 143/221/35 130/223/36 141/224/36
f 141/224/36 130/223/36 139/225/37 140/226/37
f 132/208/1 129/227/1 137/228/1 131/206/1
f 133/205/5 138/229/5 128/230/5 122/207/5
f 125/213/31 139/225/38 140/226/38 126/214/31
f 126/214/1 140/231/1 141/232/1 134/212/1
f 124/210/1 142/233/1 129/227/1 132/208/1
f 135/211/5 130/234/5 139/235/5 125/213/5
f 131/206/1 137/228/1 127/236/1 121/203/1
f 122/207/5 128/230/5 143/237/5 123/209/5
f 136/204/5 144/238/5 138/229/5 133/205/5
f 123/209/5 143/237/5 130/234/5 135/211/5
f 121/203/39 127/239/39 144/240/39 136/204/39
f 134/212/1 141/232/1 142/233/1 124/210/1
