# Blender v2.79 (sub 0) OBJ File: 'mod_Moon.blend'
# www.blender.org
mtllib mod_Moon.mtl
g Moon_+_Cap
v 1.251106 -0.722090 -0.000000
v 1.234001 -0.722090 -0.029627
v 1.199791 -0.722090 -0.029627
v 1.182685 -0.722090 -0.000000
v 1.199791 -0.722090 0.029627
v 1.234001 -0.722090 0.029627
v 1.256398 -0.697952 -0.000000
v 1.236647 -0.697952 -0.034210
v 1.197145 -0.697952 -0.034210
v 1.177393 -0.697952 -0.000000
v 1.197145 -0.697952 0.034210
v 1.236647 -0.697952 0.034210
v 1.251106 -0.672092 -0.000000
v 1.234001 -0.672092 -0.029627
v 1.199791 -0.672092 -0.029627
v 1.182685 -0.672092 -0.000000
v 1.199791 -0.672092 0.029627
v 1.234001 -0.672092 0.029627
v 1.216896 -0.737455 -0.000000
v 1.216896 -0.658449 -0.000000
v 1.194590 -0.694719 -0.005000
v 1.114386 -0.720316 -0.010208
v 1.113755 -0.717655 -0.000000
v 1.194113 -0.693467 -0.000000
v 1.195893 -0.698140 -0.008660
v 1.116110 -0.727588 -0.017681
v 1.197674 -0.702812 -0.010000
v 1.118464 -0.737520 -0.020416
v 1.199455 -0.707484 -0.008660
v 1.120818 -0.747453 -0.017681
v 1.200758 -0.710904 -0.005000
v 1.122542 -0.754724 -0.010208
v 1.201235 -0.712156 -0.000000
v 1.123172 -0.757386 -0.000000
v 1.200758 -0.710904 0.005000
v 1.122542 -0.754724 0.010208
v 1.199455 -0.707484 0.008660
v 1.120818 -0.747453 0.017681
v 1.197674 -0.702812 0.010000
v 1.118464 -0.737520 0.020416
v 1.195893 -0.698140 0.008660
v 1.116110 -0.727588 0.017681
v 1.194590 -0.694719 0.005000
v 1.114386 -0.720316 0.010208
v 0.928658 -0.723487 -0.029835
v 0.928710 -0.715539 -0.000000
v 0.928516 -0.745202 -0.051675
v 0.928323 -0.774864 -0.059670
v 0.928129 -0.804526 -0.051675
v 0.927987 -0.826240 -0.029835
v 0.927936 -0.834188 -0.000000
v 0.927987 -0.826240 0.029835
v 0.928129 -0.804526 0.051675
v 0.928323 -0.774864 0.059669
v 0.928516 -0.745202 0.051675
v 0.928658 -0.723487 0.029835
v 0.657483 -0.645792 -0.063528
v 0.661680 -0.629672 -0.000000
v 0.646018 -0.689836 -0.110034
v 0.630357 -0.750000 -0.127056
v 0.614696 -0.810164 -0.110034
v 0.603231 -0.854207 -0.063528
v 0.599035 -0.870328 -0.000000
v 0.603231 -0.854207 0.063528
v 0.614696 -0.810164 0.110034
v 0.630357 -0.750000 0.127056
v 0.646018 -0.689836 0.110034
v 0.657483 -0.645792 0.063528
v 0.420755 -0.473948 -0.100315
v 0.438268 -0.453557 -0.000000
v 0.372909 -0.529657 -0.173750
v 0.307550 -0.605757 -0.200629
v 0.242191 -0.681857 -0.173750
v 0.194345 -0.737566 -0.100315
v 0.176832 -0.757957 -0.000000
v 0.194345 -0.737566 0.100314
v 0.242191 -0.681857 0.173750
v 0.307550 -0.605757 0.200629
v 0.372909 -0.529657 0.173750
v 0.420755 -0.473948 0.100314
v 0.303290 -0.295495 -0.128285
v 0.334990 -0.282204 -0.000000
v 0.216683 -0.331809 -0.222197
v 0.098376 -0.381413 -0.256571
v -0.019931 -0.431018 -0.222197
v -0.106537 -0.467331 -0.128285
v -0.138238 -0.480623 -0.000000
v -0.106537 -0.467331 0.128285
v -0.019931 -0.431018 0.222197
v 0.098376 -0.381413 0.256571
v 0.216683 -0.331809 0.222197
v 0.303290 -0.295495 0.128285
v 0.239529 -0.106515 -0.138933
v 0.276585 -0.102944 -0.000000
v 0.138292 -0.116272 -0.240639
v 0.000000 -0.129601 -0.277866
v -0.138292 -0.142930 -0.240639
v -0.239529 -0.152687 -0.138933
v -0.276585 -0.156259 -0.000000
v -0.239529 -0.152687 0.138933
v -0.138292 -0.142930 0.240639
v 0.000000 -0.129601 0.277866
v 0.138292 -0.116272 0.240639
v 0.239529 -0.106515 0.138933
v 1.086027 0.718036 0.000000
v 1.086582 0.721485 -0.013104
v 1.196391 0.699445 -0.002080
v 1.196193 0.698924 0.000000
v 1.088099 0.730908 -0.022696
v 1.196933 0.700868 -0.003603
v 1.090170 0.743780 -0.026207
v 1.197674 0.702812 -0.004160
v 1.092242 0.756652 -0.022696
v 1.198415 0.704755 -0.003603
v 1.093759 0.766075 -0.013104
v 1.198957 0.706178 -0.002080
v 1.094314 0.769524 0.000000
v 1.199155 0.706699 0.000000
v 1.093759 0.766075 0.013104
v 1.198957 0.706178 0.002080
v 1.092242 0.756652 0.022697
v 1.198415 0.704755 0.003603
v 1.090170 0.743780 0.026208
v 1.197674 0.702812 0.004160
v 1.088099 0.730908 0.022696
v 1.196933 0.700868 0.003603
v 1.086582 0.721485 0.013104
v 1.196391 0.699445 0.002080
v 0.942601 0.720006 0.000000
v 0.942765 0.727529 -0.028082
v 0.943212 0.748082 -0.048639
v 0.943824 0.776157 -0.056164
v 0.944435 0.804232 -0.048639
v 0.944882 0.824785 -0.028082
v 0.945046 0.832308 0.000000
v 0.944882 0.824785 0.028082
v 0.944435 0.804232 0.048639
v 0.943824 0.776157 0.056164
v 0.943212 0.748082 0.048639
v 0.942765 0.727529 0.028082
v 0.737057 0.664465 0.000000
v 0.735027 0.678539 -0.053147
v 0.729482 0.716989 -0.092053
v 0.721908 0.769513 -0.106294
v 0.714334 0.822038 -0.092053
v 0.708789 0.860488 -0.053147
v 0.706759 0.874562 0.000000
v 0.708789 0.860488 0.053147
v 0.714334 0.822038 0.092053
v 0.721908 0.769513 0.106294
v 0.729482 0.716989 0.092053
v 0.735027 0.678539 0.053147
v 0.570372 0.582209 0.000000
v 0.558617 0.600092 -0.079868
v 0.526502 0.648950 -0.138336
v 0.482633 0.715692 -0.159736
v 0.438763 0.782433 -0.138336
v 0.406649 0.831291 -0.079868
v 0.394894 0.849174 0.000000
v 0.406649 0.831291 0.079868
v 0.438763 0.782433 0.138336
v 0.482633 0.715692 0.159737
v 0.526502 0.648950 0.138336
v 0.558617 0.600092 0.079868
v 0.438268 0.453557 0.000000
v 0.420755 0.473948 -0.100314
v 0.372909 0.529657 -0.173750
v 0.307550 0.605757 -0.200629
v 0.242191 0.681857 -0.173750
v 0.194345 0.737566 -0.100314
v 0.176832 0.757957 0.000000
v 0.194345 0.737566 0.100315
v 0.242191 0.681857 0.173750
v 0.307550 0.605757 0.200629
v 0.372909 0.529657 0.173750
v 0.420755 0.473948 0.100315
v 0.334990 0.282204 0.000000
v 0.303290 0.295495 -0.128285
v 0.216683 0.331809 -0.222197
v 0.098376 0.381413 -0.256571
v -0.019931 0.431018 -0.222197
v -0.106537 0.467331 -0.128285
v -0.138238 0.480623 0.000000
v -0.106537 0.467331 0.128285
v -0.019931 0.431018 0.222197
v 0.098376 0.381413 0.256571
v 0.216683 0.331809 0.222197
v 0.303290 0.295495 0.128285
v 0.276585 0.102944 0.000000
v 0.239529 0.106515 -0.138933
v 0.138292 0.116272 -0.240639
v 0.000000 0.129601 -0.277866
v -0.138292 0.142930 -0.240639
v -0.239529 0.152687 -0.138933
v -0.276585 0.156259 0.000000
v -0.239529 0.152687 0.138933
v -0.138292 0.142930 0.240639
v 0.000000 0.129601 0.277866
v 0.138292 0.116272 0.240639
v 0.239529 0.106515 0.138933
vt 0.833333 0.333333
vt 0.833333 0.500000
vt 0.666667 0.500000
vt 0.666667 0.333333
vt 0.333333 0.500000
vt 0.333333 0.666667
vt 0.166667 0.666667
vt 0.166667 0.500000
vt 0.833333 0.666667
vt 0.666667 1.000000
vt 0.666667 0.666667
vt 0.750000 0.000000
vt 0.500000 1.000000
vt 0.500000 0.666667
vt 0.250000 0.000000
vt 0.333333 0.333333
vt 0.166667 0.333333
vt 0.000000 1.000000
vt 0.000000 0.666667
vt 0.333333 1.000000
vt 0.833333 1.000000
vt 1.000000 0.666667
vt 1.000000 0.500000
vt 0.000000 0.500000
vt 0.000000 0.333333
vt 1.000000 0.333333
vt 0.500000 0.333333
vt 0.500000 0.500000
vt 0.916667 0.000000
vt 0.583333 0.000000
vt 0.166667 1.000000
vt 0.416667 0.000000
vt 0.933013 0.750000
vt 0.933013 0.750000
vt 1.000000 0.500000
vt 1.000000 0.500000
vt 0.750000 0.933013
vt 0.750000 0.933013
vt 0.500000 1.000000
vt 0.500000 1.000000
vt 0.250000 0.933013
vt 0.250000 0.933013
vt 0.066987 0.750000
vt 0.066987 0.750000
vt 0.000000 0.500000
vt 0.000000 0.500000
vt 0.066987 0.250000
vt 0.066987 0.250000
vt 0.250000 0.066987
vt 0.250000 0.066987
vt 0.500000 0.000000
vt 0.500000 0.000000
vt 0.750000 0.066987
vt 0.750000 0.066987
vt 0.933013 0.250000
vt 0.933013 0.250000
vt 0.750000 0.066987
vt 0.500000 0.000000
vt 0.250000 0.066987
vt 0.066987 0.250000
vt 0.066987 0.750000
vt 0.250000 0.933013
vt 0.000000 0.500000
vt 0.933013 0.250000
vt 0.500000 1.000000
vt 1.000000 0.500000
vt 0.933013 0.750000
vt 0.750000 0.933013
vt 1.000000 0.500000
vt 0.933013 0.250000
vt 0.933013 0.750000
vt 0.000000 0.500000
vt 0.066987 0.750000
vt 0.250000 0.933013
vt 0.500000 0.000000
vt 0.250000 0.066987
vt 0.750000 0.066987
vt 0.066987 0.250000
vt 0.500000 1.000000
vt 0.750000 0.933013
vt 0.250000 0.066987
vt 0.066987 0.250000
vt 0.250000 0.933013
vt 0.500000 1.000000
vt 0.933013 0.250000
vt 0.750000 0.066987
vt 0.000000 0.500000
vt 0.750000 0.933013
vt 0.933013 0.750000
vt 0.500000 0.000000
vt 1.000000 0.500000
vt 0.066987 0.750000
vt 0.933013 0.750000
vt 1.000000 0.500000
vt 0.750000 0.933013
vt 0.500000 1.000000
vt 0.250000 0.933013
vt 0.066987 0.750000
vt 0.000000 0.500000
vt 0.066987 0.250000
vt 0.250000 0.066987
vt 0.500000 0.000000
vt 0.750000 0.066987
vt 0.933013 0.250000
vt 0.933013 0.750000
vt 1.000000 0.500000
vt 0.750000 0.933013
vt 0.500000 1.000000
vt 0.250000 0.933013
vt 0.066987 0.750000
vt 0.000000 0.500000
vt 0.066987 0.250000
vt 0.250000 0.066987
vt 0.500000 0.000000
vt 0.750000 0.066987
vt 0.933013 0.250000
vt 0.750000 0.066987
vt 0.500000 0.000000
vt 0.933013 0.250000
vt 0.933013 0.750000
vt 1.000000 0.500000
vt 0.066987 0.250000
vt 0.000000 0.500000
vt 0.250000 0.066987
vt 0.066987 0.750000
vt 0.250000 0.933013
vt 0.750000 0.933013
vt 0.500000 1.000000
vt 1.000000 0.500000
vt 0.933013 0.750000
vt 0.933013 0.750000
vt 1.000000 0.500000
vt 0.750000 0.933013
vt 0.750000 0.933013
vt 0.500000 1.000000
vt 0.500000 1.000000
vt 0.250000 0.933013
vt 0.250000 0.933013
vt 0.066987 0.750000
vt 0.066987 0.750000
vt 0.000000 0.500000
vt 0.000000 0.500000
vt 0.066987 0.250000
vt 0.066987 0.250000
vt 0.250000 0.066987
vt 0.250000 0.066987
vt 0.500000 0.000000
vt 0.500000 0.000000
vt 0.750000 0.066987
vt 0.750000 0.066987
vt 0.933013 0.250000
vt 0.933013 0.250000
vt 0.933013 0.250000
vt 1.000000 0.500000
vt 0.066987 0.250000
vt 0.250000 0.066987
vt 0.750000 0.066987
vt 0.500000 0.000000
vt 0.066987 0.750000
vt 0.000000 0.500000
vt 0.750000 0.933013
vt 0.500000 1.000000
vt 0.250000 0.933013
vt 0.933013 0.750000
vt 0.500000 0.000000
vt 0.750000 0.066987
vt 0.933013 0.250000
vt 1.000000 0.500000
vt 0.066987 0.250000
vt 0.250000 0.066987
vt 0.250000 0.933013
vt 0.066987 0.750000
vt 0.750000 0.933013
vt 0.500000 1.000000
vt 0.933013 0.750000
vt 0.000000 0.500000
vt 1.000000 0.500000
vt 0.933013 0.750000
vt 0.750000 0.933013
vt 0.500000 1.000000
vt 0.250000 0.933013
vt 0.066987 0.750000
vt 0.000000 0.500000
vt 0.066987 0.250000
vt 0.250000 0.066987
vt 0.500000 0.000000
vt 0.750000 0.066987
vt 0.933013 0.250000
vt 1.000000 0.500000
vt 0.933013 0.750000
vt 0.750000 0.933013
vt 0.500000 1.000000
vt 0.250000 0.933013
vt 0.066987 0.750000
vt 0.000000 0.500000
vt 0.066987 0.250000
vt 0.250000 0.066987
vt 0.500000 0.000000
vt 0.750000 0.066987
vt 0.933013 0.250000
vt 1.000000 0.500000
vt 0.933013 0.750000
vt 0.750000 0.933013
vt 0.500000 1.000000
vt 0.250000 0.933013
vt 0.066987 0.750000
vt 0.000000 0.500000
vt 0.066987 0.250000
vt 0.250000 0.066987
vt 0.500000 0.000000
vt 0.750000 0.066987
vt 0.933013 0.250000
vt 0.066987 0.250000
vt 0.000000 0.500000
vt 0.066987 0.750000
vt 0.250000 0.933013
vt 0.500000 1.000000
vt 0.750000 0.933013
vt 0.933013 0.750000
vt 1.000000 0.500000
vt 0.933013 0.250000
vt 0.750000 0.066987
vt 0.500000 0.000000
vt 0.250000 0.066987
vt 0.083333 0.000000
vn 0.3911 -0.5652 0.7264
vn 0.5000 -0.0066 0.8660
vn -0.5000 -0.0066 0.8660
vn -0.4192 -0.5435 0.7272
vn -0.5000 -0.0066 -0.8660
vn -0.4059 0.5951 -0.6936
vn 0.4353 0.5715 -0.6956
vn 0.5000 -0.0066 -0.8660
vn 0.4328 0.5788 0.6912
vn 0.0207 0.9998 -0.0031
vn -0.4059 0.5569 0.7246
vn -0.0283 -0.9996 -0.0043
vn -0.8327 0.5536 0.0134
vn -0.4192 -0.5874 -0.6922
vn 0.3893 -0.5704 -0.7233
vn 0.8273 0.5614 0.0182
vn 1.0000 -0.0066 -0.0000
vn 0.8283 -0.5598 -0.0227
vn -0.8246 -0.5652 -0.0245
vn -1.0000 -0.0066 0.0000
vn -0.2340 0.8343 -0.4991
vn -0.0976 0.8580 -0.5043
vn -0.1389 0.9903 -0.0000
vn -0.2882 0.9576 -0.0000
vn -0.0860 0.4967 -0.8637
vn 0.0133 0.4987 -0.8667
vn 0.1143 0.0360 -0.9928
vn 0.1588 0.0173 -0.9872
vn 0.3107 -0.4194 -0.8530
vn 0.2939 -0.4632 -0.8361
vn 0.4510 -0.7469 -0.4886
vn 0.3933 -0.7874 -0.4746
vn 0.5016 -0.8651 0.0000
vn 0.4340 -0.9009 -0.0000
vn 0.4513 -0.7467 0.4887
vn 0.3986 -0.7819 0.4793
vn 0.3112 -0.4191 0.8530
vn 0.2996 -0.4502 0.8412
vn 0.1147 0.0362 0.9927
vn 0.1602 0.0176 0.9869
vn -0.0858 0.4968 0.8636
vn 0.0135 0.4989 0.8666
vn -0.2339 0.8344 0.4991
vn -0.0977 0.8579 0.5044
vn 0.1893 0.4757 0.8590
vn 0.1982 -0.0386 0.9794
vn 0.2261 -0.5062 0.8322
vn 0.2263 -0.8531 0.4702
vn 0.2335 -0.8491 -0.4738
vn 0.2361 -0.5115 -0.8262
vn 0.2378 -0.9713 -0.0000
vn 0.1706 0.8489 0.5002
vn 0.2207 -0.0301 -0.9749
vn 0.1639 0.9865 -0.0010
vn 0.1700 0.8489 -0.5004
vn 0.1979 0.4713 -0.8595
vn 0.4738 0.8806 -0.0033
vn 0.4291 0.7486 0.5054
vn 0.4335 0.7525 -0.4958
vn -0.0752 -0.9972 0.0001
vn -0.0361 -0.8843 -0.4656
vn 0.0660 -0.5624 -0.8242
vn 0.1963 -0.0780 0.9774
vn 0.0353 -0.5547 0.8313
vn 0.3336 0.3971 0.8550
vn -0.0549 -0.8797 0.4723
vn 0.1885 -0.1134 -0.9755
vn 0.3427 0.3850 -0.8569
vn -0.1679 -0.5142 0.8411
vn -0.4109 -0.7786 0.4744
vn -0.1672 -0.5410 -0.8243
vn 0.1430 -0.1604 -0.9766
vn 0.6683 0.5546 0.4958
vn 0.4177 0.2542 0.8723
vn -0.4763 -0.8792 0.0043
vn 0.4434 0.2592 -0.8580
vn 0.6739 0.5445 -0.4994
vn 0.0993 -0.1400 0.9852
vn 0.7479 0.6639 -0.0001
vn -0.3880 -0.7945 -0.4672
vn 0.7988 0.3420 -0.4948
vn 0.9092 0.4164 -0.0000
vn 0.4906 0.1449 -0.8593
vn 0.0607 -0.1113 -0.9919
vn -0.3729 -0.3546 -0.8574
vn -0.6916 -0.5265 -0.4946
vn -0.8084 -0.5887 0.0001
vn -0.6904 -0.5269 0.4957
vn -0.3697 -0.3542 0.8590
vn 0.0648 -0.1101 0.9918
vn 0.4929 0.1454 0.8579
vn 0.7994 0.3418 0.4941
vn 0.8557 0.1269 -0.5017
vn 0.9876 0.1568 -0.0007
vn 0.4938 0.0536 -0.8680
vn -0.0384 -0.0352 -0.9986
vn -0.5157 -0.1161 -0.8489
vn -0.8482 -0.1790 -0.4985
vn -0.9797 -0.2005 -0.0011
vn -0.8493 -0.1812 0.4958
vn -0.5000 -0.1417 0.8543
vn -0.0144 -0.0654 0.9978
vn 0.4943 0.0536 0.8676
vn 0.8558 0.1269 0.5014
vn 0.4818 -0.0285 0.8758
vn -0.0424 0.0444 0.9981
vn 0.8509 -0.1135 0.5130
vn 0.8439 -0.1370 -0.5187
vn 0.9875 -0.1575 -0.0013
vn -0.8484 0.1780 0.4985
vn -0.9809 0.1944 0.0000
vn -0.5026 0.1396 0.8532
vn -0.8524 0.1732 -0.4933
vn -0.5154 0.1240 -0.8479
vn 0.4664 -0.0647 -0.8822
vn -0.0416 0.0446 -0.9981
vn -0.0929 -0.9957 0.0000
vn -0.0542 -0.8653 -0.4983
vn -0.1224 -0.8581 -0.4987
vn -0.1710 -0.9853 0.0000
vn 0.0511 -0.5098 -0.8587
vn 0.0098 -0.5095 -0.8604
vn 0.1917 -0.0276 -0.9811
vn 0.1864 -0.0374 -0.9818
vn 0.3254 0.4415 -0.8362
vn 0.3552 0.4211 -0.8346
vn 0.4185 0.7733 -0.4763
vn 0.4726 0.7433 -0.4735
vn 0.4518 0.8921 0.0000
vn 0.5142 0.8577 0.0000
vn 0.4188 0.7734 0.4759
vn 0.4733 0.7429 0.4734
vn 0.3255 0.4407 0.8366
vn 0.3563 0.4206 0.8344
vn 0.1923 -0.0280 0.9809
vn 0.1874 -0.0378 0.9816
vn 0.0514 -0.5099 0.8587
vn 0.0105 -0.5097 0.8603
vn -0.0539 -0.8656 0.4979
vn -0.1221 -0.8581 0.4987
vn 0.1345 -0.8515 0.5068
vn 0.1275 -0.9918 -0.0013
vn 0.2640 0.8386 0.4766
vn 0.2472 0.4900 0.8359
vn 0.1619 -0.4757 0.8646
vn 0.1988 0.0207 0.9798
vn 0.2772 0.8372 -0.4714
vn 0.2808 0.9598 0.0000
vn 0.1803 -0.4761 -0.8607
vn 0.2081 0.0111 -0.9781
vn 0.2587 0.4973 -0.8281
vn 0.1453 -0.8516 -0.5036
vn 0.1905 0.0592 0.9799
vn 0.2864 -0.4413 0.8504
vn 0.3310 -0.8005 0.4996
vn 0.3552 -0.9348 -0.0034
vn 0.0571 0.8776 0.4759
vn 0.1304 0.5312 0.8372
vn 0.1394 0.5474 -0.8252
vn 0.0697 0.8754 -0.4784
vn 0.2970 -0.4280 -0.8536
vn 0.2085 0.0513 -0.9767
vn 0.3343 -0.8035 -0.4926
vn 0.0449 0.9990 0.0034
vn 0.5756 -0.8178 -0.0001
vn 0.5228 -0.6916 -0.4984
vn 0.3776 -0.3508 -0.8569
vn 0.1755 0.1025 -0.9791
vn -0.0294 0.5426 -0.8395
vn -0.1807 0.8576 -0.4815
vn -0.2359 0.9718 0.0000
vn -0.1792 0.8575 0.4822
vn -0.0267 0.5413 0.8404
vn 0.1788 0.1003 0.9788
vn 0.3801 -0.3521 0.8553
vn 0.5240 -0.6914 0.4974
vn 0.7823 -0.6228 -0.0001
vn 0.6965 -0.5196 -0.4949
vn 0.4584 -0.2404 -0.8556
vn 0.1290 0.1318 -0.9828
vn -0.2005 0.4939 -0.8461
vn -0.4407 0.7543 -0.4866
vn -0.5281 0.8492 0.0001
vn -0.4394 0.7546 0.4874
vn -0.1974 0.4935 0.8470
vn 0.1329 0.1307 0.9825
vn 0.4610 -0.2407 0.8541
vn 0.6973 -0.5192 0.4941
vn 0.9092 -0.4163 -0.0000
vn 0.7988 -0.3420 -0.4948
vn 0.4906 -0.1449 -0.8593
vn 0.0607 0.1113 -0.9919
vn -0.3729 0.3546 -0.8574
vn -0.6916 0.5265 -0.4946
vn -0.8084 0.5887 0.0001
vn -0.6904 0.5269 0.4957
vn -0.3697 0.3542 0.8590
vn 0.0648 0.1101 0.9918
vn 0.4929 -0.1454 0.8579
vn 0.7994 -0.3418 0.4941
vn 0.8051 0.0692 0.5891
vn 0.9344 -0.3561 -0.0000
usemtl None
s 1
f 6/1/1 12/2/2 11/3/3 5/4/4
f 9/5/5 15/6/6 14/7/7 8/8/8
f 18/9/9 20/10/10 17/11/11
f 5/4/4 19/12/12 6/1/1
f 20/13/10 16/14/13 17/11/11
f 19/15/12 3/16/14 2/17/15
f 14/7/7 20/18/10 13/19/16
f 16/14/13 20/20/10 15/6/6
f 20/21/10 18/9/9 13/22/16
f 7/23/17 13/22/16 18/9/9 12/2/2
f 2/17/15 8/8/8 7/24/17 1/25/18
f 1/26/18 7/23/17 12/2/2 6/1/1
f 4/27/19 10/28/20 9/5/5 3/16/14
f 11/3/3 17/11/11 16/14/13 10/28/20
f 19/29/12 1/26/18 6/1/1
f 3/16/14 9/5/5 8/8/8 2/17/15
f 8/8/8 14/7/7 13/19/16 7/24/17
f 19/30/12 5/4/4 4/27/19
f 20/31/10 14/7/7 15/6/6
f 5/4/4 11/3/3 10/28/20 4/27/19
f 3/16/14 19/32/12 4/27/19
f 10/28/20 16/14/13 15/6/6 9/5/5
f 21/33/21 22/34/22 23/35/23 24/36/24
f 25/37/25 26/38/26 22/34/22 21/33/21
f 27/39/27 28/40/28 26/38/26 25/37/25
f 29/41/29 30/42/30 28/40/28 27/39/27
f 31/43/31 32/44/32 30/42/30 29/41/29
f 33/45/33 34/46/34 32/44/32 31/43/31
f 35/47/35 36/48/36 34/46/34 33/45/33
f 37/49/37 38/50/38 36/48/36 35/47/35
f 39/51/39 40/52/40 38/50/38 37/49/37
f 41/53/41 42/54/42 40/52/40 39/51/39
f 43/55/43 44/56/44 42/54/42 41/53/41
f 24/36/24 23/35/23 44/56/44 43/55/43
f 42/54/42 55/57/45 54/58/46 40/52/40
f 53/59/47 52/60/48 36/48/36 38/50/38
f 32/44/32 50/61/49 49/62/50 30/42/30
f 51/63/51 50/61/49 32/44/32 34/46/34
f 56/64/52 55/57/45 42/54/42 44/56/44
f 30/42/30 49/62/50 48/65/53 28/40/28
f 23/35/23 46/66/54 56/64/52 44/56/44
f 45/67/55 46/66/54 23/35/23 22/34/22
f 52/60/48 51/63/51 34/46/34 36/48/36
f 48/65/53 47/68/56 26/38/26 28/40/28
f 40/52/40 54/58/46 53/59/47 38/50/38
f 46/66/54 58/69/57 68/70/58 56/64/52
f 57/71/59 58/69/57 46/66/54 45/67/55
f 51/63/51 63/72/60 62/73/61 50/61/49
f 62/73/61 61/74/62 49/62/50 50/61/49
f 54/58/46 66/75/63 65/76/64 53/59/47
f 26/38/26 47/68/56 45/67/55 22/34/22
f 67/77/65 66/75/63 54/58/46 55/57/45
f 68/70/58 67/77/65 55/57/45 56/64/52
f 53/59/47 65/76/64 64/78/66 52/60/48
f 49/62/50 61/74/62 60/79/67 48/65/53
f 60/79/67 59/80/68 47/68/56 48/65/53
f 64/78/66 63/72/60 51/63/51 52/60/48
f 77/81/69 76/82/70 64/78/66 65/76/64
f 73/83/71 72/84/72 60/79/67 61/74/62
f 80/85/73 79/86/74 67/77/65 68/70/58
f 64/78/66 76/82/70 75/87/75 63/72/60
f 71/88/76 69/89/77 57/71/59 59/80/68
f 59/80/68 57/71/59 45/67/55 47/68/56
f 79/86/74 78/90/78 66/75/63 67/77/65
f 72/84/72 71/88/76 59/80/68 60/79/67
f 57/71/59 69/89/77 70/91/79 58/69/57
f 58/69/57 70/91/79 80/85/73 68/70/58
f 63/72/60 75/87/75 74/92/80 62/73/61
f 66/75/63 78/90/78 77/81/69 65/76/64
f 69/89/77 81/93/81 82/94/82 70/91/79
f 71/88/76 83/95/83 81/93/81 69/89/77
f 72/84/72 84/96/84 83/95/83 71/88/76
f 73/83/71 85/97/85 84/96/84 72/84/72
f 74/92/80 86/98/86 85/97/85 73/83/71
f 75/87/75 87/99/87 86/98/86 74/92/80
f 76/82/70 88/100/88 87/99/87 75/87/75
f 77/81/69 89/101/89 88/100/88 76/82/70
f 78/90/78 90/102/90 89/101/89 77/81/69
f 79/86/74 91/103/91 90/102/90 78/90/78
f 80/85/73 92/104/92 91/103/91 79/86/74
f 70/91/79 82/94/82 92/104/92 80/85/73
f 81/93/81 93/105/93 94/106/94 82/94/82
f 83/95/83 95/107/95 93/105/93 81/93/81
f 84/96/84 96/108/96 95/107/95 83/95/83
f 85/97/85 97/109/97 96/108/96 84/96/84
f 86/98/86 98/110/98 97/109/97 85/97/85
f 87/99/87 99/111/99 98/110/98 86/98/86
f 88/100/88 100/112/100 99/111/99 87/99/87
f 89/101/89 101/113/101 100/112/100 88/100/88
f 90/102/90 102/114/102 101/113/101 89/101/89
f 91/103/91 103/115/103 102/114/102 90/102/90
f 92/104/92 104/116/104 103/115/103 91/103/91
f 82/94/82 94/106/94 104/116/104 92/104/92
f 199/117/105 198/118/106 102/114/102 103/115/103
f 200/119/107 199/117/105 103/115/103 104/116/104
f 190/120/108 189/121/109 94/106/94 93/105/93
f 196/122/110 195/123/111 99/111/99 100/112/100
f 101/113/101 197/124/112 196/122/110 100/112/100
f 98/110/98 194/125/113 193/126/114 97/109/97
f 191/127/115 190/120/108 93/105/93 95/107/95
f 97/109/97 193/126/114 192/128/116 96/108/96
f 94/106/94 189/121/109 200/119/107 104/116/104
f 96/108/96 192/128/116 191/127/115 95/107/95
f 102/114/102 198/118/106 197/124/112 101/113/101
f 105/129/117 106/130/118 107/131/119 108/132/120
f 106/130/118 109/133/121 110/134/122 107/131/119
f 109/133/121 111/135/123 112/136/124 110/134/122
f 111/135/123 113/137/125 114/138/126 112/136/124
f 113/137/125 115/139/127 116/140/128 114/138/126
f 115/139/127 117/141/129 118/142/130 116/140/128
f 117/141/129 119/143/131 120/144/132 118/142/130
f 119/143/131 121/145/133 122/146/134 120/144/132
f 121/145/133 123/147/135 124/148/136 122/146/134
f 123/147/135 125/149/137 126/150/138 124/148/136
f 125/149/137 127/151/139 128/152/140 126/150/138
f 127/151/139 105/129/117 108/132/120 128/152/140
f 140/153/141 129/154/142 105/129/117 127/151/139
f 136/155/143 137/156/144 121/145/133 119/143/131
f 139/157/145 140/153/141 127/151/139 125/149/137
f 138/158/146 139/157/145 125/149/137 123/147/135
f 134/159/147 135/160/148 117/141/129 115/139/127
f 131/161/149 132/162/150 111/135/123 109/133/121
f 133/163/151 134/159/147 115/139/127 113/137/125
f 132/162/150 133/163/151 113/137/125 111/135/123
f 135/160/148 136/155/143 119/143/131 117/141/129
f 130/164/152 131/161/149 109/133/121 106/130/118
f 137/156/144 138/158/146 123/147/135 121/145/133
f 150/165/153 151/166/154 139/157/145 138/158/146
f 152/167/155 141/168/156 129/154/142 140/153/141
f 148/169/157 149/170/158 137/156/144 136/155/143
f 145/171/159 146/172/160 134/159/147 133/163/151
f 151/166/154 152/167/155 140/153/141 139/157/145
f 143/173/161 144/174/162 132/162/150 131/161/149
f 144/174/162 145/171/159 133/163/151 132/162/150
f 141/168/156 142/175/163 130/164/152 129/154/142
f 142/175/163 143/173/161 131/161/149 130/164/152
f 146/172/160 147/176/164 135/160/148 134/159/147
f 147/176/164 148/169/157 136/155/143 135/160/148
f 153/177/165 154/178/166 142/175/163 141/168/156
f 154/178/166 155/179/167 143/173/161 142/175/163
f 155/179/167 156/180/168 144/174/162 143/173/161
f 156/180/168 157/181/169 145/171/159 144/174/162
f 157/181/169 158/182/170 146/172/160 145/171/159
f 158/182/170 159/183/171 147/176/164 146/172/160
f 159/183/171 160/184/172 148/169/157 147/176/164
f 160/184/172 161/185/173 149/170/158 148/169/157
f 161/185/173 162/186/174 150/165/153 149/170/158
f 162/186/174 163/187/175 151/166/154 150/165/153
f 163/187/175 164/188/176 152/167/155 151/166/154
f 164/188/176 153/177/165 141/168/156 152/167/155
f 165/189/177 166/190/178 154/178/166 153/177/165
f 166/190/178 167/191/179 155/179/167 154/178/166
f 167/191/179 168/192/180 156/180/168 155/179/167
f 168/192/180 169/193/181 157/181/169 156/180/168
f 169/193/181 170/194/182 158/182/170 157/181/169
f 170/194/182 171/195/183 159/183/171 158/182/170
f 171/195/183 172/196/184 160/184/172 159/183/171
f 172/196/184 173/197/185 161/185/173 160/184/172
f 173/197/185 174/198/186 162/186/174 161/185/173
f 174/198/186 175/199/187 163/187/175 162/186/174
f 175/199/187 176/200/188 164/188/176 163/187/175
f 176/200/188 165/189/177 153/177/165 164/188/176
f 177/201/189 178/202/190 166/190/178 165/189/177
f 178/202/190 179/203/191 167/191/179 166/190/178
f 179/203/191 180/204/192 168/192/180 167/191/179
f 180/204/192 181/205/193 169/193/181 168/192/180
f 181/205/193 182/206/194 170/194/182 169/193/181
f 182/206/194 183/207/195 171/195/183 170/194/182
f 183/207/195 184/208/196 172/196/184 171/195/183
f 184/208/196 185/209/197 173/197/185 172/196/184
f 185/209/197 186/210/198 174/198/186 173/197/185
f 186/210/198 187/211/199 175/199/187 174/198/186
f 187/211/199 188/212/200 176/200/188 175/199/187
f 188/212/200 177/201/189 165/189/177 176/200/188
f 189/121/109 190/120/108 178/202/190 177/201/189
f 190/120/108 191/127/115 179/203/191 178/202/190
f 191/127/115 192/128/116 180/204/192 179/203/191
f 192/128/116 193/126/114 181/205/193 180/204/192
f 193/126/114 194/125/113 182/206/194 181/205/193
f 194/125/113 195/123/111 183/207/195 182/206/194
f 195/123/111 196/122/110 184/208/196 183/207/195
f 196/122/110 197/124/112 185/209/197 184/208/196
f 197/124/112 198/118/106 186/210/198 185/209/197
f 198/118/106 199/117/105 187/211/199 186/210/198
f 199/117/105 200/119/107 188/212/200 187/211/199
f 200/119/107 189/121/109 177/201/189 188/212/200
f 122/213/201 124/214/202 126/215/202 128/216/202 108/217/202 107/218/202 110/219/202 112/220/202 114/221/202 116/222/202 118/223/202 120/224/202
f 99/111/99 195/123/111 194/125/113 98/110/98
f 149/170/158 150/165/153 138/158/146 137/156/144
f 129/154/142 130/164/152 106/130/118 105/129/117
f 74/92/80 73/83/71 61/74/62 62/73/61
f 12/2/2 18/9/9 17/11/11 11/3/3
f 19/225/12 2/17/15 1/25/18
