# Blender v2.79 (sub 0) OBJ File: 'Sterne.blend'
# www.blender.org
mtllib Sterne.mtl
g Stern3
v -0.297428 -0.053219 0.096640
v 0.000000 -0.079828 -0.000000
v 0.000000 -0.053219 0.312734
v -0.481248 -0.000000 0.662381
v 0.297428 -0.053219 0.096640
v 0.183820 -0.053219 -0.253007
v 0.778676 0.000000 -0.253007
v -0.183820 -0.053219 -0.253007
v -0.778676 0.000000 -0.253007
v 0.000000 0.000000 -0.818748
v 0.481248 -0.000000 0.662381
v -0.297428 0.053218 0.096640
v 0.000000 0.053218 0.312734
v 0.000000 0.079828 0.000000
v 0.297428 0.053218 0.096640
v 0.183820 0.053218 -0.253007
v -0.183820 0.053218 -0.253007
vn -0.0748 -0.9969 0.0243
vn 0.0000 -1.0000 -0.0000
vn 0.0000 -0.9969 0.0786
vn -0.0570 -0.9953 0.0785
vn 0.0748 -0.9969 0.0243
vn 0.0462 -0.9969 -0.0636
vn 0.0923 -0.9953 -0.0300
vn -0.0462 -0.9969 -0.0636
vn -0.0923 -0.9953 -0.0300
vn 0.0000 -0.9953 -0.0970
vn 0.0570 -0.9953 0.0785
vn -0.0748 0.9969 0.0243
vn -0.0570 0.9953 0.0785
vn 0.0000 0.9969 0.0786
vn 0.0000 1.0000 0.0000
vn 0.0748 0.9969 0.0243
vn 0.0923 0.9953 -0.0300
vn 0.0462 0.9969 -0.0636
vn -0.0462 0.9969 -0.0636
vn -0.0923 0.9953 -0.0300
vn 0.0000 0.9953 -0.0970
vn 0.0570 0.9953 0.0785
vn 0.0000 0.0000 -1.0000
vn 0.9511 0.0000 -0.3090
vn -0.5878 0.0000 0.8090
vn -0.9511 0.0000 -0.3090
vn 0.5878 0.0000 0.8090
usemtl None
s 1
f 1//1 2//2 3//3 4//4
f 5//5 2//2 6//6 7//7
f 8//8 2//2 1//1 9//9
f 8//8 10//10 6//6 2//2
f 5//5 11//11 3//3 2//2
f 12//12 4//13 13//14 14//15
f 15//16 7//17 16//18 14//15
f 17//19 9//20 12//12 14//15
f 17//19 14//15 16//18 10//21
f 15//16 14//15 13//14 11//22
f 7//23 6//23 16//23
f 8//23 9//23 17//23
f 6//24 10//24 16//24
f 3//25 11//25 13//25
f 11//24 5//24 15//24
f 1//26 4//26 12//26
f 10//26 8//26 17//26
f 4//27 3//27 13//27
f 9//25 1//25 12//25
f 5//27 7//27 15//27
g Stern4
v -0.238059 0.042596 0.077350
v 0.000000 0.042596 0.000000
v 0.000000 0.042596 0.250310
v -0.385188 0.042596 0.530166
v 0.238059 0.042596 0.077350
v 0.147129 0.042596 -0.202505
v 0.623247 0.042596 -0.202505
v -0.147129 0.042596 -0.202505
v -0.623247 0.042596 -0.202505
v 0.000000 0.042596 -0.655321
v 0.385188 0.042596 0.530166
v -0.238059 -0.042596 0.077350
v -0.385188 -0.042596 0.530166
v 0.000000 -0.042596 0.250310
v 0.000000 -0.042596 -0.000000
v 0.238059 -0.042596 0.077350
v 0.623247 -0.042596 -0.202505
v 0.147129 -0.042596 -0.202505
v -0.147129 -0.042596 -0.202505
v -0.623247 -0.042596 -0.202505
v 0.000000 -0.042596 -0.655321
v 0.385188 -0.042596 0.530166
vn 0.0000 1.0000 0.0000
vn -0.0000 -1.0000 -0.0000
vn -0.5878 0.0000 0.8090
vn 0.0000 0.0000 -1.0000
vn -0.9511 0.0000 -0.3090
vn 0.5878 0.0000 0.8090
vn 0.9511 0.0000 -0.3090
usemtl None
s 1
f 18//28 21//28 20//28 19//28
f 22//28 24//28 23//28 19//28
f 25//28 26//28 18//28 19//28
f 25//28 19//28 23//28 27//28
f 22//28 19//28 20//28 28//28
f 29//29 32//29 31//29 30//29
f 33//29 32//29 35//29 34//29
f 36//29 32//29 29//29 37//29
f 36//29 38//29 35//29 32//29
f 33//29 39//29 31//29 32//29
f 26//30 37//30 29//30 18//30
f 24//31 34//31 35//31 23//31
f 20//30 31//30 39//30 28//30
f 18//32 29//32 30//32 21//32
f 22//33 33//33 34//33 24//33
f 23//34 35//34 38//34 27//34
f 28//34 39//34 33//34 22//34
f 25//31 36//31 37//31 26//31
f 27//32 38//32 36//32 25//32
f 21//33 30//33 31//33 20//33
g Stern2
v -0.269153 0.034023 0.087453
v 0.000000 0.034023 0.000000
v 0.000000 0.034023 0.283004
v -0.307665 0.034023 0.423465
v 0.269153 0.034023 0.087453
v 0.166346 0.034023 -0.228955
v 0.497813 0.034023 -0.161749
v -0.166345 0.034023 -0.228955
v -0.497813 0.034023 -0.161749
v 0.000000 0.034023 -0.523432
v 0.307665 0.034023 0.423465
v -0.269153 -0.034023 0.087453
v -0.307665 -0.034023 0.423465
v 0.000000 -0.034023 0.283004
v 0.000000 -0.034023 -0.000000
v 0.269153 -0.034023 0.087453
v 0.497813 -0.034023 -0.161749
v 0.166346 -0.034023 -0.228955
v -0.166345 -0.034023 -0.228955
v -0.497813 -0.034023 -0.161749
v 0.000000 -0.034023 -0.523432
v 0.307665 -0.034023 0.423465
vn -0.0000 1.0000 0.0000
vn 0.0000 -1.0000 -0.0000
vn -0.7368 0.0000 0.6761
vn 0.1987 0.0000 -0.9801
vn -0.4153 0.0000 0.9097
vn -0.9935 -0.0000 -0.1139
vn 0.7368 0.0000 0.6761
vn 0.8707 0.0000 -0.4918
vn 0.9935 -0.0000 -0.1139
vn -0.1987 0.0000 -0.9801
vn -0.8707 0.0000 -0.4918
vn 0.4153 0.0000 0.9097
usemtl None
s 1
f 40//35 43//35 42//35 41//35
f 44//35 46//35 45//35 41//35
f 47//35 48//35 40//35 41//35
f 47//35 41//35 45//35 49//35
f 44//35 41//35 42//35 50//35
f 51//36 54//36 53//36 52//36
f 55//36 54//36 57//36 56//36
f 58//36 54//36 51//36 59//36
f 58//36 60//36 57//36 54//36
f 55//36 61//36 53//36 54//36
f 48//37 59//37 51//37 40//37
f 46//38 56//38 57//38 45//38
f 42//39 53//39 61//39 50//39
f 40//40 51//40 52//40 43//40
f 44//41 55//41 56//41 46//41
f 45//42 57//42 60//42 49//42
f 50//43 61//43 55//43 44//43
f 47//44 58//44 59//44 48//44
f 49//45 60//45 58//45 47//45
f 43//46 52//46 53//46 42//46
g Stern1
v -0.208061 0.027073 0.067603
v 0.000000 0.038677 -0.000000
v 0.000000 0.027073 0.218768
v -0.237832 0.000772 0.327347
v 0.208061 0.027073 0.067603
v 0.128588 0.027074 -0.176987
v 0.384820 0.000773 -0.125036
v -0.128588 0.027074 -0.176987
v -0.384820 0.000774 -0.125035
v 0.000000 0.000773 -0.404623
v 0.237832 0.000772 0.327347
v -0.208061 -0.025528 0.067603
v 0.000000 -0.025528 0.218768
v 0.000000 -0.038677 -0.000000
v 0.208061 -0.025528 0.067603
v 0.128588 -0.025527 -0.176987
v -0.128588 -0.025527 -0.176987
vn -0.0719 0.9971 0.0234
vn -0.0548 0.9956 0.0755
vn -0.0000 0.9971 0.0756
vn 0.0000 1.0000 0.0000
vn 0.0719 0.9971 0.0234
vn 0.0887 0.9956 -0.0288
vn 0.0444 0.9971 -0.0611
vn -0.0444 0.9971 -0.0611
vn -0.0887 0.9956 -0.0288
vn -0.0000 0.9956 -0.0933
vn 0.0548 0.9956 0.0755
vn -0.0748 -0.9969 0.0243
vn -0.0000 -1.0000 -0.0000
vn 0.0000 -0.9969 0.0786
vn -0.0570 -0.9953 0.0785
vn 0.0748 -0.9969 0.0243
vn 0.0462 -0.9969 -0.0636
vn 0.0923 -0.9953 -0.0300
vn -0.0462 -0.9969 -0.0636
vn -0.0923 -0.9953 -0.0300
vn -0.0000 -0.9953 -0.0970
vn 0.0570 -0.9953 0.0785
vn 0.1987 0.0000 -0.9801
vn 0.9935 -0.0000 -0.1139
vn -0.1987 0.0000 -0.9801
vn -0.8707 0.0000 -0.4918
vn 0.4153 0.0000 0.9097
vn -0.7368 0.0000 0.6761
vn -0.4153 0.0000 0.9097
vn -0.9935 -0.0000 -0.1139
vn 0.7368 0.0000 0.6761
vn 0.8707 0.0000 -0.4918
usemtl None
s 1
f 62//47 65//48 64//49 63//50
f 66//51 68//52 67//53 63//50
f 69//54 70//55 62//47 63//50
f 69//54 63//50 67//53 71//56
f 66//51 63//50 64//49 72//57
f 73//58 75//59 74//60 65//61
f 76//62 75//59 77//63 68//64
f 78//65 75//59 73//58 70//66
f 78//65 71//67 77//63 75//59
f 76//62 72//68 74//60 75//59
f 68//69 77//69 67//69
f 72//70 76//70 66//70
f 69//71 78//71 70//71
f 71//72 78//72 69//72
f 65//73 74//73 64//73
f 70//74 73//74 62//74
f 64//75 74//75 72//75
f 62//76 73//76 65//76
f 66//77 76//77 68//77
f 67//78 77//78 71//78
