# Blender v2.79 (sub 0) OBJ File: 'mod_Hochbett.blend'
# www.blender.org
g Schrank_AmyZ
v 0.000000 -0.000000 1.000000
v 0.000000 4.000000 1.000002
v 0.000000 4.000000 -0.999998
v 0.000000 0.000000 -1.000000
v 1.000000 4.000000 -0.999998
v 1.000000 0.000000 -1.000000
v 1.000000 3.880000 0.859966
v 1.000000 -0.000000 0.859964
v 0.186732 -0.000000 0.859964
v 0.186732 3.880000 0.859966
v 1.000000 -0.000000 1.000000
v 1.000000 4.000000 1.000002
v 1.000000 3.880000 -0.859962
v 1.000000 0.000000 -0.859964
v 0.186732 0.000000 -0.859964
v 0.186732 3.880000 -0.859962
v 0.970000 0.001472 -0.870000
v 0.970000 0.801472 -0.870000
v 0.970000 0.801472 0.870000
v 0.970000 0.001472 0.870000
v 0.989148 1.900000 -0.900000
v 0.989148 1.980000 -0.900000
v 0.989148 1.980000 0.900000
v 0.989148 1.900000 0.900000
v 0.189148 1.900000 -0.900000
v 0.189148 1.900000 0.900000
v 0.189148 1.980000 -0.900000
v 0.189148 1.980000 0.900000
v 0.989148 0.801278 -0.900000
v 0.989148 0.881276 -0.900000
v 0.989148 0.881276 0.900000
v 0.989148 0.801278 0.900000
v 0.189148 0.801278 -0.900000
v 0.189148 0.801278 0.900000
v 0.189148 0.881276 -0.900000
v 0.189148 0.881276 0.900000
v 0.989148 3.000000 -0.899999
v 0.989148 3.080000 -0.899999
v 0.989148 3.080000 0.900000
v 0.989148 3.000000 0.900000
v 0.189148 3.000000 -0.899999
v 0.189148 3.000000 0.900000
v 0.189148 3.080000 -0.899999
v 0.189148 3.080000 0.900000
v 1.012852 0.639062 -0.060904
v 1.062954 0.681652 -0.069464
v 0.970058 0.670990 -0.209014
v 0.969498 0.638774 -0.145932
v 1.064742 0.589846 0.069768
v 1.115740 0.637246 0.079208
v 0.969262 0.637388 0.272874
v 0.970082 0.600652 0.210738
v 1.012852 0.639062 0.060904
v 0.969498 0.638774 0.145932
v 1.062954 0.681652 0.069464
v 0.970058 0.670990 0.209014
v 0.969262 0.637388 -0.272874
v 1.115740 0.637246 -0.079208
v 0.970082 0.600652 -0.210738
v 1.064742 0.589846 -0.069768
vt 0.065300 0.350500
vt 0.114400 0.350500
vt 0.114400 0.399500
vt 0.065300 0.399500
vt 0.902800 0.476700
vt 0.902800 0.984300
vt 0.800300 0.984300
vt 0.800300 0.476700
vt 0.860500 0.975400
vt 0.787900 0.975400
vt 0.787900 0.485500
vt 0.860500 0.485500
vt 0.902800 0.476700
vt 0.902800 0.984300
vt 0.800300 0.984300
vt 0.800300 0.476700
vt 0.067000 0.043600
vt 0.190800 0.043600
vt 0.190800 0.167400
vt 0.067000 0.167400
vt 0.800300 0.984300
vt 0.800300 0.476700
vt 0.902800 0.476700
vt 0.902800 0.984300
vt 0.067000 0.043600
vt 0.190800 0.043600
vt 0.190800 0.167400
vt 0.902800 0.476700
vt 0.902800 0.984300
vt 0.800300 0.984300
vt 0.800300 0.476700
vt 0.167300 0.304900
vt 0.167300 0.429600
vt 0.112000 0.429600
vt 0.112000 0.304900
vt 0.065300 0.350500
vt 0.114400 0.350500
vt 0.114400 0.399500
vt 0.065300 0.399500
vt 0.860500 0.975400
vt 0.787900 0.975400
vt 0.787900 0.485500
vt 0.860500 0.485500
vt 0.864600 0.682200
vt 0.864600 0.528800
vt 0.799500 0.528800
vt 0.799500 0.682200
vt 0.067000 0.043600
vt 0.190800 0.043600
vt 0.190800 0.167400
vt 0.067000 0.167400
vt 0.065300 0.350500
vt 0.114400 0.350500
vt 0.114400 0.399500
vt 0.065300 0.399500
vt 0.784900 0.979400
vt 0.784900 0.481500
vt 0.832300 0.481500
vt 0.832300 0.979400
vt 0.067000 0.043600
vt 0.190800 0.043600
vt 0.190800 0.167400
vt 0.067000 0.167400
vt 0.191500 0.536600
vt 0.191500 0.603600
vt 0.040800 0.603600
vt 0.040800 0.536600
vt 0.784900 0.979400
vt 0.784900 0.481500
vt 0.832300 0.481500
vt 0.832300 0.979400
vt 0.067000 0.043600
vt 0.190800 0.043600
vt 0.190800 0.167400
vt 0.067000 0.167400
vt 0.065300 0.350500
vt 0.114400 0.350500
vt 0.114400 0.399500
vt 0.065300 0.399500
vt 0.784900 0.979400
vt 0.784900 0.481500
vt 0.832300 0.481500
vt 0.832300 0.979400
vt 0.596200 0.628300
vt 0.594600 0.794100
vt 0.568500 0.486700
vt 0.580300 0.484900
vt 0.620600 0.800000
vt 0.622300 0.968800
vt 0.658500 0.484100
vt 0.646900 0.486800
vt 0.618900 0.628300
vt 0.634800 0.484900
vt 0.620500 0.794100
vt 0.646500 0.486700
vt 0.556600 0.484100
vt 0.592800 0.968800
vt 0.568200 0.486800
vt 0.594500 0.800000
vn -1.0000 0.0000 0.0000
vn 0.0000 0.0000 -1.0000
vn 0.0000 -0.0000 1.0000
vn 0.0000 1.0000 0.0000
vn 1.0000 0.0000 0.0000
vn 0.0000 -1.0000 -0.0000
vn -0.9638 0.0326 0.2648
vn 0.0894 0.9932 -0.0742
vn 0.3173 0.9059 -0.2804
vn -0.8740 0.0368 0.4846
vn 0.0940 -0.9925 0.0784
vn 0.9532 0.0224 0.3016
vn 0.7955 0.0096 0.6059
vn 0.3329 -0.8956 0.2951
vn -0.9638 0.0326 -0.2648
vn -0.8739 0.0368 -0.4846
vn 0.0894 0.9932 0.0742
vn 0.3173 0.9059 0.2804
vn 0.7955 0.0096 -0.6059
vn 0.9532 0.0224 -0.3016
vn 0.3329 -0.8956 -0.2951
vn 0.0940 -0.9925 -0.0784
s off
f 1/1/1 2/2/1 3/3/1 4/4/1
f 4/5/2 3/6/2 5/7/2 6/8/2
f 7/9/2 8/10/2 9/11/2 10/12/2
f 11/13/3 12/14/3 2/15/3 1/16/3
f 5/17/4 3/18/4 2/19/4 12/20/4
f 13/21/5 14/22/5 6/23/5 5/24/5
f 7/25/5 13/26/5 5/27/5 12/20/5
f 8/28/5 7/29/5 12/30/5 11/31/5
f 15/32/5 16/33/5 10/34/5 9/35/5
f 13/36/6 7/37/6 10/38/6 16/39/6
f 14/40/3 13/41/3 16/42/3 15/43/3
f 17/44/5 18/45/5 19/46/5 20/47/5
f 21/48/5 22/49/5 23/50/5 24/51/5
f 25/52/6 21/53/6 24/54/6 26/55/6
f 22/56/4 27/57/4 28/58/4 23/59/4
f 29/60/5 30/61/5 31/62/5 32/63/5
f 33/64/6 29/65/6 32/66/6 34/67/6
f 30/68/4 35/69/4 36/70/4 31/71/4
f 37/72/5 38/73/5 39/74/5 40/75/5
f 41/76/6 37/77/6 40/78/6 42/79/6
f 38/80/4 43/81/4 44/82/4 39/83/4
s 1
f 45/84/7 46/85/8 47/86/9 48/87/10
f 49/88/11 50/89/12 51/90/13 52/91/14
f 53/92/15 49/88/11 52/91/14 54/93/16
f 50/89/12 55/94/17 56/95/18 51/90/13
f 57/96/19 47/86/9 46/85/8 58/97/20
f 58/97/20 46/85/8 55/94/17 50/89/12
f 48/87/10 59/98/21 60/99/22 45/84/7
f 45/84/7 60/99/22 49/88/11 53/92/15
f 59/98/21 57/96/19 58/97/20 60/99/22
f 60/99/22 58/97/20 50/89/12 49/88/11
f 54/93/16 56/95/18 55/94/17 53/92/15
f 53/92/15 55/94/17 46/85/8 45/84/7
