# Blender v2.78 (sub 0) OBJ File: 'Arbeitszimmer_UVbearbeiten.blend'
# www.blender.org
mtllib mod_Schreibtisch_ArbeitsZ.mtl
g Schreibtisch_ArbeitsZ
v 0.094620 0.330741 0.861688
v 0.094620 1.436147 0.861688
v 1.530766 1.436147 0.861688
v 1.530766 0.330741 0.861688
v 1.530766 0.377894 0.952353
v 1.530766 1.345482 0.952353
v 1.584999 1.306869 0.996697
v 1.584999 0.416506 0.996697
v 1.530766 0.330741 2.154220
v 1.530766 1.436147 2.154220
v 0.094620 1.436147 2.154220
v 0.094620 0.330741 2.154220
v 1.530766 0.377894 2.063555
v 1.530766 1.345482 2.063555
v 1.584999 1.306869 2.019212
v 1.584999 0.416506 2.019211
v 0.015305 0.278997 2.217671
v 1.610080 0.278997 2.217671
v 1.610080 0.278997 0.798237
v 0.015305 0.278997 0.798237
v 0.000000 -0.000000 2.240268
v 1.652965 -0.000000 2.240268
v 1.652965 -0.000000 0.774281
v 0.000000 -0.000000 0.774281
v 0.094620 0.330741 -0.861688
v 1.530766 0.330741 -0.861688
v 1.530766 1.436147 -0.861688
v 0.094620 1.436147 -0.861688
v 1.530766 0.377894 -0.952353
v 1.584999 0.416507 -0.996697
v 1.584999 1.306870 -0.996696
v 1.530766 1.345482 -0.952353
v 1.530766 0.330741 -2.154220
v 0.094620 0.330741 -2.154220
v 0.094620 1.436147 -2.154220
v 1.530766 1.436147 -2.154220
v 1.530766 0.377894 -2.063555
v 1.530766 1.345482 -2.063555
v 1.584999 0.416507 -2.019211
v 1.584999 1.306870 -2.019211
v 1.610080 0.278997 -2.217671
v 0.015305 0.278997 -2.217671
v 0.015305 0.278997 -0.798237
v 1.610080 0.278997 -0.798237
v 1.652965 0.000000 -2.240268
v 0.000000 0.000000 -2.240268
v 1.652965 0.000000 -0.774281
v 0.000000 0.000000 -0.774281
v -0.033226 1.434083 -2.237294
v 0.134582 1.548975 -2.188944
v 1.490804 1.548975 -2.188944
v 1.658612 1.434083 -2.237294
v 1.490804 1.548975 2.188944
v 1.658612 1.434083 2.237294
v 0.134582 1.548975 2.188944
v -0.033226 1.434083 2.237294
v 1.475655 0.979681 -0.862675
v 1.475655 1.443653 -0.862675
v 1.475655 1.443653 0.862675
v 1.475655 0.979681 0.862675
v 1.014673 0.979681 -0.862675
v 1.014673 0.979681 0.862675
v 1.014673 1.443654 0.862675
v 1.014673 1.443654 -0.862675
v 1.658612 1.548975 -2.356752
v 1.658612 1.548975 2.356752
v -0.033226 1.548975 2.356752
v -0.033226 1.548975 -2.356752
vt 0.5613 0.3349
vt 0.5613 0.5462
vt 0.5613 0.5462
vt 0.5613 0.3349
vt 0.5102 0.6179
vt 0.5259 0.6179
vt 0.5259 0.6220
vt 0.5102 0.6220
vt 0.5244 0.3349
vt 0.5244 0.5462
vt 0.5244 0.5462
vt 0.5244 0.3349
vt 0.5587 0.5289
vt 0.5587 0.3440
vt 0.5270 0.3440
vt 0.5270 0.5289
vt 0.5529 0.3343
vt 0.5529 0.4669
vt 0.5148 0.4669
vt 0.5148 0.3343
vt 0.5102 0.6179
vt 0.5259 0.6179
vt 0.5259 0.6220
vt 0.5102 0.6220
vt 0.5102 0.6179
vt 0.5259 0.6179
vt 0.5259 0.6220
vt 0.5102 0.6220
vt 0.5102 0.6179
vt 0.5259 0.6179
vt 0.5259 0.6220
vt 0.5102 0.6220
vt 0.6488 0.5464
vt 0.5225 0.5464
vt 0.5225 0.5272
vt 0.6488 0.5272
vt 0.6488 0.5464
vt 0.5225 0.5464
vt 0.5225 0.5272
vt 0.6488 0.5272
vt 0.6488 0.5464
vt 0.5225 0.5464
vt 0.5225 0.5272
vt 0.6488 0.5272
vt 0.6488 0.5464
vt 0.5225 0.5464
vt 0.5225 0.5272
vt 0.6488 0.5272
vt 0.6488 0.5464
vt 0.5225 0.5464
vt 0.5225 0.5272
vt 0.6488 0.5272
vt 0.6488 0.5464
vt 0.5225 0.5464
vt 0.5225 0.5272
vt 0.6488 0.5272
vt 0.6488 0.5464
vt 0.5225 0.5464
vt 0.5225 0.5272
vt 0.6488 0.5272
vt 0.6488 0.5464
vt 0.6105 0.3349
vt 0.6105 0.3349
vt 0.6105 0.5462
vt 0.6105 0.5462
vt 0.5102 0.6179
vt 0.5259 0.6179
vt 0.5259 0.6220
vt 0.5102 0.6220
vt 0.6475 0.3349
vt 0.6475 0.3349
vt 0.6475 0.5462
vt 0.6475 0.5462
vt 0.6131 0.5289
vt 0.6131 0.3440
vt 0.6449 0.3440
vt 0.6449 0.5289
vt 0.6184 0.3343
vt 0.6565 0.3343
vt 0.6565 0.4669
vt 0.6184 0.4669
vt 0.5102 0.6179
vt 0.5259 0.6179
vt 0.5259 0.6220
vt 0.5102 0.6220
vt 0.5102 0.6179
vt 0.5259 0.6179
vt 0.5259 0.6220
vt 0.5102 0.6220
vt 0.5102 0.6179
vt 0.5259 0.6179
vt 0.5259 0.6220
vt 0.5102 0.6220
vt 0.6488 0.5464
vt 0.5225 0.5464
vt 0.5225 0.5272
vt 0.6488 0.5272
vt 0.6488 0.5464
vt 0.5225 0.5464
vt 0.5225 0.5272
vt 0.6488 0.5272
vt 0.6488 0.5464
vt 0.5225 0.5464
vt 0.5225 0.5272
vt 0.6488 0.5272
vt 0.6488 0.5464
vt 0.5225 0.5464
vt 0.5225 0.5272
vt 0.6488 0.5272
vt 0.6488 0.5464
vt 0.5225 0.5464
vt 0.5225 0.5272
vt 0.6488 0.5272
vt 0.6488 0.5464
vt 0.5225 0.5464
vt 0.5225 0.5272
vt 0.6488 0.5272
vt 0.6488 0.5464
vt 0.5225 0.5464
vt 0.5225 0.5272
vt 0.6488 0.5272
vt 0.6488 0.5464
vt 0.6428 0.5460
vt 0.6411 0.5460
vt 0.6411 0.5282
vt 0.6428 0.5282
vt 0.6411 0.5276
vt 0.5288 0.5282
vt 0.5288 0.5276
vt 0.5271 0.5282
vt 0.5288 0.5460
vt 0.5271 0.5460
vt 0.5102 0.6179
vt 0.5259 0.6179
vt 0.5259 0.6220
vt 0.5102 0.6220
vt 0.2794 0.5382
vt 0.2794 0.6222
vt 0.1932 0.6222
vt 0.1932 0.5382
vt 0.6106 0.4590
vt 0.6106 0.5477
vt 0.5613 0.5477
vt 0.5613 0.4590
vt 0.6136 0.6151
vt 0.6136 0.6151
vt 0.5543 0.6151
vt 0.5543 0.6151
vt 0.6106 0.4590
vt 0.5613 0.4590
vt 0.5613 0.5477
vt 0.6106 0.5477
vt 0.6371 0.5300
vt 0.5328 0.5300
vt 0.5328 0.5442
vt 0.6371 0.5442
vn 0.0000 0.0000 -1.0000
vn 0.6330 0.0000 -0.7742
vn 0.0000 -0.0000 1.0000
vn 1.0000 -0.0000 0.0000
vn 0.5800 0.8146 0.0000
vn 0.6330 -0.0000 0.7742
vn 0.5800 -0.8146 -0.0000
vn 0.0000 0.7750 0.6320
vn 0.0000 0.7750 -0.6320
vn 0.5464 0.8375 0.0000
vn 0.0000 0.0807 0.9967
vn 0.9884 0.1519 0.0000
vn 0.0000 0.0856 -0.9963
vn -1.0000 0.0000 0.0000
vn -0.5464 0.8375 0.0000
vn -0.9985 0.0548 0.0000
vn 0.0000 0.0807 -0.9967
vn 0.0000 0.0855 0.9963
vn 0.0000 -0.7207 -0.6932
vn 0.0000 -0.7207 0.6932
vn 0.0000 -1.0000 -0.0000
vn 0.0000 1.0000 0.0000
usemtl None
s 1
f 1/1/1 2/2/1 3/3/1 4/4/1
f 5/5/2 6/6/2 7/7/2 8/8/2
f 9/9/3 10/10/3 11/11/3 12/12/3
f 6/13/4 5/14/4 4/4/4 3/3/4
f 5/14/4 13/15/4 9/9/4 4/4/4
f 14/16/4 6/13/4 3/3/4 10/10/4
f 13/15/4 14/16/4 10/10/4 9/9/4
f 8/17/4 7/18/4 15/19/4 16/20/4
f 6/21/5 14/22/5 15/23/5 7/24/5
f 14/25/6 13/26/6 16/27/6 15/28/6
f 13/29/7 5/30/7 8/31/7 16/32/7
f 9/33/8 12/34/8 17/35/8 18/36/8
f 1/37/9 4/38/9 19/39/9 20/40/9
f 4/41/10 9/42/10 18/43/10 19/44/10
f 18/45/11 17/46/11 21/47/11 22/48/11
f 19/49/12 18/50/12 22/51/12 23/52/12
f 20/53/13 19/54/13 23/55/13 24/56/13
f 12/12/14 11/11/14 2/2/14 1/1/14
f 12/57/15 1/58/15 20/59/15 17/60/15
f 21/61/16 17/46/16 20/59/16 24/56/16
f 25/62/3 26/63/3 27/64/3 28/65/3
f 29/66/6 30/67/6 31/68/6 32/69/6
f 33/70/1 34/71/1 35/72/1 36/73/1
f 32/74/4 27/64/4 26/63/4 29/75/4
f 29/75/4 26/63/4 33/70/4 37/76/4
f 38/77/4 36/73/4 27/64/4 32/74/4
f 37/76/4 33/70/4 36/73/4 38/77/4
f 30/78/4 39/79/4 40/80/4 31/81/4
f 32/82/5 31/83/5 40/84/5 38/85/5
f 38/86/2 40/87/2 39/88/2 37/89/2
f 37/90/7 39/91/7 30/92/7 29/93/7
f 33/94/9 41/95/9 42/96/9 34/97/9
f 25/98/8 43/99/8 44/100/8 26/101/8
f 26/102/10 44/103/10 41/104/10 33/105/10
f 41/106/17 45/107/17 46/108/17 42/109/17
f 44/110/12 47/111/12 45/112/12 41/113/12
f 43/114/18 48/115/18 47/116/18 44/117/18
f 34/71/14 25/62/14 28/65/14 35/72/14
f 34/118/15 42/119/15 43/120/15 25/121/15
f 46/122/16 48/115/16 43/120/16 42/109/16
f 49/123/19 68/124/19 65/125/19 52/126/19
f 52/127/4 65/125/4 66/128/4 54/129/4
f 54/130/20 66/128/20 67/131/20 56/132/20
f 49/133/21 52/134/21 54/135/21 56/136/21
f 51/137/22 50/138/22 55/139/22 53/140/22
f 49/123/14 56/132/14 67/131/14 68/124/14
f 57/141/4 58/142/4 59/143/4 60/144/4
f 61/145/21 57/146/21 60/147/21 62/148/21
f 61/149/14 62/150/14 63/151/14 64/152/14
f 51/153/22 53/154/22 66/128/22 65/125/22
f 53/154/22 55/155/22 67/131/22 66/128/22
f 50/156/22 51/153/22 65/125/22 68/124/22
f 55/155/22 50/156/22 68/124/22 67/131/22
