# Blender v2.78 (sub 0) OBJ File: 'Arbeitszimmer_UVbearbeiten.blend'
# www.blender.org
mtllib mod_Wollknaeuel_1.mtl
g Wollknaeuel_1
v 0.000000 0.000000 0.000000
v 0.000000 0.001115 -0.043413
v 0.032078 0.004630 -0.027963
v 0.000000 0.022834 -0.079948
v 0.000000 0.059336 -0.099817
v 0.064155 0.066365 -0.068917
v 0.055560 0.028922 -0.053188
v 0.000000 0.100840 -0.097695
v 0.000000 0.136227 -0.074151
v 0.032078 0.139742 -0.058701
v 0.055560 0.106929 -0.070935
v 0.000000 0.156014 -0.035493
v 0.069282 0.042601 0.006942
v 0.040000 0.012528 0.006754
v 0.069282 0.120608 -0.010804
v 0.080000 0.082161 0.000516
v 0.040000 0.147640 -0.023985
v 0.030833 0.053572 0.055163
v 0.017802 0.018862 0.034594
v 0.030833 0.131579 0.037417
v 0.035603 0.094829 0.056196
v 0.017802 0.153974 0.003856
v -0.030833 0.053572 0.055163
v -0.017802 0.018862 0.034594
v -0.030833 0.131579 0.037417
v -0.035603 0.094829 0.056196
v -0.017802 0.153974 0.003856
v -0.069282 0.042601 0.006942
v -0.040000 0.012528 0.006754
v -0.069282 0.120608 -0.010804
v -0.080000 0.082161 0.000516
v -0.040000 0.147640 -0.023985
v -0.055560 0.106929 -0.070935
v -0.064155 0.066365 -0.068917
v -0.032078 0.139742 -0.058701
v -0.032078 0.004630 -0.027963
v -0.055560 0.028922 -0.053188
v 0.000000 0.004033 0.035911
v 0.000000 0.010899 0.015333
v 0.004616 0.013185 0.017502
v 0.005088 0.006738 0.037402
v 0.004616 0.017840 0.021421
v 0.005088 0.012199 0.040131
v 0.000000 0.020454 0.021941
v 0.000000 0.015101 0.040630
v -0.004616 0.017840 0.021421
v -0.005088 0.012199 0.040131
v -0.004616 0.013185 0.017502
v -0.005088 0.006738 0.037402
v 0.000000 0.010759 0.071718
v 0.004154 0.008373 0.071812
v 0.000000 0.013742 0.106757
v 0.003906 0.011491 0.106595
v 0.000000 0.001347 0.071437
v -0.004154 0.003685 0.071582
v -0.004154 0.008373 0.071812
v 0.004154 0.003685 0.071582
v 0.003906 0.007004 0.106202
v 0.003857 0.007694 0.134565
v 0.003857 0.003195 0.134248
v 0.000000 0.004761 0.106001
v -0.003906 0.007004 0.106202
v -0.003906 0.011491 0.106595
v 0.000000 0.000945 0.134089
v 0.003857 0.002957 0.163877
v 0.000000 0.000730 0.163841
v -0.003857 0.003195 0.134248
v -0.003857 0.007694 0.134565
v 0.000000 0.009944 0.134724
v 0.003857 0.007410 0.163947
v 0.000000 0.009637 0.163983
v -0.003857 0.007410 0.163947
v -0.003857 0.002957 0.163877
vt 0.0226 0.1185
vt 0.0114 0.1016
vt 0.0293 0.0980
vt 0.1119 0.0837
vt 0.0924 0.0743
vt 0.1134 0.0615
vt 0.1301 0.0726
vt 0.0808 0.0564
vt 0.0801 0.0349
vt 0.0907 0.0284
vt 0.0990 0.0453
vt 0.0073 0.0893
vt 0.0383 0.0830
vt 0.0907 0.0154
vt 0.0632 0.1034
vt 0.0437 0.1098
vt 0.1226 0.0220
vt 0.1407 0.0346
vt 0.1043 0.0150
vt 0.1537 0.0493
vt 0.0632 0.1352
vt 0.0437 0.1281
vt 0.1339 0.0041
vt 0.1537 0.0139
vt 0.1108 0.0046
vt 0.0759 0.1011
vt 0.0759 0.1377
vt 0.0383 0.1543
vt 0.0293 0.1392
vt 0.0801 0.1310
vt 0.0827 0.1101
vt 0.1163 0.1101
vt 0.1189 0.1310
vt 0.0898 0.0928
vt 0.0995 0.0837
vt 0.1092 0.0928
vt 0.0827 0.1499
vt 0.1163 0.1499
vt 0.0375 0.0041
vt 0.0606 0.0051
vt 0.0479 0.0222
vt 0.0302 0.0139
vt 0.1373 0.1052
vt 0.1431 0.1253
vt 0.1213 0.0900
vt 0.0114 0.1347
vt 0.0796 0.0162
vt 0.0650 0.0360
vt 0.0768 0.0516
vt 0.0513 0.0732
vt 0.0356 0.0609
vt 0.1170 0.0864
vt 0.0035 0.1179
vt 0.0225 0.0438
vt 0.0801 0.0649
vt 0.0655 0.0773
vt 0.0155 0.0264
vt 0.0807 0.0294
vt 0.0136 0.0722
vt 0.0035 0.0536
vt 0.0545 0.0830
vt 0.0323 0.0830
vt 0.0045 0.0321
vt 0.1232 0.1315
vt 0.1407 0.1373
vt 0.1389 0.1392
vt 0.1220 0.1338
vt 0.1355 0.1432
vt 0.1197 0.1384
vt 0.1351 0.1454
vt 0.1192 0.1409
vt 0.1355 0.1432
vt 0.1197 0.1384
vt 0.1389 0.1392
vt 0.1220 0.1338
vt 0.0929 0.1372
vt 0.0928 0.1351
vt 0.0631 0.1397
vt 0.0633 0.1378
vt 0.0931 0.1292
vt 0.0930 0.1312
vt 0.0928 0.1351
vt 0.0930 0.1312
vt 0.0636 0.1340
vt 0.0395 0.1346
vt 0.0398 0.1307
vt 0.0638 0.1321
vt 0.0636 0.1340
vt 0.0633 0.1378
vt 0.0399 0.1288
vt 0.0147 0.1305
vt 0.0147 0.1287
vt 0.0398 0.1307
vt 0.0395 0.1346
vt 0.0394 0.1365
vt 0.0146 0.1343
vt 0.0146 0.1362
vt 0.0146 0.1343
vt 0.0147 0.1305
vn 0.0000 -0.9751 0.2218
vn 0.0000 -0.9422 -0.3350
vn 0.4256 -0.8946 -0.1364
vn -0.0000 -0.6676 -0.7445
vn -0.0000 -0.2218 -0.9751
vn 0.7858 -0.1372 -0.6031
vn 0.6893 -0.5899 -0.4207
vn 0.0000 0.2798 -0.9601
vn -0.0000 0.7046 -0.7096
vn 0.4256 0.7475 -0.5100
vn 0.6893 0.3498 -0.6345
vn -0.0000 0.9751 -0.2218
vn 0.8561 -0.4251 0.2939
vn 0.5285 -0.7936 0.3014
vn 0.8561 0.5104 0.0811
vn 0.9756 0.0487 0.2143
vn 0.5285 0.8459 -0.0716
vn 0.3844 -0.2982 0.8737
vn 0.2375 -0.7159 0.6566
vn 0.3844 0.6468 0.6587
vn 0.4385 0.1994 0.8764
vn 0.2375 0.9295 0.2823
vn -0.3844 -0.2982 0.8737
vn -0.2375 -0.7159 0.6566
vn -0.3844 0.6468 0.6587
vn -0.4385 0.1994 0.8764
vn -0.2375 0.9295 0.2823
vn -0.8561 -0.4251 0.2939
vn -0.5285 -0.7936 0.3014
vn -0.8561 0.5104 0.0811
vn -0.9756 0.0487 0.2143
vn -0.5285 0.8459 -0.0716
vn -0.6893 0.3498 -0.6345
vn -0.7858 -0.1372 -0.6031
vn -0.4256 0.7475 -0.5100
vn -0.4256 -0.8946 -0.1364
vn -0.6893 -0.5899 -0.4207
vn -0.0000 -0.9778 -0.2096
vn -0.0000 -0.9478 -0.3188
vn 0.8075 -0.5557 -0.1980
vn 0.8553 -0.5091 -0.0968
vn 0.8894 0.4432 0.1118
vn 0.8789 0.4659 0.1025
vn 0.0000 0.9613 0.2753
vn 0.0000 0.9782 0.2077
vn -0.8894 0.4432 0.1118
vn -0.8789 0.4659 0.1025
vn -0.8075 -0.5557 -0.1980
vn -0.8553 -0.5091 -0.0968
vn 0.0000 0.9996 0.0286
vn 0.8803 0.4739 0.0226
vn -0.0000 0.9996 0.0267
vn 0.8509 0.5251 0.0145
vn 0.0000 -0.9999 0.0100
vn -0.8480 -0.5298 0.0166
vn -0.8803 0.4739 0.0226
vn 0.8480 -0.5298 0.0166
vn 0.8812 -0.4728 -0.0065
vn 0.8753 0.4822 0.0357
vn 0.8580 -0.5124 -0.0360
vn -0.0000 -0.9999 -0.0147
vn -0.8812 -0.4728 -0.0065
vn -0.8509 0.5251 0.0145
vn -0.0000 -0.9975 -0.0710
vn 0.8677 -0.4971 -0.0038
vn 0.0000 -1.0000 -0.0076
vn -0.8580 -0.5124 -0.0360
vn -0.8753 0.4822 0.0357
vn -0.0000 0.9973 0.0728
vn -0.0000 -0.0159 0.9999
vn -0.8677 -0.4971 -0.0038
vn -0.8658 0.5004 0.0050
vn 0.0000 0.9999 0.0101
vn 0.8658 0.5004 0.0050
usemtl None
s 1
f 1/1/1 2/2/2 3/3/3
f 4/4/4 5/5/5 6/6/6 7/7/7
f 8/8/8 9/9/9 10/10/10 11/11/11
f 2/2/2 4/12/4 7/13/7 3/3/3
f 5/5/5 8/8/8 11/11/11 6/6/6
f 9/9/9 12/14/12 10/10/10
f 3/3/3 7/13/7 13/15/13 14/16/14
f 6/6/6 11/11/11 15/17/15 16/18/16
f 10/10/10 12/14/12 17/19/17
f 1/1/1 3/3/3 14/16/14
f 7/7/7 6/6/6 16/18/16 13/20/13
f 11/11/11 10/10/10 17/19/17 15/17/15
f 14/16/14 13/15/13 18/21/18 19/22/19
f 16/18/16 15/17/15 20/23/20 21/24/21
f 17/19/17 12/14/12 22/25/22
f 1/1/1 14/16/14 19/22/19
f 13/15/13 16/26/16 21/27/21 18/21/18
f 15/17/15 17/19/17 22/25/22 20/23/20
f 19/22/19 18/21/18 23/28/23 24/29/24
f 21/30/21 20/31/20 25/32/25 26/33/26
f 22/34/22 12/35/12 27/36/27
f 1/1/1 19/22/19 24/29/24
f 18/37/18 21/30/21 26/33/26 23/38/23
f 20/31/20 22/34/22 27/36/27 25/32/25
f 24/39/24 23/40/23 28/41/28 29/42/29
f 26/33/26 25/32/25 30/43/30 31/44/31
f 27/36/27 12/35/12 32/45/32
f 1/1/1 24/29/24 29/46/29
f 23/40/23 26/47/26 31/48/31 28/41/28
f 25/32/25 27/36/27 32/45/32 30/43/30
f 31/48/31 30/49/30 33/50/33 34/51/34
f 32/45/32 12/35/12 35/52/35
f 1/1/1 29/46/29 36/53/36
f 28/41/28 31/48/31 34/51/34 37/54/37
f 30/49/30 32/55/32 35/56/35 33/50/33
f 29/42/29 28/41/28 37/54/37 36/57/36
f 35/58/35 12/14/12 9/9/9
f 1/1/1 36/53/36 2/2/2
f 37/54/37 34/51/34 5/59/5 4/60/4
f 33/50/33 35/56/35 9/61/9 8/62/8
f 36/57/36 37/54/37 4/60/4 2/63/2
f 34/51/34 33/50/33 8/62/8 5/59/5
f 38/64/38 39/65/39 40/66/40 41/67/41
f 41/67/41 40/66/40 42/68/42 43/69/43
f 43/69/43 42/68/42 44/70/44 45/71/45
f 45/71/45 44/70/44 46/72/46 47/73/47
f 47/73/47 46/72/46 48/74/48 49/75/49
f 49/75/49 48/74/48 39/65/39 38/64/38
f 43/69/43 45/71/45 50/76/50 51/77/51
f 51/77/51 50/76/50 52/78/52 53/79/53
f 49/75/49 38/64/38 54/80/54 55/81/55
f 45/71/45 47/73/47 56/82/56 50/76/50
f 41/67/41 43/69/43 51/77/51 57/83/57
f 47/73/47 49/75/49 55/81/55 56/82/56
f 38/64/38 41/67/41 57/83/57 54/80/54
f 58/84/58 53/79/53 59/85/59 60/86/60
f 54/80/54 57/83/57 58/84/58 61/87/61
f 55/81/55 54/80/54 61/87/61 62/88/62
f 50/76/50 56/82/56 63/89/63 52/78/52
f 57/83/57 51/77/51 53/79/53 58/84/58
f 56/82/56 55/81/55 62/88/62 63/89/63
f 64/90/64 60/86/60 65/91/65 66/92/66
f 63/89/63 62/88/62 67/93/67 68/94/68
f 53/79/53 52/78/52 69/95/69 59/85/59
f 61/87/61 58/84/58 60/86/60 64/90/64
f 62/88/62 61/87/61 64/90/64 67/93/67
f 52/78/52 63/89/63 68/94/68 69/95/69
f 66/92/70 65/91/70 70/96/70 71/97/70 72/98/70 73/99/70
f 67/93/67 64/90/64 66/92/66 73/99/71
f 69/95/69 68/94/68 72/98/72 71/97/73
f 60/86/60 59/85/59 70/96/74 65/91/65
f 68/94/68 67/93/67 73/99/71 72/98/72
f 59/85/59 69/95/69 71/97/73 70/96/74
