# Blender v2.78 (sub 0) OBJ File: 'Arbeitszimmer_UVbearbeiten.blend'
# www.blender.org
mtllib mod_Tischlampe.mtl
g Tischlampe
v -0.065753 0.032232 0.045792
v -0.065753 0.056149 0.045792
v -0.065753 0.056149 0.005830
v -0.065753 0.032232 0.005830
v 0.065753 0.056149 0.005830
v 0.065753 0.032232 0.005830
v 0.065753 0.056149 0.045792
v 0.065753 0.032232 0.045792
v 0.000000 0.931911 -0.078581
v 0.000000 1.000592 0.214073
v 0.206938 0.931911 0.007135
v 0.292655 0.931911 0.214073
v 0.206938 0.931911 0.421012
v 0.000000 0.931911 0.506728
v -0.206938 0.931911 0.421012
v -0.292655 0.931911 0.214073
v -0.206938 0.931911 0.007135
v 0.000000 0.866592 -0.156107
v 0.261757 0.866592 -0.047684
v 0.000000 0.983523 0.214073
v -0.282843 0.866592 -0.068769
v 0.000000 0.866592 -0.185926
v -0.400000 0.866592 0.214073
v -0.282843 0.866592 0.496916
v 0.000000 0.866592 0.614073
v 0.282843 0.866592 0.496916
v 0.400000 0.866592 0.214073
v 0.282843 0.866592 -0.068769
v 0.370181 0.866592 0.214073
v 0.261757 0.866592 0.475831
v 0.000000 0.866592 0.584254
v -0.261757 0.866592 0.475831
v -0.370181 0.866592 0.214073
v -0.261757 0.866592 -0.047684
v 0.000000 0.052232 0.015434
v -0.012027 0.092969 0.015434
v -0.003320 0.095540 0.022030
v 0.008707 0.054802 0.022030
v -0.006645 0.094558 0.032703
v 0.005381 0.053820 0.032703
v -0.017408 0.091380 0.032703
v -0.005381 0.050643 0.032703
v -0.020734 0.090399 0.022030
v -0.008707 0.049661 0.022030
v -0.030924 0.056609 -0.063052
v -0.030924 0.108292 -0.268641
v -0.030924 0.091164 -0.278967
v -0.030924 0.036609 -0.063028
v 0.030924 0.056609 -0.063052
v 0.030924 0.108292 -0.268641
v 0.030924 0.036609 -0.063028
v 0.030924 0.091164 -0.278967
v -0.030924 0.240629 -0.387577
v -0.030924 0.231682 -0.405464
v 0.030924 0.240629 -0.387577
v 0.030924 0.231682 -0.405464
v -0.030924 0.420344 -0.422948
v -0.030924 0.420788 -0.442943
v 0.030924 0.420344 -0.422948
v 0.030924 0.420788 -0.442943
v -0.030924 0.613359 -0.375795
v -0.030924 0.621907 -0.393876
v 0.030924 0.613359 -0.375795
v 0.030924 0.621907 -0.393876
v -0.030924 0.784477 -0.247392
v -0.030924 0.799584 -0.260499
v 0.030924 0.784477 -0.247392
v 0.030924 0.799584 -0.260499
v -0.030924 0.898855 -0.039156
v -0.030924 0.918010 -0.044909
v 0.030924 0.898855 -0.039156
v 0.030924 0.918010 -0.044909
v 0.029044 0.067556 -0.070429
v 0.029044 0.074266 -0.058067
v 0.040801 0.067556 -0.061887
v 0.029044 0.049992 -0.078070
v 0.048068 0.049992 -0.064248
v 0.036310 0.067556 -0.048066
v 0.040801 0.049992 -0.041885
v 0.021778 0.067556 -0.048066
v 0.017287 0.049992 -0.041885
v 0.017287 0.067556 -0.061887
v 0.010020 0.049992 -0.064248
v -0.029044 0.067556 -0.070429
v -0.040801 0.067556 -0.061887
v -0.029044 0.074266 -0.058067
v -0.029044 0.049992 -0.078070
v -0.048068 0.049992 -0.064248
v -0.036310 0.067556 -0.048066
v -0.040801 0.049992 -0.041885
v -0.021778 0.067556 -0.048066
v -0.017287 0.049992 -0.041885
v -0.017287 0.067556 -0.061887
v -0.010020 0.049992 -0.064248
v -0.000000 0.003009 -0.297179
v -0.000000 0.050788 -0.297179
v 0.257364 0.050788 -0.148589
v 0.257364 0.003009 -0.148589
v 0.257364 0.050788 0.148589
v 0.257364 0.003009 0.148589
v -0.000000 0.050788 0.297179
v -0.000000 0.003009 0.297179
v -0.257364 0.050788 0.148589
v -0.257364 0.003009 0.148589
v -0.257364 0.050788 -0.148589
v -0.257364 0.003009 -0.148589
vt 0.2356 0.2449
vt 0.2356 0.2449
vt 0.2356 0.2449
vt 0.2356 0.2449
vt 0.2356 0.2449
vt 0.2356 0.2449
vt 0.2356 0.2449
vt 0.2356 0.2449
vt 0.4748 0.4194
vt 0.4192 0.5762
vt 0.4585 0.4194
vt 0.4192 0.4194
vt 0.3798 0.4194
vt 0.3635 0.4194
vt 0.3798 0.4194
vt 0.4192 0.4194
vt 0.4585 0.4194
vt 0.4899 0.3519
vt 0.4692 0.3519
vt 0.4195 0.6188
vt 0.4733 0.3519
vt 0.4955 0.3519
vt 0.4195 0.3519
vt 0.3657 0.3519
vt 0.3434 0.3519
vt 0.3657 0.3519
vt 0.4195 0.3519
vt 0.4733 0.3519
vt 0.4195 0.3519
vt 0.3697 0.3519
vt 0.3491 0.3519
vt 0.3697 0.3519
vt 0.4195 0.3519
vt 0.4692 0.3519
vt 0.2449 0.0744
vt 0.2449 0.0744
vt 0.2449 0.0744
vt 0.2449 0.0744
vt 0.2449 0.0744
vt 0.2449 0.0744
vt 0.2449 0.0744
vt 0.2449 0.0744
vt 0.2449 0.0744
vt 0.2449 0.0744
vt 0.3743 0.3483
vt 0.4366 0.3665
vt 0.4397 0.3605
vt 0.3743 0.3413
vt 0.3743 0.3483
vt 0.4366 0.3665
vt 0.3743 0.3413
vt 0.4397 0.3605
vt 0.4726 0.4131
vt 0.4780 0.4099
vt 0.4726 0.4131
vt 0.4780 0.4099
vt 0.4833 0.4763
vt 0.4893 0.4764
vt 0.4833 0.4763
vt 0.4893 0.4764
vt 0.4690 0.5442
vt 0.4745 0.5472
vt 0.4690 0.5442
vt 0.4745 0.5472
vt 0.4301 0.6044
vt 0.4341 0.6097
vt 0.4301 0.6044
vt 0.4341 0.6097
vt 0.3671 0.6446
vt 0.3688 0.6513
vt 0.3671 0.6446
vt 0.3688 0.6513
vt 0.4077 0.3788
vt 0.4308 0.3348
vt 0.4237 0.3788
vt 0.3933 0.4942
vt 0.4193 0.4942
vt 0.4496 0.3788
vt 0.4612 0.4942
vt 0.4496 0.3788
vt 0.4612 0.4942
vt 0.4237 0.3788
vt 0.4193 0.4942
vt 0.4077 0.3788
vt 0.4237 0.3788
vt 0.4308 0.3348
vt 0.3933 0.4942
vt 0.4193 0.4942
vt 0.4496 0.3788
vt 0.4612 0.4942
vt 0.4496 0.3788
vt 0.4612 0.4942
vt 0.4237 0.3788
vt 0.4193 0.4942
vt 0.3250 0.3394
vt 0.3250 0.3568
vt 0.2880 0.3568
vt 0.2880 0.3394
vt 0.2140 0.3568
vt 0.2140 0.3394
vt 0.1770 0.3568
vt 0.1770 0.3394
vt 0.2140 0.3568
vt 0.2140 0.3394
vt 0.2880 0.3568
vt 0.2880 0.3394
vn -1.0000 -0.0000 0.0000
vn 0.0000 0.0000 -1.0000
vn 1.0000 0.0000 0.0000
vn 0.0000 -0.0000 1.0000
vn 0.0000 1.0000 0.0000
vn -0.0000 0.9114 -0.4114
vn 0.2909 0.9114 -0.2909
vn 0.4114 0.9114 -0.0000
vn 0.2909 0.9114 0.2909
vn 0.0000 0.9114 0.4114
vn -0.2909 0.9114 0.2909
vn -0.4114 0.9114 -0.0000
vn -0.2909 0.9114 -0.2909
vn 0.0000 -0.9536 0.3012
vn -0.2130 -0.9536 0.2130
vn -0.0000 -1.0000 0.0000
vn -0.3676 0.8543 -0.3676
vn 0.0000 0.8543 -0.5198
vn -0.5198 0.8543 -0.0000
vn -0.3676 0.8543 0.3676
vn 0.0000 0.8543 0.5198
vn 0.3676 0.8543 0.3676
vn 0.5198 0.8543 -0.0000
vn 0.3676 0.8543 -0.3676
vn 0.2130 -0.9536 0.2130
vn 0.2130 -0.9536 -0.2130
vn 0.3012 -0.9536 0.0000
vn -0.2130 -0.9536 -0.2130
vn 0.0000 -0.9536 -0.3012
vn -0.3012 -0.9536 -0.0000
vn 0.9121 0.2693 -0.3090
vn 0.5638 0.1664 0.8090
vn 0.5637 0.1664 0.8090
vn -0.5637 -0.1664 0.8090
vn -0.2832 0.9591 0.0000
vn -0.9121 -0.2693 -0.3090
vn 0.0000 0.9698 0.2438
vn 0.0000 0.8564 0.5163
vn 0.0000 -0.9695 -0.2449
vn 0.0000 -0.8563 -0.5164
vn 0.0000 0.4468 0.8946
vn 0.0000 -0.4478 -0.8941
vn 0.0000 -0.0226 0.9997
vn 0.0000 0.0218 -0.9998
vn 0.0000 -0.4275 0.9040
vn 0.0000 0.4274 -0.9041
vn 0.0000 -0.7553 0.6554
vn 0.0000 0.7554 -0.6553
vn 0.0000 -0.8765 0.4814
vn 0.0000 0.8765 -0.4815
vn 0.0000 0.6194 -0.7851
vn 0.7467 0.6194 -0.2426
vn 0.0000 0.3989 -0.9170
vn 0.8721 0.3989 -0.2833
vn 0.4615 0.6193 0.6352
vn 0.5390 0.3989 0.7419
vn -0.4615 0.6193 0.6352
vn -0.5390 0.3989 0.7419
vn -0.7467 0.6194 -0.2426
vn -0.8721 0.3989 -0.2833
vn 0.8660 0.0000 -0.5000
vn 0.8660 -0.0000 0.5000
vn -0.8660 -0.0000 0.5000
vn -0.8660 0.0000 -0.5000
usemtl Material
s off
f 1/1/1 2/2/1 3/3/1 4/4/1
f 4/4/2 3/3/2 5/5/2 6/6/2
f 6/6/3 5/5/3 7/7/3 8/8/3
f 8/8/4 7/7/4 2/2/4 1/1/4
f 5/5/5 3/3/5 2/2/5 7/7/5
s 1
f 9/9/6 10/10/5 11/11/7
f 11/11/7 10/10/5 12/12/8
f 12/12/8 10/10/5 13/13/9
f 13/13/9 10/10/5 14/14/10
f 14/14/10 10/10/5 15/15/11
f 15/15/11 10/10/5 16/16/12
f 16/16/12 10/10/5 17/17/13
f 17/17/13 10/10/5 9/9/6
f 18/18/14 19/19/15 20/20/16
f 21/21/17 17/17/13 9/9/6 22/22/18
f 23/23/19 16/16/12 17/17/13 21/21/17
f 24/24/20 15/15/11 16/16/12 23/23/19
f 25/25/21 14/14/10 15/15/11 24/24/20
f 26/26/22 13/13/9 14/14/10 25/25/21
f 27/27/23 12/12/8 13/13/9 26/26/22
f 28/28/24 11/11/7 12/12/8 27/27/23
f 22/22/18 9/9/6 11/11/7 28/28/24
f 19/19/16 18/18/16 22/22/16 28/28/16
f 29/29/16 19/19/16 28/28/16 27/27/16
f 30/30/16 29/29/16 27/27/16 26/26/16
f 31/31/16 30/30/16 26/26/16 25/25/16
f 32/32/16 31/31/16 25/25/16 24/24/16
f 33/33/16 32/32/16 24/24/16 23/23/16
f 34/34/16 33/33/16 23/23/16 21/21/16
f 18/18/16 34/34/16 21/21/16 22/22/16
f 34/34/25 18/18/14 20/20/16
f 32/32/26 33/33/27 20/20/16
f 30/30/28 31/31/29 20/20/16
f 19/19/15 29/29/30 20/20/16
f 33/33/27 34/34/25 20/20/16
f 31/31/29 32/32/26 20/20/16
f 29/29/30 30/30/28 20/20/16
f 35/35/2 36/36/2 37/37/31 38/38/31
f 38/38/31 37/37/31 39/39/32 40/40/33
f 40/40/33 39/39/32 41/41/34 42/42/34
f 37/37/35 36/36/35 43/43/35 41/41/35 39/39/35
f 42/42/34 41/41/34 43/43/36 44/44/36
f 44/44/36 43/43/36 36/36/2 35/35/2
f 45/45/1 46/46/1 47/47/1 48/48/1
f 49/49/37 50/50/38 46/46/38 45/45/37
f 51/51/3 52/52/3 50/50/3 49/49/3
f 48/48/39 47/47/40 52/52/40 51/51/39
f 46/46/1 53/53/1 54/54/1 47/47/1
f 50/50/38 55/55/41 53/53/41 46/46/38
f 52/52/3 56/56/3 55/55/3 50/50/3
f 47/47/40 54/54/42 56/56/42 52/52/40
f 53/53/1 57/57/1 58/58/1 54/54/1
f 55/55/41 59/59/43 57/57/43 53/53/41
f 56/56/3 60/60/3 59/59/3 55/55/3
f 54/54/42 58/58/44 60/60/44 56/56/42
f 57/57/1 61/61/1 62/62/1 58/58/1
f 59/59/43 63/63/45 61/61/45 57/57/43
f 60/60/3 64/64/3 63/63/3 59/59/3
f 58/58/44 62/62/46 64/64/46 60/60/44
f 61/61/1 65/65/1 66/66/1 62/62/1
f 63/63/45 67/67/47 65/65/47 61/61/45
f 64/64/3 68/68/3 67/67/3 63/63/3
f 62/62/46 66/66/48 68/68/48 64/64/46
f 65/65/1 69/69/1 70/70/1 66/66/1
f 67/67/47 71/71/49 69/69/49 65/65/47
f 68/68/3 72/72/3 71/71/3 67/67/3
f 66/66/48 70/70/50 72/72/50 68/68/48
f 73/73/51 74/74/5 75/75/52
f 76/76/53 73/73/51 75/75/52 77/77/54
f 75/75/52 74/74/5 78/78/55
f 77/77/54 75/75/52 78/78/55 79/79/56
f 78/78/55 74/74/5 80/80/57
f 79/79/56 78/78/55 80/80/57 81/81/58
f 80/80/57 74/74/5 82/82/59
f 81/81/58 80/80/57 82/82/59 83/83/60
f 82/82/59 74/74/5 73/73/51
f 83/83/60 82/82/59 73/73/51 76/76/53
f 84/84/51 85/85/59 86/86/5
f 87/87/53 88/88/60 85/85/59 84/84/51
f 85/85/59 89/89/57 86/86/5
f 88/88/60 90/90/58 89/89/57 85/85/59
f 89/89/57 91/91/55 86/86/5
f 90/90/58 92/92/56 91/91/55 89/89/57
f 91/91/55 93/93/52 86/86/5
f 92/92/56 94/94/54 93/93/52 91/91/55
f 93/93/52 84/84/51 86/86/5
f 94/94/54 87/87/53 84/84/51 93/93/52
f 95/95/2 96/96/2 97/97/61 98/98/61
f 98/98/61 97/97/61 99/99/62 100/100/62
f 100/100/62 99/99/62 101/101/4 102/102/4
f 102/102/4 101/101/4 103/103/63 104/104/63
f 97/97/5 96/96/5 105/105/5 103/103/5 101/101/5 99/99/5
f 104/104/63 103/103/63 105/105/64 106/106/64
f 106/106/64 105/105/64 96/96/2 95/95/2
