# Blender v2.79 (sub 0) OBJ File: 'mod_Tischchen_ArbeitsZ.blend'
# www.blender.org
g Tischchen_ArbeitsZ
v 0.289257 0.000000 0.656943
v 0.214414 0.894479 0.603662
v 0.298969 0.000000 0.628969
v 0.240433 0.894479 0.528719
v 0.324743 0.000000 0.669299
v 0.289251 0.894479 0.629718
v 0.334456 0.000000 0.641324
v 0.315271 0.894479 0.554775
v -0.289257 0.000000 0.656943
v -0.214414 0.894479 0.603662
v -0.298970 0.000000 0.628969
v -0.240434 0.894479 0.528719
v -0.324744 0.000000 0.669299
v -0.289252 0.894479 0.629718
v -0.334456 0.000000 0.641324
v -0.315271 0.894479 0.554775
v 0.289257 0.000000 -0.656943
v 0.214414 0.894479 -0.603662
v 0.298969 0.000000 -0.628969
v 0.240433 0.894479 -0.528719
v 0.324743 0.000000 -0.669299
v 0.289251 0.894479 -0.629718
v 0.334456 0.000000 -0.641324
v 0.315271 0.894479 -0.554775
v -0.289257 0.000000 -0.656943
v -0.214414 0.894479 -0.603662
v -0.298970 0.000000 -0.628969
v -0.240434 0.894479 -0.528719
v -0.324744 0.000000 -0.669299
v -0.289252 0.894479 -0.629718
v -0.334456 0.000000 -0.641324
v -0.315271 0.894479 -0.554775
v -0.261713 0.420565 0.602223
v -0.261713 0.466636 0.602223
v -0.261713 0.420565 -0.602223
v -0.261713 0.466636 -0.602223
v 0.261712 0.466636 0.602223
v 0.261712 0.466636 -0.602223
v 0.261712 0.420565 -0.602223
v 0.261712 0.420565 0.602223
v -0.358659 0.894479 0.681916
v -0.358659 0.966140 0.681916
v -0.358659 0.894479 -0.681916
v -0.358659 0.966140 -0.681916
v 0.358659 0.966140 0.681916
v 0.358659 0.966140 -0.681916
v 0.358659 0.894479 -0.681916
v 0.358659 0.894479 0.681916
v -0.325299 0.894090 -0.654266
v -0.325299 0.894090 0.654266
v 0.325298 0.894090 -0.654266
v 0.325298 0.894090 0.654266
v -0.325299 0.752736 -0.654266
v -0.325299 0.752736 0.654266
v 0.325298 0.752736 -0.654266
v 0.325298 0.752736 0.654266
vt 0.000000 0.000000
vt 0.000000 0.000000
vt 0.000000 0.000000
vt 0.000000 0.000000
vt 0.000000 0.000000
vt 0.000000 0.000000
vt 0.000000 0.000000
vt 0.000000 0.000000
vt 0.000000 0.000000
vt 0.000000 0.000000
vt 0.000000 0.000000
vt 0.000000 0.000000
vt 0.000000 0.000000
vt 0.000000 0.000000
vt 0.000000 0.000000
vt 0.000000 0.000000
vt 0.000000 0.000000
vt 0.000000 0.000000
vt 0.000000 0.000000
vt 0.000000 0.000000
vt 0.000000 0.000000
vt 0.000000 0.000000
vt 0.000000 0.000000
vt 0.000000 0.000000
vt 0.000000 0.000000
vt 0.000000 0.000000
vt 0.000000 0.000000
vt 0.000000 0.000000
vt 0.000000 0.000000
vt 0.000000 0.000000
vt 0.000000 0.000000
vt 0.000000 0.000000
vt 0.417641 -0.197997
vt 0.411969 -0.197997
vt 0.411968 -0.368153
vt 0.417641 -0.368153
vt 0.411980 -0.374489
vt 0.048969 -0.368153
vt 0.048980 -0.374489
vt 0.043297 -0.368153
vt 0.048969 -0.197997
vt 0.043297 -0.197997
vt 0.417641 -0.197997
vt 0.411969 -0.197997
vt 0.411968 -0.368153
vt 0.417641 -0.368153
vt 0.411980 -0.374489
vt 0.048969 -0.368153
vt 0.048980 -0.374489
vt 0.043297 -0.368153
vt 0.048969 -0.197997
vt 0.043297 -0.197997
vt 0.401520 -0.206692
vt 0.058129 -0.206692
vt 0.058129 -0.206692
vt 0.401520 -0.206692
vt 0.058129 -0.358855
vt 0.058129 -0.358855
vt 0.401520 -0.358855
vt 0.401520 -0.358855
vn -0.9401 -0.0981 -0.3264
vn 0.3276 -0.0840 -0.9411
vn 0.9434 0.0519 0.3275
vn -0.3287 0.0287 0.9440
vn 0.9401 -0.0981 -0.3264
vn -0.3276 -0.0840 -0.9411
vn -0.9434 0.0519 0.3275
vn 0.3287 0.0287 0.9440
vn -0.9401 -0.0981 0.3264
vn 0.3276 -0.0840 0.9411
vn 0.9434 0.0519 -0.3275
vn -0.3287 0.0287 -0.9440
vn 0.9401 -0.0981 0.3264
vn -0.3276 -0.0840 0.9411
vn -0.9434 0.0519 -0.3275
vn 0.3287 0.0287 -0.9440
vn 0.0000 0.0000 -1.0000
vn 1.0000 -0.0000 0.0000
vn 0.0000 0.0000 1.0000
vn 0.0000 1.0000 0.0000
vn -1.0000 -0.0000 0.0000
vn 0.0000 -1.0000 0.0000
s off
f 1/1/1 2/2/1 4/3/1 3/4/1
f 3/4/2 4/3/2 8/5/2 7/6/2
f 7/6/3 8/5/3 6/7/3 5/8/3
f 5/8/4 6/7/4 2/2/4 1/1/4
f 9/9/5 11/10/5 12/11/5 10/12/5
f 11/10/6 15/13/6 16/14/6 12/11/6
f 15/13/7 13/15/7 14/16/7 16/14/7
f 13/15/8 9/9/8 10/12/8 14/16/8
f 17/17/9 19/18/9 20/19/9 18/20/9
f 19/18/10 23/21/10 24/22/10 20/19/10
f 23/21/11 21/23/11 22/24/11 24/22/11
f 21/23/12 17/17/12 18/20/12 22/24/12
f 25/25/13 26/26/13 28/27/13 27/28/13
f 27/28/14 28/27/14 32/29/14 31/30/14
f 31/30/15 32/29/15 30/31/15 29/32/15
f 29/32/16 30/31/16 26/26/16 25/25/16
f 35/33/17 36/34/17 38/35/17 39/36/17
f 39/37/18 38/35/18 37/38/18 40/39/18
f 40/40/19 37/38/19 34/41/19 33/42/19
f 38/35/20 36/34/20 34/41/20 37/38/20
f 33/42/21 34/41/21 36/34/21 35/33/21
f 39/37/22 40/39/22 33/42/22 35/33/22
f 43/43/17 44/44/17 46/45/17 47/46/17
f 47/47/18 46/45/18 45/48/18 48/49/18
f 48/50/19 45/48/19 42/51/19 41/52/19
f 46/45/20 44/44/20 42/51/20 45/48/20
f 47/47/22 48/49/22 41/52/22 43/43/22
f 41/52/21 42/51/21 44/44/21 43/43/21
f 51/53/18 52/54/18 56/55/18 55/56/18
f 52/54/19 50/57/19 54/58/19 56/55/19
f 49/59/17 51/53/17 55/56/17 53/60/17
f 50/57/21 49/59/21 53/60/21 54/58/21
f 55/56/22 56/55/22 54/58/22 53/60/22
