# Blender v2.79 (sub 0) OBJ File: 'mod_Schreibtischstuhl_ArbeitsZ.blend'
# www.blender.org
g Schreibtischstuhl_ArbeitsZ
v -0.677569 0.849916 0.659069
v -0.677569 0.849916 -0.659069
v 0.731553 0.849916 0.659069
v 0.731553 0.849916 -0.659069
v -0.628121 0.994386 0.609622
v -0.670636 0.944939 0.652136
v -0.628121 0.994386 -0.609622
v -0.670636 0.944939 -0.652136
v 0.682106 0.994386 0.609622
v 0.724620 0.944939 0.652136
v 0.682106 0.994386 -0.609622
v 0.724620 0.944939 -0.652136
v -0.618659 0.849916 0.600159
v -0.618659 0.849916 -0.600159
v 0.672644 0.849916 0.600159
v 0.672644 0.849916 -0.600159
v -0.618659 0.753282 0.600159
v -0.618659 0.753282 -0.600159
v 0.672644 0.753282 0.600159
v 0.672644 0.753282 -0.600159
v -0.996438 2.922918 0.659069
v -0.996438 2.922918 -0.659069
v -0.674328 0.926832 0.659069
v -0.674328 0.926832 -0.659069
v -0.845935 2.897118 0.609622
v -0.901524 2.931211 0.652136
v -0.845935 2.897118 -0.609622
v -0.901524 2.931211 -0.652136
v -0.539580 0.998664 0.609622
v -0.581623 0.948815 0.652136
v -0.539580 0.998664 -0.609622
v -0.581623 0.948815 -0.652136
v -1.029573 3.128257 -0.219690
v -1.029573 3.128257 0.219690
v -0.674328 0.926832 0.219690
v -0.674328 0.926832 -0.219690
v -0.879071 3.102457 0.203207
v -0.879071 3.102457 -0.203207
v -0.934660 3.136551 -0.217379
v -0.934660 3.136551 0.217379
v -0.539580 0.998664 -0.203207
v -0.539580 0.998664 0.203207
v -0.581623 0.948815 0.217379
v -0.581623 0.948815 -0.217379
v 0.000000 0.937572 -0.090537
v 0.078407 0.937572 -0.045268
v 0.078407 0.937572 0.045268
v -0.000000 0.937572 0.090537
v -0.078407 0.937572 0.045268
v -0.078407 0.937572 -0.045268
v 0.000000 0.259565 -0.090537
v -0.000000 0.259565 0.090537
v -0.078407 0.259565 -0.045268
v 0.549693 0.126028 -0.001965
v 0.477042 0.085406 -0.001965
v 0.504792 -0.000000 -0.001965
v 0.594593 -0.000000 -0.001965
v 0.622344 0.085406 -0.001965
v 0.492603 0.080350 0.028562
v 0.549693 0.121828 0.028562
v 0.514410 0.013237 0.028562
v 0.584976 0.013237 0.028562
v 0.606782 0.080350 0.028562
v 0.492603 0.080350 -0.033145
v 0.549693 0.121828 -0.033145
v 0.514410 0.013237 -0.033145
v 0.584976 0.013237 -0.033145
v 0.606782 0.080350 -0.033145
v 0.273144 0.126028 -0.477031
v 0.236819 0.085406 -0.414113
v 0.250694 -0.000000 -0.438145
v 0.295595 -0.000000 -0.515916
v 0.309470 0.085406 -0.539948
v 0.271037 0.080350 -0.412326
v 0.299582 0.121828 -0.461767
v 0.281940 0.013237 -0.431211
v 0.317223 0.013237 -0.492323
v 0.328127 0.080350 -0.511208
v 0.217597 0.080350 -0.443180
v 0.246142 0.121828 -0.492620
v 0.228500 0.013237 -0.462064
v 0.263783 0.013237 -0.523176
v 0.274687 0.080350 -0.542061
v -0.276548 0.126028 -0.475065
v -0.240223 0.085406 -0.412148
v -0.254098 -0.000000 -0.436180
v -0.298999 -0.000000 -0.513950
v -0.312874 0.085406 -0.537983
v -0.221566 0.080350 -0.440888
v -0.250111 0.121828 -0.490329
v -0.232469 0.013237 -0.459773
v -0.267752 0.013237 -0.520885
v -0.278656 0.080350 -0.539770
v -0.275006 0.080350 -0.410035
v -0.303551 0.121828 -0.459475
v -0.285909 0.013237 -0.428919
v -0.321192 0.013237 -0.490031
v -0.332096 0.080350 -0.508916
v -0.549693 0.126028 0.001965
v -0.477042 0.085406 0.001965
v -0.504792 -0.000000 0.001965
v -0.594593 -0.000000 0.001965
v -0.622344 0.085406 0.001965
v -0.492603 0.080350 -0.028562
v -0.549693 0.121828 -0.028562
v -0.514410 0.013237 -0.028562
v -0.584976 0.013237 -0.028562
v -0.606782 0.080350 -0.028562
v -0.492603 0.080350 0.033145
v -0.549693 0.121828 0.033145
v -0.514410 0.013237 0.033145
v -0.584976 0.013237 0.033145
v -0.606782 0.080350 0.033145
v -0.273144 0.126028 0.477031
v -0.236819 0.085406 0.414113
v -0.250694 -0.000000 0.438145
v -0.295595 -0.000000 0.515916
v -0.309470 0.085406 0.539948
v -0.271037 0.080350 0.412326
v -0.299582 0.121828 0.461767
v -0.281940 0.013237 0.431211
v -0.317223 0.013237 0.492323
v -0.328126 0.080350 0.511208
v -0.217597 0.080350 0.443180
v -0.246142 0.121828 0.492620
v -0.228500 0.013237 0.462064
v -0.263783 0.013237 0.523177
v -0.274686 0.080350 0.542061
v 0.276548 0.126028 0.475065
v 0.240223 0.085406 0.412148
v 0.254098 -0.000000 0.436180
v 0.298999 -0.000000 0.513950
v 0.312874 0.085406 0.537983
v 0.221566 0.080350 0.440888
v 0.250111 0.121828 0.490329
v 0.232469 0.013237 0.459773
v 0.267753 0.013237 0.520885
v 0.278656 0.080350 0.539770
v 0.275006 0.080350 0.410034
v 0.303551 0.121828 0.459475
v 0.285909 0.013237 0.428919
v 0.321193 0.013237 0.490031
v 0.332096 0.080350 0.508916
v 0.078407 0.199678 -0.045268
v 0.078407 0.259565 -0.045268
v 0.694961 0.045141 0.075280
v 0.688685 0.096427 0.075273
v 0.694961 0.045141 -0.077509
v 0.688685 0.096427 -0.077516
v 0.637390 0.060487 -0.075707
v 0.638190 0.125827 -0.075714
v 0.637390 0.060487 0.073717
v 0.638190 0.125827 0.073710
v 0.412674 0.045141 -0.564214
v 0.409531 0.096427 -0.558782
v 0.280356 0.045141 -0.640608
v 0.277212 0.096427 -0.635176
v 0.253131 0.060487 -0.589850
v 0.253525 0.125827 -0.590546
v 0.382536 0.060487 -0.515138
v 0.382930 0.125827 -0.515834
v -0.000000 0.199678 -0.090537
v -0.282286 0.045141 -0.639494
v -0.279154 0.096427 -0.634055
v -0.414605 0.045141 -0.563099
v -0.411473 0.096427 -0.557661
v -0.384260 0.060487 -0.514143
v -0.384666 0.125827 -0.514832
v -0.254855 0.060487 -0.588855
v -0.255260 0.125827 -0.589544
v -0.078407 0.199678 -0.045268
v -0.694961 0.045141 -0.075280
v -0.688685 0.096427 -0.075273
v -0.694961 0.045141 0.077509
v -0.688685 0.096427 0.077516
v -0.637390 0.060487 0.075708
v -0.638190 0.125827 0.075714
v -0.637390 0.060487 -0.073717
v -0.638190 0.125827 -0.073710
v -0.078407 0.199678 0.045268
v -0.078407 0.259565 0.045268
v -0.000000 0.199678 0.090537
v -0.412674 0.045141 0.564214
v -0.409531 0.096427 0.558782
v -0.280356 0.045141 0.640608
v -0.277212 0.096427 0.635176
v -0.253131 0.060487 0.589850
v -0.253525 0.125827 0.590546
v -0.382536 0.060487 0.515138
v -0.382930 0.125827 0.515834
v 0.078407 0.199678 0.045268
v 0.078407 0.259565 0.045268
v 0.282286 0.045141 0.639494
v 0.279154 0.096427 0.634055
v 0.414605 0.045141 0.563099
v 0.411473 0.096427 0.557661
v 0.384260 0.060487 0.514143
v 0.384666 0.125827 0.514832
v 0.254855 0.060487 0.588855
v 0.255260 0.125827 0.589544
v -0.770721 1.594436 -0.776359
v -0.770721 1.555282 -0.776359
v -0.770721 1.555282 -0.661097
v -0.770721 1.594436 -0.661097
v -0.187775 1.594436 -0.776359
v -0.187775 1.555282 -0.776359
v -0.187775 1.555282 -0.661097
v -0.187775 1.594436 -0.661097
v 0.222905 1.594352 -0.776359
v 0.216727 1.555366 -0.776359
v 0.216727 1.555366 -0.661097
v 0.222905 1.594352 -0.661097
v 0.407736 1.563024 -0.776359
v 0.362496 1.534265 -0.776359
v 0.362496 1.534265 -0.661096
v 0.407736 1.563024 -0.661096
v 0.467980 1.367662 -0.776359
v 0.403394 1.377367 -0.776359
v 0.403393 1.377367 -0.661096
v 0.467979 1.367662 -0.661096
v 0.398164 1.278355 -0.776359
v 0.365952 1.312636 -0.776359
v 0.365951 1.312636 -0.661096
v 0.398164 1.278356 -0.661096
v 0.193922 1.258649 -0.776358
v 0.169991 1.295193 -0.776359
v 0.169991 1.295194 -0.661096
v 0.193922 1.258649 -0.661096
v 0.158349 1.210371 -0.776358
v 0.100568 1.229901 -0.776358
v 0.100568 1.229901 -0.661096
v 0.158349 1.210371 -0.661095
v 0.160933 0.787375 -0.776358
v 0.094267 0.787509 -0.776358
v 0.094267 0.787509 -0.661096
v 0.160933 0.787375 -0.661095
v 0.096472 0.844130 -0.776358
v 0.096472 0.844130 -0.661096
v 0.160029 0.844130 -0.776358
v 0.160028 0.844130 -0.661095
v 0.096472 0.844130 -0.548444
v 0.094266 0.787509 -0.548444
v 0.160932 0.787375 -0.548443
v 0.160028 0.844130 -0.548443
v -0.770721 1.594436 0.776359
v -0.770721 1.555282 0.776359
v -0.770721 1.555282 0.661097
v -0.770721 1.594436 0.661097
v -0.187775 1.594436 0.776359
v -0.187775 1.555282 0.776359
v -0.187775 1.555282 0.661097
v -0.187775 1.594436 0.661097
v 0.222905 1.594352 0.776359
v 0.216727 1.555366 0.776359
v 0.216727 1.555366 0.661097
v 0.222905 1.594352 0.661097
v 0.407736 1.563024 0.776359
v 0.362496 1.534265 0.776359
v 0.362496 1.534265 0.661096
v 0.407736 1.563024 0.661096
v 0.467980 1.367662 0.776359
v 0.403394 1.377367 0.776359
v 0.403393 1.377367 0.661096
v 0.467979 1.367662 0.661096
v 0.398164 1.278355 0.776358
v 0.365952 1.312636 0.776359
v 0.365951 1.312636 0.661096
v 0.398164 1.278356 0.661096
v 0.193922 1.258649 0.776358
v 0.169991 1.295193 0.776359
v 0.169991 1.295194 0.661096
v 0.193922 1.258649 0.661096
v 0.158349 1.210371 0.776358
v 0.100568 1.229901 0.776358
v 0.100568 1.229901 0.661096
v 0.158349 1.210371 0.661095
v 0.160933 0.787375 0.776358
v 0.094267 0.787509 0.776358
v 0.094267 0.787509 0.661096
v 0.160933 0.787375 0.661095
v 0.096472 0.844130 0.776358
v 0.096472 0.844130 0.661096
v 0.160029 0.844130 0.776358
v 0.160028 0.844130 0.661095
v 0.096472 0.844130 0.548444
v 0.094266 0.787509 0.548444
v 0.160932 0.787375 0.548443
v 0.160028 0.844130 0.548443
vn 0.5177 0.8181 -0.2506
vn 0.0000 -0.0000 1.0000
vn 0.5170 0.8169 0.2556
vn 0.0000 -0.9175 0.3978
vn -0.5170 0.8169 0.2556
vn 0.8726 -0.2835 0.3978
vn -0.8726 -0.2835 0.3978
vn 0.0000 0.0000 -1.0000
vn 0.0000 -0.9205 -0.3908
vn -0.5177 0.8181 -0.2506
vn 0.8754 -0.2844 -0.3908
vn -0.8754 -0.2844 -0.3908
vn 0.0418 0.8181 -0.5736
vn 0.8660 -0.0000 0.5000
vn 0.4799 0.8170 -0.3199
vn 0.3445 -0.9175 0.1989
vn -0.0371 0.8169 0.5755
vn 0.7808 -0.2835 -0.5567
vn -0.0917 -0.2835 0.9546
vn -0.8660 -0.0000 -0.5000
vn -0.3384 -0.9205 -0.1954
vn -0.4759 0.8181 0.3230
vn 0.0993 -0.2844 -0.9535
vn -0.7761 -0.2844 0.5627
vn -0.4759 0.8181 -0.3230
vn 0.8660 0.0000 -0.5000
vn -0.0371 0.8169 -0.5755
vn 0.3445 -0.9175 -0.1989
vn 0.4799 0.8170 0.3199
vn -0.0917 -0.2835 -0.9546
vn 0.7808 -0.2835 0.5567
vn -0.8660 -0.0000 0.5000
vn -0.3384 -0.9205 0.1954
vn 0.0418 0.8181 0.5736
vn -0.7762 -0.2844 -0.5627
vn 0.0993 -0.2844 0.9535
vn -0.5177 0.8181 0.2506
vn -0.5170 0.8169 -0.2556
vn -0.0000 -0.9175 -0.3978
vn 0.5170 0.8170 -0.2556
vn -0.8726 -0.2835 -0.3978
vn 0.8726 -0.2835 -0.3978
vn 0.0000 -0.9205 0.3908
vn 0.5177 0.8181 0.2506
vn -0.8754 -0.2844 0.3908
vn 0.8754 -0.2844 0.3908
vn -0.0418 0.8181 0.5736
vn -0.4799 0.8170 0.3199
vn -0.3445 -0.9175 -0.1989
vn 0.0371 0.8170 -0.5755
vn -0.7808 -0.2835 0.5567
vn 0.0917 -0.2835 -0.9546
vn 0.3384 -0.9205 0.1954
vn 0.4759 0.8181 -0.3230
vn -0.0993 -0.2844 0.9535
vn 0.7761 -0.2844 -0.5627
vn 0.4759 0.8181 0.3230
vn 0.0371 0.8169 0.5755
vn -0.3445 -0.9175 0.1989
vn -0.4799 0.8170 -0.3199
vn 0.0917 -0.2835 0.9546
vn -0.7808 -0.2835 -0.5567
vn 0.3384 -0.9205 -0.1954
vn -0.0418 0.8181 -0.5736
vn 0.7761 -0.2844 0.5627
vn -0.0993 -0.2844 -0.9535
vn 0.3296 0.8847 -0.3296
vn -0.3296 0.8847 -0.3296
vn -0.3296 0.8847 0.3296
vn 0.3296 0.8847 0.3296
vn 0.9973 0.0728 0.0000
vn 0.6440 0.4130 -0.6440
vn 0.6440 0.4130 0.6440
vn -0.9973 0.0728 0.0000
vn -0.6440 0.4130 0.6440
vn -0.6440 0.4130 -0.6440
vn 0.0000 0.0728 -0.9973
vn 0.0000 0.0728 0.9973
vn 0.0000 -1.0000 0.0000
vn 1.0000 0.0000 0.0000
vn -1.0000 0.0000 0.0000
vn 0.9637 -0.2671 0.0000
vn 0.8188 0.5666 0.0925
vn 0.8420 0.3507 0.4098
vn 0.9259 -0.1845 0.3296
vn 0.2307 -0.9730 0.0000
vn 0.5240 -0.8517 0.0000
vn 0.5103 -0.5700 0.6440
vn -0.0742 0.9726 -0.2205
vn 0.2487 0.9467 -0.2047
vn 0.3210 0.5563 -0.7665
vn 0.0072 0.5461 -0.8377
vn 0.5103 -0.5700 -0.6440
vn 0.0718 0.0116 -0.9973
vn 0.8188 0.5666 -0.0925
vn 0.8420 0.3507 -0.4098
vn 0.9259 -0.1845 -0.3296
vn 0.3210 0.5563 0.7665
vn 0.0718 0.0116 0.9973
vn 0.0072 0.5461 0.8377
vn -0.9872 -0.1593 -0.0000
vn 0.2487 0.9467 0.2047
vn -0.0742 0.9726 0.2205
vn 0.0001 0.6831 -0.7304
vn 0.6326 0.6831 -0.3651
vn 0.6325 0.6831 0.3653
vn -0.0001 0.6831 0.7304
vn -0.6326 0.6831 0.3651
vn 0.0000 1.0000 0.0000
vn -0.6325 0.6831 -0.3653
vn -0.0426 -0.0009 -0.9991
vn -0.0468 -0.0005 -0.9989
vn -0.0340 -0.0017 -0.9994
vn 0.9926 0.1215 0.0000
vn 0.8377 0.5461 0.0000
vn 0.8374 0.5467 0.0000
vn -0.0385 -0.0006 0.9993
vn -0.0428 -0.0002 0.9991
vn -0.0507 0.0004 0.9987
vn 0.3754 0.9269 0.0000
vn 0.3751 0.9270 0.0000
vn -0.0294 -0.0013 0.9996
vn -0.0543 0.0003 -0.9985
vn -0.8865 -0.0009 -0.4626
vn -0.8885 -0.0005 -0.4589
vn -0.8825 -0.0017 -0.4702
vn 0.4963 0.1215 -0.8596
vn 0.4188 0.5461 -0.7255
vn 0.4187 0.5467 -0.7252
vn 0.8462 -0.0006 0.5329
vn 0.8438 -0.0002 0.5366
vn 0.8396 0.0004 0.5433
vn 0.1877 0.9269 -0.3251
vn 0.1875 0.9270 -0.3248
vn 0.8509 -0.0013 0.5253
vn -0.8919 0.0003 -0.4523
vn -0.8439 -0.0009 0.5365
vn -0.8417 -0.0005 0.5400
vn -0.8485 -0.0017 0.5292
vn -0.4963 0.1215 -0.8596
vn -0.4188 0.5461 -0.7255
vn -0.4187 0.5467 -0.7252
vn 0.8846 -0.0006 -0.4663
vn 0.8866 -0.0002 -0.4625
vn 0.8903 0.0004 -0.4555
vn -0.1877 0.9269 -0.3251
vn -0.1875 0.9270 -0.3248
vn 0.8804 -0.0013 -0.4743
vn -0.8376 0.0003 0.5463
vn 0.0426 -0.0009 0.9991
vn 0.0468 -0.0005 0.9989
vn 0.0340 -0.0017 0.9994
vn -0.9926 0.1215 0.0000
vn -0.8377 0.5461 0.0000
vn -0.8374 0.5467 0.0000
vn 0.0385 -0.0006 -0.9993
vn 0.0428 -0.0002 -0.9991
vn 0.0507 0.0004 -0.9987
vn -0.3754 0.9269 0.0000
vn -0.3751 0.9270 0.0000
vn 0.0294 -0.0013 -0.9996
vn 0.0543 0.0003 0.9985
vn 0.8865 -0.0009 0.4626
vn 0.8885 -0.0005 0.4590
vn 0.8825 -0.0017 0.4702
vn -0.4963 0.1215 0.8596
vn -0.4188 0.5461 0.7255
vn -0.4187 0.5467 0.7252
vn -0.8462 -0.0006 -0.5329
vn -0.8438 -0.0002 -0.5366
vn -0.8396 0.0004 -0.5433
vn -0.1877 0.9269 0.3251
vn -0.1875 0.9270 0.3248
vn -0.8509 -0.0013 -0.5253
vn 0.8919 0.0003 0.4523
vn 0.8439 -0.0009 -0.5365
vn 0.8417 -0.0005 -0.5400
vn 0.8485 -0.0017 -0.5292
vn 0.4963 0.1215 0.8596
vn 0.4188 0.5461 0.7255
vn 0.4187 0.5467 0.7252
vn -0.8846 -0.0006 0.4663
vn -0.8866 -0.0002 0.4625
vn -0.8903 0.0004 0.4555
vn 0.1877 0.9269 0.3251
vn 0.1875 0.9270 0.3248
vn -0.8804 -0.0013 0.4743
vn 0.8376 0.0003 -0.5463
vn 0.0001 1.0000 0.0000
vn 0.0001 -1.0000 -0.0000
vn 0.0840 0.9965 0.0000
vn -0.0717 -0.9974 -0.0000
vn 0.6592 0.7519 0.0000
vn -0.6667 -0.7453 -0.0000
vn 0.9834 -0.1812 0.0000
vn -0.9909 0.1343 -0.0000
vn 0.4809 -0.8767 0.0000
vn -0.5376 0.8432 -0.0000
vn 0.4934 -0.8698 0.0000
vn -0.4094 0.9124 -0.0000
vn 0.9507 -0.3100 0.0000
vn -0.9158 0.4017 -0.0000
vn 0.9999 0.0103 0.0000
vn 0.9999 0.0121 0.0000
vn 0.9999 0.0159 0.0000
vn -0.9996 0.0295 -0.0000
vn -0.9997 0.0248 -0.0000
vn -0.9992 0.0389 -0.0000
vn -0.0020 -1.0000 -0.0000
vn -0.1288 -0.9663 -0.2231
vn -0.1249 -0.9683 -0.2163
vn 0.0001 -0.9917 -0.1284
vn -0.1112 -0.9917 -0.0643
vn -0.2576 -0.9663 0.0000
vn -0.2498 -0.9683 -0.0000
vn -0.1113 -0.9917 0.0641
vn -0.1288 -0.9663 0.2231
vn -0.1249 -0.9683 0.2163
vn -0.1249 -0.9683 0.2164
vn -0.0001 -0.9917 0.1284
vn 0.1249 -0.9683 0.2164
vn 0.1249 -0.9683 0.2163
vn 0.1112 -0.9917 0.0643
vn 0.1288 -0.9663 0.2231
vn 0.2498 -0.9683 -0.0000
vn 0.1113 -0.9917 -0.0641
vn 0.2576 -0.9663 0.0000
vn 0.1249 -0.9683 -0.2164
vn 0.1249 -0.9683 -0.2163
vn 0.1288 -0.9663 -0.2231
s off
f 54//1 58//1 68//1 65//1
f 60//2 59//2 61//2 62//2 63//2
f 58//3 54//3 60//3 63//3
f 56//4 57//4 62//4 61//4
f 54//5 55//5 59//5 60//5
f 57//6 58//6 63//6 62//6
f 55//7 56//7 61//7 59//7
f 65//8 68//8 67//8 66//8 64//8
f 57//9 56//9 66//9 67//9
f 55//10 54//10 65//10 64//10
f 58//11 57//11 67//11 68//11
f 56//12 55//12 64//12 66//12
f 69//13 73//13 83//13 80//13
f 75//14 74//14 76//14 77//14 78//14
f 73//15 69//15 75//15 78//15
f 71//16 72//16 77//16 76//16
f 69//17 70//17 74//17 75//17
f 72//18 73//18 78//18 77//18
f 70//19 71//19 76//19 74//19
f 80//20 83//20 82//20 81//20 79//20
f 72//21 71//21 81//21 82//21
f 70//22 69//22 80//22 79//22
f 73//23 72//23 82//23 83//23
f 71//24 70//24 79//24 81//24
f 84//25 88//25 98//25 95//25
f 90//26 89//26 91//26 92//26 93//26
f 88//27 84//27 90//27 93//27
f 86//28 87//28 92//28 91//28
f 84//29 85//29 89//29 90//29
f 87//30 88//30 93//30 92//30
f 85//31 86//31 91//31 89//31
f 95//32 98//32 97//32 96//32 94//32
f 87//33 86//33 96//33 97//33
f 85//34 84//34 95//34 94//34
f 88//35 87//35 97//35 98//35
f 86//36 85//36 94//36 96//36
f 99//37 103//37 113//37 110//37
f 105//8 104//8 106//8 107//8 108//8
f 103//38 99//38 105//38 108//38
f 101//39 102//39 107//39 106//39
f 99//40 100//40 104//40 105//40
f 102//41 103//41 108//41 107//41
f 100//42 101//42 106//42 104//42
f 110//2 113//2 112//2 111//2 109//2
f 102//43 101//43 111//43 112//43
f 100//44 99//44 110//44 109//44
f 103//45 102//45 112//45 113//45
f 101//46 100//46 109//46 111//46
f 114//47 118//47 128//47 125//47
f 120//20 119//20 121//20 122//20 123//20
f 118//48 114//48 120//48 123//48
f 116//49 117//49 122//49 121//49
f 114//50 115//50 119//50 120//50
f 117//51 118//51 123//51 122//51
f 115//52 116//52 121//52 119//52
f 125//14 128//14 127//14 126//14 124//14
f 117//53 116//53 126//53 127//53
f 115//54 114//54 125//54 124//54
f 118//55 117//55 127//55 128//55
f 116//56 115//56 124//56 126//56
f 129//57 133//57 143//57 140//57
f 135//32 134//32 136//32 137//32 138//32
f 133//58 129//58 135//58 138//58
f 131//59 132//59 137//59 136//59
f 129//60 130//60 134//60 135//60
f 132//61 133//61 138//61 137//61
f 130//62 131//62 136//62 134//62
f 140//26 143//26 142//26 141//26 139//26
f 132//63 131//63 141//63 142//63
f 130//64 129//64 140//64 139//64
f 133//65 132//65 142//65 143//65
f 131//66 130//66 139//66 141//66
s 1
f 11//67 7//68 5//69 9//70
f 4//71 12//72 10//73 3//71
f 1//74 6//75 8//76 2//74
f 2//77 8//76 12//72 4//77
f 5//69 7//68 8//76 6//75
f 7//68 11//67 12//72 8//76
f 11//67 9//70 10//73 12//72
f 9//70 5//69 6//75 10//73
f 3//78 10//73 6//75 1//78
f 4//79 3//79 15//79 16//79
f 1//79 2//79 14//79 13//79
f 3//79 1//79 13//79 15//79
f 2//79 4//79 16//79 14//79
f 16//80 15//80 19//80 20//80
f 13//81 14//81 18//81 17//81
f 15//2 13//2 17//2 19//2
f 14//8 16//8 20//8 18//8
f 42//82 37//83 25//84 29//85
f 35//86 43//87 30//88 23//86
f 33//89 39//90 28//91 22//92
f 22//92 28//91 32//93 24//94
f 38//95 27//96 28//91 39//90
f 27//96 31//97 32//93 28//91
f 42//82 29//85 30//88 43//87
f 29//85 25//84 26//98 30//88
f 23//99 30//88 26//98 21//100
f 34//101 35//101 23//101 21//101
f 22//101 24//101 36//101 33//101
f 33//101 36//101 35//101 34//101
f 31//97 41//82 44//87 32//93
f 41//82 42//82 43//87 44//87
f 25//84 37//83 40//102 26//98
f 37//83 38//95 39//90 40//102
f 21//100 26//98 40//102 34//103
f 34//103 40//102 39//90 33//89
f 24//86 32//93 44//87 36//86
f 36//86 44//87 43//87 35//86
f 31//97 27//96 38//95 41//82
f 41//82 38//95 37//83 42//82
f 51//104 45//8 46//26 145//105
f 145//105 46//26 47//14 192//106
f 192//106 47//14 48//2 52//107
f 52//107 48//2 49//32 181//108
f 46//109 45//109 50//109 49//109 48//109 47//109
f 181//108 49//32 50//20 53//110
f 53//110 50//20 45//8 51//104
f 150//111 151//112 149//113 148//113
f 148//114 149//115 147//116 146//114
f 152//117 153//118 192//119 191//119
f 151//120 145//105 192//106 153//121
f 149//115 151//120 153//121 147//116
f 146//122 147//122 153//118 152//117
f 144//123 145//123 151//112 150//111
f 158//124 159//125 157//126 156//126
f 156//127 157//128 155//129 154//127
f 160//130 161//131 145//132 144//132
f 159//133 51//104 145//105 161//134
f 157//128 159//133 161//134 155//129
f 154//135 155//135 161//131 160//130
f 162//136 51//136 159//125 158//124
f 167//137 168//138 166//139 165//139
f 165//140 166//141 164//142 163//140
f 169//143 170//144 51//145 162//145
f 168//146 53//110 51//104 170//147
f 166//141 168//146 170//147 164//142
f 163//148 164//148 170//144 169//143
f 171//149 53//149 168//138 167//137
f 176//150 177//151 175//152 174//152
f 174//153 175//154 173//155 172//153
f 178//156 179//157 53//158 171//158
f 177//159 181//108 53//110 179//160
f 175//154 177//159 179//160 173//155
f 172//161 173//161 179//157 178//156
f 180//162 181//162 177//151 176//150
f 187//163 188//164 186//165 185//165
f 185//166 186//167 184//168 183//166
f 189//169 190//170 181//171 180//171
f 188//172 52//107 181//108 190//173
f 186//167 188//172 190//173 184//168
f 183//174 184//174 190//170 189//169
f 182//175 52//175 188//164 187//163
f 197//176 198//177 196//178 195//178
f 195//179 196//180 194//181 193//179
f 199//182 200//183 52//184 182//184
f 198//185 192//106 52//107 200//186
f 196//180 198//185 200//186 194//181
f 193//187 194//187 200//183 199//182
f 191//188 192//188 198//177 197//176
f 201//109 204//109 208//189 205//189
f 202//8 201//8 205//8 206//8
f 203//79 202//79 206//190 207//190
f 204//2 203//2 207//2 208//2
f 205//189 208//189 212//191 209//191
f 206//8 205//8 209//8 210//8
f 207//190 206//190 210//192 211//192
f 208//2 207//2 211//2 212//2
f 209//191 212//191 216//193 213//193
f 210//8 209//8 213//8 214//8
f 211//192 210//192 214//194 215//194
f 212//2 211//2 215//2 216//2
f 213//193 216//193 220//195 217//195
f 214//8 213//8 217//8 218//8
f 215//194 214//194 218//196 219//196
f 216//2 215//2 219//2 220//2
f 217//195 220//195 224//197 221//197
f 218//8 217//8 221//8 222//8
f 219//196 218//196 222//198 223//198
f 220//2 219//2 223//2 224//2
f 221//197 224//197 228//199 225//199
f 222//8 221//8 225//8 226//8
f 223//198 222//198 226//200 227//200
f 224//2 223//2 227//2 228//2
f 225//199 228//199 232//201 229//201
f 226//8 225//8 229//8 230//8
f 227//200 226//200 230//202 231//202
f 228//2 227//2 231//2 232//2
f 239//203 240//204 236//205 233//205
f 237//8 239//8 233//8 234//8
f 238//206 237//207 234//208 235//208
f 236//205 240//204 244//205 243//205
f 232//2 231//2 238//2 240//2
f 231//202 230//202 237//207 238//206
f 230//8 229//8 239//8 237//8
f 229//201 232//201 240//204 239//203
f 238//206 235//208 242//208 241//208
f 245//109 249//189 252//189 248//109
f 246//2 250//2 249//2 245//2
f 247//79 251//190 250//190 246//79
f 248//8 252//8 251//8 247//8
f 249//189 253//191 256//191 252//189
f 250//2 254//2 253//2 249//2
f 251//190 255//192 254//192 250//190
f 252//8 256//8 255//8 251//8
f 253//191 257//193 260//193 256//191
f 254//2 258//2 257//2 253//2
f 255//192 259//194 258//194 254//192
f 256//8 260//8 259//8 255//8
f 257//193 261//195 264//195 260//193
f 258//2 262//2 261//2 257//2
f 259//194 263//196 262//196 258//194
f 260//8 264//8 263//8 259//8
f 261//195 265//197 268//197 264//195
f 262//2 266//2 265//2 261//2
f 263//196 267//198 266//198 262//196
f 264//8 268//8 267//8 263//8
f 265//197 269//199 272//199 268//197
f 266//2 270//2 269//2 265//2
f 267//198 271//200 270//200 266//198
f 268//8 272//8 271//8 267//8
f 269//199 273//201 276//201 272//199
f 270//2 274//2 273//2 269//2
f 271//200 275//202 274//202 270//200
f 272//8 276//8 275//8 271//8
f 283//203 277//205 280//205 284//204
f 281//2 278//2 277//2 283//2
f 282//206 279//208 278//208 281//207
f 280//205 287//205 288//205 284//204
f 276//8 284//8 282//8 275//8
f 275//202 282//206 281//207 274//202
f 274//2 281//2 283//2 273//2
f 273//201 283//203 284//204 276//201
f 282//206 285//208 286//208 279//208
f 18//79 20//79 19//79 17//79
f 233//209 236//209 235//209 234//209
f 243//209 242//209 235//209 236//209
f 277//209 278//209 279//209 280//209
f 287//209 280//209 279//209 286//209
f 195//210 193//210 199//211 197//211
f 197//211 199//211 182//212 191//213
f 148//214 146//214 152//215 150//215
f 150//215 152//215 191//213 144//216
f 156//217 154//217 160//218 158//219
f 158//219 160//218 144//216 162//220
f 167//221 169//222 162//220 171//223
f 163//224 169//222 167//221 165//224
f 176//225 178//225 171//223 180//226
f 172//227 178//225 176//225 174//227
f 187//228 189//229 180//226 182//212
f 183//230 189//229 187//228 185//230
f 182//212 180//226 171//223 162//220 144//216 191//213
f 247//81 246//81 245//81 248//81
f 203//81 204//81 201//81 202//81
