# Blender v2.79 (sub 0) OBJ File: 'mod_Wollknaeuel_2.blend'
# www.blender.org
g Wollknaeuel_2
v 0.000000 0.111321 0.095263
v -0.000000 0.140000 0.055000
v -0.000000 0.135610 0.000000
v -0.000000 0.140000 -0.055000
v 0.000000 0.111321 -0.095263
v -0.000000 0.066124 0.110000
v 0.028928 0.094304 0.095263
v 0.047136 0.112271 0.055000
v 0.043776 0.109858 0.000000
v 0.047136 0.112271 -0.055000
v 0.028928 0.094304 -0.095263
v 0.036072 0.056066 0.095263
v 0.058778 0.049965 0.055000
v 0.054588 0.051993 0.000000
v 0.058778 0.049965 -0.055000
v 0.036072 0.056066 -0.095263
v 0.016054 0.025402 0.095263
v 0.026158 -0.000000 0.055000
v 0.024294 0.005589 -0.000000
v 0.026158 0.000000 -0.055000
v 0.016054 0.025402 -0.095263
v -0.016054 0.025402 0.095263
v -0.026158 -0.000000 0.055000
v -0.024294 0.005589 -0.000000
v -0.026158 0.000000 -0.055000
v -0.016054 0.025402 -0.095263
v 0.000000 0.066124 -0.110000
v -0.036072 0.056066 0.095263
v -0.058778 0.049965 0.055000
v -0.054588 0.051993 0.000000
v -0.058778 0.049965 -0.055000
v -0.036072 0.056066 -0.095263
v -0.028928 0.094304 0.095263
v -0.047136 0.112271 0.055000
v -0.043776 0.109858 0.000000
v -0.047136 0.112271 -0.055000
v -0.028928 0.094304 -0.095263
vn 0.0000 0.0000 -1.0000
vn 0.0000 0.6518 -0.7584
vn 0.5615 0.3802 -0.7349
vn 0.0000 0.9703 -0.2417
vn 0.0000 1.0000 0.0000
vn 0.8187 0.5742 0.0000
vn 0.7931 0.5667 -0.2233
vn 0.0000 0.9703 0.2417
vn 0.0000 0.6518 0.7584
vn 0.5615 0.3802 0.7349
vn 0.7931 0.5667 0.2233
vn 0.0000 0.0000 1.0000
vn 0.6797 -0.1325 0.7214
vn 0.9583 -0.1968 0.2072
vn 0.9583 -0.1968 -0.2072
vn 0.6797 -0.1325 -0.7214
vn 0.9817 -0.1905 0.0000
vn 0.4559 -0.8622 -0.2207
vn 0.3252 -0.5778 -0.7486
vn 0.4559 -0.8622 0.2207
vn 0.4812 -0.8766 0.0000
vn 0.3252 -0.5778 0.7486
vn -0.4559 -0.8622 -0.2207
vn -0.3252 -0.5778 -0.7486
vn -0.4559 -0.8622 0.2207
vn -0.4812 -0.8766 0.0000
vn -0.3252 -0.5778 0.7486
vn -0.9583 -0.1968 -0.2072
vn -0.6797 -0.1325 -0.7214
vn -0.9583 -0.1968 0.2072
vn -0.9817 -0.1905 0.0000
vn -0.6797 -0.1325 0.7214
vn -0.7931 0.5667 -0.2233
vn -0.5615 0.3802 -0.7349
vn -0.7931 0.5667 0.2233
vn -0.8187 0.5742 0.0000
vn -0.5615 0.3802 0.7349
s 1
f 27//1 5//2 11//3
f 4//4 3//5 9//6 10//7
f 2//8 1//9 7//10 8//11
f 5//2 4//4 10//7 11//3
f 3//5 2//8 8//11 9//6
f 1//9 6//12 7//10
f 8//11 7//10 12//13 13//14
f 11//3 10//7 15//15 16//16
f 9//6 8//11 13//14 14//17
f 7//10 6//12 12//13
f 27//1 11//3 16//16
f 10//7 9//6 14//17 15//15
f 16//16 15//15 20//18 21//19
f 14//17 13//14 18//20 19//21
f 12//13 6//12 17//22
f 27//1 16//16 21//19
f 15//15 14//17 19//21 20//18
f 13//14 12//13 17//22 18//20
f 21//19 20//18 25//23 26//24
f 19//21 18//20 23//25 24//26
f 17//22 6//12 22//27
f 27//1 21//19 26//24
f 20//18 19//21 24//26 25//23
f 18//20 17//22 22//27 23//25
f 26//24 25//23 31//28 32//29
f 24//26 23//25 29//30 30//31
f 22//27 6//12 28//32
f 27//1 26//24 32//29
f 25//23 24//26 30//31 31//28
f 23//25 22//27 28//32 29//30
f 32//29 31//28 36//33 37//34
f 30//31 29//30 34//35 35//36
f 28//32 6//12 33//37
f 27//1 32//29 37//34
f 31//28 30//31 35//36 36//33
f 29//30 28//32 33//37 34//35
f 35//36 34//35 2//8 3//5
f 33//37 6//12 1//9
f 27//1 37//34 5//2
f 36//33 35//36 3//5 4//4
f 34//35 33//37 1//9 2//8
f 37//34 36//33 4//4 5//2
