# Blender v2.79 (sub 0) OBJ File: 'mod_Kuechenzeile.blend'
# www.blender.org
g Kuechenzeile
v 0.000000 1.776305 0.000000
v 0.000000 1.776305 -1.090324
v 1.318957 1.776305 0.000000
v 1.318957 1.776305 -1.090324
v 0.000000 1.890000 -1.090324
v 1.318957 1.890000 -1.090324
v 1.318957 1.890000 0.000000
v 0.000000 1.890000 0.000000
v 1.253935 1.622549 -0.606161
v 1.316034 1.622549 -0.544061
v 1.253935 1.622549 -0.481962
v 1.253935 1.560450 -0.544061
v 1.253935 1.684649 -0.544061
v 1.253935 1.575975 -0.590636
v 1.253935 1.669124 -0.590636
v 1.300509 1.622549 -0.590636
v 1.300509 1.575975 -0.544061
v 1.300509 1.669124 -0.544061
v 1.300509 1.622549 -0.497487
v 1.253935 1.575975 -0.497487
v 1.253935 1.669124 -0.497487
v 1.288435 1.588050 -0.509562
v 1.288435 1.657049 -0.509562
v 1.288435 1.588050 -0.578561
v 1.288435 1.657049 -0.578561
v 1.191099 1.482800 -0.007276
v 1.191099 1.762299 -0.007276
v 1.191099 1.482800 -1.080847
v 1.191099 1.762299 -1.080847
v 1.251099 1.482800 -0.007276
v 1.251099 1.762299 -0.007276
v 1.251099 1.482800 -1.080847
v 1.251099 1.762299 -1.080847
v 1.239908 0.798651 -1.046756
v 1.302008 0.798651 -0.984657
v 1.239908 0.798651 -0.922558
v 1.239908 0.736552 -0.984657
v 1.239908 0.860750 -0.984657
v 1.239908 0.752076 -1.031231
v 1.239908 0.845225 -1.031231
v 1.286483 0.798651 -1.031231
v 1.286483 0.752076 -0.984657
v 1.286483 0.845225 -0.984657
v 1.286483 0.798651 -0.938082
v 1.239908 0.752076 -0.938082
v 1.239908 0.845225 -0.938082
v 1.274408 0.764151 -0.950157
v 1.274408 0.833150 -0.950157
v 1.274408 0.764151 -1.019156
v 1.274408 0.833150 -1.019156
v 1.203560 0.107049 -0.007276
v 1.203560 1.457778 -0.007276
v 1.203560 0.107049 -1.080847
v 1.203560 1.457778 -1.080847
v 1.243560 1.235258 -0.858326
v 1.243560 1.235258 -0.229797
v 1.243560 0.329570 -0.229797
v 1.243560 0.329570 -0.858326
v 1.243560 1.457778 -1.080847
v 1.243560 1.457778 -0.007276
v 1.243560 0.107049 -0.007276
v 1.243560 0.107049 -1.080847
v 1.183560 1.235258 -0.858326
v 1.183560 1.235258 -0.229797
v 1.183560 0.329570 -0.229797
v 1.183560 0.329570 -0.858326
v 0.000000 0.000000 0.000000
v 0.000000 1.786887 0.000000
v 0.000000 0.000000 -1.090324
v 0.000000 1.786887 -1.090324
v 1.199092 1.786887 -1.090324
v 1.199092 0.000000 0.000000
v 1.199092 1.786887 0.000000
v 1.199092 0.000000 -1.090324
vn 0.0000 0.0000 -1.0000
vn 1.0000 0.0000 0.0000
vn 0.0000 0.0000 1.0000
vn 0.0000 -1.0000 0.0000
vn 0.0000 1.0000 0.0000
vn -1.0000 0.0000 0.0000
vn 0.3714 0.0000 -0.9285
vn 0.3746 0.6556 -0.6556
vn 0.5774 0.5774 -0.5773
vn 0.7071 0.0000 -0.7071
vn 0.5774 -0.5774 -0.5773
vn 0.3746 -0.6556 -0.6556
vn 0.7071 -0.7071 -0.0000
vn 0.7071 0.7071 0.0000
vn 0.5774 0.5774 0.5773
vn 0.7071 -0.0000 0.7071
vn 0.5774 -0.5774 0.5773
vn 0.3714 0.0000 0.9285
vn 0.3746 -0.6556 0.6556
vn 0.3746 0.6556 0.6556
vn 0.3714 -0.9285 -0.0000
vn 0.3714 0.9285 0.0000
vn 0.5773 -0.5774 -0.5773
s off
f 28//1 29//1 33//1 32//1
f 32//2 33//2 31//2 30//2
f 30//3 31//3 27//3 26//3
f 28//4 32//4 30//4 26//4
f 33//5 29//5 27//5 31//5
f 57//5 58//5 66//5 65//5
f 51//4 53//4 62//4 61//4
f 54//5 52//5 60//5 59//5
f 53//1 54//1 59//1 62//1
f 52//3 51//3 61//3 60//3
f 56//2 55//2 59//2 60//2
f 57//2 56//2 60//2 61//2
f 58//2 57//2 61//2 62//2
f 55//2 58//2 62//2 59//2
f 55//4 56//4 64//4 63//4
f 58//3 55//3 63//3 66//3
f 56//1 57//1 65//1 64//1
f 69//1 70//1 71//1 74//1
f 72//3 73//3 68//3 67//3
f 74//4 72//4 67//4 69//4
f 68//6 70//6 69//6 67//6
f 72//2 74//2 71//2 73//2
s 1
f 2//1 5//1 6//1 4//1
f 1//6 8//6 5//6 2//6
f 3//3 7//3 8//3 1//3
f 6//5 5//5 8//5 7//5
f 4//2 6//2 7//2 3//2
f 9//7 15//8 25//9 16//10
f 9//7 16//10 24//11 14//12
f 10//2 17//13 24//11 16//10
f 10//2 16//10 25//9 18//14
f 10//2 18//14 23//15 19//16
f 10//2 19//16 22//17 17//13
f 11//18 20//19 22//17 19//16
f 11//18 19//16 23//15 21//20
f 12//21 14//12 24//11 17//13
f 12//21 17//13 22//17 20//19
f 13//22 18//14 25//9 15//8
f 13//22 21//20 23//15 18//14
f 34//7 40//8 50//9 41//10
f 34//7 41//10 49//23 39//12
f 35//2 42//13 49//23 41//10
f 35//2 41//10 50//9 43//14
f 35//2 43//14 48//15 44//16
f 35//2 44//16 47//17 42//13
f 36//18 45//19 47//17 44//16
f 36//18 44//16 48//15 46//20
f 37//21 39//12 49//23 42//13
f 37//21 42//13 47//17 45//19
f 38//22 43//14 50//9 40//8
f 38//22 46//20 48//15 43//14
