# Blender v2.79 (sub 0) OBJ File: 'mod_Wasserkocher.blend'
# www.blender.org
g Wasserkocher
v 0.028686 0.280000 -0.069200
v 0.069216 0.280000 -0.028648
v 0.069200 0.280000 0.028686
v 0.028648 0.280000 0.069216
v -0.028686 0.280000 0.069200
v -0.069216 0.280000 0.028648
v -0.069200 0.280000 -0.028686
v -0.028648 0.280000 -0.069216
v 0.068129 0.187893 -0.164352
v 0.164389 0.187893 -0.068040
v 0.164352 0.187893 0.068129
v 0.068040 0.187893 0.164389
v -0.068129 0.187893 0.164352
v -0.164389 0.187893 0.068040
v -0.164352 0.187893 -0.068129
v -0.068040 0.187893 -0.164389
v 0.055062 0.244742 -0.132829
v 0.132859 0.244742 -0.054990
v 0.132829 0.244742 0.055062
v 0.054990 0.244742 0.132859
v -0.055062 0.244742 0.132829
v -0.132859 0.244742 0.054990
v -0.132829 0.244742 -0.055062
v -0.054990 0.244742 -0.132859
v 0.024125 0.301938 -0.058197
v 0.058211 0.301938 -0.024093
v 0.058197 0.301938 0.024125
v 0.024093 0.301938 0.058211
v -0.024125 0.301938 0.058197
v -0.058211 0.301938 0.024093
v -0.058197 0.301938 -0.024125
v -0.024093 0.301938 -0.058211
v 0.159789 0.051599 -0.066136
v 0.159753 0.051599 0.066223
v 0.066136 0.051599 0.159789
v -0.066223 0.051599 0.159753
v -0.159789 0.051599 0.066136
v -0.159753 0.051599 -0.066223
v -0.066136 0.051599 -0.159789
v 0.066223 0.051599 -0.159753
v 0.066373 0.061195 -0.160116
v 0.160152 0.061195 -0.066286
v 0.160116 0.061195 0.066373
v 0.066286 0.061195 0.160152
v -0.066373 0.061195 0.160116
v -0.160152 0.061195 0.066286
v -0.160116 0.061195 -0.066373
v -0.066286 0.061195 -0.160152
v 0.066976 0.107513 -0.161570
v 0.161606 0.107513 -0.066888
v 0.161570 0.107513 0.066976
v 0.066888 0.107513 0.161606
v -0.066976 0.107513 0.161570
v -0.161606 0.107513 0.066888
v -0.161570 0.107513 -0.066976
v -0.066888 0.107513 -0.161606
v 0.067147 0.117109 -0.161982
v 0.162019 0.117109 -0.067059
v 0.161982 0.117109 0.067147
v 0.067059 0.117109 0.162019
v -0.067147 0.117109 0.161982
v -0.162019 0.117109 0.067059
v -0.161982 0.117109 -0.067147
v -0.067059 0.117109 -0.162019
v 0.022926 0.064991 0.169328
v 0.020779 0.127700 0.217006
v 0.000021 0.136652 0.213413
v -0.020738 0.127700 0.217006
v -0.020738 0.095549 0.243273
v 0.000021 0.088888 0.248714
v 0.020779 0.095549 0.243273
v 0.018365 0.152230 0.234828
v 0.000021 0.154054 0.227449
v -0.018324 0.152230 0.234828
v -0.018324 0.143426 0.270445
v 0.000021 0.141603 0.277824
v 0.018365 0.143426 0.270445
v 0.015951 0.186811 0.233878
v 0.000021 0.186358 0.227293
v -0.015910 0.186811 0.233878
v -0.015910 0.188994 0.265665
v 0.000021 0.189447 0.272250
v 0.015951 0.188994 0.265665
v 0.013538 0.230498 0.234211
v 0.000021 0.232036 0.228826
v -0.013496 0.230498 0.234211
v -0.013496 0.223074 0.260206
v 0.000021 0.221536 0.265591
v 0.013538 0.223074 0.260206
v 0.011124 0.268500 0.264226
v 0.000021 0.272263 0.261581
v -0.011083 0.268500 0.264226
v -0.011083 0.250333 0.276997
v 0.000021 0.246569 0.279642
v 0.011124 0.250333 0.276997
v 0.008710 0.289351 0.344544
v 0.000021 0.292923 0.344088
v -0.008669 0.289351 0.344544
v -0.008669 0.272112 0.346745
v 0.000021 0.268541 0.347201
v 0.008710 0.272112 0.346745
v -0.000044 0.120893 0.162000
v -0.022728 0.111057 0.171318
v -0.022911 0.064611 0.168403
v -0.000043 0.051599 0.159771
v 0.022669 0.111893 0.173618
v -0.000045 0.187893 0.164371
v -0.000036 0.244742 0.132844
v -0.000019 0.280000 0.069208
v -0.000016 0.301938 0.058204
v 0.060000 0.000000 -0.144742
v 0.065521 0.015531 -0.158059
v 0.158095 0.015531 -0.065435
v 0.144774 0.000000 -0.059921
v 0.158059 0.015531 0.065521
v 0.144742 0.000000 0.060000
v 0.059921 0.000000 0.144774
v 0.065435 0.015531 0.158095
v -0.060000 0.000000 0.144742
v -0.065521 0.015531 0.158059
v -0.158095 0.015531 0.065435
v -0.144774 0.000000 0.059921
v -0.158059 0.015531 -0.065521
v -0.144742 0.000000 -0.060000
v -0.059921 0.000000 -0.144774
v -0.065435 0.015531 -0.158095
v -0.000039 0.000000 0.144758
v -0.000043 0.015531 0.158077
v -0.000000 0.242650 0.132949
v -0.007608 0.242954 0.127430
v -0.004702 0.243446 0.118499
v 0.007608 0.242954 0.127430
v 0.000000 0.376584 0.105500
v -0.007608 0.373903 0.100666
v -0.004702 0.369564 0.092845
v 0.004702 0.369564 0.092845
v 0.007608 0.373903 0.100666
v 0.000000 0.452443 0.026161
v -0.007608 0.447529 0.023630
v -0.004702 0.439577 0.019536
v 0.004702 0.439577 0.019536
v 0.007608 0.447529 0.023630
v 0.000000 0.471392 -0.073375
v -0.007608 0.465898 -0.072763
v -0.004702 0.457009 -0.071773
v 0.004702 0.457009 -0.071773
v 0.007608 0.465898 -0.072763
v 0.000000 0.432901 -0.161492
v -0.007608 0.428956 -0.157619
v -0.004702 0.422573 -0.151354
v 0.004702 0.422573 -0.151354
v 0.007608 0.428956 -0.157619
v 0.000000 0.337495 -0.218258
v -0.007608 0.336898 -0.212763
v -0.004702 0.335931 -0.203871
v 0.004702 0.335931 -0.203871
v 0.007608 0.336898 -0.212763
v -0.000000 0.197913 -0.158209
v -0.007608 0.202719 -0.155478
v -0.004702 0.210495 -0.151059
v 0.004702 0.210495 -0.151059
v 0.007608 0.202719 -0.155478
v -0.007608 0.263708 -0.208967
v -0.004702 0.265065 -0.200446
v -0.000000 0.262869 -0.214234
v 0.007608 0.263708 -0.208967
v 0.004702 0.265065 -0.200446
v 0.004702 0.244690 0.118677
v 0.000000 0.308159 0.134267
v -0.004702 0.307963 0.120363
v 0.007608 0.308084 0.128956
v 0.004702 0.307963 0.120363
v -0.007608 0.308084 0.128956
v 0.000000 0.346394 -0.014000
v 0.000000 0.372394 -0.026000
v 0.012124 0.346394 -0.007000
v 0.022517 0.372394 -0.013000
v 0.012124 0.346394 0.007000
v 0.022517 0.372394 0.013000
v -0.000000 0.346394 0.014000
v -0.000000 0.372394 0.026000
v -0.012124 0.346394 0.007000
v -0.022517 0.372394 0.013000
v -0.012124 0.346394 -0.007000
v -0.022517 0.372394 -0.013000
v 0.000000 0.300892 -0.078000
v 0.000000 0.337510 -0.062050
v 0.055154 0.300892 -0.055154
v 0.043876 0.337510 -0.043876
v 0.078000 0.300892 0.000000
v 0.062050 0.337510 0.000000
v 0.055154 0.300892 0.055154
v 0.043876 0.337510 0.043876
v -0.000000 0.300892 0.078000
v -0.000000 0.337510 0.062050
v -0.055154 0.300892 0.055154
v -0.043876 0.337510 0.043876
v -0.078000 0.300892 -0.000000
v -0.062050 0.337510 -0.000000
v -0.055154 0.300892 -0.055154
v -0.043876 0.337510 -0.043876
v -0.000000 0.367542 -0.000000
vn 0.2742 0.6982 -0.6614
vn 0.2516 0.7539 -0.6069
vn 0.6071 0.7539 -0.2513
vn 0.6615 0.6982 -0.2738
vn 0.6069 0.7539 0.2516
vn 0.6614 0.6982 0.2742
vn -0.6614 0.6982 -0.2742
vn -0.6069 0.7539 -0.2516
vn -0.2513 0.7539 -0.6071
vn -0.2738 0.6982 -0.6615
vn -0.3819 -0.0508 -0.9228
vn -0.3820 -0.0458 -0.9230
vn 0.3825 -0.0458 -0.9228
vn 0.3824 -0.0508 -0.9226
vn -0.6615 0.6982 0.2738
vn -0.6071 0.7539 0.2513
vn -0.2742 0.6982 0.6614
vn -0.2516 0.7539 0.6069
vn 0.2513 0.7539 0.6071
vn 0.2738 0.6982 0.6615
vn -0.3824 -0.0508 0.9226
vn -0.4005 -0.1508 0.9038
vn -0.9230 -0.0458 0.3820
vn -0.9228 -0.0508 0.3819
vn -0.0002 0.7072 0.7070
vn -0.0003 0.2338 0.9723
vn 0.3716 0.2340 0.8984
vn -0.3821 -0.0413 -0.9232
vn -0.3718 0.2342 -0.8983
vn 0.3723 0.2342 -0.8981
vn 0.3826 -0.0413 -0.9230
vn 0.9230 -0.0413 0.3826
vn 0.8981 0.2342 0.3723
vn 0.4320 0.1477 0.8897
vn -0.4209 0.1156 0.8997
vn -0.3721 0.2340 0.8982
vn -0.8983 0.2342 0.3718
vn -0.9232 -0.0413 0.3821
vn -0.8981 0.2342 -0.3723
vn -0.9230 -0.0413 -0.3826
vn 0.9232 -0.0413 -0.3821
vn 0.8983 0.2342 -0.3718
vn -0.0002 0.6924 0.7215
vn -0.3365 0.4771 0.8118
vn -0.8120 0.4771 0.3361
vn 0.8118 0.4771 0.3365
vn 0.3361 0.4771 0.8120
vn 0.8120 0.4771 -0.3361
vn -0.0002 0.4483 0.8939
vn 0.3365 0.4771 -0.8118
vn -0.3361 0.4771 -0.8120
vn -0.8118 0.4771 -0.3365
vn 0.0000 -1.0000 0.0000
vn 0.9226 -0.0508 0.3824
vn 0.9228 -0.0458 0.3825
vn 0.4018 -0.1586 0.9019
vn 0.3819 -0.0508 0.9228
vn -0.9226 -0.0508 -0.3824
vn -0.9228 -0.0458 -0.3825
vn -0.0003 -0.0469 0.9989
vn -0.0017 -0.4477 0.8942
vn 0.9228 -0.0508 -0.3819
vn 0.9230 -0.0458 -0.3820
vn 0.4533 -0.1592 0.8770
vn 0.4032 -0.4962 0.7689
vn 0.6469 0.5547 0.5232
vn 0.8888 0.3981 -0.2271
vn 0.7798 -0.4517 0.4334
vn 0.3827 -0.0374 -0.9231
vn 0.9233 -0.0374 -0.3822
vn 0.9231 -0.0374 0.3827
vn -0.9231 -0.0374 -0.3827
vn -0.3822 -0.0374 -0.9233
vn -0.9233 -0.0374 0.3822
vn -0.4450 -0.1475 0.8833
vn 0.9232 -0.0403 -0.3821
vn 0.9230 -0.0403 0.3826
vn -0.9230 -0.0403 -0.3826
vn -0.3821 -0.0403 -0.9232
vn -0.9232 -0.0403 0.3821
vn -0.4666 0.0997 0.8789
vn 0.4855 0.1222 0.8657
vn 0.3826 -0.0403 -0.9230
vn -0.8863 -0.0291 0.4623
vn -0.8905 -0.3293 0.3138
vn -0.7763 0.5425 -0.3210
vn -0.7799 0.2459 -0.5756
vn -0.0065 0.6220 0.7830
vn -0.0003 0.8084 -0.5886
vn -0.6256 0.5102 0.5902
vn -0.8890 0.3977 -0.2268
vn -0.0002 -0.7454 0.6667
vn -0.7799 -0.4515 0.4334
vn -0.3970 -0.4813 0.7815
vn 0.7763 0.5425 -0.3210
vn 0.8002 0.5859 -0.1280
vn 0.8525 -0.4905 0.1809
vn 0.8905 -0.3293 0.3138
vn 0.0000 0.3343 -0.9424
vn 0.8851 0.1940 -0.4231
vn -0.8851 0.1940 -0.4231
vn -0.8525 -0.4905 0.1809
vn -0.8002 0.5859 -0.1280
vn 0.0000 -0.1937 0.9811
vn -0.7809 -0.0932 0.6177
vn 0.7809 -0.0932 0.6177
vn 0.8266 0.0450 -0.5610
vn 0.7799 0.2459 -0.5756
vn 0.8863 -0.0291 0.4623
vn 0.8184 0.1250 0.5609
vn 0.0000 0.0147 -0.9999
vn -0.8266 0.0450 -0.5610
vn -0.0000 0.1565 0.9877
vn -0.8184 0.1250 0.5609
vn 0.0000 0.3457 -0.9384
vn 0.0000 -0.1508 0.9886
vn -0.0000 0.8425 -0.5387
vn -0.0000 -0.7706 0.6373
vn -0.0000 0.9704 -0.2415
vn -0.0000 -0.9507 0.3100
vn 0.2807 -0.6803 -0.6770
vn 0.6772 -0.6803 -0.2803
vn 0.6770 -0.6803 0.2807
vn 0.2803 -0.6803 0.6772
vn -0.2807 -0.6803 0.6770
vn -0.6772 -0.6803 0.2803
vn -0.6770 -0.6803 -0.2807
vn -0.2803 -0.6803 -0.6772
vn -0.0002 -0.6510 0.7591
vn -0.0000 0.1760 0.9844
vn 0.9252 0.0828 0.3703
vn 0.9261 0.2190 0.3072
vn -0.0000 0.5617 0.8273
vn -0.9250 0.0828 0.3709
vn -0.9261 0.2190 0.3072
vn -0.6270 -0.1565 -0.7632
vn -0.6205 -0.4531 -0.6401
vn 0.6290 -0.1561 -0.7616
vn 0.6205 -0.4531 -0.6401
vn 0.9167 0.3552 0.1829
vn -0.0000 0.8890 0.4578
vn -0.9167 0.3552 0.1829
vn -0.6437 -0.6803 -0.3503
vn 0.6437 -0.6803 -0.3503
vn 0.9150 0.4009 -0.0452
vn -0.0000 0.9937 -0.1118
vn -0.9150 0.4009 -0.0452
vn -0.6458 -0.7588 0.0842
vn 0.6458 -0.7588 0.0842
vn 0.9132 0.3091 -0.2655
vn -0.0000 0.7457 -0.6663
vn -0.9132 0.3091 -0.2655
vn -0.6471 -0.5755 0.5000
vn 0.6471 -0.5755 0.5000
vn 0.9156 0.1085 -0.3873
vn -0.0000 0.2260 -0.9741
vn -0.9156 0.1085 -0.3873
vn -0.6457 -0.1927 0.7389
vn 0.6457 -0.1927 0.7389
vn -0.0000 -0.3513 -0.9363
vn 0.9092 -0.1780 -0.3764
vn 0.8964 -0.2893 -0.3359
vn -0.0000 -0.6562 -0.7546
vn -0.9092 -0.1780 -0.3764
vn -0.8964 -0.2893 -0.3359
vn -0.6524 0.3002 0.6959
vn -0.6207 0.5247 0.5826
vn 0.6524 0.3002 0.6959
vn 0.6207 0.5247 0.5826
vn 0.9360 -0.0071 0.3520
vn 0.5922 0.0218 -0.8055
vn -0.6124 0.0216 -0.7903
vn -0.9469 -0.0062 0.3216
vn 0.0000 -0.0218 0.9998
vn -0.0000 -0.4191 -0.9080
vn 0.7863 -0.4191 -0.4540
vn 0.7863 -0.4191 0.4540
vn 0.0000 -0.4191 0.9080
vn -0.7863 -0.4191 0.4540
vn 0.0000 1.0000 -0.0000
vn -0.7863 -0.4191 -0.4540
vn 0.0000 0.3993 -0.9168
vn 0.0000 0.6527 -0.7576
vn 0.5357 0.6527 -0.5357
vn 0.6483 0.3993 -0.6483
vn 0.7576 0.6527 -0.0000
vn 0.9168 0.3993 -0.0000
vn 0.5357 0.6527 0.5357
vn 0.6483 0.3993 0.6483
vn -0.0000 0.6527 0.7576
vn 0.0000 0.3993 0.9168
vn -0.5357 0.6527 0.5357
vn -0.6483 0.3993 0.6483
vn -0.7576 0.6527 0.0000
vn -0.9168 0.3993 0.0000
vn -0.5357 0.6527 -0.5357
vn -0.6483 0.3993 -0.6483
s 1
f 17//1 1//2 2//3 18//4
f 18//4 2//3 3//5 19//6
f 23//7 7//8 8//9 24//10
f 126//11 39//12 40//13 112//14
f 22//15 6//16 7//8 23//7
f 21//17 5//18 6//16 22//15
f 19//6 3//5 4//19 20//20
f 24//10 8//9 1//2 17//1
f 120//21 36//22 37//23 121//24
f 108//25 107//26 12//27 20//20
f 64//28 16//29 9//30 57//31
f 59//32 11//33 12//27 60//34
f 61//35 13//36 14//37 62//38
f 62//38 14//37 15//39 63//40
f 63//40 15//39 16//29 64//28
f 58//41 10//42 11//33 59//32
f 57//31 9//30 10//42 58//41
f 109//43 108//25 20//20 4//19
f 16//29 24//10 17//1 9//30
f 11//33 19//6 20//20 12//27
f 13//36 21//17 22//15 14//37
f 14//37 22//15 23//7 15//39
f 15//39 23//7 24//10 16//29
f 10//42 18//4 19//6 11//33
f 9//30 17//1 18//4 10//42
f 6//16 5//18 29//44 30//45
f 4//19 3//5 27//46 28//47
f 3//5 2//3 26//48 27//46
f 109//43 4//19 28//47 110//49
f 2//3 1//2 25//50 26//48
f 1//2 8//9 32//51 25//50
f 8//9 7//8 31//52 32//51
f 7//8 6//16 30//45 31//52
f 111//53 114//53 116//53 117//53 127//53 119//53 122//53 124//53 125//53
f 115//54 34//55 35//56 118//57
f 123//58 38//59 39//12 126//11
f 36//22 120//21 128//60 105//61
f 105//61 128//60 118//57 35//56
f 113//62 33//63 34//55 115//54
f 44//64 65//65 105//61 35//56
f 106//66 66//67 71//68 65//65
f 40//13 41//69 42//70 33//63
f 33//63 42//70 43//71 34//55
f 38//59 47//72 48//73 39//12
f 37//23 46//74 47//72 38//59
f 36//22 45//75 46//74 37//23
f 34//55 43//71 44//64 35//56
f 39//12 48//73 41//69 40//13
f 42//70 50//76 51//77 43//71
f 47//72 55//78 56//79 48//73
f 46//74 54//80 55//78 47//72
f 45//75 53//81 54//80 46//74
f 43//71 51//77 52//82 44//64
f 48//73 56//79 49//83 41//69
f 87//84 93//85 92//86 86//87
f 60//34 102//88 106//66 52//82
f 107//26 102//88 60//34 12//27
f 49//83 57//31 58//41 50//76
f 50//76 58//41 59//32 51//77
f 55//78 63//40 64//28 56//79
f 54//80 62//38 63//40 55//78
f 53//81 61//35 62//38 54//80
f 51//77 59//32 60//34 52//82
f 56//79 64//28 57//31 49//83
f 102//88 67//89 66//67 106//66
f 103//90 68//91 67//89 102//88
f 52//82 106//66 65//65 44//64
f 105//61 70//92 69//93 104//94
f 65//65 71//68 70//92 105//61
f 90//95 96//96 101//97 95//98
f 67//89 73//99 72//100 66//67
f 68//91 74//101 73//99 67//89
f 93//85 99//102 98//103 92//86
f 70//92 76//104 75//105 69//93
f 71//68 77//106 76//104 70//92
f 78//107 84//108 89//109 83//110
f 73//99 79//111 78//107 72//100
f 74//101 80//112 79//111 73//99
f 84//108 90//95 95//98 89//109
f 76//104 82//113 81//114 75//105
f 77//106 83//110 82//113 76//104
f 66//67 72//100 77//106 71//68
f 79//111 85//115 84//108 78//107
f 80//112 86//87 85//115 79//111
f 104//94 103//90 53//81 45//75
f 82//113 88//116 87//84 81//114
f 83//110 89//109 88//116 82//113
f 104//94 69//93 68//91 103//90
f 85//115 91//117 90//95 84//108
f 86//87 92//86 91//117 85//115
f 72//100 78//107 83//110 77//106
f 88//116 94//118 93//85 87//84
f 89//109 95//98 94//118 88//116
f 81//114 87//84 86//87 80//112
f 91//117 97//119 96//96 90//95
f 92//86 98//103 97//119 91//117
f 75//105 81//114 80//112 74//101
f 94//118 100//120 99//102 93//85
f 95//98 101//97 100//120 94//118
f 36//22 105//61 104//94 45//75
f 69//93 75//105 74//101 68//91
f 53//81 103//90 102//88 61//35
f 121//24 37//23 38//59 123//58
f 13//36 61//35 102//88 107//26
f 21//17 13//36 107//26 108//25
f 5//18 21//17 108//25 109//43
f 5//18 109//43 110//49 29//44
f 41//69 49//83 50//76 42//70
f 112//121 113//122 114//122 111//121
f 113//122 115//123 116//123 114//122
f 115//123 118//124 117//124 116//123
f 120//125 121//126 122//126 119//125
f 121//126 123//127 124//127 122//126
f 123//127 126//128 125//128 124//127
f 126//128 112//121 111//121 125//128
f 128//129 120//125 119//125 127//129
f 118//124 128//129 127//129 117//124
f 112//14 40//13 33//63 113//62
f 169//130 171//131 137//132 133//133
f 173//134 169//130 133//133 134//135
f 170//136 173//134 134//135 135//137
f 172//138 170//136 135//137 136//139
f 171//131 172//138 136//139 137//132
f 133//133 137//132 142//140 138//141
f 134//135 133//133 138//141 139//142
f 135//137 134//135 139//142 140//143
f 136//139 135//137 140//143 141//144
f 137//132 136//139 141//144 142//140
f 138//141 142//140 147//145 143//146
f 139//142 138//141 143//146 144//147
f 140//143 139//142 144//147 145//148
f 141//144 140//143 145//148 146//149
f 142//140 141//144 146//149 147//145
f 143//146 147//145 152//150 148//151
f 144//147 143//146 148//151 149//152
f 145//148 144//147 149//152 150//153
f 146//149 145//148 150//153 151//154
f 147//145 146//149 151//154 152//150
f 148//151 152//150 157//155 153//156
f 149//152 148//151 153//156 154//157
f 150//153 149//152 154//157 155//158
f 151//154 150//153 155//158 156//159
f 152//150 151//154 156//159 157//155
f 165//160 166//161 162//162 158//163
f 163//164 165//160 158//163 159//165
f 164//166 163//164 159//165 160//167
f 167//168 164//166 160//167 161//169
f 166//161 167//168 161//169 162//162
f 157//155 156//159 167//168 166//161
f 156//159 155//158 164//166 167//168
f 155//158 154//157 163//164 164//166
f 154//157 153//156 165//160 163//164
f 153//156 157//155 166//161 165//160
f 132//170 168//171 172//138 171//131
f 168//171 131//172 170//136 172//138
f 131//172 130//173 173//134 170//136
f 130//173 129//174 169//130 173//134
f 129//174 132//170 171//131 169//130
f 174//175 175//175 177//176 176//176
f 176//176 177//176 179//177 178//177
f 178//177 179//177 181//178 180//178
f 180//178 181//178 183//179 182//179
f 177//180 175//180 185//180 183//180 181//180 179//180
f 182//179 183//179 185//181 184//181
f 184//181 185//181 175//175 174//175
f 186//182 187//183 189//184 188//185
f 188//185 189//184 191//186 190//187
f 190//187 191//186 193//188 192//189
f 192//189 193//188 195//190 194//191
f 194//191 195//190 197//192 196//193
f 196//193 197//192 199//194 198//195
f 198//195 199//194 201//196 200//197
f 200//197 201//196 187//183 186//182
f 189//184 187//183 202//180
f 187//183 201//196 202//180
f 201//196 199//194 202//180
f 199//194 197//192 202//180
f 197//192 195//190 202//180
f 195//190 193//188 202//180
f 193//188 191//186 202//180
f 191//186 189//184 202//180
