# Blender v2.79 (sub 0) OBJ File: 'mod_Kuechentisch.blend'
# www.blender.org
g Kuechentisch
v -0.900000 1.524000 1.000000
v -0.900000 1.596000 1.000000
v -0.900000 1.524000 -1.000000
v -0.900000 1.596000 -1.000000
v 0.900000 1.524000 1.000000
v 0.900000 1.596000 1.000000
v 0.900000 1.524000 -1.000000
v 0.900000 1.596000 -1.000000
v -0.777867 1.283345 0.831323
v -0.777867 1.554966 0.831323
v -0.777867 1.283345 -0.831323
v -0.777867 1.554966 -0.831323
v 0.777867 1.283345 0.831323
v 0.777867 1.554966 0.831323
v 0.777867 1.283345 -0.831323
v 0.777867 1.554966 -0.831323
v 0.777867 1.283345 0.396596
v 0.777867 1.283345 -0.396596
v 0.777867 1.554966 -0.396596
v 0.777867 1.554966 0.396596
v 0.814152 1.283345 0.396596
v 0.814152 1.283345 -0.396596
v 0.814152 1.554966 -0.396596
v 0.814152 1.554966 0.396596
v 0.810830 1.419155 -0.051488
v 0.880331 1.419155 0.000000
v 0.810830 1.419155 0.051488
v 0.810830 1.367667 0.000000
v 0.810830 1.470644 0.000000
v 0.810830 1.380539 -0.038616
v 0.810830 1.457772 -0.038616
v 0.869163 1.419155 -0.033504
v 0.869163 1.385651 0.000000
v 0.869163 1.452660 0.000000
v 0.869163 1.419155 0.033504
v 0.810830 1.380539 0.038616
v 0.810830 1.457772 0.038616
v 0.860476 1.394337 0.024818
v 0.860476 1.443974 0.024818
v 0.860476 1.394337 -0.024818
v 0.860476 1.443974 -0.024818
v 0.715000 0.000000 0.885000
v 0.715000 1.520000 0.885000
v 0.800000 0.000000 0.840000
v 0.845000 0.000000 0.885000
v 0.845000 1.520000 0.885000
v 0.845000 0.000000 0.755000
v 0.845000 1.520000 0.755000
v 0.800000 0.000000 0.755000
v 0.800000 1.520000 0.755000
v 0.715000 0.000000 0.840000
v 0.715000 1.520000 0.840000
v 0.800000 1.520000 0.840000
v -0.715000 0.000000 0.885000
v -0.715000 1.520000 0.885000
v -0.800000 0.000000 0.840000
v -0.845000 0.000000 0.885000
v -0.845000 1.520000 0.885000
v -0.845000 0.000000 0.755000
v -0.845000 1.520000 0.755000
v -0.800000 0.000000 0.755000
v -0.800000 1.520000 0.755000
v -0.715000 0.000000 0.840000
v -0.715000 1.520000 0.840000
v -0.800000 1.520000 0.840000
v 0.715000 -0.000000 -0.885000
v 0.715000 1.520000 -0.885000
v 0.800000 -0.000000 -0.840000
v 0.845000 -0.000000 -0.885000
v 0.845000 1.520000 -0.885000
v 0.845000 -0.000000 -0.755000
v 0.845000 1.520000 -0.755000
v 0.800000 -0.000000 -0.755000
v 0.800000 1.520000 -0.755000
v 0.715000 -0.000000 -0.840000
v 0.715000 1.520000 -0.840000
v 0.800000 1.520000 -0.840000
v -0.715000 0.000000 -0.885000
v -0.715000 1.520000 -0.885000
v -0.800000 0.000000 -0.840000
v -0.845000 0.000000 -0.885000
v -0.845000 1.520000 -0.885000
v -0.845000 0.000000 -0.755000
v -0.845000 1.520000 -0.755000
v -0.800000 0.000000 -0.755000
v -0.800000 1.520000 -0.755000
v -0.715000 0.000000 -0.840000
v -0.715000 1.520000 -0.840000
v -0.800000 1.520000 -0.840000
vn -1.0000 0.0000 0.0000
vn 0.0000 0.0000 -1.0000
vn 1.0000 0.0000 0.0000
vn 0.0000 0.0000 1.0000
vn 0.0000 -1.0000 0.0000
vn 0.0000 1.0000 0.0000
vn 0.3251 0.0000 -0.9457
vn 0.3308 0.6673 -0.6673
vn 0.5541 0.5886 -0.5886
vn 0.6902 0.0000 -0.7236
vn 0.5541 -0.5886 -0.5886
vn 0.3308 -0.6673 -0.6673
vn 0.6902 -0.7236 0.0000
vn 0.6902 0.7236 0.0000
vn 0.5541 0.5886 0.5886
vn 0.6902 0.0000 0.7236
vn 0.5541 -0.5886 0.5886
vn 0.3251 0.0000 0.9457
vn 0.3308 -0.6673 0.6673
vn 0.3308 0.6673 0.6673
vn 0.3251 -0.9457 0.0000
vn 0.3251 0.9457 0.0000
s off
f 1//1 2//1 4//1 3//1
f 3//2 4//2 8//2 7//2
f 7//3 8//3 6//3 5//3
f 5//4 6//4 2//4 1//4
f 3//5 7//5 5//5 1//5
f 8//6 4//6 2//6 6//6
f 11//2 12//2 16//2 15//2
f 13//4 14//4 10//4 9//4
f 15//5 13//5 9//5 11//5
f 16//3 14//3 13//3 15//3
f 10//1 12//1 11//1 9//1
f 18//2 19//2 23//2 22//2
f 22//3 23//3 24//3 21//3
f 20//4 17//4 21//4 24//4
f 19//6 20//6 24//6 23//6
f 17//5 18//5 22//5 21//5
f 50//1 49//1 44//1 53//1
f 49//2 50//2 48//2 47//2
f 45//4 46//4 43//4 42//4
f 51//2 52//2 53//2 44//2
f 47//3 48//3 46//3 45//3
f 42//1 43//1 52//1 51//1
f 62//3 65//3 56//3 61//3
f 61//2 59//2 60//2 62//2
f 57//4 54//4 55//4 58//4
f 63//2 56//2 65//2 64//2
f 59//1 57//1 58//1 60//1
f 54//3 63//3 64//3 55//3
f 74//1 77//1 68//1 73//1
f 73//4 71//4 72//4 74//4
f 69//2 66//2 67//2 70//2
f 75//4 68//4 77//4 76//4
f 71//3 69//3 70//3 72//3
f 66//1 75//1 76//1 67//1
f 86//3 85//3 80//3 89//3
f 85//4 86//4 84//4 83//4
f 81//2 82//2 79//2 78//2
f 87//4 88//4 89//4 80//4
f 83//1 84//1 82//1 81//1
f 78//3 79//3 88//3 87//3
s 1
f 25//7 31//8 41//9 32//10
f 25//7 32//10 40//11 30//12
f 26//3 33//13 40//11 32//10
f 26//3 32//10 41//9 34//14
f 26//3 34//14 39//15 35//16
f 26//3 35//16 38//17 33//13
f 27//18 36//19 38//17 35//16
f 27//18 35//16 39//15 37//20
f 28//21 30//12 40//11 33//13
f 28//21 33//13 38//17 36//19
f 29//22 34//14 41//9 31//8
f 29//22 37//20 39//15 34//14
