# Blender v2.79 (sub 0) OBJ File: 'mod_Tasse.blend'
# www.blender.org
g Tasse
v 0.000736 -0.000142 -0.065527
v 0.001037 0.155640 -0.081445
v 0.000736 -0.000142 0.065498
v 0.001037 0.155640 0.081416
v 0.001005 0.085936 0.081879
v 0.001005 0.085936 -0.081907
v 0.001030 0.022375 -0.080316
v 0.001030 0.022375 0.080287
v -0.040474 -0.000142 0.052376
v -0.055522 0.155640 0.059305
v -0.041084 -0.000142 -0.051941
v -0.056212 0.155640 -0.058677
v 0.041154 -0.000142 0.050086
v 0.055811 0.155640 0.059540
v 0.040543 -0.000142 -0.050623
v 0.055013 0.155640 -0.060303
v -0.055109 0.085917 0.058891
v -0.055791 0.085921 -0.058253
v 0.056428 0.085758 -0.061020
v 0.057291 0.085741 0.060208
v -0.066612 -0.000142 0.001641
v -0.081150 0.155640 0.001493
v 0.063709 -0.000142 -0.009794
v 0.079218 0.155640 -0.019983
v 0.079218 0.155640 0.019954
v 0.081613 0.054458 -0.018318
v 0.081613 0.054458 0.018289
v 0.081613 0.102924 -0.018318
v 0.081613 0.102924 0.018289
v 0.081614 0.135019 -0.018318
v 0.081614 0.135019 0.018289
v -0.080095 0.085938 0.001473
v -0.055885 0.022374 -0.058330
v 0.052615 0.022338 -0.058523
v 0.053988 0.022333 0.057483
v -0.055198 0.022374 0.058945
v -0.080960 0.022379 0.001490
v 0.078791 0.022189 -0.011837
v 0.115495 0.102922 -0.013103
v 0.115495 0.102922 0.013074
v 0.110845 0.132030 -0.011700
v 0.110845 0.132030 0.011671
v 0.115495 0.054460 -0.013103
v 0.115495 0.054460 0.013074
v 0.110845 0.025640 -0.011700
v 0.110845 0.025640 0.011671
v 0.138355 0.055392 -0.011700
v 0.138355 0.055392 0.011671
v 0.131516 0.028658 -0.008671
v 0.131516 0.028658 0.008642
v 0.138355 0.102007 -0.011700
v 0.138355 0.102007 0.011671
v 0.131516 0.128976 -0.008671
v 0.131516 0.128976 0.008642
v 0.000984 0.012551 -0.064849
v 0.000984 0.012551 0.064820
v -0.047114 0.013367 -0.047865
v 0.001040 0.155640 -0.071628
v 0.048514 0.013520 -0.048574
v 0.048922 0.013553 0.047757
v 0.001040 0.155640 0.071599
v -0.063478 0.014030 0.001246
v -0.046937 0.013360 0.048798
v -0.049448 0.155640 0.051543
v -0.050052 0.155640 -0.050983
v 0.049624 0.155640 0.051874
v 0.048973 0.155640 -0.052514
v -0.071343 0.155640 0.001415
v 0.069311 0.155640 -0.019020
v 0.069311 0.155640 0.018991
v 0.078338 0.022191 0.014528
v 0.063344 -0.000142 0.011955
v 0.143313 0.078699 -0.011700
v 0.143313 0.078699 0.011671
v 0.120453 0.078691 0.013074
v 0.120453 0.078691 -0.013103
v 0.000000 0.000000 0.000000
v 0.063344 0.013553 0.011955
v 0.063709 0.013553 -0.009794
vn -0.7048 -0.0042 -0.7094
vn -0.6847 -0.2703 -0.6768
vn -0.9595 -0.2814 0.0110
vn -0.9999 -0.0021 0.0121
vn 0.8180 0.0066 -0.5752
vn 0.6423 -0.0175 -0.7663
vn 0.6393 0.0198 -0.7687
vn 0.8020 0.2910 -0.5216
vn -0.6940 -0.0042 0.7200
vn -0.6953 -0.0063 0.7187
vn -0.9999 -0.0118 0.0121
vn 0.6443 0.0201 0.7645
vn 0.6473 -0.0167 0.7621
vn 0.8203 0.0074 0.5719
vn 0.8038 0.2912 0.5187
vn -0.0056 -0.0110 -0.9999
vn -0.7060 -0.0063 -0.7082
vn -0.0098 0.0057 -0.9999
vn -0.3551 -0.8267 -0.4365
vn -0.5495 -0.8354 0.0098
vn 0.8043 -0.0902 -0.5873
vn 0.6478 -0.6162 -0.4480
vn 0.6295 -0.2999 -0.7168
vn -0.6741 -0.2690 0.6879
vn 0.0125 -0.2647 0.9642
vn 0.0008 -0.0111 0.9999
vn 0.0065 -0.2648 -0.9643
vn 0.6656 -0.5842 0.4644
vn 0.8077 -0.0708 0.5853
vn 0.6343 -0.2988 0.7130
vn 0.5072 -0.8511 -0.1355
vn 0.3506 -0.8323 -0.4293
vn 0.1546 0.0631 -0.9860
vn 0.1198 0.0548 -0.9913
vn 0.6638 -0.7479 0.0000
vn 0.1240 -0.9923 0.0005
vn 0.1245 -0.9922 0.0005
vn -0.6026 -0.7981 0.0000
vn -0.0000 -1.0000 0.0000
vn 0.5011 -0.8533 0.1438
vn 0.3461 -0.8336 0.4304
vn 0.9558 0.0884 0.2805
vn 0.9548 0.0880 -0.2840
vn -0.3479 -0.8273 0.4411
vn -0.6026 0.7981 0.0000
vn -0.0000 1.0000 0.0000
vn 0.0094 -0.8263 -0.5632
vn 0.0135 -0.8262 0.5632
vn 0.1214 0.9926 0.0000
vn 0.9738 -0.2273 0.0000
vn 0.0816 -0.0497 -0.9954
vn 0.1099 -0.1016 -0.9887
vn 0.0966 -0.1231 -0.9877
vn 0.0887 -0.0871 -0.9922
vn 0.0816 -0.0497 0.9954
vn 0.1006 -0.0750 0.9921
vn 0.1189 -0.1005 0.9878
vn 0.1099 -0.1016 0.9887
vn 0.6651 0.7468 0.0000
vn 0.9741 0.2263 0.0000
vn 0.1099 0.1007 0.9888
vn 0.1546 0.0631 0.9860
vn 0.1198 0.0548 0.9913
vn 0.0817 0.0493 0.9954
vn 0.0036 0.0384 0.9993
vn 0.0043 0.0384 0.9993
vn -0.6707 0.0406 0.7406
vn -0.6670 0.0406 0.7440
vn -0.0060 0.0378 -0.9993
vn 0.6956 0.0395 -0.7174
vn 0.6982 0.0395 -0.7148
vn -0.0064 0.0378 -0.9993
vn 0.1099 0.1007 -0.9888
vn 0.0817 0.0493 -0.9954
vn -0.6690 0.0403 -0.7422
vn -0.6726 0.0403 -0.7389
vn 0.9991 0.0412 -0.0097
vn 0.9991 0.0412 -0.0099
vn 0.7091 0.0413 0.7039
vn 0.7066 0.0413 0.7064
vn -0.0034 0.0057 1.0000
vn 1.0000 -0.0000 0.0000
vn 0.0615 0.0000 0.9981
vn -1.0000 0.0000 0.0000
vn 0.0615 -0.0000 -0.9981
vn -0.9722 0.0412 0.2307
vn -0.9757 0.0412 0.2153
vn -0.9734 0.0406 -0.2256
vn -0.9708 0.0406 -0.2363
s 1
f 18//1 33//2 37//3 32//4
f 28//5 19//6 16//7 30//8
f 32//4 17//9 10//10 22//11
f 14//12 20//13 29//14 31//15
f 6//16 18//1 12//17 2//18
f 33//2 11//19 21//20 37//3
f 26//21 38//22 34//23
f 36//24 8//25 5//26 17//9
f 16//7 19//6 6//16 2//18
f 18//1 6//16 7//27 33//2
f 19//6 34//23 7//27 6//16
f 12//17 18//1 32//4 22//11
f 32//4 37//3 36//24 17//9
f 71//28 27//29 35//30
f 28//5 26//21 34//23 19//6
f 38//22 23//31 15//32 34//23
f 41//33 39//34 28//5 30//8
f 49//35 50//35 46//36 45//37
f 39//38 40//38 29//39 28//39
f 20//13 5//26 8//25 35//30
f 72//40 71//28 35//30 13//41
f 25//42 31//15 30//8 24//43
f 37//3 21//20 9//44 36//24
f 43//45 26//46 27//46 44//45
f 33//2 7//27 1//47 11//19
f 34//23 15//32 1//47 7//27
f 35//30 8//25 3//48 13//41
f 9//44 3//48 8//25 36//24
f 41//49 30//8 31//15 42//49
f 48//50 50//35 49//35 47//50
f 47//51 49//52 45//53 43//54
f 48//55 44//56 46//57 50//58
f 54//59 52//60 51//60 53//59
f 54//61 42//62 40//63 52//64
f 53//59 41//49 42//49 54//59
f 42//62 31//15 29//14 40//63
f 58//65 55//66 59//67 67//68
f 56//69 63//70 64//71 61//72
f 53//73 51//74 39//34 41//33
f 66//75 60//76 56//69 61//72
f 63//70 62//77 68//78 64//71
f 65//79 68//78 62//77 57//80
f 55//66 58//65 65//79 57//80
f 12//46 22//46 68//46 65//46
f 14//46 25//46 70//46 66//46
f 24//46 16//46 67//46 69//46
f 2//46 12//46 65//46 58//46
f 16//46 2//46 58//46 67//46
f 22//46 10//46 64//46 68//46
f 4//46 14//46 66//46 61//46
f 10//46 4//46 61//46 64//46
f 25//46 24//46 69//46 70//46
f 17//9 5//26 4//81 10//10
f 29//14 27//29 26//21 28//5
f 23//31 38//22 71//28 72//40
f 71//28 38//22 45//37 46//36
f 46//57 44//56 27//29 71//28
f 45//53 38//22 26//21 43//54
f 73//82 74//82 48//50 47//50
f 74//83 75//83 44//56 48//55
f 75//84 76//84 43//45 44//45
f 76//85 73//85 47//51 43//54
f 39//34 51//74 73//85 76//85
f 40//38 39//38 76//84 75//84
f 52//64 40//63 75//83 74//83
f 51//60 52//60 74//82 73//82
f 21//20 11//19 77//39
f 11//19 1//47 77//39
f 1//47 15//32 77//39
f 15//32 23//31 77//39
f 23//31 72//40 77//39
f 72//40 13//41 77//39
f 13//41 3//48 77//39
f 3//48 9//44 77//39
f 9//44 21//20 77//39
f 69//86 67//68 59//67 79//87
f 69//86 79//87 78//88 70//89
f 70//89 78//88 60//76 66//75
f 25//42 14//12 31//15
f 24//43 30//8 16//7
f 4//81 5//26 20//13 14//12
f 27//29 29//14 20//13 35//30
