# Blender v2.78 (sub 0) OBJ File: 'FantasyUVs.blend'
# www.blender.org
mtllib mod_Wahrsagerkugel_Fantasie.mtl
g Wahrsagerkugel
v 0.406626 0.000000 -0.234765
v 0.469531 0.000000 0.000000
v 0.000000 0.000000 0.000000
v 0.406626 0.124758 -0.234765
v 0.469531 0.124758 0.000000
v 0.000000 0.124758 0.000000
v 0.234765 0.000000 -0.406626
v 0.234765 0.124758 -0.406626
v 0.000000 0.000000 -0.469531
v 0.000000 0.124758 -0.469531
v -0.234765 0.000000 -0.406626
v -0.234765 0.124758 -0.406626
v -0.406626 0.000000 -0.234765
v -0.406626 0.124758 -0.234765
v -0.469531 0.000000 0.000000
v -0.469531 0.124758 0.000000
v -0.406626 -0.000000 0.234765
v -0.406626 0.124758 0.234765
v -0.234765 -0.000000 0.406626
v -0.234765 0.124758 0.406626
v 0.000000 -0.000000 0.469531
v 0.000000 0.124758 0.469531
v 0.234765 -0.000000 0.406626
v 0.234765 0.124758 0.406626
v 0.406626 -0.000000 0.234765
v 0.406626 0.124758 0.234765
v 0.209588 0.104430 -0.121006
v 0.314540 0.104430 -0.181600
v 0.363200 0.104430 0.000000
v 0.242012 0.104430 0.000000
v 0.314540 0.279766 -0.181600
v 0.363200 0.279766 0.000000
v 0.209588 0.279766 -0.121006
v 0.242012 0.279766 0.000000
v 0.121006 0.104430 -0.209588
v 0.181600 0.104430 -0.314540
v 0.181600 0.279766 -0.314540
v 0.121006 0.279766 -0.209588
v 0.000000 0.104430 -0.242012
v 0.000000 0.104430 -0.363200
v 0.000000 0.279766 -0.363200
v 0.000000 0.279766 -0.242012
v -0.121006 0.104430 -0.209588
v -0.181600 0.104430 -0.314540
v -0.181600 0.279766 -0.314540
v -0.121006 0.279766 -0.209588
v -0.209588 0.104430 -0.121006
v -0.314540 0.104430 -0.181600
v -0.314540 0.279766 -0.181600
v -0.209588 0.279766 -0.121006
v -0.242012 0.104430 0.000000
v -0.363200 0.104430 0.000000
v -0.363200 0.279766 0.000000
v -0.242012 0.279766 0.000000
v -0.209588 0.104430 0.121006
v -0.314540 0.104430 0.181600
v -0.314540 0.279766 0.181600
v -0.209588 0.279766 0.121006
v -0.121006 0.104430 0.209588
v -0.181600 0.104430 0.314540
v -0.181600 0.279766 0.314540
v -0.121006 0.279766 0.209589
v 0.000000 0.104430 0.242012
v 0.000000 0.104430 0.363200
v 0.000000 0.279766 0.363200
v 0.000000 0.279766 0.242012
v 0.121006 0.104430 0.209588
v 0.181600 0.104430 0.314540
v 0.181600 0.279766 0.314540
v 0.121006 0.279766 0.209589
v 0.209588 0.104430 0.121006
v 0.314540 0.104430 0.181600
v 0.314540 0.279766 0.181600
v 0.209588 0.279766 0.121006
v 0.179086 0.196251 -0.103396
v 0.310187 0.347633 -0.179086
v 0.358173 0.347633 0.000000
v 0.206791 0.196251 0.000000
v 0.103396 0.196251 -0.179086
v 0.179086 0.347633 -0.310187
v 0.000000 0.196251 -0.206791
v 0.000000 0.347633 -0.358173
v -0.103396 0.196251 -0.179086
v -0.179086 0.347633 -0.310187
v -0.179086 0.196251 -0.103396
v -0.310187 0.347633 -0.179086
v -0.206791 0.196251 0.000000
v -0.358173 0.347633 0.000000
v -0.179086 0.196251 0.103396
v -0.310187 0.347633 0.179086
v -0.103396 0.196251 0.179086
v -0.179086 0.347633 0.310187
v 0.000000 0.196251 0.206791
v 0.000000 0.347633 0.358173
v 0.103396 0.196251 0.179086
v 0.179086 0.347633 0.310187
v 0.179086 0.196251 0.103396
v 0.310187 0.347633 0.179086
v 0.358173 0.554424 -0.206791
v 0.413582 0.554424 0.000000
v 0.206791 0.554424 -0.358173
v 0.000000 0.554424 -0.413582
v -0.206791 0.554424 -0.358173
v -0.358173 0.554424 -0.206791
v -0.413582 0.554424 0.000000
v -0.358173 0.554424 0.206791
v -0.206791 0.554424 0.358173
v 0.000000 0.554424 0.413582
v 0.206791 0.554424 0.358173
v 0.358173 0.554424 0.206791
v 0.310187 0.761215 -0.179086
v 0.358173 0.761215 0.000000
v 0.179086 0.761215 -0.310187
v 0.000000 0.761215 -0.358173
v -0.179086 0.761215 -0.310187
v -0.310187 0.761215 -0.179086
v -0.358173 0.761215 0.000000
v -0.310187 0.761215 0.179086
v -0.179086 0.761215 0.310187
v 0.000000 0.761215 0.358173
v 0.179086 0.761215 0.310187
v 0.310187 0.761215 0.179086
v 0.179086 0.912597 -0.103395
v 0.206791 0.912597 0.000000
v 0.103396 0.912597 -0.179086
v 0.000000 0.912597 -0.206791
v -0.103396 0.912597 -0.179086
v -0.179086 0.912597 -0.103395
v -0.206791 0.912597 0.000000
v -0.179086 0.912597 0.103396
v -0.103396 0.912597 0.179086
v 0.000000 0.912596 0.206791
v 0.103396 0.912597 0.179086
v 0.179086 0.912597 0.103396
v 0.000000 0.140842 0.000000
v 0.000000 0.968006 0.000000
vt 0.1069 0.0056
vt 0.1144 0.0056
vt 0.0583 0.0056
vt 0.1069 0.0163
vt 0.1144 0.0163
vt 0.0583 0.0163
vt 0.0863 0.0056
vt 0.0863 0.0163
vt 0.0583 0.0056
vt 0.0583 0.0163
vt 0.0303 0.0056
vt 0.0303 0.0163
vt 0.0097 0.0056
vt 0.0097 0.0163
vt 0.0022 0.0056
vt 0.0022 0.0163
vt 0.0097 0.0056
vt 0.0097 0.0163
vt 0.0303 0.0056
vt 0.0303 0.0163
vt 0.0583 0.0056
vt 0.0583 0.0163
vt 0.0863 0.0056
vt 0.0863 0.0163
vt 0.1069 0.0056
vt 0.1069 0.0163
vt 0.0843 0.0975
vt 0.0969 0.0975
vt 0.1027 0.0975
vt 0.0882 0.0975
vt 0.0969 0.1126
vt 0.1027 0.1126
vt 0.0843 0.1126
vt 0.0882 0.1126
vt 0.0737 0.0975
vt 0.0810 0.0975
vt 0.0810 0.1126
vt 0.0737 0.1126
vt 0.0593 0.0975
vt 0.0593 0.0975
vt 0.0593 0.1126
vt 0.0593 0.1126
vt 0.0448 0.0975
vt 0.0376 0.0975
vt 0.0376 0.1126
vt 0.0448 0.1126
vt 0.0342 0.0975
vt 0.0217 0.0975
vt 0.0217 0.1126
vt 0.0342 0.1126
vt 0.0304 0.0975
vt 0.0159 0.0975
vt 0.0159 0.1126
vt 0.0304 0.1126
vt 0.0342 0.0975
vt 0.0217 0.0975
vt 0.0217 0.1126
vt 0.0342 0.1126
vt 0.0448 0.0975
vt 0.0376 0.0975
vt 0.0376 0.1126
vt 0.0448 0.1126
vt 0.0593 0.0975
vt 0.0593 0.0975
vt 0.0593 0.1126
vt 0.0593 0.1126
vt 0.0737 0.0975
vt 0.0810 0.0975
vt 0.0810 0.1126
vt 0.0737 0.1126
vt 0.0843 0.0975
vt 0.0969 0.0975
vt 0.0969 0.1126
vt 0.0843 0.1126
vt 0.9006 0.6178
vt 0.9123 0.6313
vt 0.9166 0.6313
vt 0.9031 0.6178
vt 0.8938 0.6178
vt 0.9006 0.6313
vt 0.8846 0.6178
vt 0.8846 0.6313
vt 0.8754 0.6178
vt 0.8686 0.6313
vt 0.8686 0.6178
vt 0.8569 0.6313
vt 0.8661 0.6178
vt 0.8526 0.6313
vt 0.8686 0.6178
vt 0.8569 0.6313
vt 0.8754 0.6178
vt 0.8686 0.6313
vt 0.8846 0.6178
vt 0.8846 0.6313
vt 0.8938 0.6178
vt 0.9006 0.6313
vt 0.9006 0.6178
vt 0.9123 0.6313
vt 0.9166 0.6498
vt 0.9216 0.6498
vt 0.9031 0.6498
vt 0.8846 0.6498
vt 0.8661 0.6498
vt 0.8526 0.6498
vt 0.8476 0.6498
vt 0.8526 0.6498
vt 0.8661 0.6498
vt 0.8846 0.6498
vt 0.9031 0.6498
vt 0.9166 0.6498
vt 0.9123 0.6683
vt 0.9166 0.6683
vt 0.9006 0.6683
vt 0.8846 0.6683
vt 0.8686 0.6683
vt 0.8569 0.6683
vt 0.8526 0.6683
vt 0.8569 0.6683
vt 0.8686 0.6683
vt 0.8846 0.6683
vt 0.9006 0.6683
vt 0.9123 0.6683
vt 0.9006 0.6818
vt 0.9031 0.6818
vt 0.8938 0.6818
vt 0.8846 0.6818
vt 0.8754 0.6818
vt 0.8686 0.6818
vt 0.8661 0.6818
vt 0.8686 0.6818
vt 0.8754 0.6818
vt 0.8846 0.6818
vt 0.8938 0.6818
vt 0.9006 0.6818
vt 0.8846 0.6128
vt 0.8846 0.6867
vn 0.0000 -1.0000 -0.0000
vn 0.8660 0.0000 -0.5000
vn 1.0000 0.0000 0.0000
vn 0.0000 1.0000 0.0000
vn 0.5000 0.0000 -0.8660
vn 0.0000 0.0000 -1.0000
vn -0.5000 0.0000 -0.8660
vn -0.8660 0.0000 -0.5000
vn -1.0000 -0.0000 0.0000
vn -0.8660 -0.0000 0.5000
vn -0.5000 -0.0000 0.8660
vn 0.0000 -0.0000 1.0000
vn 0.5000 -0.0000 0.8660
vn 0.8660 -0.0000 0.5000
vn 0.4315 -0.8670 -0.2491
vn 0.7492 -0.5017 -0.4325
vn 0.8650 -0.5017 -0.0000
vn 0.4982 -0.8670 -0.0000
vn 0.2491 -0.8670 -0.4315
vn 0.4325 -0.5017 -0.7492
vn 0.0000 -0.8670 -0.4982
vn 0.0000 -0.5017 -0.8650
vn -0.2491 -0.8670 -0.4315
vn -0.4325 -0.5017 -0.7491
vn -0.4315 -0.8670 -0.2491
vn -0.7491 -0.5017 -0.4325
vn -0.4982 -0.8670 0.0000
vn -0.8650 -0.5017 -0.0000
vn -0.4315 -0.8670 0.2491
vn -0.7492 -0.5017 0.4325
vn -0.2491 -0.8670 0.4315
vn -0.4325 -0.5017 0.7492
vn -0.0000 -0.8670 0.4982
vn -0.0000 -0.5017 0.8650
vn 0.2491 -0.8670 0.4315
vn 0.4325 -0.5017 0.7491
vn 0.4315 -0.8670 0.2491
vn 0.7491 -0.5017 0.4325
vn 0.7491 0.5017 -0.4325
vn 0.8650 0.5017 0.0000
vn 0.4325 0.5017 -0.7492
vn 0.0000 0.5017 -0.8650
vn -0.4325 0.5017 -0.7491
vn -0.7491 0.5017 -0.4325
vn -0.8650 0.5017 -0.0000
vn -0.7491 0.5017 0.4325
vn -0.4325 0.5017 0.7492
vn -0.0000 0.5017 0.8650
vn 0.4325 0.5017 0.7491
vn 0.7491 0.5017 0.4325
vn 0.4315 0.8670 -0.2491
vn 0.4982 0.8670 0.0000
vn 0.2491 0.8670 -0.4315
vn 0.0000 0.8670 -0.4982
vn -0.2491 0.8670 -0.4315
vn -0.4315 0.8670 -0.2491
vn -0.4982 0.8670 -0.0000
vn -0.4315 0.8670 0.2491
vn -0.2491 0.8670 0.4315
vn -0.0000 0.8670 0.4982
vn 0.2491 0.8670 0.4315
vn 0.4315 0.8670 0.2491
usemtl default.001
s 1
f 1/1/1 2/2/1 3/3/1
f 1/1/2 4/4/2 5/5/3 2/2/3
f 4/4/4 6/6/4 5/5/4
f 7/7/1 1/1/1 3/3/1
f 7/7/5 8/8/5 4/4/2 1/1/2
f 8/8/4 6/6/4 4/4/4
f 9/9/1 7/7/1 3/3/1
f 9/9/6 10/10/6 8/8/5 7/7/5
f 10/10/4 6/6/4 8/8/4
f 11/11/1 9/9/1 3/3/1
f 11/11/7 12/12/7 10/10/6 9/9/6
f 12/12/4 6/6/4 10/10/4
f 13/13/1 11/11/1 3/3/1
f 13/13/8 14/14/8 12/12/7 11/11/7
f 14/14/4 6/6/4 12/12/4
f 15/15/1 13/13/1 3/3/1
f 15/15/9 16/16/9 14/14/8 13/13/8
f 16/16/4 6/6/4 14/14/4
f 17/17/1 15/15/1 3/3/1
f 17/17/10 18/18/10 16/16/9 15/15/9
f 18/18/4 6/6/4 16/16/4
f 19/19/1 17/17/1 3/3/1
f 19/19/11 20/20/11 18/18/10 17/17/10
f 20/20/4 6/6/4 18/18/4
f 21/21/1 19/19/1 3/3/1
f 21/21/12 22/22/12 20/20/11 19/19/11
f 22/22/4 6/6/4 20/20/4
f 23/23/1 21/21/1 3/3/1
f 23/23/13 24/24/13 22/22/12 21/21/12
f 24/24/4 6/6/4 22/22/4
f 25/25/1 23/23/1 3/3/1
f 25/25/14 26/26/14 24/24/13 23/23/13
f 26/26/4 6/6/4 24/24/4
f 2/2/1 25/25/1 3/3/1
f 2/2/3 5/5/3 26/26/14 25/25/14
f 5/5/4 6/6/4 26/26/4
f 27/27/1 28/28/1 29/29/1 30/30/1
f 28/28/2 31/31/2 32/32/3 29/29/3
f 31/31/4 33/33/4 34/34/4 32/32/4
f 33/33/10 27/27/10 30/30/9 34/34/9
f 35/35/1 36/36/1 28/28/1 27/27/1
f 36/36/5 37/37/5 31/31/2 28/28/2
f 37/37/4 38/38/4 33/33/4 31/31/4
f 38/38/11 35/35/11 27/27/10 33/33/10
f 39/39/1 40/40/1 36/36/1 35/35/1
f 40/40/6 41/41/6 37/37/5 36/36/5
f 41/41/4 42/42/4 38/38/4 37/37/4
f 42/42/12 39/39/12 35/35/11 38/38/11
f 43/43/1 44/44/1 40/40/1 39/39/1
f 44/44/7 45/45/7 41/41/6 40/40/6
f 45/45/4 46/46/4 42/42/4 41/41/4
f 46/46/13 43/43/13 39/39/12 42/42/12
f 47/47/1 48/48/1 44/44/1 43/43/1
f 48/48/8 49/49/8 45/45/7 44/44/7
f 49/49/4 50/50/4 46/46/4 45/45/4
f 50/50/14 47/47/14 43/43/13 46/46/13
f 51/51/1 52/52/1 48/48/1 47/47/1
f 52/52/9 53/53/9 49/49/8 48/48/8
f 53/53/4 54/54/4 50/50/4 49/49/4
f 54/54/3 51/51/3 47/47/14 50/50/14
f 55/55/1 56/56/1 52/52/1 51/51/1
f 56/56/10 57/57/10 53/53/9 52/52/9
f 57/57/4 58/58/4 54/54/4 53/53/4
f 58/58/2 55/55/2 51/51/3 54/54/3
f 59/59/1 60/60/1 56/56/1 55/55/1
f 60/60/11 61/61/11 57/57/10 56/56/10
f 61/61/4 62/62/4 58/58/4 57/57/4
f 62/62/5 59/59/5 55/55/2 58/58/2
f 63/63/1 64/64/1 60/60/1 59/59/1
f 64/64/12 65/65/12 61/61/11 60/60/11
f 65/65/4 66/66/4 62/62/4 61/61/4
f 66/66/6 63/63/6 59/59/5 62/62/5
f 67/67/1 68/68/1 64/64/1 63/63/1
f 68/68/13 69/69/13 65/65/12 64/64/12
f 69/69/4 70/70/4 66/66/4 65/65/4
f 70/70/7 67/67/7 63/63/6 66/66/6
f 71/71/1 72/72/1 68/68/1 67/67/1
f 72/72/14 73/73/14 69/69/13 68/68/13
f 73/73/4 74/74/4 70/70/4 69/69/4
f 74/74/8 71/71/8 67/67/7 70/70/7
f 30/30/1 29/29/1 72/72/1 71/71/1
f 29/29/3 32/32/3 73/73/14 72/72/14
f 32/32/4 34/34/4 74/74/4 73/73/4
f 34/34/9 30/30/9 71/71/8 74/74/8
f 75/75/15 76/76/16 77/77/17 78/78/18
f 79/79/19 80/80/20 76/76/16 75/75/15
f 81/81/21 82/82/22 80/80/20 79/79/19
f 83/83/23 84/84/24 82/82/22 81/81/21
f 85/85/25 86/86/26 84/84/24 83/83/23
f 87/87/27 88/88/28 86/86/26 85/85/25
f 89/89/29 90/90/30 88/88/28 87/87/27
f 91/91/31 92/92/32 90/90/30 89/89/29
f 93/93/33 94/94/34 92/92/32 91/91/31
f 95/95/35 96/96/36 94/94/34 93/93/33
f 97/97/37 98/98/38 96/96/36 95/95/35
f 78/78/18 77/77/17 98/98/38 97/97/37
f 76/76/16 99/99/2 100/100/3 77/77/17
f 80/80/20 101/101/5 99/99/2 76/76/16
f 82/82/22 102/102/6 101/101/5 80/80/20
f 84/84/24 103/103/7 102/102/6 82/82/22
f 86/86/26 104/104/8 103/103/7 84/84/24
f 88/88/28 105/105/9 104/104/8 86/86/26
f 90/90/30 106/106/10 105/105/9 88/88/28
f 92/92/32 107/107/11 106/106/10 90/90/30
f 94/94/34 108/108/12 107/107/11 92/92/32
f 96/96/36 109/109/13 108/108/12 94/94/34
f 98/98/38 110/110/14 109/109/13 96/96/36
f 77/77/17 100/100/3 110/110/14 98/98/38
f 99/99/2 111/111/39 112/112/40 100/100/3
f 101/101/5 113/113/41 111/111/39 99/99/2
f 102/102/6 114/114/42 113/113/41 101/101/5
f 103/103/7 115/115/43 114/114/42 102/102/6
f 104/104/8 116/116/44 115/115/43 103/103/7
f 105/105/9 117/117/45 116/116/44 104/104/8
f 106/106/10 118/118/46 117/117/45 105/105/9
f 107/107/11 119/119/47 118/118/46 106/106/10
f 108/108/12 120/120/48 119/119/47 107/107/11
f 109/109/13 121/121/49 120/120/48 108/108/12
f 110/110/14 122/122/50 121/121/49 109/109/13
f 100/100/3 112/112/40 122/122/50 110/110/14
f 111/111/39 123/123/51 124/124/52 112/112/40
f 113/113/41 125/125/53 123/123/51 111/111/39
f 114/114/42 126/126/54 125/125/53 113/113/41
f 115/115/43 127/127/55 126/126/54 114/114/42
f 116/116/44 128/128/56 127/127/55 115/115/43
f 117/117/45 129/129/57 128/128/56 116/116/44
f 118/118/46 130/130/58 129/129/57 117/117/45
f 119/119/47 131/131/59 130/130/58 118/118/46
f 120/120/48 132/132/60 131/131/59 119/119/47
f 121/121/49 133/133/61 132/132/60 120/120/48
f 122/122/50 134/134/62 133/133/61 121/121/49
f 112/112/40 124/124/52 134/134/62 122/122/50
f 75/75/15 78/78/18 135/135/1
f 136/136/4 124/124/52 123/123/51
f 79/79/19 75/75/15 135/135/1
f 136/136/4 123/123/51 125/125/53
f 81/81/21 79/79/19 135/135/1
f 136/136/4 125/125/53 126/126/54
f 83/83/23 81/81/21 135/135/1
f 136/136/4 126/126/54 127/127/55
f 85/85/25 83/83/23 135/135/1
f 136/136/4 127/127/55 128/128/56
f 87/87/27 85/85/25 135/135/1
f 136/136/4 128/128/56 129/129/57
f 89/89/29 87/87/27 135/135/1
f 136/136/4 129/129/57 130/130/58
f 91/91/31 89/89/29 135/135/1
f 136/136/4 130/130/58 131/131/59
f 93/93/33 91/91/31 135/135/1
f 136/136/4 131/131/59 132/132/60
f 95/95/35 93/93/33 135/135/1
f 136/136/4 132/132/60 133/133/61
f 97/97/37 95/95/35 135/135/1
f 136/136/4 133/133/61 134/134/62
f 78/78/18 97/97/37 135/135/1
f 136/136/4 134/134/62 124/124/52
