# Blender v2.78 (sub 0) OBJ File: 'Key Objects_UVbearbeiten.blend'
# www.blender.org
mtllib mod_Brotlaib.mtl
g Brotlaib.001
v -0.164806 0.173221 -0.146591
v -0.139126 0.256229 -0.136369
v -0.123440 0.217599 -0.269527
v -0.143019 0.149811 -0.299459
v 0.048864 0.157926 -0.332315
v 0.043528 0.241176 -0.291987
v 0.123440 0.217599 -0.269527
v 0.143019 0.149811 -0.299459
v 0.164712 0.173068 0.153099
v 0.139071 0.256145 0.142709
v 0.123383 0.217512 0.276307
v 0.143053 0.149698 0.306783
v -0.048849 0.157820 0.340608
v -0.043515 0.241135 0.299294
v -0.123383 0.217512 0.276308
v -0.143053 0.149698 0.306783
v 0.057455 0.004339 0.152469
v 0.170357 0.005834 0.146502
v 0.156330 0.012363 0.296027
v 0.047278 0.010024 0.324015
v -0.054417 0.258097 0.148205
v -0.139071 0.256145 0.142709
v -0.043528 0.241176 -0.291987
v -0.054431 0.258114 -0.141902
v -0.143225 0.273013 -0.002054
v -0.052079 0.279027 -0.002412
v 0.047293 0.010152 -0.316273
v 0.156385 0.012532 -0.289092
v 0.170368 0.006019 -0.140019
v 0.057437 0.004475 -0.145993
v 0.173111 0.005055 0.001960
v 0.063429 0.000000 0.000000
v 0.139126 0.256229 -0.136369
v 0.164806 0.173221 -0.146592
v 0.143225 0.273013 -0.002054
v 0.174019 0.184324 -0.003250
v -0.164712 0.173068 0.153099
v -0.174019 0.184324 -0.003250
v -0.173111 0.005055 0.001960
v -0.063429 0.000000 0.000000
v -0.057455 0.004339 0.152469
v -0.170357 0.005834 0.146502
v -0.170368 0.006019 -0.140019
v -0.057437 0.004475 -0.145993
v -0.156385 0.012532 -0.289092
v -0.047293 0.010152 -0.316273
v 0.052079 0.279028 -0.002412
v 0.054416 0.258097 0.148204
v 0.054431 0.258115 -0.141903
v 0.043515 0.241135 0.299294
v -0.047278 0.010024 0.324015
v -0.156330 0.012363 0.296027
v 0.048849 0.157820 0.340608
v -0.048864 0.157926 -0.332315
v -0.049710 0.092597 -0.330262
v 0.049710 0.092597 -0.330262
v -0.155405 0.093573 -0.296792
v 0.050188 0.103903 0.338472
v -0.050188 0.103903 0.338472
v 0.155552 0.103739 0.303783
v -0.184242 0.113395 -0.001877
v -0.174208 0.110244 -0.142969
v -0.174519 0.114646 0.149462
v -0.153771 0.103739 0.303783
v 0.184242 0.113395 -0.001877
v 0.174519 0.124006 0.149462
v 0.174208 0.111778 -0.142969
v 0.155406 0.093573 -0.296792
v -0.053938 0.289210 0.124243
v 0.053921 0.289353 0.123214
v -0.052537 0.277369 0.168345
v 0.052451 0.277027 0.169525
v -0.052377 0.303186 0.021691
v -0.052407 0.302938 -0.025762
v 0.052376 0.303191 0.021663
v 0.052440 0.302645 -0.027720
v -0.054016 0.288627 -0.117293
v -0.052793 0.278362 -0.164453
v 0.052910 0.278835 -0.162835
v 0.054000 0.288773 -0.116326
vt 0.3943 0.5186
vt 0.3956 0.4471
vt 0.3782 0.4804
vt 0.3743 0.5387
vt 0.3701 0.5317
vt 0.3753 0.4601
vt 0.3782 0.4804
vt 0.3743 0.5387
vt 0.4334 0.5187
vt 0.4320 0.4472
vt 0.4495 0.4805
vt 0.4535 0.5388
vt 0.4579 0.5318
vt 0.4525 0.4601
vt 0.4495 0.4805
vt 0.4535 0.5388
vt 0.4333 0.6639
vt 0.4325 0.6626
vt 0.4520 0.6570
vt 0.4557 0.6590
vt 0.4210 0.3497
vt 0.4203 0.3745
vt 0.4244 0.3562
vt 0.3753 0.4601
vt 0.3920 0.4281
vt 0.4022 0.3500
vt 0.4030 0.3747
vt 0.4054 0.3468
vt 0.4121 0.3458
vt 0.4122 0.3741
vt 0.4146 0.3481
vt 0.3721 0.6589
vt 0.3757 0.6568
vt 0.3951 0.6625
vt 0.3944 0.6638
vt 0.4137 0.6633
vt 0.4134 0.6676
vt 0.3956 0.4471
vt 0.3943 0.5186
vt 0.4132 0.4327
vt 0.4130 0.5090
vt 0.4320 0.4472
vt 0.4334 0.5187
vt 0.4132 0.4327
vt 0.4130 0.5090
vt 0.4137 0.6633
vt 0.4134 0.6676
vt 0.4333 0.6639
vt 0.4325 0.6626
vt 0.3951 0.6625
vt 0.3944 0.6638
vt 0.3757 0.6568
vt 0.3721 0.6589
vt 0.4122 0.3741
vt 0.4121 0.3458
vt 0.4146 0.3481
vt 0.3982 0.4191
vt 0.4103 0.4072
vt 0.4022 0.3500
vt 0.4056 0.3467
vt 0.3922 0.4277
vt 0.4203 0.3745
vt 0.4210 0.3497
vt 0.4246 0.3565
vt 0.4557 0.6590
vt 0.4520 0.6570
vt 0.4525 0.4601
vt 0.4579 0.5318
vt 0.3701 0.5317
vt 0.3703 0.5880
vt 0.3703 0.5880
vt 0.3747 0.5871
vt 0.4576 0.5782
vt 0.4576 0.5782
vt 0.4531 0.5784
vt 0.4132 0.5701
vt 0.3948 0.5728
vt 0.4329 0.5690
vt 0.4531 0.5784
vt 0.4132 0.5701
vt 0.4329 0.5609
vt 0.3948 0.5714
vt 0.3747 0.5871
vt 0.4169 0.3459
vt 0.4363 0.4292
vt 0.4362 0.4290
vt 0.4170 0.3460
vt 0.4093 0.3486
vt 0.4096 0.3484
vt 0.4156 0.4067
vt 0.4286 0.4186
vt 0.4156 0.4067
vt 0.4287 0.4188
vt 0.3981 0.4193
vt 0.4106 0.4069
vt 0.4030 0.3747
vt 0.3995 0.3553
vt 0.3993 0.3557
vn -0.9618 0.2421 -0.1276
vn -0.6812 0.7071 -0.1894
vn -0.6255 0.6102 -0.4861
vn -0.7125 0.2416 -0.6587
vn 0.1701 0.2208 -0.9604
vn 0.1696 0.7522 -0.6367
vn 0.6255 0.6103 -0.4861
vn 0.7122 0.2422 -0.6589
vn 0.9580 0.2583 0.1246
vn 0.6812 0.7078 0.1871
vn 0.6252 0.6152 0.4803
vn 0.7060 0.2543 0.6610
vn -0.1744 0.2212 0.9595
vn -0.1692 0.7585 0.6293
vn -0.6252 0.6152 0.4803
vn -0.7128 0.2435 0.6578
vn 0.0133 -0.9995 0.0302
vn 0.7019 -0.7088 0.0705
vn 0.6188 -0.6077 0.4978
vn 0.1009 -0.7189 0.6877
vn -0.0097 0.9980 0.0619
vn -0.6820 0.7071 0.1869
vn -0.1067 0.9767 -0.1863
vn -0.1696 0.7522 -0.6367
vn -0.1151 0.9787 0.1700
vn -0.0140 0.9983 -0.0568
vn -0.1213 0.8796 -0.4600
vn -0.0304 0.9995 0.0004
vn -0.6877 0.7259 -0.0045
vn -0.1209 0.9521 -0.2808
vn 0.0977 -0.7242 -0.6827
vn 0.6172 -0.6101 -0.4967
vn 0.7015 -0.7092 -0.0711
vn 0.0135 -0.9994 -0.0312
vn 0.6960 -0.7181 0.0002
vn 0.0154 -0.9999 -0.0011
vn 0.6815 0.7070 -0.1891
vn 0.9616 0.2430 -0.1277
vn 0.6871 0.7265 -0.0047
vn 0.9711 0.2388 -0.0050
vn -0.9609 0.2472 0.1248
vn -0.9718 0.2357 -0.0041
vn -0.6953 -0.7187 -0.0004
vn -0.0154 -0.9999 -0.0011
vn -0.0133 -0.9995 0.0302
vn -0.7025 -0.7081 0.0720
vn -0.7013 -0.7093 -0.0709
vn -0.0135 -0.9994 -0.0312
vn -0.6172 -0.6102 -0.4967
vn -0.0977 -0.7242 -0.6827
vn 0.0360 0.9993 -0.0118
vn 0.1208 0.9521 -0.2811
vn 0.1231 0.8822 -0.4545
vn 0.1207 0.9585 0.2583
vn 0.0102 0.9992 -0.0397
vn 0.1102 0.9764 0.1856
vn 0.0161 0.9976 0.0673
vn 0.1103 0.9784 -0.1747
vn -0.1017 -0.7185 0.6881
vn -0.6212 -0.6050 0.4980
vn 0.1693 0.7585 0.6293
vn 0.1737 0.2225 0.9593
vn -0.1701 0.2208 -0.9604
vn -0.1496 -0.0831 -0.9852
vn 0.1496 -0.0831 -0.9852
vn -0.7738 0.0034 -0.6334
vn 0.1552 -0.0785 0.9848
vn -0.1563 -0.0793 0.9845
vn 0.7802 0.0203 0.6252
vn -0.9992 0.0387 -0.0027
vn -0.9939 0.0574 -0.0947
vn -0.9934 0.0648 0.0942
vn -0.7770 0.0134 0.6293
vn 0.9992 0.0402 -0.0034
vn 0.9924 0.0797 0.0934
vn 0.9937 0.0591 -0.0949
vn 0.7737 0.0037 -0.6335
vn 0.1252 0.8815 0.4553
vn -0.1233 0.8786 0.4613
vn -0.1159 0.9547 0.2739
usemtl Material.001
s 1
f 1/1/1 2/2/2 3/3/3 4/4/4
f 5/5/5 6/6/6 7/7/7 8/8/8
f 9/9/9 10/10/10 11/11/11 12/12/12
f 13/13/13 14/14/14 15/15/15 16/16/16
f 17/17/17 18/18/18 19/19/19 20/20/20
f 21/21/21 22/22/22 71/23/23
f 23/24/24 3/3/3 2/2/2 78/25/25
f 24/26/26 2/27/2 77/28/27
f 26/29/28 25/30/29 73/31/30
f 27/32/31 28/33/32 29/34/33 30/35/34
f 30/35/34 29/34/33 31/36/35 32/37/36
f 32/37/36 31/36/35 18/18/18 17/17/17
f 8/8/8 7/7/7 33/38/37 34/39/38
f 34/39/38 33/38/37 35/40/39 36/41/40
f 36/41/40 35/40/39 10/10/10 9/9/9
f 16/16/16 15/15/15 22/42/22 37/43/41
f 37/43/41 22/42/22 25/44/29 38/45/42
f 38/45/42 25/44/29 2/2/2 1/1/1
f 39/46/43 40/47/44 41/48/45 42/49/46
f 40/47/44 32/37/36 17/17/17 41/48/45
f 43/50/47 44/51/48 40/47/44 39/46/43
f 44/51/48 30/35/34 32/37/36 40/47/44
f 45/52/49 46/53/50 44/51/48 43/50/47
f 46/53/50 27/32/31 30/35/34 44/51/48
f 35/54/39 47/55/51 75/56/52
f 47/55/51 26/29/28 73/31/30 75/56/52
f 33/38/37 80/57/53 76/58/54 35/40/39
f 49/59/55 24/26/26 77/28/27 80/60/53
f 7/7/7 6/6/6 79/61/56 33/38/37
f 6/6/6 23/24/24 78/25/25 79/61/56
f 10/62/10 48/63/57 72/64/58
f 48/63/57 21/21/21 71/23/23 72/64/58
f 42/49/46 41/48/45 51/65/59 52/66/60
f 41/48/45 17/17/17 20/20/20 51/65/59
f 12/12/12 11/11/11 50/67/61 53/68/62
f 53/68/62 50/67/61 14/14/14 13/13/13
f 4/4/4 3/3/3 23/24/24 54/69/63
f 54/69/63 23/24/24 6/6/6 5/5/5
f 46/53/50 55/70/64 56/71/65 27/32/31
f 55/70/64 54/69/63 5/5/5 56/71/65
f 45/52/49 57/72/66 55/70/64 46/53/50
f 57/72/66 4/4/4 54/69/63 55/70/64
f 20/20/20 58/73/67 59/74/68 51/65/59
f 58/73/67 53/68/62 13/13/13 59/74/68
f 19/19/19 60/75/69 58/73/67 20/20/20
f 60/75/69 12/12/12 53/68/62 58/73/67
f 39/46/43 61/76/70 62/77/71 43/50/47
f 61/76/70 38/45/42 1/1/1 62/77/71
f 42/49/46 63/78/72 61/76/70 39/46/43
f 63/78/72 37/43/41 38/45/42 61/76/70
f 52/66/60 64/79/73 63/78/72 42/49/46
f 64/79/73 16/16/16 37/43/41 63/78/72
f 31/36/35 65/80/74 66/81/75 18/18/18
f 65/80/74 36/41/40 9/9/9 66/81/75
f 29/34/33 67/82/76 65/80/74 31/36/35
f 67/82/76 34/39/38 36/41/40 65/80/74
f 28/33/32 68/83/77 67/82/76 29/34/33
f 68/83/77 8/8/8 34/39/38 67/82/76
f 51/65/59 59/74/68 64/79/73 52/66/60
f 59/74/68 13/13/13 16/16/16 64/79/73
f 18/18/18 66/81/75 60/75/69 19/19/19
f 66/81/75 9/9/9 12/12/12 60/75/69
f 27/32/31 56/71/65 68/83/77 28/33/32
f 56/71/65 5/5/5 8/8/8 68/83/77
f 43/50/47 62/77/71 57/72/66 45/52/49
f 62/77/71 1/1/1 4/4/4 57/72/66
f 10/62/10 70/84/78 48/63/57
f 72/85/58 71/86/23 14/14/14 50/67/61
f 69/87/79 22/22/22 21/21/21
f 71/86/23 22/42/22 15/15/15 14/14/14
f 70/84/78 69/87/79 21/21/21 48/63/57
f 72/85/58 50/67/61 11/11/11 10/10/10
f 76/88/54 74/89/80 26/29/28 47/55/51
f 74/89/80 25/30/29 26/29/28
f 75/90/52 70/91/78 10/10/10 35/40/39
f 75/90/52 73/92/30 69/93/79 70/91/78
f 73/92/30 25/44/29 22/42/22 69/93/79
f 35/54/39 76/88/54 47/55/51
f 80/57/53 77/94/27 74/95/80 76/58/54
f 77/94/27 2/2/2 25/44/29 74/95/80
f 33/96/37 79/97/56 49/59/55
f 79/97/56 78/98/25 24/26/26 49/59/55
f 80/60/53 33/96/37 49/59/55
f 78/98/25 2/27/2 24/26/26
