# Blender v2.78 (sub 0) OBJ File: 'Key Objects_UVbearbeiten.blend'
# www.blender.org
mtllib mod_Taschenlampe.mtl
g Taschenlampe.001
v -0.053231 0.116492 -0.009553
v -0.061610 0.125463 -0.016602
v -0.061900 0.130332 -0.062927
v -0.053620 0.123032 -0.071790
v -0.041862 0.150623 -0.060920
v -0.033582 0.143323 -0.069783
v -0.041572 0.145754 -0.014595
v -0.033193 0.136783 -0.007546
v 0.056599 0.047255 0.167808
v 0.056191 0.093761 0.172266
v 0.062893 0.096593 0.172538
v 0.063349 0.044540 0.167548
v 0.022868 0.126359 0.175391
v 0.025595 0.133078 0.176036
v -0.023852 0.125953 0.175352
v -0.026697 0.132624 0.175992
v -0.056599 0.092781 0.172173
v -0.063349 0.095496 0.172433
v 0.043488 0.007425 -0.250691
v 0.103194 0.067905 -0.244893
v 0.104255 0.061476 -0.182317
v 0.043935 0.000374 -0.188174
v 0.059852 0.074464 -0.129807
v 0.025222 0.039386 -0.133170
v 0.103504 0.147139 -0.174105
v 0.059420 0.123643 -0.125093
v 0.102451 0.152697 -0.236765
v 0.042122 0.207184 -0.168349
v 0.024182 0.158114 -0.121788
v 0.041693 0.212131 -0.231067
v -0.043935 0.206436 -0.168421
v -0.025222 0.157685 -0.121830
v -0.043488 0.211391 -0.231138
v 0.000000 0.111588 -0.263658
v -0.104255 0.145335 -0.174278
v -0.059852 0.122607 -0.125192
v -0.103194 0.150911 -0.236936
v -0.103504 0.059671 -0.182490
v -0.059420 0.073428 -0.129907
v -0.102451 0.066118 -0.245064
v -0.041693 0.006685 -0.250762
v -0.042122 -0.000374 -0.188246
v -0.024182 0.038957 -0.133211
v 0.023852 0.014083 0.164628
v -0.022868 0.013677 0.164590
v -0.056191 0.046275 0.167714
v 0.062412 0.088907 0.250579
v 0.062865 0.037252 0.245627
v 0.025399 0.125113 0.254050
v -0.026493 0.124662 0.254007
v -0.062865 0.087818 0.250475
v -0.062893 0.043443 0.167443
v -0.062412 0.036163 0.245523
v -0.025595 0.006957 0.163945
v -0.025399 -0.000043 0.242052
v 0.026697 0.007412 0.163989
v 0.026492 0.000407 0.242096
vt 0.8279 0.3454
vt 0.8273 0.3463
vt 0.8237 0.3463
vt 0.8231 0.3454
vt 0.8226 0.3463
vt 0.8237 0.3486
vt 0.8226 0.3486
vt 0.8231 0.3495
vt 0.8273 0.3486
vt 0.8279 0.3495
vt 0.8284 0.3486
vt 0.8284 0.3463
vt 0.9626 0.9800
vt 0.9622 0.9800
vt 0.9695 0.9800
vt 0.9700 0.9800
vt 0.9257 0.9800
vt 0.9287 0.9800
vt 0.8747 0.9800
vt 0.8716 0.9800
vt 0.8389 0.9800
vt 0.8315 0.9800
vt 0.7597 0.9961
vt 0.7959 0.9828
vt 0.7966 0.8392
vt 0.7600 0.8527
vt 0.7699 0.7249
vt 0.7489 0.7249
vt 0.7966 0.8392
vt 0.7699 0.7249
vt 0.7959 0.9828
vt 0.7600 0.8527
vt 0.7489 0.7249
vt 0.7597 0.9961
vt 0.7078 0.8528
vt 0.7189 0.7249
vt 0.7080 0.9962
vt 0.8298 0.9953
vt 0.8299 0.9922
vt 0.8261 0.9938
vt 0.6705 0.8396
vt 0.6976 0.7249
vt 0.8276 0.9974
vt 0.6711 0.9832
vt 0.8246 0.9974
vt 0.6705 0.8396
vt 0.6976 0.7249
vt 0.8224 0.9952
vt 0.6711 0.9832
vt 0.8224 0.9921
vt 0.8246 0.9900
vt 0.7080 0.9962
vt 0.7078 0.8528
vt 0.8277 0.9900
vt 0.7189 0.7249
vt 0.6859 0.7249
vt 0.6886 0.9654
vt 0.7150 0.9654
vt 0.7139 0.7249
vt 0.7528 0.9654
vt 0.7538 0.7249
vt 0.7797 0.9654
vt 0.7823 0.7249
vt 0.7797 0.9654
vt 0.7823 0.7249
vt 0.7538 0.7249
vt 0.7528 0.9654
vt 0.7139 0.7249
vt 0.7150 0.9654
vt 0.6859 0.7249
vt 0.6886 0.9654
vt 0.9675 0.8201
vt 0.9670 0.8201
vt 0.9665 0.6416
vt 0.9670 0.6416
vt 0.9263 0.8201
vt 0.9261 0.6416
vt 0.8691 0.8201
vt 0.8694 0.6416
vt 0.8291 0.8201
vt 0.8296 0.6416
vt 0.8296 0.8201
vt 0.8301 0.6416
vt 0.8703 0.8201
vt 0.8706 0.6416
vt 0.9275 0.8201
vt 0.9272 0.6416
vt 0.9268 0.9800
vt 0.9299 0.9800
vt 0.8758 0.9800
vt 0.8728 0.9800
vt 0.8394 0.9800
vt 0.8320 0.9800
vt 0.9694 0.9566
vt 0.9689 0.9566
vt 0.9285 0.9566
vt 0.8718 0.9566
vt 0.8321 0.9566
vt 0.8326 0.9566
vt 0.8730 0.9566
vt 0.9297 0.9566
vn -0.7009 -0.7098 -0.0702
vn -0.4082 0.4799 -0.7766
vn 0.7009 0.7098 0.0702
vn -0.3979 0.3075 0.8643
vn -0.7132 0.6966 0.0777
vn 0.0000 0.0954 -0.9954
vn 0.0001 0.0955 -0.9954
vn 0.0000 0.0955 -0.9954
vn 0.3907 -0.9144 -0.1059
vn 0.9270 -0.3711 -0.0538
vn 0.8746 -0.3834 0.2967
vn 0.3686 -0.8960 0.2476
vn 0.6761 -0.3372 0.6551
vn 0.2849 -0.7335 0.6171
vn 0.8683 0.3352 0.3656
vn 0.6712 0.2183 0.7084
vn 0.9204 0.3906 0.0192
vn 0.3534 0.8389 0.4139
vn 0.2732 0.6077 0.7457
vn 0.3745 0.9245 0.0704
vn -0.3686 0.8327 0.4133
vn -0.2849 0.6029 0.7452
vn -0.3907 0.9179 0.0697
vn 0.1851 0.1717 -0.9676
vn 0.1864 0.0185 -0.9823
vn -0.8746 0.3201 0.3642
vn -0.6761 0.2066 0.7073
vn 0.0753 0.2791 -0.9573
vn -0.9270 0.3746 0.0176
vn -0.0786 0.2777 -0.9574
vn -0.8683 -0.3986 0.2953
vn -0.6712 -0.3489 0.6540
vn -0.1864 0.1685 -0.9679
vn -0.9204 -0.3872 -0.0554
vn -0.1851 0.0153 -0.9826
vn -0.0753 -0.0921 -0.9929
vn -0.3745 -0.9211 -0.1066
vn -0.3534 -0.9023 0.2470
vn 0.0786 -0.0908 -0.9928
vn -0.2732 -0.7383 0.6167
vn 0.9271 -0.3740 -0.0241
vn 0.3907 -0.9174 -0.0761
vn -0.3746 -0.9240 -0.0768
vn -0.9204 -0.3900 -0.0256
vn -0.9271 0.3717 0.0474
vn -0.3907 0.9151 0.0995
vn 0.3746 0.9218 0.1002
vn 0.9204 0.3878 0.0490
vn 0.9272 -0.3735 -0.0291
vn 0.9205 0.3883 0.0439
vn 0.3746 0.9223 0.0951
vn -0.3907 0.9156 0.0945
vn -0.9272 0.3723 0.0424
vn -0.9272 0.3722 0.0424
vn -0.9205 -0.3896 -0.0307
vn -0.3746 -0.9236 -0.0818
vn 0.3907 -0.9169 -0.0812
vn 0.0000 -0.0954 0.9954
usemtl Material.001
s off
f 1/1/1 2/2/1 3/3/1 4/4/1
f 4/5/2 3/3/2 5/6/2 6/7/2
f 6/8/3 5/6/3 7/9/3 8/10/3
f 8/11/4 7/9/4 2/2/4 1/12/4
f 5/6/5 3/3/5 2/2/5 7/9/5
s 1
f 9/13/6 10/14/7 11/15/7 12/16/6
f 10/14/7 13/17/8 14/18/8 11/15/7
f 13/17/8 15/19/8 16/20/8 14/18/8
f 15/19/8 17/21/6 18/22/6 16/20/8
f 19/23/9 20/24/10 21/25/11 22/26/12
f 22/26/12 21/25/11 23/27/13 24/28/14
f 21/25/11 25/29/15 26/30/16 23/27/13
f 20/24/10 27/31/17 25/29/15 21/25/11
f 25/29/15 28/32/18 29/33/19 26/30/16
f 27/31/17 30/34/20 28/32/18 25/29/15
f 28/32/18 31/35/21 32/36/22 29/33/19
f 30/34/20 33/37/23 31/35/21 28/32/18
f 27/38/24 20/39/25 34/40/6
f 31/35/21 35/41/26 36/42/27 32/36/22
f 30/43/28 27/38/24 34/40/6
f 33/37/23 37/44/29 35/41/26 31/35/21
f 33/45/30 30/43/28 34/40/6
f 35/41/26 38/46/31 39/47/32 36/42/27
f 37/48/33 33/45/30 34/40/6
f 37/44/29 40/49/34 38/46/31 35/41/26
f 40/50/35 37/48/33 34/40/6
f 41/51/36 40/50/35 34/40/6
f 40/49/34 41/52/37 42/53/38 38/46/31
f 19/54/39 41/51/36 34/40/6
f 38/46/31 42/53/38 43/55/40 39/47/32
f 41/52/37 19/23/9 22/26/12 42/53/38
f 20/39/25 19/54/39 34/40/6
f 42/53/38 22/26/12 24/28/14 43/55/40
f 23/56/41 9/57/41 44/58/42 24/59/42
f 24/59/42 44/58/42 45/60/43 43/61/43
f 43/61/43 45/60/43 46/62/44 39/63/44
f 39/63/44 46/62/44 17/64/45 36/65/45
f 32/66/46 36/65/45 17/64/45 15/67/46
f 29/68/47 32/66/46 15/67/46 13/69/47
f 26/70/48 29/68/47 13/69/47 10/71/48
f 23/56/41 26/70/48 10/71/48 9/57/41
f 12/72/49 11/73/50 47/74/50 48/75/49
f 11/73/50 14/76/51 49/77/51 47/74/50
f 14/76/51 16/78/52 50/79/52 49/77/51
f 16/78/52 18/80/53 51/81/54 50/79/52
f 52/82/55 53/83/55 51/81/54 18/80/53
f 54/84/56 55/85/56 53/83/55 52/82/55
f 56/86/57 57/87/57 55/85/56 54/84/56
f 12/72/49 48/75/49 57/87/57 56/86/57
f 44/88/6 9/13/6 12/16/6 56/89/6
f 45/90/6 44/88/6 56/89/6 54/91/6
f 46/92/6 45/90/6 54/91/6 52/93/6
f 48/94/58 47/95/58 49/96/58 50/97/58 51/98/58 53/99/58 55/100/58 57/101/58
f 17/21/6 46/92/6 52/93/6 18/22/6
