# Blender v2.78 (sub 0) OBJ File: 'Key Objects_UVbearbeiten.blend'
# www.blender.org
mtllib mod_Schluessel.mtl
g Schluessel.001
v 0.034932 -0.000000 0.041460
v 0.050876 0.010150 0.033235
v 0.030306 0.010150 0.006989
v 0.020809 -0.000000 0.023440
v 0.058995 -0.000000 0.029047
v 0.054558 -0.010150 0.031336
v 0.032500 -0.010150 0.003190
v 0.035143 0.000000 -0.001388
v -0.030306 0.010150 0.006989
v -0.020809 -0.000000 0.023440
v -0.032500 -0.010150 0.003190
v -0.035143 0.000000 -0.001388
v -0.034932 -0.000000 0.041460
v -0.050876 0.010150 0.033235
v -0.060288 0.010150 0.059481
v -0.037898 -0.000000 0.059481
v -0.058995 -0.000000 0.029047
v -0.054558 -0.010150 0.031335
v -0.065459 -0.010150 0.059481
v -0.071690 -0.000000 0.059481
v -0.034932 -0.000000 0.077502
v -0.050876 0.010150 0.085727
v -0.030306 0.010150 0.111974
v -0.020809 -0.000000 0.095523
v -0.058995 -0.000000 0.089916
v -0.054558 -0.010150 0.087627
v -0.032500 -0.010150 0.115773
v -0.035143 -0.000000 0.120351
v 0.030306 0.010150 0.111974
v 0.020809 -0.000000 0.095523
v 0.032500 -0.010150 0.115773
v 0.035143 -0.000000 0.120351
v 0.034932 -0.000000 0.077502
v 0.050876 0.010150 0.085727
v 0.058509 0.010150 0.059481
v 0.036119 -0.000000 0.059481
v 0.058995 -0.000000 0.089916
v 0.054558 -0.010150 0.087627
v 0.063680 -0.010150 0.059481
v 0.069911 -0.000000 0.059481
v -0.019153 -0.004000 -0.172303
v -0.019153 0.004000 -0.172303
v -0.019153 0.004000 -0.200000
v -0.019153 -0.004000 -0.200000
v 0.019153 -0.004000 -0.131242
v 0.019153 0.004000 -0.131242
v 0.019153 0.004000 0.000000
v 0.019153 -0.004000 -0.000000
v -0.019153 -0.004000 -0.131242
v -0.019153 -0.004000 -0.000000
v -0.019153 0.004000 -0.131242
v -0.019153 0.004000 0.000000
v 0.019153 0.004000 -0.200000
v 0.019153 0.004000 -0.172303
v 0.019153 0.004000 -0.141508
v -0.019153 0.004000 -0.141508
v 0.019153 -0.004000 -0.200000
v 0.019153 -0.004000 -0.172303
v -0.019153 -0.004000 -0.141508
v 0.019153 -0.004000 -0.141508
v -0.046902 0.004000 -0.162038
v -0.040358 0.004000 -0.172303
v -0.061563 0.004000 -0.172303
v -0.061563 0.004000 -0.162038
v -0.061563 -0.004000 -0.162038
v -0.061563 -0.004000 -0.172303
v -0.040358 -0.004000 -0.141508
v -0.040358 -0.004000 -0.131242
v -0.040358 0.004000 -0.131242
v -0.040358 0.004000 -0.141508
v -0.040358 -0.004000 -0.172303
v -0.046902 -0.004000 -0.162038
v -0.046902 -0.004000 -0.151773
v -0.061563 -0.004000 -0.151773
v -0.061563 0.004000 -0.151773
v -0.046902 0.004000 -0.151773
v -0.061563 -0.004000 -0.141508
v -0.061563 0.004000 -0.141508
v 0.019153 0.004000 -0.162038
v 0.019153 -0.004000 -0.162038
v 0.019153 0.004000 -0.151773
v 0.019153 -0.004000 -0.151773
v -0.019153 -0.004000 -0.162038
v -0.019153 -0.004000 -0.151773
v -0.019153 0.004000 -0.162038
v -0.019153 0.004000 -0.151773
v 0.000000 0.000000 -0.205291
vt 0.4351 0.1631
vt 0.4451 0.1762
vt 0.4322 0.2179
vt 0.4263 0.1917
vt 0.4501 0.1828
vt 0.4474 0.1792
vt 0.4336 0.2239
vt 0.4352 0.2312
vt 0.3943 0.2179
vt 0.4003 0.1917
vt 0.3930 0.2239
vt 0.3913 0.2312
vt 0.3914 0.1631
vt 0.3815 0.1762
vt 0.3756 0.1345
vt 0.3896 0.1345
vt 0.3764 0.1828
vt 0.3792 0.1792
vt 0.3724 0.1345
vt 0.3685 0.1345
vt 0.3914 0.1058
vt 0.3815 0.0928
vt 0.3943 0.0511
vt 0.4003 0.0772
vt 0.3764 0.0861
vt 0.3792 0.0897
vt 0.3930 0.0450
vt 0.3913 0.0377
vt 0.4322 0.0511
vt 0.4263 0.0772
vt 0.4336 0.0450
vt 0.4352 0.0377
vt 0.4351 0.1058
vt 0.4451 0.0928
vt 0.4498 0.1345
vt 0.4358 0.1345
vt 0.4501 0.0861
vt 0.4474 0.0897
vt 0.4531 0.1345
vt 0.4570 0.1345
vt 0.3558 0.0671
vt 0.3558 0.0671
vt 0.3558 0.0270
vt 0.3558 0.0270
vt 0.3350 0.1266
vt 0.3350 0.1266
vt 0.3350 0.3167
vt 0.3350 0.3167
vt 0.3558 0.1266
vt 0.3558 0.3167
vt 0.3558 0.1266
vt 0.3558 0.3167
vt 0.3350 0.0270
vt 0.3350 0.0671
vt 0.3350 0.1117
vt 0.3558 0.1117
vt 0.3350 0.0270
vt 0.3350 0.0671
vt 0.3558 0.1117
vt 0.3350 0.1117
vt 0.3709 0.0820
vt 0.3673 0.0671
vt 0.3789 0.0671
vt 0.3789 0.0820
vt 0.3789 0.0820
vt 0.3789 0.0671
vt 0.3673 0.1117
vt 0.3673 0.1266
vt 0.3673 0.1266
vt 0.3673 0.1117
vt 0.3673 0.0671
vt 0.3709 0.0820
vt 0.3709 0.0969
vt 0.3789 0.0969
vt 0.3789 0.0969
vt 0.3709 0.0969
vt 0.3789 0.1117
vt 0.3789 0.1117
vt 0.3350 0.0820
vt 0.3350 0.0820
vt 0.3350 0.0969
vt 0.3350 0.0969
vt 0.3558 0.0820
vt 0.3558 0.0969
vt 0.3558 0.0820
vt 0.3558 0.0969
vt 0.3454 0.0193
vn -0.4262 0.8835 0.1944
vn 0.1974 0.9726 -0.1227
vn 0.1266 0.9485 -0.2904
vn -0.1953 0.8810 0.4308
vn 0.8721 0.1325 -0.4710
vn 0.7803 -0.4581 -0.4257
vn 0.3795 -0.4607 -0.8023
vn 0.4424 0.1219 -0.8885
vn -0.3577 -0.9177 0.1730
vn -0.3587 -0.9180 0.1689
vn -0.1645 -0.9166 0.3645
vn -0.1792 -0.9171 0.3562
vn -0.1266 0.9485 -0.2904
vn 0.1953 0.8810 0.4308
vn -0.3795 -0.4607 -0.8023
vn -0.4424 0.1219 -0.8885
vn 0.1645 -0.9166 0.3645
vn 0.1792 -0.9171 0.3562
vn 0.4208 0.8815 0.2142
vn -0.1854 0.9750 -0.1227
vn -0.2672 0.9636 -0.0000
vn 0.4469 0.8946 0.0000
vn -0.8597 0.1333 -0.4931
vn -0.7698 -0.4550 -0.4476
vn -0.8684 -0.4958 -0.0000
vn -0.9920 0.1259 -0.0000
vn 0.3545 -0.9165 0.1853
vn 0.3546 -0.9165 0.1848
vn 0.3747 -0.9271 -0.0000
vn 0.4209 0.8815 -0.2142
vn -0.1853 0.9750 0.1227
vn -0.1266 0.9485 0.2904
vn 0.1953 0.8810 -0.4308
vn -0.8597 0.1333 0.4931
vn -0.7698 -0.4550 0.4476
vn -0.3795 -0.4607 0.8023
vn -0.4424 0.1219 0.8885
vn 0.3545 -0.9165 -0.1853
vn 0.3546 -0.9165 -0.1848
vn 0.1645 -0.9166 -0.3645
vn 0.1792 -0.9171 -0.3562
vn 0.1266 0.9485 0.2904
vn -0.1953 0.8810 -0.4308
vn 0.3795 -0.4607 0.8023
vn 0.4424 0.1219 0.8885
vn -0.1645 -0.9166 -0.3645
vn -0.1792 -0.9171 -0.3562
vn -0.4262 0.8835 -0.1944
vn 0.1974 0.9726 0.1227
vn 0.2481 0.9687 -0.0000
vn -0.4528 0.8916 0.0000
vn 0.8721 0.1325 0.4710
vn 0.7803 -0.4581 0.4257
vn 0.8710 -0.4913 -0.0000
vn 0.9919 0.1273 -0.0000
vn -0.3577 -0.9177 -0.1730
vn -0.3587 -0.9180 -0.1689
vn -0.3798 -0.9251 0.0000
vn -1.0000 0.0000 0.0000
vn -0.6300 0.5977 -0.4958
vn -0.6300 -0.5977 -0.4958
vn 1.0000 0.0000 0.0000
vn 0.0000 -1.0000 -0.0000
vn 0.0000 1.0000 0.0000
vn 0.6300 0.5977 -0.4958
vn 0.6300 -0.5977 -0.4958
vn 0.0000 0.0000 -1.0000
vn 0.0000 0.0000 1.0000
usemtl None
s 1
f 1/1/1 2/2/2 3/3/3 4/4/4
f 5/5/5 6/6/6 7/7/7 8/8/8
f 6/6/9 1/1/10 4/4/11 7/7/12
f 4/4/4 3/3/3 9/9/13 10/10/14
f 8/8/8 7/7/7 11/11/15 12/12/16
f 7/7/12 4/4/11 10/10/17 11/11/18
f 13/13/19 14/14/20 15/15/21 16/16/22
f 17/17/23 18/18/24 19/19/25 20/20/26
f 18/18/27 13/13/28 16/16/29 19/19/29
f 21/21/30 22/22/31 23/23/32 24/24/33
f 25/25/34 26/26/35 27/27/36 28/28/37
f 26/26/38 21/21/39 24/24/40 27/27/41
f 24/24/33 23/23/32 29/29/42 30/30/43
f 28/28/37 27/27/36 31/31/44 32/32/45
f 27/27/41 24/24/40 30/30/46 31/31/47
f 33/33/48 34/34/49 35/35/50 36/36/51
f 37/37/52 38/38/53 39/39/54 40/40/55
f 38/38/56 33/33/57 36/36/58 39/39/58
f 34/34/49 37/37/52 40/40/55 35/35/50
f 23/23/32 28/28/37 32/32/45 29/29/42
f 22/22/31 25/25/34 28/28/37 23/23/32
f 14/14/20 17/17/23 20/20/26 15/15/21
f 3/3/3 8/8/8 12/12/16 9/9/13
f 2/2/2 5/5/5 8/8/8 3/3/3
f 35/35/50 40/40/55 5/5/5 2/2/2
f 39/39/58 36/36/58 1/1/10 6/6/9
f 40/40/55 39/39/54 6/6/6 5/5/5
f 36/36/51 35/35/50 2/2/2 1/1/1
f 29/29/42 32/32/45 37/37/52 34/34/49
f 31/31/47 30/30/46 33/33/57 38/38/56
f 32/32/45 31/31/44 38/38/53 37/37/52
f 30/30/43 29/29/42 34/34/49 33/33/48
f 15/15/21 20/20/26 25/25/34 22/22/31
f 19/19/29 16/16/29 21/21/39 26/26/38
f 20/20/26 19/19/25 26/26/35 25/25/34
f 16/16/22 15/15/21 22/22/31 21/21/30
f 9/9/13 12/12/16 17/17/23 14/14/20
f 11/11/18 10/10/17 13/13/28 18/18/27
f 12/12/16 11/11/15 18/18/24 17/17/23
f 10/10/14 9/9/13 14/14/20 13/13/19
f 41/41/59 42/42/59 43/43/60 44/44/61
f 45/45/62 46/46/62 47/47/62 48/48/62
f 49/49/63 45/45/63 48/48/63 50/50/63
f 46/46/64 51/51/64 52/52/64 47/47/64
f 53/53/65 43/43/60 42/42/64 54/54/64
f 55/55/64 56/56/64 51/51/64 46/46/64
f 44/44/61 57/57/66 58/58/63 41/41/63
f 59/59/63 60/60/63 45/45/63 49/49/63
f 57/57/66 53/53/65 54/54/62 58/58/62
f 60/60/62 55/55/62 46/46/62 45/45/62
f 50/50/59 52/52/59 51/51/59 49/49/59
f 61/61/64 62/62/64 63/63/64 64/64/64
f 65/65/59 64/64/59 63/63/59 66/66/59
f 67/67/59 68/68/59 69/69/59 70/70/59
f 62/62/67 71/71/67 66/66/67 63/63/67
f 71/71/63 72/72/63 65/65/63 66/66/63
f 73/73/67 74/74/67 75/75/67 76/76/67
f 73/73/63 67/67/63 77/77/63 74/74/63
f 77/77/59 78/78/59 75/75/59 74/74/59
f 72/72/68 61/61/68 64/64/68 65/65/68
f 77/77/68 67/67/68 70/70/68 78/78/68
f 70/70/64 76/76/64 75/75/64 78/78/64
f 73/73/59 76/76/59 61/61/59 72/72/59
f 58/58/62 54/54/62 79/79/62 80/80/62
f 80/80/62 79/79/62 81/81/62 82/82/62
f 82/82/62 81/81/62 55/55/62 60/60/62
f 41/41/63 58/58/63 80/80/63 83/83/63
f 83/83/63 80/80/63 82/82/63 84/84/63
f 84/84/63 82/82/63 60/60/63 59/59/63
f 54/54/64 42/42/64 85/85/64 79/79/64
f 79/79/64 85/85/64 86/86/64 81/81/64
f 81/81/64 86/86/64 56/56/64 55/55/64
f 86/86/64 85/85/64 61/61/64 76/76/64
f 56/56/64 86/86/64 76/76/64 70/70/64
f 51/51/64 56/56/64 70/70/64 69/69/64
f 84/84/63 59/59/63 67/67/63 73/73/63
f 83/83/63 84/84/63 73/73/63 72/72/63
f 41/41/63 83/83/63 72/72/63 71/71/63
f 42/42/67 41/41/67 71/71/67 62/62/67
f 59/59/63 49/49/63 68/68/63 67/67/63
f 49/49/68 51/51/68 69/69/68 68/68/68
f 85/85/64 42/42/64 62/62/64 61/61/64
f 44/44/61 43/43/60 87/87/67
f 43/43/60 53/53/65 87/87/67
f 53/53/65 57/57/66 87/87/67
f 57/57/66 44/44/61 87/87/67
