# Blender v2.79 (sub 0) OBJ File: 'mod_Brotlaib.blend'
# www.blender.org
g Brotlaib
v -0.156330 0.012363 0.296027
v -0.123383 0.217512 0.276308
v -0.156385 0.012532 -0.289092
v -0.123440 0.217599 -0.269527
v 0.156330 0.012363 0.296027
v 0.123383 0.217512 0.276307
v 0.156385 0.012532 -0.289092
v 0.123440 0.217599 -0.269527
v -0.170368 0.006019 -0.140019
v -0.173111 0.005055 0.001960
v -0.170357 0.005834 0.146502
v -0.139071 0.256145 0.142709
v -0.143225 0.273013 -0.002054
v -0.139126 0.256229 -0.136369
v 0.170357 0.005834 0.146502
v 0.173111 0.005055 0.001960
v 0.170368 0.006019 -0.140019
v 0.139126 0.256229 -0.136369
v 0.143225 0.273013 -0.002054
v 0.139071 0.256145 0.142709
v 0.047293 0.010152 -0.316273
v -0.047293 0.010152 -0.316273
v -0.043528 0.241176 -0.291987
v 0.043528 0.241176 -0.291987
v -0.047278 0.010024 0.324015
v 0.047278 0.010024 0.324015
v 0.043515 0.241135 0.299294
v -0.043515 0.241135 0.299294
v -0.054431 0.284937 -0.141902
v 0.054431 0.284938 -0.141903
v -0.052079 0.305850 -0.002412
v 0.052079 0.305851 -0.002412
v -0.054417 0.284920 0.148205
v 0.054416 0.284920 0.148204
v 0.057437 0.004475 -0.145993
v -0.057437 0.004475 -0.145993
v 0.063429 -0.000000 0.000000
v -0.063429 0.000000 -0.000000
v 0.057455 0.004339 0.152469
v -0.057455 0.004339 0.152469
v -0.153771 0.103739 0.303783
v -0.143053 0.149698 0.306783
v -0.143019 0.149811 -0.299459
v -0.155405 0.093573 -0.296792
v 0.143019 0.149811 -0.299459
v 0.155406 0.093573 -0.296792
v 0.143053 0.149698 0.306783
v 0.155552 0.103739 0.303783
v 0.164806 0.173221 -0.146592
v 0.174208 0.111778 -0.142969
v 0.174019 0.184324 -0.003250
v 0.184242 0.113395 -0.001877
v 0.164712 0.173068 0.153099
v 0.174519 0.124006 0.149462
v -0.164712 0.173068 0.153099
v -0.174519 0.114646 0.149462
v -0.174019 0.184324 -0.003250
v -0.184242 0.113395 -0.001877
v -0.164806 0.173221 -0.146591
v -0.174208 0.110244 -0.142969
v 0.048849 0.157820 0.340608
v 0.050188 0.103903 0.338472
v -0.048849 0.157820 0.340608
v -0.050188 0.103903 0.338472
v -0.048864 0.157926 -0.332315
v -0.049710 0.092597 -0.330262
v 0.048864 0.157926 -0.332315
v 0.049710 0.092597 -0.330262
vt 0.880720 0.362360
vt 0.833053 0.374604
vt 0.833353 0.290326
vt 0.876969 0.263949
vt 0.730511 0.236751
vt 0.733658 0.287898
vt 0.680478 0.287876
vt 0.668177 0.237081
vt 0.630392 0.532007
vt 0.677802 0.519413
vt 0.677997 0.603555
vt 0.634813 0.630381
vt 0.780232 0.656590
vt 0.777080 0.605770
vt 0.829955 0.605478
vt 0.842119 0.656130
vt 0.719169 0.917737
vt 0.722328 0.977669
vt 0.642876 0.970253
vt 0.628065 0.912338
vt 0.783485 0.522589
vt 0.831324 0.521234
vt 0.780429 0.288342
vt 0.785236 0.371966
vt 0.829960 0.445303
vt 0.781303 0.444696
vt 0.968016 0.912356
vt 0.953631 0.970293
vt 0.874416 0.977681
vt 0.877582 0.917732
vt 0.799049 0.979143
vt 0.800088 0.920889
vt 0.637240 0.260625
vt 0.679074 0.372572
vt 0.631625 0.359275
vt 0.680546 0.443250
vt 0.629401 0.441978
vt 0.872643 0.632609
vt 0.878545 0.534707
vt 0.880773 0.445055
vt 0.799063 0.795350
vt 0.800099 0.853604
vt 0.719172 0.856752
vt 0.722336 0.796818
vt 0.874424 0.796819
vt 0.877585 0.856766
vt 0.953636 0.804212
vt 0.968016 0.862148
vt 0.729321 0.443511
vt 0.725516 0.521787
vt 0.727093 0.371100
vt 0.730658 0.605453
vt 0.628065 0.862145
vt 0.642880 0.804230
vt 0.664104 0.652863
vt 0.724999 0.656036
vt 0.847759 0.241012
vt 0.786419 0.237514
vt 0.792250 0.146308
vt 0.789876 0.199059
vt 0.729143 0.197531
vt 0.729918 0.143844
vt 0.864715 0.152867
vt 0.859261 0.205260
vt 0.719502 0.746532
vt 0.721810 0.687377
vt 0.781984 0.688617
vt 0.781300 0.748772
vt 0.647460 0.740175
vt 0.653138 0.681551
vt 0.990862 0.449940
vt 0.922751 0.446226
vt 0.919414 0.360504
vt 0.986426 0.356036
vt 0.982405 0.543653
vt 0.914279 0.537094
vt 0.962839 0.640235
vt 0.903103 0.635365
vt 0.520185 0.444292
vt 0.587978 0.442340
vt 0.600018 0.533221
vt 0.524903 0.539033
vt 0.526023 0.350850
vt 0.593683 0.356582
vt 0.545624 0.252790
vt 0.599514 0.256576
vt 0.850883 0.685887
vt 0.854946 0.745796
vt 0.603892 0.632735
vt 0.543469 0.637090
vt 0.658386 0.200056
vt 0.655795 0.146424
vt 0.914664 0.260618
vt 0.968571 0.257815
vn -0.9618 0.2421 -0.1275
vn -0.6988 0.6910 -0.1847
vn -0.6253 0.6105 -0.4860
vn -0.7125 0.2416 -0.6587
vn 0.1701 0.2208 -0.9604
vn 0.1694 0.7523 -0.6366
vn 0.6253 0.6105 -0.4860
vn 0.7122 0.2421 -0.6589
vn 0.9580 0.2582 0.1246
vn 0.6993 0.6918 0.1799
vn 0.6273 0.6123 0.4812
vn 0.7060 0.2542 0.6610
vn -0.1744 0.2212 0.9595
vn -0.1712 0.7552 0.6328
vn -0.6273 0.6123 0.4812
vn -0.7128 0.2434 0.6578
vn 0.0132 -0.9995 0.0302
vn 0.7019 -0.7087 0.0705
vn 0.6187 -0.6077 0.4978
vn 0.1009 -0.7189 0.6877
vn -0.1730 0.9621 0.2107
vn -0.6993 0.6918 0.1799
vn -0.1694 0.7523 -0.6366
vn -0.1727 0.9609 -0.2163
vn -0.7014 0.7127 -0.0034
vn -0.1653 0.9862 -0.0051
vn 0.0977 -0.7241 -0.6826
vn 0.6172 -0.6101 -0.4967
vn 0.7014 -0.7092 -0.0710
vn 0.0134 -0.9994 -0.0312
vn 0.6959 -0.7181 0.0002
vn 0.0154 -0.9999 -0.0011
vn 0.6988 0.6910 -0.1847
vn 0.9616 0.2430 -0.1276
vn 0.7014 0.7127 -0.0034
vn 0.9710 0.2388 -0.0050
vn -0.9609 0.2472 0.1248
vn -0.9718 0.2357 -0.0041
vn -0.6953 -0.7186 -0.0004
vn -0.0154 -0.9999 -0.0011
vn -0.0132 -0.9995 0.0302
vn -0.7025 -0.7080 0.0720
vn -0.7013 -0.7093 -0.0709
vn -0.0134 -0.9994 -0.0312
vn -0.6172 -0.6102 -0.4967
vn -0.0977 -0.7241 -0.6826
vn 0.1653 0.9862 -0.0051
vn 0.1730 0.9621 0.2107
vn 0.1727 0.9609 -0.2163
vn 0.1712 0.7552 0.6328
vn -0.1017 -0.7185 0.6880
vn -0.6212 -0.6050 0.4980
vn 0.1737 0.2224 0.9593
vn -0.1701 0.2208 -0.9604
vn -0.1496 -0.0831 -0.9852
vn 0.1496 -0.0831 -0.9852
vn -0.7738 0.0034 -0.6334
vn 0.1552 -0.0785 0.9847
vn -0.1563 -0.0793 0.9845
vn 0.7801 0.0203 0.6252
vn -0.9992 0.0386 -0.0027
vn -0.9938 0.0573 -0.0946
vn -0.9934 0.0648 0.0942
vn -0.7770 0.0134 0.6293
vn 0.9992 0.0402 -0.0034
vn 0.9924 0.0797 0.0934
vn 0.9937 0.0591 -0.0949
vn 0.7737 0.0037 -0.6335
s 1
f 59/1/1 14/2/2 4/3/3 43/4/4
f 67/5/5 24/6/6 8/7/7 45/8/8
f 53/9/9 20/10/10 6/11/11 47/12/12
f 63/13/13 28/14/14 2/15/15 42/16/16
f 39/17/17 15/18/18 5/19/19 26/20/20
f 33/21/21 12/22/22 2/15/15 28/14/14
f 23/23/23 4/3/3 14/2/2 29/24/24
f 29/24/24 14/2/2 13/25/25 31/26/26
f 31/26/26 13/25/25 12/22/22 33/21/21
f 21/27/27 7/28/28 17/29/29 35/30/30
f 35/30/30 17/29/29 16/31/31 37/32/32
f 37/32/32 16/31/31 15/18/18 39/17/17
f 45/33/8 8/7/7 18/34/33 49/35/34
f 49/35/34 18/34/33 19/36/35 51/37/36
f 51/37/36 19/36/35 20/10/10 53/9/9
f 42/38/16 2/15/15 12/22/22 55/39/37
f 55/39/37 12/22/22 13/25/25 57/40/38
f 57/40/38 13/25/25 14/2/2 59/1/1
f 10/41/39 38/42/40 40/43/41 11/44/42
f 38/42/40 37/32/32 39/17/17 40/43/41
f 9/45/43 36/46/44 38/42/40 10/41/39
f 36/46/44 35/30/30 37/32/32 38/42/40
f 3/47/45 22/48/46 36/46/44 9/45/43
f 22/48/46 21/27/27 35/30/30 36/46/44
f 19/36/35 32/49/47 34/50/48 20/10/10
f 32/49/47 31/26/26 33/21/21 34/50/48
f 18/34/33 30/51/49 32/49/47 19/36/35
f 30/51/49 29/24/24 31/26/26 32/49/47
f 8/7/7 24/6/6 30/51/49 18/34/33
f 24/6/6 23/23/23 29/24/24 30/51/49
f 20/10/10 34/50/48 27/52/50 6/11/11
f 34/50/48 33/21/21 28/14/14 27/52/50
f 11/44/42 40/43/41 25/53/51 1/54/52
f 40/43/41 39/17/17 26/20/20 25/53/51
f 47/55/12 6/11/11 27/52/50 61/56/53
f 61/56/53 27/52/50 28/14/14 63/13/13
f 43/57/4 4/3/3 23/23/23 65/58/54
f 65/58/54 23/23/23 24/6/6 67/5/5
f 22/59/46 66/60/55 68/61/56 21/62/27
f 66/60/55 65/58/54 67/5/5 68/61/56
f 3/63/45 44/64/57 66/60/55 22/59/46
f 44/64/57 43/57/4 65/58/54 66/60/55
f 26/65/20 62/66/58 64/67/59 25/68/51
f 62/66/58 61/56/53 63/13/13 64/67/59
f 5/69/19 48/70/60 62/66/58 26/65/20
f 48/70/60 47/55/12 61/56/53 62/66/58
f 10/71/39 58/72/61 60/73/62 9/74/43
f 58/72/61 57/40/38 59/1/1 60/73/62
f 11/75/42 56/76/63 58/72/61 10/71/39
f 56/76/63 55/39/37 57/40/38 58/72/61
f 1/77/52 41/78/64 56/76/63 11/75/42
f 41/78/64 42/38/16 55/39/37 56/76/63
f 16/79/31 52/80/65 54/81/66 15/82/18
f 52/80/65 51/37/36 53/9/9 54/81/66
f 17/83/29 50/84/67 52/80/65 16/79/31
f 50/84/67 49/35/34 51/37/36 52/80/65
f 7/85/28 46/86/68 50/84/67 17/83/29
f 46/86/68 45/33/8 49/35/34 50/84/67
f 25/68/51 64/67/59 41/87/64 1/88/52
f 64/67/59 63/13/13 42/16/16 41/87/64
f 15/82/18 54/81/66 48/89/60 5/90/19
f 54/81/66 53/9/9 47/12/12 48/89/60
f 21/62/27 68/61/56 46/91/68 7/92/28
f 68/61/56 67/5/5 45/8/8 46/91/68
f 9/74/43 60/73/62 44/93/57 3/94/45
f 60/73/62 59/1/1 43/4/4 44/93/57
