# Blender v2.78 (sub 0) OBJ File: 'Treppe_und_Flur_UVbearbeiten.blend'
# www.blender.org
mtllib mod_Schraenkchen_Flur.mtl
g mod_Schraenkchen_Flur.001
v 0.238463 0.927423 -0.433730
v 0.238463 1.547037 -0.433730
v 1.105923 1.547037 -0.433730
v 1.105923 0.927423 -0.433730
v 1.105923 0.927423 0.433730
v 1.105923 1.547037 0.433730
v 0.238463 1.547037 0.433730
v 0.238463 0.927423 0.433730
v 1.105923 1.033451 -0.360205
v 1.105923 1.209934 -0.360204
v 1.127473 1.209934 -0.360204
v 1.127473 1.033451 -0.360205
v 1.127473 1.209934 0.365488
v 1.127473 1.033451 0.365488
v 1.105923 1.209934 0.365488
v 1.105923 1.033451 0.365488
v 1.105923 1.291267 0.017692
v 1.105923 1.448729 0.017692
v 1.127473 1.448729 0.017692
v 1.127473 1.291267 0.017692
v 1.127473 1.448729 0.365488
v 1.127473 1.291267 0.365488
v 1.105923 1.448729 0.365488
v 1.105923 1.291267 0.365488
v 1.105923 1.291267 -0.360204
v 1.105923 1.448729 -0.360204
v 1.127473 1.448729 -0.360204
v 1.127473 1.291267 -0.360204
v 1.127473 1.448729 -0.012409
v 1.127473 1.291267 -0.012409
v 1.105923 1.448729 -0.012409
v 1.105923 1.291267 -0.012409
v 1.127473 1.369999 0.161740
v 1.127473 1.392385 0.169203
v 1.140774 1.384386 0.177202
v 1.149745 1.369999 0.172166
v 1.140774 1.355609 0.177202
v 1.127473 1.347610 0.169203
v 1.161278 1.369999 0.191589
v 1.149745 1.350574 0.191589
v 1.149745 1.389422 0.191589
v 1.140774 1.384386 0.205979
v 1.149745 1.369999 0.211014
v 1.140774 1.355609 0.205979
v 1.127473 1.369999 0.221440
v 1.127473 1.347610 0.213978
v 1.127473 1.392385 0.213978
v 1.127473 1.340148 0.191589
v 1.127473 1.399848 0.191589
v 1.127473 1.369999 -0.208855
v 1.127473 1.392385 -0.201393
v 1.140774 1.384386 -0.193394
v 1.149745 1.369999 -0.198429
v 1.140774 1.355609 -0.193394
v 1.127473 1.347610 -0.201393
v 1.161278 1.369999 -0.179006
v 1.149745 1.350574 -0.179006
v 1.149745 1.389422 -0.179006
v 1.140774 1.384386 -0.164617
v 1.149745 1.369999 -0.159582
v 1.140774 1.355609 -0.164617
v 1.127473 1.369999 -0.149155
v 1.127473 1.347610 -0.156618
v 1.127473 1.392385 -0.156618
v 1.127473 1.340148 -0.179006
v 1.127473 1.399848 -0.179006
v 1.127473 1.111514 0.254528
v 1.127473 1.133903 0.261990
v 1.140774 1.125904 0.269991
v 1.149745 1.111514 0.264954
v 1.140774 1.097127 0.269991
v 1.127473 1.089126 0.261990
v 1.161278 1.111514 0.284378
v 1.149745 1.092089 0.284378
v 1.149745 1.130939 0.284378
v 1.140774 1.125904 0.298768
v 1.149745 1.111514 0.303803
v 1.140774 1.097127 0.298768
v 1.127473 1.111514 0.314229
v 1.127473 1.089126 0.306767
v 1.127473 1.133903 0.306767
v 1.127473 1.081663 0.284378
v 1.127473 1.141365 0.284378
v 1.127473 1.111514 -0.312961
v 1.127473 1.133903 -0.305499
v 1.140774 1.125904 -0.297497
v 1.149745 1.111514 -0.302535
v 1.140774 1.097127 -0.297497
v 1.127473 1.089126 -0.305499
v 1.161278 1.111514 -0.283110
v 1.149745 1.092089 -0.283110
v 1.149745 1.130939 -0.283110
v 1.140774 1.125904 -0.268720
v 1.149745 1.111514 -0.263685
v 1.140774 1.097127 -0.268720
v 1.127473 1.111514 -0.253259
v 1.127473 1.089126 -0.260721
v 1.127473 1.133903 -0.260721
v 1.127473 1.081663 -0.283110
v 1.127473 1.141365 -0.283110
v 0.207482 1.536066 0.464711
v 0.217600 1.573424 0.454593
v 0.217600 1.573425 -0.454592
v 0.207482 1.536066 -0.464711
v 1.126786 1.573425 -0.454592
v 1.136904 1.536066 -0.464711
v 1.126786 1.573424 0.454593
v 1.136904 1.536066 0.464711
v 0.207482 0.938394 0.464711
v 0.207482 0.938394 -0.464711
v 0.217600 0.901035 -0.454592
v 0.217600 0.901035 0.454593
v 1.136904 0.938394 -0.464711
v 1.126786 0.901035 -0.454592
v 1.136904 0.938394 0.464711
v 1.126786 0.901035 0.454593
v 1.056792 0.001088 0.425239
v 1.031094 0.142906 0.388472
v 1.069095 0.142906 0.361911
v 1.094795 0.001088 0.398681
v 1.089433 0.531966 0.386640
v 1.109156 0.914326 0.402399
v 1.055350 0.914326 0.440005
v 1.047328 0.531966 0.416069
v 1.074121 -0.000000 0.450032
v 1.057717 0.142906 0.426561
v 1.059935 0.531966 0.344436
v 1.071462 0.914326 0.348469
v 1.017657 0.914326 0.386074
v 1.017831 0.531966 0.373865
v 1.095718 0.142906 0.400001
v 1.112121 -0.000000 0.423471
v 0.287594 0.001088 0.425239
v 0.249593 0.001088 0.398681
v 0.275291 0.142906 0.361911
v 0.313292 0.142906 0.388472
v 0.254953 0.531966 0.386640
v 0.297058 0.531966 0.416069
v 0.289036 0.914326 0.440005
v 0.235230 0.914326 0.402399
v 0.270266 -0.000000 0.450032
v 0.286671 0.142906 0.426561
v 0.284451 0.531966 0.344436
v 0.272924 0.914326 0.348469
v 0.326555 0.531966 0.373865
v 0.326729 0.914326 0.386074
v 0.232265 -0.000000 0.423471
v 0.248668 0.142906 0.400001
v 1.056792 0.001089 -0.425239
v 1.094795 0.001089 -0.398681
v 1.069095 0.142906 -0.361911
v 1.031094 0.142906 -0.388471
v 1.089433 0.531966 -0.386639
v 1.047328 0.531966 -0.416069
v 1.055350 0.914326 -0.440005
v 1.109156 0.914326 -0.402398
v 1.074121 0.000000 -0.450032
v 1.057717 0.142906 -0.426561
v 1.059935 0.531966 -0.344435
v 1.071462 0.914326 -0.348469
v 1.017831 0.531966 -0.373865
v 1.017657 0.914326 -0.386073
v 1.112121 0.000000 -0.423471
v 1.095718 0.142906 -0.400000
v 0.287594 0.001089 -0.425239
v 0.313292 0.142906 -0.388471
v 0.275291 0.142906 -0.361911
v 0.249593 0.001089 -0.398681
v 0.254953 0.531966 -0.386639
v 0.235230 0.914326 -0.402398
v 0.289036 0.914326 -0.440005
v 0.297058 0.531966 -0.416069
v 0.270266 0.000000 -0.450032
v 0.286671 0.142906 -0.426561
v 0.284451 0.531966 -0.344435
v 0.272924 0.914326 -0.348469
v 0.326729 0.914326 -0.386073
v 0.326555 0.531966 -0.373865
v 0.248668 0.142906 -0.400000
v 0.232265 0.000000 -0.423471
v 1.073757 0.903830 0.224294
v 1.073757 0.835230 0.224294
v 1.073757 0.869179 0.106153
v 1.073757 0.903830 0.106153
v 0.885309 0.903830 0.392016
v 0.767165 0.903830 0.392016
v 0.767165 0.869179 0.392016
v 0.885309 0.835230 0.392016
v 1.073757 0.903830 0.304020
v 1.073757 0.781466 0.304020
v 0.963701 0.903830 0.392016
v 0.963701 0.781745 0.392016
v 1.044761 0.903830 0.392016
v 1.044761 0.777678 0.392016
v 1.073757 0.903830 0.383746
v 1.073757 0.777678 0.383746
v 0.270631 0.903830 0.224294
v 0.270631 0.903830 0.106153
v 0.270631 0.869179 0.106153
v 0.270631 0.835230 0.224294
v 0.459079 0.903830 0.392016
v 0.459079 0.835230 0.392016
v 0.577223 0.869179 0.392016
v 0.577223 0.903830 0.392016
v 0.270631 0.903830 0.304020
v 0.270631 0.781466 0.304020
v 0.380685 0.903830 0.392016
v 0.380685 0.781745 0.392016
v 0.299627 0.903830 0.392016
v 0.299627 0.777678 0.392016
v 0.270631 0.903830 0.383746
v 0.270631 0.777678 0.383746
v 1.073757 0.903830 -0.224294
v 1.073757 0.903830 -0.106152
v 1.073757 0.869179 -0.106152
v 1.073757 0.835230 -0.224294
v 0.885309 0.903830 -0.392016
v 0.885309 0.835230 -0.392016
v 0.767165 0.869179 -0.392016
v 0.767165 0.903830 -0.392016
v 1.073757 0.903830 -0.304020
v 1.073757 0.781466 -0.304020
v 0.963701 0.903830 -0.392016
v 0.963701 0.781745 -0.392016
v 1.044761 0.903830 -0.392016
v 1.044761 0.777678 -0.392016
v 1.073757 0.903830 -0.383746
v 1.073757 0.777678 -0.383746
v 0.270631 0.903830 -0.224294
v 0.270631 0.835230 -0.224294
v 0.270631 0.869179 -0.106152
v 0.270631 0.903830 -0.106152
v 0.459079 0.903830 -0.392016
v 0.577223 0.903830 -0.392016
v 0.577223 0.869179 -0.392016
v 0.459079 0.835230 -0.392016
v 0.270631 0.903830 -0.304020
v 0.270631 0.781466 -0.304020
v 0.380685 0.903830 -0.392016
v 0.380685 0.781745 -0.392016
v 0.299627 0.903830 -0.392016
v 0.299627 0.777678 -0.392016
v 0.270631 0.903830 -0.383746
v 0.270631 0.777678 -0.383746
vt 0.0564 0.4386
vt 0.1139 0.4386
vt 0.1139 0.4962
vt 0.0564 0.4962
vt 0.0564 0.4386
vt 0.1139 0.4386
vt 0.1139 0.4962
vt 0.0564 0.4962
vt 0.5524 0.0480
vt 0.6100 0.0480
vt 0.6100 0.1055
vt 0.5524 0.1055
vt 0.0564 0.4386
vt 0.1139 0.4962
vt 0.0564 0.4386
vt 0.1139 0.4962
vt 0.0329 0.4731
vt 0.0329 0.3653
vt 0.0329 0.3653
vt 0.0329 0.4731
vt 0.1312 0.3653
vt 0.1312 0.4731
vt 0.1312 0.3653
vt 0.1312 0.4731
vt 0.1569 0.6565
vt 0.1627 0.6565
vt 0.1627 0.6622
vt 0.1569 0.6622
vt 0.0841 0.4662
vt 0.0841 0.3700
vt 0.0841 0.3700
vt 0.0841 0.4662
vt 0.1312 0.3700
vt 0.1312 0.4662
vt 0.1312 0.3700
vt 0.1312 0.4662
vt 0.1569 0.6565
vt 0.1627 0.6565
vt 0.1627 0.6622
vt 0.1569 0.6622
vt 0.0329 0.4662
vt 0.0329 0.3700
vt 0.0329 0.3700
vt 0.0329 0.4662
vt 0.0800 0.3700
vt 0.0800 0.4662
vt 0.0800 0.3700
vt 0.0800 0.4662
vt 0.1569 0.6565
vt 0.1627 0.6565
vt 0.1627 0.6622
vt 0.1569 0.6622
vt 0.1558 0.6566
vt 0.1557 0.6569
vt 0.1556 0.6568
vt 0.1556 0.6566
vt 0.1556 0.6565
vt 0.1557 0.6564
vt 0.1554 0.6566
vt 0.1554 0.6564
vt 0.1554 0.6569
vt 0.1552 0.6568
vt 0.1552 0.6566
vt 0.1552 0.6565
vt 0.1551 0.6566
vt 0.1552 0.6564
vt 0.1552 0.6569
vt 0.1554 0.6563
vt 0.1554 0.6570
vt 0.1558 0.6566
vt 0.1557 0.6569
vt 0.1556 0.6568
vt 0.1556 0.6566
vt 0.1556 0.6565
vt 0.1557 0.6564
vt 0.1554 0.6566
vt 0.1554 0.6564
vt 0.1554 0.6569
vt 0.1552 0.6568
vt 0.1552 0.6566
vt 0.1552 0.6565
vt 0.1551 0.6566
vt 0.1552 0.6564
vt 0.1552 0.6569
vt 0.1554 0.6563
vt 0.1554 0.6570
vt 0.1558 0.6566
vt 0.1557 0.6569
vt 0.1556 0.6568
vt 0.1556 0.6566
vt 0.1556 0.6565
vt 0.1557 0.6564
vt 0.1554 0.6566
vt 0.1554 0.6564
vt 0.1554 0.6569
vt 0.1552 0.6568
vt 0.1552 0.6566
vt 0.1552 0.6565
vt 0.1551 0.6566
vt 0.1552 0.6564
vt 0.1552 0.6569
vt 0.1554 0.6563
vt 0.1554 0.6570
vt 0.1558 0.6566
vt 0.1557 0.6569
vt 0.1556 0.6568
vt 0.1556 0.6566
vt 0.1556 0.6565
vt 0.1557 0.6564
vt 0.1554 0.6566
vt 0.1554 0.6564
vt 0.1554 0.6569
vt 0.1552 0.6568
vt 0.1552 0.6566
vt 0.1552 0.6565
vt 0.1551 0.6566
vt 0.1552 0.6564
vt 0.1552 0.6569
vt 0.1554 0.6563
vt 0.1554 0.6570
vt 0.0338 0.3556
vt 0.0350 0.4310
vt 0.1348 0.4310
vt 0.1359 0.3556
vt 0.1348 0.4310
vt 0.1359 0.3556
vt 0.0350 0.4310
vt 0.0338 0.3556
vt 0.1634 0.6636
vt 0.1552 0.6636
vt 0.1552 0.6554
vt 0.1634 0.6554
vt 0.5068 0.0072
vt 0.6557 0.0072
vt 0.6557 0.1561
vt 0.5068 0.1561
vt 0.0330 0.4123
vt 0.1322 0.4123
vt 0.1311 0.5165
vt 0.0341 0.5165
vt 0.1322 0.4123
vt 0.1311 0.5165
vt 0.0330 0.4123
vt 0.0341 0.5165
vt 0.1266 0.4440
vt 0.1450 0.4440
vt 0.1450 0.4625
vt 0.1266 0.4625
vt 0.1634 0.6636
vt 0.1552 0.6636
vt 0.1552 0.6554
vt 0.1634 0.6554
vt 0.0191 0.3641
vt 0.0288 0.3973
vt 0.0358 0.3973
vt 0.0261 0.3641
vt 0.0293 0.4883
vt 0.0251 0.5778
vt 0.0152 0.5778
vt 0.0215 0.4883
vt 0.0126 0.3638
vt 0.0188 0.3973
vt 0.0404 0.4883
vt 0.0393 0.5778
vt 0.0294 0.5778
vt 0.0326 0.4883
vt 0.0258 0.3973
vt 0.0196 0.3638
vt 0.0191 0.3641
vt 0.0261 0.3641
vt 0.0358 0.3973
vt 0.0288 0.3973
vt 0.0293 0.4883
vt 0.0215 0.4883
vt 0.0152 0.5778
vt 0.0251 0.5778
vt 0.0126 0.3638
vt 0.0188 0.3973
vt 0.0404 0.4883
vt 0.0393 0.5778
vt 0.0326 0.4883
vt 0.0294 0.5778
vt 0.0196 0.3638
vt 0.0258 0.3973
vt 0.0354 0.3641
vt 0.0284 0.3641
vt 0.0188 0.3973
vt 0.0258 0.3973
vt 0.0253 0.4883
vt 0.0330 0.4883
vt 0.0393 0.5778
vt 0.0294 0.5778
vt 0.0420 0.3638
vt 0.0358 0.3973
vt 0.0142 0.4883
vt 0.0152 0.5778
vt 0.0219 0.4883
vt 0.0251 0.5778
vt 0.0350 0.3638
vt 0.0288 0.3973
vt 0.0354 0.3641
vt 0.0258 0.3973
vt 0.0188 0.3973
vt 0.0284 0.3641
vt 0.0253 0.4883
vt 0.0294 0.5778
vt 0.0393 0.5778
vt 0.0330 0.4883
vt 0.0420 0.3638
vt 0.0358 0.3973
vt 0.0142 0.4883
vt 0.0152 0.5778
vt 0.0251 0.5778
vt 0.0219 0.4883
vt 0.0288 0.3973
vt 0.0350 0.3638
vt 0.0916 0.5770
vt 0.0916 0.5181
vt 0.1235 0.5473
vt 0.1235 0.5770
vt 0.0804 0.5770
vt 0.0485 0.5770
vt 0.0485 0.5473
vt 0.0804 0.5181
vt 0.0701 0.5770
vt 0.0701 0.4719
vt 0.1016 0.5770
vt 0.1016 0.4722
vt 0.1235 0.5770
vt 0.1235 0.4687
vt 0.0485 0.5770
vt 0.0485 0.4687
vt 0.0916 0.5770
vt 0.1235 0.5770
vt 0.1235 0.5473
vt 0.0916 0.5181
vt 0.0912 0.5768
vt 0.0912 0.5179
vt 0.1231 0.5470
vt 0.1231 0.5768
vt 0.0701 0.5770
vt 0.0701 0.4719
vt 0.0701 0.5768
vt 0.0701 0.4719
vt 0.0482 0.5768
vt 0.0482 0.4684
vt 0.0485 0.5770
vt 0.0485 0.4687
vt 0.0804 0.5770
vt 0.0485 0.5770
vt 0.0485 0.5473
vt 0.0804 0.5181
vt 0.0804 0.5770
vt 0.0804 0.5181
vt 0.0485 0.5473
vt 0.0485 0.5770
vt 0.1020 0.5770
vt 0.1020 0.4719
vt 0.1016 0.5770
vt 0.1016 0.4722
vt 0.1235 0.5770
vt 0.1235 0.4687
vt 0.1235 0.5770
vt 0.1235 0.4687
vt 0.0804 0.5770
vt 0.0804 0.5181
vt 0.0485 0.5473
vt 0.0485 0.5770
vt 0.0912 0.5768
vt 0.1231 0.5768
vt 0.1231 0.5470
vt 0.0912 0.5179
vt 0.1020 0.5770
vt 0.1020 0.4719
vt 0.0701 0.5768
vt 0.0701 0.4719
vt 0.0482 0.5768
vt 0.0482 0.4684
vt 0.1235 0.5770
vt 0.1235 0.4687
vn 0.0000 0.0000 -1.0000
vn 0.0000 -0.0000 1.0000
vn 0.0000 -1.0000 -0.0000
vn 1.0000 0.0000 0.0000
vn -1.0000 0.0000 0.0000
vn 0.0000 1.0000 0.0000
vn 0.5324 0.0000 -0.8465
vn 0.5117 0.6075 -0.6075
vn 0.5714 0.5803 -0.5803
vn 0.7001 0.0000 -0.7141
vn 0.5714 -0.5803 -0.5803
vn 0.5117 -0.6075 -0.6075
vn 0.7001 -0.7140 -0.0000
vn 0.7001 0.7141 -0.0000
vn 0.5714 0.5803 0.5803
vn 0.7001 0.0000 0.7140
vn 0.5714 -0.5803 0.5803
vn 0.5324 0.0000 0.8465
vn 0.5117 -0.6075 0.6075
vn 0.5117 0.6075 0.6075
vn 0.5324 -0.8465 -0.0000
vn 0.5324 0.8465 -0.0000
vn 0.7001 -0.0000 -0.7140
vn 0.5118 -0.6075 -0.6075
vn 0.7001 0.7140 -0.0000
vn -0.9652 0.2614 0.0000
vn 0.0000 0.2614 -0.9652
vn 0.9652 0.2614 0.0000
vn 0.0000 0.2614 0.9652
vn -0.9652 -0.2614 -0.0000
vn 0.0000 -0.2614 -0.9652
vn 0.9652 -0.2614 -0.0000
vn 0.0000 -0.2614 0.9652
vn -0.5462 -0.3016 -0.7815
vn -0.5638 -0.1771 -0.8067
vn 0.5728 -0.0133 0.8196
vn 0.5717 -0.0632 0.8180
vn -0.8196 0.0000 0.5729
vn -0.8196 -0.0030 0.5729
vn -0.8196 -0.0036 0.5729
vn 0.8196 -0.0126 -0.5728
vn 0.8195 -0.0187 -0.5728
vn -0.8196 -0.0126 0.5728
vn -0.8195 -0.0187 0.5728
vn -0.5728 -0.0119 -0.8196
vn -0.5727 0.0259 -0.8194
vn 0.8196 -0.0000 -0.5729
vn 0.8196 -0.0036 -0.5729
vn 0.8196 -0.0030 -0.5729
vn 0.5617 0.1965 0.8037
vn 0.5689 0.1171 0.8140
vn 0.5462 -0.3016 -0.7815
vn 0.5638 -0.1771 -0.8067
vn -0.5728 -0.0133 0.8196
vn -0.5717 -0.0632 0.8180
vn 0.8197 -0.0000 0.5729
vn 0.8196 -0.0036 0.5729
vn 0.8196 -0.0030 0.5729
vn -0.8196 -0.0126 -0.5728
vn -0.8195 -0.0187 -0.5728
vn 0.8196 -0.0126 0.5728
vn 0.8195 -0.0187 0.5728
vn 0.5728 -0.0119 -0.8196
vn 0.5727 0.0259 -0.8194
vn -0.8196 -0.0000 -0.5729
vn -0.8196 -0.0030 -0.5729
vn -0.8196 -0.0036 -0.5729
vn -0.5617 0.1965 0.8037
vn -0.5689 0.1171 0.8140
vn -0.5462 -0.3016 0.7815
vn -0.5638 -0.1771 0.8067
vn 0.5728 -0.0133 -0.8196
vn 0.5717 -0.0632 -0.8180
vn -0.5728 -0.0119 0.8196
vn -0.5727 0.0259 0.8194
vn 0.8196 -0.0000 0.5729
vn 0.5617 0.1965 -0.8037
vn 0.5689 0.1171 -0.8140
vn 0.5462 -0.3016 0.7815
vn 0.5638 -0.1771 0.8067
vn -0.5728 -0.0133 -0.8196
vn -0.5717 -0.0632 -0.8180
vn 0.8197 -0.0000 -0.5729
vn 0.5728 -0.0119 0.8196
vn 0.5727 0.0259 0.8194
vn -0.5617 0.1965 -0.8037
vn -0.5689 0.1171 -0.8140
usemtl None.006
s 1
f 1/1/1 2/2/1 3/3/1 4/4/1
f 5/5/2 6/6/2 7/7/2 8/8/2
f 4/9/3 5/10/3 8/11/3 1/12/3
f 3/13/4 6/6/4 5/14/4 4/4/4
f 7/15/5 2/2/5 1/16/5 8/8/5
f 9/17/1 10/18/1 11/19/1 12/20/1
f 12/20/4 11/19/4 13/21/4 14/22/4
f 15/23/2 16/24/2 14/22/2 13/21/2
f 10/18/6 15/23/6 13/21/6 11/19/6
f 16/25/3 9/26/3 12/27/3 14/28/3
f 17/29/1 18/30/1 19/31/1 20/32/1
f 20/32/4 19/31/4 21/33/4 22/34/4
f 23/35/2 24/36/2 22/34/2 21/33/2
f 18/30/6 23/35/6 21/33/6 19/31/6
f 24/37/3 17/38/3 20/39/3 22/40/3
f 25/41/1 26/42/1 27/43/1 28/44/1
f 28/44/4 27/43/4 29/45/4 30/46/4
f 31/47/2 32/48/2 30/46/2 29/45/2
f 26/42/6 31/47/6 29/45/6 27/43/6
f 32/49/3 25/50/3 28/51/3 30/52/3
f 33/53/7 34/54/8 35/55/9 36/56/10
f 33/53/7 36/56/10 37/57/11 38/58/12
f 39/59/4 40/60/13 37/57/11 36/56/10
f 39/59/4 36/56/10 35/55/9 41/61/14
f 39/59/4 41/61/14 42/62/15 43/63/16
f 39/59/4 43/63/16 44/64/17 40/60/13
f 45/65/18 46/66/19 44/64/17 43/63/16
f 45/65/18 43/63/16 42/62/15 47/67/20
f 48/68/21 38/58/12 37/57/11 40/60/13
f 48/68/21 40/60/13 44/64/17 46/66/19
f 49/69/22 41/61/14 35/55/9 34/54/8
f 49/69/22 47/67/20 42/62/15 41/61/14
f 50/70/7 51/71/8 52/72/9 53/73/10
f 50/70/7 53/73/10 54/74/11 55/75/12
f 56/76/4 57/77/13 54/74/11 53/73/10
f 56/76/4 53/73/10 52/72/9 58/78/14
f 56/76/4 58/78/14 59/79/15 60/80/16
f 56/76/4 60/80/16 61/81/17 57/77/13
f 62/82/18 63/83/19 61/81/17 60/80/16
f 62/82/18 60/80/16 59/79/15 64/84/20
f 65/85/21 55/75/12 54/74/11 57/77/13
f 65/85/21 57/77/13 61/81/17 63/83/19
f 66/86/22 58/78/14 52/72/9 51/71/8
f 66/86/22 64/84/20 59/79/15 58/78/14
f 67/87/7 68/88/8 69/89/9 70/90/23
f 67/87/7 70/90/23 71/91/11 72/92/24
f 73/93/4 74/94/13 71/91/11 70/90/23
f 73/93/4 70/90/23 69/89/9 75/95/25
f 73/93/4 75/95/25 76/96/15 77/97/16
f 73/93/4 77/97/16 78/98/17 74/94/13
f 79/99/18 80/100/19 78/98/17 77/97/16
f 79/99/18 77/97/16 76/96/15 81/101/20
f 82/102/21 72/92/24 71/91/11 74/94/13
f 82/102/21 74/94/13 78/98/17 80/100/19
f 83/103/22 75/95/25 69/89/9 68/88/8
f 83/103/22 81/101/20 76/96/15 75/95/25
f 84/104/7 85/105/8 86/106/9 87/107/23
f 84/104/7 87/107/23 88/108/11 89/109/24
f 90/110/4 91/111/13 88/108/11 87/107/23
f 90/110/4 87/107/23 86/106/9 92/112/25
f 90/110/4 92/112/25 93/113/15 94/114/16
f 90/110/4 94/114/16 95/115/17 91/111/13
f 96/116/18 97/117/19 95/115/17 94/114/16
f 96/116/18 94/114/16 93/113/15 98/118/20
f 99/119/21 89/109/24 88/108/11 91/111/13
f 99/119/21 91/111/13 95/115/17 97/117/19
f 100/120/22 92/112/25 86/106/9 85/105/8
f 100/120/22 98/118/20 93/113/15 92/112/25
f 101/121/26 102/122/26 103/123/26 104/124/26
f 104/124/27 103/123/27 105/125/27 106/126/27
f 106/126/28 105/125/28 107/127/28 108/128/28
f 108/128/29 107/127/29 102/122/29 101/121/29
f 104/129/3 106/130/3 108/131/3 101/132/3
f 105/133/6 103/134/6 102/135/6 107/136/6
f 109/137/30 110/138/30 111/139/30 112/140/30
f 110/138/31 113/141/31 114/142/31 111/139/31
f 113/141/32 115/143/32 116/144/32 114/142/32
f 115/143/33 109/137/33 112/140/33 116/144/33
f 110/145/6 109/146/6 115/147/6 113/148/6
f 114/149/3 116/150/3 112/151/3 111/152/3
f 117/153/34 118/154/35 119/155/35 120/156/34
f 121/157/36 122/158/37 123/159/37 124/160/36
f 125/161/38 126/162/39 118/154/40 117/153/38
f 127/163/41 128/164/42 122/158/42 121/157/41
f 124/160/43 123/159/44 129/165/44 130/166/43
f 130/166/45 129/165/46 128/164/46 127/163/45
f 120/156/47 119/155/48 131/167/49 132/168/47
f 132/168/50 131/167/51 126/162/51 125/161/50
f 118/154/35 130/166/45 127/163/45 119/155/35
f 126/162/39 124/160/43 130/166/43 118/154/40
f 119/155/48 127/163/41 121/157/41 131/167/49
f 131/167/51 121/157/36 124/160/36 126/162/51
f 133/169/52 134/170/52 135/171/53 136/172/53
f 137/173/54 138/174/54 139/175/55 140/176/55
f 141/177/56 133/169/56 136/172/57 142/178/58
f 143/179/59 137/173/59 140/176/60 144/180/60
f 138/174/61 145/181/61 146/182/62 139/175/62
f 145/181/63 143/179/63 144/180/64 146/182/64
f 134/170/65 147/183/65 148/184/66 135/171/67
f 147/183/68 141/177/68 142/178/69 148/184/69
f 136/172/53 135/171/53 143/179/63 145/181/63
f 142/178/58 136/172/57 145/181/61 138/174/61
f 135/171/67 148/184/66 137/173/59 143/179/59
f 148/184/69 142/178/69 138/174/54 137/173/54
f 149/185/70 150/186/70 151/187/71 152/188/71
f 153/189/72 154/190/72 155/191/73 156/192/73
f 157/193/65 149/185/65 152/188/67 158/194/66
f 159/195/61 153/189/61 156/192/62 160/196/62
f 154/190/59 161/197/59 162/198/60 155/191/60
f 161/197/74 159/195/74 160/196/75 162/198/75
f 150/186/76 163/199/76 164/200/58 151/187/57
f 163/199/77 157/193/77 158/194/78 164/200/78
f 152/188/71 151/187/71 159/195/74 161/197/74
f 158/194/66 152/188/67 161/197/59 154/190/59
f 151/187/57 164/200/58 153/189/61 159/195/61
f 164/200/78 158/194/78 154/190/72 153/189/72
f 165/201/79 166/202/80 167/203/80 168/204/79
f 169/205/81 170/206/82 171/207/82 172/208/81
f 173/209/83 174/210/49 166/202/48 165/201/83
f 175/211/43 176/212/44 170/206/44 169/205/43
f 172/208/41 171/207/42 177/213/42 178/214/41
f 178/214/84 177/213/85 176/212/85 175/211/84
f 168/204/38 167/203/40 179/215/39 180/216/38
f 180/216/86 179/215/87 174/210/87 173/209/86
f 166/202/80 178/214/84 175/211/84 167/203/80
f 174/210/49 172/208/41 178/214/41 166/202/48
f 167/203/40 175/211/43 169/205/43 179/215/39
f 179/215/87 169/205/81 172/208/81 174/210/87
f 181/217/4 182/218/4 183/219/4 184/220/4
f 185/221/2 186/222/2 187/223/2 188/224/2
f 189/225/4 190/226/4 182/218/4 181/217/4
f 191/227/2 185/221/2 188/224/2 192/228/2
f 193/229/2 191/227/2 192/228/2 194/230/2
f 195/231/4 196/232/4 190/226/4 189/225/4
f 197/233/5 198/234/5 199/235/5 200/236/5
f 201/237/2 202/238/2 203/239/2 204/240/2
f 205/241/5 197/233/5 200/236/5 206/242/5
f 207/243/2 208/244/2 202/238/2 201/237/2
f 209/245/2 210/246/2 208/244/2 207/243/2
f 211/247/5 205/241/5 206/242/5 212/248/5
f 213/249/4 214/250/4 215/251/4 216/252/4
f 217/253/1 218/254/1 219/255/1 220/256/1
f 221/257/4 213/249/4 216/252/4 222/258/4
f 223/259/1 224/260/1 218/254/1 217/253/1
f 225/261/1 226/262/1 224/260/1 223/259/1
f 227/263/4 221/257/4 222/258/4 228/264/4
f 229/265/5 230/266/5 231/267/5 232/268/5
f 233/269/1 234/270/1 235/271/1 236/272/1
f 237/273/5 238/274/5 230/266/5 229/265/5
f 239/275/1 233/269/1 236/272/1 240/276/1
f 241/277/1 239/275/1 240/276/1 242/278/1
f 243/279/5 244/280/5 238/274/5 237/273/5
