# Blender v2.78 (sub 0) OBJ File: 'Treppe_und_Flur_UVbearbeiten.blend'
# www.blender.org
mtllib mod_Wandlampe_gross.mtl
g Wandlampe_gross.001
v 0.728331 0.302494 -0.451531
v 0.707674 -0.012504 -0.397324
v 0.692936 -0.053229 -0.447351
v 0.721277 0.293820 -0.514359
v 0.676014 0.300819 -0.438335
v 0.663187 0.021939 -0.397586
v 0.637512 0.288977 -0.510717
v 0.617358 -0.012146 -0.458751
v 0.629282 0.020620 -0.418534
v 0.641753 0.289691 -0.457699
v 0.683938 0.285933 -0.536154
v 0.655952 -0.051305 -0.470729
v 0.184846 -0.045294 0.002420
v 0.151213 -0.041264 -0.025469
v 0.213357 0.004092 0.033904
v 0.184032 0.048068 0.013229
v 0.127779 0.007430 -0.033903
v 0.153478 0.048855 -0.012229
v 0.728331 0.302493 0.489875
v 0.721277 0.293821 0.552703
v 0.692936 -0.053229 0.485694
v 0.707674 -0.012504 0.435668
v 0.676014 0.300819 0.476679
v 0.663187 0.021938 0.435930
v 0.637512 0.288977 0.549061
v 0.641753 0.289690 0.496043
v 0.629282 0.020620 0.456878
v 0.617358 -0.012146 0.497094
v 0.683938 0.285933 0.574496
v 0.655952 -0.051305 0.509073
v 0.151213 -0.041264 0.063812
v 0.184846 -0.045294 0.035923
v 0.213357 0.004092 0.004440
v 0.184032 0.048068 0.025115
v 0.153478 0.048855 0.050573
v 0.127779 0.007430 0.072246
v 0.144013 -0.166148 -0.262810
v 0.144013 0.417689 -0.009890
v 0.108423 0.407397 -0.011181
v 0.108423 -0.163914 -0.250748
v 0.145272 0.467368 -0.033795
v 0.145272 -0.176932 -0.321035
v 0.144012 -0.411609 -0.012715
v 0.145272 -0.466325 -0.035353
v 0.000000 -0.179165 -0.333097
v 0.000000 0.477661 -0.040470
v 0.144013 0.417689 0.009892
v 0.108423 0.407397 0.011182
v 0.000000 0.477661 0.040470
v 0.145272 0.467368 0.033795
v 0.144013 -0.166148 0.262810
v 0.108423 -0.163915 0.250748
v 0.000000 -0.179165 0.333097
v 0.145272 -0.176932 0.321035
v 0.144012 -0.411609 0.012715
v 0.108423 -0.400273 0.008026
v 0.000000 -0.477661 0.040043
v 0.145272 -0.466325 0.035352
v 0.108423 -0.400273 -0.008026
v 0.000000 -0.477661 -0.040042
v 0.108423 -0.163914 -0.008950
v 0.108423 -0.163914 0.008950
v 0.170568 0.001781 -0.125213
v 0.170568 -0.092129 -0.093909
v 0.090693 -0.067781 -0.069563
v 0.090693 0.001781 -0.093909
v 0.090693 0.071344 -0.069563
v 0.170568 0.095690 -0.093909
v 0.240131 0.071344 -0.069563
v 0.264478 0.001781 -0.093909
v 0.240131 -0.067781 -0.069563
v 0.295781 0.001781 0.000000
v 0.264478 -0.092129 -0.000000
v 0.264478 0.095690 0.000000
v 0.240131 0.071344 0.069563
v 0.264478 0.001781 0.093909
v 0.240131 -0.067781 0.069563
v 0.170568 0.001781 0.125213
v 0.170568 -0.092129 0.093909
v 0.170568 0.095690 0.093909
v 0.090693 0.071344 0.069563
v 0.090693 0.001781 0.093909
v 0.090693 -0.067781 0.069563
v 0.170568 -0.123432 -0.000000
v 0.090693 -0.092129 -0.000000
v 0.170568 0.126993 0.000000
v 0.090693 0.095690 0.000000
v 0.685784 0.146481 -0.861531
v 0.685784 0.605822 -0.702976
v 0.871859 0.605822 -0.634047
v 0.997224 0.146481 -0.746163
v 0.948933 0.605822 -0.467637
v 1.126227 0.146481 -0.467637
v 0.871859 0.605822 -0.301229
v 0.997224 0.146481 -0.189113
v 0.685784 0.605822 -0.232299
v 0.685783 0.146481 -0.073744
v 0.499708 0.605822 -0.301229
v 0.374343 0.146481 -0.189113
v 0.422634 0.605822 -0.467637
v 0.245340 0.146481 -0.467637
v 0.499708 0.605822 -0.634047
v 0.374343 0.146481 -0.746163
v 0.685784 0.146606 -0.854430
v 0.992397 0.146484 -0.741013
v 0.867114 0.605826 -0.628819
v 0.685784 0.605945 -0.695875
v 1.119217 0.146352 -0.467637
v 0.941925 0.605691 -0.467637
v 0.992397 0.146484 -0.194262
v 0.867114 0.605826 -0.306456
v 0.685783 0.146606 -0.080846
v 0.685784 0.605945 -0.239401
v 0.379170 0.146484 -0.194262
v 0.504453 0.605826 -0.306456
v 0.252350 0.146352 -0.467637
v 0.429643 0.605691 -0.467637
v 0.379170 0.146484 -0.741013
v 0.504453 0.605826 -0.628819
v 0.685784 0.146481 0.899875
v 0.997224 0.146481 0.784507
v 0.871859 0.605822 0.672390
v 0.685784 0.605822 0.741320
v 1.126227 0.146481 0.505981
v 0.948933 0.605822 0.505982
v 0.997224 0.146481 0.227456
v 0.871859 0.605822 0.339573
v 0.685783 0.146481 0.112088
v 0.685784 0.605822 0.270643
v 0.374343 0.146481 0.227457
v 0.499708 0.605822 0.339573
v 0.245340 0.146481 0.505981
v 0.422634 0.605822 0.505982
v 0.374343 0.146481 0.784507
v 0.499708 0.605822 0.672390
v 0.685784 0.146606 0.892773
v 0.685784 0.605945 0.734218
v 0.867114 0.605826 0.667163
v 0.992397 0.146484 0.779357
v 0.941925 0.605691 0.505982
v 1.119217 0.146352 0.505981
v 0.867114 0.605826 0.344800
v 0.992397 0.146484 0.232606
v 0.685784 0.605945 0.277745
v 0.685783 0.146606 0.119190
v 0.504453 0.605826 0.344800
v 0.379170 0.146484 0.232606
v 0.429643 0.605691 0.505982
v 0.252350 0.146352 0.505981
v 0.504453 0.605826 0.667163
v 0.379170 0.146484 0.779357
vt 0.4651 0.3360
vt 0.3735 0.3457
vt 0.3617 0.3526
vt 0.4626 0.3393
vt 0.4647 0.3606
vt 0.3835 0.3666
vt 0.4612 0.3787
vt 0.3736 0.3882
vt 0.3831 0.3826
vt 0.4614 0.3767
vt 0.4603 0.3569
vt 0.3622 0.3701
vt 0.3640 0.5920
vt 0.3651 0.6079
vt 0.3783 0.5786
vt 0.3911 0.5924
vt 0.3793 0.6189
vt 0.3914 0.6068
vt 0.4651 0.3360
vt 0.4626 0.3393
vt 0.3617 0.3526
vt 0.3735 0.3457
vt 0.4647 0.3606
vt 0.3835 0.3666
vt 0.4612 0.3787
vt 0.4614 0.3767
vt 0.3831 0.3826
vt 0.3736 0.3882
vt 0.4603 0.3569
vt 0.3622 0.3701
vt 0.3651 0.6079
vt 0.3640 0.5920
vt 0.3783 0.5786
vt 0.3911 0.5924
vt 0.3914 0.6068
vt 0.3793 0.6189
vt 0.3949 0.3388
vt 0.4828 0.3388
vt 0.4813 0.4011
vt 0.3953 0.4011
vt 0.4903 0.3366
vt 0.3933 0.3366
vt 0.3580 0.3388
vt 0.3497 0.3366
vt 0.3930 0.5906
vt 0.4919 0.5906
vt 0.4828 0.3388
vt 0.4813 0.4011
vt 0.4919 0.5906
vt 0.4903 0.3366
vt 0.3949 0.3388
vt 0.3953 0.4011
vt 0.3930 0.5906
vt 0.3933 0.3366
vt 0.3580 0.3388
vt 0.3597 0.4011
vt 0.3480 0.5906
vt 0.3497 0.3366
vt 0.3597 0.4011
vt 0.3480 0.5906
vt 0.3585 0.4635
vt 0.3941 0.4635
vt 0.3941 0.4635
vt 0.4801 0.4635
vt 0.3941 0.4635
vt 0.3941 0.4635
vt 0.3585 0.4635
vt 0.4801 0.4635
vt 0.4165 0.5170
vt 0.3637 0.5170
vt 0.3774 0.6271
vt 0.4165 0.6271
vt 0.4556 0.6271
vt 0.4693 0.5170
vt 0.4556 0.4212
vt 0.4165 0.3877
vt 0.3774 0.4212
vt 0.4165 0.3445
vt 0.3637 0.3877
vt 0.4693 0.3877
vt 0.4556 0.4212
vt 0.4165 0.3877
vt 0.3774 0.4212
vt 0.4165 0.5170
vt 0.3637 0.5170
vt 0.4693 0.5170
vt 0.4556 0.6271
vt 0.4165 0.6271
vt 0.3774 0.6271
vt 0.3461 0.5170
vt 0.3637 0.6271
vt 0.4869 0.5170
vt 0.4693 0.6271
vt 0.0168 0.5096
vt 0.0431 0.3352
vt 0.0545 0.3352
vt 0.0359 0.5096
vt 0.0821 0.3352
vt 0.0821 0.5096
vt 0.1097 0.3352
vt 0.1283 0.5096
vt 0.1211 0.3352
vt 0.1474 0.5096
vt 0.1097 0.3352
vt 0.1283 0.5096
vt 0.0821 0.3352
vt 0.0821 0.5096
vt 0.0545 0.3352
vt 0.0359 0.5096
vt 0.0180 0.5095
vt 0.0368 0.5096
vt 0.0554 0.3352
vt 0.0443 0.3352
vt 0.0821 0.5096
vt 0.0821 0.3353
vt 0.1274 0.5096
vt 0.1088 0.3352
vt 0.1462 0.5095
vt 0.1199 0.3352
vt 0.1274 0.5096
vt 0.1088 0.3352
vt 0.0821 0.5096
vt 0.0821 0.3353
vt 0.0368 0.5096
vt 0.0554 0.3352
vt 0.1480 0.5096
vt 0.1288 0.5096
vt 0.1103 0.3352
vt 0.1217 0.3352
vt 0.0827 0.5096
vt 0.0827 0.3352
vt 0.0365 0.5096
vt 0.0551 0.3352
vt 0.0174 0.5096
vt 0.0437 0.3352
vt 0.0365 0.5096
vt 0.0551 0.3352
vt 0.0827 0.5096
vt 0.0827 0.3352
vt 0.1288 0.5096
vt 0.1103 0.3352
vt 0.1468 0.5095
vt 0.1205 0.3352
vt 0.1094 0.3352
vt 0.1280 0.5096
vt 0.0827 0.3353
vt 0.0827 0.5096
vt 0.0560 0.3352
vt 0.0374 0.5096
vt 0.0449 0.3352
vt 0.0186 0.5095
vt 0.0560 0.3352
vt 0.0374 0.5096
vt 0.0827 0.3353
vt 0.0827 0.5096
vt 0.1094 0.3352
vt 0.1280 0.5096
vn 0.8435 0.0230 0.5366
vn 0.8346 -0.1951 0.5152
vn 0.6550 -0.7220 -0.2229
vn 0.8364 -0.1645 -0.5229
vn -0.1401 0.1561 0.9777
vn 0.1330 0.5668 0.8131
vn -0.8624 -0.0400 -0.5047
vn -0.7002 -0.0499 -0.7122
vn -0.7148 0.6936 0.0890
vn -0.8233 0.1256 0.5535
vn 0.0840 -0.1933 -0.9775
vn -0.0475 -0.6794 -0.7323
vn 0.2080 -0.9433 0.2587
vn -0.4263 -0.7744 -0.4676
vn 0.6620 0.0032 0.7495
vn 0.2677 0.9298 0.2527
vn -0.6311 0.2181 -0.7444
vn -0.2508 0.9034 -0.3477
vn 0.8435 0.0230 -0.5366
vn 0.8364 -0.1645 0.5229
vn 0.6550 -0.7220 0.2229
vn 0.8346 -0.1951 -0.5152
vn -0.1401 0.1561 -0.9777
vn 0.1330 0.5668 -0.8131
vn -0.8624 -0.0400 0.5047
vn -0.8233 0.1256 -0.5535
vn -0.7148 0.6936 -0.0890
vn -0.7002 -0.0499 0.7122
vn 0.0840 -0.1933 0.9775
vn -0.0475 -0.6794 0.7323
vn -0.4263 -0.7744 0.4676
vn 0.2080 -0.9433 -0.2587
vn 0.6620 0.0032 -0.7495
vn 0.2677 0.9298 -0.2527
vn -0.2508 0.9034 0.3477
vn -0.6311 0.2181 0.7444
vn 0.9073 0.0772 0.4132
vn 0.8972 -0.3818 0.2220
vn 0.2662 -0.7664 0.5846
vn 0.2809 0.1809 0.9425
vn 0.9998 -0.0191 0.0111
vn 0.9998 0.0031 0.0213
vn 0.8746 0.4487 0.1839
vn 0.9998 0.0201 0.0086
vn 0.0868 -0.1776 -0.9803
vn 0.0838 0.8358 -0.5426
vn 0.0868 -0.1773 -0.9803
vn 0.8972 -0.3818 -0.2220
vn 0.2662 -0.7664 -0.5846
vn 0.0838 0.8358 0.5426
vn 0.9073 0.0772 -0.4132
vn 0.2809 0.1809 -0.9425
vn 0.0868 -0.1776 0.9803
vn 0.0868 -0.1773 0.9803
vn 0.8746 0.4487 -0.1839
vn 0.3171 0.8780 -0.3585
vn 0.0821 -0.9193 0.3850
vn 0.0821 -0.9192 0.3851
vn 0.3171 0.8780 0.3585
vn 0.9998 0.0031 -0.0213
vn 0.9998 -0.0191 -0.0111
vn 0.0821 -0.9193 -0.3850
vn 0.0821 -0.9192 -0.3851
vn 0.9998 0.0201 -0.0086
vn 1.0000 0.0000 0.0000
vn -0.0014 -0.0000 -1.0000
vn -0.0069 -0.7071 -0.7071
vn -0.3890 -0.6514 -0.6514
vn -0.3716 -0.0000 -0.9284
vn -0.3890 0.6514 -0.6514
vn -0.0069 0.7071 -0.7071
vn 0.5774 0.5774 -0.5774
vn 0.7071 -0.0000 -0.7071
vn 0.5774 -0.5773 -0.5774
vn 0.7071 -0.7071 -0.0000
vn 0.7071 0.7071 0.0000
vn 0.5774 0.5774 0.5774
vn 0.7071 -0.0000 0.7071
vn 0.5774 -0.5773 0.5774
vn -0.0014 -0.0000 1.0000
vn -0.0069 -0.7071 0.7071
vn -0.0069 0.7071 0.7071
vn -0.3890 0.6514 0.6514
vn -0.3716 -0.0000 0.9284
vn -0.3890 -0.6514 0.6514
vn -0.0014 -1.0000 -0.0000
vn -0.3716 -0.9284 -0.0000
vn -0.0014 1.0000 0.0000
vn -0.3716 0.9284 0.0000
vn 0.0000 0.3263 -0.9453
vn 0.6314 0.3422 -0.6959
vn 0.6424 0.3426 -0.6855
vn 0.9329 0.3601 0.0000
vn 0.6314 0.3422 0.6959
vn 0.6424 0.3426 0.6855
vn 0.0000 0.3263 0.9453
vn -0.6314 0.3422 0.6959
vn -0.6424 0.3426 0.6855
vn -0.9329 0.3601 0.0000
vn -0.6314 0.3422 -0.6959
vn -0.6424 0.3426 -0.6855
vn -0.0000 -0.3263 0.9453
vn -0.6422 -0.3426 0.6857
vn -0.6310 -0.3422 0.6962
vn -0.9329 -0.3601 -0.0000
vn -0.6422 -0.3426 -0.6857
vn -0.6310 -0.3422 -0.6962
vn 0.0000 -0.3263 -0.9453
vn 0.6422 -0.3426 -0.6857
vn 0.6310 -0.3422 -0.6962
vn 0.9329 -0.3601 -0.0000
vn 0.6422 -0.3426 0.6857
vn 0.6310 -0.3422 0.6962
vn 0.0000 -1.0000 0.0090
vn 0.0027 -1.0000 0.0023
vn 0.0026 -1.0000 0.0024
vn -0.0026 1.0000 -0.0022
vn 0.0000 1.0000 -0.0089
vn -0.0027 1.0000 -0.0021
vn 0.0088 -1.0000 -0.0000
vn -0.0089 1.0000 0.0000
vn 0.0027 -1.0000 -0.0023
vn 0.0026 -1.0000 -0.0024
vn -0.0026 1.0000 0.0022
vn -0.0027 1.0000 0.0021
vn 0.0000 -1.0000 -0.0090
vn 0.0000 1.0000 0.0089
vn -0.0027 -1.0000 -0.0023
vn -0.0026 -1.0000 -0.0024
vn 0.0026 1.0000 0.0022
vn 0.0027 1.0000 0.0021
vn -0.0088 -1.0000 -0.0000
vn 0.0089 1.0000 0.0000
vn -0.0027 -1.0000 0.0023
vn -0.0026 -1.0000 0.0024
vn 0.0026 1.0000 -0.0022
vn 0.0027 1.0000 -0.0021
vn 0.0027 1.0000 0.0022
usemtl None.006
s 1
f 1/1/1 2/2/2 3/3/3 4/4/4
f 5/5/5 6/6/6 2/2/2 1/1/1
f 7/7/7 8/8/8 9/9/9 10/10/10
f 11/11/11 12/12/12 8/8/8 7/7/7
f 3/3/3 13/13/13 14/14/14 12/12/12
f 2/2/2 15/15/15 13/13/13 3/3/3
f 6/6/6 16/16/16 15/15/15 2/2/2
f 10/10/10 9/9/9 6/6/6 5/5/5
f 8/8/8 17/17/17 18/18/18 9/9/9
f 12/12/12 14/14/14 17/17/17 8/8/8
f 9/9/9 18/18/18 16/16/16 6/6/6
f 4/4/4 3/3/3 12/12/12 11/11/11
f 19/19/19 20/20/20 21/21/21 22/22/22
f 23/23/23 19/19/19 22/22/22 24/24/24
f 25/25/25 26/26/26 27/27/27 28/28/28
f 29/29/29 25/25/25 28/28/28 30/30/30
f 21/21/21 30/30/30 31/31/31 32/32/32
f 22/22/22 21/21/21 32/32/32 33/33/33
f 24/24/24 22/22/22 33/33/33 34/34/34
f 26/26/26 23/23/23 24/24/24 27/27/27
f 28/28/28 27/27/27 35/35/35 36/36/36
f 30/30/30 28/28/28 36/36/36 31/31/31
f 27/27/27 24/24/24 34/34/34 35/35/35
f 20/20/20 29/29/29 30/30/30 21/21/21
f 37/37/37 38/38/38 39/39/39 40/40/40
f 41/41/41 38/38/38 37/37/37 42/42/42
f 42/42/42 37/37/37 43/43/43 44/44/44
f 45/45/45 46/46/46 41/41/46 42/42/47
f 38/38/38 47/47/48 48/48/49 39/39/39
f 46/46/46 49/49/50 50/50/50 41/41/46
f 47/47/48 51/51/51 52/52/52 48/48/49
f 49/49/50 53/53/53 54/54/54 50/50/50
f 51/51/51 55/55/55 56/56/56 52/52/52
f 53/53/53 57/57/57 58/58/58 54/54/54
f 55/55/55 43/43/43 59/59/59 56/56/56
f 54/54/60 51/51/51 47/47/48 50/50/61
f 50/50/61 47/47/48 38/38/38 41/41/41
f 57/57/57 60/60/62 44/44/63 58/58/58
f 43/43/43 37/37/37 40/40/40 59/59/59
f 44/44/44 43/43/43 55/55/55 58/58/64
f 58/58/64 55/55/55 51/51/51 54/54/60
f 60/60/62 45/45/45 42/42/47 44/44/63
f 59/61/65 40/62/65 61/63/65
f 48/64/65 52/65/65 62/66/65
f 52/65/65 56/67/65 62/66/65
f 39/68/65 48/64/65 62/66/65 61/63/65
f 56/67/65 59/61/65 61/63/65 62/66/65
f 40/62/65 39/68/65 61/63/65
f 63/69/66 64/70/67 65/71/68 66/72/69
f 63/69/66 66/72/69 67/73/70 68/74/71
f 63/69/66 68/74/71 69/75/72 70/76/73
f 63/69/66 70/76/73 71/77/74 64/70/67
f 72/78/65 73/79/75 71/77/74 70/76/73
f 72/78/65 70/76/73 69/75/72 74/80/76
f 72/78/65 74/80/76 75/81/77 76/82/78
f 72/78/65 76/82/78 77/83/79 73/79/75
f 78/84/80 79/85/81 77/83/79 76/82/78
f 78/84/80 76/82/78 75/81/77 80/86/82
f 78/84/80 80/86/82 81/87/83 82/88/84
f 78/84/80 82/88/84 83/89/85 79/85/81
f 84/90/86 85/91/87 65/71/68 64/70/67
f 84/90/86 64/70/67 71/77/74 73/79/75
f 84/90/86 73/79/75 77/83/79 79/85/81
f 84/90/86 79/85/81 83/89/85 85/91/87
f 86/92/88 74/80/76 69/75/72 68/74/71
f 86/92/88 68/74/71 67/73/70 87/93/89
f 86/92/88 87/93/89 81/87/83 80/86/82
f 86/92/88 80/86/82 75/81/77 74/80/76
f 88/94/90 89/95/90 90/96/91 91/97/92
f 91/97/92 90/96/91 92/98/93 93/99/93
f 93/99/93 92/98/93 94/100/94 95/101/95
f 95/101/95 94/100/94 96/102/96 97/103/96
f 97/103/96 96/102/96 98/104/97 99/105/98
f 99/105/98 98/104/97 100/106/99 101/107/99
f 101/107/99 100/106/99 102/108/100 103/109/101
f 103/109/101 102/108/100 89/95/90 88/94/90
f 104/110/102 105/111/103 106/112/104 107/113/102
f 105/111/103 108/114/105 109/115/105 106/112/104
f 108/114/105 110/116/106 111/117/107 109/115/105
f 110/116/106 112/118/108 113/119/108 111/117/107
f 112/118/108 114/120/109 115/121/110 113/119/108
f 114/120/109 116/122/111 117/123/111 115/121/110
f 116/122/111 118/124/112 119/125/113 117/123/111
f 118/124/112 104/110/102 107/113/102 119/125/113
f 88/94/114 91/97/115 105/111/116 104/110/114
f 90/96/117 89/95/118 107/113/118 106/112/119
f 91/97/115 93/99/120 108/114/120 105/111/116
f 92/98/121 90/96/117 106/112/119 109/115/121
f 93/99/120 95/101/122 110/116/123 108/114/120
f 94/100/124 92/98/121 109/115/121 111/117/125
f 95/101/122 97/103/126 112/118/126 110/116/123
f 96/102/127 94/100/124 111/117/125 113/119/127
f 97/103/126 99/105/128 114/120/129 112/118/126
f 98/104/130 96/102/127 113/119/127 115/121/131
f 99/105/128 101/107/132 116/122/132 114/120/129
f 100/106/133 98/104/130 115/121/131 117/123/133
f 101/107/132 103/109/134 118/124/135 116/122/132
f 102/108/136 100/106/133 117/123/133 119/125/137
f 103/109/134 88/94/114 104/110/114 118/124/135
f 89/95/118 102/108/136 119/125/137 107/113/118
f 120/126/96 121/127/95 122/128/94 123/129/96
f 121/127/95 124/130/93 125/131/93 122/128/94
f 124/130/93 126/132/92 127/133/91 125/131/93
f 126/132/92 128/134/90 129/135/90 127/133/91
f 128/134/90 130/136/101 131/137/100 129/135/90
f 130/136/101 132/138/99 133/139/99 131/137/100
f 132/138/99 134/140/98 135/141/97 133/139/99
f 134/140/98 120/126/96 123/129/96 135/141/97
f 136/142/108 137/143/108 138/144/107 139/145/106
f 139/145/106 138/144/107 140/146/105 141/147/105
f 141/147/105 140/146/105 142/148/104 143/149/103
f 143/149/103 142/148/104 144/150/102 145/151/102
f 145/151/102 144/150/102 146/152/113 147/153/112
f 147/153/112 146/152/113 148/154/111 149/155/111
f 149/155/111 148/154/111 150/156/110 151/157/109
f 151/157/109 150/156/110 137/143/108 136/142/108
f 120/126/126 136/142/126 139/145/123 121/127/122
f 122/128/124 138/144/125 137/143/127 123/129/127
f 121/127/122 139/145/123 141/147/120 124/130/120
f 125/131/121 140/146/121 138/144/125 122/128/124
f 124/130/120 141/147/120 143/149/116 126/132/115
f 127/133/117 142/148/119 140/146/121 125/131/121
f 126/132/115 143/149/116 145/151/114 128/134/114
f 129/135/118 144/150/118 142/148/119 127/133/117
f 128/134/114 145/151/114 147/153/135 130/136/134
f 131/137/136 146/152/137 144/150/118 129/135/118
f 130/136/134 147/153/135 149/155/132 132/138/132
f 133/139/133 148/154/133 146/152/137 131/137/136
f 132/138/132 149/155/132 151/157/129 134/140/128
f 135/141/130 150/156/138 148/154/133 133/139/133
f 134/140/128 151/157/129 136/142/126 120/126/126
f 123/129/127 137/143/127 150/156/138 135/141/130
