# Blender v2.79 (sub 0) OBJ File: 'mod_Deckenlampe_eckig.blend'
# www.blender.org
g Deckenlampe_eckig
v -0.332407 -0.399770 0.332407
v -0.239257 -0.142275 0.239257
v -0.332407 -0.399770 -0.332407
v -0.239257 -0.142275 -0.239257
v 0.332407 -0.399770 0.332407
v 0.239257 -0.142275 0.239257
v 0.332407 -0.399770 -0.332407
v 0.239257 -0.142275 -0.239257
v -0.332407 -0.142275 0.332407
v -0.332407 -0.184779 -0.332407
v 0.332407 -0.184779 -0.332407
v 0.332407 -0.184779 0.332407
v -0.239257 0.000000 0.239257
v -0.239257 0.000000 -0.239257
v 0.239257 0.000000 -0.239257
v 0.239257 0.000000 0.239257
v -0.332407 -0.442275 -0.332407
v -0.332407 -0.442275 0.332407
v -0.332407 -0.184779 0.332407
v -0.332407 -0.142275 -0.332407
v 0.332407 -0.442275 -0.332407
v 0.332407 -0.142275 -0.332407
v 0.332407 -0.442275 0.332407
v 0.332407 -0.142275 0.332407
vn 0.0000 -1.0000 0.0000
vn 0.0000 0.0000 1.0000
vn 0.0000 1.0000 0.0000
vn 0.0000 0.0000 -1.0000
vn 1.0000 0.0000 0.0000
vn -1.0000 0.0000 0.0000
s off
f 17//1 21//1 23//1 18//1
f 2//2 6//2 16//2 13//2
f 2//3 4//3 20//3 9//3
f 4//3 8//3 22//3 20//3
f 8//3 6//3 24//3 22//3
f 6//3 2//3 9//3 24//3
f 15//3 14//3 13//3 16//3
f 8//4 4//4 14//4 15//4
f 6//5 8//5 15//5 16//5
f 4//6 2//6 13//6 14//6
f 1//6 3//6 17//6 18//6
f 10//6 19//6 9//6 20//6
f 3//4 7//4 21//4 17//4
f 11//4 10//4 20//4 22//4
f 7//5 5//5 23//5 21//5
f 12//5 11//5 22//5 24//5
f 5//2 1//2 18//2 23//2
f 19//2 12//2 24//2 9//2
g Deckenlampe_eckig_Glas
v -0.332407 -0.399770 0.332407
v -0.332407 -0.399770 -0.332407
v 0.332407 -0.399770 0.332407
v 0.332407 -0.399770 -0.332407
v -0.332407 -0.184779 -0.332407
v 0.332407 -0.184779 -0.332407
v 0.332407 -0.184779 0.332407
v -0.332407 -0.184779 0.332407
v -0.391679 -0.399770 0.391679
v -0.391679 -0.184779 0.391679
v -0.391679 -0.184779 -0.391679
v -0.391679 -0.399770 -0.391679
v 0.391679 -0.184779 -0.391679
v 0.391679 -0.399770 -0.391679
v 0.391679 -0.184779 0.391679
v 0.391679 -0.399770 0.391679
vn 0.0000 -1.0000 0.0000
vn -1.0000 0.0000 0.0000
vn 0.0000 0.0000 -1.0000
vn 1.0000 0.0000 0.0000
vn 0.0000 0.0000 1.0000
vn 0.0000 1.0000 0.0000
s off
f 26//7 25//7 33//7 36//7
f 28//7 26//7 36//7 38//7
f 27//7 28//7 38//7 40//7
f 25//7 27//7 40//7 33//7
f 33//8 34//8 35//8 36//8
f 36//9 35//9 37//9 38//9
f 38//10 37//10 39//10 40//10
f 40//11 39//11 34//11 33//11
f 31//12 32//12 34//12 39//12
f 30//12 31//12 39//12 37//12
f 29//12 30//12 37//12 35//12
f 32//12 29//12 35//12 34//12
