# Blender v2.78 (sub 0) OBJ File: 'FantasyUVs2.blend'
# www.blender.org
mtllib mod_Puppen_Tasse_Fantasie.mtl
g Puppentasse
v 0.086698 0.121012 0.029229
v 0.077759 0.051506 0.023310
v 0.091389 0.051506 -0.046753
v 0.101895 0.121012 -0.048889
v -0.054325 -0.000000 0.036109
v -0.060445 0.051506 0.043032
v -0.091389 0.051506 -0.009596
v -0.081902 -0.000000 -0.011525
v -0.101895 0.121012 -0.007461
v -0.107001 0.154788 -0.006423
v -0.091042 0.154788 -0.088455
v -0.086698 0.121012 -0.085579
v -0.020714 0.121012 -0.130070
v -0.021752 0.154788 -0.135176
v 0.060280 0.154788 -0.119217
v 0.057404 0.121012 -0.114873
v 0.016650 -0.000000 0.053727
v 0.069687 -0.000000 0.017965
v 0.021873 0.051506 0.063214
v -0.076456 0.003550 -0.012632
v -0.099393 0.155291 -0.007969
v -0.065608 0.155291 0.048873
v -0.050813 0.003550 0.032135
v -0.065053 0.003550 -0.071247
v -0.015543 0.003550 -0.104631
v -0.020206 0.155291 -0.127568
v -0.084569 0.155291 -0.084169
v 0.081902 -0.000000 -0.044825
v 0.046140 0.000000 -0.097862
v 0.051485 0.051506 -0.105934
v -0.020654 0.126374 0.094703
v 0.021873 0.126374 0.094520
v 0.021873 0.121012 0.073720
v -0.020654 0.121012 0.073891
v 0.015543 0.003550 0.048281
v 0.020206 0.155291 0.071218
v 0.084569 0.155291 0.027819
v 0.065053 0.003550 0.014897
v 0.021873 0.050880 0.088548
v 0.021873 0.052911 0.106592
v -0.020654 0.052911 0.106764
v -0.020654 0.050880 0.088720
v -0.016650 0.000000 -0.110077
v -0.018578 0.051506 -0.119564
v 0.099393 0.155291 -0.048381
v 0.091042 0.154788 0.032105
v 0.107001 0.154788 -0.049927
v -0.014899 0.003550 0.048409
v 0.076456 0.003550 -0.043718
v 0.043072 0.003550 -0.093228
v -0.019369 0.155291 0.071385
v 0.021752 0.154788 0.078826
v -0.020851 0.154788 0.079005
v -0.070515 0.154788 0.054425
v -0.067222 0.121012 0.050699
v -0.015960 -0.000000 0.053864
v -0.020654 0.051506 0.063367
v 0.055994 0.155291 -0.112744
v 0.022179 0.095162 0.119627
v 0.022179 0.108824 0.111632
v 0.021873 0.120621 0.121674
v 0.021873 0.095047 0.134989
v -0.069687 0.000000 -0.074315
v -0.077759 0.051506 -0.079660
v -0.020973 0.095150 0.119814
v -0.020654 0.095035 0.135176
v -0.020654 0.120620 0.121866
v -0.020973 0.108824 0.111822
v 0.021873 0.068106 0.129233
v -0.020654 0.068106 0.129408
v 0.022179 0.112478 0.093216
v 0.022179 0.065702 0.102393
v 0.022179 0.073255 0.115573
v 0.022179 0.106656 0.076967
v 0.022179 0.067374 0.069417
v -0.020973 0.067374 0.069592
v -0.020973 0.106656 0.077157
v -0.020973 0.112478 0.093406
v -0.020973 0.065777 0.089112
v -0.020973 0.073255 0.115750
v -0.020973 0.065702 0.102568
v 0.022179 0.065777 0.088937
vt 0.5414 0.6534
vt 0.5345 0.5721
vt 0.4339 0.5721
vt 0.4314 0.6534
vt 0.5436 0.5118
vt 0.5517 0.5721
vt 0.4774 0.5721
vt 0.4751 0.5118
vt 0.4799 0.6534
vt 0.4811 0.6929
vt 0.3851 0.6929
vt 0.4144 0.6529
vt 0.3364 0.6534
vt 0.3304 0.6929
vt 0.3491 0.6929
vt 0.3371 0.6514
vt 0.5515 0.5118
vt 0.5223 0.5118
vt 0.5626 0.5721
vt 0.3347 0.5031
vt 0.3353 0.6807
vt 0.3425 0.6807
vt 0.3404 0.5031
vt 0.3272 0.5031
vt 0.3229 0.5031
vt 0.3200 0.6807
vt 0.3255 0.6807
vt 0.4362 0.5118
vt 0.3741 0.5118
vt 0.3476 0.5701
vt 0.5994 0.6597
vt 0.5992 0.6597
vt 0.5749 0.6534
vt 0.5751 0.6534
vt 0.3424 0.5031
vt 0.3454 0.6807
vt 0.3398 0.6807
vt 0.3382 0.5031
vt 0.5922 0.5713
vt 0.6134 0.5737
vt 0.6136 0.5737
vt 0.5924 0.5713
vt 0.3598 0.5118
vt 0.3487 0.5721
vt 0.4320 0.6935
vt 0.5212 0.6935
vt 0.5389 0.6929
vt 0.4302 0.6929
vt 0.4072 0.5031
vt 0.4758 0.5031
vt 0.5282 0.5031
vt 0.5472 0.5031
vt 0.5471 0.5031
vt 0.5080 0.5031
vt 0.4394 0.5031
vt 0.3815 0.5031
vt 0.3681 0.5031
vt 0.3301 0.6807
vt 0.3307 0.5031
vt 0.3454 0.6807
vt 0.3424 0.5031
vt 0.5720 0.6935
vt 0.5809 0.6929
vt 0.4793 0.6935
vt 0.3901 0.6935
vt 0.5811 0.6929
vt 0.5650 0.6929
vt 0.5606 0.6534
vt 0.5517 0.5118
vt 0.5628 0.5721
vt 0.3567 0.6935
vt 0.3244 0.5031
vt 0.3219 0.6807
vt 0.6286 0.6231
vt 0.6193 0.6391
vt 0.6310 0.6529
vt 0.6466 0.6230
vt 0.3895 0.5123
vt 0.4091 0.5721
vt 0.3393 0.6935
vt 0.5722 0.6935
vt 0.5458 0.6935
vt 0.6288 0.6231
vt 0.6468 0.6230
vt 0.6312 0.6529
vt 0.6195 0.6391
vt 0.6399 0.5915
vt 0.6401 0.5915
vt 0.5977 0.6434
vt 0.6084 0.5887
vt 0.6239 0.5975
vt 0.5787 0.6366
vt 0.5699 0.5906
vt 0.5701 0.5906
vt 0.5789 0.6366
vt 0.5979 0.6434
vt 0.5929 0.5888
vt 0.6241 0.5975
vt 0.6087 0.5887
vt 0.5927 0.5888
vn 0.8273 -0.1473 0.5420
vn 0.8260 -0.1696 0.5376
vn 0.9660 -0.1679 -0.1964
vn 0.9685 -0.1524 -0.1969
vn -0.6689 -0.1866 0.7196
vn -0.6721 -0.1653 0.7217
vn -0.9719 -0.1662 0.1667
vn -0.9695 -0.1827 0.1631
vn -0.9739 -0.1510 0.1695
vn -0.9735 -0.1511 0.1715
vn -0.8241 -0.1525 -0.5456
vn -0.8241 -0.1524 -0.5456
vn -0.1969 -0.1524 -0.9685
vn -0.1969 -0.1525 -0.9685
vn 0.5456 -0.1525 -0.8241
vn 0.5456 -0.1524 -0.8241
vn 0.2877 -0.1932 0.9380
vn 0.8221 -0.1935 0.5354
vn 0.5751 -0.4175 0.7035
vn 0.7113 0.6925 -0.1201
vn 0.9744 0.1508 -0.1668
vn 0.6673 0.1492 -0.7296
vn 0.4838 0.6980 -0.5280
vn 0.6061 0.6868 0.4013
vn 0.1448 0.6868 0.7123
vn 0.1969 0.1524 0.9685
vn 0.8241 0.1524 0.5456
vn 0.9631 -0.1847 -0.1958
vn 0.5426 -0.1847 -0.8195
vn 0.5442 -0.1679 -0.8220
vn -0.0001 0.9998 -0.0211
vn -0.0001 0.9998 -0.0224
vn 0.7021 0.1698 0.6916
vn -0.6420 0.1712 0.7474
vn -0.2113 0.7029 -0.6792
vn -0.2884 0.1518 -0.9454
vn -0.8241 0.1524 -0.5456
vn -0.6061 0.6868 -0.4013
vn 0.0002 -0.9991 0.0435
vn 0.0014 -0.9390 0.3438
vn 0.0014 -0.9386 0.3449
vn 0.0002 -0.9990 0.0439
vn -0.1958 -0.1847 -0.9631
vn -0.1964 -0.1679 -0.9660
vn 0.0687 0.9975 0.0134
vn 0.1514 0.7171 -0.6804
vn -0.7123 0.6868 0.1448
vn -0.4013 0.6868 0.6061
vn -0.9685 0.1524 0.1969
vn 0.2137 0.1504 -0.9653
vn 0.0391 0.9975 0.0580
vn -0.0687 0.9975 -0.0134
vn -0.2200 -0.1482 0.9642
vn -0.6712 -0.1459 0.7267
vn -0.6735 -0.1456 0.7247
vn -0.2123 -0.1883 0.9589
vn -0.5053 -0.4230 0.7521
vn 0.0580 0.9975 -0.0391
vn -0.5456 0.1524 0.8241
vn 0.9998 0.0039 0.0198
vn 0.9998 0.0164 0.0116
vn 0.9998 0.0159 0.0123
vn 0.9998 0.0023 0.0199
vn -0.8195 -0.1847 -0.5426
vn -0.8220 -0.1679 -0.5442
vn 0.0000 -1.0000 -0.0000
vn -0.0391 0.9975 -0.0580
vn -0.0302 0.9976 0.0615
vn -0.9998 0.0040 0.0206
vn -0.9998 0.0024 0.0207
vn -0.9998 0.0165 0.0128
vn -0.9998 0.0171 0.0121
vn 0.0134 0.9975 -0.0687
vn -0.0599 0.9976 0.0358
vn 0.9685 -0.1525 -0.1969
vn 0.8256 -0.1473 0.5446
vn 0.0003 0.9978 0.0659
vn 0.0035 -0.5612 0.8277
vn 0.0043 0.1343 0.9909
vn 0.0043 0.1340 0.9910
vn 0.0035 -0.5603 0.8283
vn 0.0026 0.7968 0.6043
vn 0.0026 0.7956 0.6058
vn 0.9998 0.0215 -0.0014
vn 0.9998 0.0215 -0.0005
vn 0.9997 -0.0214 0.0071
vn 0.9998 -0.0136 0.0164
vn 0.9998 -0.0108 0.0175
vn 0.9997 -0.0214 0.0072
vn 0.9989 0.0146 -0.0456
vn 0.9992 -0.0008 -0.0411
vn -0.9991 -0.0009 -0.0427
vn -0.9988 0.0152 -0.0473
vn -0.9997 0.0224 -0.0015
vn -0.9997 0.0225 -0.0005
vn -0.9998 -0.0217 0.0002
vn -0.9998 -0.0216 0.0001
vn 0.0003 -0.9973 0.0733
vn 0.0003 -0.9972 0.0748
vn -0.0025 -0.8152 -0.5792
vn -0.0025 -0.8141 -0.5808
vn 0.0032 -0.6513 0.7588
vn 0.0032 -0.6499 0.7600
vn 0.0034 0.6058 0.7956
vn 0.0034 0.6039 0.7971
vn -0.0034 0.5790 -0.8153
vn -0.0034 0.5780 -0.8161
vn -0.0042 -0.1719 -0.9851
vn -0.0042 -0.1723 -0.9850
vn -0.9998 -0.0141 0.0170
vn -0.9997 -0.0223 0.0074
vn -0.9997 -0.0223 0.0075
vn -0.9998 -0.0113 0.0182
vn 0.2847 -0.1472 0.9472
vn 0.9998 -0.0208 0.0002
vn 0.9998 -0.0207 0.0001
vn 0.0002 0.9990 0.0437
vn 0.0002 0.9991 0.0435
vn -0.0010 0.9669 -0.2552
vn -0.0010 0.9672 -0.2539
usemtl None.009
s 1
f 1/1/1 2/2/2 3/3/3 4/4/4
f 5/5/5 6/6/6 7/7/7 8/8/8
f 9/9/9 10/10/10 11/11/11 12/12/12
f 13/13/13 14/14/14 15/15/15 16/16/16
f 17/17/17 18/18/18 2/2/2 19/19/19
f 20/20/20 21/21/21 22/22/22 23/23/23
f 24/24/24 25/25/25 26/26/26 27/27/27
f 28/28/28 29/29/29 30/30/30 3/3/3
f 31/31/31 32/32/32 33/33/33 34/34/34
f 35/35/35 36/36/36 37/37/37 38/38/38
f 18/18/18 28/28/28 3/3/3 2/2/2
f 39/39/39 40/40/40 41/41/41 42/42/42
f 29/29/29 43/43/43 44/44/44 30/30/30
f 45/45/45 37/46/45 46/47/45 47/48/45
f 24/49/24 20/50/20 23/51/23 48/52/46 35/53/35 38/54/38 49/55/47 50/56/48 25/57/25
f 38/38/38 37/37/37 45/58/49 49/59/47
f 51/60/50 36/36/36 35/35/35 48/61/46
f 37/46/51 36/62/51 52/63/51 46/47/51
f 21/64/52 27/65/52 11/11/52 10/10/52
f 34/34/34 53/66/53 54/67/54 55/68/55
f 55/68/55 9/9/9 7/7/7 6/6/6
f 56/69/56 57/70/57 6/6/6 5/5/5
f 58/71/58 45/45/58 47/48/58 15/15/58
f 50/72/48 58/73/59 26/26/26 25/25/25
f 59/74/60 60/75/61 61/76/62 62/77/63
f 11/11/11 14/14/14 13/13/13 12/12/12
f 44/44/44 43/43/43 63/78/64 64/79/65
f 1/1/1 33/33/33 19/19/19 2/2/2
f 4/4/4 3/3/3 30/30/30 16/16/16
f 17/17/17 19/19/19 57/70/57 56/69/56
f 43/43/66 29/29/66 28/28/66 18/18/66 17/17/66 56/69/66 5/5/66 8/8/66 63/78/66
f 24/24/24 27/27/27 21/21/21 20/20/20
f 27/65/67 26/80/67 14/14/67 11/11/67
f 51/81/68 22/82/68 54/67/68 53/66/68
f 65/83/69 66/84/70 67/85/71 68/86/72
f 13/13/13 16/16/16 30/30/30 44/44/44
f 64/79/65 12/12/12 13/13/13 44/44/44
f 57/70/57 34/34/34 55/68/55 6/6/6
f 26/80/73 58/71/73 15/15/73 14/14/73
f 22/82/74 21/64/74 10/10/74 54/67/74
f 12/12/12 64/79/65 7/7/7 9/9/9
f 16/16/16 15/15/15 47/48/75 4/4/4
f 55/68/55 54/67/54 10/10/10 9/9/9
f 4/4/4 47/48/75 46/47/76 1/1/1
f 36/62/77 51/81/77 53/66/77 52/63/77
f 69/87/78 62/77/79 66/84/80 70/88/81
f 61/76/82 32/32/32 31/31/31 67/85/83
f 71/89/84 32/32/85 61/76/62 60/75/61
f 72/90/86 73/91/87 69/87/88 40/40/89
f 74/92/90 75/93/91 19/19/19 33/33/33
f 76/94/92 77/95/93 34/34/34 57/70/57
f 69/87/78 70/88/81 41/41/41 40/40/40
f 62/77/79 61/76/82 67/85/83 66/84/80
f 78/96/94 68/86/72 67/85/71 31/31/95
f 79/97/96 76/94/92 57/70/57 42/42/97
f 78/96/98 71/89/99 60/75/100 68/86/101
f 71/89/84 74/92/90 33/33/33 32/32/85
f 71/89/99 78/96/98 77/95/102 74/92/103
f 74/92/103 77/95/102 76/94/104 75/93/105
f 73/91/106 80/98/107 65/83/108 59/74/109
f 80/98/110 81/99/111 41/41/112 70/88/113
f 65/83/69 80/98/110 70/88/113 66/84/70
f 65/83/108 68/86/101 60/75/100 59/74/109
f 33/33/33 52/63/114 53/66/53 34/34/34
f 82/100/115 72/90/86 40/40/89 39/39/116
f 82/100/117 79/97/118 81/99/119 72/90/120
f 75/93/105 76/94/104 79/97/118 82/100/117
f 75/93/91 82/100/115 39/39/116 19/19/19
f 81/99/111 79/97/96 42/42/97 41/41/112
f 73/91/87 59/74/60 62/77/63 69/87/88
f 77/95/93 78/96/94 31/31/95 34/34/34
f 49/59/47 45/58/49 58/73/59 50/72/48
f 19/19/19 39/39/39 42/42/42 57/70/57
f 80/98/107 73/91/106 72/90/120 81/99/119
f 1/1/1 46/47/76 52/63/114 33/33/33
f 7/7/7 64/79/65 63/78/64 8/8/8
f 48/61/46 23/23/23 22/22/22 51/60/50
