# Blender v2.79 (sub 0) OBJ File: 'mod_Puppentasse.blend'
# www.blender.org
mtllib mod_Puppentasse.mtl
g Puppentasse
v 0.020206 0.155291 0.099393
v -0.084569 0.155291 -0.055994
v 0.084569 0.155291 0.055994
v -0.099393 0.155291 0.020206
v 0.099393 0.155291 -0.020206
v -0.065608 0.155291 0.077048
v 0.055994 0.155291 -0.084569
v -0.019369 0.155291 0.099560
v -0.020206 0.155291 -0.099393
v -0.015543 0.003550 -0.076456
v -0.014899 0.003550 0.076584
v 0.043072 0.003550 -0.065053
v -0.050813 0.003550 0.060310
v 0.076456 0.003550 -0.015543
v -0.076456 0.003550 0.015543
v 0.065053 0.003550 0.043072
v -0.065053 0.003550 -0.043072
v 0.015543 0.003550 0.076456
v 0.021752 0.154788 0.107001
v 0.021873 0.121012 0.101895
v -0.086698 0.121012 -0.057404
v -0.091042 0.154788 -0.060280
v 0.086698 0.121012 0.057404
v 0.091042 0.154788 0.060280
v -0.101895 0.121012 0.020714
v -0.107001 0.154788 0.021752
v 0.101895 0.121012 -0.020714
v 0.107001 0.154788 -0.021752
v -0.067222 0.121012 0.078874
v -0.070515 0.154788 0.082600
v 0.057404 0.121012 -0.086698
v 0.060280 0.154788 -0.091042
v -0.020654 0.121012 0.102066
v -0.020851 0.154788 0.107180
v -0.021752 0.154788 -0.107001
v -0.020714 0.121012 -0.101895
v -0.016650 0.000000 -0.081902
v -0.015960 -0.000000 0.082039
v 0.046140 0.000000 -0.069687
v -0.054325 -0.000000 0.064284
v 0.081902 -0.000000 -0.016650
v -0.081902 -0.000000 0.016650
v 0.069687 -0.000000 0.046140
v -0.069687 -0.000000 -0.046140
v 0.016650 -0.000000 0.081902
v -0.018578 0.051506 -0.091389
v 0.051485 0.051506 -0.077759
v -0.020654 0.051506 0.091542
v -0.060445 0.051506 0.071207
v 0.091389 0.051506 -0.018578
v -0.091389 0.051506 0.018579
v 0.077759 0.051506 0.051485
v -0.077759 0.051506 -0.051485
v 0.021873 0.051506 0.091389
v 0.021873 0.126374 0.122695
v 0.021873 0.052911 0.134767
v -0.020654 0.050880 0.116895
v -0.020654 0.095035 0.163351
v -0.020654 0.120620 0.150041
v 0.022179 0.095162 0.147802
v -0.020973 0.095150 0.147989
v 0.022179 0.065702 0.130568
v -0.020973 0.065702 0.130743
v 0.022179 0.106656 0.105142
v 0.022179 0.067374 0.097592
v -0.020973 0.067374 0.097767
v -0.020973 0.106656 0.105332
v 0.021873 0.095047 0.163164
v -0.020973 0.073255 0.143925
v -0.020654 0.068106 0.157583
v -0.020973 0.065777 0.117287
v -0.020973 0.108824 0.139997
v 0.022179 0.112478 0.121391
v -0.020973 0.112478 0.121581
v 0.021873 0.120621 0.149849
v -0.020654 0.052911 0.134939
v 0.022179 0.108824 0.139807
v 0.022179 0.073255 0.143748
v 0.021873 0.068106 0.157408
v 0.022179 0.065777 0.117112
v 0.021873 0.050880 0.116723
v -0.020654 0.126374 0.122878
vn 0.8273 -0.1473 0.5420
vn 0.8260 -0.1696 0.5376
vn 0.9660 -0.1679 -0.1964
vn 0.9685 -0.1524 -0.1969
vn -0.6689 -0.1866 0.7196
vn -0.6721 -0.1653 0.7217
vn -0.9719 -0.1663 0.1667
vn -0.9695 -0.1827 0.1631
vn -0.9739 -0.1510 0.1695
vn -0.9735 -0.1510 0.1715
vn -0.8241 -0.1524 -0.5456
vn -0.1969 -0.1524 -0.9685
vn 0.5456 -0.1524 -0.8241
vn 0.2877 -0.1932 0.9380
vn 0.8221 -0.1935 0.5354
vn 0.5751 -0.4175 0.7035
vn 0.7113 0.6925 -0.1201
vn 0.9744 0.1508 -0.1668
vn 0.6673 0.1492 -0.7296
vn 0.4838 0.6980 -0.5280
vn 0.6061 0.6868 0.4013
vn 0.1448 0.6868 0.7123
vn 0.1969 0.1524 0.9685
vn 0.8241 0.1524 0.5456
vn 0.9631 -0.1847 -0.1958
vn 0.5426 -0.1847 -0.8195
vn 0.5442 -0.1679 -0.8220
vn -0.0001 0.9998 -0.0211
vn -0.0001 0.9997 -0.0224
vn 0.7021 0.1698 0.6916
vn -0.6420 0.1712 0.7474
vn -0.2113 0.7029 -0.6792
vn -0.2884 0.1518 -0.9454
vn -0.8241 0.1524 -0.5456
vn -0.6061 0.6868 -0.4013
vn 0.0002 -0.9991 0.0435
vn 0.0014 -0.9390 0.3438
vn 0.0014 -0.9386 0.3449
vn 0.0002 -0.9990 0.0439
vn -0.1958 -0.1847 -0.9631
vn -0.1964 -0.1679 -0.9660
vn 0.0687 0.9975 0.0134
vn 0.1514 0.7171 -0.6804
vn -0.7123 0.6868 0.1448
vn -0.4013 0.6868 0.6061
vn -0.9685 0.1524 0.1969
vn 0.2137 0.1504 -0.9653
vn 0.0391 0.9975 0.0580
vn -0.0687 0.9975 -0.0134
vn -0.2200 -0.1482 0.9642
vn -0.6712 -0.1459 0.7267
vn -0.6735 -0.1456 0.7247
vn -0.2122 -0.1883 0.9589
vn -0.5053 -0.4230 0.7521
vn 0.0580 0.9975 -0.0391
vn -0.5456 0.1524 0.8241
vn 0.9998 0.0039 0.0197
vn 0.9998 0.0164 0.0116
vn 0.9998 0.0159 0.0122
vn 0.9998 0.0023 0.0199
vn -0.8195 -0.1847 -0.5426
vn -0.8220 -0.1679 -0.5442
vn -0.0000 -1.0000 -0.0000
vn -0.0391 0.9975 -0.0580
vn -0.0302 0.9976 0.0616
vn -0.9998 0.0040 0.0206
vn -0.9998 0.0024 0.0207
vn -0.9998 0.0166 0.0128
vn -0.9998 0.0171 0.0121
vn 0.0134 0.9975 -0.0687
vn -0.0599 0.9976 0.0358
vn 0.8256 -0.1473 0.5446
vn 0.0003 0.9978 0.0659
vn 0.0035 -0.5612 0.8277
vn 0.0043 0.1343 0.9909
vn 0.0043 0.1340 0.9910
vn 0.0035 -0.5603 0.8283
vn 0.0026 0.7968 0.6043
vn 0.0027 0.7956 0.6058
vn 0.9998 0.0215 -0.0014
vn 0.9998 0.0215 -0.0005
vn 0.9997 -0.0214 0.0071
vn 0.9998 -0.0136 0.0163
vn 0.9998 -0.0108 0.0175
vn 0.9997 -0.0214 0.0072
vn 0.9989 0.0146 -0.0456
vn 0.9992 -0.0008 -0.0411
vn -0.9991 -0.0009 -0.0427
vn -0.9988 0.0152 -0.0474
vn -0.9997 0.0224 -0.0015
vn -0.9997 0.0225 -0.0005
vn -0.9998 -0.0217 0.0002
vn -0.9998 -0.0217 0.0001
vn 0.0003 -0.9973 0.0733
vn 0.0003 -0.9972 0.0748
vn -0.0025 -0.8152 -0.5792
vn -0.0025 -0.8141 -0.5808
vn 0.0032 -0.6513 0.7588
vn 0.0032 -0.6499 0.7600
vn 0.0034 0.6057 0.7957
vn 0.0034 0.6039 0.7971
vn -0.0034 0.5790 -0.8153
vn -0.0034 0.5779 -0.8161
vn -0.0042 -0.1719 -0.9851
vn -0.0042 -0.1723 -0.9850
vn -0.9998 -0.0142 0.0171
vn -0.9997 -0.0224 0.0074
vn -0.9997 -0.0224 0.0075
vn -0.9998 -0.0113 0.0183
vn 0.2847 -0.1472 0.9472
vn 0.9998 -0.0208 0.0002
vn 0.9998 -0.0207 0.0001
vn 0.0002 0.9990 0.0437
vn 0.0002 0.9991 0.0435
vn -0.0010 0.9669 -0.2552
vn -0.0010 0.9672 -0.2539
usemtl None
s 1
f 23//1 52//2 50//3 27//4
f 40//5 49//6 51//7 42//8
f 25//9 26//10 22//11 21//11
f 36//12 35//12 32//13 31//13
f 45//14 43//15 52//2 54//16
f 15//17 4//18 6//19 13//20
f 17//21 10//22 9//23 2//24
f 41//25 39//26 47//27 50//3
f 82//28 55//29 20//30 33//31
f 18//32 1//33 3//34 16//35
f 43//15 41//25 50//3 52//2
f 81//36 56//37 76//38 57//39
f 39//26 37//40 46//41 47//27
f 5//42 3//42 24//42 28//42
f 17//21 15//17 13//20 11//43 18//32 16//35 14//44 12//45 10//22
f 16//35 3//34 5//46 14//44
f 8//47 1//33 18//32 11//43
f 3//48 1//48 19//48 24//48
f 4//49 2//49 22//49 26//49
f 33//31 34//50 30//51 29//52
f 29//52 25//9 51//7 49//6
f 38//53 48//54 49//6 40//5
f 7//55 5//55 28//55 32//55
f 12//45 7//56 9//23 10//22
f 60//57 77//58 75//59 68//60
f 22//11 35//12 36//12 21//11
f 46//41 37//40 44//61 53//62
f 23//1 20//30 54//16 52//2
f 27//4 50//3 47//27 31//13
f 45//14 54//16 48//54 38//53
f 37//63 39//63 41//63 43//63 45//63 38//63 40//63 42//63 44//63
f 17//21 2//24 4//18 15//17
f 2//64 9//64 35//64 22//64
f 8//65 6//65 30//65 34//65
f 61//66 58//67 59//68 72//69
f 36//12 31//13 47//27 46//41
f 53//62 21//11 36//12 46//41
f 48//54 33//31 29//52 49//6
f 9//70 7//70 32//70 35//70
f 6//71 4//71 26//71 30//71
f 21//11 53//62 51//7 25//9
f 31//13 32//13 28//4 27//4
f 29//52 30//51 26//10 25//9
f 27//4 28//4 24//72 23//1
f 1//73 8//73 34//73 19//73
f 79//74 68//75 58//76 70//77
f 75//78 55//29 82//28 59//79
f 73//80 55//81 75//59 77//58
f 62//82 78//83 79//84 56//85
f 64//86 65//87 54//16 20//30
f 66//88 67//89 33//31 48//54
f 79//74 70//77 76//38 56//37
f 68//75 75//78 59//79 58//76
f 74//90 72//69 59//68 82//91
f 71//92 66//88 48//54 57//93
f 74//94 73//95 77//96 72//97
f 73//80 64//86 20//30 55//81
f 73//95 74//94 67//98 64//99
f 64//99 67//98 66//100 65//101
f 78//102 69//103 61//104 60//105
f 69//106 63//107 76//108 70//109
f 61//66 69//106 70//109 58//67
f 61//104 72//97 77//96 60//105
f 20//30 19//110 34//50 33//31
f 80//111 62//82 56//85 81//112
f 80//113 71//114 63//115 62//116
f 65//101 66//100 71//114 80//113
f 65//87 80//111 81//112 54//16
f 63//107 71//92 57//93 76//108
f 78//83 60//57 68//60 79//84
f 67//89 74//90 82//91 33//31
f 14//44 5//46 7//56 12//45
f 54//16 81//36 57//39 48//54
f 69//103 78//102 62//116 63//115
f 23//1 24//72 19//110 20//30
f 51//7 53//62 44//61 42//8
f 11//43 13//20 6//19 8//47
