# Blender v2.78 (sub 0) OBJ File: 'FantasyUVs2.blend'
# www.blender.org
mtllib mod_Bücher_Fantasie.mtl
g Buch.002
v 0.000000 0.000000 0.000000
v 0.000000 -0.000000 0.473139
v -0.020045 -0.000000 0.473139
v -0.020045 -0.000000 0.007904
v -0.062000 0.000000 -0.004978
v -0.072118 -0.000000 0.007903
v -0.020045 0.008390 0.007904
v -0.072118 0.008390 0.007903
v 0.000000 0.600000 0.000000
v -0.062000 0.600000 -0.004977
v -0.124000 0.000000 -0.006861
v -0.124000 0.600000 -0.006861
v -0.186000 0.600000 -0.004978
v -0.248000 0.600000 0.000000
v -0.228340 0.600000 0.007903
v -0.176266 0.600000 0.007903
v -0.176266 0.593105 0.461589
v -0.228340 0.593105 0.461589
v -0.228340 0.008390 0.461588
v -0.176266 0.008390 0.461588
v -0.228340 -0.000000 0.473138
v -0.228340 -0.000000 0.007903
v -0.228340 0.008390 0.007903
v -0.248000 -0.000000 0.473138
v -0.248000 0.000000 0.000000
v -0.176266 0.008390 0.007903
v -0.020045 0.593105 0.461589
v -0.020045 0.008390 0.461588
v -0.020045 0.600000 0.473139
v 0.000000 0.600000 0.473139
v -0.020045 0.600000 0.007903
v -0.248000 0.600000 0.473138
v -0.228340 0.600000 0.473138
v -0.176266 0.593105 0.007903
v -0.228340 0.593105 0.007903
v -0.020045 0.593105 0.007903
v -0.186000 0.000000 -0.004978
v -0.072118 0.600000 0.007903
v -0.072118 0.593105 0.007903
v -0.124192 0.600000 0.007903
v -0.124192 0.593105 0.007903
v -0.072118 0.593105 0.461589
v -0.124192 0.593105 0.461589
v -0.072118 0.008390 0.461588
v -0.124192 0.008390 0.461588
v -0.124192 0.008390 0.007903
v -0.176266 -0.000000 0.007903
v -0.124192 -0.000000 0.007903
vt 0.5507 0.7120
vt 0.5260 0.7120
vt 0.5260 0.7120
vt 0.5503 0.7120
vt 0.5510 0.7120
vt 0.5503 0.7120
vt 0.5503 0.7158
vt 0.5503 0.7158
vt 0.5507 0.9854
vt 0.5510 0.9854
vt 0.5511 0.7120
vt 0.5511 0.9854
vt 0.5510 0.9854
vt 0.5507 0.9854
vt 0.5503 0.9854
vt 0.5503 0.9854
vt 0.3586 0.9798
vt 0.3586 0.9798
vt 0.3586 0.7134
vt 0.3586 0.7134
vt 0.5260 0.7120
vt 0.5503 0.7120
vt 0.5503 0.7158
vt 0.5266 0.7158
vt 0.5260 0.7120
vt 0.5507 0.7120
vt 0.3823 0.7134
vt 0.3823 0.7134
vt 0.5266 0.9823
vt 0.5266 0.7158
vt 0.5260 0.9854
vt 0.5260 0.9854
vt 0.5503 0.9854
vt 0.5260 0.9854
vt 0.5260 0.9854
vt 0.3823 0.9798
vt 0.3823 0.9798
vt 0.5503 0.9823
vt 0.5266 0.9823
vt 0.5503 0.9823
vt 0.5503 0.9823
vt 0.5510 0.7120
vt 0.5503 0.9854
vt 0.5503 0.9823
vt 0.5503 0.9854
vt 0.5503 0.9823
vt 0.3823 0.9798
vt 0.3823 0.9798
vt 0.3586 0.9798
vt 0.3586 0.9798
vt 0.3823 0.9798
vt 0.3586 0.9798
vt 0.3823 0.7134
vt 0.3586 0.7134
vt 0.3586 0.7134
vt 0.3823 0.7134
vt 0.3586 0.7134
vt 0.3823 0.7134
vt 0.5503 0.7120
vt 0.5503 0.7158
vt 0.5503 0.7120
vt 0.5503 0.7158
vn 0.0000 -1.0000 -0.0000
vn -0.0000 -0.0000 1.0000
vn 0.0800 0.0000 -0.9968
vn 0.0552 0.0000 -0.9985
vn 0.0000 0.0000 -1.0000
vn 0.0000 1.0000 -0.0000
vn 1.0000 -0.0000 0.0000
vn -1.0000 -0.0000 0.0000
vn -0.0552 0.0000 -0.9985
vn 0.7071 -0.0000 0.7071
vn -0.7071 -0.0000 0.7071
vn -0.0800 0.0000 -0.9968
usemtl Material.001
s 1
f 1/1/1 2/2/1 3/3/1 4/4/1
f 5/5/1 1/1/1 4/4/1 6/6/1
f 6/6/2 4/4/2 7/7/2 8/8/2
f 9/9/3 1/1/3 5/5/4 10/10/4
f 10/10/4 5/5/4 11/11/5 12/12/5
f 13/13/6 14/14/6 15/15/6 16/16/6
f 17/17/2 18/18/2 19/19/2 20/20/2
f 21/21/7 22/22/7 23/23/7 19/24/7
f 24/25/1 25/26/1 22/22/1 21/21/1
f 26/27/1 20/20/1 19/19/1 23/28/1
f 27/29/8 28/30/8 3/3/8 29/31/8
f 30/32/6 9/9/6 31/33/6 29/31/6
f 14/14/6 32/34/6 33/35/6 15/15/6
f 34/36/6 35/37/6 18/18/6 17/17/6
f 29/31/8 31/33/8 36/38/8 27/29/8
f 15/15/7 33/35/7 18/39/7 35/40/7
f 16/16/2 15/15/2 35/40/2 34/41/2
f 4/4/8 3/3/8 28/30/8 7/7/8
f 12/12/5 11/11/5 37/42/9 13/13/9
f 1/1/7 9/9/7 30/32/10 2/2/10
f 3/3/2 2/2/10 30/32/10 29/31/2
f 21/21/7 19/24/7 18/39/7 33/35/7
f 24/25/11 21/21/2 33/35/2 32/34/11
f 31/33/2 38/43/2 39/44/2 36/38/2
f 38/43/2 40/45/2 41/46/2 39/44/2
f 40/45/2 16/16/2 34/41/2 41/46/2
f 36/47/6 39/48/6 42/49/6 27/50/6
f 39/48/6 41/51/6 43/52/6 42/49/6
f 41/51/6 34/36/6 17/17/6 43/52/6
f 7/53/1 28/54/1 44/55/1 8/56/1
f 8/56/1 44/55/1 45/57/1 46/58/1
f 46/58/1 45/57/1 20/20/1 26/27/1
f 27/50/2 42/49/2 44/55/2 28/54/2
f 42/49/2 43/52/2 45/57/2 44/55/2
f 43/52/2 17/17/2 20/20/2 45/57/2
f 9/9/6 10/10/6 38/43/6 31/33/6
f 10/10/6 12/12/6 40/45/6 38/43/6
f 12/12/6 13/13/6 16/16/6 40/45/6
f 13/13/9 37/42/9 25/26/12 14/14/12
f 24/25/11 32/34/11 14/14/8 25/26/8
f 22/22/2 47/59/2 26/60/2 23/23/2
f 47/59/2 48/61/2 46/62/2 26/60/2
f 48/61/2 6/6/2 8/8/2 46/62/2
f 25/26/1 37/42/1 47/59/1 22/22/1
f 37/42/1 11/11/1 48/61/1 47/59/1
f 11/11/1 5/5/1 6/6/1 48/61/1
g Buch.001
v 0.000000 0.000000 0.000000
v 0.000000 -0.000000 0.473139
v -0.013579 -0.000000 0.473139
v -0.013579 -0.000000 0.007904
v -0.042000 0.000000 -0.004978
v -0.048854 -0.000000 0.007903
v -0.013579 0.008390 0.007904
v -0.048854 0.008390 0.007903
v 0.000000 0.600000 0.000000
v -0.042000 0.600000 -0.004977
v -0.084000 0.000000 -0.006861
v -0.084000 0.600000 -0.006861
v -0.126000 0.600000 -0.004978
v -0.168000 0.600000 0.000000
v -0.154682 0.600000 0.007903
v -0.119406 0.600000 0.007903
v -0.119406 0.593105 0.461589
v -0.154682 0.593105 0.461589
v -0.154682 0.008390 0.461588
v -0.119406 0.008390 0.461588
v -0.154682 -0.000000 0.473138
v -0.154682 -0.000000 0.007903
v -0.154682 0.008390 0.007903
v -0.168000 -0.000000 0.473138
v -0.168000 0.000000 0.000000
v -0.119406 0.008390 0.007903
v -0.013579 0.593105 0.461589
v -0.013579 0.008390 0.461588
v -0.013579 0.600000 0.473139
v 0.000000 0.600000 0.473139
v -0.013579 0.600000 0.007903
v -0.168000 0.600000 0.473138
v -0.154682 0.600000 0.473138
v -0.119406 0.593105 0.007903
v -0.154682 0.593105 0.007903
v -0.013579 0.593105 0.007903
v -0.126000 0.000000 -0.004978
v -0.048854 0.600000 0.007903
v -0.048854 0.593105 0.007903
v -0.084130 0.600000 0.007903
v -0.084130 0.593105 0.007903
v -0.048854 0.593105 0.461589
v -0.084130 0.593105 0.461589
v -0.048854 0.008390 0.461588
v -0.084130 0.008390 0.461588
v -0.084130 0.008390 0.007903
v -0.119406 -0.000000 0.007903
v -0.084130 -0.000000 0.007903
vt 0.4882 0.7120
vt 0.4635 0.7120
vt 0.4635 0.7120
vt 0.4878 0.7120
vt 0.4885 0.7120
vt 0.4878 0.7120
vt 0.4878 0.7158
vt 0.4878 0.7158
vt 0.4882 0.9854
vt 0.4885 0.9854
vt 0.4886 0.7120
vt 0.4886 0.9854
vt 0.4885 0.9854
vt 0.4882 0.9854
vt 0.4878 0.9854
vt 0.4878 0.9854
vt 0.3586 0.9798
vt 0.3586 0.9798
vt 0.3586 0.7134
vt 0.3586 0.7134
vt 0.4635 0.7120
vt 0.4878 0.7120
vt 0.4878 0.7158
vt 0.4641 0.7158
vt 0.4635 0.7120
vt 0.4882 0.7120
vt 0.3823 0.7134
vt 0.3823 0.7134
vt 0.4641 0.9823
vt 0.4641 0.7158
vt 0.4635 0.9854
vt 0.4635 0.9854
vt 0.4878 0.9854
vt 0.4635 0.9854
vt 0.4635 0.9854
vt 0.3823 0.9798
vt 0.3823 0.9798
vt 0.4878 0.9823
vt 0.4641 0.9823
vt 0.4878 0.9823
vt 0.4878 0.9823
vt 0.4885 0.7120
vt 0.4878 0.9854
vt 0.4878 0.9823
vt 0.4878 0.9854
vt 0.4878 0.9823
vt 0.3823 0.9798
vt 0.3823 0.9798
vt 0.3586 0.9798
vt 0.3586 0.9798
vt 0.3823 0.9798
vt 0.3586 0.9798
vt 0.3823 0.7134
vt 0.3586 0.7134
vt 0.3586 0.7134
vt 0.3823 0.7134
vt 0.3586 0.7134
vt 0.3823 0.7134
vt 0.4878 0.7120
vt 0.4878 0.7158
vt 0.4878 0.7120
vt 0.4878 0.7158
vn 0.0000 -1.0000 -0.0000
vn -0.0000 -0.0000 1.0000
vn 0.1177 0.0000 -0.9931
vn 0.0813 0.0000 -0.9967
vn 0.0000 0.0000 -1.0000
vn 0.0000 1.0000 0.0000
vn 1.0000 0.0000 0.0000
vn -1.0000 0.0000 0.0000
vn -0.0813 0.0000 -0.9967
vn 0.7071 -0.0000 0.7071
vn -0.7071 -0.0000 0.7071
vn -0.1177 0.0000 -0.9930
usemtl Material.001
s 1
f 49/63/13 50/64/13 51/65/13 52/66/13
f 53/67/13 49/63/13 52/66/13 54/68/13
f 54/68/14 52/66/14 55/69/14 56/70/14
f 57/71/15 49/63/15 53/67/16 58/72/16
f 58/72/16 53/67/16 59/73/17 60/74/17
f 61/75/18 62/76/18 63/77/18 64/78/18
f 65/79/14 66/80/14 67/81/14 68/82/14
f 69/83/19 70/84/19 71/85/19 67/86/19
f 72/87/13 73/88/13 70/84/13 69/83/13
f 74/89/13 68/82/13 67/81/13 71/90/13
f 75/91/20 76/92/20 51/65/20 77/93/20
f 78/94/18 57/71/18 79/95/18 77/93/18
f 62/76/18 80/96/18 81/97/18 63/77/18
f 82/98/18 83/99/18 66/80/18 65/79/18
f 77/93/20 79/95/20 84/100/20 75/91/20
f 63/77/19 81/97/19 66/101/19 83/102/19
f 64/78/14 63/77/14 83/102/14 82/103/14
f 52/66/20 51/65/20 76/92/20 55/69/20
f 60/74/17 59/73/17 85/104/21 61/75/21
f 49/63/19 57/71/19 78/94/22 50/64/22
f 51/65/14 50/64/22 78/94/22 77/93/14
f 69/83/19 67/86/19 66/101/19 81/97/19
f 72/87/23 69/83/14 81/97/14 80/96/23
f 79/95/14 86/105/14 87/106/14 84/100/14
f 86/105/14 88/107/14 89/108/14 87/106/14
f 88/107/14 64/78/14 82/103/14 89/108/14
f 84/109/18 87/110/18 90/111/18 75/112/18
f 87/110/18 89/113/18 91/114/18 90/111/18
f 89/113/18 82/98/18 65/79/18 91/114/18
f 55/115/13 76/116/13 92/117/13 56/118/13
f 56/118/13 92/117/13 93/119/13 94/120/13
f 94/120/13 93/119/13 68/82/13 74/89/13
f 75/112/14 90/111/14 92/117/14 76/116/14
f 90/111/14 91/114/14 93/119/14 92/117/14
f 91/114/14 65/79/14 68/82/14 93/119/14
f 57/71/18 58/72/18 86/105/18 79/95/18
f 58/72/18 60/74/18 88/107/18 86/105/18
f 60/74/18 61/75/18 64/78/18 88/107/18
f 61/75/21 85/104/21 73/88/24 62/76/24
f 72/87/23 80/96/23 62/76/20 73/88/20
f 70/84/14 95/121/14 74/122/14 71/85/14
f 95/121/14 96/123/14 94/124/14 74/122/14
f 96/123/14 54/68/14 56/70/14 94/124/14
f 73/88/13 85/104/13 95/121/13 70/84/13
f 85/104/13 59/73/13 96/123/13 95/121/13
f 59/73/13 53/67/13 54/68/13 96/123/13
g Buch
v 0.000000 0.000000 0.000000
v 0.000000 -0.000000 0.473139
v -0.006466 -0.000000 0.473139
v -0.006466 -0.000000 0.007904
v -0.020000 0.000000 -0.004978
v -0.023264 -0.000000 0.007903
v -0.006466 0.008390 0.007904
v -0.023264 0.008390 0.007903
v 0.000000 0.600000 0.000000
v -0.020000 0.600000 -0.004977
v -0.040000 0.000000 -0.006861
v -0.040000 0.600000 -0.006861
v -0.060000 0.600000 -0.004978
v -0.080000 0.600000 0.000000
v -0.073658 0.600000 0.007903
v -0.056860 0.600000 0.007903
v -0.056860 0.593105 0.461589
v -0.073658 0.593105 0.461589
v -0.073658 0.008390 0.461588
v -0.056860 0.008390 0.461588
v -0.073658 -0.000000 0.473138
v -0.073658 -0.000000 0.007903
v -0.073658 0.008390 0.007903
v -0.080000 -0.000000 0.473138
v -0.080000 0.000000 0.000000
v -0.056860 0.008390 0.007903
v -0.006466 0.593105 0.461589
v -0.006466 0.008390 0.461588
v -0.006466 0.600000 0.473139
v 0.000000 0.600000 0.473139
v -0.006466 0.600000 0.007903
v -0.080000 0.600000 0.473138
v -0.073658 0.600000 0.473138
v -0.056860 0.593105 0.007903
v -0.073658 0.593105 0.007903
v -0.006466 0.593105 0.007903
v -0.060000 0.000000 -0.004978
v -0.023264 0.600000 0.007903
v -0.023264 0.593105 0.007903
v -0.040062 0.600000 0.007903
v -0.040062 0.593105 0.007903
v -0.023264 0.593105 0.461589
v -0.040062 0.593105 0.461589
v -0.023264 0.008390 0.461588
v -0.040062 0.008390 0.461588
v -0.040062 0.008390 0.007903
v -0.056860 -0.000000 0.007903
v -0.040062 -0.000000 0.007903
vt 0.4257 0.7120
vt 0.4010 0.7120
vt 0.4010 0.7120
vt 0.4253 0.7120
vt 0.4260 0.7120
vt 0.4253 0.7120
vt 0.4253 0.7158
vt 0.4253 0.7158
vt 0.4257 0.9854
vt 0.4260 0.9854
vt 0.4261 0.7120
vt 0.4261 0.9854
vt 0.4260 0.9854
vt 0.4257 0.9854
vt 0.4253 0.9854
vt 0.4253 0.9854
vt 0.3586 0.9798
vt 0.3586 0.9798
vt 0.3586 0.7134
vt 0.3586 0.7134
vt 0.4010 0.7120
vt 0.4253 0.7120
vt 0.4253 0.7158
vt 0.4016 0.7158
vt 0.4010 0.7120
vt 0.4257 0.7120
vt 0.3823 0.7134
vt 0.3823 0.7134
vt 0.4016 0.9823
vt 0.4016 0.7158
vt 0.4010 0.9854
vt 0.4010 0.9854
vt 0.4253 0.9854
vt 0.4010 0.9854
vt 0.4010 0.9854
vt 0.3823 0.9798
vt 0.3823 0.9798
vt 0.4253 0.9823
vt 0.4016 0.9823
vt 0.4253 0.9823
vt 0.4253 0.9823
vt 0.4260 0.7120
vt 0.4253 0.9854
vt 0.4253 0.9823
vt 0.4253 0.9854
vt 0.4253 0.9823
vt 0.3823 0.9798
vt 0.3823 0.9798
vt 0.3586 0.9798
vt 0.3586 0.9798
vt 0.3823 0.9798
vt 0.3586 0.9798
vt 0.3823 0.7134
vt 0.3586 0.7134
vt 0.3586 0.7134
vt 0.3823 0.7134
vt 0.3586 0.7134
vt 0.3823 0.7134
vt 0.4253 0.7120
vt 0.4253 0.7158
vt 0.4253 0.7120
vt 0.4253 0.7158
vn 0.0000 -1.0000 -0.0000
vn -0.0000 -0.0000 1.0000
vn -0.0001 -0.0000 1.0000
vn 0.2415 0.0000 -0.9704
vn 0.1681 0.0000 -0.9858
vn 0.0000 0.0000 -1.0000
vn 0.0000 1.0000 0.0000
vn 1.0000 0.0000 0.0000
vn -1.0000 -0.0000 0.0000
vn -0.1681 0.0000 -0.9858
vn 0.7071 -0.0000 0.7071
vn -0.7071 -0.0000 0.7071
vn -0.2415 0.0000 -0.9704
usemtl Material.001
s 1
f 97/125/25 98/126/25 99/127/25 100/128/25
f 101/129/25 97/125/25 100/128/25 102/130/25
f 102/130/26 100/128/27 103/131/27 104/132/26
f 105/133/28 97/125/28 101/129/29 106/134/29
f 106/134/29 101/129/29 107/135/30 108/136/30
f 109/137/31 110/138/31 111/139/31 112/140/31
f 113/141/26 114/142/26 115/143/26 116/144/26
f 117/145/32 118/146/32 119/147/32 115/148/32
f 120/149/25 121/150/25 118/146/25 117/145/25
f 122/151/25 116/144/25 115/143/25 119/152/25
f 123/153/33 124/154/33 99/127/33 125/155/33
f 126/156/31 105/133/31 127/157/31 125/155/31
f 110/138/31 128/158/31 129/159/31 111/139/31
f 130/160/31 131/161/31 114/142/31 113/141/31
f 125/155/33 127/157/33 132/162/33 123/153/33
f 111/139/32 129/159/32 114/163/32 131/164/32
f 112/140/26 111/139/26 131/164/26 130/165/26
f 100/128/33 99/127/33 124/154/33 103/131/33
f 108/136/30 107/135/30 133/166/34 109/137/34
f 97/125/32 105/133/32 126/156/35 98/126/35
f 99/127/26 98/126/35 126/156/35 125/155/26
f 117/145/32 115/148/32 114/163/32 129/159/32
f 120/149/36 117/145/26 129/159/26 128/158/36
f 127/157/26 134/167/26 135/168/26 132/162/26
f 134/167/26 136/169/26 137/170/26 135/168/26
f 136/169/26 112/140/26 130/165/26 137/170/26
f 132/171/31 135/172/31 138/173/31 123/174/31
f 135/172/31 137/175/31 139/176/31 138/173/31
f 137/175/31 130/160/31 113/141/31 139/176/31
f 103/177/25 124/178/25 140/179/25 104/180/25
f 104/180/25 140/179/25 141/181/25 142/182/25
f 142/182/25 141/181/25 116/144/25 122/151/25
f 123/174/26 138/173/26 140/179/26 124/178/26
f 138/173/26 139/176/26 141/181/26 140/179/26
f 139/176/26 113/141/26 116/144/26 141/181/26
f 105/133/31 106/134/31 134/167/31 127/157/31
f 106/134/31 108/136/31 136/169/31 134/167/31
f 108/136/31 109/137/31 112/140/31 136/169/31
f 109/137/34 133/166/34 121/150/37 110/138/37
f 120/149/36 128/158/36 110/138/33 121/150/33
f 118/146/26 143/183/26 122/184/26 119/147/26
f 143/183/26 144/185/26 142/186/26 122/184/26
f 144/185/26 102/130/26 104/132/26 142/186/26
f 121/150/25 133/166/25 143/183/25 118/146/25
f 133/166/25 107/135/25 144/185/25 143/183/25
f 107/135/25 101/129/25 102/130/25 144/185/25
