# Blender v2.78 (sub 0) OBJ File: 'FantasyUVs2.blend'
# www.blender.org
mtllib mod_Offene_Bücher_Fantasie.mtl
g Open_Book.003
v 0.197544 0.017576 0.093285
v 0.197544 0.013157 0.017854
v -0.197544 0.015122 0.020185
v -0.197544 0.017576 0.093285
v 0.197544 -0.011143 0.008362
v 0.197544 0.006038 0.009194
v 0.197544 -0.003802 0.016785
v 0.197544 -0.001322 0.000137
v -0.197544 0.002369 0.000137
v -0.197544 0.006085 0.007712
v 0.197544 -0.013746 0.000137
v 0.197544 -0.012611 0.310193
v 0.197544 0.006278 0.291992
v -0.197544 0.006278 0.291992
v -0.197544 -0.012611 0.310193
v 0.197544 -0.006122 0.089656
v -0.197544 0.006664 0.206996
v -0.197544 -0.009891 0.208915
v 0.197544 0.006039 -0.008921
v -0.197544 0.006086 -0.007438
v 0.197544 -0.011142 -0.008089
v 0.197544 0.006664 0.206996
v -0.197544 0.015165 -0.021142
v 0.197544 0.013158 -0.017581
v 0.197544 0.017577 -0.093011
v -0.197544 0.017577 -0.093011
v 0.197544 -0.003801 -0.016512
v -0.197544 0.006406 -0.291718
v 0.197544 0.006406 -0.291718
v 0.197544 -0.012610 -0.309920
v -0.197544 -0.012610 -0.309920
v 0.197544 0.006665 -0.206723
v 0.197544 -0.009849 -0.207376
v -0.197544 -0.006123 -0.089443
v -0.197544 -0.003801 -0.016512
v -0.197544 0.006665 -0.206723
v 0.206240 -0.016442 0.316843
v 0.206240 -0.011603 0.316843
v -0.206240 -0.011603 0.316843
v -0.206240 -0.016442 0.316843
v 0.206240 -0.007611 0.016499
v 0.206240 -0.002783 0.016499
v -0.206240 -0.002783 0.016499
v -0.206240 -0.007611 0.016499
v -0.206240 -0.014425 -0.009310
v -0.206240 -0.009630 -0.008993
v -0.206240 -0.002790 -0.016500
v -0.206240 -0.007618 -0.016500
v 0.206240 -0.002790 -0.016500
v 0.206240 -0.009630 -0.008993
v 0.206240 -0.014425 -0.009310
v 0.206240 -0.007618 -0.016500
v -0.206240 -0.015021 0.008533
v 0.206240 -0.015021 0.008533
v 0.206240 -0.010229 0.008184
v -0.206240 -0.010229 0.008184
v -0.206240 -0.017577 -0.000000
v 0.206240 -0.017577 -0.000000
v -0.206240 -0.012738 -0.000000
v 0.206240 -0.012738 -0.000000
v -0.206240 -0.011602 -0.316843
v 0.206240 -0.011602 -0.316843
v 0.206240 -0.016441 -0.316843
v -0.206240 -0.016441 -0.316843
v -0.197544 -0.003802 0.016785
v -0.197544 -0.011468 0.006994
v -0.197544 -0.011485 -0.007274
v -0.197544 -0.006284 0.094761
v 0.197544 -0.009801 0.206020
v 0.197544 -0.006240 -0.093144
v -0.197544 -0.009794 -0.205613
v -0.197544 -0.013788 0.000146
vt 0.3474 0.9535
vt 0.3549 0.9233
vt 0.3546 0.9367
vt 0.3474 0.9535
vt 0.3558 0.7569
vt 0.3557 0.8745
vt 0.3550 0.8072
vt 0.3566 0.8241
vt 0.3566 0.8494
vt 0.3559 0.8749
vt 0.3566 0.7391
vt 0.3260 0.7469
vt 0.3278 0.8762
vt 0.3278 0.8762
vt 0.3260 0.7469
vt 0.3478 0.7913
vt 0.3362 0.8788
vt 0.3360 0.7655
vt 0.3575 0.8745
vt 0.3574 0.8749
vt 0.3574 0.7569
vt 0.3362 0.8788
vt 0.3587 0.9370
vt 0.3584 0.9233
vt 0.3658 0.9535
vt 0.3658 0.9535
vt 0.3582 0.8072
vt 0.3854 0.8770
vt 0.3854 0.8770
vt 0.3872 0.7469
vt 0.3872 0.7469
vt 0.3770 0.8788
vt 0.3771 0.7658
vt 0.3654 0.7913
vt 0.3582 0.8072
vt 0.3770 0.8788
vt 0.5328 0.7131
vt 0.5328 0.7131
vt 0.5328 0.9866
vt 0.5328 0.9866
vt 0.5493 0.7131
vt 0.5493 0.7131
vt 0.5493 0.9866
vt 0.5493 0.9866
vt 0.5507 0.9866
vt 0.5507 0.9866
vt 0.5511 0.9866
vt 0.5511 0.9866
vt 0.5511 0.7131
vt 0.5507 0.7131
vt 0.5507 0.7131
vt 0.5511 0.7131
vt 0.5497 0.9866
vt 0.5497 0.7131
vt 0.5498 0.7131
vt 0.5498 0.9866
vt 0.5502 0.9866
vt 0.5502 0.7131
vt 0.5502 0.9866
vt 0.5502 0.7131
vt 0.5677 0.9866
vt 0.5677 0.7131
vt 0.5677 0.7131
vt 0.5677 0.9866
vt 0.3550 0.8072
vt 0.3559 0.7547
vt 0.3573 0.7546
vt 0.3473 0.7902
vt 0.3363 0.7661
vt 0.3658 0.7905
vt 0.3769 0.7661
vt 0.3566 0.7388
vn 0.0152 0.9996 0.0246
vn 0.0019 0.9391 -0.3437
vn 0.0020 0.9400 -0.3411
vn 0.0015 0.9995 0.0313
vn 1.0000 -0.0000 0.0000
vn 0.0198 0.9984 -0.0524
vn -0.0558 0.9928 0.1064
vn 0.0032 0.8138 -0.5811
vn 0.0032 0.8138 -0.5812
vn 0.9971 0.0563 0.0515
vn -0.0085 0.7023 0.7118
vn 0.0000 0.6939 0.7201
vn 0.0143 0.6955 0.7184
vn 0.9999 0.0136 0.0003
vn -0.9999 0.0096 -0.0109
vn -1.0000 -0.0000 0.0000
vn -1.0000 -0.0034 -0.0002
vn 0.0028 0.8212 0.5706
vn 0.0028 0.8213 0.5705
vn 0.0033 0.9987 0.0501
vn 0.0000 1.0000 0.0045
vn 0.0000 0.9989 0.0467
vn -0.0749 0.8417 0.5348
vn 0.1106 0.9871 0.1156
vn 0.0246 0.9985 -0.0484
vn -0.1815 0.9798 0.0841
vn 0.9763 -0.0286 0.2143
vn 0.2106 0.8122 -0.5440
vn 0.2106 0.5079 -0.8353
vn -0.0143 0.6931 -0.7207
vn 0.0085 0.6999 -0.7142
vn 0.9546 0.1828 0.2352
vn 1.0000 -0.0034 0.0002
vn 0.9999 0.0097 0.0109
vn -0.9764 0.0867 -0.1980
vn -0.9784 0.1721 -0.1147
vn -0.2106 0.9540 -0.2135
vn -0.2106 0.9552 0.2077
vn 0.0000 0.9989 -0.0461
vn -0.0033 0.9988 -0.0493
vn 0.0000 0.0000 1.0000
vn 0.0000 0.9996 0.0294
vn 0.0000 0.9392 -0.3433
vn 0.0000 -0.9359 0.3522
vn 0.0000 -0.9996 -0.0294
vn 0.0000 0.9377 0.3474
vn 0.0000 0.8599 0.5105
vn 0.0000 -0.8566 -0.5160
vn 0.0000 -0.9344 -0.3563
vn 0.0000 -0.8677 0.4970
vn 0.0000 0.8708 -0.4916
vn 0.0000 -0.9998 -0.0177
vn 0.0000 0.9998 0.0176
vn 0.0000 0.0000 -1.0000
vn 0.0000 0.9996 -0.0293
vn 0.0000 -0.9996 0.0294
vn -0.9884 0.0128 0.1516
vn -0.9884 -0.1182 0.0958
vn -1.0000 -0.0005 -0.0064
vn 1.0000 -0.0000 0.0034
vn 0.9999 0.0048 -0.0137
vn 0.9995 0.0222 0.0235
vn -1.0000 -0.0000 -0.0034
vn -0.9546 -0.0444 -0.2945
vn -0.9999 0.0048 0.0137
vn -0.9884 -0.0452 0.1453
vn -0.9884 0.1120 -0.1029
usemtl None.007
s 1
f 1/1/1 2/2/2 3/3/3 4/4/4
f 5/5/5 6/6/5 2/2/5 7/7/5
f 8/8/6 9/9/7 10/10/8 6/6/9
f 11/11/5 8/8/10 6/6/5 5/5/5
f 12/12/11 13/13/12 14/14/12 15/15/13
f 7/7/5 2/2/5 1/1/14 16/16/5
f 15/15/15 14/14/16 17/17/17 18/18/16
f 9/9/7 8/8/6 19/19/18 20/20/19
f 8/8/10 11/11/5 21/21/5 19/19/5
f 17/17/20 14/14/21 13/13/21 22/22/22
f 22/22/22 1/1/1 4/4/4 17/17/20
f 23/23/23 24/24/24 25/25/25 26/26/26
f 24/24/27 19/19/5 21/21/5 27/27/5
f 6/6/9 10/10/8 3/3/3 2/2/2
f 28/28/28 29/29/29 30/30/30 31/31/31
f 29/29/32 32/32/33 33/33/5 30/30/34
f 23/23/35 26/26/36 34/34/16 35/35/16
f 20/20/19 19/19/18 24/24/24 23/23/23
f 29/29/37 28/28/38 36/36/39 32/32/40
f 26/26/26 25/25/25 32/32/40 36/36/39
f 37/37/41 38/38/41 39/39/41 40/40/41
f 41/41/5 42/42/5 38/38/5 37/37/5
f 40/40/16 39/39/16 43/43/16 44/44/16
f 38/38/42 42/42/43 43/43/43 39/39/42
f 41/41/44 37/37/45 40/40/45 44/44/44
f 45/45/16 46/46/16 47/47/16 48/48/16
f 49/49/46 47/47/46 46/46/47 50/50/47
f 51/51/48 45/45/48 48/48/49 52/52/49
f 44/44/44 53/53/50 54/54/50 41/41/44
f 55/55/51 56/56/51 43/43/43 42/42/43
f 52/52/5 49/49/5 50/50/5 51/51/5
f 53/53/50 57/57/52 58/58/52 54/54/50
f 56/56/16 59/59/16 57/57/16 53/53/16
f 55/55/51 60/60/53 59/59/53 56/56/51
f 54/54/5 58/58/5 60/60/5 55/55/5
f 61/61/54 62/62/54 63/63/54 64/64/54
f 62/62/5 49/49/5 52/52/5 63/63/5
f 47/47/16 61/61/16 64/64/16 48/48/16
f 47/47/46 49/49/46 62/62/55 61/61/55
f 64/64/56 63/63/56 52/52/49 48/48/49
f 41/41/5 54/54/5 55/55/5 42/42/5
f 58/58/52 57/57/52 45/45/48 51/51/48
f 57/57/16 59/59/16 46/46/16 45/45/16
f 59/59/53 60/60/53 50/50/47 46/46/47
f 60/60/5 58/58/5 51/51/5 50/50/5
f 56/56/16 53/53/16 44/44/16 43/43/16
f 65/65/16 3/3/16 10/10/16 66/66/57
f 23/23/35 35/35/16 67/67/58 20/20/16
f 68/68/16 4/4/59 3/3/16 65/65/16
f 18/18/16 17/17/17 4/4/59 68/68/16
f 69/69/5 22/22/60 13/13/5 12/12/61
f 16/16/5 1/1/14 22/22/60 69/69/5
f 70/70/5 25/25/62 24/24/27 27/27/5
f 33/33/5 32/32/33 25/25/62 70/70/5
f 71/71/16 36/36/63 28/28/64 31/31/65
f 34/34/16 26/26/36 36/36/63 71/71/16
f 20/20/16 67/67/58 72/72/66 9/9/67
f 66/66/57 10/10/16 9/9/67 72/72/66
g Open_Book.002
v 0.197544 0.017576 0.093285
v 0.197544 0.013157 0.017854
v -0.197544 0.015122 0.020185
v -0.197544 0.017576 0.093285
v 0.197544 -0.011143 0.008362
v 0.197544 0.006038 0.009194
v 0.197544 -0.003802 0.016785
v 0.197544 -0.001322 0.000137
v -0.197544 0.002369 0.000137
v -0.197544 0.006085 0.007712
v 0.197544 -0.013746 0.000137
v 0.197544 -0.012611 0.310193
v 0.197544 0.006278 0.291992
v -0.197544 0.006278 0.291992
v -0.197544 -0.012611 0.310193
v 0.197544 -0.006122 0.089656
v -0.197544 0.006664 0.206996
v -0.197544 -0.009891 0.208915
v 0.197544 0.006039 -0.008921
v -0.197544 0.006086 -0.007438
v 0.197544 -0.011142 -0.008089
v 0.197544 0.006664 0.206996
v -0.197544 0.015165 -0.021142
v 0.197544 0.013158 -0.017581
v 0.197544 0.017577 -0.093011
v -0.197544 0.017577 -0.093011
v 0.197544 -0.003801 -0.016512
v -0.197544 0.006406 -0.291718
v 0.197544 0.006406 -0.291718
v 0.197544 -0.012610 -0.309920
v -0.197544 -0.012610 -0.309920
v 0.197544 0.006665 -0.206723
v 0.197544 -0.009849 -0.207376
v -0.197544 -0.006123 -0.089443
v -0.197544 -0.003801 -0.016512
v -0.197544 0.006665 -0.206723
v 0.206240 -0.016442 0.316843
v 0.206240 -0.011603 0.316843
v -0.206240 -0.011603 0.316843
v -0.206240 -0.016442 0.316843
v 0.206240 -0.007611 0.016499
v 0.206240 -0.002783 0.016499
v -0.206240 -0.002783 0.016499
v -0.206240 -0.007611 0.016499
v -0.206240 -0.014425 -0.009310
v -0.206240 -0.009630 -0.008993
v -0.206240 -0.002790 -0.016500
v -0.206240 -0.007618 -0.016500
v 0.206240 -0.002790 -0.016500
v 0.206240 -0.009630 -0.008993
v 0.206240 -0.014425 -0.009310
v 0.206240 -0.007618 -0.016500
v -0.206240 -0.015021 0.008533
v 0.206240 -0.015021 0.008533
v 0.206240 -0.010229 0.008184
v -0.206240 -0.010229 0.008184
v -0.206240 -0.017577 -0.000000
v 0.206240 -0.017577 -0.000000
v -0.206240 -0.012738 -0.000000
v 0.206240 -0.012738 -0.000000
v -0.206240 -0.011602 -0.316843
v 0.206240 -0.011602 -0.316843
v 0.206240 -0.016441 -0.316843
v -0.206240 -0.016441 -0.316843
v -0.197544 -0.003802 0.016785
v -0.197544 -0.011468 0.006994
v -0.197544 -0.011485 -0.007274
v -0.197544 -0.006284 0.094761
v 0.197544 -0.009801 0.206020
v 0.197544 -0.006240 -0.093144
v -0.197544 -0.009794 -0.205613
v -0.197544 -0.013788 0.000146
vt 0.3474 0.9535
vt 0.3549 0.9233
vt 0.3546 0.9367
vt 0.3474 0.9535
vt 0.3558 0.7569
vt 0.3557 0.8745
vt 0.3550 0.8072
vt 0.3566 0.8241
vt 0.3566 0.8494
vt 0.3559 0.8749
vt 0.3566 0.7391
vt 0.3260 0.7469
vt 0.3278 0.8762
vt 0.3278 0.8762
vt 0.3260 0.7469
vt 0.3478 0.7913
vt 0.3362 0.8788
vt 0.3360 0.7655
vt 0.3575 0.8745
vt 0.3574 0.8749
vt 0.3574 0.7569
vt 0.3362 0.8788
vt 0.3587 0.9370
vt 0.3584 0.9233
vt 0.3658 0.9535
vt 0.3658 0.9535
vt 0.3582 0.8072
vt 0.3854 0.8770
vt 0.3854 0.8770
vt 0.3872 0.7469
vt 0.3872 0.7469
vt 0.3770 0.8788
vt 0.3771 0.7658
vt 0.3654 0.7913
vt 0.3582 0.8072
vt 0.3770 0.8788
vt 0.4703 0.7131
vt 0.4703 0.7131
vt 0.4703 0.9866
vt 0.4703 0.9866
vt 0.4868 0.7131
vt 0.4868 0.7131
vt 0.4868 0.9866
vt 0.4868 0.9866
vt 0.4882 0.9866
vt 0.4882 0.9866
vt 0.4886 0.9866
vt 0.4886 0.9866
vt 0.4886 0.7131
vt 0.4882 0.7131
vt 0.4882 0.7131
vt 0.4886 0.7131
vt 0.4872 0.9866
vt 0.4872 0.7131
vt 0.4873 0.7131
vt 0.4873 0.9866
vt 0.4877 0.9866
vt 0.4877 0.7131
vt 0.4877 0.9866
vt 0.4877 0.7131
vt 0.5052 0.9866
vt 0.5052 0.7131
vt 0.5052 0.7131
vt 0.5052 0.9866
vt 0.3550 0.8072
vt 0.3559 0.7547
vt 0.3573 0.7546
vt 0.3473 0.7902
vt 0.3363 0.7661
vt 0.3658 0.7905
vt 0.3769 0.7661
vt 0.3566 0.7388
vn 0.0152 0.9996 0.0246
vn 0.0019 0.9391 -0.3437
vn 0.0020 0.9400 -0.3411
vn 0.0015 0.9995 0.0313
vn 1.0000 -0.0000 0.0000
vn 0.0198 0.9984 -0.0524
vn -0.0558 0.9928 0.1064
vn 0.0032 0.8138 -0.5811
vn 0.0032 0.8138 -0.5812
vn 0.9971 0.0563 0.0515
vn -0.0085 0.7023 0.7118
vn 0.0000 0.6939 0.7201
vn 0.0143 0.6955 0.7184
vn 0.9999 0.0136 0.0003
vn -0.9999 0.0096 -0.0109
vn -1.0000 -0.0000 0.0000
vn -1.0000 -0.0034 -0.0002
vn 0.0028 0.8212 0.5706
vn 0.0028 0.8213 0.5705
vn 0.0033 0.9987 0.0501
vn 0.0000 1.0000 0.0045
vn 0.0000 0.9989 0.0467
vn -0.0749 0.8417 0.5348
vn 0.1106 0.9871 0.1156
vn 0.0246 0.9985 -0.0484
vn -0.1815 0.9798 0.0841
vn 0.9763 -0.0286 0.2143
vn 0.2106 0.8122 -0.5440
vn 0.2106 0.5079 -0.8353
vn -0.0143 0.6931 -0.7207
vn 0.0085 0.6999 -0.7142
vn 0.9546 0.1828 0.2352
vn 1.0000 -0.0034 0.0002
vn 0.9999 0.0097 0.0109
vn -0.9764 0.0867 -0.1980
vn -0.9784 0.1721 -0.1147
vn -0.2106 0.9540 -0.2135
vn -0.2106 0.9552 0.2077
vn 0.0000 0.9989 -0.0461
vn -0.0033 0.9988 -0.0493
vn 0.0000 0.0000 1.0000
vn 0.0000 0.9996 0.0294
vn 0.0000 0.9392 -0.3433
vn 0.0000 -0.9359 0.3522
vn 0.0000 -0.9996 -0.0294
vn 0.0000 0.9377 0.3474
vn 0.0000 0.8599 0.5105
vn 0.0000 -0.8566 -0.5160
vn 0.0000 -0.9344 -0.3563
vn 0.0000 -0.8677 0.4970
vn 0.0000 0.8708 -0.4916
vn 0.0000 -0.9998 -0.0177
vn 0.0000 0.9998 0.0176
vn 0.0000 0.0000 -1.0000
vn 0.0000 0.9996 -0.0293
vn 0.0000 -0.9996 0.0294
vn -0.9884 0.0128 0.1516
vn -0.9884 -0.1182 0.0958
vn -1.0000 -0.0005 -0.0064
vn 1.0000 -0.0000 0.0034
vn 0.9999 0.0048 -0.0137
vn 0.9995 0.0222 0.0235
vn -1.0000 -0.0000 -0.0034
vn -0.9546 -0.0444 -0.2945
vn -0.9999 0.0048 0.0137
vn -0.9884 -0.0452 0.1453
vn -0.9884 0.1120 -0.1029
usemtl None.007
s 1
f 73/73/68 74/74/69 75/75/70 76/76/71
f 77/77/72 78/78/72 74/74/72 79/79/72
f 80/80/73 81/81/74 82/82/75 78/78/76
f 83/83/72 80/80/77 78/78/72 77/77/72
f 84/84/78 85/85/79 86/86/79 87/87/80
f 79/79/72 74/74/72 73/73/81 88/88/72
f 87/87/82 86/86/83 89/89/84 90/90/83
f 81/81/74 80/80/73 91/91/85 92/92/86
f 80/80/77 83/83/72 93/93/72 91/91/72
f 89/89/87 86/86/88 85/85/88 94/94/89
f 94/94/89 73/73/68 76/76/71 89/89/87
f 95/95/90 96/96/91 97/97/92 98/98/93
f 96/96/94 91/91/72 93/93/72 99/99/72
f 78/78/76 82/82/75 75/75/70 74/74/69
f 100/100/95 101/101/96 102/102/97 103/103/98
f 101/101/99 104/104/100 105/105/72 102/102/101
f 95/95/102 98/98/103 106/106/83 107/107/83
f 92/92/86 91/91/85 96/96/91 95/95/90
f 101/101/104 100/100/105 108/108/106 104/104/107
f 98/98/93 97/97/92 104/104/107 108/108/106
f 109/109/108 110/110/108 111/111/108 112/112/108
f 113/113/72 114/114/72 110/110/72 109/109/72
f 112/112/83 111/111/83 115/115/83 116/116/83
f 110/110/109 114/114/110 115/115/110 111/111/109
f 113/113/111 109/109/112 112/112/112 116/116/111
f 117/117/83 118/118/83 119/119/83 120/120/83
f 121/121/113 119/119/113 118/118/114 122/122/114
f 123/123/115 117/117/115 120/120/116 124/124/116
f 116/116/111 125/125/117 126/126/117 113/113/111
f 127/127/118 128/128/118 115/115/110 114/114/110
f 124/124/72 121/121/72 122/122/72 123/123/72
f 125/125/117 129/129/119 130/130/119 126/126/117
f 128/128/83 131/131/83 129/129/83 125/125/83
f 127/127/118 132/132/120 131/131/120 128/128/118
f 126/126/72 130/130/72 132/132/72 127/127/72
f 133/133/121 134/134/121 135/135/121 136/136/121
f 134/134/72 121/121/72 124/124/72 135/135/72
f 119/119/83 133/133/83 136/136/83 120/120/83
f 119/119/113 121/121/113 134/134/122 133/133/122
f 136/136/123 135/135/123 124/124/116 120/120/116
f 113/113/72 126/126/72 127/127/72 114/114/72
f 130/130/119 129/129/119 117/117/115 123/123/115
f 129/129/83 131/131/83 118/118/83 117/117/83
f 131/131/120 132/132/120 122/122/114 118/118/114
f 132/132/72 130/130/72 123/123/72 122/122/72
f 128/128/83 125/125/83 116/116/83 115/115/83
f 137/137/83 75/75/83 82/82/83 138/138/124
f 95/95/102 107/107/83 139/139/125 92/92/83
f 140/140/83 76/76/126 75/75/83 137/137/83
f 90/90/83 89/89/84 76/76/126 140/140/83
f 141/141/72 94/94/127 85/85/72 84/84/128
f 88/88/72 73/73/81 94/94/127 141/141/72
f 142/142/72 97/97/129 96/96/94 99/99/72
f 105/105/72 104/104/100 97/97/129 142/142/72
f 143/143/83 108/108/130 100/100/131 103/103/132
f 106/106/83 98/98/103 108/108/130 143/143/83
f 92/92/83 139/139/125 144/144/133 81/81/134
f 138/138/124 82/82/83 81/81/134 144/144/133
g Open_Book
v 0.197544 0.017576 0.093285
v 0.197544 0.013157 0.017854
v -0.197544 0.015122 0.020185
v -0.197544 0.017576 0.093285
v 0.197544 -0.011143 0.008362
v 0.197544 0.006038 0.009194
v 0.197544 -0.003802 0.016785
v 0.197544 -0.001322 0.000137
v -0.197544 0.002369 0.000137
v -0.197544 0.006085 0.007712
v 0.197544 -0.013746 0.000137
v 0.197544 -0.012611 0.310193
v 0.197544 0.006278 0.291992
v -0.197544 0.006278 0.291992
v -0.197544 -0.012611 0.310193
v 0.197544 -0.006122 0.089656
v -0.197544 0.006664 0.206996
v -0.197544 -0.009891 0.208915
v 0.197544 0.006039 -0.008921
v -0.197544 0.006086 -0.007438
v 0.197544 -0.011142 -0.008089
v 0.197544 0.006664 0.206996
v -0.197544 0.015165 -0.021142
v 0.197544 0.013158 -0.017581
v 0.197544 0.017577 -0.093011
v -0.197544 0.017577 -0.093011
v 0.197544 -0.003801 -0.016512
v -0.197544 0.006406 -0.291718
v 0.197544 0.006406 -0.291718
v 0.197544 -0.012610 -0.309920
v -0.197544 -0.012610 -0.309920
v 0.197544 0.006665 -0.206723
v 0.197544 -0.009849 -0.207376
v -0.197544 -0.006123 -0.089443
v -0.197544 -0.003801 -0.016512
v -0.197544 0.006665 -0.206723
v 0.206240 -0.016442 0.316843
v 0.206240 -0.011603 0.316843
v -0.206240 -0.011603 0.316843
v -0.206240 -0.016442 0.316843
v 0.206240 -0.007611 0.016499
v 0.206240 -0.002783 0.016499
v -0.206240 -0.002783 0.016499
v -0.206240 -0.007611 0.016499
v -0.206240 -0.014425 -0.009310
v -0.206240 -0.009630 -0.008993
v -0.206240 -0.002790 -0.016500
v -0.206240 -0.007618 -0.016500
v 0.206240 -0.002790 -0.016500
v 0.206240 -0.009630 -0.008993
v 0.206240 -0.014425 -0.009310
v 0.206240 -0.007618 -0.016500
v -0.206240 -0.015021 0.008533
v 0.206240 -0.015021 0.008533
v 0.206240 -0.010229 0.008184
v -0.206240 -0.010229 0.008184
v -0.206240 -0.017577 -0.000000
v 0.206240 -0.017577 -0.000000
v -0.206240 -0.012738 -0.000000
v 0.206240 -0.012738 -0.000000
v -0.206240 -0.011602 -0.316843
v 0.206240 -0.011602 -0.316843
v 0.206240 -0.016441 -0.316843
v -0.206240 -0.016441 -0.316843
v -0.197544 -0.003802 0.016785
v -0.197544 -0.011468 0.006994
v -0.197544 -0.011485 -0.007274
v -0.197544 -0.006284 0.094761
v 0.197544 -0.009801 0.206020
v 0.197544 -0.006240 -0.093144
v -0.197544 -0.009794 -0.205613
v -0.197544 -0.013788 0.000146
vt 0.3474 0.9535
vt 0.3549 0.9233
vt 0.3546 0.9367
vt 0.3474 0.9535
vt 0.3558 0.7569
vt 0.3557 0.8745
vt 0.3550 0.8072
vt 0.3566 0.8241
vt 0.3566 0.8494
vt 0.3559 0.8749
vt 0.3566 0.7391
vt 0.3260 0.7469
vt 0.3278 0.8762
vt 0.3278 0.8762
vt 0.3260 0.7469
vt 0.3478 0.7913
vt 0.3362 0.8788
vt 0.3360 0.7655
vt 0.3575 0.8745
vt 0.3574 0.8749
vt 0.3574 0.7569
vt 0.3362 0.8788
vt 0.3587 0.9370
vt 0.3584 0.9233
vt 0.3658 0.9535
vt 0.3658 0.9535
vt 0.3582 0.8072
vt 0.3854 0.8770
vt 0.3854 0.8770
vt 0.3872 0.7469
vt 0.3872 0.7469
vt 0.3770 0.8788
vt 0.3771 0.7658
vt 0.3654 0.7913
vt 0.3582 0.8072
vt 0.3770 0.8788
vt 0.4078 0.7131
vt 0.4078 0.7131
vt 0.4078 0.9866
vt 0.4078 0.9866
vt 0.4243 0.7131
vt 0.4243 0.7131
vt 0.4243 0.9866
vt 0.4243 0.9866
vt 0.4257 0.9866
vt 0.4257 0.9866
vt 0.4261 0.9866
vt 0.4261 0.9866
vt 0.4261 0.7131
vt 0.4257 0.7131
vt 0.4257 0.7131
vt 0.4261 0.7131
vt 0.4247 0.9866
vt 0.4247 0.7131
vt 0.4248 0.7131
vt 0.4248 0.9866
vt 0.4252 0.9866
vt 0.4252 0.7131
vt 0.4252 0.9866
vt 0.4252 0.7131
vt 0.4427 0.9866
vt 0.4427 0.7131
vt 0.4427 0.7131
vt 0.4427 0.9866
vt 0.3550 0.8072
vt 0.3559 0.7547
vt 0.3573 0.7546
vt 0.3473 0.7902
vt 0.3363 0.7661
vt 0.3658 0.7905
vt 0.3769 0.7661
vt 0.3566 0.7388
vn 0.0152 0.9996 0.0246
vn 0.0019 0.9391 -0.3437
vn 0.0020 0.9400 -0.3411
vn 0.0015 0.9995 0.0313
vn 1.0000 -0.0000 0.0000
vn 0.0198 0.9984 -0.0524
vn -0.0558 0.9928 0.1064
vn 0.0032 0.8138 -0.5811
vn 0.0032 0.8138 -0.5812
vn 0.9971 0.0563 0.0515
vn -0.0085 0.7023 0.7118
vn 0.0000 0.6939 0.7201
vn 0.0143 0.6955 0.7184
vn 0.9999 0.0136 0.0003
vn -0.9999 0.0096 -0.0109
vn -1.0000 -0.0000 0.0000
vn -1.0000 -0.0034 -0.0002
vn 0.0028 0.8212 0.5706
vn 0.0028 0.8213 0.5705
vn 0.0033 0.9987 0.0501
vn 0.0000 1.0000 0.0045
vn 0.0000 0.9989 0.0467
vn -0.0749 0.8417 0.5348
vn 0.1106 0.9871 0.1156
vn 0.0246 0.9985 -0.0484
vn -0.1815 0.9798 0.0841
vn 0.9763 -0.0286 0.2143
vn 0.2106 0.8122 -0.5440
vn 0.2106 0.5079 -0.8353
vn -0.0143 0.6931 -0.7207
vn 0.0085 0.6999 -0.7142
vn 0.9546 0.1828 0.2352
vn 1.0000 -0.0034 0.0002
vn 0.9999 0.0097 0.0109
vn -0.9764 0.0867 -0.1980
vn -0.9784 0.1721 -0.1147
vn -0.2106 0.9540 -0.2135
vn -0.2106 0.9552 0.2077
vn 0.0000 0.9989 -0.0461
vn -0.0033 0.9988 -0.0493
vn 0.0000 0.0000 1.0000
vn 0.0000 0.9996 0.0294
vn 0.0000 0.9392 -0.3433
vn 0.0000 -0.9359 0.3522
vn 0.0000 -0.9996 -0.0294
vn 0.0000 0.9377 0.3474
vn 0.0000 0.8599 0.5105
vn 0.0000 -0.8566 -0.5160
vn 0.0000 -0.9344 -0.3563
vn 0.0000 -0.8677 0.4970
vn 0.0000 0.8708 -0.4916
vn 0.0000 -0.9998 -0.0177
vn 0.0000 0.9998 0.0176
vn 0.0000 0.0000 -1.0000
vn 0.0000 0.9996 -0.0293
vn 0.0000 -0.9996 0.0294
vn -0.9884 0.0128 0.1516
vn -0.9884 -0.1182 0.0958
vn -1.0000 -0.0005 -0.0064
vn 1.0000 -0.0000 0.0034
vn 0.9999 0.0048 -0.0137
vn 0.9995 0.0222 0.0235
vn -1.0000 -0.0000 -0.0034
vn -0.9546 -0.0444 -0.2945
vn -0.9999 0.0048 0.0137
vn -0.9884 -0.0452 0.1453
vn -0.9884 0.1120 -0.1029
usemtl None.007
s 1
f 145/145/135 146/146/136 147/147/137 148/148/138
f 149/149/139 150/150/139 146/146/139 151/151/139
f 152/152/140 153/153/141 154/154/142 150/150/143
f 155/155/139 152/152/144 150/150/139 149/149/139
f 156/156/145 157/157/146 158/158/146 159/159/147
f 151/151/139 146/146/139 145/145/148 160/160/139
f 159/159/149 158/158/150 161/161/151 162/162/150
f 153/153/141 152/152/140 163/163/152 164/164/153
f 152/152/144 155/155/139 165/165/139 163/163/139
f 161/161/154 158/158/155 157/157/155 166/166/156
f 166/166/156 145/145/135 148/148/138 161/161/154
f 167/167/157 168/168/158 169/169/159 170/170/160
f 168/168/161 163/163/139 165/165/139 171/171/139
f 150/150/143 154/154/142 147/147/137 146/146/136
f 172/172/162 173/173/163 174/174/164 175/175/165
f 173/173/166 176/176/167 177/177/139 174/174/168
f 167/167/169 170/170/170 178/178/150 179/179/150
f 164/164/153 163/163/152 168/168/158 167/167/157
f 173/173/171 172/172/172 180/180/173 176/176/174
f 170/170/160 169/169/159 176/176/174 180/180/173
f 181/181/175 182/182/175 183/183/175 184/184/175
f 185/185/139 186/186/139 182/182/139 181/181/139
f 184/184/150 183/183/150 187/187/150 188/188/150
f 182/182/176 186/186/177 187/187/177 183/183/176
f 185/185/178 181/181/179 184/184/179 188/188/178
f 189/189/150 190/190/150 191/191/150 192/192/150
f 193/193/180 191/191/180 190/190/181 194/194/181
f 195/195/182 189/189/182 192/192/183 196/196/183
f 188/188/178 197/197/184 198/198/184 185/185/178
f 199/199/185 200/200/185 187/187/177 186/186/177
f 196/196/139 193/193/139 194/194/139 195/195/139
f 197/197/184 201/201/186 202/202/186 198/198/184
f 200/200/150 203/203/150 201/201/150 197/197/150
f 199/199/185 204/204/187 203/203/187 200/200/185
f 198/198/139 202/202/139 204/204/139 199/199/139
f 205/205/188 206/206/188 207/207/188 208/208/188
f 206/206/139 193/193/139 196/196/139 207/207/139
f 191/191/150 205/205/150 208/208/150 192/192/150
f 191/191/180 193/193/180 206/206/189 205/205/189
f 208/208/190 207/207/190 196/196/183 192/192/183
f 185/185/139 198/198/139 199/199/139 186/186/139
f 202/202/186 201/201/186 189/189/182 195/195/182
f 201/201/150 203/203/150 190/190/150 189/189/150
f 203/203/187 204/204/187 194/194/181 190/190/181
f 204/204/139 202/202/139 195/195/139 194/194/139
f 200/200/150 197/197/150 188/188/150 187/187/150
f 209/209/150 147/147/150 154/154/150 210/210/191
f 167/167/169 179/179/150 211/211/192 164/164/150
f 212/212/150 148/148/193 147/147/150 209/209/150
f 162/162/150 161/161/151 148/148/193 212/212/150
f 213/213/139 166/166/194 157/157/139 156/156/195
f 160/160/139 145/145/148 166/166/194 213/213/139
f 214/214/139 169/169/196 168/168/161 171/171/139
f 177/177/139 176/176/167 169/169/196 214/214/139
f 215/215/150 180/180/197 172/172/198 175/175/199
f 178/178/150 170/170/170 180/180/197 215/215/150
f 164/164/150 211/211/192 216/216/200 153/153/201
f 210/210/191 154/154/150 153/153/201 216/216/200
