# Blender v2.79 (sub 0) OBJ File: 'mod_open_book.blend'
# www.blender.org
mtllib mod_open_book.mtl
g Open_Book
v 0.197544 0.004966 0.310193
v -0.197544 0.004966 0.310193
v 0.197544 0.013775 0.016785
v 0.197544 0.003831 0.000137
v -0.197544 0.013775 0.016785
v 0.197544 0.035153 0.093285
v 0.197544 0.030734 0.017854
v -0.197544 0.032699 0.020185
v -0.197544 0.035153 0.093285
v 0.197544 0.023615 0.009194
v -0.197544 0.023662 0.007712
v 0.197544 0.006434 0.008362
v 0.197544 0.016255 0.000137
v -0.197544 0.006109 0.006994
v 0.197544 0.023855 0.291992
v -0.197544 0.023855 0.291992
v 0.197544 0.024241 0.206996
v -0.197544 0.024241 0.206996
v -0.197544 0.011293 0.094761
v -0.197544 0.004966 -0.309920
v 0.197544 0.004966 -0.309920
v 0.197544 0.013775 -0.016512
v -0.197544 0.013775 -0.016512
v -0.197544 0.032741 -0.021142
v 0.197544 0.030734 -0.017581
v 0.197544 0.035153 -0.093011
v -0.197544 0.035153 -0.093011
v -0.197544 0.023662 -0.007438
v 0.197544 0.023615 -0.008921
v 0.197544 0.006434 -0.008089
v -0.197544 0.023982 -0.291718
v 0.197544 0.023982 -0.291718
v 0.197544 0.024241 -0.206723
v -0.197544 0.007782 -0.205613
v -0.197544 0.024241 -0.206723
v 0.206240 0.001135 0.316843
v 0.206240 0.005974 0.316843
v -0.206240 0.005974 0.316843
v -0.206240 0.001135 0.316843
v 0.206240 0.009966 0.016499
v 0.206240 0.014794 0.016499
v -0.206240 0.000000 0.000000
v -0.206240 0.004839 0.000000
v 0.206240 0.004839 0.000000
v 0.206240 0.000000 0.000000
v -0.206240 0.014794 0.016499
v -0.206240 0.009966 0.016499
v -0.206240 0.002556 0.008533
v 0.206240 0.002556 0.008533
v -0.206240 0.007348 0.008184
v 0.206240 0.007348 0.008184
v -0.206240 0.005974 -0.316843
v 0.206240 0.005974 -0.316843
v 0.206240 0.001135 -0.316843
v -0.206240 0.001135 -0.316843
v 0.206240 0.014786 -0.016500
v 0.206240 0.009958 -0.016500
v -0.206240 0.014786 -0.016500
v -0.206240 0.009958 -0.016500
v 0.206240 0.003151 -0.009310
v -0.206240 0.003151 -0.009310
v -0.206240 0.007946 -0.008993
v 0.206240 0.007946 -0.008993
v -0.197544 0.007686 0.208915
v 0.197544 0.007776 0.206020
v 0.197544 0.011455 0.089656
v 0.197544 0.011336 -0.093144
v 0.197544 0.007727 -0.207376
v -0.197544 0.011453 -0.089443
v -0.197544 0.019946 0.000137
v -0.197544 0.006091 -0.007274
v -0.197544 0.003789 0.000146
vt 1.000000 0.722667
vt 1.000000 1.000000
vt 0.000000 1.000000
vt 0.000000 0.722667
vt 0.000000 1.000000
vt 0.000000 1.000000
vt 0.000000 1.000000
vt 0.000000 1.000000
vt 0.000000 1.000000
vt 1.000000 1.000000
vt 1.000000 1.000000
vt 0.000000 1.000000
vt 1.000000 0.000000
vt 1.000000 0.000000
vt 0.000000 0.000000
vt 0.000000 0.000000
vt 1.000000 1.000000
vt 1.000000 0.751638
vt 0.000000 0.306092
vt 0.000000 0.345179
vt 0.000000 1.000000
vt 1.000000 1.000000
vt 0.000000 1.000000
vt 1.000000 0.306092
vt 0.000000 1.000000
vt 1.000000 1.000000
vt 1.000000 0.722667
vt 0.000000 0.722667
vt 0.000000 1.000000
vt 0.000000 1.000000
vt 1.000000 1.000000
vt 0.000000 0.000000
vt 1.000000 0.000000
vt 1.000000 0.000000
vt 0.000000 0.000000
vt 1.000000 0.306092
vt 1.000000 0.306092
vt 1.000000 0.349493
vt 0.000000 0.722667
vt 0.000000 0.751434
vt 0.000000 1.000000
vt 1.000000 1.000000
vt 0.000000 0.306092
vt 1.000000 0.722667
vt 1.000000 0.000000
vt 1.000000 1.000000
vt 0.000000 1.000000
vt 0.000000 0.000000
vt 1.000000 0.000000
vt 1.000000 1.000000
vt 0.000000 1.000000
vt 0.000000 0.000000
vt 1.000000 0.000000
vt 1.000000 1.000000
vt 0.000000 1.000000
vt 0.000000 0.000000
vt 1.000000 0.000000
vt 0.000000 0.000000
vt 1.000000 1.000000
vt 0.000000 1.000000
vt 1.000000 0.000000
vt 1.000000 1.000000
vt 1.000000 1.000000
vt 1.000000 0.000000
vt 0.000000 1.000000
vt 0.000000 1.000000
vt 0.000000 0.000000
vt 0.000000 0.000000
vt 1.000000 0.000000
vt 1.000000 0.000000
vt 0.000000 0.000000
vt 0.000000 0.000000
vt 0.000000 1.000000
vt 1.000000 1.000000
vt 1.000000 1.000000
vt 0.000000 1.000000
vt 1.000000 0.000000
vt 0.000000 0.000000
vt 1.000000 1.000000
vt 0.000000 1.000000
vt 0.000000 1.000000
vt 1.000000 1.000000
vt 1.000000 0.000000
vt 0.000000 0.000000
vt 0.000000 1.000000
vt 1.000000 1.000000
vt 1.000000 0.000000
vt 0.000000 0.000000
vt 0.000000 1.000000
vt 1.000000 1.000000
vt 1.000000 0.000000
vt 0.000000 0.000000
vt 1.000000 0.000000
vt 0.000000 0.000000
vt 0.000000 1.000000
vt 1.000000 1.000000
vt 0.000000 1.000000
vt 1.000000 1.000000
vt 1.000000 1.000000
vt 0.000000 0.734240
vt 1.000000 0.355047
vt 1.000000 0.738821
vt 1.000000 1.000000
vt 0.000000 0.355499
vt 1.000000 1.000000
vn 0.0152 0.9996 0.0246
vn 0.0019 0.9391 -0.3437
vn 0.0020 0.9400 -0.3411
vn 0.0015 0.9995 0.0313
vn 1.0000 -0.0000 0.0000
vn 0.0198 0.9984 -0.0524
vn -0.0558 0.9928 0.1064
vn 0.0032 0.8139 -0.5811
vn 0.0032 0.8138 -0.5812
vn 0.9971 0.0563 0.0515
vn -0.0085 0.7023 0.7118
vn 0.0000 0.6939 0.7201
vn 0.0143 0.6955 0.7184
vn 0.9999 0.0136 0.0003
vn -0.9999 0.0096 -0.0109
vn -1.0000 0.0000 0.0000
vn -1.0000 -0.0034 -0.0002
vn 0.0028 0.8212 0.5706
vn 0.0028 0.8213 0.5705
vn 0.0033 0.9987 0.0501
vn 0.0000 1.0000 0.0045
vn 0.0000 0.9989 0.0467
vn -0.0749 0.8417 0.5348
vn 0.1106 0.9871 0.1156
vn 0.0246 0.9985 -0.0484
vn -0.1815 0.9798 0.0841
vn 0.9764 -0.0286 0.2143
vn 0.2106 0.8122 -0.5440
vn 0.2106 0.5079 -0.8353
vn -0.0143 0.6931 -0.7207
vn 0.0085 0.6999 -0.7142
vn 0.9546 0.1828 0.2352
vn 1.0000 -0.0034 0.0002
vn 0.9999 0.0097 0.0109
vn -0.9764 0.0867 -0.1980
vn -0.9784 0.1721 -0.1147
vn -0.2106 0.9540 -0.2135
vn -0.2106 0.9552 0.2077
vn 0.0000 0.9989 -0.0460
vn -0.0033 0.9988 -0.0493
vn 0.0000 0.0000 1.0000
vn 0.0000 0.9996 0.0294
vn 0.0000 0.9392 -0.3434
vn 0.0000 -0.9359 0.3522
vn 0.0000 -0.9996 -0.0294
vn 0.0000 0.9377 0.3474
vn 0.0000 0.8599 0.5105
vn 0.0000 -0.8566 -0.5160
vn 0.0000 -0.9344 -0.3563
vn 0.0000 -0.8678 0.4970
vn 0.0000 0.8708 -0.4916
vn 0.0000 -0.9998 -0.0177
vn 0.0000 0.9998 0.0176
vn 0.0000 0.0000 -1.0000
vn 0.0000 0.9996 -0.0293
vn 0.0000 -0.9996 0.0294
vn -0.9884 0.0128 0.1516
vn -0.9884 -0.1182 0.0958
vn -1.0000 -0.0005 -0.0064
vn 1.0000 -0.0000 0.0034
vn 0.9999 0.0048 -0.0137
vn 0.9995 0.0222 0.0235
vn -1.0000 -0.0000 -0.0034
vn -0.9546 -0.0444 -0.2945
vn -0.9999 0.0048 0.0137
vn -0.9884 -0.0452 0.1453
vn -0.9884 0.1120 -0.1029
usemtl None
s 1
f 6/1/1 7/2/2 8/3/3 9/4/4
f 12/5/5 10/6/5 7/7/5 3/8/5
f 13/9/6 70/10/7 11/11/8 10/6/9
f 4/12/5 13/9/10 10/6/5 12/5/5
f 1/13/11 15/14/12 16/15/12 2/16/13
f 3/17/5 7/2/5 6/1/14 66/18/5
f 2/16/15 16/15/16 18/19/17 64/20/16
f 70/10/7 13/9/6 29/21/18 28/22/19
f 13/9/10 4/12/5 30/23/5 29/21/5
f 18/19/20 16/15/21 15/14/21 17/24/22
f 17/24/22 6/1/1 9/4/4 18/19/20
f 24/25/23 25/26/24 26/27/25 27/28/26
f 25/29/27 29/21/5 30/23/5 22/30/5
f 10/6/9 11/11/8 8/31/3 7/7/2
f 31/32/28 32/33/29 21/34/30 20/35/31
f 32/36/32 33/37/33 68/38/5 21/34/34
f 24/39/35 27/28/36 69/40/16 23/41/16
f 28/22/19 29/21/18 25/29/24 24/42/23
f 32/33/37 31/32/38 35/43/39 33/37/40
f 27/44/26 26/27/25 33/37/40 35/43/39
f 36/45/41 37/46/41 38/47/41 39/48/41
f 40/49/5 41/50/5 37/51/5 36/52/5
f 39/53/16 38/54/16 46/55/16 47/56/16
f 37/57/42 41/50/43 46/55/43 38/58/42
f 40/49/44 36/59/45 39/60/45 47/56/44
f 61/61/16 62/62/16 58/63/16 59/64/16
f 56/65/46 58/63/46 62/62/47 63/66/47
f 60/67/48 61/61/48 59/64/49 57/68/49
f 47/69/44 48/70/50 49/71/50 40/72/44
f 51/73/51 50/74/51 46/75/43 41/76/43
f 57/68/5 56/65/5 63/66/5 60/67/5
f 48/70/50 42/77/52 45/78/52 49/71/50
f 50/74/16 43/79/16 42/77/16 48/70/16
f 51/73/51 44/80/53 43/79/53 50/74/51
f 49/71/5 45/78/5 44/80/5 51/73/5
f 52/81/54 53/82/54 54/83/54 55/84/54
f 53/85/5 56/86/5 57/87/5 54/88/5
f 58/89/16 52/90/16 55/91/16 59/92/16
f 58/89/46 56/86/46 53/93/55 52/94/55
f 55/95/56 54/96/56 57/87/49 59/92/49
f 40/72/5 49/71/5 51/73/5 41/76/5
f 45/78/52 42/77/52 61/61/48 60/67/48
f 42/77/16 43/79/16 62/62/16 61/61/16
f 43/79/53 44/80/53 63/66/47 62/62/47
f 44/80/5 45/78/5 60/67/5 63/66/5
f 50/74/16 48/70/16 47/69/16 46/75/16
f 5/97/16 8/31/16 11/11/16 14/98/57
f 24/42/35 23/41/16 71/99/58 28/22/16
f 19/100/16 9/4/59 8/3/16 5/97/16
f 64/20/16 18/19/17 9/4/59 19/100/16
f 65/101/5 17/24/60 15/14/5 1/13/61
f 66/18/5 6/1/14 17/24/60 65/101/5
f 67/102/5 26/27/62 25/26/27 22/103/5
f 68/38/5 33/37/33 26/27/62 67/102/5
f 34/104/16 35/43/63 31/32/64 20/35/65
f 69/40/16 27/28/36 35/43/63 34/104/16
f 28/22/16 71/99/58 72/105/66 70/10/67
f 14/98/57 11/11/16 70/10/67 72/105/66
