# Blender v2.79 (sub 0) OBJ File: 'mod_Tischlampe.blend'
# www.blender.org
g Tischlampe
v -0.000000 0.866592 -0.156107
v -0.000000 1.000592 0.214073
v 0.261757 0.866592 -0.047684
v 0.370181 0.866592 0.214073
v 0.261757 0.866592 0.475831
v -0.000000 0.866592 0.584254
v -0.261757 0.866592 0.475831
v -0.370181 0.866592 0.214073
v -0.261757 0.866592 -0.047684
v 0.000000 0.931911 -0.078581
v 0.206938 0.931911 0.007135
v 0.292655 0.931911 0.214073
v 0.206938 0.931911 0.421012
v -0.000000 0.931911 0.506728
v -0.206938 0.931911 0.421012
v -0.292655 0.931911 0.214073
v -0.206938 0.931911 0.007135
v 0.000000 0.866592 -0.185926
v 0.282843 0.866592 -0.068769
v 0.400000 0.866592 0.214073
v 0.282843 0.866592 0.496916
v -0.000000 0.866592 0.614073
v -0.282843 0.866592 0.496916
v -0.400000 0.866592 0.214073
v -0.282843 0.866592 -0.068769
v -0.000000 0.983523 0.214073
v -0.065753 0.032232 0.045792
v -0.065753 0.056149 0.045792
v -0.065753 0.032232 0.005830
v -0.065753 0.056149 0.005830
v 0.065753 0.032232 0.045792
v 0.065753 0.056149 0.045792
v 0.065753 0.032232 0.005830
v 0.065753 0.056149 0.005830
v 0.000000 0.052232 0.015434
v -0.012027 0.092969 0.015434
v 0.008707 0.054802 0.022030
v -0.003320 0.095540 0.022030
v 0.005381 0.053820 0.032703
v -0.006645 0.094558 0.032703
v -0.005381 0.050643 0.032703
v -0.017408 0.091380 0.032703
v -0.008707 0.049661 0.022030
v -0.020734 0.090399 0.022030
v -0.030924 0.056609 -0.063052
v 0.030924 0.056609 -0.063052
v 0.030924 0.036609 -0.063028
v -0.030924 0.036609 -0.063028
v -0.030924 0.108292 -0.268641
v 0.030924 0.108292 -0.268641
v 0.030924 0.091164 -0.278967
v -0.030924 0.091164 -0.278967
v -0.030924 0.240629 -0.387577
v 0.030924 0.240629 -0.387577
v 0.030924 0.231682 -0.405464
v -0.030924 0.231682 -0.405464
v -0.030924 0.420344 -0.422948
v 0.030924 0.420344 -0.422948
v 0.030924 0.420788 -0.442943
v -0.030924 0.420788 -0.442943
v -0.030924 0.613359 -0.375795
v 0.030924 0.613359 -0.375795
v 0.030924 0.621907 -0.393876
v -0.030924 0.621907 -0.393876
v -0.030924 0.784477 -0.247392
v 0.030924 0.784477 -0.247392
v 0.030924 0.799584 -0.260499
v -0.030924 0.799584 -0.260499
v -0.030924 0.898855 -0.039156
v 0.030924 0.898855 -0.039156
v 0.030924 0.918010 -0.044909
v -0.030924 0.918010 -0.044909
v 0.029044 0.067556 -0.070429
v 0.029044 0.049992 -0.078070
v 0.040801 0.067556 -0.061887
v 0.048068 0.049992 -0.064248
v 0.036310 0.067556 -0.048066
v 0.040801 0.049992 -0.041885
v 0.029044 0.074266 -0.058067
v 0.021778 0.067556 -0.048066
v 0.017287 0.049992 -0.041885
v 0.017287 0.067556 -0.061887
v 0.010020 0.049992 -0.064248
v -0.029044 0.067556 -0.070429
v -0.029044 0.049992 -0.078070
v -0.040801 0.067556 -0.061887
v -0.048068 0.049992 -0.064248
v -0.036310 0.067556 -0.048066
v -0.040801 0.049992 -0.041885
v -0.029044 0.074266 -0.058067
v -0.021778 0.067556 -0.048066
v -0.017287 0.049992 -0.041885
v -0.017287 0.067556 -0.061887
v -0.010020 0.049992 -0.064248
v 0.000000 0.000000 -0.120000
v 0.000000 0.050000 -0.120000
v 0.103923 0.000000 -0.060000
v 0.103923 0.050000 -0.060000
v 0.103923 0.000000 0.060000
v 0.103923 0.050000 0.060000
v -0.000000 0.000000 0.120000
v -0.000000 0.050000 0.120000
v -0.103923 0.000000 0.060000
v -0.103923 0.050000 0.060000
v -0.103923 0.000000 -0.060000
v -0.103923 0.050000 -0.060000
vn -1.0000 0.0000 0.0000
vn 0.0000 0.0000 -1.0000
vn 1.0000 0.0000 0.0000
vn 0.0000 0.0000 1.0000
vn 0.0000 1.0000 0.0000
vn 0.0000 0.9114 -0.4114
vn 0.2909 0.9114 -0.2909
vn 0.4114 0.9114 0.0000
vn 0.2909 0.9114 0.2909
vn -0.0000 0.9114 0.4114
vn -0.2909 0.9114 0.2909
vn -0.4114 0.9114 0.0000
vn -0.2909 0.9114 -0.2909
vn 0.0000 -0.9536 0.3012
vn -0.2130 -0.9536 0.2130
vn -0.0000 -1.0000 -0.0000
vn -0.3676 0.8543 -0.3676
vn 0.0000 0.8543 -0.5198
vn -0.5198 0.8543 0.0000
vn -0.3676 0.8543 0.3676
vn -0.0000 0.8543 0.5198
vn 0.3676 0.8543 0.3676
vn 0.5198 0.8543 0.0000
vn 0.3676 0.8543 -0.3676
vn 0.2130 -0.9536 0.2130
vn 0.2130 -0.9536 -0.2130
vn 0.3012 -0.9536 -0.0000
vn -0.2130 -0.9536 -0.2130
vn 0.0000 -0.9536 -0.3012
vn -0.3012 -0.9536 0.0000
vn 0.9121 0.2693 -0.3090
vn 0.5637 0.1664 0.8090
vn -0.5637 -0.1664 0.8090
vn -0.2831 0.9591 0.0000
vn -0.9121 -0.2693 -0.3090
vn 0.0000 0.9698 0.2438
vn 0.0000 0.8564 0.5163
vn 0.0000 -0.9695 -0.2449
vn 0.0000 -0.8563 -0.5164
vn 0.0000 0.4468 0.8946
vn 0.0000 -0.4478 -0.8941
vn 0.0000 -0.0226 0.9997
vn 0.0000 0.0218 -0.9998
vn 0.0000 -0.4275 0.9040
vn 0.0000 0.4274 -0.9041
vn 0.0000 -0.7553 0.6554
vn 0.0000 0.7554 -0.6553
vn 0.0000 -0.8765 0.4814
vn 0.0000 0.8765 -0.4815
vn 0.0000 0.6194 -0.7851
vn 0.7467 0.6194 -0.2426
vn 0.0000 0.3989 -0.9170
vn 0.8721 0.3989 -0.2834
vn 0.4615 0.6194 0.6352
vn 0.5390 0.3989 0.7419
vn -0.4615 0.6194 0.6352
vn -0.5390 0.3989 0.7419
vn -0.7467 0.6194 -0.2426
vn -0.8721 0.3989 -0.2834
vn 0.8660 0.0000 -0.5000
vn 0.8660 0.0000 0.5000
vn -0.8660 0.0000 0.5000
vn -0.8660 0.0000 -0.5000
s off
f 27//1 28//1 30//1 29//1
f 29//2 30//2 34//2 33//2
f 33//3 34//3 32//3 31//3
f 31//4 32//4 28//4 27//4
f 34//5 30//5 28//5 32//5
s 1
f 10//6 2//5 11//7
f 11//7 2//5 12//8
f 12//8 2//5 13//9
f 13//9 2//5 14//10
f 14//10 2//5 15//11
f 15//11 2//5 16//12
f 16//12 2//5 17//13
f 17//13 2//5 10//6
f 1//14 3//15 26//16
f 25//17 17//13 10//6 18//18
f 24//19 16//12 17//13 25//17
f 23//20 15//11 16//12 24//19
f 22//21 14//10 15//11 23//20
f 21//22 13//9 14//10 22//21
f 20//23 12//8 13//9 21//22
f 19//24 11//7 12//8 20//23
f 18//18 10//6 11//7 19//24
f 3//16 1//16 18//16 19//16
f 4//16 3//16 19//16 20//16
f 5//16 4//16 20//16 21//16
f 6//16 5//16 21//16 22//16
f 7//16 6//16 22//16 23//16
f 8//16 7//16 23//16 24//16
f 9//16 8//16 24//16 25//16
f 1//16 9//16 25//16 18//16
f 9//25 1//14 26//16
f 7//26 8//27 26//16
f 5//28 6//29 26//16
f 3//15 4//30 26//16
f 8//27 9//25 26//16
f 6//29 7//26 26//16
f 4//30 5//28 26//16
f 35//2 36//2 38//31 37//31
f 37//31 38//31 40//32 39//32
f 39//32 40//32 42//33 41//33
f 38//34 36//34 44//34 42//34 40//34
f 41//33 42//33 44//35 43//35
f 43//35 44//35 36//2 35//2
f 45//1 49//1 52//1 48//1
f 46//36 50//37 49//37 45//36
f 47//3 51//3 50//3 46//3
f 48//38 52//39 51//39 47//38
f 49//1 53//1 56//1 52//1
f 50//37 54//40 53//40 49//37
f 51//3 55//3 54//3 50//3
f 52//39 56//41 55//41 51//39
f 53//1 57//1 60//1 56//1
f 54//40 58//42 57//42 53//40
f 55//3 59//3 58//3 54//3
f 56//41 60//43 59//43 55//41
f 57//1 61//1 64//1 60//1
f 58//42 62//44 61//44 57//42
f 59//3 63//3 62//3 58//3
f 60//43 64//45 63//45 59//43
f 61//1 65//1 68//1 64//1
f 62//44 66//46 65//46 61//44
f 63//3 67//3 66//3 62//3
f 64//45 68//47 67//47 63//45
f 65//1 69//1 72//1 68//1
f 66//46 70//48 69//48 65//46
f 67//3 71//3 70//3 66//3
f 68//47 72//49 71//49 67//47
f 73//50 79//5 75//51
f 74//52 73//50 75//51 76//53
f 75//51 79//5 77//54
f 76//53 75//51 77//54 78//55
f 77//54 79//5 80//56
f 78//55 77//54 80//56 81//57
f 80//56 79//5 82//58
f 81//57 80//56 82//58 83//59
f 82//58 79//5 73//50
f 83//59 82//58 73//50 74//52
f 84//50 86//58 90//5
f 85//52 87//59 86//58 84//50
f 86//58 88//56 90//5
f 87//59 89//57 88//56 86//58
f 88//56 91//54 90//5
f 89//57 92//55 91//54 88//56
f 91//54 93//51 90//5
f 92//55 94//53 93//51 91//54
f 93//51 84//50 90//5
f 94//53 85//52 84//50 93//51
f 95//2 96//2 98//60 97//60
f 97//60 98//60 100//61 99//61
f 99//61 100//61 102//4 101//4
f 101//4 102//4 104//62 103//62
f 98//5 96//5 106//5 104//5 102//5 100//5
f 103//62 104//62 106//63 105//63
f 105//63 106//63 96//2 95//2
