# Blender v2.79 (sub 0) OBJ File: 'mod_Puppentisch_ArbeitsZ.blend'
# www.blender.org
g Puppentisch_ArbeitsZ
v 0.088984 1.379280 -1.742722
v 0.088984 1.379280 1.742722
v 1.824371 1.379280 -1.742722
v 1.824371 1.379280 1.742722
v 0.088984 1.161218 -1.742722
v 0.088984 1.161218 1.742722
v 1.824371 1.161218 -1.742722
v 1.824371 1.161218 1.742722
v 0.000000 1.379881 1.816372
v 0.000000 1.490431 1.816372
v 0.000000 1.379881 -1.816372
v 0.000000 1.490431 -1.816372
v 1.913355 1.490431 1.816372
v 1.913355 1.490431 -1.816372
v 1.913355 1.379881 -1.816372
v 1.913355 1.379881 1.816372
v 0.000000 2.495865 1.797600
v 0.000000 2.563895 1.797600
v 0.000000 2.495865 -1.797600
v 0.000000 2.563895 -1.797600
v 0.848373 2.563895 1.797600
v 0.848373 2.563895 -1.797600
v 0.848373 2.495865 -1.797600
v 0.848373 2.495865 1.797600
v 0.000000 2.563895 1.733224
v 0.000000 2.563895 -1.733224
v 0.848373 2.495865 1.733224
v 0.848373 2.495865 -1.733224
v 0.848373 2.563895 -1.733224
v 0.848373 2.563895 1.733224
v 0.000000 2.495865 1.733224
v 0.000000 2.495865 -1.733224
v 0.848373 1.474749 -1.797600
v 0.000000 1.474749 -1.797600
v 0.848373 1.474749 -1.733224
v 0.000000 1.474749 1.797600
v 0.848373 1.474749 1.797600
v 0.000000 1.474749 -1.733224
v 0.848373 1.474749 1.733224
v 0.000000 1.474749 1.733224
v -0.000000 1.819399 0.792078
v -0.000000 1.819399 -0.792078
v 0.824052 1.755621 0.792078
v 0.824052 1.755621 -0.792078
v 0.824052 1.819399 -0.792078
v 0.824052 1.819399 0.792078
v 0.000000 1.755621 0.792078
v 0.000000 1.755621 -0.792078
v 1.728234 -0.000001 1.749853
v 1.528600 1.379881 1.607931
v 1.754141 -0.000001 1.675341
v 1.598004 1.379881 1.408311
v 1.822890 -0.000001 1.782763
v 1.728220 1.379881 1.677336
v 1.848797 -0.000001 1.708251
v 1.797624 1.379881 1.477716
v 0.185121 -0.000001 1.749853
v 0.384756 1.379881 1.607931
v 0.159215 -0.000001 1.675341
v 0.315351 1.379881 1.408311
v 0.090465 -0.000001 1.782763
v 0.185136 1.379881 1.677336
v 0.064559 -0.000001 1.708251
v 0.115731 1.379881 1.477716
v 1.728234 -0.000001 -1.749853
v 1.528600 1.379881 -1.607932
v 1.754141 -0.000001 -1.675341
v 1.598004 1.379881 -1.408312
v 1.822890 -0.000001 -1.782763
v 1.728220 1.379881 -1.677336
v 1.848797 -0.000001 -1.708251
v 1.797624 1.379881 -1.477716
v 0.185121 -0.000001 -1.749853
v 0.384756 1.379881 -1.607932
v 0.159215 -0.000001 -1.675341
v 0.315351 1.379881 -1.408312
v 0.090465 -0.000001 -1.782763
v 0.185136 1.379881 -1.677336
v 0.064559 -0.000001 -1.708251
v 0.115731 1.379881 -1.477716
v 1.548216 0.348329 1.266055
v 1.548216 0.348329 1.164839
v 1.426219 0.348329 1.266055
v 1.426219 0.348329 1.164839
v 1.548216 1.379881 1.164839
v 1.548216 1.379881 1.266055
v 1.426219 1.379881 1.164839
v 1.426219 1.379881 1.266055
v 0.365139 0.348329 1.266055
v 0.365139 0.348329 1.164839
v 0.487136 0.348329 1.266055
v 0.487136 0.348329 1.164839
v 0.365139 1.379881 1.164839
v 0.365139 1.379881 1.266055
v 0.487136 1.379881 1.164839
v 0.487136 1.379881 1.266055
v 1.548216 0.348329 0.471390
v 1.548216 0.348329 0.572607
v 1.426219 0.348329 0.471390
v 1.426219 0.348329 0.572607
v 1.548216 1.379881 0.572607
v 1.548216 1.379881 0.471390
v 1.426219 1.379881 0.572607
v 1.426219 1.379881 0.471390
v 0.365139 0.348329 0.471390
v 0.365139 0.348329 0.572607
v 0.487136 0.348329 0.471390
v 0.487136 0.348329 0.572607
v 0.365139 1.379881 0.572607
v 0.365139 1.379881 0.471390
v 0.487136 1.379881 0.572607
v 0.487136 1.379881 0.471390
v 1.548216 0.348329 -1.266055
v 1.548216 0.348329 -1.164839
v 1.426219 0.348329 -1.266055
v 1.426219 0.348329 -1.164839
v 1.548216 1.379881 -1.164839
v 1.548216 1.379881 -1.266055
v 1.426219 1.379881 -1.164839
v 1.426219 1.379881 -1.266055
v 0.365139 0.348329 -1.266055
v 0.365139 0.348329 -1.164839
v 0.487136 0.348329 -1.266055
v 0.487136 0.348329 -1.164839
v 0.365139 1.379881 -1.164839
v 0.365139 1.379881 -1.266055
v 0.487136 1.379881 -1.164839
v 0.487136 1.379881 -1.266055
v 1.548216 0.348329 -0.471390
v 1.548216 0.348329 -0.572607
v 1.426219 0.348329 -0.471390
v 1.426219 0.348329 -0.572607
v 1.548216 1.379881 -0.572607
v 1.548216 1.379881 -0.471390
v 1.426219 1.379881 -0.572607
v 1.426219 1.379881 -0.471390
v 0.365139 0.348329 -0.471390
v 0.365139 0.348329 -0.572607
v 0.487136 0.348329 -0.471390
v 0.487136 0.348329 -0.572607
v 0.365139 1.379881 -0.572607
v 0.365139 1.379881 -0.471390
v 0.487136 1.379881 -0.572607
v 0.487136 1.379881 -0.471390
v 0.848373 2.503270 0.821376
v 0.848373 1.471369 0.821376
v 0.000000 2.503270 0.821376
v 0.000000 1.471369 0.821376
v 0.000000 2.503270 0.757598
v 0.848373 2.503270 0.757598
v 0.848373 1.471369 0.757598
v 0.000000 1.471369 0.757598
v 0.848373 2.503270 -0.821377
v 0.848373 1.471369 -0.821377
v 0.000000 2.503270 -0.821377
v 0.000000 1.471369 -0.821377
v 0.000000 2.503270 -0.757598
v 0.848373 2.503270 -0.757598
v 0.848373 1.471369 -0.757598
v 0.000000 1.471369 -0.757598
v -0.000000 2.002950 1.763798
v -0.000000 2.002950 0.795581
v 0.824052 1.939172 1.763798
v 0.824052 1.939172 0.795581
v 0.824052 2.002950 0.795581
v 0.824052 2.002950 1.763798
v 0.000000 1.939172 1.763798
v 0.000000 1.939172 0.795581
v -0.000000 2.002950 -1.763798
v -0.000000 2.002950 -0.795580
v 0.824052 1.939172 -1.763798
v 0.824052 1.939172 -0.795580
v 0.824052 2.002950 -0.795580
v 0.824052 2.002950 -1.763798
v 0.000000 1.939172 -1.763798
v 0.000000 1.939172 -0.795580
v 0.365139 0.284551 1.266055
v 0.365139 0.348329 1.266055
v 0.365139 0.284551 0.471390
v 0.365139 0.348329 0.471390
v 1.548216 0.284551 0.471390
v 1.548216 0.348329 0.471390
v 1.548216 0.284551 1.266055
v 1.548216 0.348329 1.266055
v 1.426219 0.284551 0.471390
v 1.426219 0.348329 0.471390
v 0.365139 0.284551 -1.266055
v 0.365139 0.348329 -1.266055
v 0.365139 0.284551 -0.471390
v 0.365139 0.348329 -0.471390
v 1.548216 0.284551 -0.471390
v 1.548216 0.348329 -0.471390
v 1.548216 0.284551 -1.266055
v 1.548216 0.348329 -1.266055
v 1.426219 0.284551 -0.471390
v 1.426219 0.348329 -0.471390
vt 0.401520 -0.206692
vt 0.058129 -0.206692
vt 0.058129 -0.206692
vt 0.401520 -0.206692
vt 0.058129 -0.358855
vt 0.058129 -0.358855
vt 0.401520 -0.358855
vt 0.401520 -0.358855
vt 0.417641 -0.197997
vt 0.411969 -0.197997
vt 0.411968 -0.368153
vt 0.417641 -0.368153
vt 0.411980 -0.374489
vt 0.048969 -0.368153
vt 0.048980 -0.374489
vt 0.043297 -0.368153
vt 0.048969 -0.197997
vt 0.043297 -0.197997
vt 0.417641 -0.197997
vt 0.411969 -0.197997
vt 0.411968 -0.368153
vt 0.417641 -0.368153
vt 0.169980 -0.374489
vt 0.169969 -0.368153
vt 0.048969 -0.368153
vt 0.048980 -0.374489
vt 0.043297 -0.368153
vt 0.048969 -0.197997
vt 0.043297 -0.197997
vt 0.169969 -0.197997
vt 0.411980 -0.374489
vt 0.290980 -0.374489
vt 0.290980 -0.374489
vt 0.411980 -0.374489
vt 0.168078 -0.197997
vt 0.169980 -0.374489
vt 0.168078 -0.197997
vt 0.292859 -0.197997
vt 0.290969 -0.197997
vt 0.290969 -0.368153
vt 0.292859 -0.197997
vt 0.043297 -0.197997
vt 0.043297 -0.368153
vt 0.048980 -0.374489
vt 0.417641 -0.368153
vt 0.417641 -0.197997
vt 0.290980 -0.374489
vt 0.169980 -0.374489
vt 0.168078 -0.197997
vt 0.292859 -0.197997
vt 0.290969 -0.368153
vt 0.290969 -0.197997
vt 0.169969 -0.197997
vt 0.169969 -0.368153
vt 0.000000 0.000000
vt 0.000000 0.000000
vt 0.000000 0.000000
vt 0.000000 0.000000
vt 0.000000 0.000000
vt 0.000000 0.000000
vt 0.000000 0.000000
vt 0.000000 0.000000
vt 0.000000 0.000000
vt 0.000000 0.000000
vt 0.000000 0.000000
vt 0.000000 0.000000
vt 0.000000 0.000000
vt 0.000000 0.000000
vt 0.000000 0.000000
vt 0.000000 0.000000
vt 0.000000 0.000000
vt 0.000000 0.000000
vt 0.000000 0.000000
vt 0.000000 0.000000
vt 0.000000 0.000000
vt 0.000000 0.000000
vt 0.000000 0.000000
vt 0.000000 0.000000
vt 0.000000 0.000000
vt 0.000000 0.000000
vt 0.000000 0.000000
vt 0.000000 0.000000
vt 0.000000 0.000000
vt 0.000000 0.000000
vt 0.000000 0.000000
vt 0.000000 0.000000
vt 0.000000 0.000000
vt 0.000000 0.000000
vt 0.000000 0.000000
vt 0.000000 0.000000
vt 0.000000 0.000000
vt 0.000000 0.000000
vt 0.000000 0.000000
vt 0.000000 0.000000
vt 0.000000 0.000000
vt 0.000000 0.000000
vt 0.000000 0.000000
vt 0.000000 0.000000
vt 0.000000 0.000000
vt 0.000000 0.000000
vt 0.000000 0.000000
vt 0.000000 0.000000
vt 0.000000 0.000000
vt 0.000000 0.000000
vt 0.000000 0.000000
vt 0.000000 0.000000
vt 0.000000 0.000000
vt 0.000000 0.000000
vt 0.000000 0.000000
vt 0.000000 0.000000
vt 0.000000 0.000000
vt 0.000000 0.000000
vt 0.000000 0.000000
vt 0.000000 0.000000
vt 0.000000 0.000000
vt 0.000000 0.000000
vt 0.000000 0.000000
vt 0.000000 0.000000
vt 0.000000 0.000000
vt 0.000000 0.000000
vt 0.000000 0.000000
vt 0.000000 0.000000
vt 0.000000 0.000000
vt 0.000000 0.000000
vt 0.000000 0.000000
vt 0.000000 0.000000
vt 0.000000 0.000000
vt 0.000000 0.000000
vt 0.000000 0.000000
vt 0.000000 0.000000
vt 0.000000 0.000000
vt 0.000000 0.000000
vt 0.000000 0.000000
vt 0.000000 0.000000
vt 0.000000 0.000000
vt 0.000000 0.000000
vt 0.000000 0.000000
vt 0.000000 0.000000
vt 0.000000 0.000000
vt 0.000000 0.000000
vt 0.000000 0.000000
vt 0.000000 0.000000
vt 0.000000 0.000000
vt 0.000000 0.000000
vt 0.000000 0.000000
vt 0.000000 0.000000
vt 0.000000 0.000000
vt 0.000000 0.000000
vt 0.000000 0.000000
vt 0.000000 0.000000
vt 0.000000 0.000000
vt 0.000000 0.000000
vt 0.000000 0.000000
vt 0.000000 0.000000
vt 0.000000 0.000000
vt 0.000000 0.000000
vt 0.000000 0.000000
vt 0.000000 0.000000
vt 0.000000 0.000000
vt 0.000000 0.000000
vt 0.000000 0.000000
vt 0.000000 0.000000
vt 0.000000 0.000000
vt 0.000000 0.000000
vt 0.000000 0.000000
vt 0.000000 0.000000
vt 0.290980 -0.374489
vt 0.169980 -0.374489
vt 0.168078 -0.197997
vt 0.292859 -0.197997
vt 0.290969 -0.368153
vt 0.290969 -0.197997
vt 0.169969 -0.197997
vt 0.169969 -0.368153
vt 0.290980 -0.374489
vt 0.292859 -0.197997
vt 0.168078 -0.197997
vt 0.169980 -0.374489
vt 0.290969 -0.368153
vt 0.169969 -0.368153
vt 0.169969 -0.197997
vt 0.290969 -0.197997
vt 0.000000 0.000000
vt 0.000000 0.000000
vt 0.000000 0.000000
vt 0.000000 0.000000
vt 0.000000 0.000000
vt 0.000000 0.000000
vt 0.000000 0.000000
vt 0.000000 0.000000
vt 0.000000 0.000000
vt 0.000000 0.000000
vt 0.000000 0.000000
vt 0.000000 0.000000
vt 0.000000 0.000000
vt 0.000000 0.000000
vt 0.000000 0.000000
vt 0.000000 0.000000
vt 0.000000 0.000000
vt 0.000000 0.000000
vt 0.000000 0.000000
vt 0.000000 0.000000
vn 1.0000 0.0000 0.0000
vn 0.0000 0.0000 1.0000
vn 0.0000 0.0000 -1.0000
vn 0.0000 1.0000 0.0000
vn 0.0000 -1.0000 0.0000
vn -0.9311 -0.1680 -0.3237
vn 0.3250 -0.1441 -0.9347
vn 0.9407 0.0895 0.3271
vn -0.3280 0.0496 0.9434
vn 0.9311 -0.1680 -0.3237
vn -0.3250 -0.1441 -0.9347
vn -0.9407 0.0895 0.3271
vn 0.3280 0.0496 0.9434
vn -0.9311 -0.1680 0.3237
vn 0.3250 -0.1441 0.9347
vn 0.9407 0.0895 -0.3271
vn -0.3280 0.0496 -0.9434
vn 0.9311 -0.1680 0.3237
vn -0.3250 -0.1441 0.9347
vn -0.9407 0.0895 -0.3271
vn 0.3280 0.0496 -0.9434
vn -1.0000 0.0000 -0.0000
s off
f 3/1/1 4/2/1 8/3/1 7/4/1
f 4/2/2 2/5/2 6/6/2 8/3/2
f 1/7/3 3/1/3 7/4/3 5/8/3
f 11/9/3 12/10/3 14/11/3 15/12/3
f 15/13/1 14/11/1 13/14/1 16/15/1
f 16/16/2 13/14/2 10/17/2 9/18/2
f 14/11/4 12/10/4 10/17/4 13/14/4
f 15/13/5 16/15/5 9/18/5 11/9/5
f 19/19/3 20/20/3 22/21/3 23/22/3
f 27/23/1 30/24/1 21/25/1 24/26/1
f 24/27/2 21/25/2 18/28/2 17/29/2
f 30/24/4 25/30/4 18/28/4 21/25/4
f 23/31/1 28/32/1 35/33/1 33/34/1
f 31/35/3 27/23/3 39/36/3 40/37/3
f 28/32/5 27/23/5 31/35/5 32/38/5
f 22/21/4 20/20/4 26/39/4 29/40/4
f 29/40/4 26/39/4 25/30/4 30/24/4
f 23/31/1 22/21/1 29/40/1 28/32/1
f 28/32/1 29/40/1 30/24/1 27/23/1
f 28/32/2 32/38/2 38/41/2 35/33/2
f 24/27/2 17/29/2 36/42/2 37/43/2
f 27/23/1 24/26/1 37/44/1 39/36/1
f 19/19/3 23/22/3 33/45/3 34/46/3
f 44/47/5 43/48/5 47/49/5 48/50/5
f 45/51/4 42/52/4 41/53/4 46/54/4
f 44/47/1 45/51/1 46/54/1 43/48/1
f 49/55/6 50/56/6 52/57/6 51/58/6
f 51/58/7 52/57/7 56/59/7 55/60/7
f 55/60/8 56/59/8 54/61/8 53/62/8
f 53/62/9 54/61/9 50/56/9 49/55/9
f 57/63/10 59/64/10 60/65/10 58/66/10
f 59/64/11 63/67/11 64/68/11 60/65/11
f 63/67/12 61/69/12 62/70/12 64/68/12
f 61/69/13 57/63/13 58/66/13 62/70/13
f 65/71/14 67/72/14 68/73/14 66/74/14
f 67/72/15 71/75/15 72/76/15 68/73/15
f 71/75/16 69/77/16 70/78/16 72/76/16
f 69/77/17 65/71/17 66/74/17 70/78/17
f 73/79/18 74/80/18 76/81/18 75/82/18
f 75/82/19 76/81/19 80/83/19 79/84/19
f 79/84/20 80/83/20 78/85/20 77/86/20
f 77/86/21 78/85/21 74/80/21 73/79/21
f 82/87/3 84/88/3 87/89/3 85/90/3
f 84/88/22 83/91/22 88/92/22 87/89/22
f 81/93/1 82/87/1 85/90/1 86/94/1
f 83/91/2 81/93/2 86/94/2 88/92/2
f 90/95/3 93/96/3 95/97/3 92/98/3
f 92/98/1 95/97/1 96/99/1 91/100/1
f 89/101/22 94/102/22 93/96/22 90/95/22
f 91/100/2 96/99/2 94/102/2 89/101/2
f 98/103/2 101/104/2 103/105/2 100/106/2
f 100/106/22 103/105/22 104/107/22 99/108/22
f 97/109/1 102/110/1 101/104/1 98/103/1
f 99/108/3 104/107/3 102/110/3 97/109/3
f 106/111/2 108/112/2 111/113/2 109/114/2
f 108/112/1 107/115/1 112/116/1 111/113/1
f 105/117/22 106/111/22 109/114/22 110/118/22
f 107/115/3 105/117/3 110/118/3 112/116/3
f 114/119/2 117/120/2 119/121/2 116/122/2
f 116/122/22 119/121/22 120/123/22 115/124/22
f 113/125/1 118/126/1 117/120/1 114/119/1
f 115/124/3 120/123/3 118/126/3 113/125/3
f 122/127/2 124/128/2 127/129/2 125/130/2
f 124/128/1 123/131/1 128/132/1 127/129/1
f 121/133/22 122/127/22 125/130/22 126/134/22
f 123/131/3 121/133/3 126/134/3 128/132/3
f 130/135/3 132/136/3 135/137/3 133/138/3
f 132/136/22 131/139/22 136/140/22 135/137/22
f 129/141/1 130/135/1 133/138/1 134/142/1
f 131/139/2 129/141/2 134/142/2 136/140/2
f 138/143/3 141/144/3 143/145/3 140/146/3
f 140/146/1 143/145/1 144/147/1 139/148/1
f 137/149/22 142/150/22 141/144/22 138/143/22
f 139/148/2 144/147/2 142/150/2 137/149/2
f 145/151/2 147/152/2 148/153/2 146/154/2
f 150/155/3 151/156/3 152/157/3 149/158/3
f 145/151/1 146/154/1 151/156/1 150/155/1
f 153/159/3 154/160/3 156/161/3 155/162/3
f 158/163/2 157/164/2 160/165/2 159/166/2
f 153/159/1 158/163/1 159/166/1 154/160/1
f 164/167/5 163/168/5 167/169/5 168/170/5
f 165/171/4 162/172/4 161/173/4 166/174/4
f 164/167/1 165/171/1 166/174/1 163/168/1
f 172/175/5 176/176/5 175/177/5 171/178/5
f 173/179/4 174/180/4 169/181/4 170/182/4
f 172/175/1 171/178/1 174/180/1 173/179/1
f 185/183/3 186/184/3 182/185/3 181/186/3
f 180/187/3 186/184/3 185/183/3 179/188/3
f 180/187/4 178/189/4 184/190/4 182/185/4 186/184/4
f 182/185/1 184/190/1 183/191/1 181/186/1
f 183/191/2 184/190/2 178/189/2 177/192/2
f 195/193/2 191/194/2 192/195/2 196/196/2
f 190/197/2 189/198/2 195/193/2 196/196/2
f 190/197/4 196/196/4 192/195/4 194/199/4 188/200/4
f 192/195/1 191/194/1 193/201/1 194/199/1
f 193/201/3 187/202/3 188/200/3 194/199/3
f 162/172/22 168/170/22 167/169/22 161/173/22
f 147/152/22 149/158/22 152/157/22 148/153/22
f 40/37/22 36/42/22 17/29/22 31/35/22
f 26/39/22 32/38/22 31/35/22 25/30/22
f 17/29/22 18/28/22 25/30/22 31/35/22
f 9/18/22 10/17/22 12/10/22 11/9/22
f 42/52/22 48/50/22 47/49/22 41/53/22
f 155/162/22 156/161/22 160/165/22 157/164/22
f 19/19/22 34/46/22 38/41/22 32/38/22
f 170/182/22 169/181/22 175/177/22 176/176/22
f 26/39/22 20/20/22 19/19/22 32/38/22
f 2/5/22 1/7/22 5/8/22 6/6/22
f 187/202/22 189/198/22 190/197/22 188/200/22
f 177/192/22 178/189/22 180/187/22 179/188/22
