# Blender v2.78 (sub 0) OBJ File: 'Küche_UVbearbeiten.blend'
# www.blender.org
mtllib mod_Kuechenzeile_Ecke.mtl
g Kuechenzeile_Ecke.001
v 1.318918 1.776305 0.502584
v 0.000000 1.776305 0.502585
v -0.000001 1.776305 -0.507678
v 1.318918 1.776305 -0.507678
v 1.238600 0.329570 0.351696
v 1.238600 0.329570 -0.276834
v 1.178600 0.329570 -0.276834
v 1.178600 0.329570 0.351696
v 1.198600 0.107049 0.574216
v 1.198600 0.107049 -0.499355
v 1.238600 0.107049 -0.499355
v 1.238600 0.107049 0.574216
v 1.198600 1.457778 -0.499355
v 1.198600 1.457778 0.574216
v 1.238600 1.457778 0.574216
v 1.238600 1.457778 -0.499355
v 1.238600 1.235258 0.351696
v 1.238600 1.235258 -0.276834
v 1.178600 1.235258 0.351696
v 1.178600 1.235258 -0.276834
v 2.101214 0.329570 0.581572
v 1.472685 0.329570 0.581572
v 1.472685 0.329570 0.641572
v 2.101214 0.329570 0.641572
v 2.323735 0.107049 0.621572
v 1.250164 0.107049 0.621572
v 1.250164 0.107049 0.581572
v 2.323735 0.107049 0.581572
v 1.250164 1.457778 0.621572
v 2.323735 1.457778 0.621572
v 2.323735 1.457778 0.581573
v 1.250164 1.457778 0.581573
v 2.101214 1.235258 0.581572
v 1.472685 1.235258 0.581572
v 2.101214 1.235258 0.641572
v 1.472685 1.235258 0.641572
v 1.186138 1.482800 -0.499355
v 1.186138 1.762299 -0.499355
v 1.246138 1.762299 -0.499355
v 1.246138 1.482800 -0.499355
v 1.246138 1.762299 0.574217
v 1.246138 1.482800 0.574216
v 1.186138 1.762299 0.574217
v 1.186138 1.482800 0.574216
v 1.249760 1.482800 0.623572
v 1.249760 1.762299 0.623572
v 1.249760 1.762299 0.563572
v 1.249760 1.482800 0.563571
v 2.323331 1.762299 0.563572
v 2.323331 1.482800 0.563571
v 2.323331 1.762299 0.623572
v 2.323331 1.482800 0.623572
v 0.000000 0.000000 1.823158
v 0.000000 1.786887 1.823159
v 0.000000 1.786887 0.622374
v 0.000000 0.000000 0.622373
v 2.328559 0.000000 0.622373
v 2.328559 1.786887 0.622374
v 2.328559 1.786887 1.823159
v 2.328559 0.000000 1.823158
v 1.199114 0.000000 0.622373
v 1.199115 0.000000 1.823158
v 1.199115 1.786887 1.823159
v 1.199114 1.786887 0.622374
v 1.199114 0.000000 -0.507679
v -0.000001 0.000000 -0.507679
v -0.000001 1.786887 -0.507678
v 1.199114 1.786887 -0.507678
v 0.000000 1.776305 1.823159
v 0.000000 1.890000 1.823159
v 0.000000 1.890000 0.502585
v 1.318918 1.890000 0.502584
v 2.328559 1.890000 0.502584
v 2.328559 1.776305 0.502584
v -0.000001 1.890000 -0.507678
v 1.318918 1.890000 -0.507678
v 2.328559 1.890000 1.823159
v 2.328559 1.776305 1.823159
v 1.318918 1.890000 1.823159
v 1.318918 1.776305 1.823159
v 1.234948 0.798651 0.400218
v 1.234948 0.845225 0.415742
v 1.269448 0.833150 0.427817
v 1.281523 0.798651 0.415742
v 1.269448 0.764151 0.427817
v 1.234948 0.752076 0.415742
v 1.297047 0.798651 0.462317
v 1.281523 0.752076 0.462317
v 1.281523 0.845225 0.462317
v 1.269448 0.833150 0.496816
v 1.281523 0.798651 0.508891
v 1.269448 0.764151 0.496816
v 1.234948 0.798651 0.524416
v 1.234948 0.752076 0.508891
v 1.234948 0.845225 0.508891
v 1.234948 0.736552 0.462317
v 1.234948 0.860750 0.462317
v 1.248975 1.622549 -0.024668
v 1.248975 1.669124 -0.009143
v 1.283474 1.657049 0.002932
v 1.295549 1.622549 -0.009143
v 1.283474 1.588050 0.002931
v 1.248975 1.575975 -0.009143
v 1.311074 1.622549 0.037431
v 1.295549 1.575975 0.037431
v 1.295549 1.669124 0.037431
v 1.283474 1.657049 0.071931
v 1.295549 1.622549 0.084005
v 1.283474 1.588050 0.071931
v 1.248975 1.622549 0.099530
v 1.248975 1.575975 0.084005
v 1.248975 1.669124 0.084006
v 1.248975 1.560450 0.037431
v 1.248975 1.684648 0.037431
v 1.724850 1.622549 0.560735
v 1.740375 1.669124 0.560736
v 1.752450 1.657049 0.526236
v 1.740375 1.622549 0.514161
v 1.752450 1.588050 0.526235
v 1.740375 1.575975 0.560735
v 1.786949 1.622549 0.498637
v 1.786949 1.575975 0.514161
v 1.786949 1.669124 0.514161
v 1.821449 1.657049 0.526236
v 1.833524 1.622549 0.514161
v 1.821449 1.588050 0.526235
v 1.849049 1.622549 0.560735
v 1.833524 1.575975 0.560735
v 1.833524 1.669124 0.560736
v 1.786949 1.560450 0.560735
v 1.786949 1.684649 0.560736
v 1.284255 0.798651 0.585224
v 1.299780 0.845225 0.585224
v 1.311854 0.833150 0.550724
v 1.299780 0.798651 0.538650
v 1.311854 0.764151 0.550724
v 1.299780 0.752076 0.585224
v 1.346354 0.798651 0.523125
v 1.346354 0.752076 0.538650
v 1.346354 0.845225 0.538650
v 1.380854 0.833150 0.550724
v 1.392928 0.798651 0.538650
v 1.380854 0.764151 0.550724
v 1.408453 0.798651 0.585224
v 1.392928 0.752076 0.585224
v 1.392928 0.845225 0.585224
v 1.346354 0.736552 0.585224
v 1.346354 0.860750 0.585224
vt 0.7647 0.2512
vt 0.7647 0.2512
vt 0.8271 0.2512
vt 0.8271 0.2512
vt 0.0696 0.5935
vt 0.0308 0.5935
vt 0.0308 0.5935
vt 0.0696 0.5935
vt 0.0858 0.6405
vt 0.0195 0.6405
vt 0.0195 0.6405
vt 0.0858 0.6405
vt 0.0195 0.4748
vt 0.0858 0.4748
vt 0.0858 0.4748
vt 0.0195 0.4748
vt 0.0672 0.4283
vt 0.0283 0.4283
vt 0.0146 0.4010
vt 0.0809 0.4010
vt 0.0672 0.5394
vt 0.0809 0.5666
vt 0.0283 0.5394
vt 0.0146 0.5666
vt 0.0308 0.4824
vt 0.0696 0.4824
vt 0.0696 0.4824
vt 0.0308 0.4824
vt 0.0838 0.5935
vt 0.0838 0.5935
vt 0.0875 0.5935
vt 0.0875 0.5935
vt 0.0887 0.6405
vt 0.0887 0.6405
vt 0.0863 0.6405
vt 0.0863 0.6405
vt 0.0887 0.4748
vt 0.0887 0.4748
vt 0.0863 0.4748
vt 0.0863 0.4748
vt 0.0814 0.4283
vt 0.0814 0.4283
vt 0.0814 0.4010
vt 0.0814 0.4010
vt 0.0814 0.5394
vt 0.0814 0.5666
vt 0.0814 0.5394
vt 0.0814 0.5666
vt 0.0838 0.4824
vt 0.0838 0.4824
vt 0.0875 0.4824
vt 0.0875 0.4824
vt 0.0195 0.4718
vt 0.0195 0.4375
vt 0.0195 0.4375
vt 0.0195 0.4718
vt 0.0146 0.3979
vt 0.0146 0.3637
vt 0.0809 0.3637
vt 0.0809 0.3979
vt 0.0858 0.4718
vt 0.0858 0.4375
vt 0.0858 0.4375
vt 0.0858 0.4718
vt 0.0889 0.4718
vt 0.0889 0.4375
vt 0.0852 0.4375
vt 0.0852 0.4718
vt 0.0802 0.3979
vt 0.0802 0.3637
vt 0.0802 0.3637
vt 0.0802 0.3979
vt 0.0852 0.4718
vt 0.0852 0.4375
vt 0.0889 0.4375
vt 0.0889 0.4718
vt 0.1605 0.6339
vt 0.1605 0.4148
vt 0.0863 0.4148
vt 0.0863 0.6339
vt 0.0863 0.6339
vt 0.0863 0.4148
vt 0.1605 0.4148
vt 0.1605 0.6339
vt 0.0863 0.6339
vt 0.1605 0.6339
vt 0.1605 0.4148
vt 0.0863 0.4148
vt 0.0165 0.6339
vt 0.0165 0.6339
vt 0.0165 0.4148
vt 0.0165 0.4148
vt 0.6831 0.2512
vt 0.6831 0.2652
vt 0.7647 0.2652
vt 0.7647 0.2652
vt 0.7647 0.2652
vt 0.7647 0.2512
vt 0.8271 0.2652
vt 0.8271 0.2652
vt 0.6831 0.2652
vt 0.6831 0.2512
vt 0.6831 0.2652
vt 0.6831 0.2512
vt 0.1137 0.5958
vt 0.1146 0.5901
vt 0.1154 0.5916
vt 0.1146 0.5958
vt 0.1154 0.6001
vt 0.1146 0.6015
vt 0.1175 0.5958
vt 0.1175 0.6015
vt 0.1175 0.5901
vt 0.1197 0.5916
vt 0.1204 0.5958
vt 0.1197 0.6001
vt 0.1214 0.5958
vt 0.1204 0.6015
vt 0.1204 0.5901
vt 0.1175 0.6034
vt 0.1175 0.5882
vt 0.0911 0.5391
vt 0.0921 0.5334
vt 0.0928 0.5349
vt 0.0921 0.5391
vt 0.0928 0.5433
vt 0.0921 0.5448
vt 0.0950 0.5391
vt 0.0950 0.5448
vt 0.0950 0.5334
vt 0.0971 0.5349
vt 0.0978 0.5391
vt 0.0971 0.5433
vt 0.0988 0.5391
vt 0.0978 0.5448
vt 0.0978 0.5334
vt 0.0950 0.5467
vt 0.0950 0.5315
vt 0.1273 0.5391
vt 0.1273 0.5334
vt 0.1252 0.5349
vt 0.1244 0.5391
vt 0.1252 0.5433
vt 0.1273 0.5448
vt 0.1235 0.5391
vt 0.1244 0.5448
vt 0.1244 0.5334
vt 0.1252 0.5349
vt 0.1244 0.5391
vt 0.1252 0.5433
vt 0.1273 0.5391
vt 0.1273 0.5448
vt 0.1273 0.5334
vt 0.1273 0.5467
vt 0.1273 0.5315
vt 0.1251 0.5958
vt 0.1251 0.5901
vt 0.1230 0.5916
vt 0.1222 0.5958
vt 0.1230 0.6001
vt 0.1251 0.6015
vt 0.1213 0.5958
vt 0.1222 0.6015
vt 0.1222 0.5901
vt 0.1230 0.5916
vt 0.1222 0.5958
vt 0.1230 0.6001
vt 0.1251 0.5958
vt 0.1251 0.6015
vt 0.1251 0.5901
vt 0.1251 0.6034
vt 0.1251 0.5882
vn -0.0000 -1.0000 -0.0000
vn 0.0000 1.0000 0.0000
vn 0.0000 0.0000 -1.0000
vn 0.0000 -0.0000 1.0000
vn 1.0000 -0.0000 0.0000
vn -1.0000 0.0000 0.0000
vn 0.3714 0.0000 -0.9285
vn 0.3746 0.6556 -0.6556
vn 0.5774 0.5773 -0.5774
vn 0.7071 0.0000 -0.7071
vn 0.5774 -0.5774 -0.5774
vn 0.3746 -0.6556 -0.6556
vn 0.7071 -0.7071 0.0000
vn 0.7071 0.7071 0.0000
vn 0.5773 0.5773 0.5774
vn 0.7071 0.0000 0.7071
vn 0.5774 -0.5774 0.5774
vn 0.3714 0.0000 0.9285
vn 0.3746 -0.6556 0.6556
vn 0.3746 0.6556 0.6556
vn 0.3714 -0.9285 0.0000
vn 0.3714 0.9285 0.0000
vn 0.5773 0.5774 -0.5774
vn 0.5774 0.5774 0.5773
vn 0.5774 -0.5774 0.5773
vn -0.9285 -0.0000 -0.3714
vn -0.6556 0.6556 -0.3746
vn -0.5774 0.5773 -0.5774
vn -0.7071 -0.0000 -0.7071
vn -0.5774 -0.5773 -0.5774
vn -0.6556 -0.6556 -0.3746
vn -0.0000 -0.7071 -0.7071
vn -0.0000 0.7071 -0.7071
vn 0.5773 0.5773 -0.5774
vn 0.5773 -0.5774 -0.5774
vn 0.9285 -0.0000 -0.3714
vn 0.6556 -0.6556 -0.3746
vn 0.6556 0.6556 -0.3746
vn -0.0000 -0.9285 -0.3714
vn -0.0000 0.9285 -0.3714
vn 0.5774 -0.5773 -0.5774
usemtl None
s off
f 1/1/1 2/2/1 3/3/1 4/4/1
f 5/5/2 6/6/2 7/7/2 8/8/2
f 9/9/1 10/10/1 11/11/1 12/12/1
f 13/13/2 14/14/2 15/15/2 16/16/2
f 10/10/3 13/13/3 16/16/3 11/11/3
f 14/14/4 9/9/4 12/12/4 15/15/4
f 17/17/5 18/18/5 16/19/5 15/20/5
f 5/21/5 17/17/5 15/20/5 12/22/5
f 6/23/5 5/21/5 12/22/5 11/24/5
f 18/18/5 6/23/5 11/24/5 16/19/5
f 18/25/1 17/26/1 19/27/1 20/28/1
f 6/6/4 18/25/4 20/28/4 7/7/4
f 17/26/3 5/5/3 8/8/3 19/27/3
f 21/29/2 22/30/2 23/31/2 24/32/2
f 25/33/1 26/34/1 27/35/1 28/36/1
f 29/37/2 30/38/2 31/39/2 32/40/2
f 26/34/6 29/37/6 32/40/6 27/35/6
f 30/38/5 25/33/5 28/36/5 31/39/5
f 33/41/3 34/42/3 32/43/3 31/44/3
f 21/45/3 33/41/3 31/44/3 28/46/3
f 22/47/3 21/45/3 28/46/3 27/48/3
f 34/42/3 22/47/3 27/48/3 32/43/3
f 34/49/1 33/50/1 35/51/1 36/52/1
f 22/30/5 34/49/5 36/52/5 23/31/5
f 33/50/6 21/29/6 24/32/6 35/51/6
f 37/53/3 38/54/3 39/55/3 40/56/3
f 40/57/5 39/58/5 41/59/5 42/60/5
f 42/61/4 41/62/4 43/63/4 44/64/4
f 37/53/1 40/56/1 42/61/1 44/64/1
f 39/55/2 38/54/2 43/63/2 41/62/2
f 45/65/6 46/66/6 47/67/6 48/68/6
f 48/69/3 47/70/3 49/71/3 50/72/3
f 50/73/5 49/74/5 51/75/5 52/76/5
f 45/65/1 48/68/1 50/73/1 52/76/1
f 47/67/2 46/66/2 51/75/2 49/74/2
f 53/77/6 54/78/6 55/79/6 56/80/6
f 57/81/5 58/82/5 59/83/5 60/84/5
f 61/85/1 57/81/1 60/84/1 62/86/1
f 63/87/4 54/78/4 53/77/4 62/86/4
f 57/81/3 61/85/3 64/88/3 58/82/3
f 59/83/4 63/87/4 62/86/4 60/84/4
f 56/80/1 61/85/1 62/86/1 53/77/1
f 65/89/3 66/90/3 67/91/3 68/92/3
f 56/80/6 55/79/6 67/91/6 66/90/6
f 64/88/5 61/85/5 65/89/5 68/92/5
f 61/85/1 56/80/1 66/90/1 65/89/1
s 1
f 69/93/6 70/94/6 71/95/6 2/2/6
f 1/1/3 72/96/3 73/97/3 74/98/3
f 3/3/3 75/99/3 76/100/3 4/4/3
f 74/98/5 73/97/5 77/101/5 78/102/5
f 78/102/4 77/101/4 79/103/4 80/104/4
f 72/96/5 1/1/5 4/4/5 76/100/5
f 71/95/2 72/96/2 76/100/2 75/99/2
f 2/2/6 71/95/6 75/99/6 3/3/6
f 71/95/2 70/94/2 79/103/2 72/96/2
f 72/96/2 79/103/2 77/101/2 73/97/2
f 80/104/4 79/103/4 70/94/4 69/93/4
f 81/105/7 82/106/8 83/107/9 84/108/10
f 81/105/7 84/108/10 85/109/11 86/110/12
f 87/111/5 88/112/13 85/109/11 84/108/10
f 87/111/5 84/108/10 83/107/9 89/113/14
f 87/111/5 89/113/14 90/114/15 91/115/16
f 87/111/5 91/115/16 92/116/17 88/112/13
f 93/117/18 94/118/19 92/116/17 91/115/16
f 93/117/18 91/115/16 90/114/15 95/119/20
f 96/120/21 86/110/12 85/109/11 88/112/13
f 96/120/21 88/112/13 92/116/17 94/118/19
f 97/121/22 89/113/14 83/107/9 82/106/8
f 97/121/22 95/119/20 90/114/15 89/113/14
f 98/122/7 99/123/8 100/124/23 101/125/10
f 98/122/7 101/125/10 102/126/11 103/127/12
f 104/128/5 105/129/13 102/126/11 101/125/10
f 104/128/5 101/125/10 100/124/23 106/130/14
f 104/128/5 106/130/14 107/131/24 108/132/16
f 104/128/5 108/132/16 109/133/25 105/129/13
f 110/134/18 111/135/19 109/133/25 108/132/16
f 110/134/18 108/132/16 107/131/24 112/136/20
f 113/137/21 103/127/12 102/126/11 105/129/13
f 113/137/21 105/129/13 109/133/25 111/135/19
f 114/138/22 106/130/14 100/124/23 99/123/8
f 114/138/22 112/136/20 107/131/24 106/130/14
f 115/139/26 116/140/27 117/141/28 118/142/29
f 115/139/26 118/142/29 119/143/30 120/144/31
f 121/145/3 122/146/32 119/143/30 118/142/29
f 121/145/3 118/142/29 117/141/28 123/147/33
f 121/145/3 123/147/33 124/148/34 125/149/10
f 121/145/3 125/149/10 126/150/35 122/146/32
f 127/151/36 128/152/37 126/150/35 125/149/10
f 127/151/36 125/149/10 124/148/34 129/153/38
f 130/154/39 120/144/31 119/143/30 122/146/32
f 130/154/39 122/146/32 126/150/35 128/152/37
f 131/155/40 123/147/33 117/141/28 116/140/27
f 131/155/40 129/153/38 124/148/34 123/147/33
f 132/156/26 133/157/27 134/158/28 135/159/29
f 132/156/26 135/159/29 136/160/30 137/161/31
f 138/162/3 139/163/32 136/160/30 135/159/29
f 138/162/3 135/159/29 134/158/28 140/164/33
f 138/162/3 140/164/33 141/165/9 142/166/10
f 138/162/3 142/166/10 143/167/41 139/163/32
f 144/168/36 145/169/37 143/167/41 142/166/10
f 144/168/36 142/166/10 141/165/9 146/170/38
f 147/171/39 137/161/31 136/160/30 139/163/32
f 147/171/39 139/163/32 143/167/41 145/169/37
f 148/172/40 140/164/33 134/158/28 133/157/27
f 148/172/40 146/170/38 141/165/9 140/164/33
