# Blender v2.78 (sub 0) OBJ File: 'Küche_UVbearbeiten.blend'
# www.blender.org
mtllib mod_Spuelbecken.mtl
g Spuele.001
v 0.125102 2.077052 -0.469967
v 0.125102 2.102009 -0.494924
v 0.125102 2.126966 -0.469967
v 0.125102 2.102009 -0.445011
v 0.050232 2.102009 -0.494924
v 0.050232 2.077053 -0.469967
v 0.050232 2.102009 -0.445011
v 0.050232 2.126966 -0.469967
v 0.125102 2.077052 -0.761142
v 0.125102 2.102009 -0.786098
v 0.125102 2.126966 -0.761142
v 0.125102 2.102009 -0.736185
v 0.050232 2.102009 -0.736185
v 0.050232 2.077053 -0.761141
v 0.050232 2.102009 -0.786098
v 0.050232 2.126966 -0.761141
v 1.191099 1.482800 -1.080847
v 1.191099 1.762299 -1.080847
v 1.251099 1.762299 -1.080847
v 1.251099 1.482800 -1.080847
v 1.251099 1.762299 -0.007276
v 1.251099 1.482800 -0.007276
v 1.191099 1.762299 -0.007276
v 1.191099 1.482800 -0.007276
v 1.191099 1.482800 -1.120041
v 1.251099 1.482800 -1.120041
v 1.251099 1.762299 -1.120041
v 1.191099 1.762299 -1.120041
v 1.251099 1.482800 -2.193612
v 1.251099 1.762299 -2.193612
v 1.191099 1.482800 -2.193612
v 1.191099 1.762299 -2.193612
v 1.243560 0.329570 -0.229797
v 1.243560 0.329570 -0.858326
v 1.183560 0.329570 -0.858326
v 1.183560 0.329570 -0.229797
v 1.203560 0.107049 -0.007276
v 1.203560 0.107049 -1.080847
v 1.243560 0.107049 -1.080847
v 1.243560 0.107049 -0.007276
v 1.203560 1.457778 -1.080847
v 1.203560 1.457778 -0.007276
v 1.243560 1.457778 -0.007276
v 1.243560 1.457778 -1.080847
v 1.243560 1.235258 -0.229797
v 1.243560 1.235258 -0.858326
v 1.183560 1.235258 -0.229797
v 1.183560 1.235258 -0.858326
v 1.243560 0.329570 -1.971091
v 1.183560 0.329570 -1.971091
v 1.183560 0.329570 -1.342562
v 1.243560 0.329570 -1.342562
v 1.203560 0.107049 -2.193612
v 1.243560 0.107049 -2.193612
v 1.243560 0.107049 -1.120041
v 1.203560 0.107049 -1.120041
v 1.203560 1.457778 -1.120041
v 1.243560 1.457778 -1.120041
v 1.243560 1.457778 -2.193612
v 1.203560 1.457778 -2.193612
v 1.243560 1.235258 -1.971091
v 1.243560 1.235258 -1.342562
v 1.183560 1.235258 -1.342562
v 1.183560 1.235258 -1.971091
v 0.000000 0.000000 -2.200888
v 0.000000 1.786887 -2.200888
v 1.199092 1.786887 -2.200888
v 1.199092 0.000000 -2.200888
v 1.199092 0.000000 0.000000
v 1.199092 1.786887 0.000000
v 0.000000 1.786887 0.000000
v 0.000000 0.000000 0.000000
v 0.000000 1.776305 -1.176547
v 0.000000 1.890000 -1.176547
v 0.000000 1.890000 -2.200888
v 0.000000 1.776305 -2.200888
v 1.318957 1.890000 -2.200888
v 1.318957 1.776305 -2.200888
v 1.318957 1.776305 -1.176547
v 1.318957 1.890000 -1.176547
v 1.318957 1.890000 0.000000
v 1.318957 1.776305 0.000000
v 0.000000 1.890000 0.000000
v 0.000000 1.776305 0.000000
v 1.076417 1.828305 -0.247115
v 1.076417 1.828305 -1.004357
v 1.076417 1.559301 -1.004357
v 1.076417 1.559301 -0.247115
v 0.170005 1.890000 -1.246109
v 1.215714 1.890000 -1.246109
v 1.116631 1.837937 -1.309972
v 0.269088 1.837937 -1.309972
v 0.170005 1.890000 -2.054043
v 1.215714 1.890000 -2.054043
v 1.116631 1.837937 -1.990180
v 0.269088 1.837937 -1.990180
v 0.343065 1.828305 -1.004357
v 0.343065 1.559301 -1.004357
v 0.343065 1.828305 -0.247115
v 0.343065 1.559301 -0.247115
v 1.112533 1.890000 -0.196780
v 0.273187 1.890000 -0.196780
v 1.112533 1.890000 -1.039430
v 0.273187 1.890000 -1.039430
v 0.051071 2.190382 -0.739194
v 0.051071 2.015950 -0.739194
v 0.051071 2.102161 -0.990971
v 0.051071 2.139976 -0.990971
v 0.017316 2.102161 -0.990971
v 0.017316 2.139976 -0.990971
v 0.017316 2.139976 -0.235642
v 0.017316 2.102161 -0.235642
v 0.051071 2.102161 -0.235642
v 0.051071 2.139976 -0.235642
v 0.017316 2.015950 -0.739194
v 0.017316 2.190382 -0.487418
v 0.051071 2.190382 -0.487418
v 0.017316 2.190382 -0.739194
v 0.017316 2.015950 -0.487418
v 0.051071 2.015950 -0.487418
v 0.000000 2.322353 -0.093423
v 0.000000 2.250517 -0.011404
v 0.035383 2.233128 -0.068179
v 0.035383 2.304964 -0.143722
v 0.035383 2.304964 -1.078625
v 0.035383 1.899284 -1.078625
v 0.035383 1.899284 -1.154168
v 0.035383 2.233128 -1.154168
v 0.000000 1.881895 -1.210944
v 0.000000 2.250517 -1.210944
v 0.000000 1.881895 -1.126329
v 0.000000 1.881895 -0.011404
v 0.000000 1.881895 -0.093423
v 0.035383 1.899284 -0.143723
v 0.035383 1.899284 -0.068179
v 0.000000 2.322353 -1.128925
v 0.034542 2.102124 -0.637260
v 0.414541 2.102124 -0.637260
v 0.410377 2.079684 -0.620678
v 0.034542 2.079301 -0.620678
v 0.411968 2.088256 -0.593849
v 0.034542 2.088019 -0.593849
v 0.417115 2.115992 -0.593849
v 0.034542 2.116229 -0.593849
v 0.418706 2.124563 -0.620678
v 0.510342 2.093719 -0.620679
v 0.493063 2.078810 -0.637261
v 0.034542 2.124947 -0.620678
v 0.516892 2.011728 -0.620293
v 0.495852 2.010144 -0.635623
v 0.475783 2.063900 -0.620679
v 0.482384 2.069595 -0.593849
v 0.503742 2.088024 -0.593849
v 0.474811 2.008560 -0.620292
v 0.508855 2.011123 -0.595488
v 0.482848 2.009165 -0.595488
v 0.087351 2.045226 -0.477141
v 0.096227 2.045225 -0.449822
v 0.104062 2.086822 -0.460606
v 0.100028 2.086822 -0.473022
v 0.110589 2.045225 -0.494024
v 0.110589 2.032377 -0.469590
v 0.124952 2.045225 -0.449822
v 0.117116 2.086822 -0.460606
v 0.133828 2.045225 -0.477141
v 0.121150 2.086822 -0.473022
v 0.110589 2.086822 -0.480695
v 0.121274 2.127152 -0.525128
v 0.134315 2.145250 -0.507030
v 0.121149 2.114362 -0.479092
v 0.115223 2.106138 -0.487316
v 0.092904 2.130330 -0.521950
v 0.110181 2.151632 -0.518818
v 0.114004 2.159612 -0.492668
v 0.111919 2.120890 -0.472565
v 0.088410 2.150391 -0.501889
v 0.100287 2.116699 -0.476755
v 0.102329 2.107582 -0.485872
v 0.131419 2.134326 -0.421981
v 0.105825 2.125105 -0.412760
v 0.107910 2.105001 -0.451482
v 0.119542 2.109192 -0.455673
v 0.126925 2.154387 -0.442042
v 0.109648 2.151255 -0.420740
v 0.085514 2.139467 -0.427122
v 0.098680 2.111529 -0.458009
v 0.098555 2.157564 -0.445219
v 0.104606 2.119753 -0.466234
v 0.117500 2.118309 -0.464790
v 0.087351 2.045226 -0.753968
v 0.100028 2.086822 -0.758088
v 0.104062 2.086822 -0.770503
v 0.096227 2.045225 -0.781287
v 0.110589 2.045225 -0.737085
v 0.110589 2.032377 -0.761519
v 0.117116 2.086822 -0.770503
v 0.124952 2.045225 -0.781287
v 0.121150 2.086822 -0.758088
v 0.133828 2.045225 -0.753969
v 0.110589 2.086822 -0.750415
v 0.121274 2.127152 -0.705982
v 0.115223 2.106138 -0.743793
v 0.121149 2.114362 -0.752017
v 0.134315 2.145250 -0.724079
v 0.092904 2.130330 -0.709159
v 0.110181 2.151632 -0.712291
v 0.111919 2.120890 -0.758544
v 0.114004 2.159612 -0.738441
v 0.100287 2.116699 -0.754354
v 0.088410 2.150391 -0.729220
v 0.102329 2.107582 -0.745237
v 0.131419 2.134326 -0.809129
v 0.119542 2.109192 -0.775437
v 0.107910 2.105001 -0.779627
v 0.105825 2.125105 -0.818350
v 0.126925 2.154387 -0.789067
v 0.109648 2.151255 -0.810370
v 0.098680 2.111529 -0.773100
v 0.085514 2.139467 -0.803987
v 0.104606 2.119753 -0.764875
v 0.098555 2.157564 -0.785890
v 0.117500 2.118309 -0.766320
v 1.239908 0.798651 -1.316112
v 1.239908 0.845225 -1.300587
v 1.274408 0.833150 -1.288512
v 1.286483 0.798651 -1.300587
v 1.274408 0.764151 -1.288512
v 1.239908 0.752076 -1.300587
v 1.302008 0.798651 -1.254012
v 1.286483 0.752076 -1.254012
v 1.286483 0.845225 -1.254012
v 1.274408 0.833150 -1.219513
v 1.286483 0.798651 -1.207438
v 1.274408 0.764151 -1.219513
v 1.239908 0.798651 -1.191913
v 1.239908 0.752076 -1.207438
v 1.239908 0.845225 -1.207438
v 1.239908 0.736552 -1.254012
v 1.239908 0.860750 -1.254012
v 1.239908 0.798651 -0.884776
v 1.286483 0.798651 -0.900301
v 1.274408 0.833150 -0.912376
v 1.239908 0.845225 -0.900301
v 1.239908 0.752076 -0.900301
v 1.274408 0.764151 -0.912376
v 1.302008 0.798651 -0.946875
v 1.286483 0.752076 -0.946875
v 1.286483 0.845225 -0.946875
v 1.286483 0.798651 -0.993450
v 1.274408 0.833150 -0.981375
v 1.274408 0.764151 -0.981375
v 1.239908 0.798651 -1.008975
v 1.239908 0.752076 -0.993450
v 1.239908 0.845225 -0.993450
v 1.239908 0.736551 -0.946875
v 1.239908 0.860750 -0.946875
vt 0.0813 0.4788
vt 0.1232 0.4788
vt 0.0813 0.4788
vt 0.0394 0.4788
vt 0.1232 0.5172
vt 0.0813 0.5172
vt 0.0394 0.5172
vt 0.0813 0.5172
vt 0.0864 0.4788
vt 0.1283 0.4788
vt 0.0864 0.4788
vt 0.0445 0.4788
vt 0.0445 0.5172
vt 0.0864 0.5172
vt 0.1283 0.5172
vt 0.0864 0.5172
vt 0.1047 0.5209
vt 0.1047 0.4955
vt 0.1047 0.4955
vt 0.1047 0.5209
vt 0.1045 0.4052
vt 0.1045 0.3758
vt 0.1404 0.3758
vt 0.1404 0.4052
vt 0.1406 0.5209
vt 0.1406 0.4955
vt 0.1406 0.4955
vt 0.1406 0.5209
vt 0.1034 0.5209
vt 0.1034 0.5209
vt 0.1034 0.4955
vt 0.1034 0.4955
vt 0.1032 0.4052
vt 0.0672 0.4052
vt 0.0672 0.3758
vt 0.1032 0.3758
vt 0.0674 0.5209
vt 0.0674 0.5209
vt 0.0674 0.4955
vt 0.0674 0.4955
vt 0.1348 0.5768
vt 0.1137 0.5768
vt 0.1137 0.5768
vt 0.1348 0.5768
vt 0.1406 0.6458
vt 0.1047 0.6458
vt 0.1047 0.6458
vt 0.1406 0.6458
vt 0.1047 0.5232
vt 0.1406 0.5232
vt 0.1406 0.5232
vt 0.1047 0.5232
vt 0.1330 0.4312
vt 0.1119 0.4312
vt 0.1045 0.4078
vt 0.1404 0.4078
vt 0.1330 0.5263
vt 0.1404 0.5497
vt 0.1119 0.5263
vt 0.1045 0.5497
vt 0.1137 0.4945
vt 0.1347 0.4945
vt 0.1347 0.4945
vt 0.1137 0.4945
vt 0.0765 0.5768
vt 0.0765 0.5768
vt 0.0975 0.5768
vt 0.0975 0.5768
vt 0.0674 0.6458
vt 0.0674 0.6458
vt 0.1034 0.6458
vt 0.1034 0.6458
vt 0.1034 0.5232
vt 0.1034 0.5232
vt 0.0674 0.5232
vt 0.0674 0.5232
vt 0.0747 0.4312
vt 0.0672 0.4078
vt 0.1032 0.4078
vt 0.0957 0.4312
vt 0.0747 0.5263
vt 0.0672 0.5497
vt 0.0957 0.5263
vt 0.1032 0.5497
vt 0.0975 0.4945
vt 0.0975 0.4945
vt 0.0765 0.4945
vt 0.0765 0.4945
vt 0.0688 0.6399
vt 0.0688 0.4093
vt 0.0688 0.4093
vt 0.0688 0.6399
vt 0.1424 0.6399
vt 0.1424 0.4093
vt 0.1424 0.4093
vt 0.1424 0.6399
vt 0.7193 0.8208
vt 0.7193 0.7926
vt 0.6850 0.7926
vt 0.6850 0.8208
vt 0.6850 0.7926
vt 0.6850 0.8208
vt 0.7193 0.8208
vt 0.7193 0.7926
vt 0.7586 0.7926
vt 0.7586 0.8208
vt 0.7586 0.7926
vt 0.7586 0.8208
vt 0.7504 0.8079
vt 0.7250 0.8079
vt 0.7250 0.8746
vt 0.7504 0.8746
vt 0.7169 0.7926
vt 0.7169 0.7926
vt 0.7148 0.8055
vt 0.7148 0.8055
vt 0.6899 0.7926
vt 0.6899 0.7926
vt 0.6920 0.8055
vt 0.6920 0.8055
vt 0.7250 0.8079
vt 0.7250 0.8746
vt 0.7504 0.8079
vt 0.7504 0.8746
vt 0.7521 0.7926
vt 0.7521 0.7926
vt 0.7238 0.7926
vt 0.7238 0.7926
vt 0.0646 0.4456
vt 0.0646 0.6042
vt 0.0312 0.5258
vt 0.0312 0.4914
vt 0.0324 0.5548
vt 0.0324 0.5412
vt 0.0324 0.5412
vt 0.0324 0.5548
vt 0.1326 0.5412
vt 0.1326 0.5548
vt 0.1326 0.5548
vt 0.1326 0.5412
vt 0.0658 0.5858
vt 0.0658 0.5858
vt 0.0992 0.5231
vt 0.0992 0.5231
vt 0.0658 0.5231
vt 0.0658 0.5231
vt 0.0992 0.5858
vt 0.0992 0.5858
vt 0.1314 0.4914
vt 0.1314 0.5258
vt 0.0980 0.6042
vt 0.0980 0.4456
vt 0.7555 0.6855
vt 0.7583 0.7033
vt 0.7564 0.7076
vt 0.7538 0.6898
vt 0.7225 0.6898
vt 0.7225 0.7903
vt 0.7200 0.7903
vt 0.7200 0.7076
vt 0.7181 0.7946
vt 0.7181 0.7033
vt 0.7209 0.7946
vt 0.7583 0.7946
vt 0.7555 0.7946
vt 0.7538 0.7903
vt 0.7564 0.7903
vt 0.7208 0.6855
vt 0.0979 0.6615
vt 0.0979 0.5193
vt 0.0917 0.5209
vt 0.0917 0.6615
vt 0.0816 0.5203
vt 0.0816 0.6615
vt 0.0816 0.5184
vt 0.0816 0.6615
vt 0.0917 0.5178
vt 0.0917 0.4835
vt 0.0979 0.4900
vt 0.0917 0.6615
vt 0.0915 0.4810
vt 0.0973 0.4889
vt 0.0917 0.4964
vt 0.0816 0.4940
vt 0.0816 0.4860
vt 0.0915 0.4968
vt 0.0823 0.4841
vt 0.0823 0.4938
vt 0.1320 0.4987
vt 0.1001 0.4999
vt 0.1138 0.5781
vt 0.1283 0.5776
vt 0.1516 0.4979
vt 0.1228 0.4747
vt 0.1001 0.4999
vt 0.1138 0.5781
vt 0.1320 0.4986
vt 0.1283 0.5776
vt 0.1373 0.5772
vt 0.0982 0.4993
vt 0.1280 0.4983
vt 0.1266 0.5771
vt 0.1130 0.5776
vt 0.1034 0.4991
vt 0.1233 0.4742
vt 0.1517 0.4976
vt 0.1373 0.5768
vt 0.1365 0.4981
vt 0.1304 0.5770
vt 0.1154 0.5775
vt 0.1373 0.4993
vt 0.1525 0.4992
vt 0.1375 0.5781
vt 0.1306 0.5782
vt 0.1042 0.4998
vt 0.1243 0.4752
vt 0.1288 0.4994
vt 0.1268 0.5782
vt 0.0990 0.4998
vt 0.1132 0.5784
vt 0.1156 0.5784
vt 0.1175 0.5016
vt 0.1219 0.5784
vt 0.1364 0.5786
vt 0.1494 0.5020
vt 0.0979 0.5013
vt 0.1265 0.4780
vt 0.1364 0.5786
vt 0.1494 0.5020
vt 0.1219 0.5784
vt 0.1175 0.5016
vt 0.1130 0.5783
vt 0.1495 0.4995
vt 0.1376 0.5770
vt 0.1240 0.5779
vt 0.1197 0.5014
vt 0.1442 0.4998
vt 0.1235 0.4774
vt 0.1133 0.5786
vt 0.0960 0.5029
vt 0.1202 0.5781
vt 0.1112 0.5019
vt 0.1352 0.5772
vt 0.1122 0.5024
vt 0.1204 0.5788
vt 0.1134 0.5791
vt 0.0970 0.5029
vt 0.1452 0.5012
vt 0.1248 0.4782
vt 0.1242 0.5787
vt 0.1207 0.5021
vt 0.1378 0.5782
vt 0.1505 0.5010
vt 0.1354 0.5783
vt 0.1004 0.5654
vt 0.1009 0.5612
vt 0.1013 0.5622
vt 0.1009 0.5654
vt 0.1013 0.5685
vt 0.1009 0.5696
vt 0.1024 0.5654
vt 0.1024 0.5696
vt 0.1024 0.5612
vt 0.1036 0.5622
vt 0.1040 0.5654
vt 0.1036 0.5685
vt 0.1045 0.5654
vt 0.1040 0.5696
vt 0.1040 0.5612
vt 0.1024 0.5710
vt 0.1024 0.5597
vt 0.1148 0.5654
vt 0.1143 0.5654
vt 0.1139 0.5622
vt 0.1143 0.5612
vt 0.1143 0.5696
vt 0.1139 0.5685
vt 0.1127 0.5654
vt 0.1127 0.5696
vt 0.1127 0.5612
vt 0.1112 0.5654
vt 0.1116 0.5622
vt 0.1116 0.5685
vt 0.1106 0.5654
vt 0.1112 0.5696
vt 0.1112 0.5612
vt 0.1127 0.5710
vt 0.1127 0.5597
vn 1.0000 0.0000 0.0000
vn -0.0000 -0.7071 -0.7071
vn -0.0000 -0.7071 0.7071
vn 0.0000 0.7071 0.7071
vn 0.0000 0.7071 -0.7071
vn 0.0000 0.0000 -1.0000
vn 0.0000 -0.0000 1.0000
vn 0.0000 -1.0000 -0.0000
vn 0.0000 1.0000 0.0000
vn -1.0000 0.0000 0.0000
vn -0.9526 0.3042 0.0000
vn -0.9556 0.2947 0.0000
vn 0.0787 0.9944 -0.0705
vn -0.0787 0.9944 -0.0705
vn -0.2331 0.8989 -0.3711
vn 0.2331 0.8989 -0.3711
vn 0.0787 0.9944 0.0705
vn -0.0787 0.9944 0.0705
vn 0.2331 0.8989 0.3711
vn -0.2331 0.8989 0.3711
vn 0.0000 0.2887 0.9574
vn 0.0000 0.3059 0.9521
vn 0.8915 0.4530 0.0000
vn 0.8846 0.4663 0.0000
vn -0.1367 0.9797 -0.1468
vn 0.1161 0.9874 -0.1074
vn -0.1610 0.9739 0.1600
vn 0.1313 0.9849 0.1130
vn 0.0000 0.3752 -0.9269
vn 0.0000 0.3972 -0.9177
vn 0.0000 -0.5814 -0.8136
vn 0.0000 -0.5814 0.8136
vn 0.0000 -0.9864 -0.1642
vn 0.0000 0.9951 0.0986
vn 0.0000 0.9805 0.1963
vn 0.0000 0.9805 -0.1963
vn 0.0000 0.9951 -0.0986
vn 0.0000 -0.9864 0.1642
vn 0.7549 0.5772 0.3114
vn 0.8534 0.2025 0.4803
vn 0.9421 0.1487 0.3007
vn 0.8476 0.5231 0.0890
vn 0.8476 0.5231 -0.0890
vn 0.8488 -0.5286 -0.0000
vn 0.8639 -0.4637 -0.1968
vn 0.9421 0.1487 -0.3007
vn 0.8429 -0.3315 -0.4238
vn 0.8534 0.2025 -0.4803
vn 0.4411 -0.8975 -0.0000
vn 0.8429 -0.3315 0.4238
vn 0.8639 -0.4637 0.1968
vn 0.7549 0.5772 -0.3114
vn 0.0004 -0.0000 -1.0000
vn 0.0138 0.0517 -0.9986
vn -0.1193 -0.9401 -0.3192
vn 0.0007 -0.9513 -0.3082
vn -0.0701 -0.5548 0.8291
vn 0.0005 -0.5889 0.8082
vn 0.0995 0.6190 0.7790
vn 0.0005 0.5889 0.8082
vn 0.1529 0.9449 -0.2896
vn 0.7561 0.5967 -0.2688
vn 0.4425 0.3269 -0.8351
vn 0.0007 0.9513 -0.3082
vn 0.9539 0.0582 -0.2945
vn 0.6323 0.0288 -0.7742
vn -0.4189 -0.3490 -0.8383
vn -0.7172 -0.5476 -0.4310
vn -0.2849 -0.2404 0.9279
vn 0.5446 0.4153 0.7286
vn 0.0751 -0.9972 0.0000
vn -0.6212 -0.0134 0.7836
vn 0.6046 0.0280 0.7960
vn -0.6342 -0.0219 -0.7729
vn -0.9578 -0.0121 -0.2873
vn -0.9030 -0.3140 -0.2934
vn -0.5581 -0.3140 0.7681
vn -0.5598 0.3052 0.7704
vn -0.9057 0.3052 -0.2943
vn -0.0000 -0.3140 -0.9494
vn 0.5581 -0.3140 0.7681
vn 0.5597 0.3052 0.7704
vn 0.9030 -0.3140 -0.2934
vn 0.9057 0.3052 -0.2943
vn -0.0000 0.3052 -0.9523
vn 0.4310 -0.3762 -0.8202
vn 0.9377 0.3270 -0.1170
vn 0.9406 -0.1105 0.3211
vn 0.4323 -0.8158 -0.3842
vn -0.6714 -0.2527 -0.6967
vn 0.1485 0.8851 0.4411
vn 0.1490 0.4493 0.8809
vn -0.8459 0.5268 0.0828
vn -0.8485 0.0899 0.5215
vn -0.6734 -0.6919 -0.2604
vn 0.8459 -0.0828 0.5268
vn -0.1485 -0.4411 0.8851
vn -0.1490 -0.8809 0.4493
vn 0.8485 -0.5215 0.0899
vn 0.6713 0.6967 -0.2527
vn -0.9377 0.1170 0.3270
vn -0.9406 -0.3211 -0.1105
vn -0.4310 0.8202 -0.3762
vn -0.4323 0.3842 -0.8158
vn 0.6734 0.2604 -0.6919
vn -0.9030 -0.3140 0.2934
vn -0.9057 0.3052 0.2943
vn -0.5597 0.3052 -0.7704
vn -0.5581 -0.3140 -0.7681
vn -0.0000 -0.3140 0.9494
vn 0.5597 0.3052 -0.7704
vn 0.5581 -0.3140 -0.7681
vn 0.9057 0.3052 0.2943
vn 0.9030 -0.3140 0.2934
vn 0.0000 0.3052 0.9523
vn 0.4310 -0.3762 0.8202
vn 0.4323 -0.8158 0.3842
vn 0.9406 -0.1105 -0.3211
vn 0.9377 0.3270 0.1170
vn -0.6713 -0.2527 0.6967
vn 0.1490 0.4493 -0.8809
vn 0.1485 0.8851 -0.4411
vn -0.8485 0.0899 -0.5215
vn -0.8459 0.5268 -0.0828
vn -0.6734 -0.6919 0.2604
vn 0.8459 -0.0828 -0.5268
vn 0.8485 -0.5215 -0.0899
vn -0.1490 -0.8809 -0.4493
vn -0.1485 -0.4411 -0.8851
vn 0.6713 0.6967 0.2527
vn -0.9406 -0.3211 0.1105
vn -0.9377 0.1170 -0.3270
vn -0.4323 0.3842 0.8158
vn -0.4310 0.8202 0.3762
vn 0.6734 0.2604 0.6919
vn 0.3714 0.0000 -0.9285
vn 0.3746 0.6556 -0.6556
vn 0.5773 0.5774 -0.5773
vn 0.7071 0.0000 -0.7071
vn 0.5773 -0.5774 -0.5773
vn 0.3746 -0.6556 -0.6556
vn 0.7071 -0.7071 0.0000
vn 0.7071 0.7071 0.0000
vn 0.5773 0.5774 0.5774
vn 0.7071 0.0000 0.7071
vn 0.5773 -0.5774 0.5774
vn 0.3714 0.0000 0.9285
vn 0.3746 -0.6556 0.6556
vn 0.3746 0.6556 0.6556
vn 0.3714 -0.9285 0.0000
vn 0.3714 0.9285 0.0000
vn 0.5773 -0.5773 0.5774
vn 0.5773 -0.5774 -0.5774
usemtl None
s off
f 1/1/1 2/2/1 3/3/1 4/4/1
f 5/5/2 2/2/2 1/1/2 6/6/2
f 6/6/3 1/1/3 4/4/3 7/7/3
f 7/7/4 4/4/4 3/3/4 8/8/4
f 8/8/5 3/3/5 2/2/5 5/5/5
f 9/9/1 10/10/1 11/11/1 12/12/1
f 13/13/3 14/14/3 9/9/3 12/12/3
f 14/14/2 15/15/2 10/10/2 9/9/2
f 15/15/5 16/16/5 11/11/5 10/10/5
f 16/16/4 13/13/4 12/12/4 11/11/4
f 17/17/6 18/18/6 19/19/6 20/20/6
f 20/21/1 19/22/1 21/23/1 22/24/1
f 22/25/7 21/26/7 23/27/7 24/28/7
f 17/17/8 20/20/8 22/25/8 24/28/8
f 19/19/9 18/18/9 23/27/9 21/26/9
f 25/29/7 26/30/7 27/31/7 28/32/7
f 26/33/1 29/34/1 30/35/1 27/36/1
f 29/37/6 31/38/6 32/39/6 30/40/6
f 25/29/8 31/38/8 29/37/8 26/30/8
f 27/31/9 30/40/9 32/39/9 28/32/9
f 33/41/9 34/42/9 35/43/9 36/44/9
f 37/45/8 38/46/8 39/47/8 40/48/8
f 41/49/9 42/50/9 43/51/9 44/52/9
f 38/46/6 41/49/6 44/52/6 39/47/6
f 42/50/7 37/45/7 40/48/7 43/51/7
f 45/53/1 46/54/1 44/55/1 43/56/1
f 33/57/1 45/53/1 43/56/1 40/58/1
f 34/59/1 33/57/1 40/58/1 39/60/1
f 46/54/1 34/59/1 39/60/1 44/55/1
f 46/61/8 45/62/8 47/63/8 48/64/8
f 34/42/7 46/61/7 48/64/7 35/43/7
f 45/62/6 33/41/6 36/44/6 47/63/6
f 49/65/9 50/66/9 51/67/9 52/68/9
f 53/69/8 54/70/8 55/71/8 56/72/8
f 57/73/9 58/74/9 59/75/9 60/76/9
f 56/72/7 55/71/7 58/74/7 57/73/7
f 60/76/6 59/75/6 54/70/6 53/69/6
f 61/77/1 59/78/1 58/79/1 62/80/1
f 49/81/1 54/82/1 59/78/1 61/77/1
f 52/83/1 55/84/1 54/82/1 49/81/1
f 62/80/1 58/79/1 55/84/1 52/83/1
f 62/85/8 63/86/8 64/87/8 61/88/8
f 52/68/6 51/67/6 63/86/6 62/85/6
f 61/88/7 64/87/7 50/66/7 49/65/7
f 65/89/6 66/90/6 67/91/6 68/92/6
f 69/93/7 70/94/7 71/95/7 72/96/7
f 68/92/8 69/93/8 72/96/8 65/89/8
f 71/95/10 66/90/10 65/89/10 72/96/10
f 69/93/1 68/92/1 67/91/1 70/94/1
s 1
f 73/97/10 74/98/10 75/99/10 76/100/10
f 76/100/6 75/99/6 77/101/6 78/102/6
f 79/103/1 80/104/1 81/105/1 82/106/1
f 82/106/7 81/105/7 83/107/7 84/108/7
f 85/109/11 86/110/12 87/111/10 88/112/10
f 89/113/13 90/114/14 91/115/15 92/116/16
f 78/102/1 77/101/1 80/104/1 79/103/1
f 84/108/10 83/107/10 74/98/10 73/97/10
f 89/113/13 93/117/17 75/99/9 74/98/9
f 93/117/17 94/118/18 77/101/9 75/99/9
f 94/118/18 90/114/14 80/104/9 77/101/9
f 90/114/14 89/113/13 74/98/9 80/104/9
f 95/119/9 96/120/9 92/116/9 91/115/9
f 94/118/18 93/117/17 96/120/19 95/119/20
f 90/114/14 94/118/18 95/119/20 91/115/15
f 93/117/17 89/113/13 92/116/16 96/120/19
f 86/110/21 97/121/22 98/122/7 87/111/7
f 97/121/23 99/123/24 100/124/1 98/122/1
f 101/125/25 102/126/26 83/107/9 81/105/9
f 87/111/9 98/122/9 100/124/9 88/112/9
f 103/127/27 101/125/25 81/105/9 80/104/9
f 104/128/28 103/127/27 80/104/9 74/98/9
f 102/126/26 104/128/28 74/98/9 83/107/9
f 86/110/12 85/109/11 101/125/25 103/127/27
f 85/109/29 99/123/30 102/126/26 101/125/25
f 99/123/24 97/121/23 104/128/28 102/126/26
f 97/121/22 86/110/21 103/127/27 104/128/28
f 99/123/30 85/109/29 88/112/6 100/124/6
f 105/129/1 106/130/1 107/131/1 108/132/1
f 109/133/31 110/134/6 108/135/6 107/136/31
f 111/137/7 112/138/32 113/139/32 114/140/7
f 115/141/33 109/133/31 107/136/31 106/142/33
f 116/143/34 111/137/35 114/140/35 117/144/34
f 110/134/36 118/145/37 105/146/37 108/135/36
f 118/145/37 116/143/34 117/144/34 105/146/37
f 112/138/32 119/147/38 120/148/38 113/139/32
f 119/147/38 115/141/33 106/142/33 120/148/38
f 114/149/1 113/150/1 120/151/1 117/152/1
f 117/152/1 120/151/1 106/130/1 105/129/1
f 121/153/39 122/154/40 123/155/41 124/156/42
f 125/157/43 126/158/44 127/159/45 128/160/46
f 129/161/47 130/162/48 128/160/46 127/159/45
f 131/163/49 129/161/47 127/159/45 126/158/44
f 132/164/50 133/165/49 134/166/44 135/167/51
f 133/165/49 131/163/49 126/158/44 134/166/44
f 130/162/48 136/168/52 125/157/43 128/160/46
f 136/168/52 121/153/39 124/156/42 125/157/43
f 122/154/40 132/164/50 135/167/51 123/155/41
f 123/155/41 135/167/51 134/166/44 124/156/42
f 124/156/42 134/166/44 126/158/44 125/157/43
f 137/169/53 138/170/54 139/171/55 140/172/56
f 140/172/56 139/171/55 141/173/57 142/174/58
f 142/174/58 141/173/57 143/175/59 144/176/60
f 138/170/54 145/177/61 146/178/62 147/179/63
f 144/176/60 143/175/59 145/177/61 148/180/64
f 148/180/64 145/177/61 138/170/54 137/169/53
f 147/179/63 146/178/62 149/181/65 150/182/66
f 139/171/55 138/170/54 147/179/67 151/183/68
f 143/175/59 141/173/57 152/184/69 153/185/70
f 145/177/61 143/175/59 153/185/70 146/178/62
f 141/173/57 139/171/55 151/183/68 152/184/69
f 154/186/71 150/182/71 149/181/71 155/187/71 156/188/71
f 153/185/70 152/184/69 156/188/72 155/187/73
f 151/183/68 147/179/67 150/182/74 154/186/75
f 146/178/62 153/185/70 155/187/73 149/181/65
f 152/184/69 151/183/68 154/186/75 156/188/72
f 157/189/76 158/190/77 159/191/78 160/192/79
f 161/193/80 162/194/8 157/189/76
f 158/190/77 163/195/81 164/196/82 159/191/78
f 157/189/76 162/194/8 158/190/77
f 163/195/81 165/197/83 166/198/84 164/196/82
f 158/190/77 162/194/8 163/195/81
f 165/197/83 161/193/80 167/199/85 166/198/84
f 163/195/81 162/194/8 165/197/83
f 165/197/83 162/194/8 161/193/80
f 167/199/85 161/193/80 157/189/76 160/192/79
f 168/200/86 169/201/87 170/202/88 171/203/89
f 172/204/90 173/205/5 168/200/86
f 169/201/87 174/206/91 175/207/92 170/202/88
f 168/200/86 173/205/5 169/201/87
f 174/206/91 176/208/93 177/209/94 175/207/92
f 169/201/87 173/205/5 174/206/91
f 176/208/93 172/204/90 178/210/95 177/209/94
f 174/206/91 173/205/5 176/208/93
f 176/208/93 173/205/5 172/204/90
f 178/210/95 172/204/90 168/200/86 171/203/89
f 179/211/96 180/212/97 181/213/98 182/214/99
f 183/215/100 184/216/4 179/211/96
f 180/212/97 185/217/101 186/218/102 181/213/98
f 179/211/96 184/216/4 180/212/97
f 185/217/101 187/219/103 188/220/104 186/218/102
f 180/212/97 184/216/4 185/217/101
f 187/219/103 183/215/100 189/221/105 188/220/104
f 185/217/101 184/216/4 187/219/103
f 187/219/103 184/216/4 183/215/100
f 189/221/105 183/215/100 179/211/96 182/214/99
f 190/222/106 191/223/107 192/224/108 193/225/109
f 194/226/110 190/222/106 195/227/8
f 193/225/109 192/224/108 196/228/111 197/229/112
f 190/222/106 193/225/109 195/227/8
f 197/229/112 196/228/111 198/230/113 199/231/114
f 193/225/109 197/229/112 195/227/8
f 199/231/114 198/230/113 200/232/115 194/226/110
f 197/229/112 199/231/114 195/227/8
f 199/231/114 194/226/110 195/227/8
f 200/232/115 191/223/107 190/222/106 194/226/110
f 201/233/116 202/234/117 203/235/118 204/236/119
f 205/237/120 201/233/116 206/238/4
f 204/236/119 203/235/118 207/239/121 208/240/122
f 201/233/116 204/236/119 206/238/4
f 208/240/122 207/239/121 209/241/123 210/242/124
f 204/236/119 208/240/122 206/238/4
f 210/242/124 209/241/123 211/243/125 205/237/120
f 208/240/122 210/242/124 206/238/4
f 210/242/124 205/237/120 206/238/4
f 211/243/125 202/234/117 201/233/116 205/237/120
f 212/244/126 213/245/127 214/246/128 215/247/129
f 216/248/130 212/244/126 217/249/5
f 215/247/129 214/246/128 218/250/131 219/251/132
f 212/244/126 215/247/129 217/249/5
f 219/251/132 218/250/131 220/252/133 221/253/134
f 215/247/129 219/251/132 217/249/5
f 221/253/134 220/252/133 222/254/135 216/248/130
f 219/251/132 221/253/134 217/249/5
f 221/253/134 216/248/130 217/249/5
f 222/254/135 213/245/127 212/244/126 216/248/130
f 223/255/136 224/256/137 225/257/138 226/258/139
f 223/255/136 226/258/139 227/259/140 228/260/141
f 229/261/1 230/262/142 227/259/140 226/258/139
f 229/261/1 226/258/139 225/257/138 231/263/143
f 229/261/1 231/263/143 232/264/144 233/265/145
f 229/261/1 233/265/145 234/266/146 230/262/142
f 235/267/147 236/268/148 234/266/146 233/265/145
f 235/267/147 233/265/145 232/264/144 237/269/149
f 238/270/150 228/260/141 227/259/140 230/262/142
f 238/270/150 230/262/142 234/266/146 236/268/148
f 239/271/151 231/263/143 225/257/138 224/256/137
f 239/271/151 237/269/149 232/264/144 231/263/143
f 240/272/147 241/273/145 242/274/144 243/275/149
f 240/272/147 244/276/148 245/277/152 241/273/145
f 246/278/1 241/273/145 245/277/152 247/279/142
f 246/278/1 248/280/143 242/274/144 241/273/145
f 246/278/1 249/281/139 250/282/138 248/280/143
f 246/278/1 247/279/142 251/283/153 249/281/139
f 252/284/136 249/281/139 251/283/153 253/285/141
f 252/284/136 254/286/137 250/282/138 249/281/139
f 255/287/150 247/279/142 245/277/152 244/276/148
f 255/287/150 253/285/141 251/283/153 247/279/142
f 256/288/151 243/275/149 242/274/144 248/280/143
f 256/288/151 248/280/143 250/282/138 254/286/137
