# Blender v2.78 (sub 0) OBJ File: 'Küche_UVbearbeiten.blend'
# www.blender.org
mtllib mod_Glas.mtl
g Glas.001
v 0.000000 0.000000 -0.127642
v 0.000000 0.391286 -0.164888
v 0.130432 0.391286 -0.102076
v 0.099794 0.000000 -0.079584
v 0.162646 0.391286 0.039064
v 0.124442 -0.000000 0.028404
v 0.072384 0.391286 0.152248
v 0.055382 -0.000000 0.115002
v -0.072384 0.391286 0.152248
v -0.055382 -0.000000 0.115002
v -0.162646 0.391286 0.039064
v -0.124442 -0.000000 0.028404
v -0.130432 0.391286 -0.102076
v -0.099794 0.000000 -0.079584
v 0.000000 0.030356 -0.119856
v 0.093716 0.030360 -0.074726
v 0.122438 0.391952 -0.095712
v 0.000000 0.391938 -0.154670
v 0.116864 0.030372 0.026682
v 0.152690 0.391980 0.036780
v 0.052012 0.030380 0.108010
v 0.067958 0.392004 0.143046
v -0.052012 0.030380 0.108010
v -0.067958 0.392004 0.143046
v -0.116864 0.030372 0.026682
v -0.152690 0.391980 0.036780
v -0.093716 0.030360 -0.074726
v -0.122438 0.391952 -0.095712
v 0.000000 0.000000 0.000000
v 0.000000 0.030368 0.000012
vt 0.8590 0.5268
vt 0.8560 0.3391
vt 0.8611 0.3391
vt 0.8630 0.5268
vt 0.8727 0.3391
vt 0.8718 0.5268
vt 0.8819 0.3391
vt 0.8789 0.5268
vt 0.8819 0.3391
vt 0.8789 0.5268
vt 0.8727 0.3391
vt 0.8718 0.5268
vt 0.8611 0.3391
vt 0.8630 0.5268
vt 0.8554 0.5358
vt 0.8591 0.5358
vt 0.8573 0.3973
vt 0.8525 0.3973
vt 0.8674 0.5358
vt 0.8682 0.3973
vt 0.8740 0.5358
vt 0.8769 0.3973
vt 0.8740 0.5358
vt 0.8769 0.3973
vt 0.8674 0.5358
vt 0.8682 0.3973
vt 0.8591 0.5358
vt 0.8573 0.3973
vt 0.8568 0.3388
vt 0.8616 0.3388
vt 0.8725 0.3388
vt 0.8812 0.3388
vt 0.8812 0.3388
vt 0.8725 0.3388
vt 0.8616 0.3388
vt 0.8695 0.5268
vt 0.8652 0.5358
vn 0.0000 -0.0948 -0.9955
vn 0.7788 -0.0966 -0.6198
vn 0.7775 -0.0966 -0.6214
vn 0.9697 -0.1007 0.2226
vn 0.9703 -0.1007 0.2200
vn 0.4310 -0.1040 0.8963
vn 0.4321 -0.1040 0.8958
vn -0.4310 -0.1040 0.8963
vn -0.4321 -0.1040 0.8958
vn -0.9697 -0.1007 0.2226
vn -0.9703 -0.1007 0.2200
vn -0.7788 -0.0966 -0.6198
vn -0.7775 -0.0966 -0.6214
vn -0.0000 0.0958 0.9954
vn -0.7773 0.0978 0.6215
vn -0.7788 0.0978 0.6196
vn -0.9702 0.1023 -0.2198
vn -0.9695 0.1023 -0.2227
vn -0.4321 0.1058 -0.8956
vn -0.4309 0.1058 -0.8962
vn 0.4321 0.1058 -0.8956
vn 0.4309 0.1058 -0.8962
vn 0.9702 0.1023 -0.2198
vn 0.9695 0.1023 -0.2227
vn 0.7773 0.0978 0.6215
vn 0.7788 0.0978 0.6196
vn 0.0514 0.9979 -0.0404
vn 0.0000 0.9979 -0.0644
vn 0.0514 0.9979 -0.0405
vn 0.0659 0.9977 0.0156
vn 0.0299 0.9976 0.0628
vn 0.0300 0.9976 0.0627
vn -0.0299 0.9976 0.0628
vn -0.0300 0.9976 0.0627
vn -0.0659 0.9977 0.0156
vn -0.0514 0.9979 -0.0404
vn -0.0514 0.9979 -0.0405
vn 0.0000 -1.0000 -0.0000
vn 0.0000 1.0000 -0.0001
usemtl None
s 1
f 1/1/1 2/2/1 3/3/2 4/4/3
f 4/4/3 3/3/2 5/5/4 6/6/5
f 6/6/5 5/5/4 7/7/6 8/8/7
f 8/8/7 7/7/6 9/9/8 10/10/9
f 10/10/9 9/9/8 11/11/10 12/12/11
f 12/12/11 11/11/10 13/13/12 14/14/13
f 14/14/13 13/13/12 2/2/1 1/1/1
f 15/15/14 16/16/15 17/17/16 18/18/14
f 16/16/15 19/19/17 20/20/18 17/17/16
f 19/19/17 21/21/19 22/22/20 20/20/18
f 21/21/19 23/23/21 24/24/22 22/22/20
f 23/23/21 25/25/23 26/26/24 24/24/22
f 25/25/23 27/27/25 28/28/26 26/26/24
f 27/27/25 15/15/14 18/18/14 28/28/26
f 3/3/27 2/2/28 18/29/28 17/30/29
f 5/5/30 3/3/27 17/30/29 20/31/30
f 7/7/31 5/5/30 20/31/30 22/32/32
f 9/9/33 7/7/31 22/32/32 24/33/34
f 11/11/35 9/9/33 24/33/34 26/34/35
f 13/13/36 11/11/35 26/34/35 28/35/37
f 2/2/28 13/13/36 28/35/37 18/29/28
f 1/1/38 4/4/38 29/36/38
f 4/4/38 6/6/38 29/36/38
f 6/6/38 8/8/38 29/36/38
f 8/8/38 10/10/38 29/36/38
f 10/10/38 12/12/38 29/36/38
f 12/12/38 14/14/38 29/36/38
f 14/14/38 1/1/38 29/36/38
f 15/15/39 27/27/39 30/37/39
f 27/27/39 25/25/39 30/37/39
f 25/25/39 23/23/39 30/37/39
f 23/23/39 21/21/39 30/37/39
f 21/21/39 19/19/39 30/37/39
f 19/19/39 16/16/39 30/37/39
f 16/16/39 15/15/39 30/37/39
