# Blender v2.79 (sub 0) OBJ File: 'mod_Buffet.blend'
# www.blender.org
g Buffet
v -0.000000 1.660000 0.000000
v -0.000000 3.860000 0.000000
v -0.000000 1.660000 -2.000000
v -0.000000 3.860000 -2.000000
v 0.479440 1.660000 0.000000
v 0.980000 3.860000 0.000000
v 0.479440 1.660000 -2.000000
v 0.980000 3.860000 -2.000000
v -0.000000 2.094852 0.000000
v -0.000000 2.094852 -2.000000
v 0.479440 2.094852 -2.000000
v 0.479440 2.094852 0.000000
v -0.000000 2.773335 0.000000
v -0.000000 2.773335 -2.000000
v 0.980000 2.773335 -2.000000
v 0.980000 2.773335 0.000000
v 0.056567 1.660000 -0.056567
v 0.056567 3.860000 -0.056567
v 0.056567 1.660000 -1.943433
v 0.056567 3.860000 -1.943433
v 0.479440 1.660000 -0.080000
v 0.980000 3.860000 -0.080000
v 0.479440 1.660000 -1.920000
v 0.980000 3.860000 -1.920000
v 0.056567 2.094852 -0.056567
v 0.056567 2.094852 -1.943433
v 0.479440 2.094852 -1.920002
v 0.479440 2.094852 -0.079998
v 0.056567 2.773335 -0.056567
v 0.056567 2.773335 -1.943433
v 0.980000 2.773335 -1.920000
v 0.980000 2.773335 -0.080000
v 0.995355 3.150589 -1.129054
v 1.002280 3.449643 -1.129054
v 0.994698 3.164018 -1.110548
v 1.000276 3.436347 -1.110548
v 0.993633 3.185748 -1.117617
v 0.997034 3.414835 -1.117617
v 0.993633 3.185748 -1.140492
v 0.997034 3.414835 -1.140491
v 0.994698 3.164018 -1.147560
v 1.000276 3.436347 -1.147560
v 1.106904 3.184835 -1.129054
v 1.111020 3.409547 -1.129054
v 1.100015 3.401823 -1.110548
v 1.096792 3.193696 -1.110548
v 1.082208 3.389325 -1.117617
v 1.080430 3.208034 -1.117617
v 1.082208 3.389325 -1.140492
v 1.080430 3.208034 -1.140492
v 1.100015 3.401823 -1.147560
v 1.096792 3.193696 -1.147560
v 0.995355 3.150589 -0.875129
v 1.002280 3.449643 -0.875129
v 0.994698 3.164018 -0.856623
v 1.000276 3.436347 -0.856623
v 0.993633 3.185748 -0.863692
v 0.997034 3.414835 -0.863692
v 0.993633 3.185748 -0.886567
v 0.997034 3.414835 -0.886567
v 0.994698 3.164018 -0.893636
v 1.000276 3.436347 -0.893636
v 1.106904 3.184835 -0.875129
v 1.111020 3.409547 -0.875129
v 1.100015 3.401823 -0.856623
v 1.096792 3.193696 -0.856623
v 1.082208 3.389325 -0.863692
v 1.080430 3.208034 -0.863692
v 1.082208 3.389325 -0.886567
v 1.080430 3.208034 -0.886567
v 1.100015 3.401823 -0.893636
v 1.096792 3.193696 -0.893636
v 1.224762 0.517633 -0.875129
v 1.231687 0.816687 -0.875129
v 1.224105 0.531062 -0.856623
v 1.229683 0.803391 -0.856623
v 1.223040 0.552791 -0.863692
v 1.226441 0.781879 -0.863692
v 1.223040 0.552791 -0.886567
v 1.226441 0.781879 -0.886567
v 1.224105 0.531062 -0.893636
v 1.229683 0.803391 -0.893636
v 1.336311 0.551879 -0.875129
v 1.340427 0.776591 -0.875129
v 1.329422 0.768867 -0.856623
v 1.326199 0.560740 -0.856623
v 1.311615 0.756368 -0.863692
v 1.309837 0.575078 -0.863692
v 1.311615 0.756368 -0.886567
v 1.309837 0.575078 -0.886567
v 1.329422 0.768867 -0.893636
v 1.326199 0.560740 -0.893636
v 1.224762 0.517633 -1.129054
v 1.231687 0.816687 -1.129054
v 1.224105 0.531062 -1.110548
v 1.229683 0.803391 -1.110548
v 1.223040 0.552791 -1.117617
v 1.226441 0.781879 -1.117617
v 1.223040 0.552791 -1.140492
v 1.226441 0.781879 -1.140491
v 1.224105 0.531062 -1.147560
v 1.229683 0.803391 -1.147560
v 1.336311 0.551879 -1.129054
v 1.340427 0.776591 -1.129054
v 1.329422 0.768867 -1.110548
v 1.326199 0.560740 -1.110548
v 1.311615 0.756368 -1.117617
v 1.309837 0.575078 -1.117617
v 1.311615 0.756368 -1.140492
v 1.309837 0.575078 -1.140492
v 1.329422 0.768867 -1.147560
v 1.326199 0.560740 -1.147560
v 1.227619 1.533017 -0.064428
v 1.227619 1.251760 -0.064428
v 1.201425 1.533017 -0.064428
v 1.201425 1.251760 -0.064428
v 1.227619 1.533017 -1.935572
v 1.227620 1.251760 -1.935572
v 1.201425 1.533017 -1.935572
v 1.201425 1.251760 -1.935572
v 0.996795 3.844909 -0.064428
v 0.996795 2.782784 -0.064428
v 0.996795 3.844909 -0.993334
v 0.996795 2.782784 -0.993334
v 0.970601 3.844909 -0.064428
v 0.970601 2.782784 -0.064428
v 0.970601 3.844909 -0.993334
v 0.970601 2.782784 -0.993334
v 0.996795 3.844910 -1.935572
v 0.996795 2.782784 -1.935572
v 0.996795 3.844909 -1.006665
v 0.996795 2.782784 -1.006665
v 0.970601 3.844910 -1.935572
v 0.970601 2.782784 -1.935572
v 0.970601 3.844909 -1.006665
v 0.970601 2.782784 -1.006665
v -0.000000 3.860000 0.000000
v -0.000000 3.860000 -2.000000
v 0.980000 3.860000 0.000000
v 0.980000 3.860000 -2.000000
v -0.061309 3.984109 0.100002
v -0.061309 3.984109 -2.113890
v 1.023498 3.984109 0.100002
v 1.023498 3.984109 -2.113890
v -0.000000 1.600000 0.000000
v -0.000000 1.600000 -2.000000
v -0.000000 1.660000 0.000000
v -0.000000 1.660000 -2.000000
v 1.300000 1.600000 -2.000000
v 1.300000 1.600000 0.000000
v 1.300000 1.660000 -2.000000
v 1.300000 1.660000 0.000000
v 1.227619 1.239792 -0.064428
v 1.227619 0.067817 -0.064428
v 1.227619 1.239792 -0.993334
v 1.227619 0.067817 -0.993334
v 1.201425 1.239792 -0.064428
v 1.201425 0.067817 -0.064428
v 1.201425 1.239792 -0.993334
v 1.201425 0.067817 -0.993334
v 1.227619 1.239792 -1.935572
v 1.227620 0.067818 -1.935572
v 1.227619 1.239792 -1.006665
v 1.227619 0.067817 -1.006665
v 1.201425 1.239792 -1.935572
v 1.201425 0.067818 -1.935572
v 1.201425 1.239792 -1.006665
v 1.201425 0.067817 -1.006665
v -0.000000 0.000000 0.000000
v -0.000000 1.600000 0.000000
v -0.000000 0.000000 -2.000000
v -0.000000 1.600000 -2.000000
v 1.200000 0.073783 -0.073783
v 1.200000 1.600000 0.000000
v 1.200000 0.073783 -1.926216
v 1.200000 1.600000 -2.000000
v 1.200000 0.000000 -2.000000
v 1.200000 1.526217 -1.926216
v 1.200000 0.000000 0.000000
v 1.200000 1.526217 -0.073783
v 1.224762 1.411858 -0.841493
v 1.231687 1.411858 -1.140547
v 1.224105 1.430364 -0.854922
v 1.229683 1.430364 -1.127251
v 1.223040 1.423295 -0.876652
v 1.226441 1.423295 -1.105739
v 1.223040 1.400420 -0.876652
v 1.226441 1.400420 -1.105739
v 1.224105 1.393352 -0.854922
v 1.229683 1.393352 -1.127251
v 1.336311 1.411858 -0.875739
v 1.340427 1.411858 -1.100451
v 1.329422 1.430364 -1.092727
v 1.326199 1.430364 -0.884600
v 1.311615 1.423295 -1.080229
v 1.309837 1.423295 -0.898938
v 1.311615 1.400420 -1.080229
v 1.309837 1.400420 -0.898938
v 1.329422 1.393352 -1.092727
v 1.326199 1.393352 -0.884600
vn -1.0000 0.0000 -0.0000
vn 0.0000 0.0000 1.0000
vn 0.0000 1.0000 0.0000
vn 1.0000 0.0000 0.0000
vn 0.0000 0.0000 -1.0000
vn 0.0000 -1.0000 0.0000
vn -0.0301 0.0064 0.9995
vn -0.0289 0.0048 0.9996
vn -0.0254 0.0000 0.9997
vn -0.0289 0.0048 -0.9996
vn -0.0301 0.0064 -0.9995
vn -0.0254 0.0000 -0.9997
vn -0.0553 0.0000 -0.9985
vn -0.0451 0.0064 -0.9990
vn -0.0433 0.0075 -0.9990
vn -0.0553 0.0000 0.9985
vn -0.0433 0.0075 0.9990
vn -0.0451 0.0064 0.9990
vn 0.9499 -0.3125 0.0000
vn 0.8278 0.5611 -0.0000
vn 0.3370 0.9415 0.0000
vn 0.1350 0.3597 0.9232
vn 0.3974 0.2687 0.8774
vn -0.2350 -0.7671 0.5969
vn -0.5547 -0.3955 0.7320
vn -0.2350 -0.7671 -0.5969
vn -0.5547 -0.3955 -0.7320
vn 0.1350 0.3597 -0.9232
vn 0.3974 0.2687 -0.8774
vn 0.1192 -0.3836 -0.9158
vn 0.3934 -0.2753 -0.8772
vn 0.7922 -0.6103 -0.0000
vn 0.2867 -0.9580 -0.0000
vn -0.5426 0.4047 -0.7361
vn -0.2010 0.7679 -0.6081
vn -0.5426 0.4047 0.7361
vn -0.2010 0.7679 0.6081
vn 0.3934 -0.2753 0.8772
vn 0.1192 -0.3836 0.9158
vn 0.0000 -0.6274 0.7787
vn 0.6627 -0.5968 0.4524
vn 0.4977 -0.6432 0.5818
vn 0.0000 -0.6761 -0.7368
vn 0.9437 -0.3308 0.0000
vn -0.8966 -0.4429 0.0000
vn 0.8278 0.0000 -0.5611
vn 0.3370 0.0000 -0.9415
vn 0.1350 0.9232 -0.3597
vn 0.3974 0.8774 -0.2687
vn -0.2350 0.5969 0.7671
vn -0.5547 0.7320 0.3955
vn -0.2350 -0.5969 0.7671
vn -0.5547 -0.7320 0.3955
vn 0.1350 -0.9232 -0.3597
vn 0.3974 -0.8774 -0.2687
vn 0.1192 -0.9158 0.3836
vn 0.3934 -0.8772 0.2753
vn 0.7922 -0.0000 0.6103
vn 0.2867 -0.0000 0.9580
vn -0.5426 -0.7361 -0.4047
vn -0.2010 -0.6081 -0.7679
vn -0.5426 0.7361 -0.4047
vn -0.2010 0.6081 -0.7679
vn 0.3934 0.8772 0.2753
vn 0.1192 0.9158 0.3836
s off
f 119//1 120//1 116//1 115//1
f 114//2 113//2 115//2 116//2
f 113//3 117//3 119//3 115//3
f 117//4 113//4 114//4 118//4
f 118//5 120//5 119//5 117//5
f 116//6 120//6 118//6 114//6
f 121//4 122//4 124//4 123//4
f 125//1 127//1 128//1 126//1
f 121//3 123//3 127//3 125//3
f 122//2 121//2 125//2 126//2
f 124//6 122//6 126//6 128//6
f 123//5 124//5 128//5 127//5
f 129//4 131//4 132//4 130//4
f 133//1 134//1 136//1 135//1
f 129//3 133//3 135//3 131//3
f 130//5 134//5 133//5 129//5
f 132//6 136//6 134//6 130//6
f 131//2 135//2 136//2 132//2
f 151//3 148//3 147//3 152//3
f 145//2 150//2 152//2 147//2
f 149//5 146//5 148//5 151//5
f 150//4 149//4 151//4 152//4
f 148//1 146//1 145//1 147//1
f 149//6 150//6 145//6 146//6
f 153//4 154//4 156//4 155//4
f 157//1 159//1 160//1 158//1
f 153//3 155//3 159//3 157//3
f 154//2 153//2 157//2 158//2
f 156//6 154//6 158//6 160//6
f 155//5 156//5 160//5 159//5
f 161//4 163//4 164//4 162//4
f 165//1 166//1 168//1 167//1
f 161//3 165//3 167//3 163//3
f 162//5 166//5 165//5 161//5
f 164//6 168//6 166//6 162//6
f 163//2 167//2 168//2 164//2
f 169//1 170//1 172//1 171//1
f 171//5 172//5 176//5 177//5
f 179//2 174//2 170//2 169//2
f 178//4 175//4 177//4 176//4
f 175//4 173//4 179//4 177//4
f 180//4 178//4 176//4 174//4
f 173//4 180//4 174//4 179//4
f 178//4 180//4 173//4 175//4
s 1
f 13//1 2//1 4//1 14//1
f 14//5 4//5 8//5 15//5
f 16//2 6//2 2//2 13//2
f 5//2 12//2 9//2 1//2
f 3//5 10//5 11//5 7//5
f 1//1 9//1 10//1 3//1
f 12//2 16//2 13//2 9//2
f 10//5 14//5 15//5 11//5
f 9//1 13//1 14//1 10//1
f 29//4 30//4 20//4 18//4
f 30//7 31//8 24//9 20//9
f 32//10 29//11 18//12 22//12
f 21//13 17//13 25//14 28//15
f 19//16 23//16 27//17 26//18
f 17//4 19//4 26//4 25//4
f 28//15 25//14 29//11 32//10
f 26//18 27//17 31//8 30//7
f 25//4 26//4 30//4 29//4
f 1//6 3//6 19//6 17//6
f 4//3 2//3 18//3 20//3
f 3//6 7//6 23//6 19//6
f 8//3 4//3 20//3 24//3
f 7//4 11//19 27//19 23//4
f 12//19 5//4 21//4 28//19
f 5//6 1//6 17//6 21//6
f 2//3 6//3 22//3 18//3
f 11//19 15//19 31//19 27//19
f 16//19 12//19 28//19 32//19
f 15//19 8//4 24//4 31//19
f 6//4 16//19 32//19 22//4
f 44//20 34//21 36//22 45//23
f 45//23 36//22 38//24 47//25
f 47//25 38//24 40//26 49//27
f 49//27 40//26 42//28 51//29
f 51//29 42//28 34//21 44//20
f 41//30 52//31 43//32 33//33
f 49//27 51//29 52//31 50//34
f 39//35 50//34 52//31 41//30
f 47//25 49//27 50//34 48//36
f 37//37 48//36 50//34 39//35
f 45//23 47//25 48//36 46//38
f 35//39 46//38 48//36 37//37
f 43//32 44//20 45//23 46//38
f 33//33 43//32 46//38 35//39
f 51//29 44//20 43//32 52//31
f 64//20 54//21 56//22 65//23
f 65//23 56//22 58//24 67//25
f 67//25 58//24 60//26 69//27
f 69//27 60//26 62//28 71//29
f 71//29 62//28 54//21 64//20
f 61//30 72//31 63//32 53//33
f 69//27 71//29 72//31 70//34
f 59//35 70//34 72//31 61//30
f 67//25 69//27 70//34 68//36
f 57//37 68//36 70//34 59//35
f 65//23 67//25 68//36 66//38
f 55//39 66//38 68//36 57//37
f 63//32 64//20 65//23 66//38
f 53//33 63//32 66//38 55//39
f 71//29 64//20 63//32 72//31
f 84//20 74//21 76//22 85//23
f 85//23 76//22 78//24 87//25
f 87//25 78//24 80//26 89//27
f 89//27 80//26 82//28 91//29
f 91//29 82//28 74//21 84//20
f 81//30 92//31 83//32 73//33
f 89//27 91//29 92//31 90//34
f 79//35 90//34 92//31 81//30
f 87//25 89//27 90//34 88//36
f 77//37 88//36 90//34 79//35
f 85//23 87//25 88//36 86//38
f 75//39 86//38 88//36 77//37
f 83//32 84//20 85//23 86//38
f 73//33 83//32 86//38 75//39
f 91//29 84//20 83//32 92//31
f 104//20 94//21 96//22 105//23
f 105//23 96//22 98//24 107//25
f 107//25 98//24 100//26 109//27
f 109//27 100//26 102//28 111//29
f 111//29 102//28 94//21 104//20
f 101//30 112//31 103//32 93//33
f 109//27 111//29 112//31 110//34
f 99//35 110//34 112//31 101//30
f 107//25 109//27 110//34 108//36
f 97//37 108//36 110//34 99//35
f 105//23 107//25 108//36 106//38
f 95//39 106//38 108//36 97//37
f 103//32 104//20 105//23 106//38
f 93//33 103//32 106//38 95//39
f 111//29 104//20 103//32 112//31
f 137//40 139//41 143//42 141//40
f 140//43 138//43 142//43 144//43
f 139//41 140//44 144//44 143//42
f 138//45 137//45 141//45 142//45
f 141//3 143//3 144//3 142//3
f 192//46 182//47 184//48 193//49
f 193//49 184//48 186//50 195//51
f 195//51 186//50 188//52 197//53
f 197//53 188//52 190//54 199//55
f 199//55 190//54 182//47 192//46
f 189//56 200//57 191//58 181//59
f 197//53 199//55 200//57 198//60
f 187//61 198//60 200//57 189//56
f 195//51 197//53 198//60 196//62
f 185//63 196//62 198//60 187//61
f 193//49 195//51 196//62 194//64
f 183//65 194//64 196//62 185//63
f 191//58 192//46 193//49 194//64
f 181//59 191//58 194//64 183//65
f 199//55 192//46 191//58 200//57
f 137//6 138//6 140//6 139//6
