# Blender v2.78 (sub 0) OBJ File: 'Küche_UVbearbeiten.blend'
# www.blender.org
mtllib mod_Kuechentisch.mtl
g Kuechentisch.001
v -0.900000 1.524000 1.000000
v -0.900000 1.596000 1.000000
v -0.900000 1.596000 -1.000000
v -0.900000 1.524000 -1.000000
v 0.900000 1.596000 -1.000000
v 0.900000 1.524000 -1.000000
v 0.900000 1.596000 1.000000
v 0.900000 1.524000 1.000000
v -0.777867 1.283345 -0.831323
v -0.777867 1.554966 -0.831323
v 0.777867 1.554966 -0.831323
v 0.777867 1.283345 -0.831323
v 0.777867 1.283345 0.831323
v 0.777867 1.554966 0.831323
v -0.777867 1.554966 0.831323
v -0.777867 1.283345 0.831323
v 0.777867 1.283345 -0.396596
v 0.777867 1.554966 -0.396596
v 0.814152 1.554966 -0.396596
v 0.814152 1.283345 -0.396596
v 0.814152 1.554966 0.396596
v 0.814152 1.283345 0.396596
v 0.777867 1.554966 0.396596
v 0.777867 1.283345 0.396596
v 0.800000 1.520000 0.755000
v 0.800000 -0.000000 0.755000
v 0.800000 -0.000000 0.840000
v 0.800000 1.520000 0.840000
v 0.845000 1.520000 0.755000
v 0.845000 -0.000000 0.755000
v 0.845000 -0.000000 0.885000
v 0.845000 1.520000 0.885000
v 0.715000 1.520000 0.885000
v 0.715000 -0.000000 0.885000
v 0.715000 -0.000000 0.840000
v 0.715000 1.520000 0.840000
v -0.800000 1.520000 0.755000
v -0.800000 1.520000 0.840000
v -0.800000 -0.000000 0.840000
v -0.800000 -0.000000 0.755000
v -0.845000 -0.000000 0.755000
v -0.845000 1.520000 0.755000
v -0.845000 -0.000000 0.885000
v -0.715000 -0.000000 0.885000
v -0.715000 1.520000 0.885000
v -0.845000 1.520000 0.885000
v -0.715000 -0.000000 0.840000
v -0.715000 1.520000 0.840000
v 0.800000 1.520000 -0.755000
v 0.800000 1.520000 -0.840000
v 0.800000 0.000000 -0.840000
v 0.800000 0.000000 -0.755000
v 0.845000 0.000000 -0.755000
v 0.845000 1.520000 -0.755000
v 0.845000 0.000000 -0.885000
v 0.715000 0.000000 -0.885000
v 0.715000 1.520000 -0.885000
v 0.845000 1.520000 -0.885000
v 0.715000 0.000000 -0.840000
v 0.715000 1.520000 -0.840000
v -0.800000 1.520000 -0.755000
v -0.800000 0.000000 -0.755000
v -0.800000 0.000000 -0.840000
v -0.800000 1.520000 -0.840000
v -0.845000 1.520000 -0.755000
v -0.845000 0.000000 -0.755000
v -0.845000 0.000000 -0.885000
v -0.845000 1.520000 -0.885000
v -0.715000 1.520000 -0.885000
v -0.715000 0.000000 -0.885000
v -0.715000 0.000000 -0.840000
v -0.715000 1.520000 -0.840000
v 0.810830 1.419155 -0.051488
v 0.810830 1.457772 -0.038616
v 0.860476 1.443974 -0.024818
v 0.869163 1.419155 -0.033504
v 0.860476 1.394337 -0.024818
v 0.810830 1.380539 -0.038616
v 0.880331 1.419155 0.000000
v 0.869163 1.385651 0.000000
v 0.869163 1.452660 0.000000
v 0.860476 1.443974 0.024818
v 0.869163 1.419155 0.033504
v 0.860476 1.394337 0.024818
v 0.810830 1.419155 0.051488
v 0.810830 1.380539 0.038616
v 0.810830 1.457772 0.038616
v 0.810830 1.367667 0.000000
v 0.810830 1.470644 0.000000
vt 0.7040 0.2755
vt 0.7040 0.2796
vt 0.8177 0.2796
vt 0.8177 0.2755
vt 0.8177 0.2796
vt 0.8177 0.2755
vt 0.7040 0.2796
vt 0.7040 0.2755
vt 0.8177 0.0958
vt 0.8177 0.0958
vt 0.7040 0.0958
vt 0.7040 0.0958
vt 0.1389 0.4131
vt 0.1389 0.4999
vt 0.1389 0.4999
vt 0.1389 0.4131
vt 0.0276 0.4131
vt 0.0276 0.4999
vt 0.0276 0.4999
vt 0.0276 0.4131
vt 0.0325 0.4443
vt 0.1438 0.4443
vt 0.1438 0.4443
vt 0.0325 0.4443
vt 0.0641 0.5514
vt 0.0641 0.5068
vt 0.0641 0.5068
vt 0.0641 0.5514
vt 0.0616 0.4443
vt 0.0616 0.3997
vt 0.1147 0.3997
vt 0.1147 0.4443
vt 0.1172 0.5068
vt 0.1172 0.5514
vt 0.1172 0.5514
vt 0.1172 0.5068
vt 0.1387 0.4055
vt 0.1387 0.6549
vt 0.1444 0.6549
vt 0.1444 0.4055
vt 0.1387 0.4055
vt 0.1387 0.6549
vt 0.1474 0.6549
vt 0.1474 0.4055
vt 0.1474 0.4055
vt 0.1474 0.6549
vt 0.1444 0.6549
vt 0.1444 0.4055
vt 0.1387 0.4055
vt 0.1444 0.4055
vt 0.1444 0.6549
vt 0.1387 0.6549
vt 0.1387 0.6549
vt 0.1387 0.4055
vt 0.1474 0.6549
vt 0.1474 0.6549
vt 0.1474 0.4055
vt 0.1474 0.4055
vt 0.1444 0.6549
vt 0.1444 0.4055
vt 0.0376 0.4055
vt 0.0319 0.4055
vt 0.0319 0.6549
vt 0.0376 0.6549
vt 0.0376 0.6549
vt 0.0376 0.4055
vt 0.0289 0.6549
vt 0.0289 0.6549
vt 0.0289 0.4055
vt 0.0289 0.4055
vt 0.0319 0.6549
vt 0.0319 0.4055
vt 0.0376 0.4055
vt 0.0376 0.6549
vt 0.0319 0.6549
vt 0.0319 0.4055
vt 0.0376 0.4055
vt 0.0376 0.6549
vt 0.0289 0.6549
vt 0.0289 0.4055
vt 0.0289 0.4055
vt 0.0289 0.6549
vt 0.0319 0.6549
vt 0.0319 0.4055
vt 0.0823 0.5328
vt 0.0831 0.5264
vt 0.0840 0.5287
vt 0.0835 0.5328
vt 0.0840 0.5368
vt 0.0831 0.5391
vt 0.0857 0.5328
vt 0.0857 0.5383
vt 0.0857 0.5273
vt 0.0874 0.5287
vt 0.0879 0.5328
vt 0.0874 0.5368
vt 0.0891 0.5328
vt 0.0883 0.5391
vt 0.0883 0.5264
vt 0.0857 0.5412
vt 0.0857 0.5243
vn -1.0000 0.0000 0.0000
vn 0.0000 0.0000 -1.0000
vn 1.0000 0.0000 0.0000
vn 0.0000 0.0000 1.0000
vn 0.0000 -1.0000 -0.0000
vn 0.0000 1.0000 0.0000
vn 0.3251 -0.0000 -0.9457
vn 0.3308 0.6673 -0.6673
vn 0.5541 0.5886 -0.5886
vn 0.6902 -0.0000 -0.7236
vn 0.5541 -0.5886 -0.5886
vn 0.3308 -0.6673 -0.6673
vn 0.6902 -0.7236 -0.0000
vn 0.6903 0.7236 0.0000
vn 0.5541 0.5886 0.5886
vn 0.6902 -0.0000 0.7236
vn 0.5541 -0.5886 0.5886
vn 0.3251 -0.0000 0.9457
vn 0.3308 -0.6673 0.6673
vn 0.3308 0.6673 0.6673
vn 0.3251 -0.9457 -0.0000
vn 0.3251 0.9457 0.0000
usemtl None
s off
f 1/1/1 2/2/1 3/3/1 4/4/1
f 4/4/2 3/3/2 5/5/2 6/6/2
f 6/6/3 5/5/3 7/7/3 8/8/3
f 8/8/4 7/7/4 2/2/4 1/1/4
f 4/9/5 6/10/5 8/11/5 1/12/5
f 5/5/6 3/3/6 2/2/6 7/7/6
f 9/13/2 10/14/2 11/15/2 12/16/2
f 13/17/4 14/18/4 15/19/4 16/20/4
f 12/21/5 13/22/5 16/23/5 9/24/5
f 11/15/3 14/18/3 13/17/3 12/16/3
f 15/19/1 10/14/1 9/13/1 16/20/1
f 17/25/2 18/26/2 19/27/2 20/28/2
f 20/29/3 19/30/3 21/31/3 22/32/3
f 23/33/4 24/34/4 22/35/4 21/36/4
f 18/26/6 23/33/6 21/36/6 19/27/6
f 24/34/5 17/25/5 20/28/5 22/35/5
f 25/37/1 26/38/1 27/39/1 28/40/1
f 26/38/2 25/37/2 29/41/2 30/42/2
f 31/43/4 32/44/4 33/45/4 34/46/4
f 35/47/2 36/48/2 28/40/2 27/39/2
f 30/42/3 29/41/3 32/44/3 31/43/3
f 34/46/1 33/45/1 36/48/1 35/47/1
f 37/49/3 38/50/3 39/51/3 40/52/3
f 40/52/2 41/53/2 42/54/2 37/49/2
f 43/55/4 44/56/4 45/57/4 46/58/4
f 47/59/2 39/51/2 38/50/2 48/60/2
f 41/53/1 43/55/1 46/58/1 42/54/1
f 44/56/3 47/59/3 48/60/3 45/57/3
f 49/61/1 50/62/1 51/63/1 52/64/1
f 52/64/4 53/65/4 54/66/4 49/61/4
f 55/67/2 56/68/2 57/69/2 58/70/2
f 59/71/4 51/63/4 50/62/4 60/72/4
f 53/65/3 55/67/3 58/70/3 54/66/3
f 56/68/1 59/71/1 60/72/1 57/69/1
f 61/73/3 62/74/3 63/75/3 64/76/3
f 62/74/4 61/73/4 65/77/4 66/78/4
f 67/79/2 68/80/2 69/81/2 70/82/2
f 71/83/4 72/84/4 64/76/4 63/75/4
f 66/78/1 65/77/1 68/80/1 67/79/1
f 70/82/3 69/81/3 72/84/3 71/83/3
s 1
f 73/85/7 74/86/8 75/87/9 76/88/10
f 73/85/7 76/88/10 77/89/11 78/90/12
f 79/91/3 80/92/13 77/89/11 76/88/10
f 79/91/3 76/88/10 75/87/9 81/93/14
f 79/91/3 81/93/14 82/94/15 83/95/16
f 79/91/3 83/95/16 84/96/17 80/92/13
f 85/97/18 86/98/19 84/96/17 83/95/16
f 85/97/18 83/95/16 82/94/15 87/99/20
f 88/100/21 78/90/12 77/89/11 80/92/13
f 88/100/21 80/92/13 84/96/17 86/98/19
f 89/101/22 81/93/14 75/87/9 74/86/8
f 89/101/22 87/99/20 82/94/15 81/93/14
