# Blender v2.78 (sub 0) OBJ File: 'Küche_UVbearbeiten.blend'
# www.blender.org
mtllib mod_Brotkasten.mtl
g Brotkasten_Deckel.001
v 0.900962 -0.001194 -0.098550
v 0.900962 0.080930 -0.098550
v 0.900962 0.080930 0.098548
v 0.900962 -0.001194 0.098548
v 0.890072 -0.001194 -0.098550
v 0.890072 0.080930 -0.098550
v 0.890072 0.080930 0.098548
v 0.890072 -0.001194 0.098548
v 0.055822 -0.001194 -0.800000
v 0.055822 0.158806 -0.800000
v 0.855822 0.158806 -0.800000
v 0.855822 -0.001194 -0.800000
v 0.015822 -0.001194 0.760000
v 0.015822 0.158806 0.760000
v 0.015822 0.158806 -0.760000
v 0.015822 -0.001194 -0.760000
v 0.055822 0.198806 0.760000
v 0.855822 0.198806 0.760000
v 0.855822 0.198806 -0.760000
v 0.055822 0.198806 -0.760000
v 0.855822 -0.001194 0.800000
v 0.855822 0.158806 0.800000
v 0.055822 0.158806 0.800000
v 0.055822 -0.001194 0.800000
v 0.895822 0.158806 -0.760000
v 0.895822 0.158806 0.760000
v 0.895822 -0.001194 -0.760000
v 0.895822 -0.001194 0.760000
v 0.071130 -0.001194 -0.763046
v 0.840516 -0.001194 -0.763046
v 0.842160 0.145144 -0.764978
v 0.069484 0.145144 -0.764976
v 0.052778 -0.001194 0.744694
v 0.052776 -0.001194 -0.744694
v 0.050846 0.145144 -0.746338
v 0.050846 0.145144 0.746338
v 0.069486 0.163784 0.746338
v 0.069484 0.163784 -0.746338
v 0.842160 0.163784 -0.746338
v 0.842160 0.163784 0.746338
v 0.840516 -0.001194 0.763046
v 0.071130 -0.001194 0.763046
v 0.069486 0.145144 0.764976
v 0.842160 0.145144 0.764976
v 0.860800 0.145144 -0.746338
v 0.860800 0.145144 0.746338
v 0.858868 -0.001194 -0.744694
v 0.858868 -0.001194 0.744692
v 0.000000 0.018090 -0.340436
v 0.000000 0.018090 -0.500434
v -0.019020 0.004270 -0.500434
v -0.019020 0.004270 -0.340436
v -0.011756 -0.018090 -0.500434
v -0.011756 -0.018090 -0.340436
v 0.011756 -0.018090 -0.500434
v 0.011756 -0.018090 -0.340436
v 0.019020 0.004270 -0.500434
v 0.019020 0.004270 -0.340436
v 0.000000 0.018090 0.340436
v -0.019020 0.004270 0.340436
v -0.019020 0.004270 0.500434
v 0.000000 0.018090 0.500434
v -0.011756 -0.018090 0.340436
v -0.011756 -0.018090 0.500434
v 0.011756 -0.018090 0.340436
v 0.011756 -0.018090 0.500434
v 0.019020 0.004270 0.500434
v 0.019020 0.004270 0.340436
vt 0.7416 0.7906
vt 0.7416 0.6858
vt 0.7577 0.6858
vt 0.7577 0.7906
vt 0.7416 0.7906
vt 0.7416 0.6858
vt 0.7577 0.6858
vt 0.7577 0.7906
vt 0.8538 0.4741
vt 0.8538 0.3653
vt 0.8538 0.3653
vt 0.8538 0.4741
vt 0.9810 0.4741
vt 0.9810 0.3653
vt 0.8571 0.3653
vt 0.8571 0.4741
vt 0.9810 0.3381
vt 0.9810 0.3381
vt 0.8571 0.3381
vt 0.8571 0.3381
vt 0.9843 0.4741
vt 0.9843 0.3653
vt 0.9843 0.3653
vt 0.9843 0.4741
vt 0.8571 0.3653
vt 0.9810 0.3653
vt 0.8571 0.4741
vt 0.9810 0.4741
vt 0.9791 0.4739
vt 0.9791 0.4739
vt 0.9793 0.5733
vt 0.9793 0.5733
vt 0.8561 0.4738
vt 0.9776 0.4739
vt 0.9777 0.5733
vt 0.8560 0.5733
vt 0.8560 0.5860
vt 0.9777 0.5860
vt 0.9777 0.5860
vt 0.8560 0.5860
vt 0.8546 0.4738
vt 0.8546 0.4738
vt 0.8545 0.5733
vt 0.8545 0.5733
vt 0.9777 0.5733
vt 0.8560 0.5733
vt 0.9776 0.4739
vt 0.8561 0.4738
vt 0.8583 0.4741
vt 0.8568 0.4741
vt 0.9813 0.4741
vt 0.9798 0.4741
vt 0.9798 0.4741
vt 0.9813 0.4741
vt 0.8568 0.4741
vt 0.8583 0.4741
vt 0.7809 0.6971
vt 0.7939 0.6971
vt 0.7939 0.7387
vt 0.7809 0.7387
vt 0.7939 0.8059
vt 0.7809 0.8059
vt 0.7939 0.8059
vt 0.7809 0.8059
vt 0.7939 0.7387
vt 0.7809 0.7387
vt 0.7254 0.6971
vt 0.7254 0.7387
vt 0.7123 0.7387
vt 0.7123 0.6971
vt 0.7254 0.8059
vt 0.7123 0.8059
vt 0.7254 0.8059
vt 0.7123 0.8059
vt 0.7123 0.7387
vt 0.7254 0.7387
vn 1.0000 -0.0000 0.0000
vn 0.0000 0.0000 -1.0000
vn 0.0000 1.0000 0.0000
vn 0.0000 -0.0000 1.0000
vn 0.0000 -1.0000 -0.0000
vn -0.3827 0.0000 -0.9239
vn -0.3416 0.3416 -0.8756
vn 0.3416 0.3416 -0.8756
vn 0.3827 0.0000 -0.9239
vn -0.9239 0.0000 0.3827
vn -0.8756 0.3416 0.3416
vn -0.8756 0.3416 -0.3416
vn -0.9239 0.0000 -0.3827
vn -0.3416 0.8756 0.3416
vn 0.3416 0.8756 0.3416
vn 0.3416 0.8756 -0.3416
vn -0.3416 0.8756 -0.3416
vn 0.3827 0.0000 0.9239
vn 0.3416 0.3416 0.8756
vn -0.3416 0.3416 0.8756
vn -0.3827 0.0000 0.9239
vn 0.8756 0.3416 -0.3416
vn 0.8756 0.3416 0.3416
vn 0.9239 0.0000 -0.3827
vn 0.9239 0.0000 0.3827
vn 0.3814 0.0165 0.9243
vn -0.3814 0.0165 0.9243
vn -0.3432 -0.3339 0.8779
vn 0.3432 -0.3339 0.8779
vn 0.9242 0.0165 -0.3814
vn 0.9242 0.0165 0.3814
vn 0.8779 -0.3339 0.3432
vn 0.8779 -0.3339 -0.3432
vn 0.3416 -0.8756 -0.3416
vn 0.3416 -0.8756 0.3416
vn -0.3416 -0.8756 0.3416
vn -0.3416 -0.8756 -0.3416
vn -0.3814 0.0165 -0.9243
vn 0.3814 0.0165 -0.9243
vn 0.3432 -0.3339 -0.8779
vn -0.3432 -0.3339 -0.8779
vn -0.8779 -0.3339 0.3432
vn -0.8779 -0.3339 -0.3432
vn -0.9243 0.0165 0.3814
vn -0.9243 0.0165 -0.3814
vn -0.9511 0.3090 0.0000
vn -0.5878 -0.8090 -0.0000
vn 0.5878 -0.8090 -0.0000
vn 0.9511 0.3090 0.0000
usemtl None
s off
f 1/1/1 2/2/1 3/3/1 4/4/1
f 2/2/2 1/1/2 5/5/2 6/6/2
f 3/3/3 2/2/3 6/6/3 7/7/3
f 4/4/4 3/3/4 7/7/4 8/8/4
f 1/1/5 4/4/5 8/8/5 5/5/5
s 1
f 9/9/6 10/10/7 11/11/8 12/12/9
f 13/13/10 14/14/11 15/15/12 16/16/13
f 17/17/14 18/18/15 19/19/16 20/20/17
f 21/21/18 22/22/19 23/23/20 24/24/21
f 11/11/8 19/19/16 25/25/22
f 18/18/15 22/22/19 26/26/23
f 20/20/17 10/10/7 15/15/12
f 17/17/14 14/14/11 23/23/20
f 12/12/9 11/11/8 25/25/22 27/27/24
f 19/19/16 18/18/15 26/26/23 25/25/22
f 22/22/19 21/21/18 28/28/25 26/26/23
f 18/18/15 17/17/14 23/23/20 22/22/19
f 14/14/11 13/13/10 24/24/21 23/23/20
f 17/17/14 20/20/17 15/15/12 14/14/11
f 10/10/7 9/9/6 16/16/13 15/15/12
f 20/20/17 19/19/16 11/11/8 10/10/7
f 27/27/24 25/25/22 26/26/23 28/28/25
f 29/29/26 30/30/27 31/31/28 32/32/29
f 33/33/30 34/34/31 35/35/32 36/36/33
f 37/37/34 38/38/35 39/39/36 40/40/37
f 41/41/38 42/42/39 43/43/40 44/44/41
f 31/31/28 45/45/42 39/39/36
f 40/40/37 46/46/43 44/44/41
f 38/38/35 35/35/32 32/32/29
f 37/37/34 43/43/40 36/36/33
f 30/30/27 47/47/44 45/45/42 31/31/28
f 39/39/36 45/45/42 46/46/43 40/40/37
f 44/44/41 46/46/43 48/48/45 41/41/38
f 40/40/37 44/44/41 43/43/40 37/37/34
f 36/36/33 43/43/40 42/42/39 33/33/30
f 37/37/34 36/36/33 35/35/32 38/38/35
f 32/32/29 35/35/32 34/34/31 29/29/26
f 38/38/35 32/32/29 31/31/28 39/39/36
f 47/47/44 48/48/45 46/46/43 45/45/42
f 12/12/5 27/27/5 47/49/5 30/50/5
f 28/28/5 21/21/5 41/51/5 48/52/5
f 24/24/5 13/13/5 33/53/5 42/54/5
f 16/16/5 9/9/5 29/55/5 34/56/5
f 27/27/5 28/28/5 48/52/5 47/49/5
f 9/9/5 12/12/5 30/50/5 29/55/5
f 21/21/5 24/24/5 42/54/5 41/51/5
f 13/13/5 16/16/5 34/56/5 33/53/5
f 49/57/3 50/58/3 51/59/46 52/60/46
f 52/60/46 51/59/46 53/61/47 54/62/47
f 54/62/47 53/61/47 55/63/48 56/64/48
f 51/59/2 50/58/2 57/65/2 55/63/2 53/61/2
f 56/64/48 55/63/48 57/65/49 58/66/49
f 58/66/49 57/65/49 50/58/3 49/57/3
f 49/57/4 52/60/4 54/62/4 56/64/4 58/66/4
f 59/67/3 60/68/46 61/69/46 62/70/3
f 60/68/46 63/71/47 64/72/47 61/69/46
f 63/71/47 65/73/48 66/74/48 64/72/47
f 61/69/4 64/72/4 66/74/4 67/75/4 62/70/4
f 65/73/48 68/76/49 67/75/49 66/74/48
f 68/76/49 59/67/3 62/70/3 67/75/49
f 59/67/2 68/76/2 65/73/2 63/71/2 60/68/2
g Brotkasten.001
v 0.055822 -0.436390 -0.800000
v 0.055822 -0.004390 -0.800000
v 0.855822 -0.004390 -0.800000
v 0.855822 -0.436390 -0.800000
v 0.015822 -0.436390 0.760000
v 0.015822 -0.004390 0.760000
v 0.015822 -0.004390 -0.760000
v 0.015822 -0.436390 -0.760000
v 0.855822 -0.436390 0.800000
v 0.855822 -0.004390 0.800000
v 0.055822 -0.004390 0.800000
v 0.055822 -0.436390 0.800000
v 0.895822 -0.436390 -0.760000
v 0.895822 -0.004390 -0.760000
v 0.895822 -0.004390 0.760000
v 0.895822 -0.436390 0.760000
v 0.855822 -0.484390 -0.760000
v 0.855822 -0.484390 0.760000
v 0.055822 -0.484390 -0.760000
v 0.055822 -0.484390 0.760000
v 0.069484 -0.419996 -0.764978
v 0.842160 -0.419996 -0.764978
v 0.840516 -0.004390 -0.763046
v 0.071130 -0.004390 -0.763046
v 0.050846 -0.419996 0.746338
v 0.050846 -0.419996 -0.746338
v 0.052776 -0.004390 -0.744694
v 0.052778 -0.004390 0.744694
v 0.842160 -0.419996 0.764976
v 0.069486 -0.419996 0.764978
v 0.071130 -0.004390 0.763046
v 0.840516 -0.004390 0.763046
v 0.860800 -0.419996 -0.746338
v 0.860800 -0.419996 0.746338
v 0.858868 -0.004390 0.744692
v 0.858868 -0.004390 -0.744694
v 0.842160 -0.442362 -0.746338
v 0.842160 -0.442362 0.746338
v 0.069484 -0.442362 -0.746338
v 0.069486 -0.442362 0.746338
v 0.908156 -0.017700 -0.095370
v 0.900962 -0.004390 -0.098550
v 0.900962 -0.004390 0.098548
v 0.908156 -0.017700 0.095370
v 0.900962 -0.126392 -0.014100
v 0.900962 -0.060280 -0.085200
v 0.900962 -0.060280 0.085200
v 0.900962 -0.126392 0.014100
v 0.888562 -0.126392 0.014100
v 0.888562 -0.126392 -0.014100
v 0.888588 -0.058808 0.085200
v 0.895290 -0.020476 -0.095370
v 0.890054 -0.010286 -0.098550
v 0.890054 -0.010286 0.098548
v 0.895290 -0.020476 0.095370
v 0.888588 -0.058808 -0.085200
vt 0.8530 0.5958
vt 0.8530 0.4113
vt 0.8530 0.4113
vt 0.8530 0.5958
vt 0.9881 0.5958
vt 0.9881 0.4113
vt 0.8565 0.4113
vt 0.8565 0.5958
vt 0.9915 0.5958
vt 0.9915 0.4113
vt 0.9915 0.4113
vt 0.9915 0.5958
vt 0.8565 0.5958
vt 0.8565 0.4113
vt 0.9881 0.4113
vt 0.9881 0.5958
vt 0.8565 0.6163
vt 0.9881 0.6163
vt 0.8565 0.6163
vt 0.9881 0.6163
vt 0.8561 0.5888
vt 0.8561 0.5888
vt 0.8562 0.4113
vt 0.8562 0.4113
vt 0.9869 0.5888
vt 0.8577 0.5888
vt 0.8578 0.4113
vt 0.9868 0.4113
vt 0.9885 0.5888
vt 0.9885 0.5888
vt 0.9883 0.4113
vt 0.9883 0.4113
vt 0.8577 0.5888
vt 0.9869 0.5888
vt 0.9868 0.4113
vt 0.8578 0.4113
vt 0.8577 0.5983
vt 0.9869 0.5983
vt 0.8577 0.5983
vt 0.9869 0.5983
vt 0.7371 0.6918
vt 0.7369 0.6773
vt 0.7539 0.6773
vt 0.7537 0.6918
vt 0.7442 0.8098
vt 0.7380 0.7380
vt 0.7528 0.7380
vt 0.7466 0.8098
vt 0.7466 0.8098
vt 0.7442 0.8098
vt 0.7528 0.7364
vt 0.7371 0.6948
vt 0.7369 0.6837
vt 0.7539 0.6837
vt 0.7537 0.6948
vt 0.7380 0.7364
vn -0.3467 -0.3045 -0.8872
vn -0.3827 0.0000 -0.9239
vn 0.3827 0.0000 -0.9239
vn 0.3467 -0.3045 -0.8872
vn -0.8872 -0.3045 0.3467
vn -0.9239 -0.0000 0.3827
vn -0.9239 0.0000 -0.3827
vn -0.8872 -0.3045 -0.3467
vn 0.3467 -0.3045 0.8872
vn 0.3827 -0.0000 0.9239
vn -0.3827 -0.0000 0.9239
vn -0.3467 -0.3045 0.8872
vn 0.8872 -0.3045 -0.3467
vn 0.9239 0.0000 -0.3827
vn 0.9239 0.0000 0.3827
vn 0.8872 -0.3045 0.3467
vn 0.3725 -0.8500 -0.3725
vn 0.3725 -0.8500 0.3725
vn -0.3725 -0.8500 -0.3725
vn -0.3725 -0.8500 0.3725
vn 0.3472 0.3017 0.8879
vn -0.3472 0.3017 0.8879
vn -0.3823 -0.0058 0.9240
vn 0.3823 -0.0058 0.9240
vn 0.8879 0.3017 -0.3472
vn 0.8879 0.3017 0.3472
vn 0.9240 -0.0058 0.3823
vn 0.9240 -0.0058 -0.3823
vn -0.3472 0.3017 -0.8879
vn 0.3472 0.3017 -0.8879
vn 0.3823 -0.0058 -0.9240
vn -0.3823 -0.0058 -0.9240
vn -0.8879 0.3017 0.3472
vn -0.8879 0.3017 -0.3472
vn -0.9240 -0.0058 -0.3823
vn -0.9240 -0.0058 0.3823
vn -0.3725 0.8500 0.3725
vn -0.3725 0.8500 -0.3725
vn 0.3725 0.8500 0.3725
vn 0.3725 0.8500 -0.3725
vn -0.0000 1.0000 0.0000
vn 0.9775 0.2108 0.0000
vn 0.8797 0.4755 0.0000
vn 1.0000 -0.0000 0.0000
vn 0.9930 -0.1180 -0.0000
vn -0.0233 -0.9295 -0.3681
vn -0.0233 -0.9295 0.3681
vn -0.0162 -0.5099 0.8601
vn -0.0156 -0.5050 0.8630
vn 0.0804 -0.2205 -0.9721
vn 0.0479 -0.2329 -0.9713
vn 0.0455 -0.2337 -0.9712
vn -0.4755 0.8797 0.0000
vn 0.0478 -0.2328 0.9713
vn 0.0455 -0.2337 0.9713
vn -0.0162 -0.5099 -0.8601
vn -0.0156 -0.5050 -0.8630
vn 0.0804 -0.2204 0.9721
usemtl None
s 1
f 69/77/50 70/78/51 71/79/52 72/80/53
f 73/81/54 74/82/55 75/83/56 76/84/57
f 77/85/58 78/86/59 79/87/60 80/88/61
f 81/89/62 82/90/63 83/91/64 84/92/65
f 85/93/66 72/80/53 81/89/62
f 86/94/67 84/92/65 77/85/58
f 87/95/68 76/84/57 69/77/50
f 88/96/69 80/88/61 73/81/54
f 86/94/67 85/93/66 81/89/62 84/92/65
f 72/80/53 71/79/52 82/90/63 81/89/62
f 78/86/59 77/85/58 84/92/65 83/91/64
f 88/96/69 86/94/67 77/85/58 80/88/61
f 74/82/55 73/81/54 80/88/61 79/87/60
f 87/95/68 88/96/69 73/81/54 76/84/57
f 70/78/51 69/77/50 76/84/57 75/83/56
f 85/93/66 87/95/68 69/77/50 72/80/53
f 86/94/67 88/96/69 87/95/68 85/93/66
f 89/97/70 90/98/71 91/99/72 92/100/73
f 93/101/74 94/102/75 95/103/76 96/104/77
f 97/105/78 98/106/79 99/107/80 100/108/81
f 101/109/82 102/110/83 103/111/84 104/112/85
f 105/113/86 101/109/82 90/98/71
f 106/114/87 97/105/78 102/110/83
f 107/115/88 89/97/70 94/102/75
f 108/116/89 93/101/74 98/106/79
f 106/114/87 102/110/83 101/109/82 105/113/86
f 90/98/71 101/109/82 104/112/85 91/99/72
f 100/108/81 103/111/84 102/110/83 97/105/78
f 108/116/89 98/106/79 97/105/78 106/114/87
f 96/104/77 99/107/80 98/106/79 93/101/74
f 107/115/88 94/102/75 93/101/74 108/116/89
f 92/100/73 95/103/76 94/102/75 89/97/70
f 105/113/86 90/98/71 89/97/70 107/115/88
f 106/114/87 105/113/86 107/115/88 108/116/89
f 82/90/90 71/79/90 91/99/90 104/112/90
f 78/86/90 83/91/90 103/111/90 100/108/90
f 74/82/90 79/87/90 99/107/90 96/104/90
f 70/78/90 75/83/90 95/103/90 92/100/90
f 83/91/90 82/90/90 104/112/90 103/111/90
f 71/79/90 70/78/90 92/100/90 91/99/90
f 79/87/90 78/86/90 100/108/90 99/107/90
f 75/83/90 74/82/90 96/104/90 95/103/90
f 109/117/91 110/118/92 111/119/92 112/120/91
f 113/121/93 114/122/94 115/123/94 116/124/93
f 114/122/94 109/117/91 112/120/91 115/123/94
f 113/121/95 116/124/96 117/125/96 118/126/95
f 116/124/96 115/123/97 119/127/98 117/125/96
f 110/118/99 109/117/100 120/128/101 121/129/99
f 111/119/102 110/118/102 121/129/102 122/130/102
f 115/123/97 112/120/103 123/131/104 119/127/98
f 114/122/105 113/121/95 118/126/95 124/132/106
f 109/117/100 114/122/105 124/132/106 120/128/101
f 112/120/103 111/119/107 122/130/107 123/131/104
