# Blender v2.78 (sub 0) OBJ File: 'Küche_UVbearbeiten.blend'
# www.blender.org
mtllib mod_Buffet.mtl
g Buffet.001
v 1.201425 1.533017 -1.935572
v 1.201425 1.251760 -1.935572
v 1.201425 1.251760 -0.064428
v 1.201425 1.533017 -0.064428
v 1.227619 1.251760 -0.064428
v 1.227619 1.533017 -0.064428
v 1.227619 1.533017 -1.935572
v 1.227620 1.251760 -1.935572
v 0.996795 3.844909 -0.064427
v 0.996795 2.782784 -0.064428
v 0.996795 2.782784 -0.993334
v 0.996795 3.844909 -0.993333
v 0.970601 3.844909 -0.064427
v 0.970601 3.844909 -0.993333
v 0.970601 2.782784 -0.993334
v 0.970601 2.782784 -0.064428
v 0.996795 3.844910 -1.935571
v 0.996795 3.844909 -1.006664
v 0.996795 2.782784 -1.006665
v 0.996795 2.782784 -1.935572
v 0.970601 3.844910 -1.935571
v 0.970601 2.782784 -1.935572
v 0.970601 2.782784 -1.006665
v 0.970601 3.844909 -1.006664
v 1.300000 1.660000 -2.000000
v 0.000000 1.660000 -2.000000
v 0.000000 1.660000 0.000000
v 1.300000 1.660000 0.000000
v 1.300000 1.600000 0.000000
v 1.300000 1.600000 -2.000000
v 0.000000 1.600000 -2.000000
v 1.227619 1.239792 -0.064428
v 1.227619 0.067817 -0.064428
v 1.227619 0.067817 -0.993334
v 1.227619 1.239792 -0.993334
v 1.201425 1.239792 -0.064428
v 1.201425 1.239792 -0.993334
v 1.201425 0.067817 -0.993334
v 1.201425 0.067817 -0.064428
v 1.227619 1.239792 -1.935572
v 1.227619 1.239792 -1.006665
v 1.227619 0.067817 -1.006665
v 1.227620 0.067818 -1.935572
v 1.201425 1.239792 -1.935572
v 1.201425 0.067818 -1.935572
v 1.201425 0.067817 -1.006665
v 1.201425 1.239792 -1.006665
v 0.000000 0.000000 0.000000
v 0.000000 1.600000 0.000000
v 0.000000 0.000000 -2.000000
v 1.200000 1.600000 -2.000000
v 1.200000 0.000000 -2.000000
v 1.200000 0.000000 0.000000
v 1.200000 1.600000 0.000000
v 1.200000 1.526217 -1.926216
v 1.200000 0.073783 -1.926216
v 1.200000 0.073783 -0.073783
v 1.200000 1.526217 -0.073783
v 0.000000 2.773335 0.000000
v 0.000000 2.773335 -2.000000
v 0.980000 2.773335 -2.000000
v 0.980000 2.773335 0.000000
v 0.479440 1.660000 0.000000
v 0.479440 2.094852 0.000000
v 0.000000 2.094852 0.000000
v 0.000000 2.094852 -2.000000
v 0.479440 2.094852 -2.000000
v 0.479440 1.660000 -2.000000
v 0.056567 2.773335 -0.056567
v 0.056567 2.773335 -1.943433
v 0.056567 3.860000 -1.943432
v 0.056567 3.860000 -0.056566
v 0.980000 2.773335 -1.919999
v 0.980000 3.860000 -1.919999
v 0.980000 2.773335 -0.080000
v 0.980000 3.860000 -0.079999
v 0.479440 1.660000 -0.080000
v 0.056567 1.660000 -0.056567
v 0.056567 2.094852 -0.056567
v 0.479440 2.094852 -0.079998
v 0.056567 1.660000 -1.943433
v 0.479440 1.660000 -1.920000
v 0.479440 2.094852 -1.920002
v 0.056567 2.094852 -1.943433
v 1.111020 3.409547 -1.129053
v 1.002280 3.449643 -1.129053
v 1.000276 3.436347 -1.110547
v 1.100015 3.401823 -1.110547
v 0.997034 3.414835 -1.117616
v 1.082208 3.389325 -1.117616
v 0.997034 3.414835 -1.140490
v 1.082208 3.389325 -1.140491
v 1.000276 3.436347 -1.147559
v 1.100015 3.401823 -1.147559
v 0.994698 3.164018 -1.147560
v 1.096792 3.193696 -1.147560
v 1.106904 3.184835 -1.129053
v 0.995355 3.150589 -1.129053
v 1.080430 3.208034 -1.140491
v 0.993633 3.185748 -1.140491
v 1.080430 3.208034 -1.117617
v 0.993633 3.185748 -1.117617
v 1.096792 3.193696 -1.110548
v 0.994698 3.164018 -1.110548
v 1.111020 3.409547 -0.875128
v 1.002280 3.449643 -0.875128
v 1.000276 3.436347 -0.856622
v 1.100015 3.401823 -0.856622
v 0.997034 3.414835 -0.863691
v 1.082208 3.389325 -0.863691
v 0.997034 3.414835 -0.886566
v 1.082208 3.389325 -0.886566
v 1.000276 3.436347 -0.893635
v 1.100015 3.401823 -0.893635
v 0.994698 3.164018 -0.893635
v 1.096792 3.193696 -0.893635
v 1.106904 3.184835 -0.875128
v 0.995355 3.150589 -0.875128
v 1.080430 3.208034 -0.886566
v 0.993633 3.185748 -0.886566
v 1.080430 3.208034 -0.863691
v 0.993633 3.185748 -0.863691
v 1.096792 3.193696 -0.856622
v 0.994698 3.164018 -0.856622
v 1.340427 0.776591 -0.875129
v 1.231687 0.816687 -0.875129
v 1.229683 0.803391 -0.856623
v 1.329422 0.768867 -0.856623
v 1.226441 0.781879 -0.863692
v 1.311615 0.756368 -0.863692
v 1.226441 0.781879 -0.886567
v 1.311615 0.756368 -0.886567
v 1.229683 0.803391 -0.893636
v 1.329422 0.768867 -0.893636
v 1.224105 0.531062 -0.893636
v 1.326199 0.560740 -0.893636
v 1.336311 0.551879 -0.875129
v 1.224762 0.517633 -0.875129
v 1.309837 0.575078 -0.886567
v 1.223040 0.552791 -0.886567
v 1.309837 0.575078 -0.863692
v 1.223040 0.552791 -0.863692
v 1.326199 0.560740 -0.856623
v 1.224105 0.531062 -0.856623
v 1.340427 0.776591 -1.129054
v 1.231687 0.816687 -1.129054
v 1.229683 0.803391 -1.110548
v 1.329422 0.768867 -1.110548
v 1.226441 0.781879 -1.117617
v 1.311615 0.756368 -1.117617
v 1.226441 0.781879 -1.140491
v 1.311615 0.756368 -1.140492
v 1.229683 0.803391 -1.147560
v 1.329422 0.768867 -1.147560
v 1.224105 0.531062 -1.147560
v 1.326199 0.560740 -1.147560
v 1.336311 0.551879 -1.129054
v 1.224762 0.517633 -1.129054
v 1.309837 0.575078 -1.140492
v 1.223040 0.552791 -1.140492
v 1.309837 0.575078 -1.117617
v 1.223040 0.552791 -1.117617
v 1.326199 0.560740 -1.110548
v 1.224105 0.531062 -1.110548
v 0.000000 3.860000 0.000001
v 0.980000 3.860000 0.000001
v 1.023498 3.984109 0.100003
v -0.061309 3.984109 0.100003
v 0.980000 3.860000 -1.999999
v 0.000000 3.860000 -1.999999
v -0.061309 3.984109 -2.113889
v 1.023498 3.984109 -2.113889
v 1.340427 1.411858 -1.100451
v 1.231687 1.411858 -1.140547
v 1.229683 1.430364 -1.127251
v 1.329422 1.430364 -1.092727
v 1.226441 1.423295 -1.105739
v 1.311615 1.423295 -1.080229
v 1.226441 1.400420 -1.105739
v 1.311615 1.400420 -1.080229
v 1.229683 1.393352 -1.127251
v 1.329422 1.393352 -1.092727
v 1.224105 1.393352 -0.854922
v 1.326199 1.393352 -0.884600
v 1.336311 1.411858 -0.875739
v 1.224762 1.411858 -0.841493
v 1.309837 1.400420 -0.898938
v 1.223040 1.400420 -0.876652
v 1.309837 1.423295 -0.898938
v 1.223040 1.423295 -0.876652
v 1.326199 1.430364 -0.884600
v 1.224105 1.430364 -0.854922
vt 0.3693 0.8131
vt 0.3693 0.8285
vt 0.4714 0.8285
vt 0.4714 0.8131
vt 0.4689 0.8999
vt 0.4689 0.8845
vt 0.4689 0.8845
vt 0.4689 0.8999
vt 0.3668 0.8845
vt 0.3668 0.8845
vt 0.3693 0.8131
vt 0.4714 0.8131
vt 0.4714 0.8285
vt 0.3693 0.8285
vt 0.3668 0.8999
vt 0.3668 0.8999
vt 0.4714 0.6869
vt 0.4714 0.7449
vt 0.4207 0.7449
vt 0.4207 0.6869
vt 0.4714 0.6869
vt 0.4207 0.6869
vt 0.4207 0.7449
vt 0.4714 0.7449
vt 0.4677 0.7657
vt 0.4170 0.7657
vt 0.4170 0.7657
vt 0.4677 0.7657
vt 0.4677 0.8237
vt 0.4677 0.8237
vt 0.4170 0.8237
vt 0.4170 0.8237
vt 0.3693 0.6869
vt 0.4200 0.6869
vt 0.4200 0.7449
vt 0.3693 0.7449
vt 0.3693 0.6869
vt 0.3693 0.7449
vt 0.4200 0.7449
vt 0.4200 0.6869
vt 0.3656 0.7657
vt 0.3656 0.7657
vt 0.4163 0.7657
vt 0.4163 0.7657
vt 0.3656 0.8237
vt 0.3656 0.8237
vt 0.4163 0.8237
vt 0.4163 0.8237
vt 0.4788 0.7116
vt 0.4788 0.9002
vt 0.3556 0.9002
vt 0.3556 0.7116
vt 0.4749 0.8095
vt 0.4749 0.8095
vt 0.4749 0.8062
vt 0.4749 0.8062
vt 0.3657 0.8095
vt 0.3657 0.8095
vt 0.3657 0.8062
vt 0.3657 0.8062
vt 0.3682 0.8390
vt 0.4774 0.8390
vt 0.4774 0.8390
vt 0.3682 0.8390
vt 0.4714 0.8291
vt 0.4714 0.8931
vt 0.4207 0.8931
vt 0.4207 0.8291
vt 0.4714 0.8291
vt 0.4207 0.8291
vt 0.4207 0.8931
vt 0.4714 0.8931
vt 0.4689 0.9005
vt 0.4182 0.9005
vt 0.4182 0.9005
vt 0.4689 0.9005
vt 0.4689 0.9645
vt 0.4689 0.9645
vt 0.4182 0.9645
vt 0.4182 0.9645
vt 0.3693 0.8291
vt 0.4200 0.8291
vt 0.4200 0.8931
vt 0.3693 0.8931
vt 0.3693 0.8291
vt 0.3693 0.8931
vt 0.4200 0.8931
vt 0.4200 0.8291
vt 0.3668 0.9005
vt 0.3668 0.9005
vt 0.4175 0.9005
vt 0.4175 0.9005
vt 0.3668 0.9645
vt 0.3668 0.9645
vt 0.4175 0.9645
vt 0.4175 0.9645
vt 0.4749 0.8968
vt 0.3657 0.8968
vt 0.3657 0.8095
vt 0.3657 0.8968
vt 0.4749 0.8968
vt 0.4749 0.8095
vt 0.3698 0.8135
vt 0.3698 0.8928
vt 0.4709 0.8928
vt 0.4709 0.8135
vt 0.4749 0.7454
vt 0.4749 0.6861
vt 0.3657 0.6861
vt 0.3657 0.7454
vt 0.3657 0.6861
vt 0.3657 0.7454
vt 0.4749 0.7454
vt 0.4749 0.6861
vt 0.4749 0.8062
vt 0.4749 0.7825
vt 0.4749 0.7825
vt 0.3657 0.7825
vt 0.3657 0.7825
vt 0.3657 0.8062
vt 0.4787 0.7836
vt 0.3850 0.7836
vt 0.3850 0.6923
vt 0.4787 0.6923
vt 0.3664 0.8229
vt 0.3676 0.8229
vt 0.3676 0.7636
vt 0.3664 0.7636
vt 0.4681 0.8229
vt 0.4694 0.8229
vt 0.4694 0.7636
vt 0.4681 0.7636
vt 0.4681 0.8837
vt 0.4694 0.8837
vt 0.4694 0.8600
vt 0.4681 0.8600
vt 0.3664 0.8837
vt 0.3676 0.8837
vt 0.3676 0.8600
vt 0.3664 0.8600
vt 0.4787 0.8771
vt 0.3850 0.8771
vt 0.3850 0.8406
vt 0.4787 0.8406
vt 0.3688 0.8062
vt 0.4718 0.8062
vt 0.4718 0.6861
vt 0.3688 0.6861
vt 0.3701 0.8062
vt 0.3701 0.6861
vt 0.3701 0.7825
vt 0.4705 0.8062
vt 0.4705 0.7825
vt 0.4705 0.6861
vt 0.3701 0.7454
vt 0.4705 0.7454
vt 0.3591 0.9468
vt 0.3569 0.9468
vt 0.3577 0.9458
vt 0.3596 0.9458
vt 0.3588 0.9462
vt 0.3602 0.9462
vt 0.3588 0.9474
vt 0.3602 0.9474
vt 0.3577 0.9478
vt 0.3596 0.9478
vt 0.3725 0.9478
vt 0.3709 0.9478
vt 0.3714 0.9468
vt 0.3733 0.9468
vt 0.3701 0.9474
vt 0.3714 0.9474
vt 0.3701 0.9462
vt 0.3714 0.9462
vt 0.3709 0.9458
vt 0.3725 0.9458
vt 0.3591 0.9468
vt 0.3569 0.9468
vt 0.3577 0.9458
vt 0.3596 0.9458
vt 0.3588 0.9462
vt 0.3602 0.9462
vt 0.3588 0.9474
vt 0.3602 0.9474
vt 0.3577 0.9478
vt 0.3596 0.9478
vt 0.3725 0.9478
vt 0.3709 0.9478
vt 0.3714 0.9468
vt 0.3733 0.9468
vt 0.3701 0.9474
vt 0.3714 0.9474
vt 0.3701 0.9462
vt 0.3714 0.9462
vt 0.3709 0.9458
vt 0.3725 0.9458
vt 0.3592 0.9468
vt 0.3570 0.9468
vt 0.3577 0.9458
vt 0.3596 0.9458
vt 0.3589 0.9462
vt 0.3603 0.9462
vt 0.3589 0.9474
vt 0.3603 0.9474
vt 0.3577 0.9478
vt 0.3596 0.9478
vt 0.3726 0.9478
vt 0.3710 0.9478
vt 0.3715 0.9468
vt 0.3733 0.9468
vt 0.3702 0.9474
vt 0.3714 0.9474
vt 0.3702 0.9462
vt 0.3714 0.9462
vt 0.3710 0.9458
vt 0.3726 0.9458
vt 0.3595 0.9468
vt 0.3573 0.9468
vt 0.3581 0.9458
vt 0.3599 0.9458
vt 0.3592 0.9462
vt 0.3606 0.9462
vt 0.3592 0.9474
vt 0.3606 0.9474
vt 0.3581 0.9478
vt 0.3599 0.9478
vt 0.3729 0.9478
vt 0.3713 0.9478
vt 0.3718 0.9468
vt 0.3737 0.9468
vt 0.3705 0.9474
vt 0.3717 0.9474
vt 0.3705 0.9462
vt 0.3717 0.9462
vt 0.3713 0.9458
vt 0.3729 0.9458
vt 0.4725 0.7341
vt 0.4725 0.7341
vt 0.4779 0.7273
vt 0.4779 0.7273
vt 0.3633 0.7341
vt 0.3633 0.7341
vt 0.3571 0.7273
vt 0.3571 0.7273
vt 0.4804 0.6793
vt 0.4804 0.6793
vt 0.3595 0.6793
vt 0.3595 0.6793
vt 0.3708 0.9470
vt 0.3730 0.9470
vt 0.3723 0.9480
vt 0.3704 0.9480
vt 0.3711 0.9476
vt 0.3697 0.9476
vt 0.3711 0.9463
vt 0.3697 0.9463
vt 0.3723 0.9460
vt 0.3704 0.9460
vt 0.3574 0.9460
vt 0.3590 0.9460
vt 0.3585 0.9470
vt 0.3567 0.9470
vt 0.3598 0.9463
vt 0.3586 0.9463
vt 0.3598 0.9476
vt 0.3586 0.9476
vt 0.3590 0.9480
vt 0.3574 0.9480
vn -1.0000 0.0000 0.0000
vn 0.0000 -0.0000 1.0000
vn 0.0000 1.0000 0.0000
vn 1.0000 0.0000 0.0000
vn 0.0000 0.0000 -1.0000
vn 0.0000 -1.0000 -0.0000
vn -0.0301 0.0064 0.9995
vn -0.0289 0.0048 0.9996
vn -0.0254 -0.0000 0.9997
vn -0.0289 0.0048 -0.9996
vn -0.0301 0.0064 -0.9995
vn -0.0254 0.0000 -0.9997
vn -0.0553 0.0000 -0.9985
vn -0.0451 0.0064 -0.9990
vn -0.0433 0.0075 -0.9990
vn -0.0553 0.0000 0.9985
vn -0.0433 0.0075 0.9990
vn -0.0451 0.0064 0.9990
vn 0.9499 -0.3125 0.0000
vn 0.8278 0.5610 0.0000
vn 0.3370 0.9415 0.0000
vn 0.1350 0.3597 0.9232
vn 0.3974 0.2687 0.8774
vn -0.2350 -0.7671 0.5969
vn -0.5547 -0.3955 0.7320
vn -0.2350 -0.7671 -0.5969
vn -0.5547 -0.3955 -0.7320
vn 0.1350 0.3597 -0.9232
vn 0.3974 0.2687 -0.8774
vn 0.1192 -0.3836 -0.9158
vn 0.3934 -0.2753 -0.8772
vn 0.7922 -0.6103 0.0000
vn 0.2867 -0.9580 0.0000
vn -0.5426 0.4047 -0.7361
vn -0.2010 0.7679 -0.6082
vn -0.5426 0.4047 0.7361
vn -0.2010 0.7680 0.6081
vn 0.3934 -0.2753 0.8772
vn 0.1192 -0.3836 0.9158
vn -0.2010 0.7680 -0.6081
vn -0.5548 -0.3955 0.7320
vn 0.1192 -0.3837 -0.9158
vn 0.0000 -0.6274 0.7787
vn 0.6627 -0.5968 0.4524
vn 0.4977 -0.6432 0.5818
vn 0.0000 -0.6761 -0.7368
vn 0.9437 -0.3308 -0.0000
vn -0.8966 -0.4429 -0.0000
vn 0.8278 -0.0000 -0.5610
vn 0.3370 0.0000 -0.9415
vn 0.1350 0.9232 -0.3597
vn 0.3974 0.8774 -0.2687
vn -0.2350 0.5969 0.7671
vn -0.5547 0.7320 0.3955
vn -0.2350 -0.5969 0.7671
vn -0.5547 -0.7320 0.3955
vn 0.1350 -0.9232 -0.3597
vn 0.3974 -0.8774 -0.2687
vn 0.1192 -0.9158 0.3837
vn 0.3934 -0.8772 0.2753
vn 0.7922 -0.0000 0.6103
vn 0.2867 -0.0000 0.9580
vn -0.5426 -0.7361 -0.4047
vn -0.2010 -0.6082 -0.7679
vn -0.5426 0.7361 -0.4047
vn -0.2010 0.6081 -0.7680
vn 0.3934 0.8772 0.2753
vn 0.1192 0.9158 0.3836
usemtl None
s off
f 1/1/1 2/2/1 3/3/1 4/4/1
f 5/5/2 6/6/2 4/7/2 3/8/2
f 6/6/3 7/9/3 1/10/3 4/7/3
f 7/11/4 6/12/4 5/13/4 8/14/4
f 8/15/5 2/16/5 1/10/5 7/9/5
f 3/8/6 2/16/6 8/15/6 5/5/6
f 9/17/4 10/18/4 11/19/4 12/20/4
f 13/21/1 14/22/1 15/23/1 16/24/1
f 9/25/3 12/26/3 14/27/3 13/28/3
f 10/29/2 9/25/2 13/28/2 16/30/2
f 11/31/6 10/29/6 16/30/6 15/32/6
f 12/26/5 11/31/5 15/32/5 14/27/5
f 17/33/4 18/34/4 19/35/4 20/36/4
f 21/37/1 22/38/1 23/39/1 24/40/1
f 17/41/3 21/42/3 24/43/3 18/44/3
f 20/45/5 22/46/5 21/42/5 17/41/5
f 19/47/6 23/48/6 22/46/6 20/45/6
f 18/44/2 24/43/2 23/48/2 19/47/2
f 25/49/3 26/50/3 27/51/3 28/52/3
f 49/53/2 29/54/2 28/55/2 27/56/2
f 30/57/5 31/58/5 26/59/5 25/60/5
f 29/54/4 30/57/4 25/60/4 28/55/4
f 26/59/1 31/58/1 49/53/1 27/56/1
f 30/61/6 29/62/6 49/63/6 31/64/6
f 32/65/4 33/66/4 34/67/4 35/68/4
f 36/69/1 37/70/1 38/71/1 39/72/1
f 32/73/3 35/74/3 37/75/3 36/76/3
f 33/77/2 32/73/2 36/76/2 39/78/2
f 34/79/6 33/77/6 39/78/6 38/80/6
f 35/74/5 34/79/5 38/80/5 37/75/5
f 40/81/4 41/82/4 42/83/4 43/84/4
f 44/85/1 45/86/1 46/87/1 47/88/1
f 40/89/3 44/90/3 47/91/3 41/92/3
f 43/93/5 45/94/5 44/90/5 40/89/5
f 42/95/6 46/96/6 45/94/6 43/93/6
f 41/92/2 47/91/2 46/96/2 42/95/2
f 48/97/1 49/53/1 31/58/1 50/98/1
f 50/98/5 31/58/5 51/99/5 52/100/5
f 53/101/2 54/102/2 49/53/2 48/97/2
f 55/103/4 56/104/4 52/100/4 51/99/4
f 56/104/4 57/105/4 53/101/4 52/100/4
f 58/106/4 55/103/4 51/99/4 54/102/4
f 57/105/4 58/106/4 54/102/4 53/101/4
f 55/103/4 58/106/4 57/105/4 56/104/4
s 1
f 59/107/1 165/108/1 170/109/1 60/110/1
f 60/110/5 170/109/5 169/111/5 61/112/5
f 62/113/2 166/114/2 165/108/2 59/107/2
f 63/115/2 64/116/2 65/117/2 27/56/2
f 26/59/5 66/118/5 67/119/5 68/120/5
f 27/56/1 65/117/1 66/118/1 26/59/1
f 64/116/2 62/113/2 59/107/2 65/117/2
f 66/118/5 60/110/5 61/112/5 67/119/5
f 65/117/1 59/107/1 60/110/1 66/118/1
f 69/121/4 70/122/4 71/123/4 72/124/4
f 70/125/7 73/126/8 74/127/9 71/128/9
f 75/129/10 69/130/11 72/131/12 76/132/12
f 77/133/13 78/134/13 79/135/14 80/136/15
f 81/137/16 82/138/16 83/139/17 84/140/18
f 78/141/4 81/142/4 84/143/4 79/144/4
f 80/136/15 79/135/14 69/130/11 75/129/10
f 84/140/18 83/139/17 73/126/8 70/125/7
f 79/144/4 84/143/4 70/122/4 69/121/4
f 27/56/6 26/59/6 81/145/6 78/146/6
f 170/109/3 165/108/3 72/147/3 71/148/3
f 26/59/6 68/120/6 82/149/6 81/145/6
f 169/111/3 170/109/3 71/148/3 74/150/3
f 68/120/4 67/119/19 83/151/19 82/149/4
f 64/116/19 63/115/4 77/152/4 80/153/19
f 63/115/6 27/56/6 78/146/6 77/152/6
f 165/108/3 166/114/3 76/154/3 72/147/3
f 67/119/19 61/112/19 73/155/19 83/151/19
f 62/113/19 64/116/19 80/153/19 75/156/19
f 61/112/19 169/111/4 74/150/4 73/155/19
f 166/114/4 62/113/19 75/156/19 76/154/4
f 85/157/20 86/158/21 87/159/22 88/160/23
f 88/160/23 87/159/22 89/161/24 90/162/25
f 90/162/25 89/161/24 91/163/26 92/164/27
f 92/164/27 91/163/26 93/165/28 94/166/29
f 94/166/29 93/165/28 86/158/21 85/157/20
f 95/167/30 96/168/31 97/169/32 98/170/33
f 92/164/27 94/166/29 96/168/31 99/171/34
f 100/172/35 99/171/34 96/168/31 95/167/30
f 90/162/25 92/164/27 99/171/34 101/173/36
f 102/174/37 101/173/36 99/171/34 100/172/35
f 88/160/23 90/162/25 101/173/36 103/175/38
f 104/176/39 103/175/38 101/173/36 102/174/37
f 97/169/32 85/157/20 88/160/23 103/175/38
f 98/170/33 97/169/32 103/175/38 104/176/39
f 94/166/29 85/157/20 97/169/32 96/168/31
f 105/177/20 106/178/21 107/179/22 108/180/23
f 108/180/23 107/179/22 109/181/24 110/182/25
f 110/182/25 109/181/24 111/183/26 112/184/27
f 112/184/27 111/183/26 113/185/28 114/186/29
f 114/186/29 113/185/28 106/178/21 105/177/20
f 115/187/30 116/188/31 117/189/32 118/190/33
f 112/184/27 114/186/29 116/188/31 119/191/34
f 120/192/40 119/191/34 116/188/31 115/187/30
f 110/182/25 112/184/27 119/191/34 121/193/36
f 122/194/37 121/193/36 119/191/34 120/192/40
f 108/180/23 110/182/25 121/193/36 123/195/38
f 124/196/39 123/195/38 121/193/36 122/194/37
f 117/189/32 105/177/20 108/180/23 123/195/38
f 118/190/33 117/189/32 123/195/38 124/196/39
f 114/186/29 105/177/20 117/189/32 116/188/31
f 125/197/20 126/198/21 127/199/22 128/200/23
f 128/200/23 127/199/22 129/201/24 130/202/41
f 130/202/41 129/201/24 131/203/26 132/204/27
f 132/204/27 131/203/26 133/205/28 134/206/29
f 134/206/29 133/205/28 126/198/21 125/197/20
f 135/207/30 136/208/31 137/209/32 138/210/33
f 132/204/27 134/206/29 136/208/31 139/211/34
f 140/212/40 139/211/34 136/208/31 135/207/30
f 130/202/41 132/204/27 139/211/34 141/213/36
f 142/214/37 141/213/36 139/211/34 140/212/40
f 128/200/23 130/202/41 141/213/36 143/215/38
f 144/216/39 143/215/38 141/213/36 142/214/37
f 137/209/32 125/197/20 128/200/23 143/215/38
f 138/210/33 137/209/32 143/215/38 144/216/39
f 134/206/29 125/197/20 137/209/32 136/208/31
f 145/217/20 146/218/21 147/219/22 148/220/23
f 148/220/23 147/219/22 149/221/24 150/222/25
f 150/222/25 149/221/24 151/223/26 152/224/27
f 152/224/27 151/223/26 153/225/28 154/226/29
f 154/226/29 153/225/28 146/218/21 145/217/20
f 155/227/42 156/228/31 157/229/32 158/230/33
f 152/224/27 154/226/29 156/228/31 159/231/34
f 160/232/35 159/231/34 156/228/31 155/227/42
f 150/222/25 152/224/27 159/231/34 161/233/36
f 162/234/37 161/233/36 159/231/34 160/232/35
f 148/220/23 150/222/25 161/233/36 163/235/38
f 164/236/39 163/235/38 161/233/36 162/234/37
f 157/229/32 145/217/20 148/220/23 163/235/38
f 158/230/33 157/229/32 163/235/38 164/236/39
f 154/226/29 145/217/20 157/229/32 156/228/31
f 165/237/43 166/238/44 167/239/45 168/240/43
f 169/241/46 170/242/46 171/243/46 172/244/46
f 166/238/44 169/241/47 172/244/47 167/239/45
f 170/242/48 165/237/48 168/240/48 171/243/48
f 168/245/3 167/246/3 172/247/3 171/248/3
f 173/249/49 174/250/50 175/251/51 176/252/52
f 176/252/52 175/251/51 177/253/53 178/254/54
f 178/254/54 177/253/53 179/255/55 180/256/56
f 180/256/56 179/255/55 181/257/57 182/258/58
f 182/258/58 181/257/57 174/250/50 173/249/49
f 183/259/59 184/260/60 185/261/61 186/262/62
f 180/256/56 182/258/58 184/260/60 187/263/63
f 188/264/64 187/263/63 184/260/60 183/259/59
f 178/254/54 180/256/56 187/263/63 189/265/65
f 190/266/66 189/265/65 187/263/63 188/264/64
f 176/252/52 178/254/54 189/265/65 191/267/67
f 192/268/68 191/267/67 189/265/65 190/266/66
f 185/261/61 173/249/49 176/252/52 191/267/67
f 186/262/62 185/261/61 191/267/67 192/268/68
f 182/258/58 173/249/49 185/261/61 184/260/60
f 165/108/6 170/109/6 169/111/6 166/114/6
