# Blender v2.78 (sub 0) OBJ File: 'Küche_UVbearbeiten.blend'
# www.blender.org
mtllib mod_Kuechenzeile.mtl
g Kuechenzeile.001
v 1.191099 1.482800 -1.080847
v 1.191099 1.762299 -1.080847
v 1.251099 1.762299 -1.080847
v 1.251099 1.482800 -1.080847
v 1.251099 1.762299 -0.007276
v 1.251099 1.482800 -0.007276
v 1.191099 1.762299 -0.007276
v 1.191099 1.482800 -0.007276
v 1.243560 0.329570 -0.229797
v 1.243560 0.329570 -0.858326
v 1.183560 0.329570 -0.858326
v 1.183560 0.329570 -0.229797
v 1.203560 0.107049 -0.007276
v 1.203560 0.107049 -1.080847
v 1.243560 0.107049 -1.080847
v 1.243560 0.107049 -0.007276
v 1.203560 1.457778 -1.080847
v 1.203560 1.457778 -0.007276
v 1.243560 1.457778 -0.007276
v 1.243560 1.457778 -1.080847
v 1.243560 1.235258 -0.229797
v 1.243560 1.235258 -0.858326
v 1.183560 1.235258 -0.229797
v 1.183560 1.235258 -0.858326
v 0.000000 0.000000 -1.090324
v 0.000000 1.786887 -1.090324
v 1.199092 1.786887 -1.090324
v 1.199092 0.000000 -1.090324
v 1.199092 0.000000 0.000000
v 1.199092 1.786887 0.000000
v 0.000000 1.786887 0.000000
v 0.000000 0.000000 0.000000
v 0.000000 1.776305 -1.090324
v 0.000000 1.890000 -1.090324
v 1.318957 1.890000 -1.090324
v 1.318957 1.776305 -1.090324
v 0.000000 1.776305 0.000000
v 0.000000 1.890000 0.000000
v 1.318957 1.776305 0.000000
v 1.318957 1.890000 0.000000
v 1.253935 1.622549 -0.606161
v 1.253935 1.669124 -0.590636
v 1.288435 1.657049 -0.578561
v 1.300509 1.622549 -0.590636
v 1.288435 1.588050 -0.578561
v 1.253935 1.575975 -0.590636
v 1.316034 1.622549 -0.544061
v 1.300509 1.575975 -0.544061
v 1.300509 1.669124 -0.544061
v 1.288435 1.657049 -0.509562
v 1.300509 1.622549 -0.497487
v 1.288435 1.588050 -0.509562
v 1.253935 1.622549 -0.481962
v 1.253935 1.575975 -0.497487
v 1.253935 1.669124 -0.497487
v 1.253935 1.560450 -0.544061
v 1.253935 1.684649 -0.544061
v 1.239908 0.798651 -1.046756
v 1.239908 0.845225 -1.031231
v 1.274408 0.833150 -1.019156
v 1.286483 0.798651 -1.031231
v 1.274408 0.764151 -1.019156
v 1.239908 0.752076 -1.031231
v 1.302008 0.798651 -0.984657
v 1.286483 0.752076 -0.984657
v 1.286483 0.845225 -0.984657
v 1.274408 0.833150 -0.950157
v 1.286483 0.798651 -0.938082
v 1.274408 0.764151 -0.950157
v 1.239908 0.798651 -0.922558
v 1.239908 0.752076 -0.938082
v 1.239908 0.845225 -0.938082
v 1.239908 0.736552 -0.984657
v 1.239908 0.860750 -0.984657
vt 0.0405 0.5085
vt 0.0405 0.4776
vt 0.0405 0.4776
vt 0.0405 0.5085
vt 0.0366 0.4011
vt 0.0366 0.3702
vt 0.1341 0.3702
vt 0.1341 0.4011
vt 0.1380 0.5085
vt 0.1380 0.4776
vt 0.1380 0.4776
vt 0.1380 0.5085
vt 0.1119 0.5658
vt 0.0549 0.5658
vt 0.0549 0.5658
vt 0.1119 0.5658
vt 0.1380 0.6607
vt 0.0405 0.6607
vt 0.0405 0.6607
vt 0.1380 0.6607
vt 0.0405 0.5113
vt 0.1380 0.5113
vt 0.1380 0.5113
vt 0.0405 0.5113
vt 0.1139 0.4285
vt 0.0568 0.4285
vt 0.0366 0.4039
vt 0.1341 0.4039
vt 0.1139 0.5286
vt 0.1341 0.5533
vt 0.0568 0.5286
vt 0.0366 0.5533
vt 0.0549 0.4656
vt 0.1119 0.4656
vt 0.1119 0.4656
vt 0.0549 0.4656
vt 0.0338 0.6335
vt 0.0338 0.4046
vt 0.0338 0.4046
vt 0.0338 0.6335
vt 0.1328 0.6335
vt 0.1328 0.4046
vt 0.1328 0.4046
vt 0.1328 0.6335
vt 0.7059 0.2728
vt 0.7059 0.2602
vt 0.7059 0.2602
vt 0.7059 0.2728
vt 0.8049 0.2728
vt 0.8049 0.2602
vt 0.8049 0.2728
vt 0.8049 0.2602
vt 0.0819 0.4753
vt 0.0833 0.4702
vt 0.0844 0.4715
vt 0.0833 0.4753
vt 0.0844 0.4791
vt 0.0833 0.4805
vt 0.0875 0.4753
vt 0.0875 0.4805
vt 0.0875 0.4702
vt 0.0906 0.4715
vt 0.0917 0.4753
vt 0.0906 0.4791
vt 0.0931 0.4753
vt 0.0917 0.4805
vt 0.0917 0.4702
vt 0.0875 0.4822
vt 0.0875 0.4685
vt 0.0419 0.5665
vt 0.0433 0.5613
vt 0.0444 0.5626
vt 0.0433 0.5665
vt 0.0444 0.5703
vt 0.0433 0.5716
vt 0.0475 0.5665
vt 0.0475 0.5716
vt 0.0475 0.5613
vt 0.0506 0.5626
vt 0.0517 0.5665
vt 0.0506 0.5703
vt 0.0531 0.5665
vt 0.0517 0.5716
vt 0.0517 0.5613
vt 0.0475 0.5733
vt 0.0475 0.5596
vn 0.0000 0.0000 -1.0000
vn 1.0000 0.0000 0.0000
vn 0.0000 -0.0000 1.0000
vn 0.0000 -1.0000 -0.0000
vn 0.0000 1.0000 0.0000
vn -1.0000 0.0000 0.0000
vn 0.3714 -0.0000 -0.9285
vn 0.3746 0.6556 -0.6556
vn 0.5774 0.5773 -0.5773
vn 0.7071 -0.0000 -0.7071
vn 0.5774 -0.5773 -0.5773
vn 0.3746 -0.6556 -0.6556
vn 0.7071 -0.7071 0.0000
vn 0.7071 0.7071 0.0000
vn 0.5774 0.5773 0.5773
vn 0.7071 -0.0000 0.7071
vn 0.5774 -0.5773 0.5773
vn 0.3714 -0.0000 0.9285
vn 0.3746 -0.6556 0.6556
vn 0.3746 0.6556 0.6556
vn 0.3714 -0.9285 0.0000
vn 0.3714 0.9285 0.0000
vn 0.5773 0.5774 -0.5774
vn 0.5773 -0.5774 -0.5774
vn 0.5773 0.5774 0.5774
vn 0.5773 -0.5774 0.5774
usemtl None
s off
f 1/1/1 2/2/1 3/3/1 4/4/1
f 4/5/2 3/6/2 5/7/2 6/8/2
f 6/9/3 5/10/3 7/11/3 8/12/3
f 1/1/4 4/4/4 6/9/4 8/12/4
f 3/3/5 2/2/5 7/11/5 5/10/5
f 9/13/5 10/14/5 11/15/5 12/16/5
f 13/17/4 14/18/4 15/19/4 16/20/4
f 17/21/5 18/22/5 19/23/5 20/24/5
f 14/18/1 17/21/1 20/24/1 15/19/1
f 18/22/3 13/17/3 16/20/3 19/23/3
f 21/25/2 22/26/2 20/27/2 19/28/2
f 9/29/2 21/25/2 19/28/2 16/30/2
f 10/31/2 9/29/2 16/30/2 15/32/2
f 22/26/2 10/31/2 15/32/2 20/27/2
f 22/33/4 21/34/4 23/35/4 24/36/4
f 10/14/3 22/33/3 24/36/3 11/15/3
f 21/34/1 9/13/1 12/16/1 23/35/1
f 25/37/1 26/38/1 27/39/1 28/40/1
f 29/41/3 30/42/3 31/43/3 32/44/3
f 28/40/4 29/41/4 32/44/4 25/37/4
f 31/43/6 26/38/6 25/37/6 32/44/6
f 29/41/2 28/40/2 27/39/2 30/42/2
s 1
f 33/45/1 34/46/1 35/47/1 36/48/1
f 37/49/6 38/50/6 34/46/6 33/45/6
f 39/51/3 40/52/3 38/50/3 37/49/3
f 35/47/5 34/46/5 38/50/5 40/52/5
f 36/48/2 35/47/2 40/52/2 39/51/2
f 41/53/7 42/54/8 43/55/9 44/56/10
f 41/53/7 44/56/10 45/57/11 46/58/12
f 47/59/2 48/60/13 45/57/11 44/56/10
f 47/59/2 44/56/10 43/55/9 49/61/14
f 47/59/2 49/61/14 50/62/15 51/63/16
f 47/59/2 51/63/16 52/64/17 48/60/13
f 53/65/18 54/66/19 52/64/17 51/63/16
f 53/65/18 51/63/16 50/62/15 55/67/20
f 56/68/21 46/58/12 45/57/11 48/60/13
f 56/68/21 48/60/13 52/64/17 54/66/19
f 57/69/22 49/61/14 43/55/9 42/54/8
f 57/69/22 55/67/20 50/62/15 49/61/14
f 58/70/7 59/71/8 60/72/23 61/73/10
f 58/70/7 61/73/10 62/74/24 63/75/12
f 64/76/2 65/77/13 62/74/24 61/73/10
f 64/76/2 61/73/10 60/72/23 66/78/14
f 64/76/2 66/78/14 67/79/25 68/80/16
f 64/76/2 68/80/16 69/81/26 65/77/13
f 70/82/18 71/83/19 69/81/26 68/80/16
f 70/82/18 68/80/16 67/79/25 72/84/20
f 73/85/21 63/75/12 62/74/24 65/77/13
f 73/85/21 65/77/13 69/81/26 71/83/19
f 74/86/22 66/78/14 60/72/23 59/71/8
f 74/86/22 72/84/20 67/79/25 66/78/14
