# Blender v2.79 (sub 0) OBJ File: 'mod_Kuehlschrank.blend'
# www.blender.org
g Kuehlschrank
v 0.000000 3.002491 0.000000
v 0.000000 3.002491 -1.302281
v 0.000000 0.179582 0.000000
v 0.000000 0.179582 -1.302281
v 0.029138 0.000000 -1.269289
v 0.029138 0.000000 -0.032991
v 0.029138 0.179582 -1.269289
v 1.041057 3.002491 -0.434094
v 1.041057 3.002491 -0.868187
v 0.029138 0.179582 -0.032991
v 0.000000 3.002491 -0.434094
v 0.000000 3.002491 -0.868187
v 1.222914 3.002491 -0.868187
v 1.222914 3.002491 -0.434094
v 1.222914 0.179582 -0.868187
v 1.222914 0.179582 -0.434094
v 0.000000 0.179582 -0.434094
v 0.000000 0.179582 -0.868187
v 0.029138 0.000000 -0.857190
v 0.029138 0.000000 -0.445091
v 1.193776 0.000000 -0.445091
v 1.193776 0.000000 -0.857190
v 1.193776 0.179582 -0.857190
v 1.193776 0.179582 -0.445091
v 0.029138 0.179582 -0.445091
v 0.029138 0.179582 -0.857190
v 1.041057 3.002491 0.000000
v 1.168190 3.002491 -0.114028
v 1.168190 3.002491 -1.188253
v 1.041057 3.002491 -1.302281
v 1.168190 0.179582 -1.188253
v 1.041057 0.179582 -1.302281
v 1.168190 0.179582 -0.114028
v 1.041057 0.179582 0.000000
v 1.011919 0.000000 -1.269289
v 1.139917 0.000000 -1.156240
v 1.011919 0.179582 -1.269289
v 1.139917 0.179582 -1.156240
v 1.139917 0.000000 -0.146040
v 1.011919 0.000000 -0.032991
v 1.011919 0.179582 -0.032991
v 1.139917 0.179582 -0.146040
v 1.265965 0.572000 -0.194900
v 1.265965 0.793754 -0.194900
v 1.255297 0.574290 -0.226114
v 1.255297 0.792743 -0.226114
v 1.307577 0.572000 -0.194900
v 1.307577 0.793754 -0.194900
v 1.318246 0.574290 -0.226114
v 1.318246 0.792743 -0.226114
v 1.297263 0.593549 -0.266691
v 1.276280 0.593549 -0.266691
v 1.276280 0.774366 -0.266691
v 1.297263 0.774366 -0.266691
v 1.276280 0.572000 -0.194900
v 1.297263 0.572000 -0.194900
v 1.297263 0.793754 -0.194900
v 1.276280 0.793754 -0.194900
v 1.255297 0.560049 -0.202227
v 1.255297 0.805705 -0.202227
v 1.318246 0.805705 -0.202227
v 1.318246 0.560049 -0.202227
v 1.297263 0.560049 -0.202227
v 1.276280 0.805705 -0.202227
v 1.276280 0.560049 -0.202227
v 1.297263 0.805705 -0.202227
v 1.255297 0.621463 -0.202227
v 1.255297 0.682877 -0.202227
v 1.255297 0.744291 -0.202227
v 1.255297 0.744291 -0.248225
v 1.255297 0.682877 -0.258090
v 1.255297 0.621463 -0.248225
v 1.318246 0.744291 -0.248225
v 1.318246 0.682877 -0.258090
v 1.318246 0.621463 -0.248225
v 1.318246 0.744291 -0.202227
v 1.318246 0.682877 -0.202227
v 1.318246 0.621463 -0.202227
v 1.276280 0.744291 -0.288532
v 1.276280 0.682877 -0.299380
v 1.276280 0.621463 -0.288532
v 1.297263 0.744291 -0.288532
v 1.297263 0.682877 -0.299380
v 1.297263 0.621463 -0.288532
v 1.265965 0.627439 -0.194900
v 1.265965 0.682877 -0.194900
v 1.265965 0.738315 -0.194900
v 1.307577 0.738315 -0.194900
v 1.307577 0.682877 -0.194900
v 1.307577 0.627439 -0.194900
v 1.265965 1.771490 -0.194900
v 1.265965 1.993243 -0.194900
v 1.255297 1.773780 -0.226114
v 1.255297 1.992232 -0.226114
v 1.307577 1.771490 -0.194900
v 1.307577 1.993243 -0.194900
v 1.318246 1.773780 -0.226114
v 1.318246 1.992232 -0.226114
v 1.297263 1.793038 -0.266691
v 1.276280 1.793038 -0.266691
v 1.276280 1.973856 -0.266691
v 1.297263 1.973856 -0.266691
v 1.276280 1.771490 -0.194900
v 1.297263 1.771490 -0.194900
v 1.297263 1.993243 -0.194900
v 1.276280 1.993243 -0.194900
v 1.255297 1.759539 -0.202227
v 1.255297 2.005194 -0.202227
v 1.318246 2.005194 -0.202227
v 1.318246 1.759539 -0.202227
v 1.297263 1.759539 -0.202227
v 1.276280 2.005194 -0.202227
v 1.276280 1.759539 -0.202227
v 1.297263 2.005194 -0.202227
v 1.255297 1.820953 -0.202227
v 1.255297 1.882367 -0.202227
v 1.255297 1.943780 -0.202227
v 1.255297 1.943780 -0.248225
v 1.255297 1.882367 -0.258090
v 1.255297 1.820953 -0.248225
v 1.318246 1.943780 -0.248225
v 1.318246 1.882367 -0.258090
v 1.318246 1.820953 -0.248225
v 1.318246 1.943780 -0.202227
v 1.318246 1.882367 -0.202227
v 1.318246 1.820953 -0.202227
v 1.276280 1.943780 -0.288532
v 1.276280 1.882367 -0.299380
v 1.276280 1.820953 -0.288532
v 1.297263 1.943780 -0.288532
v 1.297263 1.882367 -0.299380
v 1.297263 1.820953 -0.288532
v 1.265965 1.826928 -0.194900
v 1.265965 1.882367 -0.194900
v 1.265965 1.937805 -0.194900
v 1.307577 1.937805 -0.194900
v 1.307577 1.882367 -0.194900
v 1.307577 1.826928 -0.194900
v 1.291655 1.007147 -0.856732
v 1.291655 1.007147 -0.425784
v 1.291655 0.245547 -0.856732
v 1.291655 0.245547 -0.425784
v 1.229662 1.007147 -0.108037
v 1.229662 1.007147 -1.174478
v 1.229662 0.245547 -1.174478
v 1.229662 0.245547 -0.108037
v 1.201330 1.007147 -0.856732
v 1.201330 1.007147 -0.425784
v 1.201330 0.245547 -0.856732
v 1.201330 0.245547 -0.425784
v 1.139336 1.007147 -0.108037
v 1.139336 1.007147 -1.174478
v 1.139336 0.245547 -1.174478
v 1.139336 0.245547 -0.108037
v 1.291655 2.917524 -0.856732
v 1.291655 2.917524 -0.425784
v 1.291655 1.053947 -0.856732
v 1.291655 1.053947 -0.425784
v 1.229662 2.917524 -0.108037
v 1.229662 2.917524 -1.174478
v 1.229662 1.053947 -1.174478
v 1.229662 1.053947 -0.108037
v 1.201330 2.917524 -0.856732
v 1.201330 2.917524 -0.425784
v 1.201330 1.053947 -0.856732
v 1.201330 1.053947 -0.425784
v 1.139336 2.917524 -0.108037
v 1.139336 2.917524 -1.174478
v 1.139336 1.053947 -1.174478
v 1.139336 1.053947 -0.108037
vn -1.0000 0.0000 0.0000
vn 0.8754 -0.0000 -0.4834
vn 0.9964 0.0000 -0.0846
vn 0.0000 1.0000 0.0000
vn 0.3575 0.0000 0.9339
vn 0.0000 0.0000 1.0000
vn 0.0000 0.0000 -1.0000
vn 0.3575 -0.0000 -0.9339
vn 0.3539 0.0000 -0.9353
vn 0.0000 -1.0000 0.0000
vn 0.9960 -0.0000 0.0890
vn 0.8714 0.0000 0.4906
vn 0.8714 0.0000 -0.4906
vn 0.9960 0.0000 -0.0890
vn 0.3539 0.0000 0.9353
vn 0.9964 0.0000 0.0846
vn 0.8754 0.0000 0.4834
vn -0.9896 0.0704 -0.1257
vn -0.9574 0.1075 -0.2679
vn 0.8687 0.1514 -0.4716
vn 0.8265 0.2750 -0.4913
vn 0.9896 0.0704 -0.1257
vn 0.9574 0.1075 -0.2679
vn 1.0000 0.0000 0.0000
vn 0.0070 -0.7847 -0.6198
vn 0.0558 -0.8784 -0.4746
vn 0.0279 -0.8832 -0.4681
vn -0.0053 0.7848 -0.6197
vn -0.0419 0.8931 -0.4478
vn -0.0210 0.8965 -0.4426
vn 0.0419 0.8931 -0.4478
vn 0.0053 0.7848 -0.6197
vn 0.0210 0.8965 -0.4426
vn -0.0558 -0.8784 -0.4746
vn -0.0070 -0.7847 -0.6198
vn -0.0279 -0.8832 -0.4681
vn -0.8265 0.2750 -0.4913
vn -0.8687 0.1514 -0.4716
vn 0.0000 0.3908 -0.9205
vn -0.5661 0.0000 0.8243
vn -0.3132 0.2773 0.9083
vn -0.2900 0.2986 0.9093
vn 0.5661 0.0000 0.8243
vn 0.0000 -0.5226 0.8526
vn 0.0000 0.5226 0.8526
vn -0.3132 -0.2773 0.9083
vn -0.2900 -0.2986 0.9093
vn 0.3132 0.2773 0.9083
vn 0.2900 0.2986 0.9093
vn 0.0000 -0.4072 -0.9133
vn -0.9900 -0.0713 -0.1218
vn -0.9562 -0.1127 -0.2700
vn -0.8674 -0.1554 -0.4728
vn -0.8198 -0.2893 -0.4942
vn -0.9663 0.0000 -0.2576
vn -0.8893 0.0000 -0.4574
vn 0.9900 -0.0713 -0.1218
vn 0.9562 -0.1127 -0.2700
vn 0.9663 0.0000 -0.2576
vn 0.8198 -0.2893 -0.4942
vn 0.8674 -0.1554 -0.4728
vn 0.8893 0.0000 -0.4574
vn 0.9815 0.0000 -0.1915
vn 0.9954 0.0000 -0.0962
vn 0.9954 -0.0000 0.0962
vn 0.9815 -0.0000 0.1915
s 1
f 18//1 12//1 2//1 4//1
f 31//2 29//2 13//3 15//3
f 9//4 13//4 29//4 30//4
f 34//5 27//5 1//6 3//6
f 4//7 2//7 30//8 32//8
f 5//7 7//7 37//9 35//9
f 18//10 4//10 7//10 26//10
f 12//4 9//4 30//4 2//4
f 21//11 24//11 42//12 39//12
f 36//13 38//13 23//14 22//14
f 19//1 26//1 7//1 5//1
f 31//10 15//10 23//10 38//10
f 34//10 3//10 10//10 41//10
f 16//10 33//10 42//10 24//10
f 15//10 16//10 24//10 23//10
f 6//1 10//1 25//1 20//1
f 20//1 25//1 26//1 19//1
f 40//15 41//15 10//6 6//6
f 22//14 23//14 24//11 21//11
f 3//10 17//10 25//10 10//10
f 17//10 18//10 26//10 25//10
f 16//16 14//16 28//17 33//17
f 8//4 14//4 13//4 9//4
f 4//10 32//10 37//10 7//10
f 15//3 13//3 14//16 16//16
f 3//1 1//1 11//1 17//1
f 17//1 11//1 12//1 18//1
f 42//10 33//10 34//10 41//10
f 29//2 31//2 32//8 30//8
f 27//5 34//5 33//17 28//17
f 38//13 36//13 35//9 37//9
f 41//15 40//15 39//12 42//12
f 31//10 38//10 37//10 32//10
f 27//4 28//4 14//4 8//4
f 1//4 27//4 8//4 11//4
f 11//4 8//4 9//4 12//4
f 69//1 60//1 46//18 70//19
f 82//20 54//21 50//22 73//23
f 73//23 50//22 61//24 76//24
f 51//25 49//26 62//26 63//27
f 53//28 46//29 60//29 64//30
f 50//31 54//32 66//33 61//31
f 54//32 53//28 64//30 66//33
f 45//34 52//35 65//36 59//34
f 52//35 51//25 63//27 65//36
f 70//19 46//18 53//37 79//38
f 79//39 53//28 54//32 82//39
f 87//40 44//41 60//42 69//40
f 90//43 47//43 62//43 78//43
f 47//44 56//44 63//44 62//44
f 44//41 58//45 64//45 60//42
f 55//44 43//46 59//47 65//44
f 56//44 55//44 65//44 63//44
f 57//45 48//48 61//49 66//45
f 58//45 57//45 66//45 64//45
f 48//48 88//43 76//43 61//49
f 88//43 89//43 77//43 76//43
f 89//43 90//43 78//43 77//43
f 43//46 85//40 67//40 59//47
f 85//40 86//40 68//40 67//40
f 86//40 87//40 69//40 68//40
f 52//35 81//50 84//50 51//25
f 81//50 80//7 83//7 84//50
f 80//7 79//39 82//39 83//7
f 45//51 72//52 81//53 52//54
f 72//52 71//55 80//56 81//53
f 71//55 70//19 79//38 80//56
f 49//57 75//58 78//24 62//24
f 75//58 74//59 77//24 78//24
f 74//59 73//23 76//24 77//24
f 51//60 84//61 75//58 49//57
f 84//61 83//62 74//59 75//58
f 83//62 82//20 73//23 74//59
f 59//1 67//1 72//52 45//51
f 67//1 68//1 71//55 72//52
f 68//1 69//1 70//19 71//55
f 117//1 108//1 94//18 118//19
f 130//20 102//21 98//22 121//23
f 121//23 98//22 109//24 124//24
f 99//25 97//26 110//26 111//27
f 101//28 94//29 108//29 112//30
f 98//31 102//32 114//33 109//31
f 102//32 101//28 112//30 114//33
f 93//34 100//35 113//36 107//34
f 100//35 99//25 111//27 113//36
f 118//19 94//18 101//37 127//38
f 127//39 101//28 102//32 130//39
f 135//40 92//41 108//42 117//40
f 138//43 95//43 110//43 126//43
f 95//44 104//44 111//44 110//44
f 92//41 106//45 112//45 108//42
f 103//44 91//46 107//47 113//44
f 104//44 103//44 113//44 111//44
f 105//45 96//48 109//49 114//45
f 106//45 105//45 114//45 112//45
f 96//48 136//43 124//43 109//49
f 136//43 137//43 125//43 124//43
f 137//43 138//43 126//43 125//43
f 91//46 133//40 115//40 107//47
f 133//40 134//40 116//40 115//40
f 134//40 135//40 117//40 116//40
f 100//35 129//50 132//50 99//25
f 129//50 128//7 131//7 132//50
f 128//7 127//39 130//39 131//7
f 93//51 120//52 129//53 100//54
f 120//52 119//55 128//56 129//53
f 119//55 118//19 127//38 128//56
f 97//57 123//58 126//24 110//24
f 123//58 122//59 125//24 126//24
f 122//59 121//23 124//24 125//24
f 99//60 132//61 123//58 97//57
f 132//61 131//62 122//59 123//58
f 131//62 130//20 121//23 122//59
f 107//1 115//1 120//52 93//51
f 115//1 116//1 119//55 120//52
f 116//1 117//1 118//19 119//55
f 145//63 144//63 139//64 141//64
f 142//65 140//65 143//66 146//66
f 141//64 139//64 140//65 142//65
f 141//10 142//10 150//10 149//10
f 145//10 141//10 149//10 153//10
f 143//4 140//4 148//4 151//4
f 142//10 146//10 154//10 150//10
f 140//4 139//4 147//4 148//4
f 139//4 144//4 152//4 147//4
f 144//7 145//7 153//7 152//7
f 143//6 151//6 154//6 146//6
f 161//63 160//63 155//64 157//64
f 158//65 156//65 159//66 162//66
f 157//64 155//64 156//65 158//65
f 157//10 158//10 166//10 165//10
f 161//10 157//10 165//10 169//10
f 159//4 156//4 164//4 167//4
f 158//10 162//10 170//10 166//10
f 156//4 155//4 163//4 164//4
f 155//4 160//4 168//4 163//4
f 160//7 161//7 169//7 168//7
f 159//6 167//6 170//6 162//6
