# Blender v2.79 (sub 0) OBJ File: 'mod_Kuechentisch.blend'
# www.blender.org
mtllib mod_Kuechentisch.mtl
o Tischplatte_Cube
v -0.450000 0.762000 0.500000
v -0.450000 0.798000 0.500000
v -0.450000 0.762000 -0.500000
v -0.450000 0.798000 -0.500000
v 0.450000 0.762000 0.500000
v 0.450000 0.798000 0.500000
v 0.450000 0.762000 -0.500000
v 0.450000 0.798000 -0.500000
vn -1.0000 0.0000 0.0000
vn 0.0000 0.0000 -1.0000
vn 1.0000 0.0000 0.0000
vn 0.0000 0.0000 1.0000
vn 0.0000 -1.0000 0.0000
vn 0.0000 1.0000 0.0000
usemtl None
s off
f 1//1 2//1 4//1 3//1
f 3//2 4//2 8//2 7//2
f 7//3 8//3 6//3 5//3
f 5//4 6//4 2//4 1//4
f 3//5 7//5 5//5 1//5
f 8//6 4//6 2//6 6//6
o Plattenunterbau_Cube.001
v -0.388933 0.641673 0.415661
v -0.388933 0.777483 0.415661
v -0.388933 0.641673 -0.415661
v -0.388933 0.777483 -0.415661
v 0.388933 0.641673 0.415661
v 0.388933 0.777483 0.415661
v 0.388933 0.641673 -0.415661
v 0.388933 0.777483 -0.415661
vn 0.0000 0.0000 -1.0000
vn 0.0000 0.0000 1.0000
vn 0.0000 -1.0000 0.0000
vn 1.0000 0.0000 0.0000
vn -1.0000 0.0000 0.0000
usemtl None
s off
f 11//7 12//7 16//7 15//7
f 13//8 14//8 10//8 9//8
f 15//9 13//9 9//9 11//9
f 16//10 14//10 13//10 15//10
f 10//11 12//11 11//11 9//11
o Schublade_Cube.002
v 0.388933 0.641672 0.198298
v 0.388933 0.641672 -0.198298
v 0.388933 0.777483 -0.198298
v 0.388933 0.777483 0.198298
v 0.407076 0.641672 0.198298
v 0.407076 0.641672 -0.198298
v 0.407076 0.777483 -0.198298
v 0.407076 0.777483 0.198298
vn 0.0000 0.0000 -1.0000
vn 1.0000 0.0000 0.0000
vn 0.0000 0.0000 1.0000
vn 0.0000 1.0000 0.0000
vn 0.0000 -1.0000 0.0000
usemtl None
s off
f 18//12 19//12 23//12 22//12
f 22//13 23//13 24//13 21//13
f 20//14 17//14 21//14 24//14
f 19//15 20//15 24//15 23//15
f 17//16 18//16 22//16 21//16
o Schubladengriff_Cube.003
v 0.405415 0.709578 -0.025744
v 0.440165 0.709578 0.000000
v 0.405415 0.709578 0.025744
v 0.405415 0.683834 0.000000
v 0.405415 0.735322 0.000000
v 0.405415 0.690270 -0.019308
v 0.405415 0.728886 -0.019308
v 0.434581 0.709578 -0.016752
v 0.434581 0.692825 0.000000
v 0.434581 0.726330 0.000000
v 0.434581 0.709578 0.016752
v 0.405415 0.690270 0.019308
v 0.405415 0.728886 0.019308
v 0.430238 0.697169 0.012409
v 0.430238 0.721987 0.012409
v 0.430238 0.697169 -0.012409
v 0.430238 0.721987 -0.012409
vn 0.3251 0.0000 -0.9457
vn 0.3308 0.6673 -0.6673
vn 0.5541 0.5886 -0.5886
vn 0.6902 0.0000 -0.7236
vn 0.5541 -0.5886 -0.5886
vn 0.3308 -0.6673 -0.6673
vn 1.0000 0.0000 0.0000
vn 0.6902 -0.7236 0.0000
vn 0.6902 0.7236 0.0000
vn 0.5541 0.5886 0.5886
vn 0.6902 0.0000 0.7236
vn 0.5541 -0.5886 0.5886
vn 0.3251 0.0000 0.9457
vn 0.3308 -0.6673 0.6673
vn 0.3308 0.6673 0.6673
vn 0.3251 -0.9457 0.0000
vn 0.3251 0.9457 0.0000
usemtl None
s 1
f 25//17 31//18 41//19 32//20
f 25//17 32//20 40//21 30//22
f 26//23 33//24 40//21 32//20
f 26//23 32//20 41//19 34//25
f 26//23 34//25 39//26 35//27
f 26//23 35//27 38//28 33//24
f 27//29 36//30 38//28 35//27
f 27//29 35//27 39//26 37//31
f 28//32 30//22 40//21 33//24
f 28//32 33//24 38//28 36//30
f 29//33 34//25 41//19 31//18
f 29//33 37//31 39//26 34//25
o Tischbein
v 0.357500 0.000000 0.442500
v 0.357500 0.760000 0.442500
v 0.400000 0.000000 0.420000
v 0.422500 0.000000 0.442500
v 0.422500 0.760000 0.442500
v 0.422500 0.000000 0.377500
v 0.422500 0.760000 0.377500
v 0.400000 0.000000 0.377500
v 0.400000 0.760000 0.377500
v 0.357500 0.000000 0.420000
v 0.357500 0.760000 0.420000
v 0.400000 0.760000 0.420000
v -0.357500 0.000000 0.442500
v -0.357500 0.760000 0.442500
v -0.400000 0.000000 0.420000
v -0.422500 0.000000 0.442500
v -0.422500 0.760000 0.442500
v -0.422500 0.000000 0.377500
v -0.422500 0.760000 0.377500
v -0.400000 0.000000 0.377500
v -0.400000 0.760000 0.377500
v -0.357500 0.000000 0.420000
v -0.357500 0.760000 0.420000
v -0.400000 0.760000 0.420000
v 0.357500 -0.000000 -0.442500
v 0.357500 0.760000 -0.442500
v 0.400000 -0.000000 -0.420000
v 0.422500 -0.000000 -0.442500
v 0.422500 0.760000 -0.442500
v 0.422500 -0.000000 -0.377500
v 0.422500 0.760000 -0.377500
v 0.400000 -0.000000 -0.377500
v 0.400000 0.760000 -0.377500
v 0.357500 -0.000000 -0.420000
v 0.357500 0.760000 -0.420000
v 0.400000 0.760000 -0.420000
v -0.357500 0.000000 -0.442500
v -0.357500 0.760000 -0.442500
v -0.400000 0.000000 -0.420000
v -0.422500 0.000000 -0.442500
v -0.422500 0.760000 -0.442500
v -0.422500 0.000000 -0.377500
v -0.422500 0.760000 -0.377500
v -0.400000 0.000000 -0.377500
v -0.400000 0.760000 -0.377500
v -0.357500 0.000000 -0.420000
v -0.357500 0.760000 -0.420000
v -0.400000 0.760000 -0.420000
vn -1.0000 0.0000 0.0000
vn 0.0000 0.0000 -1.0000
vn 0.0000 0.0000 1.0000
vn 1.0000 0.0000 0.0000
usemtl None
s off
f 50//34 49//34 44//34 53//34
f 49//35 50//35 48//35 47//35
f 45//36 46//36 43//36 42//36
f 51//35 52//35 53//35 44//35
f 47//37 48//37 46//37 45//37
f 42//34 43//34 52//34 51//34
f 62//37 65//37 56//37 61//37
f 61//35 59//35 60//35 62//35
f 57//36 54//36 55//36 58//36
f 63//35 56//35 65//35 64//35
f 59//34 57//34 58//34 60//34
f 54//37 63//37 64//37 55//37
f 74//34 77//34 68//34 73//34
f 73//36 71//36 72//36 74//36
f 69//35 66//35 67//35 70//35
f 75//36 68//36 77//36 76//36
f 71//37 69//37 70//37 72//37
f 66//34 75//34 76//34 67//34
f 86//37 85//37 80//37 89//37
f 85//36 86//36 84//36 83//36
f 81//35 82//35 79//35 78//35
f 87//36 88//36 89//36 80//36
f 83//34 84//34 82//34 81//34
f 78//37 79//37 88//37 87//37
