# Blender v2.79 (sub 0) OBJ File: 'mod_Haengeschrank.blend'
# www.blender.org
mtllib mod_Haengeschrank.mtl
o Schrank_korpus_Seitenwaende
v 0.080000 1.453859 0.587642
v 0.080000 2.230000 0.587642
v 0.080000 1.453859 -0.587642
v 0.080000 2.230000 -0.587642
v 0.122544 1.453859 0.587642
v 0.570000 2.230000 0.587642
v 0.122544 1.453859 -0.587642
v 0.570000 2.230000 -0.587642
v 0.080000 1.539871 0.587642
v 0.080000 1.539871 -0.587642
v 0.218208 1.539871 -0.587642
v 0.218208 1.539871 0.587642
v 0.080000 1.686668 0.587642
v 0.080000 1.686668 -0.587642
v 0.570000 1.686668 -0.587642
v 0.570000 1.686668 0.587642
v 0.080000 1.613269 -0.587642
v 0.479794 1.613269 -0.587642
v 0.479794 1.613269 0.587642
v 0.080000 1.613269 0.587642
v 0.108283 1.453859 0.554401
v 0.108283 2.230000 0.554401
v 0.108283 1.453859 -0.554401
v 0.108283 2.230000 -0.554401
v 0.122544 1.453859 0.540630
v 0.570000 2.230000 0.540630
v 0.122544 1.453859 -0.540630
v 0.570000 2.230000 -0.540630
v 0.108283 1.539871 0.554401
v 0.108283 1.539871 -0.554401
v 0.218208 1.539871 -0.540630
v 0.218208 1.539871 0.540630
v 0.108283 1.686668 0.554401
v 0.108283 1.686668 -0.554401
v 0.570000 1.686668 -0.540630
v 0.570000 1.686668 0.540630
v 0.108283 1.613269 -0.554401
v 0.479794 1.613269 -0.540630
v 0.479794 1.613269 0.540630
v 0.108283 1.613269 0.554401
vn -1.0000 0.0000 0.0000
vn 0.0000 0.0000 -1.0000
vn 0.0000 0.0000 1.0000
vn 1.0000 0.0000 0.0000
vn -0.0314 0.0101 0.9995
vn -0.0308 0.0062 0.9995
vn -0.0298 0.0000 0.9996
vn -0.0308 0.0062 -0.9995
vn -0.0314 0.0101 -0.9995
vn -0.0298 0.0000 -0.9996
vn -0.2150 0.1195 -0.9693
vn -0.1363 0.1108 -0.9845
vn -0.0897 0.1053 -0.9904
vn -0.2150 0.1195 0.9693
vn -0.0897 0.1053 0.9904
vn -0.1363 0.1108 0.9845
vn -0.0354 0.0285 -0.9990
vn -0.0450 0.0608 -0.9971
vn -0.0450 0.0608 0.9971
vn -0.0354 0.0285 0.9990
vn 0.0000 -1.0000 0.0000
vn 0.0000 1.0000 0.0000
vn 0.3580 -0.9337 -0.0000
vn 0.4703 -0.8825 -0.0000
vn 0.4820 -0.8762 0.0000
vn 0.4603 -0.8878 0.0000
vn 0.9031 -0.4295 0.0000
usemtl None
s 1
f 13//1 2//1 4//1 14//1
f 14//2 4//2 8//2 15//2
f 16//3 6//3 2//3 13//3
f 5//3 12//3 9//3 1//3
f 3//2 10//2 11//2 7//2
f 1//1 9//1 10//1 3//1
f 19//3 16//3 13//3 20//3
f 17//2 14//2 15//2 18//2
f 20//1 13//1 14//1 17//1
f 9//1 20//1 17//1 10//1
f 10//2 17//2 18//2 11//2
f 12//3 19//3 20//3 9//3
f 33//4 34//4 24//4 22//4
f 34//5 35//6 28//7 24//7
f 36//8 33//9 22//10 26//10
f 25//11 21//11 29//12 32//13
f 23//14 27//14 31//15 30//16
f 21//4 23//4 30//4 29//4
f 39//17 40//18 33//9 36//8
f 37//19 38//20 35//6 34//5
f 40//4 37//4 34//4 33//4
f 29//4 30//4 37//4 40//4
f 30//16 31//15 38//20 37//19
f 32//13 29//12 40//18 39//17
f 1//21 3//21 23//21 21//21
f 4//22 2//22 22//22 24//22
f 3//21 7//23 27//24 23//21
f 8//22 4//22 24//22 28//22
f 7//23 11//25 31//25 27//24
f 12//25 5//23 25//24 32//25
f 5//23 1//21 21//21 25//24
f 2//22 6//22 26//22 22//22
f 11//25 18//26 38//26 31//25
f 19//26 12//25 32//25 39//26
f 15//27 8//4 28//4 35//27
f 6//4 16//27 36//27 26//4
f 18//26 15//27 35//27 38//26
f 16//27 19//26 39//26 36//27
o Haken
v 0.108283 1.579645 0.326199
v 0.365283 1.579645 0.326199
v 0.108283 1.558721 0.341401
v 0.365283 1.558721 0.341401
v 0.108283 1.566713 0.365997
v 0.365283 1.566713 0.365997
v 0.108283 1.592576 0.365997
v 0.365283 1.592576 0.365997
v 0.108283 1.600568 0.341401
v 0.365283 1.600568 0.341401
v 0.108283 1.579645 0.086199
v 0.365283 1.579645 0.086199
v 0.108283 1.558721 0.101401
v 0.365283 1.558721 0.101401
v 0.108283 1.566713 0.125997
v 0.365283 1.566713 0.125997
v 0.108283 1.592576 0.125997
v 0.365283 1.592576 0.125997
v 0.108283 1.600568 0.101401
v 0.365283 1.600568 0.101401
v 0.108283 1.579645 -0.153801
v 0.365283 1.579645 -0.153801
v 0.108283 1.558721 -0.138599
v 0.365283 1.558721 -0.138599
v 0.108283 1.566713 -0.114003
v 0.365283 1.566713 -0.114003
v 0.108283 1.592576 -0.114003
v 0.365283 1.592576 -0.114003
v 0.108283 1.600568 -0.138599
v 0.365283 1.600568 -0.138599
v 0.108283 1.579645 -0.393801
v 0.365283 1.579645 -0.393801
v 0.108283 1.558721 -0.378599
v 0.365283 1.558721 -0.378599
v 0.108283 1.566713 -0.354003
v 0.365283 1.566713 -0.354003
v 0.108283 1.592576 -0.354003
v 0.365283 1.592576 -0.354003
v 0.108283 1.600568 -0.378599
v 0.365283 1.600568 -0.378599
vn -0.0000 -0.0000 -1.0000
vn 0.0000 -0.9511 -0.3090
vn 0.0000 -0.5878 0.8090
vn -0.0000 0.5878 0.8090
vn 1.0000 0.0000 0.0000
vn -0.0000 0.9511 -0.3090
usemtl None
s 1
f 41//28 42//28 44//29 43//29
f 43//29 44//29 46//30 45//30
f 45//30 46//30 48//31 47//31
f 44//32 42//32 50//32 48//32 46//32
f 47//31 48//31 50//33 49//33
f 49//33 50//33 42//28 41//28
f 51//28 52//28 54//29 53//29
f 53//29 54//29 56//30 55//30
f 55//30 56//30 58//31 57//31
f 54//32 52//32 60//32 58//32 56//32
f 57//31 58//31 60//33 59//33
f 59//33 60//33 52//28 51//28
f 61//28 62//28 64//29 63//29
f 63//29 64//29 66//30 65//30
f 65//30 66//30 68//31 67//31
f 64//32 62//32 70//32 68//32 66//32
f 67//31 68//31 70//33 69//33
f 69//33 70//33 62//28 61//28
f 71//28 72//28 74//29 73//29
f 73//29 74//29 76//30 75//30
f 75//30 76//30 78//31 77//31
f 74//32 72//32 80//32 78//32 76//32
f 77//31 78//31 80//33 79//33
f 79//33 80//33 72//28 71//28
o Unterplatte_Cube
v 0.094807 1.706517 0.550007
v 0.094807 1.726517 0.550007
v 0.094807 1.706517 -0.551755
v 0.094807 1.726517 -0.551755
v 0.559806 1.706517 0.550007
v 0.559806 1.726517 0.550007
v 0.559806 1.706517 -0.551755
v 0.559806 1.726517 -0.551755
vn 1.0000 0.0000 0.0000
vn 0.0000 -1.0000 0.0000
vn 0.0000 1.0000 0.0000
usemtl None
s off
f 87//34 88//34 86//34 85//34
f 83//35 87//35 85//35 81//35
f 88//36 84//36 82//36 86//36
o Deckel
v 0.080000 2.230000 0.587642
v 0.080000 2.230000 -0.587642
v 0.570000 2.230000 0.587642
v 0.570000 2.230000 -0.587642
v 0.049345 2.292055 0.646407
v 0.049345 2.292055 -0.654568
v 0.591749 2.292055 0.646407
v 0.591749 2.292055 -0.654568
vn -0.1242 -0.9923 -0.0000
vn 0.0000 -0.6876 0.7261
vn 0.6697 -0.6208 0.4077
vn 0.4615 -0.6899 0.5577
vn 0.0000 -0.7333 -0.6799
vn 0.9437 -0.3308 0.0000
vn -0.8966 -0.4429 0.0000
vn 0.0000 1.0000 0.0000
usemtl None
s off
f 94//37 90//37 92//37 91//37 89//37 93//37
s 1
f 89//38 91//39 95//40 93//38
f 92//41 90//41 94//41 96//41
f 91//39 92//42 96//42 95//40
f 90//43 89//43 93//43 94//43
f 93//44 95//44 96//44 94//44
o Mitttelplatte_Cube.001
v 0.099768 1.940268 0.211112
v 0.099768 1.960268 0.211112
v 0.099768 1.940268 -0.211850
v 0.099768 1.960268 -0.211850
v 0.528228 1.940268 0.211112
v 0.528228 1.960268 0.211112
v 0.528228 1.940268 -0.211850
v 0.528228 1.960268 -0.211850
vn 1.0000 0.0000 0.0000
vn 0.0000 -1.0000 0.0000
vn 0.0000 1.0000 0.0000
usemtl None
s off
f 103//45 104//45 102//45 101//45
f 99//46 103//46 101//46 97//46
f 104//47 100//47 98//47 102//47
o Seitenwaende_Cube.002
v 0.109982 2.229631 0.229578
v 0.109982 2.229631 0.209578
v 0.109982 1.723850 0.229578
v 0.109982 1.723850 0.209578
v 0.544631 2.229631 0.229578
v 0.544631 2.229631 0.209578
v 0.544631 1.723850 0.229578
v 0.544631 1.723850 0.209578
v 0.109982 2.229631 -0.229578
v 0.109982 2.229631 -0.209578
v 0.109982 1.723850 -0.229578
v 0.109982 1.723850 -0.209578
v 0.544631 2.229631 -0.229578
v 0.544631 2.229631 -0.209578
v 0.544631 1.723850 -0.229578
v 0.544631 1.723850 -0.209578
vn 1.0000 0.0000 0.0000
vn 0.0000 0.0000 1.0000
vn 0.0000 -0.0000 -1.0000
usemtl None
s off
f 111//48 112//48 110//48 109//48
f 107//49 111//49 109//49 105//49
f 112//50 108//50 106//50 110//50
f 119//48 117//48 118//48 120//48
f 115//50 113//50 117//50 119//50
f 120//49 118//49 114//49 116//49
o Tueren_Plane.001
v 0.577025 2.222427 0.533937
v 0.577025 1.716517 0.533937
v 0.577025 2.222427 0.208091
v 0.577025 1.716517 0.208091
v 0.563928 2.222427 0.533937
v 0.563928 1.716517 0.533937
v 0.563928 2.222427 0.208091
v 0.563928 1.716517 0.208091
v 0.577025 2.222427 -0.533937
v 0.577025 1.716517 -0.533937
v 0.577025 2.222427 -0.208091
v 0.577025 1.716517 -0.208091
v 0.563928 2.222427 -0.533937
v 0.563928 1.716517 -0.533937
v 0.563928 2.222427 -0.208091
v 0.563928 1.716517 -0.208091
vn 1.0000 0.0000 0.0000
vn -1.0000 -0.0000 0.0000
vn 0.0000 1.0000 0.0000
vn 0.0000 0.0000 1.0000
vn 0.0000 -1.0000 0.0000
vn 0.0000 0.0000 -1.0000
usemtl None
s off
f 121//51 122//51 124//51 123//51
f 125//52 127//52 128//52 126//52
f 121//53 123//53 127//53 125//53
f 122//54 121//54 125//54 126//54
f 124//55 122//55 126//55 128//55
f 123//56 124//56 128//56 127//56
f 129//51 131//51 132//51 130//51
f 133//52 134//52 136//52 135//52
f 129//53 133//53 135//53 131//53
f 130//56 134//56 133//56 129//56
f 132//55 136//55 134//55 130//55
f 131//54 135//54 136//54 132//54
o Cube_Cube.003
v 0.599728 1.950058 0.223800
v 0.629089 1.950058 0.253161
v 0.599728 1.950058 0.282523
v 0.599728 1.920697 0.253161
v 0.599728 1.979419 0.253161
v 0.577707 1.928037 0.253161
v 0.577707 1.950058 0.275182
v 0.577707 1.972079 0.253161
v 0.577707 1.950058 0.231141
v 0.599728 1.928037 0.231141
v 0.599728 1.972079 0.231141
v 0.621749 1.950058 0.231141
v 0.621749 1.928037 0.253161
v 0.621749 1.972079 0.253161
v 0.621749 1.950058 0.275182
v 0.599728 1.928037 0.275182
v 0.599728 1.972079 0.275182
v 0.583416 1.933746 0.269473
v 0.583416 1.966370 0.269473
v 0.583416 1.933746 0.236850
v 0.583416 1.966370 0.236850
v 0.616040 1.933746 0.269473
v 0.616040 1.966370 0.269473
v 0.616040 1.933746 0.236850
v 0.616040 1.966370 0.236850
v 0.599728 1.950058 -0.223800
v 0.629089 1.950058 -0.253161
v 0.599728 1.950058 -0.282523
v 0.599728 1.920697 -0.253161
v 0.599728 1.979419 -0.253161
v 0.577707 1.928037 -0.253161
v 0.577707 1.950058 -0.275182
v 0.577707 1.972079 -0.253161
v 0.577707 1.950058 -0.231141
v 0.599728 1.928037 -0.231141
v 0.599728 1.972079 -0.231141
v 0.621749 1.950058 -0.231141
v 0.621749 1.928037 -0.253161
v 0.621749 1.972079 -0.253161
v 0.621749 1.950058 -0.275182
v 0.599728 1.928037 -0.275182
v 0.599728 1.972079 -0.275182
v 0.583416 1.933746 -0.269473
v 0.583416 1.966370 -0.269473
v 0.583416 1.933746 -0.236850
v 0.583416 1.966370 -0.236850
v 0.616040 1.933746 -0.269473
v 0.616040 1.966370 -0.269473
v 0.616040 1.933746 -0.236850
v 0.616040 1.966370 -0.236850
vn 0.0000 0.0000 -1.0000
vn 0.0000 -0.7071 -0.7071
vn -0.3746 -0.6556 -0.6556
vn -0.3714 0.0000 -0.9285
vn -0.3746 0.6556 -0.6556
vn 0.0000 0.7071 -0.7071
vn 0.5773 0.5773 -0.5773
vn 0.7071 0.0000 -0.7071
vn 0.5773 -0.5773 -0.5773
vn 1.0000 0.0000 0.0000
vn 0.7071 -0.7071 0.0000
vn 0.7071 0.7071 0.0000
vn 0.5773 0.5773 0.5773
vn 0.7071 0.0000 0.7071
vn 0.5773 -0.5773 0.5773
vn 0.0000 0.0000 1.0000
vn 0.0000 -0.7071 0.7071
vn 0.0000 0.7071 0.7071
vn -0.3746 0.6556 0.6556
vn -0.3714 0.0000 0.9285
vn -0.3746 -0.6556 0.6556
vn 0.0000 -1.0000 0.0000
vn -0.3714 -0.9285 0.0000
vn 0.0000 1.0000 0.0000
vn -0.3714 0.9285 0.0000
usemtl None
s 1
f 137//57 146//58 156//59 145//60
f 137//57 145//60 157//61 147//62
f 137//57 147//62 161//63 148//64
f 137//57 148//64 160//65 146//58
f 138//66 149//67 160//65 148//64
f 138//66 148//64 161//63 150//68
f 138//66 150//68 159//69 151//70
f 138//66 151//70 158//71 149//67
f 139//72 152//73 158//71 151//70
f 139//72 151//70 159//69 153//74
f 139//72 153//74 155//75 143//76
f 139//72 143//76 154//77 152//73
f 140//78 142//79 156//59 146//58
f 140//78 146//58 160//65 149//67
f 140//78 149//67 158//71 152//73
f 140//78 152//73 154//77 142//79
f 141//80 150//68 161//63 147//62
f 141//80 147//62 157//61 144//81
f 141//80 144//81 155//75 153//74
f 141//80 153//74 159//69 150//68
f 162//72 170//76 181//77 171//73
f 162//72 172//74 182//75 170//76
f 162//72 173//70 186//69 172//74
f 162//72 171//73 185//71 173//70
f 163//66 173//70 185//71 174//67
f 163//66 175//68 186//69 173//70
f 163//66 176//64 184//63 175//68
f 163//66 174//67 183//65 176//64
f 164//57 176//64 183//65 177//58
f 164//57 178//62 184//63 176//64
f 164//57 168//60 180//61 178//62
f 164//57 177//58 179//59 168//60
f 165//78 171//73 181//77 167//79
f 165//78 174//67 185//71 171//73
f 165//78 177//58 183//65 174//67
f 165//78 167//79 179//59 177//58
f 166//80 172//74 186//69 175//68
f 166//80 169//81 182//75 172//74
f 166//80 178//62 180//61 169//81
f 166//80 175//68 184//63 178//62
