# Blender v2.79 (sub 0) OBJ File: 'mod_Geschirrschrank.blend'
# www.blender.org
g Geschirrschrank
v 0.000000 1.730000 0.000000
v 0.000000 3.860000 0.000000
v 0.000000 1.730000 -2.000000
v 0.000000 3.860000 -2.000000
v 0.980000 3.860000 0.000000
v 0.980000 3.860000 -2.000000
v 0.980000 1.730000 -2.000000
v 0.980000 1.730000 0.000000
v 0.000000 0.000000 0.000000
v 0.000000 1.670000 0.000000
v 0.000000 0.000000 -2.000000
v 0.000000 1.670000 -2.000000
v 1.200000 1.670000 0.000000
v 1.200000 1.670000 -2.000000
v 1.200000 0.000000 -2.000000
v 1.200000 0.000000 0.000000
v 0.000000 1.670000 0.000000
v 0.000000 1.670000 -2.000000
v 0.000000 1.730000 0.000000
v 0.000000 1.730000 -2.000000
v 1.300000 1.670000 -2.000000
v 1.300000 1.670000 0.000000
v 1.300000 1.730000 -2.000000
v 1.300000 1.730000 0.000000
v 0.995356 2.719959 -0.856510
v 1.002280 3.019013 -0.856510
v 0.994698 2.733388 -0.838004
v 1.000276 3.005717 -0.838004
v 0.993634 2.755117 -0.845073
v 0.997034 2.984205 -0.845073
v 0.993634 2.755117 -0.867948
v 0.997034 2.984205 -0.867948
v 0.994698 2.733388 -0.875016
v 1.000276 3.005717 -0.875016
v 1.106904 2.754205 -0.856510
v 1.111020 2.978917 -0.856510
v 1.100015 2.971193 -0.838004
v 1.096792 2.763066 -0.838004
v 1.082208 2.958694 -0.845073
v 1.080430 2.777404 -0.845073
v 1.082208 2.958694 -0.867948
v 1.080430 2.777404 -0.867948
v 1.100015 2.971193 -0.875016
v 1.096792 2.763066 -0.875016
v 0.995356 2.719959 -1.143489
v 1.002280 3.019013 -1.143489
v 0.994698 2.733388 -1.161996
v 1.000276 3.005717 -1.161996
v 0.993634 2.755117 -1.154927
v 0.997034 2.984205 -1.154927
v 0.993634 2.755117 -1.132052
v 0.997034 2.984205 -1.132052
v 0.994698 2.733388 -1.124983
v 1.000276 3.005717 -1.124983
v 1.106904 2.754205 -1.143489
v 1.111020 2.978917 -1.143489
v 1.100015 2.971193 -1.161996
v 1.096792 2.763066 -1.161996
v 1.082208 2.958694 -1.154927
v 1.080430 2.777404 -1.154927
v 1.082208 2.958694 -1.132052
v 1.080430 2.777404 -1.132052
v 1.100015 2.971193 -1.124983
v 1.096792 2.763066 -1.124983
v 1.224763 0.559493 -0.875129
v 1.231687 0.858547 -0.875129
v 1.224105 0.572922 -0.856623
v 1.229683 0.845251 -0.856623
v 1.223041 0.594651 -0.863692
v 1.226441 0.823739 -0.863692
v 1.223041 0.594651 -0.886567
v 1.226441 0.823739 -0.886567
v 1.224105 0.572922 -0.893636
v 1.229683 0.845251 -0.893636
v 1.336311 0.593739 -0.875129
v 1.340427 0.818451 -0.875129
v 1.329422 0.810727 -0.856623
v 1.326199 0.602600 -0.856623
v 1.311615 0.798228 -0.863692
v 1.309837 0.616938 -0.863692
v 1.311615 0.798228 -0.886567
v 1.309837 0.616938 -0.886567
v 1.329422 0.810727 -0.893636
v 1.326199 0.602600 -0.893636
v 1.224763 0.559493 -1.124870
v 1.231687 0.858547 -1.124870
v 1.224105 0.572922 -1.143376
v 1.229683 0.845251 -1.143376
v 1.223041 0.594651 -1.136308
v 1.226441 0.823739 -1.136308
v 1.223041 0.594651 -1.113433
v 1.226441 0.823739 -1.113433
v 1.224105 0.572922 -1.106364
v 1.229683 0.845251 -1.106364
v 1.336311 0.593739 -1.124870
v 1.340427 0.818451 -1.124870
v 1.329422 0.810727 -1.143376
v 1.326199 0.602600 -1.143376
v 1.311615 0.798228 -1.136308
v 1.309837 0.616938 -1.136308
v 1.311615 0.798228 -1.113433
v 1.309837 0.616938 -1.113433
v 1.329422 0.810727 -1.106364
v 1.326199 0.602600 -1.106364
v 1.224763 1.534799 -0.362456
v 1.231687 1.534799 -0.661510
v 1.224105 1.553305 -0.375885
v 1.229683 1.553305 -0.648214
v 1.223041 1.546236 -0.397615
v 1.226441 1.546236 -0.626702
v 1.223041 1.523361 -0.397615
v 1.226441 1.523361 -0.626702
v 1.224105 1.516292 -0.375885
v 1.229683 1.516292 -0.648214
v 1.336311 1.534799 -0.396702
v 1.340427 1.534799 -0.621414
v 1.329422 1.553305 -0.613690
v 1.326199 1.553305 -0.405563
v 1.311615 1.546236 -0.601192
v 1.309837 1.546236 -0.419901
v 1.311615 1.523361 -0.601192
v 1.309837 1.523361 -0.419901
v 1.329422 1.516292 -0.613690
v 1.326199 1.516292 -0.405563
v 1.224763 1.534799 -1.637544
v 1.231687 1.534799 -1.338490
v 1.224105 1.553305 -1.624114
v 1.229683 1.553305 -1.351785
v 1.223041 1.546236 -1.602385
v 1.226441 1.546236 -1.373298
v 1.223041 1.523361 -1.602385
v 1.226441 1.523361 -1.373298
v 1.224105 1.516292 -1.624114
v 1.229683 1.516292 -1.351785
v 1.336311 1.534799 -1.603298
v 1.340427 1.534799 -1.378585
v 1.329422 1.553305 -1.386310
v 1.326199 1.553305 -1.594436
v 1.311615 1.546236 -1.398808
v 1.309837 1.546236 -1.580098
v 1.311615 1.523361 -1.398808
v 1.309837 1.523361 -1.580098
v 1.329422 1.516292 -1.386310
v 1.326199 1.516292 -1.594436
v 1.227619 1.655958 -0.064428
v 1.227619 1.374701 -0.064428
v 1.201425 1.655958 -0.064428
v 1.201425 1.374701 -0.064428
v 1.227620 1.655958 -0.993334
v 1.227620 1.374701 -0.993334
v 1.201425 1.655958 -0.993334
v 1.201425 1.374701 -0.993334
v 1.227620 1.655958 -1.935572
v 1.227620 1.374701 -1.935572
v 1.201425 1.655958 -1.935572
v 1.201425 1.374701 -1.935572
v 1.227620 1.655958 -1.006665
v 1.227620 1.374701 -1.006665
v 1.201425 1.655958 -1.006665
v 1.201426 1.374701 -1.006665
v 0.996795 3.747356 -0.045809
v 0.996795 1.978738 -0.045809
v 0.996795 3.747356 -0.974715
v 0.996795 1.978738 -0.974715
v 0.970601 3.747356 -0.045809
v 0.970601 1.978738 -0.045809
v 0.970601 3.747356 -0.974715
v 0.970601 1.978738 -0.974715
v 0.996795 3.747356 -1.954191
v 0.996795 1.978738 -1.954191
v 0.996795 3.747356 -1.025285
v 0.996795 1.978738 -1.025285
v 0.970601 3.747356 -1.954191
v 0.970601 1.978738 -1.954191
v 0.970601 3.747356 -1.025285
v 0.970601 1.978738 -1.025285
v 1.227619 1.357851 -0.064428
v 1.227619 0.067817 -0.064428
v 1.227619 1.357851 -0.993334
v 1.227619 0.067817 -0.993334
v 1.201425 1.357851 -0.064428
v 1.201425 0.067817 -0.064428
v 1.201425 1.357851 -0.993334
v 1.201425 0.067817 -0.993334
v 1.227620 1.357851 -1.935572
v 1.227620 0.067817 -1.935572
v 1.227619 1.357851 -1.006665
v 1.227620 0.067817 -1.006665
v 1.201425 1.357851 -1.935572
v 1.201426 0.067817 -1.935572
v 1.201425 1.357851 -1.006665
v 1.201425 0.067817 -1.006665
v 0.000000 3.860000 0.000000
v 0.000000 3.860000 -2.000000
v 0.980000 3.860000 0.000000
v 0.980000 3.860000 -2.000000
v -0.061309 3.984109 0.100002
v -0.061309 3.984109 -2.113890
v 1.023498 3.984109 0.100002
v 1.023498 3.984109 -2.113890
vn -1.0000 0.0000 0.0000
vn 0.0000 0.0000 -1.0000
vn 0.0000 0.0000 1.0000
vn 1.0000 0.0000 0.0000
vn 0.0000 1.0000 0.0000
vn 0.0000 -1.0000 -0.0000
vn 0.8278 0.5611 -0.0000
vn 0.3370 0.9415 -0.0000
vn 0.2821 0.7883 0.5468
vn 0.6633 0.4458 0.6011
vn -0.2496 -0.1642 0.9543
vn -0.1056 -0.3253 0.9397
vn -0.2350 -0.7671 0.5969
vn -0.5547 -0.3955 0.7320
vn -0.2350 -0.7671 -0.5969
vn -0.5547 -0.3955 -0.7320
vn -0.1056 -0.3253 -0.9397
vn -0.2496 -0.1642 -0.9543
vn 0.6633 0.4458 -0.6011
vn 0.2821 0.7883 -0.5468
vn 0.2392 -0.7994 -0.5511
vn 0.6474 -0.4631 -0.6053
vn 0.7922 -0.6103 -0.0000
vn 0.2867 -0.9580 0.0000
vn -0.2319 0.1800 -0.9560
vn -0.5426 0.4047 -0.7361
vn -0.2010 0.7679 -0.6081
vn -0.0896 0.3257 -0.9412
vn -0.5426 0.4047 0.7361
vn -0.2010 0.7679 0.6081
vn -0.2319 0.1800 0.9560
vn -0.0896 0.3257 0.9412
vn 0.6474 -0.4631 0.6053
vn 0.2392 -0.7994 0.5511
vn 0.8278 -0.0000 -0.5611
vn 0.3370 -0.0000 -0.9415
vn 0.2821 0.5468 -0.7883
vn 0.6633 0.6011 -0.4458
vn -0.2496 0.9543 0.1642
vn -0.1056 0.9397 0.3253
vn -0.2350 0.5969 0.7671
vn -0.5547 0.7320 0.3955
vn -0.2350 -0.5969 0.7671
vn -0.5547 -0.7320 0.3955
vn -0.1056 -0.9397 0.3253
vn -0.2496 -0.9543 0.1642
vn 0.6633 -0.6011 -0.4458
vn 0.2821 -0.5468 -0.7883
vn 0.2392 -0.5511 0.7994
vn 0.6474 -0.6053 0.4631
vn 0.7922 -0.0000 0.6103
vn 0.2867 -0.0000 0.9580
vn -0.2319 -0.9560 -0.1800
vn -0.5426 -0.7361 -0.4047
vn -0.2010 -0.6081 -0.7679
vn -0.0896 -0.9412 -0.3257
vn -0.5426 0.7361 -0.4047
vn -0.2010 0.6081 -0.7679
vn -0.2319 0.9560 -0.1800
vn -0.0896 0.9412 -0.3257
vn 0.6474 0.6053 0.4631
vn 0.2392 0.5511 0.7994
vn 0.8278 -0.0000 0.5611
vn 0.6633 0.6011 0.4458
vn 0.2821 0.5468 0.7883
vn 0.3370 -0.0000 0.9415
vn -0.2496 0.9543 -0.1642
vn -0.5547 0.7320 -0.3955
vn -0.2350 0.5969 -0.7671
vn -0.1056 0.9397 -0.3253
vn -0.5547 -0.7320 -0.3955
vn -0.2350 -0.5969 -0.7671
vn -0.2496 -0.9543 -0.1642
vn -0.1056 -0.9397 -0.3253
vn 0.6633 -0.6011 0.4458
vn 0.2821 -0.5468 0.7883
vn 0.2392 -0.5511 -0.7994
vn 0.2867 -0.0000 -0.9580
vn 0.7922 -0.0000 -0.6103
vn 0.6474 -0.6053 -0.4631
vn -0.5426 -0.7361 0.4047
vn -0.2319 -0.9560 0.1800
vn -0.2010 -0.6081 0.7679
vn -0.0896 -0.9412 0.3257
vn -0.5426 0.7361 0.4047
vn -0.2010 0.6081 0.7679
vn -0.2319 0.9560 0.1800
vn -0.0896 0.9412 0.3257
vn 0.6474 0.6053 -0.4631
vn 0.2392 0.5511 -0.7994
vn 0.0000 -0.6274 0.7787
vn 0.0000 -0.6761 -0.7368
vn 0.9437 -0.3308 0.0000
vn -0.8966 -0.4429 0.0000
s off
f 1//1 2//1 4//1 3//1
f 3//2 4//2 6//2 7//2
f 8//3 5//3 2//3 1//3
f 7//4 6//4 5//4 8//4
f 9//1 10//1 12//1 11//1
f 11//2 12//2 14//2 15//2
f 16//3 13//3 10//3 9//3
f 15//4 14//4 13//4 16//4
f 23//5 20//5 19//5 24//5
f 17//3 22//3 24//3 19//3
f 21//2 18//2 20//2 23//2
f 22//4 21//4 23//4 24//4
f 20//1 18//1 17//1 19//1
f 151//1 152//1 148//1 147//1
f 146//3 145//3 147//3 148//3
f 145//5 149//5 151//5 147//5
f 149//4 145//4 146//4 150//4
f 150//2 152//2 151//2 149//2
f 148//6 152//6 150//6 146//6
f 159//1 155//1 156//1 160//1
f 154//2 156//2 155//2 153//2
f 153//5 155//5 159//5 157//5
f 157//4 158//4 154//4 153//4
f 158//3 157//3 159//3 160//3
f 156//6 154//6 158//6 160//6
f 161//4 162//4 164//4 163//4
f 165//1 167//1 168//1 166//1
f 161//5 163//5 167//5 165//5
f 162//3 161//3 165//3 166//3
f 164//6 162//6 166//6 168//6
f 163//2 164//2 168//2 167//2
f 169//4 171//4 172//4 170//4
f 173//1 174//1 176//1 175//1
f 169//5 173//5 175//5 171//5
f 170//2 174//2 173//2 169//2
f 172//6 176//6 174//6 170//6
f 171//3 175//3 176//3 172//3
f 177//4 178//4 180//4 179//4
f 181//1 183//1 184//1 182//1
f 177//5 179//5 183//5 181//5
f 178//3 177//3 181//3 182//3
f 180//6 178//6 182//6 184//6
f 179//2 180//2 184//2 183//2
f 185//4 187//4 188//4 186//4
f 189//1 190//1 192//1 191//1
f 185//5 189//5 191//5 187//5
f 186//2 190//2 189//2 185//2
f 188//6 192//6 190//6 186//6
f 187//3 191//3 192//3 188//3
s 1
f 36//7 26//8 28//9 37//10
f 37//11 28//12 30//13 39//14
f 39//14 30//13 32//15 41//16
f 41//16 32//15 34//17 43//18
f 43//19 34//20 26//8 36//7
f 33//21 44//22 35//23 25//24
f 41//16 43//18 44//25 42//26
f 31//27 42//26 44//25 33//28
f 39//14 41//16 42//26 40//29
f 29//30 40//29 42//26 31//27
f 37//11 39//14 40//29 38//31
f 27//32 38//31 40//29 29//30
f 35//23 36//7 37//10 38//33
f 25//24 35//23 38//33 27//34
f 43//19 36//7 35//23 44//22
f 56//7 57//19 48//20 46//8
f 57//18 59//16 50//15 48//17
f 59//16 61//14 52//13 50//15
f 61//14 63//11 54//12 52//13
f 63//10 56//7 46//8 54//9
f 53//34 45//24 55//23 64//33
f 61//14 62//29 64//31 63//11
f 51//30 53//32 64//31 62//29
f 59//16 60//26 62//29 61//14
f 49//27 51//30 62//29 60//26
f 57//18 58//25 60//26 59//16
f 47//28 49//27 60//26 58//25
f 55//23 58//22 57//19 56//7
f 45//24 47//21 58//22 55//23
f 63//10 64//33 55//23 56//7
f 76//7 66//8 68//9 77//10
f 77//11 68//12 70//13 79//14
f 79//14 70//13 72//15 81//16
f 81//16 72//15 74//17 83//18
f 83//19 74//20 66//8 76//7
f 73//21 84//22 75//23 65//24
f 81//16 83//18 84//25 82//26
f 71//27 82//26 84//25 73//28
f 79//14 81//16 82//26 80//29
f 69//30 80//29 82//26 71//27
f 77//11 79//14 80//29 78//31
f 67//32 78//31 80//29 69//30
f 75//23 76//7 77//10 78//33
f 65//24 75//23 78//33 67//34
f 83//19 76//7 75//23 84//22
f 96//7 97//19 88//20 86//8
f 97//18 99//16 90//15 88//17
f 99//16 101//14 92//13 90//15
f 101//14 103//11 94//12 92//13
f 103//10 96//7 86//8 94//9
f 93//34 85//24 95//23 104//33
f 101//14 102//29 104//31 103//11
f 91//30 93//32 104//31 102//29
f 99//16 100//26 102//29 101//14
f 89//27 91//30 102//29 100//26
f 97//18 98//25 100//26 99//16
f 87//28 89//27 100//26 98//25
f 95//23 98//22 97//19 96//7
f 85//24 87//21 98//22 95//23
f 103//10 104//33 95//23 96//7
f 116//35 106//36 108//37 117//38
f 117//39 108//40 110//41 119//42
f 119//42 110//41 112//43 121//44
f 121//44 112//43 114//45 123//46
f 123//47 114//48 106//36 116//35
f 113//49 124//50 115//51 105//52
f 121//44 123//46 124//53 122//54
f 111//55 122//54 124//53 113//56
f 119//42 121//44 122//54 120//57
f 109//58 120//57 122//54 111//55
f 117//39 119//42 120//57 118//59
f 107//60 118//59 120//57 109//58
f 115//51 116//35 117//38 118//61
f 105//52 115//51 118//61 107//62
f 123//47 116//35 115//51 124//50
f 136//63 137//64 128//65 126//66
f 137//67 139//68 130//69 128//70
f 139//68 141//71 132//72 130//69
f 141//71 143//73 134//74 132//72
f 143//75 136//63 126//66 134//76
f 133//77 125//78 135//79 144//80
f 141//71 142//81 144//82 143//73
f 131//83 133//84 144//82 142//81
f 139//68 140//85 142//81 141//71
f 129//86 131//83 142//81 140//85
f 137//67 138//87 140//85 139//68
f 127//88 129//86 140//85 138//87
f 135//79 138//89 137//64 136//63
f 125//78 127//90 138//89 135//79
f 143//75 144//80 135//79 136//63
f 193//91 195//91 199//91 197//91
f 196//92 194//92 198//92 200//92
f 195//93 196//93 200//93 199//93
f 194//94 193//94 197//94 198//94
f 197//5 199//5 200//5 198//5
