# Blender v2.79 (sub 0) OBJ File: 'Besen.blend'
# www.blender.org
mtllib Besen.mtl
o Besenkopf_Cube.001
v 0.000000 1.782066 0.367107
v -0.011566 0.129421 -0.018633
v 0.007071 1.782734 0.364255
v -0.016357 0.132060 -0.029894
v 0.010000 1.784348 0.357370
v -0.011566 0.134699 -0.041155
v 0.007071 1.785962 0.350486
v 0.000000 0.135793 -0.045819
v -0.000000 1.786630 0.347634
v 0.011566 0.134699 -0.041155
v -0.007071 1.785962 0.350486
v 0.016357 0.132060 -0.029894
v -0.010000 1.784348 0.357370
v 0.011566 0.129421 -0.018633
v -0.007071 1.782734 0.364255
v 0.000000 0.128328 -0.013969
v 0.000000 0.252671 0.008646
v 0.007071 0.253340 0.005794
v 0.010000 0.254953 -0.001090
v 0.007071 0.256567 -0.007975
v -0.000000 0.257235 -0.010827
v -0.007071 0.256567 -0.007975
v -0.010000 0.254953 -0.001090
v -0.007071 0.253340 0.005794
v 0.011566 0.247489 0.009039
v 0.016357 0.250128 -0.002221
v 0.011566 0.252767 -0.013482
v -0.000000 0.253860 -0.018146
v -0.011566 0.252767 -0.013482
v -0.016357 0.250128 -0.002221
v 0.000000 0.246395 0.013704
v -0.011566 0.247489 0.009039
v -0.231818 0.116684 -0.069020
v -0.231818 0.110268 0.004326
v -0.248094 0.144009 -0.082967
v -0.248094 0.134755 0.022806
v 0.231818 0.116684 -0.069020
v 0.231818 0.110268 0.004326
v 0.248094 0.144009 -0.082967
v 0.248094 0.134755 0.022806
v -0.248094 0.118103 -0.085234
v -0.248094 0.108849 0.020539
v 0.248094 0.108849 0.020539
v 0.248094 0.118103 -0.085234
v -0.265201 0.007341 -0.083908
v -0.265201 0.000000 -0.000000
v 0.265201 0.000000 -0.000000
v 0.265201 0.007341 -0.083908
vt -0.419376 2.996917
vt -0.419376 2.936584
vt -0.404599 2.936584
vt -0.404599 2.996917
vt -0.122653 2.936584
vt -0.122653 2.996917
vt -0.107877 2.936584
vt -0.107877 2.996917
vt -0.395351 2.739289
vt -0.131902 2.739289
vt -0.112933 2.801994
vt -0.414320 2.801994
vt -0.404599 2.715264
vt -0.122653 2.715264
vt -0.122653 2.730040
vt -0.404599 2.730040
vt -0.404599 2.921808
vt -0.122653 2.921808
vt -0.428624 2.987669
vt -0.428624 2.945833
vt -0.098628 2.945832
vt -0.098628 2.987669
vt -0.395351 2.912560
vt -0.131902 2.912560
vt -0.112933 2.849854
vt -0.414320 2.849854
vt -0.479762 2.846842
vt -0.479762 2.805006
vt -0.047491 2.805006
vt -0.047491 2.846842
vt -0.384514 3.023430
vt -0.384793 3.031509
vt -0.391903 3.030689
vt -0.391329 3.022302
vt 0.071718 3.016575
vt 0.071681 3.009359
vt 0.076757 3.004231
vt 0.083972 3.004194
vt 0.089100 3.009270
vt 0.089137 3.016485
vt 0.084062 3.021613
vt 0.076846 3.021650
vt 0.071768 3.023791
vt -0.383928 3.015649
vt 0.071830 3.031008
vt 0.071904 3.038226
vt -0.384879 3.039736
vt 0.071989 3.045444
vt -0.384769 3.048030
vt 0.072087 3.052661
vt -0.384369 3.056330
vt 0.072196 3.059876
vt -0.383439 3.064532
vt 0.072322 3.067800
vt -0.381683 3.072198
vt -0.382504 3.008440
vt -0.392168 3.047683
vt -0.392156 3.039137
vt -0.391109 3.065634
vt -0.391900 3.056423
vt -0.390158 3.013923
vt -0.387685 3.005051
vt -0.479330 3.037320
vt -0.478904 3.027241
vt -0.388784 3.076015
vt -0.479762 3.057554
vt -0.479616 3.047421
vt -0.479648 3.077118
vt -0.479762 3.067738
vt -0.478337 3.017175
vt -0.477631 3.007110
vt -0.476790 2.997030
vn -1.0000 0.0000 0.0000
vn 0.0000 0.9962 0.0872
vn 1.0000 0.0000 0.0000
vn 0.0000 0.1349 -0.9909
vn 0.0000 0.0872 -0.9962
vn 0.0000 -0.0872 0.9962
vn -0.0000 -0.9962 -0.0872
vn -0.9571 0.2888 0.0253
vn 0.0000 -0.0392 0.9992
vn 0.9571 0.2888 0.0253
vn -0.6174 0.3337 0.7123
vn -0.8731 0.4746 0.1112
vn -0.9159 0.3908 0.0916
vn -0.6476 0.2430 0.7221
vn 0.0000 0.4364 0.8997
vn 0.5490 0.4883 0.6783
vn 0.7764 0.6136 0.1438
vn 0.5490 0.7389 -0.3907
vn 0.0000 0.7908 -0.6120
vn -0.5490 0.7389 -0.3907
vn -0.7764 0.6136 0.1438
vn -0.5490 0.4883 0.6783
vn 0.0000 0.2753 0.9613
vn -0.6174 0.6155 -0.4899
vn 0.0000 0.6738 -0.7389
vn 0.6174 0.6155 -0.4899
vn 0.8731 0.4746 0.1112
vn 0.6174 0.3337 0.7123
vn 0.0000 0.5998 -0.8001
vn -0.6476 0.5386 -0.5389
vn 0.9159 0.3908 0.0916
vn 0.6476 0.5386 -0.5389
vn 0.0000 0.1818 0.9833
vn 0.6476 0.2430 0.7221
vn -0.7071 0.1614 -0.6884
vn 0.7071 0.1614 -0.6884
vn 0.0000 0.2282 -0.9736
vn 0.7071 -0.1614 0.6884
vn -0.7071 -0.1614 0.6884
vn 0.0000 -0.2282 0.9736
usemtl None
s off
f 41/1/1 42/2/1 36/3/1 35/4/1
f 35/4/2 36/3/2 40/5/2 39/6/2
f 39/6/3 40/5/3 43/7/3 44/8/3
f 33/9/4 37/10/4 48/11/4 45/12/4
f 35/13/5 39/14/5 44/15/5 41/16/5
f 40/5/6 36/3/6 42/17/6 43/18/6
f 33/19/7 34/20/7 42/2/7 41/1/7
f 38/21/7 37/22/7 44/8/7 43/7/7
f 37/10/7 33/9/7 41/16/7 44/15/7
f 34/23/7 38/24/7 43/18/7 42/17/7
f 48/11/7 47/25/7 46/26/7 45/12/7
f 34/27/8 33/28/8 45/12/8 46/26/8
f 38/24/9 34/23/9 46/26/9 47/25/9
f 37/29/10 38/30/10 47/25/10 48/11/10
s 1
f 24/31/11 23/32/12 30/33/13 32/34/14
f 1/35/15 3/36/16 5/37/17 7/38/18 9/39/19 11/40/20 13/41/21 15/42/22
f 15/43/22 24/31/11 17/44/23 1/35/15
f 13/45/21 23/32/12 24/31/11 15/43/22
f 11/46/20 22/47/24 23/32/12 13/45/21
f 9/48/19 21/49/25 22/47/24 11/46/20
f 7/50/18 20/51/26 21/49/25 9/48/19
f 5/52/17 19/53/27 20/51/26 7/50/18
f 3/54/16 18/55/28 19/53/27 5/52/17
f 1/35/15 17/44/23 18/56/28 3/36/16
f 22/47/24 21/49/25 28/57/29 29/58/30
f 20/51/26 19/53/27 26/59/31 27/60/32
f 18/56/28 17/44/23 31/61/33 25/62/34
f 17/44/23 24/31/11 32/34/14 31/61/33
f 23/32/12 22/47/24 29/58/30 30/33/13
f 21/49/25 20/51/26 27/60/32 28/57/29
f 30/33/13 29/58/30 6/63/35 4/64/1
f 19/53/27 18/55/28 25/65/34 26/59/31
f 28/57/29 27/60/32 10/66/36 8/67/37
f 26/59/31 25/65/34 14/68/38 12/69/3
f 32/34/14 30/33/13 4/64/1 2/70/39
f 29/58/30 28/57/29 8/67/37 6/63/35
f 27/60/32 26/59/31 12/69/3 10/66/36
f 25/62/34 31/61/33 16/71/40 14/72/38
f 31/61/33 32/34/14 2/70/39 16/71/40
