# Blender v2.79 (sub 0) OBJ File: 'mod_Putzmittel_1.blend'
# www.blender.org
g Putzmittel_1
v -0.081866 0.020000 0.090997
v -0.061866 0.000000 0.090997
v -0.061866 0.020000 0.110997
v -0.014393 0.357807 0.032171
v -0.031446 0.357088 0.014473
v -0.081866 0.020000 -0.090997
v -0.061866 0.020000 -0.110997
v -0.061866 0.000000 -0.090997
v -0.014393 0.357807 -0.032171
v -0.031446 0.357088 -0.014473
v 0.081866 0.020000 0.090997
v 0.061866 0.020000 0.110997
v 0.061866 0.000000 0.090997
v 0.014393 0.357807 0.032171
v 0.031446 0.357088 0.014473
v 0.061866 0.020000 -0.110997
v 0.081866 0.020000 -0.090997
v 0.061866 0.000000 -0.090997
v 0.031446 0.357088 -0.014473
v 0.014393 0.357807 -0.032171
v -0.064989 0.347855 0.047080
v -0.082021 0.317676 0.090712
v -0.062222 0.319124 0.110814
v -0.035860 0.345284 0.091511
v -0.064989 0.347855 -0.047080
v -0.035860 0.345284 -0.091511
v -0.062222 0.319124 -0.110814
v -0.082021 0.317676 -0.090712
v 0.035860 0.345284 -0.091511
v 0.064989 0.347855 -0.047080
v 0.082021 0.317676 -0.090712
v 0.062222 0.319124 -0.110814
v 0.064989 0.347855 0.047080
v 0.035860 0.345284 0.091511
v 0.062222 0.319124 0.110814
v 0.082021 0.317676 0.090712
v -0.032217 0.418084 0.014163
v -0.013793 0.419984 0.030497
v -0.013793 0.419984 -0.030497
v -0.032217 0.418084 -0.014163
v 0.032217 0.418084 -0.014163
v 0.013793 0.419984 -0.030497
v 0.013793 0.419984 0.030497
v 0.032217 0.418084 0.014163
v 0.000000 0.424518 0.000000
v -0.038406 0.423620 0.016884
v -0.016890 0.425497 0.037344
v -0.016890 0.425497 -0.037344
v -0.038406 0.423620 -0.016884
v 0.038406 0.423620 -0.016884
v 0.016890 0.425497 -0.037344
v 0.016890 0.425497 0.037344
v 0.038406 0.423620 0.016884
v -0.038406 0.382769 0.016884
v -0.016890 0.380892 0.037344
v -0.016890 0.380892 -0.037344
v -0.038406 0.382769 -0.016884
v 0.038406 0.382769 -0.016884
v 0.016890 0.380892 -0.037344
v 0.016890 0.380892 0.037344
v 0.038406 0.382769 0.016884
vn 0.8759 -0.3416 -0.3407
vn 0.8507 0.3687 -0.3747
vn 0.8507 0.3687 0.3747
vn 0.8759 -0.3416 0.3407
vn -0.5631 0.8183 0.1151
vn -0.6574 0.7100 0.2525
vn -0.6574 0.7100 -0.2525
vn -0.5631 0.8183 -0.1151
vn 0.3424 -0.3416 0.8753
vn 0.3950 0.3917 0.8310
vn -0.3950 0.3917 0.8310
vn -0.3424 -0.3416 0.8753
vn -0.1657 0.8482 -0.5030
vn -0.2623 0.7286 -0.6327
vn 0.2623 0.7286 -0.6327
vn 0.1657 0.8482 -0.5030
vn 0.1657 0.8482 0.5030
vn 0.2623 0.7286 0.6327
vn -0.2623 0.7286 0.6327
vn -0.1657 0.8482 0.5030
vn 0.3641 0.0205 0.9311
vn -0.3641 0.0205 0.9311
vn 0.6574 0.7100 0.2525
vn 0.6574 0.7100 -0.2525
vn 0.9169 -0.0008 -0.3992
vn 0.9169 -0.0008 0.3992
vn 0.5631 0.8183 -0.1151
vn 0.5631 0.8183 0.1151
vn -0.3424 -0.3416 -0.8753
vn -0.3950 0.3917 -0.8310
vn 0.3950 0.3917 -0.8310
vn 0.3424 -0.3416 -0.8753
vn -0.3641 0.0205 -0.9311
vn 0.3641 0.0205 -0.9311
vn -0.3416 -0.8756 -0.3416
vn 0.3416 -0.8756 -0.3416
vn 0.3416 -0.8756 0.3416
vn -0.3416 -0.8756 0.3416
vn -0.8759 -0.3416 0.3407
vn -0.9169 -0.0008 -0.3992
vn -0.8759 -0.3416 -0.3407
vn -0.9169 -0.0008 0.3992
vn -0.8507 0.3687 0.3747
vn -0.8507 0.3687 -0.3747
vn 0.0000 1.0000 0.0000
vn -0.0335 0.9992 0.0231
vn -0.0335 0.9992 -0.0231
vn -0.0225 0.9991 -0.0364
vn 0.0225 0.9991 -0.0364
vn 0.0335 0.9992 -0.0231
vn 0.0225 0.9991 0.0364
vn -0.0225 0.9991 0.0364
vn 0.0335 0.9992 0.0231
vn 0.3634 0.0000 -0.9316
vn -0.3634 0.0000 -0.9316
vn -0.3634 0.0000 0.9316
vn 0.3634 0.0000 0.9316
vn 0.9156 0.0000 0.4020
vn -0.9156 0.0000 -0.4020
vn 0.9156 0.0000 -0.4020
vn -0.9156 0.0000 0.4020
s 1
f 17//1 31//2 36//3 11//4
f 21//5 5//6 10//7 25//8
f 12//9 35//10 23//11 3//12
f 26//13 9//14 20//15 29//16
f 34//17 14//18 4//19 24//20
f 4//19 14//18 43//21 38//22
f 15//23 19//24 41//25 44//26
f 30//27 19//24 15//23 33//28
f 7//29 27//30 32//31 16//32
f 20//15 9//14 39//33 42//34
f 8//35 18//36 13//37 2//38
f 1//39 2//38 3//12
f 10//7 40//40 39//33 9//14
f 6//41 7//29 8//35
f 43//21 14//18 15//23 44//26
f 11//4 12//9 13//37
f 41//25 19//24 20//15 42//34
f 16//32 17//1 18//36
f 10//7 5//6 37//42 40//40
f 21//5 22//43 23//11 24//20
f 25//8 26//13 27//30 28//44
f 29//16 30//27 31//2 32//31
f 33//28 34//17 35//10 36//3
f 8//35 2//38 1//39 6//41
f 24//20 4//19 5//6 21//5
f 18//36 8//35 7//29 16//32
f 13//37 18//36 17//1 11//4
f 2//38 13//37 12//9 3//12
f 9//14 26//13 25//8 10//7
f 19//24 30//27 29//16 20//15
f 14//18 34//17 33//28 15//23
f 34//17 24//20 23//11 35//10
f 30//27 33//28 36//3 31//2
f 26//13 29//16 32//31 27//30
f 21//5 25//8 28//44 22//43
f 27//30 7//29 6//41 28//44
f 31//2 17//1 16//32 32//31
f 35//10 12//9 11//4 36//3
f 3//12 23//11 22//43 1//39
f 1//39 22//43 28//44 6//41
f 4//19 38//22 37//42 5//6
f 45//45 49//46 46//47
f 45//45 46//47 47//48
f 45//45 52//49 53//50
f 45//45 51//51 48//52
f 45//45 47//48 52//49
f 45//45 50//53 51//51
f 45//45 53//50 50//53
f 45//45 48//52 49//46
f 51//54 59//54 56//55 48//55
f 47//56 55//56 60//57 52//57
f 52//57 60//57 61//58 53//58
f 48//55 56//55 57//59 49//59
f 53//58 61//58 58//60 50//60
f 49//59 57//59 54//61 46//61
f 46//61 54//61 55//56 47//56
f 50//60 58//60 59//54 51//54
