# Blender v2.78 (sub 0) OBJ File: 'Abstellkammer_UVbearbeiten.blend'
# www.blender.org
mtllib mod_Besen.mtl
g Besen.001
v -0.014142 0.506679 0.011588
v -0.020000 0.509907 -0.002181
v -0.032713 0.500256 -0.004443
v -0.023132 0.494977 0.018079
v 0.000000 3.564132 0.734214
v 0.014142 3.565469 0.728511
v 0.020000 3.568696 0.714742
v 0.014142 3.571923 0.700973
v 0.000000 3.573260 0.695270
v -0.014142 3.571923 0.700973
v -0.020000 3.568696 0.714742
v -0.014142 3.565469 0.728511
v 0.000000 0.505343 0.017292
v -0.014142 0.513134 -0.015950
v 0.000000 0.514471 -0.021653
v 0.014142 0.513134 -0.015950
v 0.020000 0.509907 -0.002181
v 0.014142 0.506679 0.011588
v 0.000000 0.507721 -0.036293
v -0.023132 0.505534 -0.026964
v 0.032713 0.500256 -0.004443
v 0.023132 0.505534 -0.026964
v 0.000000 0.492791 0.027408
v 0.023132 0.494977 0.018079
v -0.023132 0.269399 -0.082310
v -0.032713 0.264120 -0.059788
v 0.023132 0.269399 -0.082310
v 0.000000 0.271585 -0.091639
v 0.023132 0.258842 -0.037267
v 0.032714 0.264120 -0.059788
v -0.023132 0.258842 -0.037267
v 0.000000 0.256655 -0.027938
v -0.496187 0.236206 -0.170468
v -0.496187 0.217698 0.041079
v -0.496187 0.269510 0.045612
v -0.496187 0.288018 -0.165935
v 0.496187 0.269510 0.045612
v 0.496187 0.288018 -0.165935
v 0.496187 0.217698 0.041079
v 0.496187 0.236206 -0.170468
v -0.463636 0.233369 -0.138040
v 0.463636 0.233369 -0.138040
v 0.530401 0.014682 -0.167816
v -0.530401 0.014682 -0.167816
v -0.463636 0.220535 0.008651
v 0.463636 0.220535 0.008651
v 0.530401 0.000000 0.000000
v -0.530401 0.000000 0.000000
vt 0.4074 0.9127
vt 0.4115 0.9128
vt 0.4120 0.9807
vt 0.4077 0.9804
vt 0.4041 0.6856
vt 0.4004 0.6857
vt 0.3978 0.6831
vt 0.3978 0.6795
vt 0.4003 0.6769
vt 0.4040 0.6769
vt 0.4066 0.6794
vt 0.4066 0.6830
vt 0.4077 0.6856
vt 0.4034 0.9124
vt 0.4114 0.6855
vt 0.4150 0.6855
vt 0.4156 0.9128
vt 0.4186 0.6854
vt 0.4198 0.9127
vt 0.4223 0.6854
vt 0.4240 0.9125
vt 0.4259 0.6853
vt 0.4281 0.9120
vt 0.4299 0.6852
vt 0.4320 0.9111
vt 0.3998 0.9117
vt 0.4206 0.9808
vt 0.4163 0.9808
vt 0.4296 0.9802
vt 0.4250 0.9806
vt 0.4035 0.9799
vt 0.3990 0.9786
vt 0.4165 0.9932
vt 0.4114 0.9930
vt 0.4349 0.9790
vt 0.4267 0.9933
vt 0.4216 0.9933
vt 0.4366 0.9932
vt 0.4319 0.9933
vt 0.4063 0.9927
vt 0.4013 0.9924
vt 0.3962 0.9920
vt 0.3856 0.9971
vt 0.3856 0.9877
vt 0.3879 0.9877
vt 0.3879 0.9971
vt 0.4318 0.9877
vt 0.4318 0.9971
vt 0.4341 0.9877
vt 0.4341 0.9971
vt 0.9708 0.1114
vt 0.8604 0.1114
vt 0.8524 0.3092
vt 0.9787 0.3092
vt 0.3883 0.9937
vt 0.4322 0.9937
vt 0.4322 0.9960
vt 0.3883 0.9960
vt 0.3879 0.9854
vt 0.4318 0.9854
vt 0.3842 0.9956
vt 0.3842 0.9891
vt 0.4356 0.9891
vt 0.4356 0.9956
vt 0.4308 0.9974
vt 0.3898 0.9974
vt 0.3894 0.9839
vt 0.4304 0.9839
vt 0.8524 0.3224
vt 0.9787 0.3224
vt 0.9708 0.1230
vt 0.8604 0.1230
vn -0.6174 0.3337 0.7123
vn -0.8731 0.4746 0.1112
vn -0.9159 0.3908 0.0916
vn -0.6477 0.2430 0.7221
vn 0.0000 0.9736 0.2282
vn -0.7071 -0.1614 0.6884
vn -0.0000 0.2754 0.9613
vn 0.0000 -0.2282 0.9736
vn -1.0000 -0.0000 0.0000
vn -0.7071 0.1614 -0.6885
vn -0.6174 0.6155 -0.4899
vn 0.0000 0.2282 -0.9736
vn 0.0000 0.6738 -0.7389
vn 0.7071 0.1614 -0.6885
vn 0.6174 0.6155 -0.4899
vn 1.0000 -0.0000 0.0000
vn 0.8731 0.4746 0.1112
vn 0.7071 -0.1614 0.6884
vn 0.6174 0.3337 0.7123
vn 0.0000 0.5998 -0.8001
vn -0.6477 0.5386 -0.5390
vn 0.9159 0.3908 0.0916
vn 0.6476 0.5386 -0.5390
vn -0.0000 0.1818 0.9833
vn 0.6476 0.2430 0.7221
vn -0.7071 0.1614 -0.6884
vn 0.7071 0.1614 -0.6884
vn 0.0000 0.9962 0.0872
vn 0.0000 0.1349 -0.9909
vn 0.0000 0.0872 -0.9962
vn 0.0000 -0.0872 0.9962
vn 0.0000 -0.9962 -0.0872
vn -0.9571 0.2888 0.0253
vn 0.0000 -0.0392 0.9992
vn 0.9571 0.2888 0.0253
usemtl None.004
s 1
f 1/1/1 2/2/2 3/3/3 4/4/4
f 5/5/5 6/6/5 7/7/5 8/8/5 9/9/5 10/10/5 11/11/5 12/12/5
f 12/13/6 1/1/1 13/14/7 5/5/8
f 11/15/9 2/2/2 1/1/1 12/13/6
f 10/16/10 14/17/11 2/2/2 11/15/9
f 9/18/12 15/19/13 14/17/11 10/16/10
f 8/20/14 16/21/15 15/19/13 9/18/12
f 7/22/16 17/23/17 16/21/15 8/20/14
f 6/24/18 18/25/19 17/23/17 7/22/16
f 5/5/8 13/14/7 18/26/19 6/6/18
f 14/17/11 15/19/13 19/27/20 20/28/21
f 16/21/15 17/23/17 21/29/22 22/30/23
f 18/26/19 13/14/7 23/31/24 24/32/25
f 13/14/7 1/1/1 4/4/4 23/31/24
f 2/2/2 14/17/11 20/28/21 3/3/3
f 15/19/13 16/21/15 22/30/23 19/27/20
f 3/3/3 20/28/21 25/33/26 26/34/9
f 17/23/17 18/25/19 24/35/25 21/29/22
f 19/27/20 22/30/23 27/36/27 28/37/12
f 21/29/22 24/35/25 29/38/18 30/39/16
f 4/4/4 3/3/3 26/34/9 31/40/6
f 20/28/21 19/27/20 28/37/12 25/33/26
f 22/30/23 21/29/22 30/39/16 27/36/27
f 24/32/25 23/31/24 32/41/8 29/42/18
f 23/31/24 4/4/4 31/40/6 32/41/8
f 33/43/9 34/44/9 35/45/9 36/46/9
f 36/46/28 35/45/28 37/47/28 38/48/28
f 38/48/16 37/47/16 39/49/16 40/50/16
f 41/51/29 42/52/29 43/53/29 44/54/29
f 36/55/30 38/56/30 40/57/30 33/58/30
f 37/47/31 35/45/31 34/59/31 39/60/31
f 41/61/32 45/62/32 34/44/32 33/43/32
f 46/63/32 42/64/32 40/50/32 39/49/32
f 42/65/32 41/66/32 33/58/32 40/57/32
f 45/67/32 46/68/32 39/60/32 34/59/32
f 43/53/32 47/69/32 48/70/32 44/54/32
f 45/71/33 41/51/33 44/54/33 48/70/33
f 46/72/34 45/71/34 48/70/34 47/69/34
f 42/52/35 46/72/35 47/69/35 43/53/35
