# Blender v2.79 (sub 0) OBJ File: 'mod_Putzmittel_2.blend'
# www.blender.org
g Putzmittel_2
v -0.011916 0.357346 0.023749
v -0.026034 0.356627 0.009097
v -0.011916 0.357346 -0.029520
v -0.026034 0.356627 -0.014867
v 0.011916 0.357346 0.023749
v 0.026034 0.356627 0.009097
v 0.026034 0.356627 -0.014867
v 0.011916 0.357346 -0.029520
v -0.026673 0.417623 0.008840
v -0.011419 0.419523 0.022363
v -0.011419 0.419523 -0.028134
v -0.026673 0.417623 -0.014611
v 0.026673 0.417623 -0.014611
v 0.011419 0.419523 -0.028134
v 0.011419 0.419523 0.022363
v 0.026673 0.417623 0.008840
v 0.000000 0.424057 -0.002885
v -0.031797 0.423159 0.011093
v -0.013983 0.425036 0.028033
v -0.013983 0.425036 -0.033803
v -0.031797 0.423159 -0.016863
v 0.031797 0.423159 -0.016863
v 0.013983 0.425036 -0.033803
v 0.013983 0.425036 0.028033
v 0.031797 0.423159 0.011093
v -0.031797 0.382308 0.011093
v -0.013983 0.380431 0.028033
v -0.013983 0.380431 -0.033803
v -0.031797 0.382308 -0.016863
v 0.031797 0.382308 -0.016863
v 0.013983 0.380431 -0.033803
v 0.013983 0.380431 0.028033
v 0.031797 0.382308 0.011093
v 0.000000 0.000000 -0.089184
v 0.000000 0.320502 -0.089184
v 0.069727 0.000000 -0.055605
v 0.069727 0.320502 -0.055605
v 0.086948 0.000000 0.019845
v 0.086948 0.320502 0.019845
v 0.038695 0.000000 0.080352
v 0.038695 0.320502 0.080352
v -0.038695 0.000000 0.080352
v -0.038695 0.320502 0.080352
v -0.086948 0.000000 0.019845
v -0.086948 0.320502 0.019845
v -0.069727 0.000000 -0.055605
v -0.069727 0.320502 -0.055605
v 0.021174 0.385355 -0.019961
v 0.000000 0.385355 -0.030158
v 0.026404 0.385355 0.002952
v 0.011751 0.385355 0.021326
v -0.011751 0.385355 0.021326
v -0.026404 0.385355 0.002952
v -0.021174 0.385355 -0.019961
vn 0.0000 1.0000 0.0000
vn -0.0404 0.9988 0.0279
vn -0.0404 0.9988 -0.0279
vn -0.0272 0.9987 -0.0439
vn 0.0272 0.9987 -0.0439
vn 0.0404 0.9988 -0.0279
vn 0.0272 0.9987 0.0439
vn -0.0272 0.9987 0.0439
vn 0.0404 0.9988 0.0279
vn 0.3618 0.0000 -0.9323
vn -0.3618 0.0000 -0.9323
vn -0.3618 0.0000 0.9323
vn 0.3618 0.0000 0.9323
vn 0.9149 0.0000 0.4036
vn -0.9149 0.0000 -0.4036
vn 0.9149 0.0000 -0.4036
vn -0.9149 0.0000 0.4036
vn -0.0000 0.0000 -1.0000
vn -0.0000 0.3311 -0.9436
vn 0.7380 0.3350 -0.5858
vn 0.7818 0.0000 -0.6235
vn 0.9151 0.3434 0.2115
vn 0.9749 0.0000 0.2225
vn 0.4055 0.3497 0.8445
vn 0.4339 0.0000 0.9010
vn -0.4055 0.3497 0.8445
vn -0.4339 0.0000 0.9010
vn -0.9151 0.3434 0.2115
vn -0.9749 0.0000 0.2225
vn 0.3104 0.7072 0.6353
vn -0.3104 0.7072 0.6353
vn -0.7380 0.3350 -0.5858
vn -0.7818 0.0000 -0.6235
vn 0.0000 -1.0000 0.0000
vn -0.5684 0.6801 -0.4631
vn 0.0000 0.6731 -0.7396
vn 0.5684 0.6801 -0.4631
vn 0.7027 0.6953 0.1509
vn -0.7027 0.6953 0.1509
s 1
f 17//1 21//2 18//3
f 17//1 18//3 19//4
f 17//1 24//5 25//6
f 17//1 23//7 20//8
f 17//1 19//4 24//5
f 17//1 22//9 23//7
f 17//1 25//6 22//9
f 17//1 20//8 21//2
f 23//10 31//10 28//11 20//11
f 19//12 27//12 32//13 24//13
f 24//13 32//13 33//14 25//14
f 20//11 28//11 29//15 21//15
f 25//14 33//14 30//16 22//16
f 21//15 29//15 26//17 18//17
f 18//17 26//17 27//12 19//12
f 22//16 30//16 31//10 23//10
f 34//18 35//19 37//20 36//21
f 36//21 37//20 39//22 38//23
f 38//23 39//22 41//24 40//25
f 40//25 41//24 43//26 42//27
f 42//27 43//26 45//28 44//29
f 43//26 41//24 51//30 52//31
f 44//29 45//28 47//32 46//33
f 46//33 47//32 35//19 34//18
f 34//34 36//34 38//34 40//34 42//34 44//34 46//34
f 35//19 47//32 54//35 49//36
f 39//22 37//20 48//37 50//38
f 45//28 43//26 52//31 53//39
f 37//20 35//19 49//36 48//37
f 41//24 39//22 50//38 51//30
f 47//32 45//28 53//39 54//35
l 2 1
l 3 4
l 5 6
l 7 8
l 4 2
l 8 3
l 6 7
l 1 5
l 12 11
l 14 13
l 16 15
l 10 9
l 15 10
l 9 12
l 11 14
l 13 16
