# Blender v2.78 (sub 0) OBJ File: 'Abstellkammer_UVbearbeiten.blend'
# www.blender.org
mtllib mod_Putzmittel_1.mtl
g Putzmittel_1_Putzmittel_2.002
v 0.000001 0.424057 -0.002885
v -0.031796 0.423159 -0.016863
v -0.031796 0.423159 0.011093
v -0.013982 0.425036 0.028033
v 0.013984 0.425036 0.028033
v 0.031798 0.423159 0.011093
v 0.013984 0.425036 -0.033803
v -0.013982 0.425036 -0.033803
v 0.031798 0.423159 -0.016863
v 0.013984 0.380431 -0.033803
v -0.013982 0.380431 -0.033803
v -0.013982 0.380431 0.028033
v 0.013984 0.380431 0.028033
v 0.031798 0.382308 0.011093
v -0.031796 0.382308 -0.016863
v 0.031798 0.382308 -0.016863
v -0.031796 0.382308 0.011093
v 0.000001 0.000000 -0.089184
v 0.000001 0.320502 -0.089184
v 0.069728 0.320502 -0.055605
v 0.069728 0.000000 -0.055605
v 0.086949 0.320502 0.019845
v 0.086949 -0.000000 0.019845
v 0.038696 0.320502 0.080352
v 0.038696 -0.000000 0.080352
v -0.038694 0.320502 0.080352
v -0.038694 -0.000000 0.080352
v -0.086947 0.320502 0.019845
v -0.086947 -0.000000 0.019845
v 0.011752 0.385355 0.021326
v -0.011750 0.385355 0.021326
v -0.069726 0.320502 -0.055605
v -0.069726 0.000000 -0.055605
v -0.021173 0.385355 -0.019961
v 0.000001 0.385355 -0.030158
v 0.021175 0.385355 -0.019961
v 0.026405 0.385355 0.002952
v -0.026403 0.385355 0.002952
v -0.026033 0.356627 0.009097
v -0.011915 0.357346 0.023749
v -0.011915 0.357346 -0.029520
v -0.026033 0.356627 -0.014867
v 0.011917 0.357346 0.023749
v 0.026035 0.356627 0.009097
v 0.026035 0.356627 -0.014867
v 0.011917 0.357346 -0.029520
v -0.026672 0.417623 -0.014611
v -0.011418 0.419523 -0.028134
v 0.011420 0.419523 -0.028134
v 0.026674 0.417623 -0.014611
v 0.026674 0.417623 0.008840
v 0.011420 0.419523 0.022363
v -0.011418 0.419523 0.022363
v -0.026672 0.417623 0.008840
vt 0.7074 0.2787
vt 0.7200 0.2779
vt 0.6947 0.2779
vt 0.6794 0.2796
vt 0.6794 0.2796
vt 0.6947 0.2779
vt 0.7353 0.2796
vt 0.7353 0.2796
vt 0.7200 0.2779
vt 0.7353 0.2393
vt 0.7353 0.2393
vt 0.6794 0.2393
vt 0.6794 0.2393
vt 0.6947 0.2410
vt 0.7200 0.2410
vt 0.7200 0.2410
vt 0.6947 0.2410
vt 0.8559 0.0159
vt 0.8559 0.2128
vt 0.7974 0.2128
vt 0.7974 0.0159
vt 0.7389 0.2128
vt 0.7389 0.0159
vt 0.6804 0.2128
vt 0.6804 0.0159
vt 0.6219 0.2128
vt 0.6219 0.0159
vt 0.5634 0.2128
vt 0.5634 0.0159
vt 0.5615 0.2197
vt 0.5615 0.2197
vt 0.6061 0.2688
vt 0.6061 0.2688
vt 0.9729 0.0159
vt 0.9729 0.2128
vt 0.9144 0.2128
vt 0.9144 0.0159
vt 0.7639 0.2617
vt 0.7802 0.2539
vt 0.7842 0.2363
vt 0.7729 0.2222
vt 0.7549 0.2222
vt 0.7437 0.2363
vt 0.7477 0.2539
vt 0.6898 0.2197
vt 0.6644 0.2197
vt 0.6374 0.2688
vt 0.6451 0.2688
vt 0.6073 0.2197
vt 0.6644 0.2197
vt 0.6374 0.2688
vt 0.6200 0.2688
vt 0.6073 0.2197
vt 0.6200 0.2688
vn 0.0000 1.0000 -0.0000
vn -0.0405 0.9988 0.0279
vn -0.0405 0.9988 -0.0279
vn -0.0272 0.9987 -0.0439
vn 0.0272 0.9987 -0.0439
vn 0.0405 0.9988 -0.0279
vn 0.0272 0.9987 0.0439
vn -0.0272 0.9987 0.0439
vn 0.0405 0.9988 0.0279
vn 0.3618 0.0000 -0.9323
vn -0.3618 0.0000 -0.9323
vn -0.3618 -0.0000 0.9323
vn 0.3618 -0.0000 0.9323
vn 0.9149 -0.0000 0.4036
vn -0.9149 0.0000 -0.4036
vn 0.9149 0.0000 -0.4036
vn -0.9149 -0.0000 0.4036
vn 0.0000 0.0000 -1.0000
vn 0.0000 0.3311 -0.9436
vn 0.7380 0.3350 -0.5858
vn 0.7818 0.0000 -0.6235
vn 0.9151 0.3434 0.2115
vn 0.9749 -0.0000 0.2225
vn 0.4055 0.3497 0.8445
vn 0.4339 -0.0000 0.9010
vn -0.4055 0.3497 0.8445
vn -0.4339 -0.0000 0.9010
vn -0.9151 0.3434 0.2115
vn -0.9749 -0.0000 0.2225
vn 0.3104 0.7072 0.6353
vn -0.3104 0.7072 0.6353
vn -0.7380 0.3350 -0.5858
vn -0.7818 0.0000 -0.6235
vn -0.0000 -1.0000 -0.0000
vn -0.5684 0.6801 -0.4631
vn 0.0000 0.6731 -0.7396
vn 0.5684 0.6801 -0.4631
vn 0.7027 0.6953 0.1509
vn -0.7027 0.6953 0.1509
usemtl None
s 1
f 1/1/1 2/2/2 3/3/3
f 1/1/1 3/3/3 4/4/4
f 1/1/1 5/5/5 6/6/6
f 1/1/1 7/7/7 8/8/8
f 1/1/1 4/4/4 5/5/5
f 1/1/1 9/9/9 7/7/7
f 1/1/1 6/6/6 9/9/9
f 1/1/1 8/8/8 2/2/2
f 7/7/10 10/10/10 11/11/11 8/8/11
f 4/4/12 12/12/12 13/13/13 5/5/13
f 5/5/13 13/13/13 14/14/14 6/6/14
f 8/8/11 11/11/11 15/15/15 2/2/15
f 6/6/14 14/14/14 16/16/16 9/9/16
f 2/2/15 15/15/15 17/17/17 3/3/17
f 3/3/17 17/17/17 12/12/12 4/4/12
f 9/9/16 16/16/16 10/10/10 7/7/10
f 18/18/18 19/19/19 20/20/20 21/21/21
f 21/21/21 20/20/20 22/22/22 23/23/23
f 23/23/23 22/22/22 24/24/24 25/25/25
f 25/25/25 24/24/24 26/26/26 27/27/27
f 27/27/27 26/26/26 28/28/28 29/29/29
f 26/30/26 24/31/24 30/32/30 31/33/31
f 29/34/29 28/35/28 32/36/32 33/37/33
f 33/37/33 32/36/32 19/19/19 18/18/18
f 18/38/34 21/39/34 23/40/34 25/41/34 27/42/34 29/43/34 33/44/34
f 19/45/19 32/46/32 34/47/35 35/48/36
f 22/49/22 20/50/20 36/51/37 37/52/38
f 28/53/28 26/30/26 31/33/31 38/54/39
f 20/50/20 19/45/19 35/48/36 36/51/37
f 24/31/24 22/49/22 37/52/38 30/32/30
f 32/46/32 28/53/28 38/54/39 34/47/35
l 43 44
l 42 39
l 46 41
l 54 47
l 49 50
l 52 53
l 45 46
l 51 52
l 40 43
l 48 49
l 50 51
l 53 54
l 47 48
l 39 40
l 41 42
l 44 45
