# Blender v2.79 (sub 0) OBJ File: 'mod_Kiste_2.blend'
# www.blender.org
g Kiste_2
v 0.000000 0.046020 0.000000
v 0.000000 0.722020 0.000000
v 0.000000 0.046020 -1.690000
v 0.000000 0.722020 -1.690000
v 1.014000 0.046020 0.000000
v 1.014000 0.722020 0.000000
v 1.014000 0.046020 -1.690000
v 1.014000 0.722020 -1.690000
v 0.000000 0.046020 -0.542459
v 0.000000 0.046020 -0.373459
v 0.000000 0.722020 -0.373459
v 0.000000 0.722020 -0.542459
v 1.014000 0.046020 -0.373459
v 1.014000 0.046020 -0.542459
v 1.014000 0.722020 -0.542459
v 1.014000 0.722020 -0.373459
v 0.000000 0.722020 -1.146262
v 0.000000 0.722020 -1.315333
v 1.014000 0.046020 -1.146262
v 1.014000 0.046020 -1.315333
v 0.000000 0.046020 -1.315333
v 0.000000 0.046020 -1.146262
v 1.014000 0.722020 -1.315333
v 1.014000 0.722020 -1.146262
v -0.045962 0.000058 -0.542459
v -0.045962 0.000058 -0.373459
v -0.045962 0.767982 -0.373459
v -0.045962 0.767982 -0.542459
v 1.059962 0.000058 -0.373459
v 1.059962 0.000058 -0.542459
v 1.059962 0.767982 -0.542459
v 1.059962 0.767982 -0.373459
v -0.045962 0.767982 -1.146262
v -0.045962 0.767982 -1.315333
v 1.059962 0.000058 -1.146262
v 1.059962 0.000058 -1.315333
v -0.045962 0.000058 -1.315333
v -0.045962 0.000058 -1.146262
v 1.059962 0.767982 -1.315333
v 1.059962 0.767982 -1.146262
vn -1.0000 0.0000 0.0000
vn 0.0000 0.0000 -1.0000
vn 1.0000 0.0000 0.0000
vn 0.0000 0.0000 1.0000
vn 0.0000 -1.0000 0.0000
vn 0.0000 1.0000 0.0000
s off
f 21//1 18//1 4//1 3//1
f 3//2 4//2 8//2 7//2
f 13//3 16//3 6//3 5//3
f 5//4 6//4 2//4 1//4
f 10//5 13//5 5//5 1//5
f 16//6 11//6 2//6 6//6
f 24//6 17//6 12//6 15//6
f 23//2 18//2 34//2 39//2
f 22//5 19//5 14//5 9//5
f 16//4 13//4 29//4 32//4
f 19//3 24//3 15//3 14//3
f 19//4 22//4 38//4 35//4
f 1//1 2//1 11//1 10//1
f 14//2 15//2 31//2 30//2
f 7//3 8//3 23//3 20//3
f 21//2 20//2 36//2 37//2
f 3//5 7//5 20//5 21//5
f 13//4 10//4 26//4 29//4
f 8//6 4//6 18//6 23//6
f 24//4 19//4 35//4 40//4
f 9//1 12//1 17//1 22//1
f 9//2 14//2 30//2 25//2
f 31//6 28//6 27//6 32//6
f 25//5 30//5 29//5 26//5
f 30//3 31//3 32//3 29//3
f 26//1 27//1 28//1 25//1
f 36//3 39//3 40//3 35//3
f 37//5 36//5 35//5 38//5
f 39//6 34//6 33//6 40//6
f 38//1 33//1 34//1 37//1
f 10//4 11//4 27//4 26//4
f 17//4 24//4 40//4 33//4
f 12//2 9//2 25//2 28//2
f 22//4 17//4 33//4 38//4
f 15//2 12//2 28//2 31//2
f 18//2 21//2 37//2 34//2
f 11//4 16//4 32//4 27//4
f 20//2 23//2 39//2 36//2
