# Blender v2.79 (sub 0) OBJ File: 'mod_Schuhschrank_Eingangshalle.blend'
# www.blender.org
mtllib mod_Schuhschrank_Eingangshalle.mtl
g mod_Schuhschrank_Eingangshalle
v 0.000000 0.275154 0.723466
v 0.000000 0.311814 0.723466
v 0.000000 0.275154 -0.723466
v 0.000000 0.311814 -0.723466
v 0.463983 0.311814 0.723466
v 0.463983 0.311814 -0.723466
v 0.463983 0.275154 -0.723466
v 0.463983 0.275154 0.723466
v 0.431961 0.104794 0.479917
v 0.431961 0.075119 0.479917
v 0.431961 0.104794 0.510261
v 0.431961 0.075119 0.510261
v 0.032022 0.104794 0.479917
v 0.032022 0.075119 0.479917
v 0.032022 0.104794 0.510261
v 0.032022 0.075119 0.510261
v 0.431961 0.104794 0.279917
v 0.431961 0.075119 0.279917
v 0.431961 0.104794 0.310261
v 0.431961 0.075119 0.310261
v 0.032022 0.104794 0.279917
v 0.032022 0.075119 0.279917
v 0.032022 0.104794 0.310261
v 0.032022 0.075119 0.310261
v 0.431961 0.104794 0.079917
v 0.431961 0.075119 0.079917
v 0.431961 0.104794 0.110261
v 0.431961 0.075119 0.110261
v 0.032022 0.104794 0.079917
v 0.032022 0.075119 0.079917
v 0.032022 0.104794 0.110261
v 0.032022 0.075119 0.110261
v 0.431961 0.104794 -0.120083
v 0.431961 0.075119 -0.120083
v 0.431961 0.104794 -0.089739
v 0.431961 0.075119 -0.089739
v 0.032022 0.104794 -0.120083
v 0.032022 0.075119 -0.120083
v 0.032022 0.104794 -0.089739
v 0.032022 0.075119 -0.089739
v 0.431961 0.104794 -0.320083
v 0.431961 0.075119 -0.320083
v 0.431961 0.104794 -0.289739
v 0.431961 0.075119 -0.289739
v 0.032022 0.104794 -0.320083
v 0.032022 0.075119 -0.320083
v 0.032022 0.104794 -0.289739
v 0.032022 0.075119 -0.289739
v 0.431961 0.104794 -0.520083
v 0.431961 0.075119 -0.520083
v 0.431961 0.104794 -0.489739
v 0.431961 0.075119 -0.489739
v 0.032022 0.104794 -0.520083
v 0.032022 0.075119 -0.520083
v 0.032022 0.104794 -0.489739
v 0.032022 0.075119 -0.489739
v 0.032022 0.059935 0.623605
v 0.032022 0.075119 0.623605
v 0.032022 0.059935 -0.623605
v 0.032022 0.075119 -0.623605
v 0.431961 0.075119 0.623605
v 0.431961 0.075119 -0.623605
v 0.431961 0.059935 -0.623605
v 0.431961 0.059935 0.623605
v 0.397638 0.275154 0.623196
v 0.397638 0.275154 -0.623328
v 0.425515 0.275154 -0.623328
v 0.425515 0.275154 0.623196
v 0.425515 0.226406 -0.623328
v 0.425515 0.226406 0.623196
v 0.397638 0.226406 -0.623328
v 0.397638 0.226406 0.623196
v 0.066344 0.275154 0.623196
v 0.066344 0.275154 -0.623328
v 0.038467 0.275154 -0.623328
v 0.038467 0.275154 0.623196
v 0.038467 0.226406 -0.623328
v 0.038467 0.226406 0.623196
v 0.066344 0.226406 -0.623328
v 0.066344 0.226406 0.623196
v 0.390998 0.275154 0.665810
v 0.071459 0.275154 0.665810
v 0.071459 0.275154 0.637933
v 0.390998 0.275154 0.637933
v 0.071459 0.226406 0.637933
v 0.390998 0.226406 0.637933
v 0.071459 0.226406 0.665810
v 0.390998 0.226406 0.665810
v 0.390998 0.275154 -0.665810
v 0.071459 0.275154 -0.665810
v 0.071459 0.275154 -0.637933
v 0.390998 0.275154 -0.637933
v 0.071459 0.226406 -0.637933
v 0.390998 0.226406 -0.637933
v 0.071459 0.226406 -0.665810
v 0.390998 0.226406 -0.665810
v 0.390280 0.275154 0.681240
v 0.390280 0.275154 0.622503
v 0.445573 0.275154 0.622503
v 0.445573 0.275154 0.681240
v 0.445573 -0.000000 0.622502
v 0.445573 -0.000000 0.681239
v 0.390280 -0.000000 0.622502
v 0.390280 -0.000000 0.681239
v 0.073703 0.275154 0.681240
v 0.073703 0.275154 0.622503
v 0.018409 0.275154 0.622503
v 0.018409 0.275154 0.681240
v 0.018409 -0.000000 0.622502
v 0.018409 -0.000000 0.681239
v 0.073703 -0.000000 0.622502
v 0.073703 -0.000000 0.681239
v 0.390280 0.275154 -0.681240
v 0.390280 0.275154 -0.622503
v 0.445573 0.275154 -0.622503
v 0.445573 0.275154 -0.681240
v 0.445573 -0.000000 -0.622502
v 0.445573 -0.000000 -0.681239
v 0.390280 -0.000000 -0.622502
v 0.390280 -0.000000 -0.681239
v 0.073703 0.275154 -0.681240
v 0.073703 0.275154 -0.622503
v 0.018409 0.275154 -0.622503
v 0.018409 0.275154 -0.681240
v 0.018409 -0.000000 -0.622502
v 0.018409 -0.000000 -0.681239
v 0.073703 -0.000000 -0.622502
v 0.073703 -0.000000 -0.681239
vn 0.0000 1.0000 0.0000
vn 0.0000 0.0000 1.0000
vn 0.0000 0.0000 -1.0000
vn 1.0000 0.0000 0.0000
vn -1.0000 0.0000 0.0000
usemtl None
s off
f 6//1 4//1 2//1 5//1
f 5//2 2//2 1//2 8//2
f 7//3 3//3 4//3 6//3
f 7//4 6//4 5//4 8//4
f 9//4 11//4 12//4 10//4
f 11//2 15//2 16//2 12//2
f 13//3 9//3 10//3 14//3
f 11//1 9//1 13//1 15//1
f 17//4 19//4 20//4 18//4
f 19//2 23//2 24//2 20//2
f 21//3 17//3 18//3 22//3
f 19//1 17//1 21//1 23//1
f 25//4 27//4 28//4 26//4
f 27//2 31//2 32//2 28//2
f 29//3 25//3 26//3 30//3
f 27//1 25//1 29//1 31//1
f 33//4 35//4 36//4 34//4
f 35//2 39//2 40//2 36//2
f 37//3 33//3 34//3 38//3
f 35//1 33//1 37//1 39//1
f 41//4 43//4 44//4 42//4
f 43//2 47//2 48//2 44//2
f 45//3 41//3 42//3 46//3
f 43//1 41//1 45//1 47//1
f 49//4 51//4 52//4 50//4
f 51//2 55//2 56//2 52//2
f 53//3 49//3 50//3 54//3
f 51//1 49//1 53//1 55//1
f 62//1 60//1 58//1 61//1
f 61//2 58//2 57//2 64//2
f 63//3 59//3 60//3 62//3
f 63//4 62//4 61//4 64//4
f 65//5 66//5 71//5 72//5
f 67//4 68//4 70//4 69//4
f 73//4 80//4 79//4 74//4
f 75//5 77//5 78//5 76//5
f 81//2 82//2 87//2 88//2
f 83//3 84//3 86//3 85//3
f 89//3 96//3 95//3 90//3
f 91//2 93//2 94//2 92//2
f 97//5 98//5 103//5 104//5
f 99//4 100//4 102//4 101//4
f 104//2 102//2 100//2 97//2
f 98//3 99//3 101//3 103//3
f 105//4 112//4 111//4 106//4
f 107//5 109//5 110//5 108//5
f 112//2 105//2 108//2 110//2
f 106//3 111//3 109//3 107//3
f 113//5 120//5 119//5 114//5
f 115//4 117//4 118//4 116//4
f 120//3 113//3 116//3 118//3
f 114//2 119//2 117//2 115//2
f 121//4 122//4 127//4 128//4
f 123//5 124//5 126//5 125//5
f 128//3 126//3 124//3 121//3
f 122//2 123//2 125//2 127//2
