# Blender v2.79 (sub 0) OBJ File: 'mod_Tisch_Eingangshalle.blend'
# www.blender.org
g Tisch_Eingangshalle
v -0.072423 0.000000 0.960580
v -0.072423 0.057266 0.960580
v -0.072423 0.000000 0.709720
v -0.072423 0.057266 0.709720
v 0.072423 0.000000 0.960580
v 0.072423 0.057266 0.960580
v 0.072423 0.000000 0.709720
v 0.072423 0.057266 0.709720
v 0.960580 -0.000000 0.072423
v 0.960580 0.057266 0.072423
v 0.709720 -0.000000 0.072423
v 0.709720 0.057266 0.072423
v 0.960580 -0.000000 -0.072423
v 0.960580 0.057266 -0.072423
v 0.709720 -0.000000 -0.072423
v 0.709720 0.057266 -0.072423
v 0.072423 -0.000000 -0.960580
v 0.072423 0.057266 -0.960580
v 0.072423 -0.000000 -0.709720
v 0.072423 0.057266 -0.709720
v -0.072423 -0.000000 -0.960580
v -0.072423 0.057266 -0.960580
v -0.072423 -0.000000 -0.709720
v -0.072423 0.057266 -0.709720
v -0.960580 -0.000000 -0.072424
v -0.960580 0.057266 -0.072424
v -0.709720 -0.000000 -0.072424
v -0.709720 0.057266 -0.072424
v -0.960580 -0.000000 0.072423
v -0.960580 0.057266 0.072423
v -0.709720 -0.000000 0.072423
v -0.709720 0.057266 0.072423
v 0.000000 1.440000 -1.400000
v -0.700000 1.440000 -1.212435
v -1.212436 1.440000 -0.700000
v -1.400000 1.440000 0.000000
v -1.212435 1.440000 0.700000
v -0.700000 1.440000 1.212435
v -0.000000 1.440000 1.400000
v 0.700000 1.440000 1.212436
v 1.212435 1.440000 0.700000
v 1.400000 1.440000 0.000001
v 1.212436 1.440000 -0.699999
v 0.700001 1.440000 -1.212435
v -0.700000 1.318965 -1.212435
v 0.000000 1.318965 -1.400000
v -1.212436 1.318965 -0.700000
v -1.400000 1.318965 0.000000
v -1.212435 1.318965 0.700000
v -0.700000 1.318965 1.212435
v -0.000000 1.318965 1.400000
v 0.700000 1.318965 1.212436
v 1.212435 1.318965 0.700000
v 1.400000 1.318965 0.000001
v 1.212436 1.318965 -0.699999
v 0.700001 1.318965 -1.212435
v -0.000000 1.370000 -0.076833
v -0.066539 1.370000 -0.038416
v -0.066539 1.370000 0.038416
v -0.000000 1.370000 0.076833
v 0.066539 1.370000 0.038416
v 0.066539 1.370000 -0.038416
v -0.000000 0.408027 -0.153179
v -0.132657 0.408027 -0.076590
v -0.132657 0.408027 0.076590
v -0.000000 0.408027 0.153179
v 0.132657 0.408027 0.076590
v 0.132657 0.408027 -0.076590
v -0.000000 0.626854 -0.076833
v -0.066539 0.626854 -0.038416
v -0.066539 0.626854 0.038416
v -0.000000 0.626854 0.076833
v 0.066539 0.626854 0.038416
v 0.066539 0.626854 -0.038416
v 0.066539 0.998427 -0.038416
v -0.000000 0.998427 0.076833
v -0.066539 0.998427 0.038416
v -0.000000 0.998427 -0.076833
v 0.066539 0.998427 0.038416
v -0.066539 0.998427 -0.038416
v -0.000000 0.824570 0.117430
v -0.000000 0.824570 -0.117430
v 0.101698 0.824570 -0.058715
v -0.101698 0.824570 0.058715
v 0.101698 0.824570 0.058715
v -0.101698 0.824570 -0.058715
v 0.104971 1.184214 -0.060605
v -0.104971 1.184214 0.060605
v 0.104971 1.184214 0.060605
v -0.104971 1.184214 -0.060605
v -0.000000 1.184214 0.121210
v -0.000000 1.184214 -0.121210
v -0.080056 0.121918 -0.046221
v 0.080057 0.121918 -0.046221
v -0.000000 0.121918 0.092441
v -0.080056 0.121918 0.046221
v -0.000000 0.121918 -0.092441
v 0.080056 0.121918 0.046221
v -0.087571 0.089494 1.002833
v 0.087571 0.089494 1.002833
v 0.165765 0.089494 0.087149
v 0.165765 0.121918 0.087149
v -0.087571 0.089494 0.959285
v -0.087571 0.121918 0.959285
v 0.087571 0.089494 0.959285
v 0.087571 0.121918 0.959285
v 0.087571 0.089494 0.165878
v 0.087571 0.121918 0.165878
v 0.017880 0.121918 0.017673
v -0.087571 0.045744 0.992796
v 0.087571 0.045744 0.992796
v 0.165765 0.045744 0.087149
v -0.087571 0.045744 0.959285
v 0.087571 0.045744 0.959285
v 0.087571 0.045744 0.165878
v 1.002833 0.089494 0.087571
v 1.002833 0.089494 -0.087571
v 0.087149 0.089494 -0.165765
v 0.087149 0.121918 -0.165765
v 0.959285 0.089494 0.087571
v 0.959285 0.121918 0.087571
v 0.959285 0.089494 -0.087571
v 0.959285 0.121918 -0.087571
v 0.165878 0.089494 -0.087571
v 0.165878 0.121918 -0.087571
v 0.017673 0.121918 -0.017880
v 0.992796 0.045744 0.087571
v 0.992796 0.045744 -0.087571
v 0.087149 0.045744 -0.165765
v 0.959285 0.045744 0.087571
v 0.959285 0.045744 -0.087571
v 0.165878 0.045744 -0.087571
v 0.087571 0.089494 -1.002833
v -0.087571 0.089494 -1.002833
v -0.165765 0.089494 -0.087149
v -0.165765 0.121918 -0.087149
v 0.087571 0.089494 -0.959285
v 0.087571 0.121918 -0.959285
v -0.087571 0.089494 -0.959285
v -0.087571 0.121918 -0.959285
v -0.087571 0.089494 -0.165878
v -0.087571 0.121918 -0.165878
v -0.017880 0.121918 -0.017673
v 0.087571 0.045744 -0.992796
v -0.087571 0.045744 -0.992796
v -0.165765 0.045744 -0.087149
v 0.087571 0.045744 -0.959285
v -0.087571 0.045744 -0.959285
v -0.087571 0.045744 -0.165878
v -1.002833 0.089494 -0.087571
v -1.002833 0.089494 0.087571
v -0.087149 0.089494 0.165765
v -0.087149 0.121918 0.165765
v -0.959285 0.089494 -0.087571
v -0.959285 0.121918 -0.087571
v -0.959285 0.089494 0.087571
v -0.959285 0.121918 0.087571
v -0.165878 0.089494 0.087571
v -0.165878 0.121918 0.087571
v -0.017673 0.121918 0.017880
v -0.992796 0.045744 -0.087571
v -0.992796 0.045744 0.087571
v -0.087149 0.045744 0.165765
v -0.959285 0.045744 -0.087571
v -0.959285 0.045744 0.087571
v -0.165878 0.045744 0.087571
vn -1.0000 0.0000 0.0000
vn 0.0000 0.0000 -1.0000
vn 1.0000 0.0000 0.0000
vn 0.0000 0.0000 1.0000
vn 0.0000 1.0000 0.0000
vn 0.5000 0.0000 -0.8660
vn -0.5000 0.0000 -0.8660
vn -0.8660 0.0000 -0.5000
vn 0.8660 0.0000 0.5000
vn -0.5000 0.0000 0.8660
vn 0.8660 0.0000 -0.5000
vn 0.5000 0.0000 0.8660
vn -0.8660 0.0000 0.5000
vn 0.0000 -1.0000 -0.0000
vn 0.8645 0.0584 0.4991
vn 0.8645 0.0584 -0.4991
vn 0.8637 0.0730 -0.4987
vn 0.8637 0.0730 0.4987
vn -0.0000 -0.0027 1.0000
vn 0.8660 -0.0027 0.5000
vn -0.8645 0.0584 -0.4991
vn -0.8645 0.0584 0.4991
vn -0.8637 0.0730 0.4987
vn -0.8637 0.0730 -0.4987
vn 0.8660 -0.0027 -0.5000
vn -0.0000 -0.0027 -1.0000
vn -0.8660 -0.0027 -0.5000
vn -0.8660 -0.0027 0.5000
vn 0.0000 0.2323 0.9726
vn -0.8423 0.2323 0.4863
vn -0.0000 0.0584 -0.9983
vn -0.0000 -0.2077 -0.9782
vn -0.8471 -0.2077 -0.4891
vn -0.8471 -0.2077 0.4891
vn -0.0000 -0.2077 0.9782
vn -0.0000 0.0584 0.9983
vn 0.8471 -0.2077 0.4891
vn 0.8471 -0.2077 -0.4891
vn 0.8660 0.0126 0.5000
vn 0.8660 0.0126 -0.5000
vn -0.8423 0.2323 -0.4863
vn -0.0000 0.2323 -0.9726
vn -0.8660 0.0126 -0.5000
vn -0.8660 0.0126 0.5000
vn -0.0000 0.0126 0.9999
vn -0.0000 0.0730 0.9973
vn 0.8423 0.2323 0.4863
vn 0.8423 0.2323 -0.4863
vn -0.0000 0.0126 -0.9999
vn -0.0000 0.0730 -0.9973
vn -0.0000 0.9492 0.3146
vn 0.9245 0.0000 0.3811
vn -1.0000 0.0000 -0.0003
vn 0.3840 0.0000 0.9233
vn -0.9233 0.0000 0.3840
vn 0.0000 0.3454 0.9385
vn 0.0000 -0.2236 0.9747
vn 0.3146 0.9492 -0.0000
vn 0.3811 0.0000 -0.9245
vn -0.0003 0.0000 1.0000
vn 0.9233 0.0000 -0.3840
vn 0.9385 0.3454 0.0000
vn 0.9747 -0.2236 0.0000
vn -0.0000 0.9492 -0.3146
vn -0.9245 0.0000 -0.3811
vn 1.0000 0.0000 0.0003
vn -0.3840 0.0000 -0.9233
vn 0.0000 0.3454 -0.9385
vn 0.0000 -0.2236 -0.9747
vn -0.3146 0.9492 0.0000
vn -0.3811 0.0000 0.9245
vn 0.0003 0.0000 -1.0000
vn -0.9385 0.3454 0.0000
vn -0.9747 -0.2236 0.0000
s off
f 1//1 2//1 4//1 3//1
f 3//2 4//2 8//2 7//2
f 7//3 8//3 6//3 5//3
f 5//4 6//4 2//4 1//4
f 9//4 10//4 12//4 11//4
f 11//1 12//1 16//1 15//1
f 15//2 16//2 14//2 13//2
f 13//3 14//3 10//3 9//3
f 17//3 18//3 20//3 19//3
f 19//4 20//4 24//4 23//4
f 23//1 24//1 22//1 21//1
f 21//2 22//2 18//2 17//2
f 25//2 26//2 28//2 27//2
f 27//3 28//3 32//3 31//3
f 31//4 32//4 30//4 29//4
f 29//1 30//1 26//1 25//1
s 1
f 33//5 34//5 35//5 36//5 37//5 38//5 39//5 40//5 41//5 42//5 43//5 44//5
f 44//6 56//6 46//2 33//2
f 34//7 45//7 47//8 35//8
f 41//9 53//9 54//3 42//3
f 38//10 50//10 51//4 39//4
f 35//8 47//8 48//1 36//1
f 42//3 54//3 55//11 43//11
f 39//4 51//4 52//12 40//12
f 36//1 48//1 49//13 37//13
f 43//11 55//11 56//6 44//6
f 33//2 46//2 45//7 34//7
f 40//12 52//12 53//9 41//9
f 37//13 49//13 50//10 38//10
f 45//14 46//14 56//14 55//14 54//14 53//14 52//14 51//14 50//14 49//14 48//14 47//14
f 67//15 68//16 74//17 73//18
f 91//4 76//19 79//20 89//9
f 64//21 65//22 71//23 70//24
f 87//11 75//25 78//26 92//2
f 92//2 78//26 80//27 90//8
f 88//13 77//28 76//19 91//4
f 60//29 59//30 88//13 91//4
f 63//31 97//32 93//33 64//21
f 64//21 93//33 96//34 65//22
f 65//22 96//34 95//35 66//36
f 66//36 95//35 98//37 67//15
f 68//16 94//38 97//32 63//31
f 87//11 89//9 79//20 75//25
f 85//39 73//18 74//17 83//40
f 58//41 57//42 92//2 90//8
f 86//43 70//24 71//23 84//44
f 77//28 80//27 86//43 84//44
f 75//25 79//20 85//39 83//40
f 58//41 90//8 88//13 59//30
f 81//45 84//44 71//23 72//46
f 61//47 89//9 87//11 62//48
f 86//43 82//49 69//50 70//24
f 82//49 83//40 74//17 69//50
f 85//39 81//45 72//46 73//18
f 68//16 67//15 98//37 94//38
f 66//36 67//15 73//18 72//46
f 68//16 63//31 69//50 74//17
f 63//31 64//21 70//24 69//50
f 65//22 66//36 72//46 71//23
f 76//19 77//28 84//44 81//45
f 57//42 62//48 87//11 92//2
f 80//27 78//26 82//49 86//43
f 78//26 75//25 83//40 82//49
f 79//20 76//19 81//45 85//39
f 88//13 90//8 80//27 77//28
f 61//47 60//29 91//4 89//9
f 105//3 106//3 100//3
f 108//5 153//5 104//51 106//51
f 107//52 108//52 106//3 105//3
f 99//1 104//53 103//53
f 101//54 102//54 108//52 107//52
f 103//53 104//53 153//55 152//55
f 102//5 109//5 108//5
f 109//5 160//5 153//5 108//5
f 107//52 105//3 114//3 115//52
f 101//54 107//52 115//52 112//54
f 105//3 100//3 111//3 114//3
f 103//53 152//55 163//55 113//53
f 100//56 99//56 110//57 111//57
f 99//1 103//53 113//53 110//1
f 106//51 104//51 99//56 100//56
f 122//2 123//2 117//2
f 125//5 102//5 121//58 123//58
f 124//59 125//59 123//2 122//2
f 116//4 121//60 120//60
f 118//61 119//61 125//59 124//59
f 120//60 121//60 102//54 101//54
f 119//5 126//5 125//5
f 126//5 109//5 102//5 125//5
f 124//59 122//2 131//2 132//59
f 118//61 124//59 132//59 129//61
f 122//2 117//2 128//2 131//2
f 120//60 101//54 112//54 130//60
f 117//62 116//62 127//63 128//63
f 116//4 120//60 130//60 127//4
f 123//58 121//58 116//62 117//62
f 139//1 140//1 134//1
f 142//5 119//5 138//64 140//64
f 141//65 142//65 140//1 139//1
f 133//3 138//66 137//66
f 135//67 136//67 142//65 141//65
f 137//66 138//66 119//61 118//61
f 136//5 143//5 142//5
f 143//5 126//5 119//5 142//5
f 141//65 139//1 148//1 149//65
f 135//67 141//65 149//65 146//67
f 139//1 134//1 145//1 148//1
f 137//66 118//61 129//61 147//66
f 134//68 133//68 144//69 145//69
f 133//3 137//66 147//66 144//3
f 140//64 138//64 133//68 134//68
f 156//4 157//4 151//4
f 159//5 136//5 155//70 157//70
f 158//71 159//71 157//4 156//4
f 150//2 155//72 154//72
f 152//55 153//55 159//71 158//71
f 154//72 155//72 136//67 135//67
f 153//5 160//5 159//5
f 160//5 143//5 136//5 159//5
f 158//71 156//4 165//4 166//71
f 152//55 158//71 166//71 163//55
f 156//4 151//4 162//4 165//4
f 154//72 135//67 146//67 164//72
f 151//73 150//73 161//74 162//74
f 150//2 154//72 164//72 161//2
f 157//70 155//70 150//73 151//73
