# Blender v2.79 (sub 0) OBJ File: 'mod_Spiegel_Eingangshalle.blend'
# www.blender.org
mtllib mod_Spiegel_Eingangshalle.mtl
g Spiegel_Glas
v -0.001779 1.171000 -0.167774
v -0.001779 1.171000 0.167774
v -0.001779 1.399548 -0.137351
v -0.001779 1.399548 0.137351
v -0.001779 1.130282 -0.218815
v -0.001779 1.130282 0.218815
v -0.001779 1.337491 -0.155323
v -0.001779 1.337491 0.155323
v -0.001779 1.095854 -0.224526
v -0.001779 1.095854 0.224526
v -0.001779 1.443773 -0.102242
v -0.001779 1.443773 0.102242
v -0.001779 0.125474 0.224526
v -0.001779 0.125474 -0.224526
v -0.001779 1.474526 -0.028297
v -0.001779 1.474526 0.028297
vn 1.0000 -0.0000 0.0000
usemtl None
s off
f 11//1 15//1 16//1 12//1
f 9//1 5//1 6//1 10//1
f 5//1 1//1 2//1 6//1
f 7//1 3//1 4//1 8//1
f 1//1 7//1 8//1 2//1
f 14//1 9//1 10//1 13//1
f 3//1 11//1 12//1 4//1
g Spiegel_Rahmen
v -0.010510 0.100000 0.250000
v -0.010510 1.500000 0.033383
v -0.010510 0.100000 -0.250000
v -0.010510 1.500000 -0.033383
v 0.010510 0.125474 0.224526
v 0.010510 1.474526 0.028297
v 0.010510 0.125474 -0.224526
v 0.010510 1.474526 -0.028297
v -0.010510 1.183982 0.192348
v -0.010510 1.183982 -0.192348
v 0.010510 1.171000 -0.167774
v 0.010510 1.171000 0.167774
v -0.010510 1.411455 0.160423
v -0.010510 1.411455 -0.160423
v 0.010510 1.399548 -0.137351
v 0.010510 1.399548 0.137351
v -0.010510 1.144098 -0.242345
v 0.010510 1.130282 -0.218815
v 0.010510 1.130282 0.218815
v -0.010510 1.144098 0.242345
v -0.010510 1.342032 -0.180528
v 0.010510 1.337491 -0.155323
v 0.010510 1.337491 0.155323
v -0.010510 1.342032 0.180528
v -0.010510 1.097953 -0.250000
v 0.010510 1.095854 -0.224526
v 0.010510 1.095854 0.224526
v -0.010510 1.097953 0.250000
v -0.010510 1.464766 0.118101
v -0.010510 1.464766 -0.118101
v 0.010510 1.443773 -0.102242
v 0.010510 1.443773 0.102242
v 0.010510 0.100000 0.250000
v 0.010510 0.100000 -0.250000
v 0.010510 1.500000 -0.033383
v 0.010510 1.500000 0.033383
v 0.010510 1.097953 -0.250000
v 0.010510 1.097953 0.250000
v 0.010510 1.342032 -0.180528
v 0.010510 1.183982 -0.192348
v 0.010510 1.342032 0.180528
v 0.010510 1.183982 0.192348
v 0.010510 1.464766 -0.118101
v 0.010510 1.411455 -0.160423
v 0.010510 1.464766 0.118101
v 0.010510 1.411455 0.160423
v 0.010510 1.144098 -0.242345
v 0.010510 1.144098 0.242345
v -0.001779 1.171000 -0.167774
v -0.001779 1.171000 0.167774
v -0.001779 1.399548 -0.137351
v -0.001779 1.399548 0.137351
v -0.001779 1.130282 -0.218815
v -0.001779 1.130282 0.218815
v -0.001779 1.337491 -0.155323
v -0.001779 1.337491 0.155323
v -0.001779 1.095854 -0.224526
v -0.001779 1.095854 0.224526
v -0.001779 1.443773 -0.102242
v -0.001779 1.443773 0.102242
v -0.001779 0.125474 0.224526
v -0.001779 0.125474 -0.224526
v -0.001779 1.474526 -0.028297
v -0.001779 1.474526 0.028297
vn 0.0000 0.7979 -0.6028
vn 0.0000 0.9806 -0.1958
vn 0.0000 -0.4671 -0.8842
vn 0.0000 -0.5063 -0.8623
vn -0.0000 0.7979 0.6028
vn -0.0000 0.9806 0.1958
vn 0.0000 -1.0000 0.0000
vn 0.0000 -0.9806 0.1958
vn 0.0000 -0.9806 -0.1958
vn 0.0000 0.0821 -0.9966
vn 0.0000 0.5063 -0.8623
vn 0.0000 -0.5063 0.8623
vn 0.0000 -0.4671 0.8842
vn 0.0000 0.4671 -0.8842
vn 0.0000 0.1773 0.9842
vn 0.0000 0.4586 0.8886
vn 0.0000 -0.7979 -0.6028
vn 0.0000 0.1773 -0.9842
vn 0.0000 0.4586 -0.8886
vn 0.0000 0.0821 0.9966
vn 0.0000 0.5063 0.8623
vn 0.0000 1.0000 0.0000
vn 0.0000 0.4671 0.8842
vn 0.0000 0.0000 1.0000
vn 0.0000 0.0000 -1.0000
vn 0.0000 -0.4586 -0.8886
vn 0.0000 -0.7979 0.6028
vn 1.0000 0.0000 0.0000
vn 0.0000 -0.0821 0.9966
vn 0.0000 -0.1773 0.9842
vn 0.0000 -0.4586 0.8886
vn 0.0000 -0.0821 -0.9966
vn 0.0000 -0.1773 -0.9842
usemtl None
s 1
f 46//2 20//3 51//3 59//2
f 28//4 35//5 70//5 66//4
f 61//6 52//7 18//7 45//6
f 19//8 50//8 49//8 17//8
f 51//3 20//3 18//7 52//7
f 24//9 22//10 80//10 79//9
f 41//11 33//12 63//12 53//11
f 34//13 27//14 65//14 69//13
f 33//12 26//15 56//15 63//12
f 57//16 62//17 29//17 40//16
f 22//10 48//18 76//18 80//10
f 37//19 30//20 60//20 55//19
f 54//21 64//22 36//22 44//21
f 26//15 37//19 55//19 56//15
f 21//23 23//23 78//23 77//23
f 58//24 57//16 40//16 25//24
f 49//25 54//21 44//21 17//25
f 19//26 41//11 53//11 50//26
f 48//18 32//27 68//27 76//18
f 62//17 61//6 45//6 29//17
f 47//28 24//9 79//9 75//28
f 30//20 46//2 59//2 60//20
f 64//22 58//24 25//24 36//22
f 23//29 21//29 49//29 50//29
f 22//29 24//29 51//29 52//29
f 42//29 23//29 50//29 53//29
f 21//29 43//29 54//29 49//29
f 38//29 27//29 56//29 55//29
f 28//29 39//29 57//29 58//29
f 47//29 31//29 60//29 59//29
f 32//29 48//29 61//29 62//29
f 27//29 34//29 63//29 56//29
f 35//29 28//29 58//29 64//29
f 31//29 38//29 55//29 60//29
f 39//29 32//29 62//29 57//29
f 34//29 42//29 53//29 63//29
f 43//29 35//29 64//29 54//29
f 24//29 47//29 59//29 51//29
f 48//29 22//29 52//29 61//29
f 23//25 42//30 73//30 78//25
f 38//31 31//32 67//32 71//31
f 43//33 21//26 77//26 74//33
f 32//27 39//34 72//34 68//27
f 27//14 38//31 71//31 65//14
f 42//30 34//13 69//13 73//30
f 39//34 28//4 66//4 72//34
f 35//5 43//33 74//33 70//5
f 31//32 47//28 75//28 67//32
