# Blender v2.79 (sub 0) OBJ File: 'mod_Wand_1m.blend'
# www.blender.org
mtllib mod_Wand_1m.mtl
o Wand_1m_Wand
v -0.075000 2.560000 0.000000
v -0.075000 2.560000 -1.000000
v 0.075000 2.560000 0.000000
v 0.075000 2.560000 -1.000000
v -0.075000 0.060000 0.000000
v -0.075000 0.060000 -1.000000
v 0.075000 0.060000 -1.000000
v 0.075000 0.060000 0.000000
v -0.092000 0.000000 -1.000000
v -0.092000 0.000000 0.000000
v 0.092000 0.000000 -1.000000
v 0.092000 0.000000 0.000000
v -0.092000 0.050000 -1.000000
v -0.085000 0.057000 -1.000000
v 0.085000 0.057000 -1.000000
v 0.092000 0.050000 -1.000000
v 0.092000 0.050000 0.000000
v 0.085000 0.057000 0.000000
v -0.085000 0.057000 0.000000
v -0.092000 0.050000 0.000000
vt 0.174981 0.550310
vt 0.174980 0.980665
vt 0.010450 0.980665
vt 0.010450 0.550310
vt 0.174981 0.550310
vt 0.174981 0.980665
vt 0.010450 0.980665
vt 0.010450 0.550310
vt 0.010434 0.547305
vt 0.174964 0.547305
vt 0.010434 0.547305
vt 0.174964 0.547305
vt 0.174946 0.535694
vt 0.174946 0.544301
vt 0.010416 0.544301
vt 0.010416 0.535694
vt 0.174946 0.535694
vt 0.174946 0.544301
vt 0.010416 0.544301
vt 0.010416 0.535694
vn -1.0000 0.0000 0.0000
vn 1.0000 0.0000 0.0000
vn -0.2873 0.9578 0.0000
vn -0.5128 0.8585 0.0000
vn 0.2873 0.9578 0.0000
vn 0.5128 0.8585 0.0000
vn 0.9239 0.3827 0.0000
vn -0.9239 0.3827 0.0000
usemtl None
s 1
f 5/1/1 1/2/1 2/3/1 6/4/1
f 7/5/2 4/6/2 3/7/2 8/8/2
f 5/1/3 6/4/3 14/9/4 19/10/4
f 7/5/5 8/8/5 18/11/6 15/12/6
f 11/13/2 16/14/7 17/15/7 12/16/2
f 10/17/1 20/18/8 13/19/8 9/20/1
f 15/12/6 18/11/6 17/15/7 16/14/7
f 19/10/4 14/9/4 13/19/8 20/18/8
