# Blender v2.79 (sub 0) OBJ File: 'mod_Wand_Durchreiche.blend'
# www.blender.org
g Wand_Durchreiche
v -0.184000 -0.000014 -1.999989
v -0.150000 0.119986 -1.999989
v -0.170000 0.113986 -1.999989
v -0.184000 0.099986 -1.999989
v -0.150000 4.539991 -1.999999
v -0.150000 1.699988 -1.999990
v -0.150000 5.999987 -2.000000
v 0.150000 5.999988 -2.000000
v 0.150000 4.539989 -1.999999
v 0.405000 1.699849 -1.999993
v 0.405000 1.749849 -1.999993
v -0.405028 1.699849 -1.999993
v -0.405028 1.749849 -1.999993
v -0.150000 6.000005 -0.000014
v 0.150000 6.000005 -0.000014
v 0.150000 0.120000 -0.000000
v -0.184000 0.000000 0.000000
v -0.150000 0.120000 -0.000000
v 0.184000 0.000000 -0.000000
v 0.170000 0.114000 -0.000000
v 0.184000 0.100000 -0.000000
v -0.170000 0.114000 -0.000000
v -0.184000 0.100000 -0.000000
v 0.150000 4.540005 -0.000011
v 0.150000 1.700002 -0.000004
v -0.150000 4.540005 -0.000011
v -0.150000 1.700002 -0.000004
v 0.405000 1.699854 -0.000004
v 0.405000 1.749854 -0.000005
v -0.405028 1.699854 -0.000004
v -0.405028 1.749854 -0.000005
v 0.184000 -0.000015 -1.999989
v 0.184000 0.099985 -1.999989
v 0.150000 0.119985 -1.999989
v 0.170000 0.113985 -1.999989
v 0.150000 1.699987 -1.999992
vt 0.693783 0.056322
vt 0.691690 0.056322
vt 0.691689 0.039577
vt 0.693783 0.039577
vt 0.824673 0.547365
vt 0.824673 0.550331
vt 0.824673 0.550331
vt 0.824673 0.547365
vt 0.826026 0.929717
vt 0.824672 0.929717
vt 0.824668 0.980665
vt 0.826026 0.980665
vt 0.824672 0.684114
vt 0.824673 0.684114
vt 0.566589 0.980665
vt 0.566589 0.929717
vt 0.566589 0.980665
vt 0.566589 0.929717
vt 0.566589 0.547365
vt 0.824673 0.544300
vt 0.566589 0.544301
vt 0.824673 0.535661
vt 0.566589 0.535661
vt 0.566589 0.550332
vt 0.566589 0.550332
vt 0.566589 0.547365
vt 0.566589 0.684114
vt 0.496319 0.076482
vt 0.691668 0.076476
vt 0.496341 0.039583
vt 0.824673 0.544300
vt 0.824673 0.535661
vt 0.496341 0.056328
vt 0.496318 0.059737
vt 0.691667 0.059731
vt 0.494248 0.039583
vt 0.494248 0.056328
vt 0.566589 0.684114
vt 0.566589 0.544301
vt 0.566589 0.535661
vt 0.566597 0.684799
vt 0.566597 0.684412
vn 0.0000 0.0000 1.0000
vn 0.0000 -0.0000 -1.0000
vn 1.0000 -0.0000 0.0000
vn -1.0000 -0.0000 0.0000
vn -0.5128 0.8585 -0.0000
vn -0.9239 0.3827 -0.0000
vn -0.2874 0.9578 -0.0000
vn 0.2874 0.9578 -0.0000
vn 0.5128 0.8585 -0.0000
vn -0.0000 -1.0000 0.0000
vn 0.0000 1.0000 -0.0000
vn 0.9239 0.3827 -0.0000
s off
f 28/1/1 29/2/1 31/3/1 30/4/1
s 1
f 3/5/2 2/6/2 34/7/2 35/8/2
f 9/9/2 5/10/2 7/11/2 8/12/2
f 2/6/2 6/13/2 36/14/2 34/7/2
f 15/15/3 24/16/3 9/9/3 8/12/3
f 14/17/4 7/11/4 5/10/4 26/18/4
f 22/19/5 3/5/5 4/20/6 23/21/6
f 23/21/6 4/20/6 1/22/4 17/23/4
f 18/24/7 2/6/7 3/5/5 22/19/5
f 16/25/8 20/26/9 35/8/9 34/7/8
f 27/27/4 6/13/4 2/6/4 18/24/4
f 9/9/10 24/16/10 26/18/10 5/10/10
f 12/28/4 30/29/4 31/3/4 13/30/4
f 1/22/2 4/20/2 33/31/2 32/32/2
f 31/3/11 29/2/11 11/33/11 13/30/11
f 10/34/3 11/33/3 29/2/3 28/35/3
f 12/36/2 13/30/2 11/33/2 10/37/2
f 25/38/3 16/25/3 34/7/3 36/14/3
f 33/31/12 21/39/12 19/40/3 32/32/3
f 20/26/9 21/39/12 33/31/12 35/8/9
f 4/20/2 3/5/2 35/8/2 33/31/2
f 24/16/2 25/41/2 27/42/2 26/18/2
f 9/9/1 5/10/1 6/13/1 36/14/1
