# Blender v2.79 (sub 0) OBJ File: 'mod_Wand_1m_Endstueck.blend'
# www.blender.org
g Wand_1m_Endstueck
v -0.150000 6.000000 0.000000
v -0.150000 6.000000 -2.000000
v 0.150000 6.000000 0.000000
v 0.150000 6.000000 -2.000000
v -0.150000 0.120000 0.000000
v -0.150000 0.120000 -2.000000
v 0.150000 0.120000 -2.000000
v 0.150000 0.120000 0.000000
v -0.184000 0.000000 -2.000000
v -0.184000 0.000000 0.000000
v 0.184000 0.000000 -2.000000
v 0.184000 0.000000 0.000000
v -0.184000 0.100000 -2.000000
v -0.170000 0.114000 -2.000000
v 0.170000 0.114000 -2.000000
v 0.184000 0.100000 -2.000000
v 0.184000 0.100000 0.000000
v 0.170000 0.114000 0.000000
v -0.170000 0.114000 0.000000
v -0.184000 0.100000 0.000000
vt 0.248604 0.745662
vt 0.248604 0.869132
vt 0.295808 0.869132
vt 0.295808 0.745662
vt 0.295803 0.744800
vt 0.248599 0.744800
vt 0.295798 0.743938
vt 0.248594 0.743938
vt 0.295798 0.741469
vt 0.248594 0.741469
vt 0.174981 0.550310
vt 0.174980 0.980665
vt 0.010450 0.980665
vt 0.010450 0.550310
vt 0.174981 0.550310
vt 0.174981 0.980665
vt 0.010450 0.980665
vt 0.010450 0.550310
vt 0.010434 0.547305
vt 0.174964 0.547305
vt 0.010434 0.547305
vt 0.174964 0.547305
vt 0.174946 0.535694
vt 0.174946 0.544301
vt 0.010416 0.544301
vt 0.010416 0.535694
vt 0.174946 0.535694
vt 0.174946 0.544301
vt 0.010416 0.544301
vt 0.010416 0.535694
vn 0.0000 0.0000 -1.0000
vn -1.0000 0.0000 0.0000
vn 1.0000 0.0000 0.0000
vn -0.2873 0.9578 0.0000
vn -0.5128 0.8585 0.0000
vn 0.2873 0.9578 0.0000
vn 0.5128 0.8585 0.0000
vn 0.9239 0.3827 0.0000
vn -0.9239 0.3827 0.0000
s 1
f 6/1/1 2/2/1 4/3/1 7/4/1
f 6/1/1 7/4/1 15/5/1 14/6/1
f 16/7/1 13/8/1 14/6/1 15/5/1
f 13/8/1 16/7/1 11/9/1 9/10/1
f 5/11/2 1/12/2 2/13/2 6/14/2
f 7/15/3 4/16/3 3/17/3 8/18/3
f 5/11/4 6/14/4 14/19/5 19/20/5
f 7/15/6 8/18/6 18/21/7 15/22/7
f 11/23/3 16/24/8 17/25/8 12/26/3
f 10/27/2 20/28/9 13/29/9 9/30/2
f 15/22/7 18/21/7 17/25/8 16/24/8
f 19/20/5 14/19/5 13/29/9 20/28/9
