# Blender v2.79 (sub 0) OBJ File: 'mod_Wand_+_Form.blend'
# www.blender.org
mtllib mod_Wand_+_Form.mtl
g Wand_+
v -0.075000 3.000000 0.500000
v 0.075000 3.000000 0.500000
v -0.075000 0.060000 0.500000
v 0.075000 0.060000 0.500000
v -0.092000 0.000000 0.500000
v 0.092000 0.000000 0.500000
v 0.092000 0.050000 0.500000
v 0.085000 0.057000 0.500000
v -0.085000 0.057000 0.500000
v -0.092000 0.050000 0.500000
v -0.075000 3.000000 0.075000
v -0.075000 0.060000 0.075000
v 0.085000 0.057000 0.085398
v 0.092000 0.050000 0.092000
v -0.085000 0.057000 0.085398
v -0.092000 0.050000 0.092000
v 0.075000 0.060000 -0.075000
v -0.092000 0.050000 -0.092000
v 0.075000 3.000000 -0.075000
v 0.075000 3.000000 0.075000
v 0.075000 0.060000 0.075000
v 0.500000 0.057000 0.085000
v 0.500000 0.050000 0.092000
v 0.500000 0.000000 0.092000
v 0.500000 0.000000 -0.092000
v 0.500000 3.000000 -0.075000
v 0.500000 0.060000 0.075000
v 0.500000 0.057000 -0.085000
v 0.500000 0.050000 -0.092000
v 0.500000 0.060000 -0.075000
v -0.075000 3.000000 -0.075000
v 0.092000 0.000000 0.092000
v -0.075000 0.060000 -0.075000
v 0.092000 0.000000 -0.092000
v 0.500000 3.000000 0.075000
v 0.092000 0.000000 -0.500000
v -0.092000 0.000000 -0.500000
v -0.085000 0.057000 -0.500000
v -0.092000 0.050000 -0.500000
v 0.075000 3.000000 -0.500000
v 0.075000 0.060000 -0.500000
v -0.075000 3.000000 -0.500000
v -0.075000 0.060000 -0.500000
v 0.085000 0.057000 -0.500000
v 0.092000 0.050000 -0.500000
v 0.085000 0.057000 -0.085398
v 0.092000 0.050000 -0.092000
v -0.500000 0.057000 0.085000
v -0.500000 0.050000 0.092000
v -0.500000 0.000000 0.092000
v -0.500000 0.000000 -0.092000
v -0.500000 3.000000 -0.075000
v -0.500000 0.060000 0.075000
v -0.500000 0.057000 -0.085000
v -0.500000 0.050000 -0.092000
v -0.500000 0.060000 -0.075000
v -0.092000 0.000000 0.092000
v -0.092000 0.000000 -0.092000
v -0.500000 3.000000 0.075000
v -0.085000 0.057000 -0.085398
vt 0.079669 0.550331
vt 0.079668 0.980687
vt 0.010342 0.980686
vt 0.010344 0.550331
vt 0.010344 0.550310
vt 0.010344 0.980665
vt 0.079669 0.550332
vt 0.010344 0.550331
vt 0.010343 0.980687
vt 0.079669 0.980687
vt 0.079669 0.550310
vt 0.079669 0.980665
vt 0.010344 0.980665
vt 0.010344 0.550310
vt 0.010344 0.547366
vt 0.078313 0.547365
vt 0.077452 0.535694
vt 0.077452 0.544301
vt 0.010344 0.544301
vt 0.010344 0.535694
vt 0.010344 0.547365
vt 0.078313 0.547365
vt 0.077453 0.544301
vt 0.010344 0.544301
vt 0.010344 0.535694
vt 0.077453 0.535694
vt 0.010344 0.550310
vt 0.079669 0.550310
vt 0.010344 0.980665
vt 0.079669 0.980665
vt 0.078366 0.547305
vt 0.010344 0.547388
vt 0.010344 0.550332
vt 0.010344 0.547387
vt 0.078366 0.547305
vt 0.010342 0.535716
vt 0.010343 0.544323
vt 0.010344 0.547365
vt 0.078314 0.547365
vt 0.077453 0.544301
vt 0.010343 0.544322
vt 0.077453 0.544301
vt 0.078314 0.547365
vt 0.010344 0.547365
vt 0.010344 0.544301
vt 0.077451 0.535694
vt 0.010342 0.535715
vt 0.010344 0.550310
vt 0.010344 0.980687
vt 0.077453 0.535694
vt 0.010344 0.535694
vt 0.010344 0.980665
vt 0.010344 0.535694
vt 0.010344 0.544301
vt 0.010344 0.550331
vt 0.010344 0.547387
vt 0.078366 0.547305
vt 0.078366 0.547305
vt 0.010344 0.547388
vt 0.010343 0.544322
vt 0.010342 0.535715
vt 0.010343 0.544323
vt 0.010342 0.535716
vt 0.010343 0.980686
vn 0.0000 0.0000 -1.0000
vn 1.0000 0.0000 0.0000
vn 0.1433 0.9786 0.1474
vn 0.2873 0.9578 0.0000
vn 0.5128 0.8585 0.0000
vn 0.2237 0.9503 0.2167
vn 0.8970 0.4421 0.0000
vn 0.9239 0.3827 0.0000
vn -0.5128 0.8585 0.0000
vn -0.2237 0.9503 0.2167
vn -0.8970 0.4421 0.0000
vn -0.9239 0.3827 0.0000
vn -1.0000 0.0000 0.0000
vn -0.2873 0.9578 0.0000
vn -0.1433 0.9786 0.1474
vn 0.0002 0.8563 0.5165
vn 0.0001 0.9594 0.2821
vn 0.1433 0.9786 -0.1474
vn 0.0001 0.9594 -0.2821
vn 0.0002 0.8563 -0.5165
vn 0.2237 0.9503 -0.2167
vn 0.0002 0.4378 0.8991
vn 0.0000 0.0000 1.0000
vn 0.0002 0.3761 0.9266
vn 0.0002 0.4378 -0.8991
vn 0.0002 0.3761 -0.9266
vn -0.2237 0.9503 -0.2167
vn -0.1433 0.9786 -0.1474
vn -0.0001 0.9594 0.2821
vn -0.0002 0.8563 0.5165
vn -0.0002 0.8563 -0.5165
vn -0.0001 0.9594 -0.2821
vn -0.0002 0.4378 0.8991
vn -0.0002 0.3761 0.9266
vn -0.0002 0.4378 -0.8991
vn -0.0002 0.3761 -0.9266
usemtl None
s off
f 17/1/1 19/2/1 26/3/1 30/4/1
f 19/2/2 17/1/2 41/5/2 40/6/2
f 33/7/1 56/8/1 52/9/1 31/10/1
s 1
f 21/11/2 20/12/2 2/13/2 4/14/2
f 21/11/3 4/14/4 8/15/5 13/16/6
f 32/17/2 14/18/7 7/19/8 6/20/2
f 13/16/6 8/15/5 7/19/8 14/18/7
f 9/21/9 15/22/10 16/23/11 10/24/12
f 5/25/13 10/24/12 16/23/11 57/26/13
f 3/27/14 12/28/15 15/22/10 9/21/9
f 3/27/13 1/29/13 11/30/13 12/28/13
f 21/11/3 13/31/6 22/32/16 27/33/17
f 17/1/18 30/4/19 28/34/20 46/35/21
f 14/18/22 32/17/23 24/36/23 23/37/24
f 44/38/5 41/5/4 17/1/18 46/39/21
f 13/31/6 14/18/22 23/37/24 22/32/16
f 47/40/25 46/35/21 28/34/20 29/41/26
f 18/42/11 60/43/27 38/44/9 39/45/12
f 34/46/1 47/40/25 29/41/26 25/47/1
f 60/43/27 33/7/28 43/48/14 38/44/9
f 21/11/23 27/33/23 35/49/23 20/12/23
f 58/50/13 18/42/11 39/45/12 37/51/13
f 33/7/13 31/10/13 42/52/13 43/48/13
f 34/46/2 36/53/2 45/54/8 47/40/7
f 46/39/21 47/40/7 45/54/8 44/38/5
f 12/28/15 53/55/29 48/56/30 15/57/10
f 33/7/28 60/58/27 54/59/31 56/8/32
f 16/23/33 49/60/34 50/61/23 57/26/23
f 15/57/10 48/56/30 49/60/34 16/23/33
f 18/42/35 55/62/36 54/59/31 60/58/27
f 58/50/1 51/63/1 55/62/36 18/42/35
f 12/28/23 11/30/23 59/64/23 53/55/23
