# Blender v2.79 (sub 0) OBJ File: 'mod_Wand_0_5m_Endstueck.blend'
# www.blender.org
g Wand_0,5m_Endstueck
v -0.150000 6.000000 0.000000
v -0.150000 6.000000 -1.000000
v 0.150000 6.000000 0.000000
v 0.150000 6.000000 -1.000000
v -0.150000 0.120000 0.000000
v -0.150000 0.120000 -1.000000
v 0.150000 0.120000 -1.000000
v 0.150000 0.120000 0.000000
v -0.184000 0.000000 -1.000000
v -0.184000 0.000000 0.000000
v 0.184000 0.000000 -1.000000
v 0.184000 0.000000 0.000000
v -0.184000 0.100000 -1.000000
v -0.170000 0.114000 -1.000000
v 0.170000 0.114000 -1.000000
v 0.184000 0.100000 -1.000000
v 0.184000 0.100000 0.000000
v 0.170000 0.114000 0.000000
v -0.170000 0.114000 0.000000
v -0.184000 0.100000 0.000000
vt 0.174947 0.550310
vt 0.174946 0.980665
vt 0.010535 0.980665
vt 0.010535 0.550310
vt 0.174947 0.550310
vt 0.174947 0.980665
vt 0.010535 0.980665
vt 0.010535 0.550310
vt 0.010518 0.547305
vt 0.174930 0.547305
vt 0.010518 0.547305
vt 0.174930 0.547305
vt 0.174946 0.535661
vt 0.174946 0.544318
vt 0.010535 0.544318
vt 0.010535 0.535661
vt 0.174946 0.535661
vt 0.174946 0.544318
vt 0.010535 0.544318
vt 0.010535 0.535661
vt 0.244945 0.749346
vt 0.244945 0.872743
vt 0.292087 0.872743
vt 0.292087 0.749346
vt 0.292082 0.748484
vt 0.244940 0.748484
vt 0.292087 0.747628
vt 0.244945 0.747627
vt 0.292087 0.745145
vt 0.244945 0.745145
vn -1.0000 0.0000 0.0000
vn 1.0000 0.0000 0.0000
vn -0.2873 0.9578 0.0000
vn -0.5128 0.8585 0.0000
vn 0.2873 0.9578 0.0000
vn 0.5128 0.8585 0.0000
vn 0.9239 0.3827 0.0000
vn -0.9239 0.3827 0.0000
vn 0.0000 0.0000 -1.0000
s 1
f 5/1/1 1/2/1 2/3/1 6/4/1
f 7/5/2 4/6/2 3/7/2 8/8/2
f 5/1/3 6/4/3 14/9/4 19/10/4
f 7/5/5 8/8/5 18/11/6 15/12/6
f 11/13/2 16/14/7 17/15/7 12/16/2
f 10/17/1 20/18/8 13/19/8 9/20/1
f 15/12/6 18/11/6 17/15/7 16/14/7
f 19/10/4 14/9/4 13/19/8 20/18/8
f 6/21/9 2/22/9 4/23/9 7/24/9
f 6/21/9 7/24/9 15/25/9 14/26/9
f 16/27/9 13/28/9 14/26/9 15/25/9
f 13/28/9 16/27/9 11/29/9 9/30/9
