# Blender v2.79 (sub 0) OBJ File: 'mod_Lok.blend'
# www.blender.org
mtllib mod_Lok.mtl
g Lok
v -0.166892 0.116101 0.091673
v 0.166138 0.116101 0.091673
v 0.166138 0.660036 0.091673
v -0.166893 0.660036 0.091673
v -0.166893 0.116101 0.424703
v -0.166892 0.363572 0.320070
v -0.166892 0.513936 0.320070
v -0.166892 0.513936 0.195347
v -0.166893 0.660036 0.424703
v 0.128828 0.115783 0.424703
v 0.128828 0.115783 0.156908
v 0.128828 0.513936 0.195347
v 0.128828 0.363573 0.195347
v 0.128828 0.363572 0.320070
v 0.166138 0.660036 0.424703
v 0.166138 0.116101 0.424703
v 0.166138 0.513936 0.320070
v 0.166138 0.363572 0.320070
v 0.166138 0.363573 0.195347
v -0.129583 0.600174 0.424703
v 0.128828 0.600174 0.424703
v -0.129583 0.115783 0.424703
v -0.129583 0.115783 0.168674
v -0.129583 0.600174 0.168674
v 0.128828 0.600174 0.168674
v -0.129583 0.363573 0.195347
v -0.129583 0.513936 0.195347
v -0.129583 0.513936 0.320070
v -0.166892 0.363573 0.195347
v 0.166138 0.513936 0.195347
v 0.128828 0.513936 0.320070
v -0.129583 0.363572 0.320070
v -0.020830 0.406245 0.112985
v -0.020830 0.406245 -0.394880
v 0.089752 0.386224 0.112985
v 0.089752 0.386224 -0.394880
v 0.161079 0.187429 0.112985
v 0.161079 0.187429 -0.394880
v 0.088449 0.101673 0.112985
v 0.088450 0.101673 -0.394880
v -0.022311 0.082665 0.112985
v -0.022311 0.082665 -0.394880
v -0.119376 0.139300 0.112985
v -0.119376 0.139300 -0.394880
v -0.157328 0.245076 0.112985
v -0.157328 0.245076 -0.394880
v -0.118409 0.350501 0.112985
v -0.118409 0.350501 -0.394880
v -0.017373 0.379269 -0.394880
v -0.017373 0.379269 -0.429819
v 0.075057 0.362535 -0.394880
v -0.018611 0.108803 -0.394880
v -0.098935 0.332676 -0.394880
v 0.073969 0.124691 -0.394880
v -0.131466 0.244556 -0.394880
v -0.099743 0.156141 -0.394880
v 0.134677 0.196371 -0.394880
v 0.081715 0.112378 -0.429819
v 0.073969 0.124691 -0.429819
v -0.018611 0.108803 -0.429819
v 0.075057 0.362535 -0.429819
v -0.099743 0.156142 -0.429819
v -0.131466 0.244556 -0.429819
v 0.134677 0.196371 -0.429819
v -0.098935 0.332676 -0.429819
v -0.109352 0.342211 -0.429819
v -0.019222 0.393699 -0.429819
v -0.020590 0.094821 -0.429819
v 0.082918 0.375207 -0.429819
v -0.110245 0.147132 -0.429819
v -0.145300 0.244834 -0.429819
v 0.148800 0.191588 -0.429819
v 0.081715 0.112378 -0.440516
v -0.109352 0.342211 -0.440516
v -0.019222 0.393699 -0.440516
v -0.020590 0.094821 -0.440516
v 0.082918 0.375207 -0.440516
v -0.110245 0.147132 -0.440516
v -0.145300 0.244834 -0.440516
v 0.148800 0.191588 -0.440516
v 0.006255 0.232327 -0.477283
v -0.007871 0.249319 -0.477283
v -0.001208 0.253126 -0.477283
v -0.001309 0.231029 -0.477283
v 0.006344 0.251759 -0.477283
v -0.007937 0.234897 -0.477283
v -0.010529 0.242120 -0.477283
v 0.011215 0.238183 -0.477283
v 0.161593 0.299807 -0.394880
v 0.149275 0.295387 -0.429819
v 0.161593 0.299807 0.112985
v 0.135106 0.290303 -0.394880
v 0.135106 0.290303 -0.429819
v 0.149275 0.295387 -0.440516
v 0.011250 0.245857 -0.477283
v 0.192627 0.074990 0.327693
v 0.192627 0.047119 -0.324868
v 0.181497 0.071377 0.327847
v 0.181497 0.043507 -0.324714
v 0.174619 0.080836 0.327444
v 0.174619 0.052965 -0.325118
v 0.181497 0.090294 0.327040
v 0.181497 0.062424 -0.325522
v 0.192627 0.058811 -0.325368
v 0.192627 0.086681 0.327194
v 0.184571 0.079818 -0.361388
v 0.184571 0.044296 -0.353281
v 0.169191 0.044296 -0.353281
v 0.169191 0.079818 -0.361388
v 0.184571 0.015809 -0.330563
v 0.169191 0.015809 -0.330563
v 0.184571 0.000000 -0.297736
v 0.169191 0.000000 -0.297736
v 0.184571 0.000000 -0.261300
v 0.169191 0.000000 -0.261300
v 0.184571 0.015809 -0.228472
v 0.169191 0.015809 -0.228472
v 0.184571 0.044296 -0.205755
v 0.169191 0.044296 -0.205755
v 0.184571 0.079818 -0.197647
v 0.169191 0.079818 -0.197647
v 0.184571 0.115340 -0.205755
v 0.169191 0.115340 -0.205755
v 0.184571 0.143827 -0.228472
v 0.169191 0.143827 -0.228472
v 0.184571 0.159636 -0.261300
v 0.169191 0.159636 -0.261300
v 0.184571 0.159636 -0.297736
v 0.169191 0.159636 -0.297736
v 0.184571 0.143827 -0.330563
v 0.169191 0.143827 -0.330563
v 0.169191 0.115340 -0.353281
v 0.184571 0.115340 -0.353281
v 0.184571 0.079818 0.197647
v 0.184571 0.044296 0.205755
v 0.169191 0.044296 0.205755
v 0.169191 0.079818 0.197647
v 0.184571 0.015809 0.228472
v 0.169191 0.015809 0.228472
v 0.184571 -0.000000 0.261300
v 0.169191 -0.000000 0.261300
v 0.184571 -0.000000 0.297736
v 0.169191 -0.000000 0.297736
v 0.184571 0.015809 0.330563
v 0.169191 0.015809 0.330563
v 0.184571 0.044296 0.353281
v 0.169191 0.044296 0.353281
v 0.184571 0.079818 0.361388
v 0.169191 0.079818 0.361388
v 0.184571 0.115340 0.353281
v 0.169191 0.115340 0.353281
v 0.184571 0.143827 0.330563
v 0.169191 0.143827 0.330563
v 0.184571 0.159636 0.297736
v 0.169191 0.159636 0.297736
v 0.184571 0.159636 0.261300
v 0.169191 0.159636 0.261300
v 0.184571 0.143827 0.228472
v 0.169191 0.143827 0.228472
v 0.169191 0.115340 0.205755
v 0.184571 0.115340 0.205755
v -0.169191 0.079818 -0.361388
v -0.169191 0.044296 -0.353281
v -0.184571 0.044296 -0.353281
v -0.184571 0.079818 -0.361388
v -0.169191 0.015809 -0.330563
v -0.184571 0.015809 -0.330563
v -0.169191 0.000000 -0.297736
v -0.184571 0.000000 -0.297736
v -0.169191 0.000000 -0.261300
v -0.184571 0.000000 -0.261300
v -0.169191 0.015809 -0.228472
v -0.184571 0.015809 -0.228472
v -0.169191 0.044296 -0.205755
v -0.184571 0.044296 -0.205755
v -0.169191 0.079818 -0.197647
v -0.184571 0.079818 -0.197647
v -0.169191 0.115340 -0.205755
v -0.184571 0.115340 -0.205755
v -0.169191 0.143827 -0.228472
v -0.184571 0.143827 -0.228472
v -0.169191 0.159636 -0.261300
v -0.184571 0.159636 -0.261300
v -0.169191 0.159636 -0.297736
v -0.184571 0.159636 -0.297736
v -0.169191 0.143827 -0.330563
v -0.184571 0.143827 -0.330563
v -0.184571 0.115340 -0.353281
v -0.169191 0.115340 -0.353281
v -0.167306 0.047403 -0.411707
v 0.166138 0.047403 -0.411707
v 0.166138 0.047403 0.424703
v -0.167306 0.047403 0.424703
v -0.167306 0.116101 -0.411707
v -0.167306 0.116101 0.424703
v 0.166138 0.116101 0.424703
v 0.166138 0.116101 -0.411706
v -0.199058 0.661294 0.454644
v -0.199058 0.661294 0.009827
v -0.199058 0.649776 0.009827
v -0.199058 0.649776 0.454644
v 0.192989 0.661294 0.009827
v 0.192989 0.649776 0.009827
v 0.192989 0.661294 0.454644
v 0.192989 0.649776 0.454644
v 0.036764 0.680776 0.187079
v 0.036764 0.680776 0.277391
v -0.042834 0.680776 0.187079
v -0.042834 0.680776 0.277391
v -0.002603 0.398526 -0.324414
v -0.002603 0.511781 -0.324414
v 0.029789 0.511781 -0.305712
v 0.029789 0.398526 -0.305712
v 0.029789 0.511781 -0.268308
v 0.029789 0.398526 -0.268308
v -0.002603 0.511781 -0.249606
v -0.002603 0.398526 -0.249606
v -0.034995 0.511781 -0.268308
v -0.034995 0.398526 -0.268308
v -0.034995 0.511781 -0.305712
v -0.034995 0.398526 -0.305712
v -0.002603 0.511781 -0.313405
v -0.002603 0.511781 -0.313405
v 0.020256 0.511781 -0.300208
v 0.020256 0.511781 -0.273813
v -0.002603 0.511781 -0.260615
v -0.025462 0.511781 -0.273813
v -0.025462 0.511781 -0.300208
v -0.025462 0.511781 -0.300208
v -0.025462 0.456226 -0.300208
v -0.025462 0.511781 -0.273813
v 0.020256 0.511781 -0.273813
v 0.020256 0.511781 -0.300208
v -0.002603 0.511781 -0.260615
v -0.002603 0.456226 -0.313405
v -0.025462 0.456226 -0.273813
v -0.002603 0.456226 -0.260615
v 0.020256 0.456226 -0.273813
v 0.020256 0.456226 -0.300208
v -0.176903 0.074990 0.327693
v -0.176903 0.047119 -0.324868
v -0.188033 0.071377 0.327847
v -0.188033 0.043507 -0.324714
v -0.194911 0.080836 0.327444
v -0.194911 0.052965 -0.325118
v -0.188033 0.090294 0.327040
v -0.188033 0.062424 -0.325522
v -0.176903 0.058811 -0.325368
v -0.176903 0.086681 0.327194
v -0.169191 0.079818 0.197647
v -0.169191 0.044296 0.205755
v -0.184571 0.044296 0.205755
v -0.184571 0.079818 0.197647
v -0.169191 0.015809 0.228472
v -0.184571 0.015809 0.228472
v -0.169191 -0.000000 0.261300
v -0.184571 -0.000000 0.261300
v -0.169191 -0.000000 0.297736
v -0.184571 -0.000000 0.297736
v -0.169191 0.015809 0.330563
v -0.184571 0.015809 0.330563
v -0.169191 0.044296 0.353281
v -0.184571 0.044296 0.353281
v -0.169191 0.079818 0.361388
v -0.184571 0.079818 0.361388
v -0.169191 0.115340 0.353281
v -0.184571 0.115340 0.353281
v -0.169191 0.143827 0.330563
v -0.184571 0.143827 0.330563
v -0.169191 0.159636 0.297736
v -0.184571 0.159636 0.297736
v -0.169191 0.159636 0.261300
v -0.184571 0.159636 0.261300
v -0.169191 0.143827 0.228472
v -0.184571 0.143827 0.228472
v -0.184571 0.115340 0.205755
v -0.169191 0.115340 0.205755
vn 0.0000 0.0000 -1.0000
vn -1.0000 -0.0000 -0.0000
vn 0.0000 1.0000 -0.0000
vn 1.0000 0.0000 0.0000
vn 0.0000 -0.0000 1.0000
vn 0.0228 -0.0121 0.9997
vn 0.0000 -1.0000 -0.0000
vn -0.7631 0.6463 0.0000
vn -0.1691 0.9856 0.0000
vn -0.7690 -0.6393 -0.0000
vn -0.1782 -0.9840 -0.0000
vn 0.5040 0.8637 0.0000
vn 0.9412 0.3377 0.0000
vn -1.0000 0.0046 -0.0000
vn 0.4960 -0.8683 -0.0000
vn 0.9381 -0.3463 -0.0000
vn 0.1261 -0.2173 -0.9679
vn 0.0748 -0.1349 -0.9880
vn 0.1408 -0.0533 -0.9886
vn 0.2306 -0.0840 -0.9694
vn -0.2632 0.0019 -0.9648
vn -0.1961 0.1682 -0.9661
vn -0.1222 0.1011 -0.9873
vn -0.1615 -0.0000 -0.9869
vn -0.0444 -0.2545 -0.9661
vn -0.2020 -0.1687 -0.9647
vn -0.1247 -0.1027 -0.9869
vn -0.0301 -0.1557 -0.9873
vn 0.1246 0.2114 -0.9694
vn 0.0748 0.1307 -0.9886
vn -0.0281 0.1517 -0.9880
vn -0.0408 0.2479 -0.9679
vn 0.2289 0.0821 -0.9700
vn 0.1404 0.0504 -0.9888
vn -0.3090 -0.9502 0.0406
vn 0.8090 -0.5872 0.0251
vn -0.3090 0.9502 -0.0406
vn 0.8090 0.5873 -0.0251
vn 0.8090 0.5872 -0.0251
vn -0.0000 -0.0427 -0.9991
vn -0.0000 0.0427 0.9991
vn 0.0000 -0.4339 -0.9010
vn 0.0000 -0.7818 -0.6235
vn 0.0000 -0.9749 -0.2225
vn 0.0000 -0.9749 0.2225
vn 0.0000 -0.7818 0.6235
vn 0.0000 -0.4339 0.9010
vn 0.0000 0.4339 0.9010
vn 0.0000 0.7818 0.6235
vn 0.0000 0.9749 0.2225
vn 0.0000 0.9749 -0.2225
vn 0.0000 0.7818 -0.6235
vn 0.0000 0.4339 -0.9010
vn 0.0000 0.9940 -0.1093
vn 0.0000 0.9940 0.1093
vn -0.1237 0.9923 0.0000
vn 0.1237 0.9923 0.0000
vn 0.0000 0.8000 0.6000
vn -0.8660 -0.0000 0.5000
vn -0.8660 0.0000 -0.5000
vn 0.0000 0.0000 0.0000
vn 0.8660 -0.0000 0.5000
vn 0.6862 0.6100 0.3962
vn 0.0000 0.6100 0.7924
vn -0.6862 0.6100 0.3962
vn -0.6862 0.6100 -0.3962
vn 0.8660 0.0000 -0.5000
vn 0.0000 0.6100 -0.7924
vn 0.6862 0.6100 -0.3962
vn 0.8090 -0.5873 0.0251
usemtl None
s 1
f 1//1 4//1 3//1 2//1
f 9//2 4//2 8//2 7//2
f 11//2 13//2 12//2 25//2
f 3//3 4//3 9//3 15//3
f 16//4 18//4 17//4 15//4
f 20//5 21//5 15//5 9//5
f 22//5 20//5 9//5 5//5
f 21//5 10//5 16//5 15//5
f 11//6 25//6 24//6 23//6
f 24//4 27//4 26//4 23//4
f 21//7 20//7 24//7 25//7
f 29//5 26//5 27//5 8//5
f 13//5 19//5 30//5 12//5
f 3//4 30//4 19//4 2//4
f 21//2 31//2 14//2 10//2
f 22//4 32//4 28//4 20//4
f 29//2 8//2 4//2 1//2
f 6//3 32//3 26//3 29//3
f 14//3 18//3 19//3 13//3
f 17//7 31//7 12//7 30//7
f 28//7 7//7 8//7 27//7
f 18//1 14//1 31//1 17//1
f 32//1 6//1 7//1 28//1
f 6//2 29//2 1//2 5//2
f 5//2 9//2 7//2 6//2
f 23//4 26//4 32//4 22//4
f 20//4 28//4 27//4 24//4
f 2//4 19//4 18//4 16//4
f 15//4 17//4 30//4 3//4
f 10//2 14//2 13//2 11//2
f 25//2 12//2 31//2 21//2
f 66//8 67//9 75//9 74//8
f 43//10 44//10 42//11 41//11
f 51//12 61//12 50//9 49//9
f 92//13 93//13 61//12 51//12
f 65//5 66//5 71//5 63//5
f 43//10 45//14 46//14 44//10
f 56//10 62//10 60//11 52//11
f 61//5 69//5 67//5 50//5
f 62//5 70//5 68//5 60//5
f 33//9 34//9 48//8 47//8
f 60//5 68//5 58//5 59//5
f 53//1 55//1 46//1 48//1
f 66//5 65//5 50//5 67//5
f 47//8 48//8 46//14 45//14
f 39//15 41//11 42//11 40//15
f 46//1 55//1 56//1 44//1
f 39//15 40//15 38//16 37//16
f 52//1 54//1 40//1 42//1
f 58//5 72//5 64//5 59//5
f 93//5 90//5 69//5 61//5
f 36//1 51//1 49//1 34//1
f 49//1 53//1 48//1 34//1
f 55//14 63//14 62//10 56//10
f 33//9 35//12 36//12 34//9
f 91//13 37//16 38//16 89//13
f 65//8 53//8 49//9 50//9
f 54//15 59//15 64//16 57//16
f 44//1 56//1 52//1 42//1
f 53//8 65//8 63//14 55//14
f 63//5 71//5 70//5 62//5
f 89//1 92//1 51//1 36//1
f 54//1 57//1 38//1 40//1
f 58//15 73//15 80//16 72//16
f 67//9 69//12 77//12 75//9
f 70//10 71//14 79//14 78//10
f 68//11 70//10 78//10 76//11
f 71//14 66//8 74//8 79//14
f 58//15 68//11 76//11 73//15
f 90//13 94//13 77//12 69//12
f 73//17 81//18 88//19 80//20
f 79//21 74//22 82//23 87//24
f 76//25 78//26 86//27 84//28
f 77//29 85//30 83//31 75//32
f 73//17 76//25 84//28 81//18
f 74//22 75//32 83//31 82//23
f 94//33 80//20 88//19 95//34
f 78//26 79//21 87//24 86//27
f 82//23 83//31 85//30 95//34 88//19 81//18 84//28 86//27 87//24
f 59//15 54//15 52//11 60//11
f 77//29 94//33 95//34 85//30
f 72//16 80//16 94//13 90//13
f 38//1 57//1 92//1 89//1
f 35//12 91//13 89//13 36//12
f 64//5 72//5 90//5 93//5
f 57//16 64//16 93//13 92//13
f 100//2 101//2 99//35 98//35
f 98//35 99//35 97//36 96//36
f 102//37 105//38 104//39 103//37
f 105//38 96//36 97//36 104//39
f 97//40 99//40 101//40 103//40 104//40
f 105//41 102//41 100//41 98//41 96//41
f 102//37 103//37 101//2 100//2
f 106//1 107//42 108//42 109//1
f 107//42 110//43 111//43 108//42
f 110//43 112//44 113//44 111//43
f 112//44 114//45 115//45 113//44
f 114//45 116//46 117//46 115//45
f 116//46 118//47 119//47 117//46
f 118//47 120//5 121//5 119//47
f 120//5 122//48 123//48 121//5
f 122//48 124//49 125//49 123//48
f 124//49 126//50 127//50 125//49
f 126//50 128//51 129//51 127//50
f 128//51 130//52 131//52 129//51
f 108//2 111//2 113//2 115//2 117//2 119//2 121//2 123//2 125//2 127//2 129//2 131//2 132//2 109//2
f 130//52 133//53 132//53 131//52
f 133//53 106//1 109//1 132//53
f 106//4 133//4 130//4 128//4 126//4 124//4 122//4 120//4 118//4 116//4 114//4 112//4 110//4 107//4
f 134//1 135//42 136//42 137//1
f 135//42 138//43 139//43 136//42
f 138//43 140//44 141//44 139//43
f 140//44 142//45 143//45 141//44
f 142//45 144//46 145//46 143//45
f 144//46 146//47 147//47 145//46
f 146//47 148//5 149//5 147//47
f 148//5 150//48 151//48 149//5
f 150//48 152//49 153//49 151//48
f 152//49 154//50 155//50 153//49
f 154//50 156//51 157//51 155//50
f 156//51 158//52 159//52 157//51
f 136//2 139//2 141//2 143//2 145//2 147//2 149//2 151//2 153//2 155//2 157//2 159//2 160//2 137//2
f 158//52 161//53 160//53 159//52
f 161//53 134//1 137//1 160//53
f 134//4 161//4 158//4 156//4 154//4 152//4 150//4 148//4 146//4 144//4 142//4 140//4 138//4 135//4
f 162//1 163//42 164//42 165//1
f 163//42 166//43 167//43 164//42
f 166//43 168//44 169//44 167//43
f 168//44 170//45 171//45 169//44
f 170//45 172//46 173//46 171//45
f 172//46 174//47 175//47 173//46
f 174//47 176//5 177//5 175//47
f 176//5 178//48 179//48 177//5
f 178//48 180//49 181//49 179//48
f 180//49 182//50 183//50 181//49
f 182//50 184//51 185//51 183//50
f 184//51 186//52 187//52 185//51
f 164//2 167//2 169//2 171//2 173//2 175//2 177//2 179//2 181//2 183//2 185//2 187//2 188//2 165//2
f 186//52 189//53 188//53 187//52
f 189//53 162//1 165//1 188//53
f 162//4 189//4 186//4 184//4 182//4 180//4 178//4 176//4 174//4 172//4 170//4 168//4 166//4 163//4
f 190//7 191//7 192//7 193//7
f 194//3 195//3 196//3 197//3
f 190//1 194//1 197//1 191//1
f 191//4 197//4 196//4 192//4
f 192//5 196//5 195//5 193//5
f 194//2 190//2 193//2 195//2
f 198//2 199//2 200//2 201//2
f 199//1 202//1 203//1 200//1
f 202//4 204//4 205//4 203//4
f 204//5 198//5 201//5 205//5
f 203//7 205//7 201//7 200//7
f 208//54 206//54 202//54 199//54
f 207//55 209//55 198//55 204//55
f 198//56 209//56 208//56 199//56
f 208//3 209//3 207//3 206//3
f 202//57 206//57 207//57 204//57
f 226//58 227//58 218//3 216//3
f 218//59 220//60 221//60 219//59
f 228//58 229//61 223//5 222//58
f 224//58 222//58 223//5 233//61
f 211//1 210//1 221//60 220//60
f 226//58 225//58 232//61 234//5
f 225//58 224//58 233//61 232//61
f 225//58 226//58 216//3 214//3
f 225//58 214//3 212//3 224//58
f 223//5 229//62 230//63 235//64
f 214//62 216//5 217//5 215//62
f 222//58 224//58 212//3 211//3
f 228//58 227//58 231//61 229//61
f 232//60 233//59 239//65 238//66
f 212//67 214//62 215//62 213//67
f 234//1 237//68 236//69 231//67
f 226//58 234//5 231//61 227//58
f 228//58 220//3 218//3 227//58
f 239//65 235//64 230//63 236//69 237//68 238//66
f 234//1 232//60 238//66 237//68
f 228//58 222//58 211//3 220//3
f 218//59 219//59 217//5 216//5
f 233//59 223//5 235//64 239//65
f 229//62 231//67 236//69 230//63
f 211//1 212//67 213//67 210//1
f 244//2 245//2 243//35 242//35
f 242//35 243//35 241//70 240//36
f 246//37 249//38 248//38 247//37
f 249//38 240//36 241//70 248//38
f 241//40 243//40 245//40 247//40 248//40
f 249//41 246//41 244//41 242//41 240//41
f 246//37 247//37 245//2 244//2
f 250//1 251//42 252//42 253//1
f 251//42 254//43 255//43 252//42
f 254//43 256//44 257//44 255//43
f 256//44 258//45 259//45 257//44
f 258//45 260//46 261//46 259//45
f 260//46 262//47 263//47 261//46
f 262//47 264//5 265//5 263//47
f 264//5 266//48 267//48 265//5
f 266//48 268//49 269//49 267//48
f 268//49 270//50 271//50 269//49
f 270//50 272//51 273//51 271//50
f 272//51 274//52 275//52 273//51
f 252//2 255//2 257//2 259//2 261//2 263//2 265//2 267//2 269//2 271//2 273//2 275//2 276//2 253//2
f 274//52 277//53 276//53 275//52
f 277//53 250//1 253//1 276//53
f 250//4 277//4 274//4 272//4 270//4 268//4 266//4 264//4 262//4 260//4 258//4 256//4 254//4 251//4
