# Blender v2.78 (sub 0) OBJ File: 'FantasyUVs2.blend'
# www.blender.org
mtllib mod_Haus_Fantasie.mtl
g Haus
v -0.284087 0.341246 -0.466694
v -0.426322 0.341246 -0.466694
v -0.426322 0.443697 -0.466694
v -0.281411 0.588608 -0.466694
v -0.426322 0.341246 -0.349102
v -0.426322 0.443697 -0.349102
v -0.426322 0.019007 0.386417
v -0.426322 -0.000023 0.386417
v -0.284087 -0.000023 0.386417
v -0.284087 0.018385 0.386417
v -0.141083 0.341246 -0.466694
v -0.140705 0.584635 -0.466694
v 0.000233 0.443697 -0.466694
v 0.000233 0.341245 -0.466694
v -0.213045 -0.000023 0.035948
v -0.213045 -0.000023 0.113919
v -0.426322 -0.000023 0.113919
v -0.426322 -0.000023 0.035948
v -0.213045 0.018074 -0.466694
v -0.213045 -0.000023 -0.466694
v -0.284087 -0.000023 -0.466694
v -0.284087 0.018385 -0.466694
v -0.426322 0.019007 -0.092402
v -0.426322 -0.000023 -0.092402
v -0.426322 0.019007 0.035948
v -0.426322 0.443697 0.386417
v -0.426322 0.443697 0.273593
v -0.426322 0.341245 0.273593
v -0.426322 0.341245 0.386417
v 0.000233 0.017141 0.035948
v 0.000233 0.017141 0.113919
v 0.000233 -0.000023 0.113919
v 0.000233 -0.000023 0.035948
v -0.284087 0.199060 -0.466694
v -0.426322 0.199060 -0.466694
v -0.426322 0.199060 -0.349102
v -0.426322 0.019007 -0.466694
v -0.426322 -0.000023 -0.466694
v -0.426322 -0.000023 -0.349102
v -0.426322 0.019007 -0.349102
v -0.284087 0.199060 0.386417
v -0.284087 0.341246 0.386417
v -0.426322 0.199060 0.386417
v 0.000233 0.341245 0.273593
v 0.000233 0.443697 0.273593
v 0.000233 0.443697 0.386417
v 0.000233 0.341245 0.386417
v 0.000233 0.209327 -0.333056
v 0.000234 0.330979 -0.333056
v -0.010430 0.330979 -0.333056
v -0.010430 0.209327 -0.333056
v 0.000233 0.330979 0.022221
v 0.000233 0.209327 0.022221
v -0.010430 0.209327 0.022221
v -0.010430 0.330979 0.022221
v 0.000233 0.341245 0.113919
v 0.000233 0.341245 0.035948
v 0.000233 0.443697 0.035948
v 0.000233 0.443697 0.113919
v 0.000233 0.341245 -0.349102
v 0.000233 0.443697 -0.349102
v 0.000233 0.443697 -0.220753
v 0.000233 0.341245 -0.220753
v 0.000233 0.341245 -0.092402
v 0.000233 0.443697 -0.092402
v 0.000233 0.209327 -0.078676
v 0.000233 0.199060 0.035948
v 0.000233 0.199060 -0.092403
v 0.000233 0.330979 -0.078676
v 0.000233 0.209327 -0.236800
v 0.000233 0.199060 -0.220753
v 0.000233 0.199060 -0.349102
v 0.000233 0.330979 -0.236800
v 0.000233 0.017141 0.273592
v 0.000233 -0.000023 0.273592
v 0.033589 -0.000023 0.273592
v 0.033589 0.017141 0.273592
v -0.010430 0.209327 -0.078676
v -0.010430 0.330979 -0.078676
v -0.010430 0.330979 -0.236800
v -0.010430 0.209327 -0.236800
v -0.010430 0.314436 0.232667
v -0.010430 0.330979 0.232667
v -0.010430 0.330979 0.257696
v 0.033589 0.017141 0.113919
v 0.033589 -0.000023 0.113919
v 0.000233 0.017141 -0.466694
v 0.000233 -0.000023 -0.466694
v -0.141083 -0.000023 -0.466694
v -0.141083 0.017759 -0.466694
v 0.000233 0.017141 0.386417
v 0.000233 -0.000023 0.386417
v -0.426322 0.330979 -0.078676
v -0.426322 0.209327 -0.078676
v -0.415658 0.209327 -0.078676
v -0.415658 0.330979 -0.078676
v -0.426322 0.199060 -0.092402
v -0.426322 0.341246 -0.092402
v -0.426322 0.341246 -0.220752
v -0.426322 0.199060 -0.220752
v -0.426322 0.209327 -0.333056
v -0.426322 0.209327 -0.236800
v -0.415658 0.209327 -0.236800
v -0.415658 0.209327 -0.333056
v -0.426322 0.019007 -0.220753
v -0.426322 -0.000023 -0.220753
v -0.141083 0.017759 0.386417
v -0.141083 -0.000023 0.386417
v -0.426322 0.199060 0.273593
v -0.426322 0.341245 0.035948
v -0.426322 0.443697 0.035948
v -0.426322 0.443697 -0.092402
v -0.426322 0.443697 -0.220752
v -0.426322 0.330979 -0.333056
v -0.426322 0.330979 -0.236800
v -0.426322 0.209327 0.022221
v -0.426322 0.199060 0.035948
v -0.426322 0.330979 0.022221
v -0.415658 0.330979 -0.236800
v -0.415658 0.330979 -0.333056
v -0.415658 0.209327 0.022221
v -0.415658 0.330979 0.022221
v -0.141083 0.341246 0.386417
v -0.141083 0.199060 0.386417
v 0.000233 0.199060 0.386417
v -0.213045 0.018074 0.386417
v -0.213045 0.199060 0.386417
v -0.213045 0.333158 0.386417
v -0.276000 0.333158 0.386417
v -0.276000 0.333159 0.375753
v -0.213045 0.333159 0.375753
v -0.149169 0.333158 0.386417
v -0.149169 0.207147 0.386417
v -0.213045 0.207147 0.386417
v -0.276000 0.207147 0.386417
v 0.000233 0.199060 -0.466694
v -0.141083 0.199060 -0.466694
v -0.276000 0.207147 0.375753
v -0.213045 0.207147 0.375753
v -0.149169 0.333159 0.375754
v -0.149169 0.207147 0.375753
v -0.213045 0.341246 0.386417
v -0.213045 0.333158 -0.466694
v -0.149169 0.333158 -0.466694
v -0.149169 0.333158 -0.456030
v -0.213045 0.333158 -0.456030
v -0.213045 0.207147 -0.466694
v -0.149169 0.207147 -0.466694
v -0.213045 0.199060 -0.466694
v -0.276000 0.333158 -0.466694
v -0.276000 0.207147 -0.466694
v -0.213045 0.341246 -0.466694
v -0.213045 0.207147 -0.456030
v -0.149169 0.207147 -0.456030
v -0.276000 0.333158 -0.456030
v -0.276000 0.207147 -0.456030
v 0.000233 0.204143 0.129815
v 0.000233 0.330979 0.129815
v -0.010430 0.330979 0.129815
v -0.010430 0.204382 0.129815
v 0.000233 0.204382 0.257696
v 0.000233 0.330979 0.257696
v 0.000233 0.203725 0.273593
v 0.000233 0.017141 0.129815
v 0.000233 0.203282 0.113919
v -0.010430 0.017141 0.232666
v -0.010430 0.059108 0.232667
v -0.010430 0.017141 0.257696
v -0.010430 0.173580 0.232667
v -0.010430 0.204382 0.257696
v -0.010430 0.204382 0.232667
v 0.000233 0.017141 0.257696
v -0.010430 0.314436 0.155113
v -0.010430 0.204382 0.155113
v -0.011924 0.307897 0.222963
v -0.011924 0.307897 0.166299
v -0.010430 0.173580 0.155113
v -0.010430 0.017141 0.129815
v -0.010430 0.059108 0.155113
v -0.011924 0.069331 0.166299
v -0.011924 0.163843 0.166299
v -0.011924 0.163843 0.222963
v -0.011924 0.069331 0.222963
v -0.010430 0.017141 0.155113
v -0.010430 0.330979 0.155113
v -0.426322 0.019007 0.113919
v -0.011924 0.213153 0.166299
v -0.011924 0.213153 0.222963
v -0.286856 0.583163 0.386417
v -0.213045 0.656974 0.386418
v -0.139444 0.583374 0.386417
v -0.213045 -0.000023 0.273592
v -0.213045 -0.000023 0.386417
v -0.426322 -0.000023 0.273592
v -0.426322 0.019007 0.273592
v -0.426322 0.341245 0.113919
v -0.426322 0.199060 0.113919
v -0.426322 0.443697 0.113919
v -0.213045 0.656974 -0.466694
v 0.000233 -0.000023 -0.092403
v -0.213045 -0.000023 -0.092402
v 0.000233 0.017141 -0.092403
v 0.000233 -0.000023 -0.220753
v -0.213045 -0.000023 -0.220753
v 0.000233 0.017141 -0.220753
v 0.000233 -0.000023 -0.349104
v -0.213045 -0.000023 -0.349102
v 0.000233 0.017141 -0.349104
v -0.213045 0.674007 0.407745
v 0.033099 0.430755 0.407745
v 0.033099 0.430755 -0.488022
v -0.213045 0.674007 -0.488022
v -0.459188 0.430755 -0.488022
v -0.459188 0.430755 0.407745
v -0.213045 0.654304 0.407745
v -0.213045 0.654304 -0.488022
v 0.019250 0.416742 -0.488022
v 0.019250 0.416741 0.407745
v -0.445340 0.416741 0.407745
v -0.445340 0.416742 -0.488022
v -0.105168 0.563571 0.211475
v -0.105168 0.737232 0.211475
v -0.105169 0.737232 0.301687
v -0.105169 0.563571 0.301687
v -0.176261 0.634664 0.301686
v -0.176261 0.737232 0.301686
v -0.176261 0.737232 0.211475
v -0.176261 0.634664 0.211475
v -0.163467 0.737232 0.226046
v -0.163467 0.625035 0.226046
v -0.117963 0.625035 0.226046
v -0.117963 0.737232 0.226046
v -0.117963 0.737232 0.287116
v -0.163467 0.737232 0.287116
v -0.117963 0.625035 0.287116
v -0.163467 0.625035 0.287116
vt 0.1972 0.2595
vt 0.1972 0.2595
vt 0.1972 0.3337
vt 0.1972 0.4388
vt 0.1856 0.2595
vt 0.1856 0.3337
vt 0.1128 0.0258
vt 0.1128 0.0120
vt 0.1128 0.0120
vt 0.1128 0.0254
vt 0.1972 0.2595
vt 0.1972 0.4359
vt 0.1972 0.3337
vt 0.1972 0.2595
vt 0.1475 0.0120
vt 0.1398 0.0120
vt 0.1398 0.0120
vt 0.1475 0.0120
vt 0.1972 0.0251
vt 0.1972 0.0120
vt 0.1972 0.0120
vt 0.1972 0.0254
vt 0.1602 0.0258
vt 0.1602 0.0120
vt 0.1475 0.0258
vt 0.1128 0.3337
vt 0.1239 0.3337
vt 0.1239 0.2595
vt 0.1128 0.2595
vt 0.1475 0.0245
vt 0.1398 0.0245
vt 0.1398 0.0120
vt 0.1475 0.0120
vt 0.1972 0.1564
vt 0.1972 0.1564
vt 0.1856 0.1564
vt 0.1972 0.0258
vt 0.1972 0.0120
vt 0.1856 0.0120
vt 0.1856 0.0258
vt 0.1128 0.1564
vt 0.1128 0.2595
vt 0.1128 0.1564
vt 0.1239 0.2595
vt 0.1239 0.3337
vt 0.1128 0.3337
vt 0.1128 0.2595
vt 0.1865 0.9828
vt 0.1865 0.9948
vt 0.1865 0.9948
vt 0.1865 0.9828
vt 0.1513 0.9948
vt 0.1513 0.9828
vt 0.1513 0.9828
vt 0.1513 0.9948
vt 0.1398 0.2595
vt 0.1475 0.2595
vt 0.1475 0.3337
vt 0.1398 0.3337
vt 0.1856 0.2595
vt 0.1856 0.3337
vt 0.1729 0.3337
vt 0.1729 0.2595
vt 0.1602 0.2595
vt 0.1602 0.3337
vt 0.1613 0.9828
vt 0.1499 0.9818
vt 0.1626 0.9818
vt 0.1613 0.9948
vt 0.1626 0.9958
vt 0.1499 0.9958
vt 0.1769 0.9828
vt 0.1754 0.9818
vt 0.1881 0.9818
vt 0.1769 0.9948
vt 0.1881 0.9958
vt 0.1754 0.9958
vt 0.2187 0.5122
vt 0.2187 0.5105
vt 0.2187 0.5105
vt 0.2187 0.5122
vt 0.6319 0.5076
vt 0.6319 0.5196
vt 0.6219 0.5196
vt 0.6219 0.5076
vt 0.1613 0.9948
vt 0.1613 0.9828
vt 0.6571 0.5076
vt 0.6571 0.5196
vt 0.6476 0.5196
vt 0.6476 0.5076
vt 0.1769 0.9828
vt 0.1769 0.9948
vt 0.3470 0.7326
vt 0.3470 0.7201
vt 0.3445 0.7201
vt 0.2345 0.5105
vt 0.2345 0.5122
vt 0.2345 0.5122
vt 0.2345 0.5105
vt 0.1972 0.0245
vt 0.1972 0.0120
vt 0.1972 0.0120
vt 0.1972 0.0249
vt 0.1239 0.0245
vt 0.1128 0.0245
vt 0.1128 0.0120
vt 0.1239 0.0120
vt 0.1613 0.9948
vt 0.1613 0.9828
vt 0.1613 0.9828
vt 0.1613 0.9948
vt 0.1602 0.1564
vt 0.1602 0.2595
vt 0.1729 0.2595
vt 0.1729 0.1564
vt 0.1865 0.9828
vt 0.1769 0.9828
vt 0.1769 0.9828
vt 0.1865 0.9828
vt 0.1729 0.0258
vt 0.1729 0.0120
vt 0.1128 0.0249
vt 0.1128 0.0120
vt 0.1239 0.1564
vt 0.1475 0.2595
vt 0.1475 0.3337
vt 0.1602 0.3337
vt 0.1729 0.3337
vt 0.1881 0.9818
vt 0.1754 0.9818
vt 0.1865 0.9948
vt 0.1769 0.9948
vt 0.1754 0.9958
vt 0.1881 0.9958
vt 0.1513 0.9828
vt 0.1626 0.9818
vt 0.1499 0.9818
vt 0.1513 0.9948
vt 0.1499 0.9958
vt 0.1626 0.9958
vt 0.6476 0.5076
vt 0.6476 0.5196
vt 0.6571 0.5196
vt 0.6571 0.5076
vt 0.1865 0.9948
vt 0.1769 0.9948
vt 0.6219 0.5076
vt 0.6219 0.5196
vt 0.6319 0.5196
vt 0.6319 0.5076
vt 0.1513 0.9948
vt 0.1513 0.9828
vt 0.1128 0.2595
vt 0.1128 0.1564
vt 0.1128 0.1564
vt 0.1128 0.0251
vt 0.1128 0.1564
vt 0.1152 0.9950
vt 0.1152 0.9950
vt 0.1163 0.9950
vt 0.1163 0.9950
vt 0.1152 0.9950
vt 0.1152 0.9826
vt 0.1152 0.9818
vt 0.1152 0.9958
vt 0.1152 0.9826
vt 0.1152 0.9826
vt 0.1152 0.9818
vt 0.1152 0.9818
vt 0.1972 0.1564
vt 0.1972 0.1564
vt 0.1152 0.9958
vt 0.5869 0.5198
vt 0.5869 0.5198
vt 0.5869 0.5073
vt 0.5869 0.5073
vt 0.1163 0.9950
vt 0.1163 0.9826
vt 0.1163 0.9826
vt 0.1163 0.9826
vt 0.1152 0.9958
vt 0.1997 0.9950
vt 0.1997 0.9950
vt 0.1986 0.9950
vt 0.1986 0.9950
vt 0.1997 0.9826
vt 0.1997 0.9826
vt 0.1997 0.9818
vt 0.1997 0.9818
vt 0.1997 0.9950
vt 0.1997 0.9826
vt 0.1997 0.9818
vt 0.1997 0.9958
vt 0.1997 0.9958
vt 0.1997 0.9958
vt 0.6693 0.5073
vt 0.6693 0.5198
vt 0.6693 0.5198
vt 0.6693 0.5073
vt 0.1986 0.9950
vt 0.1986 0.9826
vt 0.1986 0.9826
vt 0.1986 0.9826
vt 0.1406 0.9823
vt 0.1406 0.9948
vt 0.1406 0.9948
vt 0.1406 0.9823
vt 0.1280 0.9823
vt 0.1280 0.9948
vt 0.1264 0.9958
vt 0.1264 0.9822
vt 0.1406 0.9638
vt 0.1422 0.9638
vt 0.1422 0.9822
vt 0.3470 0.9579
vt 0.3470 0.9261
vt 0.3445 0.9579
vt 0.3470 0.8394
vt 0.3445 0.8160
vt 0.3470 0.8160
vt 0.1280 0.9638
vt 0.1280 0.9638
vt 0.1280 0.9823
vt 0.3572 0.8160
vt 0.3572 0.7201
vt 0.3547 0.7326
vt 0.3547 0.8160
vt 0.3291 0.7099
vt 0.3214 0.7099
vt 0.3223 0.7113
vt 0.3279 0.7113
vt 0.3547 0.8394
vt 0.3572 0.9579
vt 0.3547 0.9261
vt 0.3536 0.9184
vt 0.3536 0.8468
vt 0.3480 0.8468
vt 0.3480 0.9184
vt 0.3547 0.9579
vt 0.1280 0.9948
vt 0.1305 0.9948
vt 0.1381 0.9948
vt 0.2203 0.5122
vt 0.2329 0.5122
vt 0.2329 0.5122
vt 0.2304 0.5122
vt 0.2227 0.5122
vt 0.2203 0.5122
vt 0.1422 0.9958
vt 0.1398 0.0258
vt 0.3547 0.7201
vt 0.3536 0.8094
vt 0.3536 0.7376
vt 0.3480 0.7376
vt 0.3480 0.8094
vt 0.3214 0.7336
vt 0.3291 0.7336
vt 0.3279 0.7317
vt 0.3223 0.7317
vt 0.3279 0.7628
vt 0.3223 0.7628
vt 0.3214 0.7650
vt 0.3291 0.7650
vt 0.3223 0.7424
vt 0.3279 0.7424
vt 0.3291 0.7403
vt 0.3214 0.7403
vt 0.1128 0.4349
vt 0.1128 0.2595
vt 0.1128 0.4884
vt 0.1128 0.4350
vt 0.1239 0.1597
vt 0.1264 0.9638
vt 0.1406 0.9638
vt 0.1475 0.1564
vt 0.1398 0.1594
vt 0.1602 0.1564
vt 0.1729 0.1564
vt 0.1856 0.1564
vt 0.1239 0.0120
vt 0.1128 0.0120
vt 0.1239 0.0120
vt 0.1239 0.0258
vt 0.1398 0.2595
vt 0.1398 0.1564
vt 0.1398 0.3337
vt 0.1475 0.1564
vt 0.5869 0.5198
vt 0.5869 0.5073
vt 0.1972 0.1564
vt 0.1972 0.2595
vt 0.1972 0.4884
vt 0.6693 0.5073
vt 0.6693 0.5198
vt 0.1602 0.0120
vt 0.1602 0.0120
vt 0.1602 0.0245
vt 0.1729 0.0120
vt 0.1729 0.0120
vt 0.1729 0.0245
vt 0.1856 0.0120
vt 0.1856 0.0120
vt 0.1856 0.0245
vt 0.0270 0.4613
vt 0.0270 0.0736
vt 0.0713 0.0736
vt 0.0713 0.4613
vt 0.0713 0.0736
vt 0.0270 0.0736
vt 0.0270 0.4299
vt 0.0713 0.4299
vt 0.0713 0.0512
vt 0.0270 0.0512
vt 0.0270 0.0512
vt 0.0713 0.0512
vt 0.1994 0.0503
vt 0.1994 0.2228
vt 0.1904 0.2228
vt 0.1904 0.0503
vt 0.1904 0.1209
vt 0.1904 0.2228
vt 0.1994 0.2228
vt 0.1994 0.1209
vt 0.2004 0.1170
vt 0.2004 0.0055
vt 0.2004 0.0055
vt 0.2004 0.1170
vt 0.1919 0.2228
vt 0.1979 0.2228
vt 0.1979 0.2228
vt 0.1919 0.2228
vt 0.1943 0.0055
vt 0.1943 0.0055
vt 0.1943 0.1170
vt 0.1943 0.1170
vn 0.0000 0.0000 -1.0000
vn -1.0000 -0.0000 0.0000
vn 0.0000 -0.0000 1.0000
vn -0.0000 -1.0000 -0.0000
vn 1.0000 -0.0000 0.0000
vn 0.0000 1.0000 0.0000
vn 0.0000 -1.0000 -0.0001
vn 0.9749 -0.2227 0.0000
vn 0.9858 0.1679 0.0000
vn 0.9912 -0.0000 0.1324
vn 0.9884 0.0000 -0.1522
vn 0.9895 0.1446 0.0000
vn 0.9884 -0.1517 0.0000
vn 0.7029 0.7113 0.0000
vn -0.7029 0.7113 0.0000
vn -0.7150 -0.6991 -0.0000
vn 0.7150 -0.6991 -0.0000
vn 0.7113 -0.7029 -0.0000
vn -0.7113 -0.7029 -0.0000
usemtl None.002
s 1
f 1/1/1 2/2/1 3/3/1 4/4/1
f 5/5/2 6/6/2 3/3/2 2/2/2
f 7/7/3 8/8/3 9/9/3 10/10/3
f 11/11/1 12/12/1 13/13/1 14/14/1
f 15/15/4 16/16/4 17/17/4 18/18/4
f 19/19/1 20/20/1 21/21/1 22/22/1
f 23/23/2 24/24/2 18/18/2 25/25/2
f 26/26/2 27/27/2 28/28/2 29/29/2
f 30/30/5 31/31/5 32/32/5 33/33/5
f 1/1/1 34/34/1 35/35/1 2/2/1
f 36/36/2 5/5/2 2/2/2 35/35/2
f 37/37/2 38/38/2 39/39/2 40/40/2
f 41/41/3 42/42/3 29/29/3 43/43/3
f 44/44/5 45/45/5 46/46/5 47/47/5
f 48/48/3 49/49/3 50/50/3 51/51/3
f 52/52/1 53/53/1 54/54/1 55/55/1
f 56/56/5 57/57/5 58/58/5 59/59/5
f 60/60/5 61/61/5 62/62/5 63/63/5
f 64/64/5 65/65/5 58/58/5 57/57/5
f 66/66/5 53/53/5 67/67/5 68/68/5
f 52/52/5 69/69/5 64/70/5 57/71/5
f 69/69/5 66/66/5 68/68/5 64/70/5
f 53/53/5 52/52/5 57/71/5 67/67/5
f 48/48/5 70/72/5 71/73/5 72/74/5
f 73/75/5 49/49/5 60/76/5 63/77/5
f 49/49/5 48/48/5 72/74/5 60/76/5
f 70/72/5 73/75/5 63/77/5 71/73/5
f 74/78/3 75/79/3 76/80/3 77/81/3
f 78/82/5 79/83/5 55/84/5 54/85/5
f 69/69/4 52/52/4 55/55/4 79/86/4
f 66/66/3 69/69/3 79/86/3 78/87/3
f 53/53/6 66/66/6 78/87/6 54/54/6
f 51/88/5 50/89/5 80/90/5 81/91/5
f 70/72/6 48/48/6 51/51/6 81/92/6
f 73/75/1 70/72/1 81/92/1 80/93/1
f 49/49/4 73/75/4 80/93/4 50/50/4
f 82/94/5 83/95/5 84/96/5
f 32/97/1 31/98/1 85/99/1 86/100/1
f 87/101/1 88/102/1 89/103/1 90/104/1
f 74/105/5 91/106/5 92/107/5 75/108/5
f 93/109/3 94/110/3 95/111/3 96/112/3
f 97/113/2 98/114/2 99/115/2 100/116/2
f 101/117/6 102/118/6 103/119/6 104/120/6
f 105/121/2 106/122/2 24/24/2 23/23/2
f 40/40/2 39/39/2 106/122/2 105/121/2
f 107/123/3 108/124/3 92/107/3 91/106/3
f 43/43/2 29/29/2 28/28/2 109/125/2
f 110/126/2 111/127/2 112/128/2 98/114/2
f 98/114/2 112/128/2 113/129/2 99/115/2
f 99/115/2 113/129/2 6/6/2 5/5/2
f 102/118/2 101/117/2 36/130/2 100/131/2
f 114/132/2 115/133/2 99/134/2 5/135/2
f 115/133/2 102/118/2 100/131/2 99/134/2
f 101/117/2 114/132/2 5/135/2 36/130/2
f 116/136/2 94/110/2 97/137/2 117/138/2
f 93/109/2 118/139/2 110/140/2 98/141/2
f 118/139/2 116/136/2 117/138/2 110/140/2
f 94/110/2 93/109/2 98/141/2 97/137/2
f 103/142/2 119/143/2 120/144/2 104/145/2
f 114/132/3 101/117/3 104/120/3 120/146/3
f 115/133/4 114/132/4 120/146/4 119/147/4
f 102/118/1 115/133/1 119/147/1 103/119/1
f 121/148/2 122/149/2 96/150/2 95/151/2
f 118/139/4 93/109/4 96/112/4 122/152/4
f 116/136/1 118/139/1 122/152/1 121/153/1
f 94/110/6 116/136/6 121/153/6 95/111/6
f 47/47/3 123/154/3 124/155/3 125/156/3
f 126/157/3 107/123/3 124/155/3 127/158/3
f 128/159/7 129/160/7 130/161/7 131/162/7
f 132/163/3 133/164/3 124/165/3 123/166/3
f 134/167/3 135/168/3 41/169/3 127/170/3
f 136/171/1 137/172/1 11/11/1 14/14/1
f 135/168/3 129/160/3 42/173/3 41/169/3
f 131/174/3 130/175/3 138/176/3 139/177/3
f 133/164/2 132/163/2 140/178/2 141/179/2
f 129/160/5 135/168/5 138/180/5 130/161/5
f 134/167/6 133/164/6 141/179/6 139/181/6
f 128/159/3 132/163/3 123/166/3 142/182/3
f 32/97/4 86/100/4 76/80/4 75/79/4
f 143/183/4 144/184/4 145/185/4 146/186/4
f 147/187/1 148/188/1 137/189/1 149/190/1
f 150/191/1 151/192/1 34/193/1 1/194/1
f 148/188/1 144/184/1 11/195/1 137/189/1
f 143/183/1 150/191/1 1/194/1 152/196/1
f 153/197/1 146/198/1 145/199/1 154/200/1
f 151/192/5 150/191/5 155/201/5 156/202/5
f 144/184/2 148/188/2 154/203/2 145/185/2
f 147/187/6 151/192/6 156/202/6 153/204/6
f 157/205/3 158/206/3 159/207/3 160/208/3
f 161/209/5 162/210/5 44/211/5 163/212/5
f 157/205/5 164/213/5 31/214/5 165/215/5
f 166/216/5 167/217/5 168/218/5
f 167/217/5 169/219/5 170/220/5 168/218/5
f 169/219/5 171/221/5 170/220/5
f 171/221/5 82/94/5 84/96/5 170/220/5
f 31/98/6 74/78/6 77/81/6 85/99/6
f 85/99/5 77/81/5 76/80/5 86/100/5
f 161/209/1 172/222/1 168/223/1 170/224/1
f 160/225/5 159/226/5 173/227/5 174/228/5
f 173/229/8 82/230/8 175/231/8 176/232/8
f 160/225/5 174/228/5 177/233/5
f 177/233/5 174/228/5 171/221/5 169/219/5
f 178/234/5 160/225/5 177/233/5 179/235/5
f 180/236/5 181/237/5 182/238/5 183/239/5
f 178/234/5 179/235/5 184/240/5
f 184/240/5 179/235/5 167/217/5 166/216/5
f 158/206/4 162/210/4 84/241/4 83/242/4 185/243/4 159/207/4
f 172/244/6 164/245/6 178/246/6 184/247/6 166/248/6 168/249/6
f 162/210/5 158/206/5 56/250/5 44/211/5
f 25/25/2 18/18/2 17/17/2 186/251/2
f 159/226/5 185/252/5 173/227/5
f 173/227/5 185/252/5 83/95/5 82/94/5
f 59/59/5 45/45/5 44/44/5 56/56/5
f 187/253/5 176/254/5 175/255/5 188/256/5
f 171/257/9 174/258/9 187/259/9 188/260/9
f 174/258/10 173/229/10 176/232/10 187/259/10
f 82/230/11 171/257/11 188/260/11 175/231/11
f 180/261/12 183/262/12 167/263/12 179/264/12
f 182/265/13 181/266/13 177/267/13 169/268/13
f 181/266/10 180/261/10 179/264/10 177/267/10
f 183/262/11 182/265/11 169/268/11 167/263/11
f 189/269/3 42/42/3 142/270/3 190/271/3
f 191/272/3 190/271/3 142/270/3 123/154/3
f 163/273/5 44/44/5 47/47/5 125/156/5
f 172/222/5 161/209/5 163/212/5 74/274/5
f 162/210/1 161/209/1 170/224/1 84/241/1
f 74/105/5 163/273/5 125/156/5 91/106/5
f 158/206/5 157/205/5 165/215/5 56/250/5
f 164/213/3 157/205/3 160/208/3 178/275/3
f 64/64/5 63/63/5 62/62/5 65/65/5
f 14/14/5 13/13/5 61/61/5 60/60/5
f 30/30/5 67/276/5 165/277/5 31/31/5
f 165/277/5 67/276/5 57/57/5 56/56/5
f 68/278/5 71/279/5 63/63/5 64/64/5
f 136/171/5 14/14/5 60/60/5 72/280/5
f 33/33/4 32/32/4 16/16/4 15/15/4
f 192/281/4 75/108/4 92/107/4 108/124/4 193/282/4
f 194/283/4 192/281/4 193/282/4 9/9/4 8/8/4
f 195/284/2 194/283/2 8/8/2 7/7/2
f 109/125/2 28/28/2 196/285/2 197/286/2
f 28/28/2 27/27/2 198/287/2 196/285/2
f 186/251/2 17/17/2 194/283/2 195/284/2
f 196/285/2 198/287/2 111/127/2 110/126/2
f 197/286/2 196/285/2 110/126/2 117/288/2
f 16/16/4 32/32/4 75/108/4 192/281/4
f 17/17/4 16/16/4 192/281/4 194/283/4
f 132/163/7 128/159/7 131/162/7 140/178/7
f 140/289/3 131/174/3 139/177/3 141/290/3
f 135/168/6 134/167/6 139/181/6 138/180/6
f 133/164/3 134/167/3 127/170/3 124/165/3
f 10/10/3 126/157/3 127/158/3 41/41/3
f 129/160/3 128/159/3 142/182/3 42/173/3
f 149/291/1 19/19/1 22/22/1 34/34/1
f 34/34/1 22/22/1 37/37/1 35/35/1
f 136/171/1 87/101/1 90/104/1 137/172/1
f 21/21/1 38/38/1 37/37/1 22/22/1
f 36/36/2 40/40/2 105/121/2 100/116/2
f 100/116/2 105/121/2 23/23/2 97/113/2
f 97/113/2 23/23/2 25/25/2 117/288/2
f 117/288/2 25/25/2 186/251/2 197/286/2
f 197/286/2 186/251/2 195/284/2 109/125/2
f 109/125/2 195/284/2 7/7/2 43/43/2
f 35/35/2 37/37/2 40/40/2 36/36/2
f 193/282/3 108/124/3 107/123/3 126/157/3
f 9/9/3 193/282/3 126/157/3 10/10/3
f 43/43/3 7/7/3 10/10/3 41/41/3
f 124/155/3 107/123/3 91/106/3 125/156/3
f 46/46/3 191/272/3 123/154/3 47/47/3
f 26/26/3 29/29/3 42/42/3 189/269/3
f 152/292/1 199/293/1 12/12/1 11/11/1
f 152/292/1 1/1/1 4/4/1 199/293/1
f 150/191/4 143/183/4 146/186/4 155/201/4
f 156/294/1 155/295/1 146/198/1 153/197/1
f 148/188/6 147/187/6 153/204/6 154/203/6
f 151/192/1 147/187/1 149/190/1 34/193/1
f 137/172/1 90/104/1 19/19/1 149/291/1
f 90/104/1 89/103/1 20/20/1 19/19/1
f 144/184/1 143/183/1 152/196/1 11/195/1
f 200/296/4 33/33/4 15/15/4 201/297/4
f 202/298/5 30/30/5 33/33/5 200/296/5
f 202/298/5 68/278/5 67/276/5 30/30/5
f 201/297/4 15/15/4 18/18/4 24/24/4
f 203/299/4 200/296/4 201/297/4 204/300/4
f 205/301/5 202/298/5 200/296/5 203/299/5
f 205/301/5 71/279/5 68/278/5 202/298/5
f 204/300/4 201/297/4 24/24/4 106/122/4
f 206/302/4 203/299/4 204/300/4 207/303/4
f 208/304/5 205/301/5 203/299/5 206/302/5
f 208/304/5 72/280/5 71/279/5 205/301/5
f 207/303/4 204/300/4 106/122/4 39/39/4
f 88/102/4 206/302/4 207/303/4 20/20/4 89/103/4
f 87/101/5 208/304/5 206/302/5 88/102/5
f 87/101/5 136/171/5 72/280/5 208/304/5
f 20/20/4 207/303/4 39/39/4 38/38/4 21/21/4
f 209/305/14 210/306/14 211/307/14 212/308/14
f 212/308/15 213/309/15 214/310/15 209/305/15
f 215/311/4 216/312/4 217/313/16 218/314/16
f 216/312/4 215/311/4 219/315/17 220/316/17
f 211/307/18 210/306/18 218/314/18 217/313/18
f 214/310/19 213/309/19 220/316/19 219/315/19
f 209/305/3 214/310/3 219/315/3 215/311/3
f 213/309/1 212/308/1 216/312/1 220/316/1
f 212/308/1 211/307/1 217/313/1 216/312/1
f 210/306/3 209/305/3 215/311/3 218/314/3
f 221/317/5 222/318/5 223/319/5 224/320/5
f 225/321/2 226/322/2 227/323/2 228/324/2
f 229/325/3 230/326/3 231/327/3 232/328/3
f 224/320/3 223/319/3 226/322/3 225/321/3
f 228/324/1 227/323/1 222/318/1 221/317/1
f 233/329/6 223/319/6 222/318/6 232/330/6
f 229/331/6 227/323/6 226/322/6 234/332/6
f 232/330/6 222/318/6 227/323/6 229/331/6
f 234/332/6 226/322/6 223/319/6 233/329/6
f 235/333/6 231/327/6 230/326/6 236/334/6
f 232/328/2 231/327/2 235/333/2 233/335/2
f 233/335/1 235/333/1 236/334/1 234/336/1
f 234/336/5 236/334/5 230/326/5 229/325/5
