# Blender v2.79 (sub 0) OBJ File: 'mod_Haus.blend'
# www.blender.org
mtllib mod_Haus.mtl
g Haus
v -0.213045 0.341246 -0.002126
v -0.213045 0.656974 -0.002126
v -0.426322 0.341245 -0.002126
v -0.284087 0.341246 -0.002126
v -0.426322 0.341246 -0.737646
v -0.426322 0.443697 -0.737646
v -0.426322 0.443697 -0.855237
v -0.426322 0.341246 -0.855237
v -0.426322 0.199060 -0.002126
v -0.426322 -0.000023 -0.002126
v -0.284087 -0.000023 -0.002126
v -0.284087 0.199060 -0.002126
v 0.000233 0.443697 -0.855237
v -0.213045 0.656974 -0.855237
v -0.426322 0.443697 -0.609295
v -0.426322 0.443697 -0.480945
v -0.426322 0.443697 -0.352595
v 0.000233 0.443697 -0.002126
v 0.000233 0.443697 -0.114950
v 0.000233 0.443697 -0.274624
v 0.000233 0.443697 -0.352595
v 0.000233 0.443697 -0.480945
v 0.000233 0.443697 -0.609296
v 0.000233 0.443697 -0.737646
v 0.000233 0.341245 -0.855237
v -0.141083 0.341246 -0.855237
v -0.213045 0.341246 -0.855237
v -0.139444 0.583374 -0.002126
v -0.286856 0.583163 -0.002126
v -0.426322 0.443697 -0.002126
v -0.213045 -0.000023 -0.855237
v -0.213045 -0.000023 -0.002126
v -0.426322 -0.000023 -0.352595
v -0.426322 -0.000023 -0.480945
v -0.426322 -0.000023 -0.609296
v -0.426322 -0.000023 -0.737646
v -0.426322 -0.000023 -0.855237
v -0.284087 -0.000023 -0.855237
v -0.141083 0.199060 -0.855237
v -0.141083 -0.000023 -0.855237
v -0.284087 0.199060 -0.855237
v -0.141083 0.341246 -0.002126
v 0.000233 0.341245 -0.002126
v -0.426322 0.199060 -0.480945
v -0.426322 0.199060 -0.352595
v -0.426322 0.341245 -0.352595
v 0.000233 0.017141 -0.855237
v 0.000233 0.017141 -0.274624
v 0.000233 -0.000023 -0.274624
v 0.000233 -0.000023 -0.855237
v -0.284087 0.341246 -0.855237
v -0.426322 0.199060 -0.855237
v -0.426322 0.199060 -0.737646
v 0.000233 0.017141 -0.114951
v 0.000233 0.341245 -0.114950
v 0.000233 0.199060 -0.002126
v 0.000233 0.017141 -0.002126
v 0.000233 0.209327 -0.721599
v 0.000234 0.330979 -0.721599
v -0.010430 0.330979 -0.721599
v -0.010430 0.209327 -0.721599
v 0.000233 0.330979 -0.366322
v 0.000233 0.209327 -0.366322
v -0.010430 0.209327 -0.366322
v -0.010430 0.330979 -0.366322
v 0.000233 0.199060 -0.855237
v 0.000233 0.341245 -0.737646
v 0.000233 0.199060 -0.737646
v 0.000233 0.199060 -0.609296
v 0.000233 0.341245 -0.609296
v 0.000233 0.341245 -0.480945
v 0.000233 0.199060 -0.480946
v 0.000233 0.199060 -0.352595
v 0.000233 0.341245 -0.352595
v 0.000233 0.341245 -0.274624
v 0.000233 0.209327 -0.467219
v 0.000233 0.330979 -0.467219
v 0.000233 0.209327 -0.625343
v 0.000233 0.330979 -0.625343
v 0.000233 -0.000023 -0.114951
v 0.033589 -0.000023 -0.114951
v 0.033589 0.017141 -0.114951
v -0.010430 0.209327 -0.467219
v -0.010430 0.330979 -0.467219
v -0.010430 0.330979 -0.625343
v -0.010430 0.209327 -0.625343
v -0.010430 0.314436 -0.155877
v -0.010430 0.330979 -0.155877
v -0.010430 0.330979 -0.130847
v 0.033589 0.017141 -0.274624
v 0.033589 -0.000023 -0.274624
v 0.000233 -0.000023 -0.002126
v -0.426322 0.330979 -0.467219
v -0.426322 0.209327 -0.467219
v -0.415658 0.209327 -0.467219
v -0.415658 0.330979 -0.467219
v -0.426322 0.341246 -0.480945
v -0.426322 0.341246 -0.609295
v -0.426322 0.199060 -0.609295
v -0.426322 0.209327 -0.721599
v -0.426322 0.209327 -0.625343
v -0.415658 0.209327 -0.625343
v -0.415658 0.209327 -0.721599
v -0.141083 0.199060 -0.002126
v -0.141083 -0.000023 -0.002126
v -0.426322 0.330979 -0.721599
v -0.426322 0.330979 -0.625343
v -0.426322 0.209327 -0.366322
v -0.426322 0.330979 -0.366322
v -0.415658 0.330979 -0.625343
v -0.415658 0.330979 -0.721599
v -0.415658 0.209327 -0.366322
v -0.415658 0.330979 -0.366322
v -0.149169 0.333158 -0.002126
v -0.276000 0.333158 -0.002126
v -0.276000 0.333159 -0.012790
v -0.149169 0.333159 -0.012789
v -0.149169 0.207147 -0.002126
v -0.276000 0.207147 -0.002126
v -0.276000 0.207147 -0.012790
v -0.149169 0.207147 -0.012790
v -0.276000 0.333158 -0.855237
v -0.149169 0.333158 -0.855237
v -0.149169 0.333158 -0.844573
v -0.276000 0.333158 -0.844573
v -0.276000 0.207147 -0.855237
v -0.149169 0.207147 -0.855237
v -0.276000 0.207147 -0.844573
v -0.149169 0.207147 -0.844573
v 0.000233 0.017141 -0.258728
v 0.000233 0.330979 -0.258728
v -0.010430 0.330979 -0.258728
v -0.010430 0.204382 -0.258728
v -0.213045 0.207147 -0.002126
v -0.010430 0.017141 -0.258728
v 0.000233 0.017141 -0.130847
v 0.000233 0.330979 -0.130847
v -0.010430 0.017141 -0.155877
v -0.010430 0.059108 -0.155877
v -0.010430 0.017141 -0.130847
v -0.010430 0.173580 -0.155877
v -0.213045 0.199060 -0.002126
v -0.010430 0.204382 -0.155877
v -0.010430 0.204382 -0.130847
v -0.010430 0.314436 -0.233430
v -0.010430 0.204382 -0.233430
v -0.011924 0.307897 -0.165580
v -0.011924 0.307897 -0.222244
v -0.010430 0.173580 -0.233430
v -0.010430 0.059108 -0.233430
v -0.011924 0.069331 -0.222244
v -0.011924 0.163843 -0.222244
v -0.011924 0.163843 -0.165580
v -0.011924 0.069331 -0.165580
v -0.010430 0.017141 -0.233430
v -0.010430 0.330979 -0.233430
v -0.011924 0.213153 -0.222244
v -0.011924 0.213153 -0.165580
v 0.000233 0.204382 -0.130847
v 0.000233 0.203725 -0.114950
v 0.000233 0.204143 -0.258728
v 0.000233 0.203282 -0.274624
v -0.213045 -0.000023 -0.114951
v -0.426322 0.341245 -0.114951
v -0.426322 -0.000023 -0.114951
v -0.426322 0.199060 -0.114951
v -0.426322 0.443697 -0.114951
v -0.426322 0.341245 -0.274624
v -0.213045 -0.000023 -0.274624
v -0.426322 0.199060 -0.274624
v -0.426322 -0.000023 -0.274624
v -0.426322 0.443697 -0.274624
v -0.213045 0.207147 -0.012790
v -0.213045 0.333159 -0.012790
v -0.213045 0.333158 -0.002126
v -0.426322 0.019007 -0.855237
v -0.284087 0.018385 -0.855237
v -0.141083 0.017759 -0.855237
v -0.426322 0.019007 -0.002126
v -0.426322 0.019007 -0.114951
v -0.426322 0.019007 -0.274624
v -0.426322 0.019007 -0.352595
v -0.426322 0.019007 -0.480945
v -0.426322 0.019007 -0.609296
v -0.426322 0.019007 -0.737646
v -0.284087 0.018385 -0.002126
v -0.213045 0.018074 -0.002126
v -0.141083 0.017759 -0.002126
v -0.281411 0.588608 -0.855237
v -0.140705 0.584635 -0.855237
v -0.213045 0.018074 -0.855237
v -0.213045 0.199060 -0.855237
v -0.213045 0.207147 -0.855237
v -0.213045 0.207147 -0.844573
v -0.213045 0.333158 -0.844573
v -0.213045 0.333158 -0.855237
v 0.000233 0.017141 -0.352595
v 0.000233 -0.000023 -0.352595
v -0.213045 -0.000023 -0.352595
v 0.000233 0.017141 -0.480946
v 0.000233 -0.000023 -0.480946
v -0.213045 -0.000023 -0.480945
v 0.000233 0.017141 -0.609296
v 0.000233 -0.000023 -0.609296
v -0.213045 -0.000023 -0.609296
v 0.000233 0.017141 -0.737647
v 0.000233 -0.000023 -0.737647
v -0.213045 -0.000023 -0.737646
v -0.213045 0.674007 -0.876565
v -0.213045 0.674007 0.019202
v 0.033099 0.430755 -0.876565
v 0.033099 0.430755 0.019202
v -0.459188 0.430755 0.019202
v -0.459188 0.430755 -0.876565
v -0.213045 0.654304 -0.876565
v -0.213045 0.654304 0.019202
v 0.019250 0.416742 -0.876565
v 0.019250 0.416741 0.019202
v -0.445340 0.416741 0.019202
v -0.445340 0.416742 -0.876565
v -0.176261 0.634664 -0.086857
v -0.176261 0.634664 -0.177068
v -0.105168 0.563571 -0.177068
v -0.105169 0.563571 -0.086856
v -0.105169 0.737232 -0.086856
v -0.105168 0.737232 -0.177068
v -0.176261 0.737232 -0.177068
v -0.176261 0.737232 -0.086857
v -0.163467 0.737232 -0.162497
v -0.117963 0.737232 -0.162497
v -0.117963 0.625035 -0.162497
v -0.163467 0.625035 -0.162497
v -0.117963 0.737232 -0.101427
v -0.163467 0.737232 -0.101427
v -0.117963 0.625035 -0.101427
v -0.163467 0.625035 -0.101427
vn 0.0000 -0.0000 -1.0000
vn -1.0000 -0.0000 0.0000
vn -0.0000 -0.0000 1.0000
vn 0.0000 -1.0000 -0.0000
vn 1.0000 -0.0000 0.0000
vn 0.0000 1.0000 0.0000
vn 0.0000 -1.0000 -0.0001
vn 0.9749 -0.2226 0.0000
vn 0.9858 0.1678 0.0000
vn 0.9912 -0.0000 0.1323
vn 0.9884 0.0000 -0.1521
vn 0.9895 0.1445 0.0000
vn 0.9884 -0.1516 0.0000
vn 0.7029 0.7113 0.0000
vn -0.7029 0.7113 0.0000
vn -0.7150 -0.6991 -0.0000
vn 0.7150 -0.6991 -0.0000
vn 0.7113 -0.7029 -0.0000
vn -0.7113 -0.7029 -0.0000
usemtl None
s 1
f 51//1 8//1 7//1 189//1
f 5//2 6//2 7//2 8//2
f 179//3 10//3 11//3 186//3
f 26//1 190//1 13//1 25//1
f 199//4 169//4 171//4 33//4
f 191//1 31//1 38//1 177//1
f 183//2 34//2 33//2 182//2
f 30//2 167//2 164//2 3//2
f 197//5 48//5 49//5 198//5
f 51//1 41//1 52//1 8//1
f 53//2 5//2 8//2 52//2
f 176//2 37//2 36//2 185//2
f 12//3 4//3 3//3 9//3
f 55//5 19//5 18//5 43//5
f 58//3 59//3 60//3 61//3
f 62//1 63//1 64//1 65//1
f 75//5 74//5 21//5 20//5
f 67//5 24//5 23//5 70//5
f 71//5 22//5 21//5 74//5
f 76//5 63//5 73//5 72//5
f 62//5 77//5 71//5 74//5
f 77//5 76//5 72//5 71//5
f 63//5 62//5 74//5 73//5
f 58//5 78//5 69//5 68//5
f 79//5 59//5 67//5 70//5
f 59//5 58//5 68//5 67//5
f 78//5 79//5 70//5 69//5
f 54//3 80//3 81//3 82//3
f 83//5 84//5 65//5 64//5
f 77//4 62//4 65//4 84//4
f 76//3 77//3 84//3 83//3
f 63//6 76//6 83//6 64//6
f 61//5 60//5 85//5 86//5
f 78//6 58//6 61//6 86//6
f 79//1 78//1 86//1 85//1
f 59//4 79//4 85//4 60//4
f 87//5 88//5 89//5
f 49//1 48//1 90//1 91//1
f 47//1 50//1 40//1 178//1
f 54//5 57//5 92//5 80//5
f 93//3 94//3 95//3 96//3
f 44//2 97//2 98//2 99//2
f 100//6 101//6 102//6 103//6
f 184//2 35//2 34//2 183//2
f 185//2 36//2 35//2 184//2
f 188//3 105//3 92//3 57//3
f 9//2 3//2 164//2 166//2
f 46//2 17//2 16//2 97//2
f 97//2 16//2 15//2 98//2
f 98//2 15//2 6//2 5//2
f 101//2 100//2 53//2 99//2
f 106//2 107//2 98//2 5//2
f 107//2 101//2 99//2 98//2
f 100//2 106//2 5//2 53//2
f 108//2 94//2 44//2 45//2
f 93//2 109//2 46//2 97//2
f 109//2 108//2 45//2 46//2
f 94//2 93//2 97//2 44//2
f 102//2 110//2 111//2 103//2
f 106//3 100//3 103//3 111//3
f 107//4 106//4 111//4 110//4
f 101//1 107//1 110//1 102//1
f 112//2 113//2 96//2 95//2
f 109//4 93//4 96//4 113//4
f 108//1 109//1 113//1 112//1
f 94//6 108//6 112//6 95//6
f 43//3 42//3 104//3 56//3
f 187//3 188//3 104//3 142//3
f 175//7 115//7 116//7 174//7
f 114//3 118//3 104//3 42//3
f 134//3 119//3 12//3 142//3
f 66//1 39//1 26//1 25//1
f 119//3 115//3 4//3 12//3
f 174//3 116//3 120//3 173//3
f 118//2 114//2 117//2 121//2
f 115//5 119//5 120//5 116//5
f 134//6 118//6 121//6 173//6
f 175//3 114//3 42//3 1//3
f 49//4 91//4 81//4 80//4
f 196//4 123//4 124//4 195//4
f 193//1 127//1 39//1 192//1
f 122//1 126//1 41//1 51//1
f 127//1 123//1 26//1 39//1
f 196//1 122//1 51//1 27//1
f 194//1 195//1 124//1 129//1
f 126//5 122//5 125//5 128//5
f 123//2 127//2 129//2 124//2
f 193//6 126//6 128//6 194//6
f 161//3 131//3 132//3 133//3
f 159//5 137//5 55//5 160//5
f 161//5 130//5 48//5 162//5
f 138//5 139//5 140//5
f 139//5 141//5 144//5 140//5
f 141//5 143//5 144//5
f 143//5 87//5 89//5 144//5
f 48//6 54//6 82//6 90//6
f 90//5 82//5 81//5 91//5
f 159//1 136//1 140//1 144//1
f 133//5 132//5 145//5 146//5
f 145//8 87//8 147//8 148//8
f 133//5 146//5 149//5
f 149//5 146//5 143//5 141//5
f 135//5 133//5 149//5 150//5
f 151//5 152//5 153//5 154//5
f 135//5 150//5 155//5
f 155//5 150//5 139//5 138//5
f 131//4 137//4 89//4 88//4 156//4 132//4
f 136//6 130//6 135//6 155//6 138//6 140//6
f 137//5 131//5 75//5 55//5
f 182//2 33//2 171//2 181//2
f 132//5 156//5 145//5
f 145//5 156//5 88//5 87//5
f 20//5 19//5 55//5 75//5
f 157//5 148//5 147//5 158//5
f 143//9 146//9 157//9 158//9
f 146//10 145//10 148//10 157//10
f 87//11 143//11 158//11 147//11
f 151//12 154//12 139//12 150//12
f 153//13 152//13 149//13 141//13
f 152//10 151//10 150//10 149//10
f 154//11 153//11 141//11 139//11
f 29//3 4//3 1//3 2//3
f 28//3 2//3 1//3 42//3
f 160//5 55//5 43//5 56//5
f 136//5 159//5 160//5 54//5
f 137//1 159//1 144//1 89//1
f 54//5 160//5 56//5 57//5
f 131//5 161//5 162//5 75//5
f 130//3 161//3 133//3 135//3
f 71//5 70//5 23//5 22//5
f 25//5 13//5 24//5 67//5
f 197//5 73//5 162//5 48//5
f 162//5 73//5 74//5 75//5
f 72//5 69//5 70//5 71//5
f 66//5 25//5 67//5 68//5
f 198//4 49//4 169//4 199//4
f 163//4 80//4 92//4 105//4 32//4
f 165//4 163//4 32//4 11//4 10//4
f 180//2 165//2 10//2 179//2
f 166//2 164//2 168//2 170//2
f 164//2 167//2 172//2 168//2
f 181//2 171//2 165//2 180//2
f 168//2 172//2 17//2 46//2
f 170//2 168//2 46//2 45//2
f 169//4 49//4 80//4 163//4
f 171//4 169//4 163//4 165//4
f 114//7 175//7 174//7 117//7
f 117//3 174//3 173//3 121//3
f 119//6 134//6 173//6 120//6
f 118//3 134//3 142//3 104//3
f 186//3 187//3 142//3 12//3
f 115//3 175//3 1//3 4//3
f 192//1 191//1 177//1 41//1
f 41//1 177//1 176//1 52//1
f 66//1 47//1 178//1 39//1
f 38//1 37//1 176//1 177//1
f 53//2 185//2 184//2 99//2
f 99//2 184//2 183//2 44//2
f 44//2 183//2 182//2 45//2
f 45//2 182//2 181//2 170//2
f 170//2 181//2 180//2 166//2
f 166//2 180//2 179//2 9//2
f 52//2 176//2 185//2 53//2
f 32//3 105//3 188//3 187//3
f 11//3 32//3 187//3 186//3
f 9//3 179//3 186//3 12//3
f 104//3 188//3 57//3 56//3
f 18//3 28//3 42//3 43//3
f 30//3 3//3 4//3 29//3
f 27//1 14//1 190//1 26//1
f 27//1 51//1 189//1 14//1
f 122//4 196//4 195//4 125//4
f 128//1 125//1 195//1 194//1
f 127//6 193//6 194//6 129//6
f 126//1 193//1 192//1 41//1
f 39//1 178//1 191//1 192//1
f 178//1 40//1 31//1 191//1
f 123//1 196//1 27//1 26//1
f 201//4 198//4 199//4 202//4
f 200//5 197//5 198//5 201//5
f 200//5 72//5 73//5 197//5
f 202//4 199//4 33//4 34//4
f 204//4 201//4 202//4 205//4
f 203//5 200//5 201//5 204//5
f 203//5 69//5 72//5 200//5
f 205//4 202//4 34//4 35//4
f 207//4 204//4 205//4 208//4
f 206//5 203//5 204//5 207//5
f 206//5 68//5 69//5 203//5
f 208//4 205//4 35//4 36//4
f 50//4 207//4 208//4 31//4 40//4
f 47//5 206//5 207//5 50//5
f 47//5 66//5 68//5 206//5
f 31//4 208//4 36//4 37//4 38//4
f 210//14 212//14 211//14 209//14
f 209//15 214//15 213//15 210//15
f 216//4 215//4 217//16 218//16
f 215//4 216//4 219//17 220//17
f 211//18 212//18 218//18 217//18
f 213//19 214//19 220//19 219//19
f 210//3 213//3 219//3 216//3
f 214//1 209//1 215//1 220//1
f 209//1 211//1 217//1 215//1
f 212//3 210//3 216//3 218//3
f 223//5 226//5 225//5 224//5
f 221//2 228//2 227//2 222//2
f 229//3 232//3 231//3 230//3
f 224//3 225//3 228//3 221//3
f 222//1 227//1 226//1 223//1
f 233//6 225//6 226//6 230//6
f 229//6 227//6 228//6 234//6
f 230//6 226//6 227//6 229//6
f 234//6 228//6 225//6 233//6
f 235//6 231//6 232//6 236//6
f 230//2 231//2 235//2 233//2
f 233//1 235//1 236//1 234//1
f 234//5 236//5 232//5 229//5
